<?xml version="1.0" encoding="UTF-8" standalone="no"?>
<!DOCTYPE svg PUBLIC "-//W3C//DTD SVG 1.1//EN"
 "http://www.w3.org/Graphics/SVG/1.1/DTD/svg11.dtd">
<!-- Generated by graphviz version 3.0.0 (20220226.1711)
 -->
<!-- Title: dependencies Pages: 1 -->
<svg width="280pt" height="247pt"
 viewBox="0.00 0.00 280.00 246.80" xmlns="http://www.w3.org/2000/svg" xmlns:xlink="http://www.w3.org/1999/xlink">
<g id="graph0" class="graph" transform="scale(1 1) rotate(0) translate(4 242.8)">
<title>dependencies</title>
<polygon fill="white" stroke="transparent" points="-4,4 -4,-242.8 276,-242.8 276,4 -4,4"/>
<text text-anchor="middle" x="136" y="-8.2" font-family="sans-serif" font-size="14.00">dependencies</text>
<g id="clust1" class="cluster">
<title>cluster_StripeSubscriptionModule</title>
<polygon fill="none" stroke="black" stroke-dasharray="1,5" points="8,-32.8 8,-230.8 264,-230.8 264,-32.8 8,-32.8"/>
</g>
<g id="clust6" class="cluster">
<title>cluster_StripeSubscriptionModule_providers</title>
<polygon fill="none" stroke="black" points="16,-40.8 16,-92.8 256,-92.8 256,-40.8 16,-40.8"/>
</g>
<g id="clust4" class="cluster">
<title>cluster_StripeSubscriptionModule_exports</title>
<polygon fill="none" stroke="black" points="45,-170.8 45,-222.8 227,-222.8 227,-170.8 45,-170.8"/>
</g>
<!-- StripeSubscriptionService  -->
<g id="node1" class="node">
<title>StripeSubscriptionService </title>
<polygon fill="#fb8072" stroke="black" points="218.7,-214.8 53.3,-214.8 53.3,-178.8 218.7,-178.8 218.7,-214.8"/>
<text text-anchor="middle" x="136" y="-192.6" font-family="Times,serif" font-size="14.00">StripeSubscriptionService </text>
</g>
<!-- StripeSubscriptionModule -->
<g id="node2" class="node">
<title>StripeSubscriptionModule</title>
<polygon fill="#8dd3c7" stroke="black" points="217.77,-149.8 214.77,-153.8 193.77,-153.8 190.77,-149.8 54.23,-149.8 54.23,-113.8 217.77,-113.8 217.77,-149.8"/>
<text text-anchor="middle" x="136" y="-127.6" font-family="Times,serif" font-size="14.00">StripeSubscriptionModule</text>
</g>
<!-- StripeSubscriptionModule&#45;&gt;StripeSubscriptionService  -->
<g id="edge1" class="edge">
<title>StripeSubscriptionModule&#45;&gt;StripeSubscriptionService </title>
<path fill="none" stroke="black" stroke-dasharray="5,2" d="M136,-149.91C136,-149.91 136,-168.79 136,-168.79"/>
<polygon fill="black" stroke="black" points="132.5,-168.79 136,-178.79 139.5,-168.79 132.5,-168.79"/>
</g>
<!-- StripeSubscriptionService -->
<g id="node3" class="node">
<title>StripeSubscriptionService</title>
<ellipse fill="#fdb462" stroke="black" cx="136" cy="-66.8" rx="111.77" ry="18"/>
<text text-anchor="middle" x="136" y="-62.6" font-family="Times,serif" font-size="14.00">StripeSubscriptionService</text>
</g>
<!-- StripeSubscriptionService&#45;&gt;StripeSubscriptionModule -->
<g id="edge2" class="edge">
<title>StripeSubscriptionService&#45;&gt;StripeSubscriptionModule</title>
<path fill="none" stroke="black" d="M136,-84.91C136,-84.91 136,-103.79 136,-103.79"/>
<polygon fill="black" stroke="black" points="132.5,-103.79 136,-113.79 139.5,-103.79 132.5,-103.79"/>
</g>
</g>
</svg>
