<?xml version="1.0" encoding="UTF-8" standalone="no"?>
<!DOCTYPE svg PUBLIC "-//W3C//DTD SVG 1.1//EN"
 "http://www.w3.org/Graphics/SVG/1.1/DTD/svg11.dtd">
<!-- Generated by graphviz version 3.0.0 (20220226.1711)
 -->
<!-- Title: dependencies Pages: 1 -->
<svg width="198pt" height="247pt"
 viewBox="0.00 0.00 198.00 246.80" xmlns="http://www.w3.org/2000/svg" xmlns:xlink="http://www.w3.org/1999/xlink">
<g id="graph0" class="graph" transform="scale(1 1) rotate(0) translate(4 242.8)">
<title>dependencies</title>
<polygon fill="white" stroke="transparent" points="-4,4 -4,-242.8 194,-242.8 194,4 -4,4"/>
<text text-anchor="middle" x="95" y="-8.2" font-family="sans-serif" font-size="14.00">dependencies</text>
<g id="clust1" class="cluster">
<title>cluster_OpenAiModule</title>
<polygon fill="none" stroke="black" stroke-dasharray="1,5" points="8,-32.8 8,-230.8 182,-230.8 182,-32.8 8,-32.8"/>
</g>
<g id="clust6" class="cluster">
<title>cluster_OpenAiModule_providers</title>
<polygon fill="none" stroke="black" points="16,-40.8 16,-92.8 174,-92.8 174,-40.8 16,-40.8"/>
</g>
<g id="clust4" class="cluster">
<title>cluster_OpenAiModule_exports</title>
<polygon fill="none" stroke="black" points="34,-170.8 34,-222.8 156,-222.8 156,-170.8 34,-170.8"/>
</g>
<!-- OpenAiService  -->
<g id="node1" class="node">
<title>OpenAiService </title>
<polygon fill="#fb8072" stroke="black" points="147.8,-214.8 42.2,-214.8 42.2,-178.8 147.8,-178.8 147.8,-214.8"/>
<text text-anchor="middle" x="95" y="-192.6" font-family="Times,serif" font-size="14.00">OpenAiService </text>
</g>
<!-- OpenAiModule -->
<g id="node2" class="node">
<title>OpenAiModule</title>
<polygon fill="#8dd3c7" stroke="black" points="146.88,-149.8 143.88,-153.8 122.88,-153.8 119.88,-149.8 43.12,-149.8 43.12,-113.8 146.88,-113.8 146.88,-149.8"/>
<text text-anchor="middle" x="95" y="-127.6" font-family="Times,serif" font-size="14.00">OpenAiModule</text>
</g>
<!-- OpenAiModule&#45;&gt;OpenAiService  -->
<g id="edge1" class="edge">
<title>OpenAiModule&#45;&gt;OpenAiService </title>
<path fill="none" stroke="black" stroke-dasharray="5,2" d="M95,-149.91C95,-149.91 95,-168.79 95,-168.79"/>
<polygon fill="black" stroke="black" points="91.5,-168.79 95,-178.79 98.5,-168.79 91.5,-168.79"/>
</g>
<!-- OpenAiService -->
<g id="node3" class="node">
<title>OpenAiService</title>
<ellipse fill="#fdb462" stroke="black" cx="95" cy="-66.8" rx="70.63" ry="18"/>
<text text-anchor="middle" x="95" y="-62.6" font-family="Times,serif" font-size="14.00">OpenAiService</text>
</g>
<!-- OpenAiService&#45;&gt;OpenAiModule -->
<g id="edge2" class="edge">
<title>OpenAiService&#45;&gt;OpenAiModule</title>
<path fill="none" stroke="black" d="M95,-84.91C95,-84.91 95,-103.79 95,-103.79"/>
<polygon fill="black" stroke="black" points="91.5,-103.79 95,-113.79 98.5,-103.79 91.5,-103.79"/>
</g>
</g>
</svg>
