<?xml version="1.0" encoding="UTF-8" standalone="no"?>
<!DOCTYPE svg PUBLIC "-//W3C//DTD SVG 1.1//EN"
 "http://www.w3.org/Graphics/SVG/1.1/DTD/svg11.dtd">
<!-- Generated by graphviz version 2.40.1 (20161225.0304)
 -->
<!-- Title: public.baked_repos Pages: 1 -->
<svg width="1350pt" height="532pt"
 viewBox="0.00 0.00 1350.00 532.00" xmlns="http://www.w3.org/2000/svg" xmlns:xlink="http://www.w3.org/1999/xlink">
<g id="graph0" class="graph" transform="scale(1 1) rotate(0) translate(4 528)">
<title>public.baked_repos</title>
<polygon fill="#ffffff" stroke="transparent" points="-4,4 -4,-528 1346,-528 1346,4 -4,4"/>
<!-- public.baked_repos -->
<g id="node1" class="node">
<title>public.baked_repos</title>
<polygon fill="#efefef" stroke="transparent" points="331,-135.5 331,-170.5 598,-170.5 598,-135.5 331,-135.5"/>
<polygon fill="none" stroke="#000000" points="331,-135.5 331,-170.5 598,-170.5 598,-135.5 331,-135.5"/>
<text text-anchor="start" x="337.8476" y="-148.3" font-family="Arial Bold" font-size="18.00" fill="#000000">public.baked_repos</text>
<text text-anchor="start" x="493.8986" y="-148.3" font-family="Arial" font-size="14.00" fill="#000000"> </text>
<text text-anchor="start" x="497.7892" y="-148.3" font-family="Arial" font-size="14.00" fill="#666666">[BASE TABLE]</text>
<polygon fill="none" stroke="#000000" points="331,-105.5 331,-135.5 598,-135.5 598,-105.5 331,-105.5"/>
<text text-anchor="start" x="338" y="-116.9" font-family="Arial" font-size="14.00" fill="#000000">id </text>
<text text-anchor="start" x="352.7798" y="-116.9" font-family="Arial" font-size="14.00" fill="#666666">[bigint]</text>
<polygon fill="none" stroke="#000000" points="331,-75.5 331,-105.5 598,-105.5 598,-75.5 331,-75.5"/>
<text text-anchor="start" x="338" y="-86.9" font-family="Arial" font-size="14.00" fill="#000000">clone_url </text>
<text text-anchor="start" x="398.6774" y="-86.9" font-family="Arial" font-size="14.00" fill="#666666">[varchar(255)]</text>
<polygon fill="none" stroke="#000000" points="331,-45.5 331,-75.5 598,-75.5 598,-45.5 331,-45.5"/>
<text text-anchor="start" x="338" y="-56.9" font-family="Arial" font-size="14.00" fill="#000000">repo_id </text>
<text text-anchor="start" x="388.5708" y="-56.9" font-family="Arial" font-size="14.00" fill="#666666">[bigint]</text>
<polygon fill="none" stroke="#000000" stroke-width="3" points="329,-44.5 329,-172.5 599,-172.5 599,-44.5 329,-44.5"/>
</g>
<!-- public.commits -->
<g id="node2" class="node">
<title>public.commits</title>
<polygon fill="#efefef" stroke="transparent" points="526,-445.5 526,-480.5 789,-480.5 789,-445.5 526,-445.5"/>
<polygon fill="none" stroke="#000000" points="526,-445.5 526,-480.5 789,-480.5 789,-445.5 526,-445.5"/>
<text text-anchor="start" x="549.375" y="-458.3" font-family="Arial Bold" font-size="18.00" fill="#000000">public.commits</text>
<text text-anchor="start" x="668.3712" y="-458.3" font-family="Arial" font-size="14.00" fill="#000000"> </text>
<text text-anchor="start" x="672.2618" y="-458.3" font-family="Arial" font-size="14.00" fill="#666666">[BASE TABLE]</text>
<polygon fill="none" stroke="#000000" points="526,-415.5 526,-445.5 789,-445.5 789,-415.5 526,-415.5"/>
<text text-anchor="start" x="533" y="-426.9" font-family="Arial" font-size="14.00" fill="#000000">id </text>
<text text-anchor="start" x="547.7798" y="-426.9" font-family="Arial" font-size="14.00" fill="#666666">[bigint]</text>
<polygon fill="none" stroke="#000000" points="526,-385.5 526,-415.5 789,-415.5 789,-385.5 526,-385.5"/>
<text text-anchor="start" x="533" y="-396.9" font-family="Arial" font-size="14.00" fill="#000000">baked_repo_id </text>
<text text-anchor="start" x="629.4838" y="-396.9" font-family="Arial" font-size="14.00" fill="#666666">[bigint]</text>
<polygon fill="none" stroke="#000000" points="526,-355.5 526,-385.5 789,-385.5 789,-355.5 526,-355.5"/>
<text text-anchor="start" x="533" y="-366.9" font-family="Arial" font-size="14.00" fill="#000000">commit_author_id </text>
<text text-anchor="start" x="648.1276" y="-366.9" font-family="Arial" font-size="14.00" fill="#666666">[bigint]</text>
<polygon fill="none" stroke="#000000" points="526,-325.5 526,-355.5 789,-355.5 789,-325.5 526,-325.5"/>
<text text-anchor="start" x="533" y="-336.9" font-family="Arial" font-size="14.00" fill="#000000">commit_hash </text>
<text text-anchor="start" x="620.122" y="-336.9" font-family="Arial" font-size="14.00" fill="#666666">[varchar(255)]</text>
<polygon fill="none" stroke="#000000" points="526,-295.5 526,-325.5 789,-325.5 789,-295.5 526,-295.5"/>
<text text-anchor="start" x="532.6515" y="-306.9" font-family="Arial" font-size="14.00" fill="#000000">commit_date </text>
<text text-anchor="start" x="616.6641" y="-306.9" font-family="Arial" font-size="14.00" fill="#666666">[timestamp with time zone]</text>
</g>
<!-- public.commits&#45;&gt;public.baked_repos -->
<g id="edge1" class="edge">
<title>public.commits:baked_repo_id&#45;&gt;public.baked_repos:id</title>
<path fill="none" stroke="#000000" d="M515.7739,-399.6403C463.9773,-390.2235 493.4875,-305.6063 526,-253 544.8091,-222.5662 579.1909,-247.4338 598,-217 620.548,-180.5165 640.8889,-120.5 598,-120.5"/>
<polygon fill="#000000" stroke="#000000" points="516.0352,-399.6622 525.623,-404.9842 521.0176,-400.0811 526,-400.5 526,-400.5 526,-400.5 521.0176,-400.0811 526.377,-396.0158 516.0352,-399.6622 516.0352,-399.6622"/>
<text text-anchor="start" x="6.5885" y="-410.5" font-family="Arial" font-size="10.00" fill="#000000">FOREIGN KEY (baked_repo_id) REFERENCES baked_repos(id) ON UPDATE CASCADE ON DELETE CASCADE</text>
</g>
<!-- public.commit_authors -->
<g id="node3" class="node">
<title>public.commit_authors</title>
<polygon fill="#efefef" stroke="transparent" points="705,-120.5 705,-155.5 996,-155.5 996,-120.5 705,-120.5"/>
<polygon fill="none" stroke="#000000" points="705,-120.5 705,-155.5 996,-155.5 996,-120.5 705,-120.5"/>
<text text-anchor="start" x="711.8623" y="-133.3" font-family="Arial Bold" font-size="18.00" fill="#000000">public.commit_authors</text>
<text text-anchor="start" x="891.8839" y="-133.3" font-family="Arial" font-size="14.00" fill="#000000"> </text>
<text text-anchor="start" x="895.7745" y="-133.3" font-family="Arial" font-size="14.00" fill="#666666">[BASE TABLE]</text>
<polygon fill="none" stroke="#000000" points="705,-90.5 705,-120.5 996,-120.5 996,-90.5 705,-90.5"/>
<text text-anchor="start" x="712" y="-101.9" font-family="Arial" font-size="14.00" fill="#000000">id </text>
<text text-anchor="start" x="726.7798" y="-101.9" font-family="Arial" font-size="14.00" fill="#666666">[bigint]</text>
<polygon fill="none" stroke="#000000" points="705,-60.5 705,-90.5 996,-90.5 996,-60.5 705,-60.5"/>
<text text-anchor="start" x="712" y="-71.9" font-family="Arial" font-size="14.00" fill="#000000">commit_author_email </text>
<text text-anchor="start" x="849.6774" y="-71.9" font-family="Arial" font-size="14.00" fill="#666666">[varchar(255)]</text>
</g>
<!-- public.commits&#45;&gt;public.commit_authors -->
<g id="edge2" class="edge">
<title>public.commits:commit_author_id&#45;&gt;public.commit_authors:id</title>
<path fill="none" stroke="#000000" d="M799.3485,-369.3556C837.197,-360.0047 812.167,-295.4342 789,-253 767.7326,-214.0452 726.2674,-237.9548 705,-199 685.0871,-162.5262 663.4444,-105.5 705,-105.5"/>
<polygon fill="#000000" stroke="#000000" points="798.9394,-369.4007 788.5053,-366.0273 793.9697,-369.9504 789,-370.5 789,-370.5 789,-370.5 793.9697,-369.9504 789.4947,-374.9727 798.9394,-369.4007 798.9394,-369.4007"/>
<text text-anchor="start" x="796.2715" y="-380.5" font-family="Arial" font-size="10.00" fill="#000000">FOREIGN KEY (commit_author_id) REFERENCES commit_authors(id) ON UPDATE CASCADE ON DELETE CASCADE</text>
</g>
</g>
</svg>
