<?xml version="1.0" encoding="UTF-8" standalone="no"?>
<!DOCTYPE svg PUBLIC "-//W3C//DTD SVG 1.1//EN"
 "http://www.w3.org/Graphics/SVG/1.1/DTD/svg11.dtd">
<!-- Generated by graphviz version 2.40.1 (20161225.0304)
 -->
<!-- Title: public.insights Pages: 1 -->
<svg width="1281pt" height="1816pt"
 viewBox="0.00 0.00 1281.00 1816.00" xmlns="http://www.w3.org/2000/svg" xmlns:xlink="http://www.w3.org/1999/xlink">
<g id="graph0" class="graph" transform="scale(1 1) rotate(0) translate(4 1812)">
<title>public.insights</title>
<polygon fill="#ffffff" stroke="transparent" points="-4,4 -4,-1812 1277,-1812 1277,4 -4,4"/>
<!-- public.insights -->
<g id="node1" class="node">
<title>public.insights</title>
<polygon fill="#efefef" stroke="transparent" points="303,-807.5 303,-842.5 571,-842.5 571,-807.5 303,-807.5"/>
<polygon fill="none" stroke="#000000" points="303,-807.5 303,-842.5 571,-842.5 571,-807.5 303,-807.5"/>
<text text-anchor="start" x="331.8639" y="-820.3" font-family="Arial Bold" font-size="18.00" fill="#000000">public.insights</text>
<text text-anchor="start" x="444.8823" y="-820.3" font-family="Arial" font-size="14.00" fill="#000000"> </text>
<text text-anchor="start" x="448.7729" y="-820.3" font-family="Arial" font-size="14.00" fill="#666666">[BASE TABLE]</text>
<polygon fill="none" stroke="#000000" points="303,-777.5 303,-807.5 571,-807.5 571,-777.5 303,-777.5"/>
<text text-anchor="start" x="310" y="-788.9" font-family="Arial" font-size="14.00" fill="#000000">id </text>
<text text-anchor="start" x="324.7798" y="-788.9" font-family="Arial" font-size="14.00" fill="#666666">[bigint]</text>
<polygon fill="none" stroke="#000000" points="303,-747.5 303,-777.5 571,-777.5 571,-747.5 303,-747.5"/>
<text text-anchor="start" x="310" y="-758.9" font-family="Arial" font-size="14.00" fill="#000000">user_id </text>
<text text-anchor="start" x="359.7882" y="-758.9" font-family="Arial" font-size="14.00" fill="#666666">[bigint]</text>
<polygon fill="none" stroke="#000000" points="303,-717.5 303,-747.5 571,-747.5 571,-717.5 303,-717.5"/>
<text text-anchor="start" x="310" y="-728.9" font-family="Arial" font-size="14.00" fill="#000000">name </text>
<text text-anchor="start" x="348.899" y="-728.9" font-family="Arial" font-size="14.00" fill="#666666">[varchar]</text>
<polygon fill="none" stroke="#000000" points="303,-687.5 303,-717.5 571,-717.5 571,-687.5 303,-687.5"/>
<text text-anchor="start" x="310" y="-698.9" font-family="Arial" font-size="14.00" fill="#000000">is_public </text>
<text text-anchor="start" x="368.3408" y="-698.9" font-family="Arial" font-size="14.00" fill="#666666">[boolean]</text>
<polygon fill="none" stroke="#000000" points="303,-657.5 303,-687.5 571,-687.5 571,-657.5 303,-657.5"/>
<text text-anchor="start" x="310" y="-668.9" font-family="Arial" font-size="14.00" fill="#000000">is_favorite </text>
<text text-anchor="start" x="377.676" y="-668.9" font-family="Arial" font-size="14.00" fill="#666666">[boolean]</text>
<polygon fill="none" stroke="#000000" points="303,-627.5 303,-657.5 571,-657.5 571,-627.5 303,-627.5"/>
<text text-anchor="start" x="310" y="-638.9" font-family="Arial" font-size="14.00" fill="#000000">short_code </text>
<text text-anchor="start" x="383.1374" y="-638.9" font-family="Arial" font-size="14.00" fill="#666666">[varchar]</text>
<polygon fill="none" stroke="#000000" points="303,-597.5 303,-627.5 571,-627.5 571,-597.5 303,-597.5"/>
<text text-anchor="start" x="310" y="-608.9" font-family="Arial" font-size="14.00" fill="#000000">created_at </text>
<text text-anchor="start" x="380.028" y="-608.9" font-family="Arial" font-size="14.00" fill="#666666">[timestamp with time zone]</text>
<polygon fill="none" stroke="#000000" points="303,-567.5 303,-597.5 571,-597.5 571,-567.5 303,-567.5"/>
<text text-anchor="start" x="310" y="-578.9" font-family="Arial" font-size="14.00" fill="#000000">updated_at </text>
<text text-anchor="start" x="383.9326" y="-578.9" font-family="Arial" font-size="14.00" fill="#666666">[timestamp with time zone]</text>
<polygon fill="none" stroke="#000000" points="303,-537.5 303,-567.5 571,-567.5 571,-537.5 303,-537.5"/>
<text text-anchor="start" x="309.8016" y="-548.9" font-family="Arial" font-size="14.00" fill="#000000">deleted_at </text>
<text text-anchor="start" x="379.0582" y="-548.9" font-family="Arial" font-size="14.00" fill="#666666">[timestamp without time zone]</text>
<polygon fill="none" stroke="#000000" stroke-width="3" points="301.5,-536.5 301.5,-844.5 572.5,-844.5 572.5,-536.5 301.5,-536.5"/>
</g>
<!-- public.insight_members -->
<g id="node2" class="node">
<title>public.insight_members</title>
<polygon fill="#efefef" stroke="transparent" points="479,-1729.5 479,-1764.5 813,-1764.5 813,-1729.5 479,-1729.5"/>
<polygon fill="none" stroke="#000000" points="479,-1729.5 479,-1764.5 813,-1764.5 813,-1729.5 479,-1729.5"/>
<text text-anchor="start" x="502.8632" y="-1742.3" font-family="Arial Bold" font-size="18.00" fill="#000000">public.insight_members</text>
<text text-anchor="start" x="691.883" y="-1742.3" font-family="Arial" font-size="14.00" fill="#000000"> </text>
<text text-anchor="start" x="695.7736" y="-1742.3" font-family="Arial" font-size="14.00" fill="#666666">[BASE TABLE]</text>
<polygon fill="none" stroke="#000000" points="479,-1699.5 479,-1729.5 813,-1729.5 813,-1699.5 479,-1699.5"/>
<text text-anchor="start" x="486" y="-1710.9" font-family="Arial" font-size="14.00" fill="#000000">id </text>
<text text-anchor="start" x="500.7798" y="-1710.9" font-family="Arial" font-size="14.00" fill="#666666">[uuid]</text>
<polygon fill="none" stroke="#000000" points="479,-1669.5 479,-1699.5 813,-1699.5 813,-1669.5 479,-1669.5"/>
<text text-anchor="start" x="486" y="-1680.9" font-family="Arial" font-size="14.00" fill="#000000">user_id </text>
<text text-anchor="start" x="535.7882" y="-1680.9" font-family="Arial" font-size="14.00" fill="#666666">[bigint]</text>
<polygon fill="none" stroke="#000000" points="479,-1639.5 479,-1669.5 813,-1669.5 813,-1639.5 479,-1639.5"/>
<text text-anchor="start" x="486" y="-1650.9" font-family="Arial" font-size="14.00" fill="#000000">insight_id </text>
<text text-anchor="start" x="549.014" y="-1650.9" font-family="Arial" font-size="14.00" fill="#666666">[bigint]</text>
<polygon fill="none" stroke="#000000" points="479,-1609.5 479,-1639.5 813,-1639.5 813,-1609.5 479,-1609.5"/>
<text text-anchor="start" x="486" y="-1620.9" font-family="Arial" font-size="14.00" fill="#000000">created_at </text>
<text text-anchor="start" x="556.028" y="-1620.9" font-family="Arial" font-size="14.00" fill="#666666">[timestamp without time zone]</text>
<polygon fill="none" stroke="#000000" points="479,-1579.5 479,-1609.5 813,-1609.5 813,-1579.5 479,-1579.5"/>
<text text-anchor="start" x="486" y="-1590.9" font-family="Arial" font-size="14.00" fill="#000000">updated_at </text>
<text text-anchor="start" x="559.9326" y="-1590.9" font-family="Arial" font-size="14.00" fill="#666666">[timestamp without time zone]</text>
<polygon fill="none" stroke="#000000" points="479,-1549.5 479,-1579.5 813,-1579.5 813,-1549.5 479,-1549.5"/>
<text text-anchor="start" x="486" y="-1560.9" font-family="Arial" font-size="14.00" fill="#000000">deleted_at </text>
<text text-anchor="start" x="555.2566" y="-1560.9" font-family="Arial" font-size="14.00" fill="#666666">[timestamp without time zone]</text>
<polygon fill="none" stroke="#000000" points="479,-1519.5 479,-1549.5 813,-1549.5 813,-1519.5 479,-1519.5"/>
<text text-anchor="start" x="485.7476" y="-1530.9" font-family="Arial" font-size="14.00" fill="#000000">invitation_emailed_at </text>
<text text-anchor="start" x="621.1122" y="-1530.9" font-family="Arial" font-size="14.00" fill="#666666">[timestamp without time zone]</text>
<polygon fill="none" stroke="#000000" points="479,-1489.5 479,-1519.5 813,-1519.5 813,-1489.5 479,-1489.5"/>
<text text-anchor="start" x="486" y="-1500.9" font-family="Arial" font-size="14.00" fill="#000000">access </text>
<text text-anchor="start" x="533.4558" y="-1500.9" font-family="Arial" font-size="14.00" fill="#666666">[varchar(20)]</text>
<polygon fill="none" stroke="#000000" points="479,-1459.5 479,-1489.5 813,-1489.5 813,-1459.5 479,-1459.5"/>
<text text-anchor="start" x="486" y="-1470.9" font-family="Arial" font-size="14.00" fill="#000000">invitation_email </text>
<text text-anchor="start" x="586.3436" y="-1470.9" font-family="Arial" font-size="14.00" fill="#666666">[varchar(255)]</text>
</g>
<!-- public.insight_members&#45;&gt;public.insights -->
<g id="edge1" class="edge">
<title>public.insight_members:insight_id&#45;&gt;public.insights:id</title>
<path fill="none" stroke="#000000" d="M468.96,-1653.6207C303.8377,-1622.8085 760.069,-792.5 571,-792.5"/>
<polygon fill="#000000" stroke="#000000" points="469.0381,-1653.6275 478.6074,-1658.9828 474.0191,-1654.0637 479,-1654.5 479,-1654.5 479,-1654.5 474.0191,-1654.0637 479.3926,-1650.0172 469.0381,-1653.6275 469.0381,-1653.6275"/>
<text text-anchor="start" x="7.4955" y="-1664.5" font-family="Arial" font-size="10.00" fill="#000000">FOREIGN KEY (insight_id) REFERENCES insights(id) ON UPDATE CASCADE ON DELETE CASCADE</text>
</g>
<!-- public.users -->
<g id="node3" class="node">
<title>public.users</title>
<polygon fill="#efefef" stroke="transparent" points="679,-1302.5 679,-1337.5 1030,-1337.5 1030,-1302.5 679,-1302.5"/>
<polygon fill="none" stroke="#000000" points="679,-1302.5 679,-1337.5 1030,-1337.5 1030,-1302.5 679,-1302.5"/>
<text text-anchor="start" x="757.8662" y="-1315.3" font-family="Arial Bold" font-size="18.00" fill="#000000">public.users</text>
<text text-anchor="start" x="853.88" y="-1315.3" font-family="Arial" font-size="14.00" fill="#000000"> </text>
<text text-anchor="start" x="857.7706" y="-1315.3" font-family="Arial" font-size="14.00" fill="#666666">[BASE TABLE]</text>
<polygon fill="none" stroke="#000000" points="679,-1272.5 679,-1302.5 1030,-1302.5 1030,-1272.5 679,-1272.5"/>
<text text-anchor="start" x="686" y="-1283.9" font-family="Arial" font-size="14.00" fill="#000000">id </text>
<text text-anchor="start" x="700.7798" y="-1283.9" font-family="Arial" font-size="14.00" fill="#666666">[bigint]</text>
<polygon fill="none" stroke="#000000" points="679,-1242.5 679,-1272.5 1030,-1272.5 1030,-1242.5 679,-1242.5"/>
<text text-anchor="start" x="686" y="-1253.9" font-family="Arial" font-size="14.00" fill="#000000">open_issues </text>
<text text-anchor="start" x="768.4754" y="-1253.9" font-family="Arial" font-size="14.00" fill="#666666">[bigint]</text>
<polygon fill="none" stroke="#000000" points="679,-1212.5 679,-1242.5 1030,-1242.5 1030,-1212.5 679,-1212.5"/>
<text text-anchor="start" x="686" y="-1223.9" font-family="Arial" font-size="14.00" fill="#000000">public_repos </text>
<text text-anchor="start" x="769.2426" y="-1223.9" font-family="Arial" font-size="14.00" fill="#666666">[bigint]</text>
<polygon fill="none" stroke="#000000" points="679,-1182.5 679,-1212.5 1030,-1212.5 1030,-1182.5 679,-1182.5"/>
<text text-anchor="start" x="686" y="-1193.9" font-family="Arial" font-size="14.00" fill="#000000">public_gists </text>
<text text-anchor="start" x="763.014" y="-1193.9" font-family="Arial" font-size="14.00" fill="#666666">[bigint]</text>
<polygon fill="none" stroke="#000000" points="679,-1152.5 679,-1182.5 1030,-1182.5 1030,-1152.5 679,-1152.5"/>
<text text-anchor="start" x="686" y="-1163.9" font-family="Arial" font-size="14.00" fill="#000000">followers </text>
<text text-anchor="start" x="745.1094" y="-1163.9" font-family="Arial" font-size="14.00" fill="#666666">[bigint]</text>
<polygon fill="none" stroke="#000000" points="679,-1122.5 679,-1152.5 1030,-1152.5 1030,-1122.5 679,-1122.5"/>
<text text-anchor="start" x="686" y="-1133.9" font-family="Arial" font-size="14.00" fill="#000000">following </text>
<text text-anchor="start" x="744.338" y="-1133.9" font-family="Arial" font-size="14.00" fill="#666666">[bigint]</text>
<polygon fill="none" stroke="#000000" points="679,-1092.5 679,-1122.5 1030,-1122.5 1030,-1092.5 679,-1092.5"/>
<text text-anchor="start" x="686" y="-1103.9" font-family="Arial" font-size="14.00" fill="#000000">role </text>
<text text-anchor="start" x="713.223" y="-1103.9" font-family="Arial" font-size="14.00" fill="#666666">[bigint]</text>
<polygon fill="none" stroke="#000000" points="679,-1062.5 679,-1092.5 1030,-1092.5 1030,-1062.5 679,-1062.5"/>
<text text-anchor="start" x="686" y="-1073.9" font-family="Arial" font-size="14.00" fill="#000000">display_local_time </text>
<text text-anchor="start" x="804.2356" y="-1073.9" font-family="Arial" font-size="14.00" fill="#666666">[boolean]</text>
<polygon fill="none" stroke="#000000" points="679,-1032.5 679,-1062.5 1030,-1062.5 1030,-1032.5 679,-1032.5"/>
<text text-anchor="start" x="686" y="-1043.9" font-family="Arial" font-size="14.00" fill="#000000">has_stars_data </text>
<text text-anchor="start" x="785.5932" y="-1043.9" font-family="Arial" font-size="14.00" fill="#666666">[boolean]</text>
<polygon fill="none" stroke="#000000" points="679,-1002.5 679,-1032.5 1030,-1032.5 1030,-1002.5 679,-1002.5"/>
<text text-anchor="start" x="686" y="-1013.9" font-family="Arial" font-size="14.00" fill="#000000">is_private </text>
<text text-anchor="start" x="749.7854" y="-1013.9" font-family="Arial" font-size="14.00" fill="#666666">[boolean]</text>
<polygon fill="none" stroke="#000000" points="679,-972.5 679,-1002.5 1030,-1002.5 1030,-972.5 679,-972.5"/>
<text text-anchor="start" x="686" y="-983.9" font-family="Arial" font-size="14.00" fill="#000000">is_open_sauced_member </text>
<text text-anchor="start" x="850.9354" y="-983.9" font-family="Arial" font-size="14.00" fill="#666666">[boolean]</text>
<polygon fill="none" stroke="#000000" points="679,-942.5 679,-972.5 1030,-972.5 1030,-942.5 679,-942.5"/>
<text text-anchor="start" x="686" y="-953.9" font-family="Arial" font-size="14.00" fill="#000000">is_onboarded </text>
<text text-anchor="start" x="774.7012" y="-953.9" font-family="Arial" font-size="14.00" fill="#666666">[boolean]</text>
<polygon fill="none" stroke="#000000" points="679,-912.5 679,-942.5 1030,-942.5 1030,-912.5 679,-912.5"/>
<text text-anchor="start" x="686" y="-923.9" font-family="Arial" font-size="14.00" fill="#000000">is_waitlisted </text>
<text text-anchor="start" x="765.3352" y="-923.9" font-family="Arial" font-size="14.00" fill="#666666">[boolean]</text>
<polygon fill="none" stroke="#000000" points="679,-882.5 679,-912.5 1030,-912.5 1030,-882.5 679,-882.5"/>
<text text-anchor="start" x="686" y="-893.9" font-family="Arial" font-size="14.00" fill="#000000">hireable </text>
<text text-anchor="start" x="739.6774" y="-893.9" font-family="Arial" font-size="14.00" fill="#666666">[boolean]</text>
<polygon fill="none" stroke="#000000" points="679,-852.5 679,-882.5 1030,-882.5 1030,-852.5 679,-852.5"/>
<text text-anchor="start" x="686" y="-863.9" font-family="Arial" font-size="14.00" fill="#000000">display_email </text>
<text text-anchor="start" x="774.6732" y="-863.9" font-family="Arial" font-size="14.00" fill="#666666">[boolean]</text>
<polygon fill="none" stroke="#000000" points="679,-822.5 679,-852.5 1030,-852.5 1030,-822.5 679,-822.5"/>
<text text-anchor="start" x="686" y="-833.9" font-family="Arial" font-size="14.00" fill="#000000">receive_collaboration </text>
<text text-anchor="start" x="822.1374" y="-833.9" font-family="Arial" font-size="14.00" fill="#666666">[boolean]</text>
<polygon fill="none" stroke="#000000" points="679,-792.5 679,-822.5 1030,-822.5 1030,-792.5 679,-792.5"/>
<text text-anchor="start" x="686" y="-803.9" font-family="Arial" font-size="14.00" fill="#000000">created_at </text>
<text text-anchor="start" x="756.028" y="-803.9" font-family="Arial" font-size="14.00" fill="#666666">[timestamp without time zone]</text>
<polygon fill="none" stroke="#000000" points="679,-762.5 679,-792.5 1030,-792.5 1030,-762.5 679,-762.5"/>
<text text-anchor="start" x="686" y="-773.9" font-family="Arial" font-size="14.00" fill="#000000">updated_at </text>
<text text-anchor="start" x="759.9326" y="-773.9" font-family="Arial" font-size="14.00" fill="#666666">[timestamp without time zone]</text>
<polygon fill="none" stroke="#000000" points="679,-732.5 679,-762.5 1030,-762.5 1030,-732.5 679,-732.5"/>
<text text-anchor="start" x="686" y="-743.9" font-family="Arial" font-size="14.00" fill="#000000">deleted_at </text>
<text text-anchor="start" x="755.2566" y="-743.9" font-family="Arial" font-size="14.00" fill="#666666">[timestamp without time zone]</text>
<polygon fill="none" stroke="#000000" points="679,-702.5 679,-732.5 1030,-732.5 1030,-702.5 679,-702.5"/>
<text text-anchor="start" x="686" y="-713.9" font-family="Arial" font-size="14.00" fill="#000000">type </text>
<text text-anchor="start" x="716.3464" y="-713.9" font-family="Arial" font-size="14.00" fill="#666666">[varchar(20)]</text>
<polygon fill="none" stroke="#000000" points="679,-672.5 679,-702.5 1030,-702.5 1030,-672.5 679,-672.5"/>
<text text-anchor="start" x="686" y="-683.9" font-family="Arial" font-size="14.00" fill="#000000">timezone </text>
<text text-anchor="start" x="746.6788" y="-683.9" font-family="Arial" font-size="14.00" fill="#666666">[varchar(50)]</text>
<polygon fill="none" stroke="#000000" points="679,-642.5 679,-672.5 1030,-672.5 1030,-642.5 679,-642.5"/>
<text text-anchor="start" x="686" y="-653.9" font-family="Arial" font-size="14.00" fill="#000000">login </text>
<text text-anchor="start" x="719.4516" y="-653.9" font-family="Arial" font-size="14.00" fill="#666666">[varchar(255)]</text>
<polygon fill="none" stroke="#000000" points="679,-612.5 679,-642.5 1030,-642.5 1030,-612.5 679,-612.5"/>
<text text-anchor="start" x="686" y="-623.9" font-family="Arial" font-size="14.00" fill="#000000">email </text>
<text text-anchor="start" x="723.3296" y="-623.9" font-family="Arial" font-size="14.00" fill="#666666">[varchar(255)]</text>
<polygon fill="none" stroke="#000000" points="679,-582.5 679,-612.5 1030,-612.5 1030,-582.5 679,-582.5"/>
<text text-anchor="start" x="686" y="-593.9" font-family="Arial" font-size="14.00" fill="#000000">bio </text>
<text text-anchor="start" x="708.5624" y="-593.9" font-family="Arial" font-size="14.00" fill="#666666">[varchar(255)]</text>
<polygon fill="none" stroke="#000000" points="679,-552.5 679,-582.5 1030,-582.5 1030,-552.5 679,-552.5"/>
<text text-anchor="start" x="686" y="-563.9" font-family="Arial" font-size="14.00" fill="#000000">name </text>
<text text-anchor="start" x="724.899" y="-563.9" font-family="Arial" font-size="14.00" fill="#666666">[varchar(255)]</text>
<polygon fill="none" stroke="#000000" points="679,-522.5 679,-552.5 1030,-552.5 1030,-522.5 679,-522.5"/>
<text text-anchor="start" x="686" y="-533.9" font-family="Arial" font-size="14.00" fill="#000000">twitter_username </text>
<text text-anchor="start" x="797.2356" y="-533.9" font-family="Arial" font-size="14.00" fill="#666666">[varchar(15)]</text>
<polygon fill="none" stroke="#000000" points="679,-492.5 679,-522.5 1030,-522.5 1030,-492.5 679,-492.5"/>
<text text-anchor="start" x="686" y="-503.9" font-family="Arial" font-size="14.00" fill="#000000">company </text>
<text text-anchor="start" x="746.6816" y="-503.9" font-family="Arial" font-size="14.00" fill="#666666">[varchar(255)]</text>
<polygon fill="none" stroke="#000000" points="679,-462.5 679,-492.5 1030,-492.5 1030,-462.5 679,-462.5"/>
<text text-anchor="start" x="686" y="-473.9" font-family="Arial" font-size="14.00" fill="#000000">location </text>
<text text-anchor="start" x="738.1248" y="-473.9" font-family="Arial" font-size="14.00" fill="#666666">[varchar(255)]</text>
<polygon fill="none" stroke="#000000" points="679,-432.5 679,-462.5 1030,-462.5 1030,-432.5 679,-432.5"/>
<text text-anchor="start" x="686" y="-443.9" font-family="Arial" font-size="14.00" fill="#000000">node_id </text>
<text text-anchor="start" x="739.6928" y="-443.9" font-family="Arial" font-size="14.00" fill="#666666">[varchar(50)]</text>
<polygon fill="none" stroke="#000000" points="679,-402.5 679,-432.5 1030,-432.5 1030,-402.5 679,-402.5"/>
<text text-anchor="start" x="686" y="-413.9" font-family="Arial" font-size="14.00" fill="#000000">avatar_url </text>
<text text-anchor="start" x="752.122" y="-413.9" font-family="Arial" font-size="14.00" fill="#666666">[varchar(255)]</text>
<polygon fill="none" stroke="#000000" points="679,-372.5 679,-402.5 1030,-402.5 1030,-372.5 679,-372.5"/>
<text text-anchor="start" x="686" y="-383.9" font-family="Arial" font-size="14.00" fill="#000000">gravatar_id </text>
<text text-anchor="start" x="759.9046" y="-383.9" font-family="Arial" font-size="14.00" fill="#666666">[varchar(255)]</text>
<polygon fill="none" stroke="#000000" points="679,-342.5 679,-372.5 1030,-372.5 1030,-342.5 679,-342.5"/>
<text text-anchor="start" x="686" y="-353.9" font-family="Arial" font-size="14.00" fill="#000000">url </text>
<text text-anchor="start" x="705.4404" y="-353.9" font-family="Arial" font-size="14.00" fill="#666666">[varchar(255)]</text>
<polygon fill="none" stroke="#000000" points="679,-312.5 679,-342.5 1030,-342.5 1030,-312.5 679,-312.5"/>
<text text-anchor="start" x="686" y="-323.9" font-family="Arial" font-size="14.00" fill="#000000">blog </text>
<text text-anchor="start" x="716.345" y="-323.9" font-family="Arial" font-size="14.00" fill="#666666">[varchar(255)]</text>
<polygon fill="none" stroke="#000000" points="679,-282.5 679,-312.5 1030,-312.5 1030,-282.5 679,-282.5"/>
<text text-anchor="start" x="686" y="-293.9" font-family="Arial" font-size="14.00" fill="#000000">interests </text>
<text text-anchor="start" x="742.7868" y="-293.9" font-family="Arial" font-size="14.00" fill="#666666">[varchar(200)]</text>
<polygon fill="none" stroke="#000000" points="679,-252.5 679,-282.5 1030,-282.5 1030,-252.5 679,-252.5"/>
<text text-anchor="start" x="686" y="-263.9" font-family="Arial" font-size="14.00" fill="#000000">linkedin_url </text>
<text text-anchor="start" x="760.6732" y="-263.9" font-family="Arial" font-size="14.00" fill="#666666">[varchar(255)]</text>
<polygon fill="none" stroke="#000000" points="679,-222.5 679,-252.5 1030,-252.5 1030,-222.5 679,-222.5"/>
<text text-anchor="start" x="686" y="-233.9" font-family="Arial" font-size="14.00" fill="#000000">github_sponsors_url </text>
<text text-anchor="start" x="815.9242" y="-233.9" font-family="Arial" font-size="14.00" fill="#666666">[varchar(255)]</text>
<polygon fill="none" stroke="#000000" points="679,-192.5 679,-222.5 1030,-222.5 1030,-192.5 679,-192.5"/>
<text text-anchor="start" x="686" y="-203.9" font-family="Arial" font-size="14.00" fill="#000000">last_fetched_users_at </text>
<text text-anchor="start" x="826.8288" y="-203.9" font-family="Arial" font-size="14.00" fill="#666666">[timestamp without time zone]</text>
<polygon fill="none" stroke="#000000" points="679,-162.5 679,-192.5 1030,-192.5 1030,-162.5 679,-162.5"/>
<text text-anchor="start" x="686" y="-173.9" font-family="Arial" font-size="14.00" fill="#000000">languages </text>
<text text-anchor="start" x="754.4754" y="-173.9" font-family="Arial" font-size="14.00" fill="#666666">[jsonb]</text>
<polygon fill="none" stroke="#000000" points="679,-132.5 679,-162.5 1030,-162.5 1030,-132.5 679,-132.5"/>
<text text-anchor="start" x="686" y="-143.9" font-family="Arial" font-size="14.00" fill="#000000">first_opened_pr_at </text>
<text text-anchor="start" x="806.5988" y="-143.9" font-family="Arial" font-size="14.00" fill="#666666">[timestamp without time zone]</text>
<polygon fill="none" stroke="#000000" points="679,-102.5 679,-132.5 1030,-132.5 1030,-102.5 679,-102.5"/>
<text text-anchor="start" x="685.6929" y="-113.9" font-family="Arial" font-size="14.00" fill="#000000">first_pushed_commit_at </text>
<text text-anchor="start" x="838.1669" y="-113.9" font-family="Arial" font-size="14.00" fill="#666666">[timestamp without time zone]</text>
<polygon fill="none" stroke="#000000" points="679,-72.5 679,-102.5 1030,-102.5 1030,-72.5 679,-72.5"/>
<text text-anchor="start" x="686" y="-83.9" font-family="Arial" font-size="14.00" fill="#000000">connected_at </text>
<text text-anchor="start" x="773.9326" y="-83.9" font-family="Arial" font-size="14.00" fill="#666666">[timestamp without time zone]</text>
<polygon fill="none" stroke="#000000" points="679,-42.5 679,-72.5 1030,-72.5 1030,-42.5 679,-42.5"/>
<text text-anchor="start" x="686" y="-53.9" font-family="Arial" font-size="14.00" fill="#000000">discord_url </text>
<text text-anchor="start" x="758.338" y="-53.9" font-family="Arial" font-size="14.00" fill="#666666">[varchar(255)]</text>
</g>
<!-- public.insight_members&#45;&gt;public.users -->
<g id="edge2" class="edge">
<title>public.insight_members:user_id&#45;&gt;public.users:id</title>
<path fill="none" stroke="#000000" d="M823.0268,-1684.0605C929.1395,-1674.4218 883.2244,-1508.5808 813,-1417 775.4754,-1368.0636 716.5246,-1429.9364 679,-1381 653.7135,-1348.0234 637.4444,-1287.5 679,-1287.5"/>
<polygon fill="#000000" stroke="#000000" points="822.9904,-1684.062 812.8029,-1680.0043 817.9952,-1684.281 813,-1684.5 813,-1684.5 813,-1684.5 817.9952,-1684.281 813.1971,-1688.9957 822.9904,-1684.062 822.9904,-1684.062"/>
<text text-anchor="start" x="819.9425" y="-1694.5" font-family="Arial" font-size="10.00" fill="#000000">FOREIGN KEY (user_id) REFERENCES users(id) ON UPDATE CASCADE ON DELETE CASCADE</text>
</g>
</g>
</svg>
