<?xml version="1.0" encoding="UTF-8" standalone="no"?>
<!DOCTYPE svg PUBLIC "-//W3C//DTD SVG 1.1//EN"
 "http://www.w3.org/Graphics/SVG/1.1/DTD/svg11.dtd">
<!-- Generated by graphviz version 2.40.1 (20161225.0304)
 -->
<!-- Title: public.pull_request_reviews Pages: 1 -->
<svg width="936pt" height="2999pt"
 viewBox="0.00 0.00 936.00 2999.00" xmlns="http://www.w3.org/2000/svg" xmlns:xlink="http://www.w3.org/1999/xlink">
<g id="graph0" class="graph" transform="scale(1 1) rotate(0) translate(4 2995)">
<title>public.pull_request_reviews</title>
<polygon fill="#ffffff" stroke="transparent" points="-4,4 -4,-2995 932,-2995 932,4 -4,4"/>
<!-- public.pull_request_reviews -->
<g id="node1" class="node">
<title>public.pull_request_reviews</title>
<polygon fill="#efefef" stroke="transparent" points="66,-2909.5 66,-2944.5 398,-2944.5 398,-2909.5 66,-2909.5"/>
<polygon fill="none" stroke="#000000" points="66,-2909.5 66,-2944.5 398,-2944.5 398,-2909.5 66,-2909.5"/>
<text text-anchor="start" x="72.8558" y="-2922.3" font-family="Arial Bold" font-size="18.00" fill="#000000">public.pull_request_reviews</text>
<text text-anchor="start" x="293.8904" y="-2922.3" font-family="Arial" font-size="14.00" fill="#000000"> </text>
<text text-anchor="start" x="297.781" y="-2922.3" font-family="Arial" font-size="14.00" fill="#666666">[BASE TABLE]</text>
<polygon fill="none" stroke="#000000" points="66,-2879.5 66,-2909.5 398,-2909.5 398,-2879.5 66,-2879.5"/>
<text text-anchor="start" x="73" y="-2890.9" font-family="Arial" font-size="14.00" fill="#000000">id </text>
<text text-anchor="start" x="87.7798" y="-2890.9" font-family="Arial" font-size="14.00" fill="#666666">[bigint]</text>
<polygon fill="none" stroke="#000000" points="66,-2849.5 66,-2879.5 398,-2879.5 398,-2849.5 66,-2849.5"/>
<text text-anchor="start" x="73" y="-2860.9" font-family="Arial" font-size="14.00" fill="#000000">pull_request_id </text>
<text text-anchor="start" x="171.805" y="-2860.9" font-family="Arial" font-size="14.00" fill="#666666">[integer]</text>
<polygon fill="none" stroke="#000000" points="66,-2819.5 66,-2849.5 398,-2849.5 398,-2819.5 66,-2819.5"/>
<text text-anchor="start" x="73" y="-2830.9" font-family="Arial" font-size="14.00" fill="#000000">created_at </text>
<text text-anchor="start" x="143.028" y="-2830.9" font-family="Arial" font-size="14.00" fill="#666666">[timestamp without time zone]</text>
<polygon fill="none" stroke="#000000" points="66,-2789.5 66,-2819.5 398,-2819.5 398,-2789.5 66,-2789.5"/>
<text text-anchor="start" x="73" y="-2800.9" font-family="Arial" font-size="14.00" fill="#000000">published_at </text>
<text text-anchor="start" x="156.2552" y="-2800.9" font-family="Arial" font-size="14.00" fill="#666666">[timestamp without time zone]</text>
<polygon fill="none" stroke="#000000" points="66,-2759.5 66,-2789.5 398,-2789.5 398,-2759.5 66,-2759.5"/>
<text text-anchor="start" x="73" y="-2770.9" font-family="Arial" font-size="14.00" fill="#000000">updated_at </text>
<text text-anchor="start" x="146.9326" y="-2770.9" font-family="Arial" font-size="14.00" fill="#666666">[timestamp without time zone]</text>
<polygon fill="none" stroke="#000000" points="66,-2729.5 66,-2759.5 398,-2759.5 398,-2729.5 66,-2729.5"/>
<text text-anchor="start" x="73" y="-2740.9" font-family="Arial" font-size="14.00" fill="#000000">reviewer_login </text>
<text text-anchor="start" x="167.1164" y="-2740.9" font-family="Arial" font-size="14.00" fill="#666666">[text]</text>
<polygon fill="none" stroke="#000000" points="66,-2699.5 66,-2729.5 398,-2729.5 398,-2699.5 66,-2699.5"/>
<text text-anchor="start" x="73" y="-2710.9" font-family="Arial" font-size="14.00" fill="#000000">state </text>
<text text-anchor="start" x="107.237" y="-2710.9" font-family="Arial" font-size="14.00" fill="#666666">[text]</text>
<polygon fill="none" stroke="#000000" stroke-width="3" points="64.5,-2698.5 64.5,-2946.5 399.5,-2946.5 399.5,-2698.5 64.5,-2698.5"/>
</g>
<!-- public.pull_requests -->
<g id="node2" class="node">
<title>public.pull_requests</title>
<polygon fill="#efefef" stroke="transparent" points="81,-2539.5 81,-2574.5 383,-2574.5 383,-2539.5 81,-2539.5"/>
<polygon fill="none" stroke="#000000" points="81,-2539.5 81,-2574.5 383,-2574.5 383,-2539.5 81,-2539.5"/>
<text text-anchor="start" x="103.8554" y="-2552.3" font-family="Arial Bold" font-size="18.00" fill="#000000">public.pull_requests</text>
<text text-anchor="start" x="262.8908" y="-2552.3" font-family="Arial" font-size="14.00" fill="#000000"> </text>
<text text-anchor="start" x="266.7814" y="-2552.3" font-family="Arial" font-size="14.00" fill="#666666">[BASE TABLE]</text>
<polygon fill="none" stroke="#000000" points="81,-2509.5 81,-2539.5 383,-2539.5 383,-2509.5 81,-2509.5"/>
<text text-anchor="start" x="88" y="-2520.9" font-family="Arial" font-size="14.00" fill="#000000">id </text>
<text text-anchor="start" x="102.7798" y="-2520.9" font-family="Arial" font-size="14.00" fill="#666666">[integer]</text>
<polygon fill="none" stroke="#000000" points="81,-2479.5 81,-2509.5 383,-2509.5 383,-2479.5 81,-2479.5"/>
<text text-anchor="start" x="88" y="-2490.9" font-family="Arial" font-size="14.00" fill="#000000">repo_id </text>
<text text-anchor="start" x="138.5708" y="-2490.9" font-family="Arial" font-size="14.00" fill="#666666">[bigint]</text>
<polygon fill="none" stroke="#000000" points="81,-2449.5 81,-2479.5 383,-2479.5 383,-2449.5 81,-2449.5"/>
<text text-anchor="start" x="88" y="-2460.9" font-family="Arial" font-size="14.00" fill="#000000">number </text>
<text text-anchor="start" x="139.3422" y="-2460.9" font-family="Arial" font-size="14.00" fill="#666666">[integer]</text>
<polygon fill="none" stroke="#000000" points="81,-2419.5 81,-2449.5 383,-2449.5 383,-2419.5 81,-2419.5"/>
<text text-anchor="start" x="88" y="-2430.9" font-family="Arial" font-size="14.00" fill="#000000">state </text>
<text text-anchor="start" x="122.237" y="-2430.9" font-family="Arial" font-size="14.00" fill="#666666">[text]</text>
<polygon fill="none" stroke="#000000" points="81,-2389.5 81,-2419.5 383,-2419.5 383,-2389.5 81,-2389.5"/>
<text text-anchor="start" x="88" y="-2400.9" font-family="Arial" font-size="14.00" fill="#000000">draft </text>
<text text-anchor="start" x="119.8976" y="-2400.9" font-family="Arial" font-size="14.00" fill="#666666">[boolean]</text>
<polygon fill="none" stroke="#000000" points="81,-2359.5 81,-2389.5 383,-2389.5 383,-2359.5 81,-2359.5"/>
<text text-anchor="start" x="88" y="-2370.9" font-family="Arial" font-size="14.00" fill="#000000">title </text>
<text text-anchor="start" x="113.6676" y="-2370.9" font-family="Arial" font-size="14.00" fill="#666666">[text]</text>
<polygon fill="none" stroke="#000000" points="81,-2329.5 81,-2359.5 383,-2359.5 383,-2329.5 81,-2329.5"/>
<text text-anchor="start" x="88" y="-2340.9" font-family="Arial" font-size="14.00" fill="#000000">source_label </text>
<text text-anchor="start" x="171.2426" y="-2340.9" font-family="Arial" font-size="14.00" fill="#666666">[text]</text>
<polygon fill="none" stroke="#000000" points="81,-2299.5 81,-2329.5 383,-2329.5 383,-2299.5 81,-2299.5"/>
<text text-anchor="start" x="88" y="-2310.9" font-family="Arial" font-size="14.00" fill="#000000">target_label </text>
<text text-anchor="start" x="165.0238" y="-2310.9" font-family="Arial" font-size="14.00" fill="#666666">[text]</text>
<polygon fill="none" stroke="#000000" points="81,-2269.5 81,-2299.5 383,-2299.5 383,-2269.5 81,-2269.5"/>
<text text-anchor="start" x="88" y="-2280.9" font-family="Arial" font-size="14.00" fill="#000000">target_branch </text>
<text text-anchor="start" x="178.2538" y="-2280.9" font-family="Arial" font-size="14.00" fill="#666666">[text]</text>
<polygon fill="none" stroke="#000000" points="81,-2239.5 81,-2269.5 383,-2269.5 383,-2239.5 81,-2239.5"/>
<text text-anchor="start" x="88" y="-2250.9" font-family="Arial" font-size="14.00" fill="#000000">source_branch </text>
<text text-anchor="start" x="184.4726" y="-2250.9" font-family="Arial" font-size="14.00" fill="#666666">[text]</text>
<polygon fill="none" stroke="#000000" points="81,-2209.5 81,-2239.5 383,-2239.5 383,-2209.5 81,-2209.5"/>
<text text-anchor="start" x="88" y="-2220.9" font-family="Arial" font-size="14.00" fill="#000000">author_login </text>
<text text-anchor="start" x="168.9158" y="-2220.9" font-family="Arial" font-size="14.00" fill="#666666">[text]</text>
<polygon fill="none" stroke="#000000" points="81,-2179.5 81,-2209.5 383,-2209.5 383,-2179.5 81,-2179.5"/>
<text text-anchor="start" x="88" y="-2190.9" font-family="Arial" font-size="14.00" fill="#000000">author_avatar </text>
<text text-anchor="start" x="178.2538" y="-2190.9" font-family="Arial" font-size="14.00" fill="#666666">[text]</text>
<polygon fill="none" stroke="#000000" points="81,-2149.5 81,-2179.5 383,-2179.5 383,-2149.5 81,-2149.5"/>
<text text-anchor="start" x="88" y="-2160.9" font-family="Arial" font-size="14.00" fill="#000000">assignee_login </text>
<text text-anchor="start" x="185.2538" y="-2160.9" font-family="Arial" font-size="14.00" fill="#666666">[text]</text>
<polygon fill="none" stroke="#000000" points="81,-2119.5 81,-2149.5 383,-2149.5 383,-2119.5 81,-2119.5"/>
<text text-anchor="start" x="88" y="-2130.9" font-family="Arial" font-size="14.00" fill="#000000">assignee_avatar </text>
<text text-anchor="start" x="194.5918" y="-2130.9" font-family="Arial" font-size="14.00" fill="#666666">[text]</text>
<polygon fill="none" stroke="#000000" points="81,-2089.5 81,-2119.5 383,-2119.5 383,-2089.5 81,-2089.5"/>
<text text-anchor="start" x="88" y="-2100.9" font-family="Arial" font-size="14.00" fill="#000000">assignees_login </text>
<text text-anchor="start" x="192.2538" y="-2100.9" font-family="Arial" font-size="14.00" fill="#666666">[text[]]</text>
<polygon fill="none" stroke="#000000" points="81,-2059.5 81,-2089.5 383,-2089.5 383,-2059.5 81,-2059.5"/>
<text text-anchor="start" x="88" y="-2070.9" font-family="Arial" font-size="14.00" fill="#000000">assignees_avatar </text>
<text text-anchor="start" x="201.5918" y="-2070.9" font-family="Arial" font-size="14.00" fill="#666666">[text[]]</text>
<polygon fill="none" stroke="#000000" points="81,-2029.5 81,-2059.5 383,-2059.5 383,-2029.5 81,-2029.5"/>
<text text-anchor="start" x="88" y="-2040.9" font-family="Arial" font-size="14.00" fill="#000000">requested_reviewers_login </text>
<text text-anchor="start" x="259.1458" y="-2040.9" font-family="Arial" font-size="14.00" fill="#666666">[text[]]</text>
<polygon fill="none" stroke="#000000" points="81,-1999.5 81,-2029.5 383,-2029.5 383,-1999.5 81,-1999.5"/>
<text text-anchor="start" x="88" y="-2010.9" font-family="Arial" font-size="14.00" fill="#000000">label_names </text>
<text text-anchor="start" x="171.2426" y="-2010.9" font-family="Arial" font-size="14.00" fill="#666666">[text[]]</text>
<polygon fill="none" stroke="#000000" points="81,-1969.5 81,-1999.5 383,-1999.5 383,-1969.5 81,-1969.5"/>
<text text-anchor="start" x="88" y="-1980.9" font-family="Arial" font-size="14.00" fill="#000000">labels </text>
<text text-anchor="start" x="128.4516" y="-1980.9" font-family="Arial" font-size="14.00" fill="#666666">[jsonb]</text>
<polygon fill="none" stroke="#000000" points="81,-1939.5 81,-1969.5 383,-1969.5 383,-1939.5 81,-1939.5"/>
<text text-anchor="start" x="88" y="-1950.9" font-family="Arial" font-size="14.00" fill="#000000">merged </text>
<text text-anchor="start" x="139.3422" y="-1950.9" font-family="Arial" font-size="14.00" fill="#666666">[boolean]</text>
<polygon fill="none" stroke="#000000" points="81,-1909.5 81,-1939.5 383,-1939.5 383,-1909.5 81,-1909.5"/>
<text text-anchor="start" x="88" y="-1920.9" font-family="Arial" font-size="14.00" fill="#000000">mergeable </text>
<text text-anchor="start" x="158.014" y="-1920.9" font-family="Arial" font-size="14.00" fill="#666666">[boolean]</text>
<polygon fill="none" stroke="#000000" points="81,-1879.5 81,-1909.5 383,-1909.5 383,-1879.5 81,-1879.5"/>
<text text-anchor="start" x="88" y="-1890.9" font-family="Arial" font-size="14.00" fill="#000000">rebaseable </text>
<text text-anchor="start" x="161.136" y="-1890.9" font-family="Arial" font-size="14.00" fill="#666666">[boolean]</text>
<polygon fill="none" stroke="#000000" points="81,-1849.5 81,-1879.5 383,-1879.5 383,-1849.5 81,-1849.5"/>
<text text-anchor="start" x="88" y="-1860.9" font-family="Arial" font-size="14.00" fill="#000000">created_at </text>
<text text-anchor="start" x="158.028" y="-1860.9" font-family="Arial" font-size="14.00" fill="#666666">[timestamp without time zone]</text>
<polygon fill="none" stroke="#000000" points="81,-1819.5 81,-1849.5 383,-1849.5 383,-1819.5 81,-1819.5"/>
<text text-anchor="start" x="88" y="-1830.9" font-family="Arial" font-size="14.00" fill="#000000">merged_at </text>
<text text-anchor="start" x="158.798" y="-1830.9" font-family="Arial" font-size="14.00" fill="#666666">[timestamp without time zone]</text>
<polygon fill="none" stroke="#000000" points="81,-1789.5 81,-1819.5 383,-1819.5 383,-1789.5 81,-1789.5"/>
<text text-anchor="start" x="88" y="-1800.9" font-family="Arial" font-size="14.00" fill="#000000">updated_at </text>
<text text-anchor="start" x="161.9326" y="-1800.9" font-family="Arial" font-size="14.00" fill="#666666">[timestamp without time zone]</text>
<polygon fill="none" stroke="#000000" points="81,-1759.5 81,-1789.5 383,-1789.5 383,-1759.5 81,-1759.5"/>
<text text-anchor="start" x="87.6824" y="-1770.9" font-family="Arial" font-size="14.00" fill="#000000">last_updated_at </text>
<text text-anchor="start" x="191.1774" y="-1770.9" font-family="Arial" font-size="14.00" fill="#666666">[timestamp without time zone]</text>
<polygon fill="none" stroke="#000000" points="81,-1729.5 81,-1759.5 383,-1759.5 383,-1729.5 81,-1729.5"/>
<text text-anchor="start" x="88" y="-1740.9" font-family="Arial" font-size="14.00" fill="#000000">closed_at </text>
<text text-anchor="start" x="151.8008" y="-1740.9" font-family="Arial" font-size="14.00" fill="#666666">[timestamp without time zone]</text>
<polygon fill="none" stroke="#000000" points="81,-1699.5 81,-1729.5 383,-1729.5 383,-1699.5 81,-1699.5"/>
<text text-anchor="start" x="88" y="-1710.9" font-family="Arial" font-size="14.00" fill="#000000">additions </text>
<text text-anchor="start" x="147.9074" y="-1710.9" font-family="Arial" font-size="14.00" fill="#666666">[integer]</text>
<polygon fill="none" stroke="#000000" points="81,-1669.5 81,-1699.5 383,-1699.5 383,-1669.5 81,-1669.5"/>
<text text-anchor="start" x="88" y="-1680.9" font-family="Arial" font-size="14.00" fill="#000000">deletions </text>
<text text-anchor="start" x="147.9074" y="-1680.9" font-family="Arial" font-size="14.00" fill="#666666">[integer]</text>
<polygon fill="none" stroke="#000000" points="81,-1639.5 81,-1669.5 383,-1669.5 383,-1639.5 81,-1639.5"/>
<text text-anchor="start" x="88" y="-1650.9" font-family="Arial" font-size="14.00" fill="#000000">changed_files </text>
<text text-anchor="start" x="178.2552" y="-1650.9" font-family="Arial" font-size="14.00" fill="#666666">[integer]</text>
<polygon fill="none" stroke="#000000" points="81,-1609.5 81,-1639.5 383,-1639.5 383,-1609.5 81,-1609.5"/>
<text text-anchor="start" x="88" y="-1620.9" font-family="Arial" font-size="14.00" fill="#000000">comments </text>
<text text-anchor="start" x="156.4502" y="-1620.9" font-family="Arial" font-size="14.00" fill="#666666">[integer]</text>
<polygon fill="none" stroke="#000000" points="81,-1579.5 81,-1609.5 383,-1609.5 383,-1579.5 81,-1579.5"/>
<text text-anchor="start" x="88" y="-1590.9" font-family="Arial" font-size="14.00" fill="#000000">merged_by_login </text>
<text text-anchor="start" x="199.251" y="-1590.9" font-family="Arial" font-size="14.00" fill="#666666">[text]</text>
<polygon fill="none" stroke="#000000" points="81,-1549.5 81,-1579.5 383,-1579.5 383,-1549.5 81,-1549.5"/>
<text text-anchor="start" x="88" y="-1560.9" font-family="Arial" font-size="14.00" fill="#000000">commits </text>
<text text-anchor="start" x="143.9916" y="-1560.9" font-family="Arial" font-size="14.00" fill="#666666">[bigint]</text>
</g>
<!-- public.pull_request_reviews&#45;&gt;public.pull_requests -->
<g id="edge1" class="edge">
<title>public.pull_request_reviews:pull_request_id&#45;&gt;public.pull_requests:id</title>
<path fill="none" stroke="#000000" d="M408.041,-2862.3288C472.0896,-2833.3721 455.0839,-2524.5 383,-2524.5"/>
<polygon fill="#000000" stroke="#000000" points="407.7741,-2862.3865 397.0489,-2860.1016 402.8871,-2863.4432 398,-2864.5 398,-2864.5 398,-2864.5 402.8871,-2863.4432 398.9511,-2868.8984 407.7741,-2862.3865 407.7741,-2862.3865"/>
<text text-anchor="start" x="404.9305" y="-2874.5" font-family="Arial" font-size="10.00" fill="#000000">FOREIGN KEY (pull_request_id) REFERENCES pull_requests(id) ON UPDATE CASCADE ON DELETE CASCADE</text>
</g>
<!-- public.repos -->
<g id="node3" class="node">
<title>public.repos</title>
<polygon fill="#efefef" stroke="transparent" points="43,-1392.5 43,-1427.5 421,-1427.5 421,-1392.5 43,-1392.5"/>
<polygon fill="none" stroke="#000000" points="43,-1392.5 43,-1427.5 421,-1427.5 421,-1392.5 43,-1392.5"/>
<text text-anchor="start" x="134.8631" y="-1405.3" font-family="Arial Bold" font-size="18.00" fill="#000000">public.repos</text>
<text text-anchor="start" x="231.8831" y="-1405.3" font-family="Arial" font-size="14.00" fill="#000000"> </text>
<text text-anchor="start" x="235.7737" y="-1405.3" font-family="Arial" font-size="14.00" fill="#666666">[BASE TABLE]</text>
<polygon fill="none" stroke="#000000" points="43,-1362.5 43,-1392.5 421,-1392.5 421,-1362.5 43,-1362.5"/>
<text text-anchor="start" x="50" y="-1373.9" font-family="Arial" font-size="14.00" fill="#000000">id </text>
<text text-anchor="start" x="64.7798" y="-1373.9" font-family="Arial" font-size="14.00" fill="#666666">[bigint]</text>
<polygon fill="none" stroke="#000000" points="43,-1332.5 43,-1362.5 421,-1362.5 421,-1332.5 43,-1332.5"/>
<text text-anchor="start" x="50" y="-1343.9" font-family="Arial" font-size="14.00" fill="#000000">user_id </text>
<text text-anchor="start" x="99.7882" y="-1343.9" font-family="Arial" font-size="14.00" fill="#666666">[bigint]</text>
<polygon fill="none" stroke="#000000" points="43,-1302.5 43,-1332.5 421,-1332.5 421,-1302.5 43,-1302.5"/>
<text text-anchor="start" x="50" y="-1313.9" font-family="Arial" font-size="14.00" fill="#000000">size </text>
<text text-anchor="start" x="78.7798" y="-1313.9" font-family="Arial" font-size="14.00" fill="#666666">[bigint]</text>
<polygon fill="none" stroke="#000000" points="43,-1272.5 43,-1302.5 421,-1302.5 421,-1272.5 43,-1272.5"/>
<text text-anchor="start" x="50" y="-1283.9" font-family="Arial" font-size="14.00" fill="#000000">issues </text>
<text text-anchor="start" x="93.5624" y="-1283.9" font-family="Arial" font-size="14.00" fill="#666666">[bigint]</text>
<polygon fill="none" stroke="#000000" points="43,-1242.5 43,-1272.5 421,-1272.5 421,-1242.5 43,-1242.5"/>
<text text-anchor="start" x="50" y="-1253.9" font-family="Arial" font-size="14.00" fill="#000000">stars </text>
<text text-anchor="start" x="84.2244" y="-1253.9" font-family="Arial" font-size="14.00" fill="#666666">[bigint]</text>
<polygon fill="none" stroke="#000000" points="43,-1212.5 43,-1242.5 421,-1242.5 421,-1212.5 43,-1212.5"/>
<text text-anchor="start" x="50" y="-1223.9" font-family="Arial" font-size="14.00" fill="#000000">forks </text>
<text text-anchor="start" x="84.2244" y="-1223.9" font-family="Arial" font-size="14.00" fill="#666666">[bigint]</text>
<polygon fill="none" stroke="#000000" points="43,-1182.5 43,-1212.5 421,-1212.5 421,-1182.5 43,-1182.5"/>
<text text-anchor="start" x="50" y="-1193.9" font-family="Arial" font-size="14.00" fill="#000000">watchers </text>
<text text-anchor="start" x="109.8962" y="-1193.9" font-family="Arial" font-size="14.00" fill="#666666">[bigint]</text>
<polygon fill="none" stroke="#000000" points="43,-1152.5 43,-1182.5 421,-1182.5 421,-1152.5 43,-1152.5"/>
<text text-anchor="start" x="50" y="-1163.9" font-family="Arial" font-size="14.00" fill="#000000">subscribers </text>
<text text-anchor="start" x="125.4488" y="-1163.9" font-family="Arial" font-size="14.00" fill="#666666">[bigint]</text>
<polygon fill="none" stroke="#000000" points="43,-1122.5 43,-1152.5 421,-1152.5 421,-1122.5 43,-1122.5"/>
<text text-anchor="start" x="50" y="-1133.9" font-family="Arial" font-size="14.00" fill="#000000">network </text>
<text text-anchor="start" x="102.8962" y="-1133.9" font-family="Arial" font-size="14.00" fill="#666666">[bigint]</text>
<polygon fill="none" stroke="#000000" points="43,-1092.5 43,-1122.5 421,-1122.5 421,-1092.5 43,-1092.5"/>
<text text-anchor="start" x="50" y="-1103.9" font-family="Arial" font-size="14.00" fill="#000000">is_fork </text>
<text text-anchor="start" x="95.1136" y="-1103.9" font-family="Arial" font-size="14.00" fill="#666666">[boolean]</text>
<polygon fill="none" stroke="#000000" points="43,-1062.5 43,-1092.5 421,-1092.5 421,-1062.5 43,-1062.5"/>
<text text-anchor="start" x="50" y="-1073.9" font-family="Arial" font-size="14.00" fill="#000000">is_private </text>
<text text-anchor="start" x="113.7854" y="-1073.9" font-family="Arial" font-size="14.00" fill="#666666">[boolean]</text>
<polygon fill="none" stroke="#000000" points="43,-1032.5 43,-1062.5 421,-1062.5 421,-1032.5 43,-1032.5"/>
<text text-anchor="start" x="50" y="-1043.9" font-family="Arial" font-size="14.00" fill="#000000">is_template </text>
<text text-anchor="start" x="125.4586" y="-1043.9" font-family="Arial" font-size="14.00" fill="#666666">[boolean]</text>
<polygon fill="none" stroke="#000000" points="43,-1002.5 43,-1032.5 421,-1032.5 421,-1002.5 43,-1002.5"/>
<text text-anchor="start" x="50" y="-1013.9" font-family="Arial" font-size="14.00" fill="#000000">is_archived </text>
<text text-anchor="start" x="124.6774" y="-1013.9" font-family="Arial" font-size="14.00" fill="#666666">[boolean]</text>
<polygon fill="none" stroke="#000000" points="43,-972.5 43,-1002.5 421,-1002.5 421,-972.5 43,-972.5"/>
<text text-anchor="start" x="50" y="-983.9" font-family="Arial" font-size="14.00" fill="#000000">is_disabled </text>
<text text-anchor="start" x="123.906" y="-983.9" font-family="Arial" font-size="14.00" fill="#666666">[boolean]</text>
<polygon fill="none" stroke="#000000" points="43,-942.5 43,-972.5 421,-972.5 421,-942.5 43,-942.5"/>
<text text-anchor="start" x="50" y="-953.9" font-family="Arial" font-size="14.00" fill="#000000">has_issues </text>
<text text-anchor="start" x="123.9102" y="-953.9" font-family="Arial" font-size="14.00" fill="#666666">[boolean]</text>
<polygon fill="none" stroke="#000000" points="43,-912.5 43,-942.5 421,-942.5 421,-912.5 43,-912.5"/>
<text text-anchor="start" x="50" y="-923.9" font-family="Arial" font-size="14.00" fill="#000000">has_projects </text>
<text text-anchor="start" x="133.244" y="-923.9" font-family="Arial" font-size="14.00" fill="#666666">[boolean]</text>
<polygon fill="none" stroke="#000000" points="43,-882.5 43,-912.5 421,-912.5 421,-882.5 43,-882.5"/>
<text text-anchor="start" x="50" y="-893.9" font-family="Arial" font-size="14.00" fill="#000000">has_downloads </text>
<text text-anchor="start" x="151.1472" y="-893.9" font-family="Arial" font-size="14.00" fill="#666666">[boolean]</text>
<polygon fill="none" stroke="#000000" points="43,-852.5 43,-882.5 421,-882.5 421,-852.5 43,-852.5"/>
<text text-anchor="start" x="50" y="-863.9" font-family="Arial" font-size="14.00" fill="#000000">has_wiki </text>
<text text-anchor="start" x="107.5582" y="-863.9" font-family="Arial" font-size="14.00" fill="#666666">[boolean]</text>
<polygon fill="none" stroke="#000000" points="43,-822.5 43,-852.5 421,-852.5 421,-822.5 43,-822.5"/>
<text text-anchor="start" x="50" y="-833.9" font-family="Arial" font-size="14.00" fill="#000000">has_pages </text>
<text text-anchor="start" x="122.3688" y="-833.9" font-family="Arial" font-size="14.00" fill="#666666">[boolean]</text>
<polygon fill="none" stroke="#000000" points="43,-792.5 43,-822.5 421,-822.5 421,-792.5 43,-792.5"/>
<text text-anchor="start" x="50" y="-803.9" font-family="Arial" font-size="14.00" fill="#000000">has_discussions </text>
<text text-anchor="start" x="156.582" y="-803.9" font-family="Arial" font-size="14.00" fill="#666666">[boolean]</text>
<polygon fill="none" stroke="#000000" points="43,-762.5 43,-792.5 421,-792.5 421,-762.5 43,-762.5"/>
<text text-anchor="start" x="50" y="-773.9" font-family="Arial" font-size="14.00" fill="#000000">created_at </text>
<text text-anchor="start" x="120.028" y="-773.9" font-family="Arial" font-size="14.00" fill="#666666">[timestamp without time zone]</text>
<polygon fill="none" stroke="#000000" points="43,-732.5 43,-762.5 421,-762.5 421,-732.5 43,-732.5"/>
<text text-anchor="start" x="50" y="-743.9" font-family="Arial" font-size="14.00" fill="#000000">updated_at </text>
<text text-anchor="start" x="123.9326" y="-743.9" font-family="Arial" font-size="14.00" fill="#666666">[timestamp without time zone]</text>
<polygon fill="none" stroke="#000000" points="43,-702.5 43,-732.5 421,-732.5 421,-702.5 43,-702.5"/>
<text text-anchor="start" x="50" y="-713.9" font-family="Arial" font-size="14.00" fill="#000000">deleted_at </text>
<text text-anchor="start" x="119.2566" y="-713.9" font-family="Arial" font-size="14.00" fill="#666666">[timestamp without time zone]</text>
<polygon fill="none" stroke="#000000" points="43,-672.5 43,-702.5 421,-702.5 421,-672.5 43,-672.5"/>
<text text-anchor="start" x="50" y="-683.9" font-family="Arial" font-size="14.00" fill="#000000">pushed_at </text>
<text text-anchor="start" x="119.2594" y="-683.9" font-family="Arial" font-size="14.00" fill="#666666">[timestamp without time zone]</text>
<polygon fill="none" stroke="#000000" points="43,-642.5 43,-672.5 421,-672.5 421,-642.5 43,-642.5"/>
<text text-anchor="start" x="50" y="-653.9" font-family="Arial" font-size="14.00" fill="#000000">last_fetched_repos_at </text>
<text text-anchor="start" x="191.6114" y="-653.9" font-family="Arial" font-size="14.00" fill="#666666">[timestamp without time zone]</text>
<polygon fill="none" stroke="#000000" points="43,-612.5 43,-642.5 421,-642.5 421,-612.5 43,-612.5"/>
<text text-anchor="start" x="50" y="-623.9" font-family="Arial" font-size="14.00" fill="#000000">last_fetched_prs_at </text>
<text text-anchor="start" x="176.0462" y="-623.9" font-family="Arial" font-size="14.00" fill="#666666">[timestamp without time zone]</text>
<polygon fill="none" stroke="#000000" points="43,-582.5 43,-612.5 421,-612.5 421,-582.5 43,-582.5"/>
<text text-anchor="start" x="50" y="-593.9" font-family="Arial" font-size="14.00" fill="#000000">last_fetched_commits_at </text>
<text text-anchor="start" x="208.704" y="-593.9" font-family="Arial" font-size="14.00" fill="#666666">[timestamp without time zone]</text>
<polygon fill="none" stroke="#000000" points="43,-552.5 43,-582.5 421,-582.5 421,-552.5 43,-552.5"/>
<text text-anchor="start" x="49.5674" y="-563.9" font-family="Arial" font-size="14.00" fill="#000000">last_fetched_contributors_at </text>
<text text-anchor="start" x="229.2924" y="-563.9" font-family="Arial" font-size="14.00" fill="#666666">[timestamp without time zone]</text>
<polygon fill="none" stroke="#000000" points="43,-522.5 43,-552.5 421,-552.5 421,-522.5 43,-522.5"/>
<text text-anchor="start" x="50" y="-533.9" font-family="Arial" font-size="14.00" fill="#000000">default_branch </text>
<text text-anchor="start" x="146.4824" y="-533.9" font-family="Arial" font-size="14.00" fill="#666666">[varchar(255)]</text>
<polygon fill="none" stroke="#000000" points="43,-492.5 43,-522.5 421,-522.5 421,-492.5 43,-492.5"/>
<text text-anchor="start" x="50" y="-503.9" font-family="Arial" font-size="14.00" fill="#000000">node_id </text>
<text text-anchor="start" x="103.6928" y="-503.9" font-family="Arial" font-size="14.00" fill="#666666">[varchar(255)]</text>
<polygon fill="none" stroke="#000000" points="43,-462.5 43,-492.5 421,-492.5 421,-462.5 43,-462.5"/>
<text text-anchor="start" x="50" y="-473.9" font-family="Arial" font-size="14.00" fill="#000000">git_url </text>
<text text-anchor="start" x="92.0028" y="-473.9" font-family="Arial" font-size="14.00" fill="#666666">[varchar(255)]</text>
<polygon fill="none" stroke="#000000" points="43,-432.5 43,-462.5 421,-462.5 421,-432.5 43,-432.5"/>
<text text-anchor="start" x="50" y="-443.9" font-family="Arial" font-size="14.00" fill="#000000">ssh_url </text>
<text text-anchor="start" x="99.0056" y="-443.9" font-family="Arial" font-size="14.00" fill="#666666">[varchar(255)]</text>
<polygon fill="none" stroke="#000000" points="43,-402.5 43,-432.5 421,-432.5 421,-402.5 43,-402.5"/>
<text text-anchor="start" x="50" y="-413.9" font-family="Arial" font-size="14.00" fill="#000000">clone_url </text>
<text text-anchor="start" x="110.6774" y="-413.9" font-family="Arial" font-size="14.00" fill="#666666">[varchar(255)]</text>
<polygon fill="none" stroke="#000000" points="43,-372.5 43,-402.5 421,-402.5 421,-372.5 43,-372.5"/>
<text text-anchor="start" x="50" y="-383.9" font-family="Arial" font-size="14.00" fill="#000000">svn_url </text>
<text text-anchor="start" x="99.0056" y="-383.9" font-family="Arial" font-size="14.00" fill="#666666">[varchar(255)]</text>
<polygon fill="none" stroke="#000000" points="43,-342.5 43,-372.5 421,-372.5 421,-342.5 43,-342.5"/>
<text text-anchor="start" x="50" y="-353.9" font-family="Arial" font-size="14.00" fill="#000000">mirror_url </text>
<text text-anchor="start" x="113.7546" y="-353.9" font-family="Arial" font-size="14.00" fill="#666666">[varchar(255)]</text>
<polygon fill="none" stroke="#000000" points="43,-312.5 43,-342.5 421,-342.5 421,-312.5 43,-312.5"/>
<text text-anchor="start" x="50" y="-323.9" font-family="Arial" font-size="14.00" fill="#000000">name </text>
<text text-anchor="start" x="88.899" y="-323.9" font-family="Arial" font-size="14.00" fill="#666666">[varchar(255)]</text>
<polygon fill="none" stroke="#000000" points="43,-282.5 43,-312.5 421,-312.5 421,-282.5 43,-282.5"/>
<text text-anchor="start" x="50" y="-293.9" font-family="Arial" font-size="14.00" fill="#000000">full_name </text>
<text text-anchor="start" x="114.568" y="-293.9" font-family="Arial" font-size="14.00" fill="#666666">[varchar(255)]</text>
<polygon fill="none" stroke="#000000" points="43,-252.5 43,-282.5 421,-282.5 421,-252.5 43,-252.5"/>
<text text-anchor="start" x="50" y="-263.9" font-family="Arial" font-size="14.00" fill="#000000">description </text>
<text text-anchor="start" x="121.568" y="-263.9" font-family="Arial" font-size="14.00" fill="#666666">[text]</text>
<polygon fill="none" stroke="#000000" points="43,-222.5 43,-252.5 421,-252.5 421,-222.5 43,-222.5"/>
<text text-anchor="start" x="50" y="-233.9" font-family="Arial" font-size="14.00" fill="#000000">language </text>
<text text-anchor="start" x="111.4754" y="-233.9" font-family="Arial" font-size="14.00" fill="#666666">[varchar(64)]</text>
<polygon fill="none" stroke="#000000" points="43,-192.5 43,-222.5 421,-222.5 421,-192.5 43,-192.5"/>
<text text-anchor="start" x="50" y="-203.9" font-family="Arial" font-size="14.00" fill="#000000">license </text>
<text text-anchor="start" x="97.4516" y="-203.9" font-family="Arial" font-size="14.00" fill="#666666">[varchar(64)]</text>
<polygon fill="none" stroke="#000000" points="43,-162.5 43,-192.5 421,-192.5 421,-162.5 43,-162.5"/>
<text text-anchor="start" x="50" y="-173.9" font-family="Arial" font-size="14.00" fill="#000000">url </text>
<text text-anchor="start" x="69.4404" y="-173.9" font-family="Arial" font-size="14.00" fill="#666666">[varchar(255)]</text>
<polygon fill="none" stroke="#000000" points="43,-132.5 43,-162.5 421,-162.5 421,-132.5 43,-132.5"/>
<text text-anchor="start" x="50" y="-143.9" font-family="Arial" font-size="14.00" fill="#000000">homepage </text>
<text text-anchor="start" x="120.0294" y="-143.9" font-family="Arial" font-size="14.00" fill="#666666">[varchar(255)]</text>
<polygon fill="none" stroke="#000000" points="43,-102.5 43,-132.5 421,-132.5 421,-102.5 43,-102.5"/>
<text text-anchor="start" x="50" y="-113.9" font-family="Arial" font-size="14.00" fill="#000000">topics </text>
<text text-anchor="start" x="90.453" y="-113.9" font-family="Arial" font-size="14.00" fill="#666666">[varchar[]]</text>
<polygon fill="none" stroke="#000000" points="43,-72.5 43,-102.5 421,-102.5 421,-72.5 43,-72.5"/>
<text text-anchor="start" x="50" y="-83.9" font-family="Arial" font-size="14.00" fill="#000000">organization_id </text>
<text text-anchor="start" x="148.805" y="-83.9" font-family="Arial" font-size="14.00" fill="#666666">[bigint]</text>
<polygon fill="none" stroke="#000000" points="43,-42.5 43,-72.5 421,-72.5 421,-42.5 43,-42.5"/>
<text text-anchor="start" x="50" y="-53.9" font-family="Arial" font-size="14.00" fill="#000000">fetch_error </text>
<text text-anchor="start" x="121.5666" y="-53.9" font-family="Arial" font-size="14.00" fill="#666666">[boolean]</text>
</g>
<!-- public.pull_requests&#45;&gt;public.repos -->
<g id="edge2" class="edge">
<title>public.pull_requests:repo_id&#45;&gt;public.repos:id</title>
<path fill="none" stroke="#000000" d="M391.0399,-2488.2182C448.238,-2398.4833 480.3628,-1377.5 421,-1377.5"/>
<polygon fill="#000000" stroke="#000000" points="390.8799,-2488.3431 380.2294,-2490.954 386.94,-2491.4216 383,-2494.5 383,-2494.5 383,-2494.5 386.94,-2491.4216 385.7706,-2498.046 390.8799,-2488.3431 390.8799,-2488.3431"/>
<text text-anchor="start" x="390.3835" y="-2504.5" font-family="Arial" font-size="10.00" fill="#000000">FOREIGN KEY (repo_id) REFERENCES repos(id) ON UPDATE CASCADE ON DELETE CASCADE</text>
</g>
</g>
</svg>
