<?xml version="1.0" encoding="UTF-8" standalone="no"?>
<!DOCTYPE svg PUBLIC "-//W3C//DTD SVG 1.1//EN"
 "http://www.w3.org/Graphics/SVG/1.1/DTD/svg11.dtd">
<!-- Generated by graphviz version 2.40.1 (20161225.0304)
 -->
<!-- Title: public.emojis Pages: 1 -->
<svg width="1354pt" height="1786pt"
 viewBox="0.00 0.00 1354.00 1786.00" xmlns="http://www.w3.org/2000/svg" xmlns:xlink="http://www.w3.org/1999/xlink">
<g id="graph0" class="graph" transform="scale(1 1) rotate(0) translate(4 1782)">
<title>public.emojis</title>
<polygon fill="#ffffff" stroke="transparent" points="-4,4 -4,-1782 1350,-1782 1350,4 -4,4"/>
<!-- public.emojis -->
<g id="node1" class="node">
<title>public.emojis</title>
<polygon fill="#efefef" stroke="transparent" points="91,-792.5 91,-827.5 364,-827.5 364,-792.5 91,-792.5"/>
<polygon fill="none" stroke="#000000" points="91,-792.5 91,-827.5 364,-827.5 364,-792.5 91,-792.5"/>
<text text-anchor="start" x="126.872" y="-805.3" font-family="Arial Bold" font-size="18.00" fill="#000000">public.emojis</text>
<text text-anchor="start" x="230.8742" y="-805.3" font-family="Arial" font-size="14.00" fill="#000000"> </text>
<text text-anchor="start" x="234.7648" y="-805.3" font-family="Arial" font-size="14.00" fill="#666666">[BASE TABLE]</text>
<polygon fill="none" stroke="#000000" points="91,-762.5 91,-792.5 364,-792.5 364,-762.5 91,-762.5"/>
<text text-anchor="start" x="98" y="-773.9" font-family="Arial" font-size="14.00" fill="#000000">id </text>
<text text-anchor="start" x="112.7798" y="-773.9" font-family="Arial" font-size="14.00" fill="#666666">[uuid]</text>
<polygon fill="none" stroke="#000000" points="91,-732.5 91,-762.5 364,-762.5 364,-732.5 91,-732.5"/>
<text text-anchor="start" x="98" y="-743.9" font-family="Arial" font-size="14.00" fill="#000000">name </text>
<text text-anchor="start" x="136.899" y="-743.9" font-family="Arial" font-size="14.00" fill="#666666">[varchar(255)]</text>
<polygon fill="none" stroke="#000000" points="91,-702.5 91,-732.5 364,-732.5 364,-702.5 91,-702.5"/>
<text text-anchor="start" x="98" y="-713.9" font-family="Arial" font-size="14.00" fill="#000000">url </text>
<text text-anchor="start" x="117.4404" y="-713.9" font-family="Arial" font-size="14.00" fill="#666666">[varchar(255)]</text>
<polygon fill="none" stroke="#000000" points="91,-672.5 91,-702.5 364,-702.5 364,-672.5 91,-672.5"/>
<text text-anchor="start" x="98" y="-683.9" font-family="Arial" font-size="14.00" fill="#000000">created_at </text>
<text text-anchor="start" x="168.028" y="-683.9" font-family="Arial" font-size="14.00" fill="#666666">[timestamp without time zone]</text>
<polygon fill="none" stroke="#000000" points="91,-642.5 91,-672.5 364,-672.5 364,-642.5 91,-642.5"/>
<text text-anchor="start" x="97.9636" y="-653.9" font-family="Arial" font-size="14.00" fill="#000000">updated_at </text>
<text text-anchor="start" x="171.8962" y="-653.9" font-family="Arial" font-size="14.00" fill="#666666">[timestamp without time zone]</text>
<polygon fill="none" stroke="#000000" points="91,-612.5 91,-642.5 364,-642.5 364,-612.5 91,-612.5"/>
<text text-anchor="start" x="98" y="-623.9" font-family="Arial" font-size="14.00" fill="#000000">deleted_at </text>
<text text-anchor="start" x="167.2566" y="-623.9" font-family="Arial" font-size="14.00" fill="#666666">[timestamp without time zone]</text>
<polygon fill="none" stroke="#000000" points="91,-582.5 91,-612.5 364,-612.5 364,-582.5 91,-582.5"/>
<text text-anchor="start" x="98" y="-593.9" font-family="Arial" font-size="14.00" fill="#000000">display_order </text>
<text text-anchor="start" x="185.9032" y="-593.9" font-family="Arial" font-size="14.00" fill="#666666">[integer]</text>
<polygon fill="none" stroke="#000000" stroke-width="3" points="89,-581.5 89,-829.5 365,-829.5 365,-581.5 89,-581.5"/>
</g>
<!-- public.user_highlight_reactions -->
<g id="node2" class="node">
<title>public.user_highlight_reactions</title>
<polygon fill="#efefef" stroke="transparent" points="468,-1699.5 468,-1734.5 826,-1734.5 826,-1699.5 468,-1699.5"/>
<polygon fill="none" stroke="#000000" points="468,-1699.5 468,-1734.5 826,-1734.5 826,-1699.5 468,-1699.5"/>
<text text-anchor="start" x="474.8454" y="-1712.3" font-family="Arial Bold" font-size="18.00" fill="#000000">public.user_highlight_reactions</text>
<text text-anchor="start" x="721.9008" y="-1712.3" font-family="Arial" font-size="14.00" fill="#000000"> </text>
<text text-anchor="start" x="725.7914" y="-1712.3" font-family="Arial" font-size="14.00" fill="#666666">[BASE TABLE]</text>
<polygon fill="none" stroke="#000000" points="468,-1669.5 468,-1699.5 826,-1699.5 826,-1669.5 468,-1669.5"/>
<text text-anchor="start" x="475" y="-1680.9" font-family="Arial" font-size="14.00" fill="#000000">id </text>
<text text-anchor="start" x="489.7798" y="-1680.9" font-family="Arial" font-size="14.00" fill="#666666">[uuid]</text>
<polygon fill="none" stroke="#000000" points="468,-1639.5 468,-1669.5 826,-1669.5 826,-1639.5 468,-1639.5"/>
<text text-anchor="start" x="475" y="-1650.9" font-family="Arial" font-size="14.00" fill="#000000">user_id </text>
<text text-anchor="start" x="524.7882" y="-1650.9" font-family="Arial" font-size="14.00" fill="#666666">[bigint]</text>
<polygon fill="none" stroke="#000000" points="468,-1609.5 468,-1639.5 826,-1639.5 826,-1609.5 468,-1609.5"/>
<text text-anchor="start" x="475" y="-1620.9" font-family="Arial" font-size="14.00" fill="#000000">highlight_id </text>
<text text-anchor="start" x="549.6858" y="-1620.9" font-family="Arial" font-size="14.00" fill="#666666">[bigint]</text>
<polygon fill="none" stroke="#000000" points="468,-1579.5 468,-1609.5 826,-1609.5 826,-1579.5 468,-1579.5"/>
<text text-anchor="start" x="475" y="-1590.9" font-family="Arial" font-size="14.00" fill="#000000">emoji_id </text>
<text text-anchor="start" x="531.0014" y="-1590.9" font-family="Arial" font-size="14.00" fill="#666666">[uuid]</text>
<polygon fill="none" stroke="#000000" points="468,-1549.5 468,-1579.5 826,-1579.5 826,-1549.5 468,-1549.5"/>
<text text-anchor="start" x="475" y="-1560.9" font-family="Arial" font-size="14.00" fill="#000000">created_at </text>
<text text-anchor="start" x="545.028" y="-1560.9" font-family="Arial" font-size="14.00" fill="#666666">[timestamp without time zone]</text>
<polygon fill="none" stroke="#000000" points="468,-1519.5 468,-1549.5 826,-1549.5 826,-1519.5 468,-1519.5"/>
<text text-anchor="start" x="475" y="-1530.9" font-family="Arial" font-size="14.00" fill="#000000">updated_at </text>
<text text-anchor="start" x="548.9326" y="-1530.9" font-family="Arial" font-size="14.00" fill="#666666">[timestamp without time zone]</text>
<polygon fill="none" stroke="#000000" points="468,-1489.5 468,-1519.5 826,-1519.5 826,-1489.5 468,-1489.5"/>
<text text-anchor="start" x="475" y="-1500.9" font-family="Arial" font-size="14.00" fill="#000000">deleted_at </text>
<text text-anchor="start" x="544.2566" y="-1500.9" font-family="Arial" font-size="14.00" fill="#666666">[timestamp without time zone]</text>
</g>
<!-- public.user_highlight_reactions&#45;&gt;public.emojis -->
<g id="edge1" class="edge">
<title>public.user_highlight_reactions:emoji_id&#45;&gt;public.emojis:id</title>
<path fill="none" stroke="#000000" d="M457.8292,-1593.9539C387.5887,-1585.9145 432.1269,-1490.6538 418,-1411 405.6635,-1341.4413 434.6441,-777.5 364,-777.5"/>
<polygon fill="#000000" stroke="#000000" points="458.0144,-1593.9638 467.7587,-1598.9935 463.0072,-1594.2319 468,-1594.5 468,-1594.5 468,-1594.5 463.0072,-1594.2319 468.2413,-1590.0065 458.0144,-1593.9638 458.0144,-1593.9638"/>
<text text-anchor="start" x="6.5045" y="-1604.5" font-family="Arial" font-size="10.00" fill="#000000">FOREIGN KEY (emoji_id) REFERENCES emojis(id) ON UPDATE CASCADE ON DELETE CASCADE</text>
</g>
<!-- public.users -->
<g id="node3" class="node">
<title>public.users</title>
<polygon fill="#efefef" stroke="transparent" points="471,-1332.5 471,-1367.5 822,-1367.5 822,-1332.5 471,-1332.5"/>
<polygon fill="none" stroke="#000000" points="471,-1332.5 471,-1367.5 822,-1367.5 822,-1332.5 471,-1332.5"/>
<text text-anchor="start" x="549.8662" y="-1345.3" font-family="Arial Bold" font-size="18.00" fill="#000000">public.users</text>
<text text-anchor="start" x="645.88" y="-1345.3" font-family="Arial" font-size="14.00" fill="#000000"> </text>
<text text-anchor="start" x="649.7706" y="-1345.3" font-family="Arial" font-size="14.00" fill="#666666">[BASE TABLE]</text>
<polygon fill="none" stroke="#000000" points="471,-1302.5 471,-1332.5 822,-1332.5 822,-1302.5 471,-1302.5"/>
<text text-anchor="start" x="478" y="-1313.9" font-family="Arial" font-size="14.00" fill="#000000">id </text>
<text text-anchor="start" x="492.7798" y="-1313.9" font-family="Arial" font-size="14.00" fill="#666666">[bigint]</text>
<polygon fill="none" stroke="#000000" points="471,-1272.5 471,-1302.5 822,-1302.5 822,-1272.5 471,-1272.5"/>
<text text-anchor="start" x="478" y="-1283.9" font-family="Arial" font-size="14.00" fill="#000000">open_issues </text>
<text text-anchor="start" x="560.4754" y="-1283.9" font-family="Arial" font-size="14.00" fill="#666666">[bigint]</text>
<polygon fill="none" stroke="#000000" points="471,-1242.5 471,-1272.5 822,-1272.5 822,-1242.5 471,-1242.5"/>
<text text-anchor="start" x="478" y="-1253.9" font-family="Arial" font-size="14.00" fill="#000000">public_repos </text>
<text text-anchor="start" x="561.2426" y="-1253.9" font-family="Arial" font-size="14.00" fill="#666666">[bigint]</text>
<polygon fill="none" stroke="#000000" points="471,-1212.5 471,-1242.5 822,-1242.5 822,-1212.5 471,-1212.5"/>
<text text-anchor="start" x="478" y="-1223.9" font-family="Arial" font-size="14.00" fill="#000000">public_gists </text>
<text text-anchor="start" x="555.014" y="-1223.9" font-family="Arial" font-size="14.00" fill="#666666">[bigint]</text>
<polygon fill="none" stroke="#000000" points="471,-1182.5 471,-1212.5 822,-1212.5 822,-1182.5 471,-1182.5"/>
<text text-anchor="start" x="478" y="-1193.9" font-family="Arial" font-size="14.00" fill="#000000">followers </text>
<text text-anchor="start" x="537.1094" y="-1193.9" font-family="Arial" font-size="14.00" fill="#666666">[bigint]</text>
<polygon fill="none" stroke="#000000" points="471,-1152.5 471,-1182.5 822,-1182.5 822,-1152.5 471,-1152.5"/>
<text text-anchor="start" x="478" y="-1163.9" font-family="Arial" font-size="14.00" fill="#000000">following </text>
<text text-anchor="start" x="536.338" y="-1163.9" font-family="Arial" font-size="14.00" fill="#666666">[bigint]</text>
<polygon fill="none" stroke="#000000" points="471,-1122.5 471,-1152.5 822,-1152.5 822,-1122.5 471,-1122.5"/>
<text text-anchor="start" x="478" y="-1133.9" font-family="Arial" font-size="14.00" fill="#000000">role </text>
<text text-anchor="start" x="505.223" y="-1133.9" font-family="Arial" font-size="14.00" fill="#666666">[bigint]</text>
<polygon fill="none" stroke="#000000" points="471,-1092.5 471,-1122.5 822,-1122.5 822,-1092.5 471,-1092.5"/>
<text text-anchor="start" x="478" y="-1103.9" font-family="Arial" font-size="14.00" fill="#000000">display_local_time </text>
<text text-anchor="start" x="596.2356" y="-1103.9" font-family="Arial" font-size="14.00" fill="#666666">[boolean]</text>
<polygon fill="none" stroke="#000000" points="471,-1062.5 471,-1092.5 822,-1092.5 822,-1062.5 471,-1062.5"/>
<text text-anchor="start" x="478" y="-1073.9" font-family="Arial" font-size="14.00" fill="#000000">has_stars_data </text>
<text text-anchor="start" x="577.5932" y="-1073.9" font-family="Arial" font-size="14.00" fill="#666666">[boolean]</text>
<polygon fill="none" stroke="#000000" points="471,-1032.5 471,-1062.5 822,-1062.5 822,-1032.5 471,-1032.5"/>
<text text-anchor="start" x="478" y="-1043.9" font-family="Arial" font-size="14.00" fill="#000000">is_private </text>
<text text-anchor="start" x="541.7854" y="-1043.9" font-family="Arial" font-size="14.00" fill="#666666">[boolean]</text>
<polygon fill="none" stroke="#000000" points="471,-1002.5 471,-1032.5 822,-1032.5 822,-1002.5 471,-1002.5"/>
<text text-anchor="start" x="478" y="-1013.9" font-family="Arial" font-size="14.00" fill="#000000">is_open_sauced_member </text>
<text text-anchor="start" x="642.9354" y="-1013.9" font-family="Arial" font-size="14.00" fill="#666666">[boolean]</text>
<polygon fill="none" stroke="#000000" points="471,-972.5 471,-1002.5 822,-1002.5 822,-972.5 471,-972.5"/>
<text text-anchor="start" x="478" y="-983.9" font-family="Arial" font-size="14.00" fill="#000000">is_onboarded </text>
<text text-anchor="start" x="566.7012" y="-983.9" font-family="Arial" font-size="14.00" fill="#666666">[boolean]</text>
<polygon fill="none" stroke="#000000" points="471,-942.5 471,-972.5 822,-972.5 822,-942.5 471,-942.5"/>
<text text-anchor="start" x="478" y="-953.9" font-family="Arial" font-size="14.00" fill="#000000">is_waitlisted </text>
<text text-anchor="start" x="557.3352" y="-953.9" font-family="Arial" font-size="14.00" fill="#666666">[boolean]</text>
<polygon fill="none" stroke="#000000" points="471,-912.5 471,-942.5 822,-942.5 822,-912.5 471,-912.5"/>
<text text-anchor="start" x="478" y="-923.9" font-family="Arial" font-size="14.00" fill="#000000">hireable </text>
<text text-anchor="start" x="531.6774" y="-923.9" font-family="Arial" font-size="14.00" fill="#666666">[boolean]</text>
<polygon fill="none" stroke="#000000" points="471,-882.5 471,-912.5 822,-912.5 822,-882.5 471,-882.5"/>
<text text-anchor="start" x="478" y="-893.9" font-family="Arial" font-size="14.00" fill="#000000">display_email </text>
<text text-anchor="start" x="566.6732" y="-893.9" font-family="Arial" font-size="14.00" fill="#666666">[boolean]</text>
<polygon fill="none" stroke="#000000" points="471,-852.5 471,-882.5 822,-882.5 822,-852.5 471,-852.5"/>
<text text-anchor="start" x="478" y="-863.9" font-family="Arial" font-size="14.00" fill="#000000">receive_connection </text>
<text text-anchor="start" x="614.1374" y="-863.9" font-family="Arial" font-size="14.00" fill="#666666">[boolean]</text>
<polygon fill="none" stroke="#000000" points="471,-822.5 471,-852.5 822,-852.5 822,-822.5 471,-822.5"/>
<text text-anchor="start" x="478" y="-833.9" font-family="Arial" font-size="14.00" fill="#000000">created_at </text>
<text text-anchor="start" x="548.028" y="-833.9" font-family="Arial" font-size="14.00" fill="#666666">[timestamp without time zone]</text>
<polygon fill="none" stroke="#000000" points="471,-792.5 471,-822.5 822,-822.5 822,-792.5 471,-792.5"/>
<text text-anchor="start" x="478" y="-803.9" font-family="Arial" font-size="14.00" fill="#000000">updated_at </text>
<text text-anchor="start" x="551.9326" y="-803.9" font-family="Arial" font-size="14.00" fill="#666666">[timestamp without time zone]</text>
<polygon fill="none" stroke="#000000" points="471,-762.5 471,-792.5 822,-792.5 822,-762.5 471,-762.5"/>
<text text-anchor="start" x="478" y="-773.9" font-family="Arial" font-size="14.00" fill="#000000">deleted_at </text>
<text text-anchor="start" x="547.2566" y="-773.9" font-family="Arial" font-size="14.00" fill="#666666">[timestamp without time zone]</text>
<polygon fill="none" stroke="#000000" points="471,-732.5 471,-762.5 822,-762.5 822,-732.5 471,-732.5"/>
<text text-anchor="start" x="478" y="-743.9" font-family="Arial" font-size="14.00" fill="#000000">type </text>
<text text-anchor="start" x="508.3464" y="-743.9" font-family="Arial" font-size="14.00" fill="#666666">[varchar(20)]</text>
<polygon fill="none" stroke="#000000" points="471,-702.5 471,-732.5 822,-732.5 822,-702.5 471,-702.5"/>
<text text-anchor="start" x="478" y="-713.9" font-family="Arial" font-size="14.00" fill="#000000">timezone </text>
<text text-anchor="start" x="538.6788" y="-713.9" font-family="Arial" font-size="14.00" fill="#666666">[varchar(50)]</text>
<polygon fill="none" stroke="#000000" points="471,-672.5 471,-702.5 822,-702.5 822,-672.5 471,-672.5"/>
<text text-anchor="start" x="478" y="-683.9" font-family="Arial" font-size="14.00" fill="#000000">login </text>
<text text-anchor="start" x="511.4516" y="-683.9" font-family="Arial" font-size="14.00" fill="#666666">[varchar(255)]</text>
<polygon fill="none" stroke="#000000" points="471,-642.5 471,-672.5 822,-672.5 822,-642.5 471,-642.5"/>
<text text-anchor="start" x="478" y="-653.9" font-family="Arial" font-size="14.00" fill="#000000">email </text>
<text text-anchor="start" x="515.3296" y="-653.9" font-family="Arial" font-size="14.00" fill="#666666">[varchar(255)]</text>
<polygon fill="none" stroke="#000000" points="471,-612.5 471,-642.5 822,-642.5 822,-612.5 471,-612.5"/>
<text text-anchor="start" x="478" y="-623.9" font-family="Arial" font-size="14.00" fill="#000000">bio </text>
<text text-anchor="start" x="500.5624" y="-623.9" font-family="Arial" font-size="14.00" fill="#666666">[varchar(255)]</text>
<polygon fill="none" stroke="#000000" points="471,-582.5 471,-612.5 822,-612.5 822,-582.5 471,-582.5"/>
<text text-anchor="start" x="478" y="-593.9" font-family="Arial" font-size="14.00" fill="#000000">name </text>
<text text-anchor="start" x="516.899" y="-593.9" font-family="Arial" font-size="14.00" fill="#666666">[varchar(255)]</text>
<polygon fill="none" stroke="#000000" points="471,-552.5 471,-582.5 822,-582.5 822,-552.5 471,-552.5"/>
<text text-anchor="start" x="478" y="-563.9" font-family="Arial" font-size="14.00" fill="#000000">twitter_username </text>
<text text-anchor="start" x="589.2356" y="-563.9" font-family="Arial" font-size="14.00" fill="#666666">[varchar(15)]</text>
<polygon fill="none" stroke="#000000" points="471,-522.5 471,-552.5 822,-552.5 822,-522.5 471,-522.5"/>
<text text-anchor="start" x="478" y="-533.9" font-family="Arial" font-size="14.00" fill="#000000">company </text>
<text text-anchor="start" x="538.6816" y="-533.9" font-family="Arial" font-size="14.00" fill="#666666">[varchar(255)]</text>
<polygon fill="none" stroke="#000000" points="471,-492.5 471,-522.5 822,-522.5 822,-492.5 471,-492.5"/>
<text text-anchor="start" x="478" y="-503.9" font-family="Arial" font-size="14.00" fill="#000000">location </text>
<text text-anchor="start" x="530.1248" y="-503.9" font-family="Arial" font-size="14.00" fill="#666666">[varchar(255)]</text>
<polygon fill="none" stroke="#000000" points="471,-462.5 471,-492.5 822,-492.5 822,-462.5 471,-462.5"/>
<text text-anchor="start" x="478" y="-473.9" font-family="Arial" font-size="14.00" fill="#000000">node_id </text>
<text text-anchor="start" x="531.6928" y="-473.9" font-family="Arial" font-size="14.00" fill="#666666">[varchar(50)]</text>
<polygon fill="none" stroke="#000000" points="471,-432.5 471,-462.5 822,-462.5 822,-432.5 471,-432.5"/>
<text text-anchor="start" x="478" y="-443.9" font-family="Arial" font-size="14.00" fill="#000000">avatar_url </text>
<text text-anchor="start" x="544.122" y="-443.9" font-family="Arial" font-size="14.00" fill="#666666">[varchar(255)]</text>
<polygon fill="none" stroke="#000000" points="471,-402.5 471,-432.5 822,-432.5 822,-402.5 471,-402.5"/>
<text text-anchor="start" x="478" y="-413.9" font-family="Arial" font-size="14.00" fill="#000000">gravatar_id </text>
<text text-anchor="start" x="551.9046" y="-413.9" font-family="Arial" font-size="14.00" fill="#666666">[varchar(255)]</text>
<polygon fill="none" stroke="#000000" points="471,-372.5 471,-402.5 822,-402.5 822,-372.5 471,-372.5"/>
<text text-anchor="start" x="478" y="-383.9" font-family="Arial" font-size="14.00" fill="#000000">url </text>
<text text-anchor="start" x="497.4404" y="-383.9" font-family="Arial" font-size="14.00" fill="#666666">[varchar(255)]</text>
<polygon fill="none" stroke="#000000" points="471,-342.5 471,-372.5 822,-372.5 822,-342.5 471,-342.5"/>
<text text-anchor="start" x="478" y="-353.9" font-family="Arial" font-size="14.00" fill="#000000">blog </text>
<text text-anchor="start" x="508.345" y="-353.9" font-family="Arial" font-size="14.00" fill="#666666">[varchar(255)]</text>
<polygon fill="none" stroke="#000000" points="471,-312.5 471,-342.5 822,-342.5 822,-312.5 471,-312.5"/>
<text text-anchor="start" x="478" y="-323.9" font-family="Arial" font-size="14.00" fill="#000000">interests </text>
<text text-anchor="start" x="534.7868" y="-323.9" font-family="Arial" font-size="14.00" fill="#666666">[varchar(200)]</text>
<polygon fill="none" stroke="#000000" points="471,-282.5 471,-312.5 822,-312.5 822,-282.5 471,-282.5"/>
<text text-anchor="start" x="478" y="-293.9" font-family="Arial" font-size="14.00" fill="#000000">linkedin_url </text>
<text text-anchor="start" x="552.6732" y="-293.9" font-family="Arial" font-size="14.00" fill="#666666">[varchar(255)]</text>
<polygon fill="none" stroke="#000000" points="471,-252.5 471,-282.5 822,-282.5 822,-252.5 471,-252.5"/>
<text text-anchor="start" x="478" y="-263.9" font-family="Arial" font-size="14.00" fill="#000000">github_sponsors_url </text>
<text text-anchor="start" x="607.9242" y="-263.9" font-family="Arial" font-size="14.00" fill="#666666">[varchar(255)]</text>
<polygon fill="none" stroke="#000000" points="471,-222.5 471,-252.5 822,-252.5 822,-222.5 471,-222.5"/>
<text text-anchor="start" x="478" y="-233.9" font-family="Arial" font-size="14.00" fill="#000000">last_fetched_users_at </text>
<text text-anchor="start" x="618.8288" y="-233.9" font-family="Arial" font-size="14.00" fill="#666666">[timestamp without time zone]</text>
<polygon fill="none" stroke="#000000" points="471,-192.5 471,-222.5 822,-222.5 822,-192.5 471,-192.5"/>
<text text-anchor="start" x="478" y="-203.9" font-family="Arial" font-size="14.00" fill="#000000">languages </text>
<text text-anchor="start" x="546.4754" y="-203.9" font-family="Arial" font-size="14.00" fill="#666666">[jsonb]</text>
<polygon fill="none" stroke="#000000" points="471,-162.5 471,-192.5 822,-192.5 822,-162.5 471,-162.5"/>
<text text-anchor="start" x="478" y="-173.9" font-family="Arial" font-size="14.00" fill="#000000">first_opened_pr_at </text>
<text text-anchor="start" x="598.5988" y="-173.9" font-family="Arial" font-size="14.00" fill="#666666">[timestamp without time zone]</text>
<polygon fill="none" stroke="#000000" points="471,-132.5 471,-162.5 822,-162.5 822,-132.5 471,-132.5"/>
<text text-anchor="start" x="477.6929" y="-143.9" font-family="Arial" font-size="14.00" fill="#000000">first_pushed_commit_at </text>
<text text-anchor="start" x="630.1669" y="-143.9" font-family="Arial" font-size="14.00" fill="#666666">[timestamp without time zone]</text>
<polygon fill="none" stroke="#000000" points="471,-102.5 471,-132.5 822,-132.5 822,-102.5 471,-102.5"/>
<text text-anchor="start" x="478" y="-113.9" font-family="Arial" font-size="14.00" fill="#000000">connected_at </text>
<text text-anchor="start" x="565.9326" y="-113.9" font-family="Arial" font-size="14.00" fill="#666666">[timestamp without time zone]</text>
<polygon fill="none" stroke="#000000" points="471,-72.5 471,-102.5 822,-102.5 822,-72.5 471,-72.5"/>
<text text-anchor="start" x="478" y="-83.9" font-family="Arial" font-size="14.00" fill="#000000">discord_url </text>
<text text-anchor="start" x="550.338" y="-83.9" font-family="Arial" font-size="14.00" fill="#666666">[varchar(255)]</text>
<polygon fill="none" stroke="#000000" points="471,-42.5 471,-72.5 822,-72.5 822,-42.5 471,-42.5"/>
<text text-anchor="start" x="478" y="-53.9" font-family="Arial" font-size="14.00" fill="#000000">coupon_code </text>
<text text-anchor="start" x="565.934" y="-53.9" font-family="Arial" font-size="14.00" fill="#666666">[varchar]</text>
</g>
<!-- public.user_highlight_reactions&#45;&gt;public.users -->
<g id="edge2" class="edge">
<title>public.user_highlight_reactions:user_id&#45;&gt;public.users:id</title>
<path fill="none" stroke="#000000" d="M457.7486,-1653.8759C378.2006,-1643.743 408.5908,-1512.7572 468,-1447 521.0088,-1388.3271 768.9912,-1469.6729 822,-1411 849.8581,-1380.1651 863.5556,-1317.5 822,-1317.5"/>
<polygon fill="#000000" stroke="#000000" points="458.0185,-1653.8922 467.7265,-1658.9917 463.0092,-1654.1961 468,-1654.5 468,-1654.5 468,-1654.5 463.0092,-1654.1961 468.2735,-1650.0083 458.0185,-1653.8922 458.0185,-1653.8922"/>
<text text-anchor="start" x="14.9425" y="-1664.5" font-family="Arial" font-size="10.00" fill="#000000">FOREIGN KEY (user_id) REFERENCES users(id) ON UPDATE CASCADE ON DELETE CASCADE</text>
</g>
<!-- public.user_highlights -->
<g id="node4" class="node">
<title>public.user_highlights</title>
<polygon fill="#efefef" stroke="transparent" points="926,-882.5 926,-917.5 1210,-917.5 1210,-882.5 926,-882.5"/>
<polygon fill="none" stroke="#000000" points="926,-882.5 926,-917.5 1210,-917.5 1210,-882.5 926,-882.5"/>
<text text-anchor="start" x="932.8552" y="-895.3" font-family="Arial Bold" font-size="18.00" fill="#000000">public.user_highlights</text>
<text text-anchor="start" x="1105.891" y="-895.3" font-family="Arial" font-size="14.00" fill="#000000"> </text>
<text text-anchor="start" x="1109.7816" y="-895.3" font-family="Arial" font-size="14.00" fill="#666666">[BASE TABLE]</text>
<polygon fill="none" stroke="#000000" points="926,-852.5 926,-882.5 1210,-882.5 1210,-852.5 926,-852.5"/>
<text text-anchor="start" x="933" y="-863.9" font-family="Arial" font-size="14.00" fill="#000000">id </text>
<text text-anchor="start" x="947.7798" y="-863.9" font-family="Arial" font-size="14.00" fill="#666666">[bigint]</text>
<polygon fill="none" stroke="#000000" points="926,-822.5 926,-852.5 1210,-852.5 1210,-822.5 926,-822.5"/>
<text text-anchor="start" x="933" y="-833.9" font-family="Arial" font-size="14.00" fill="#000000">user_id </text>
<text text-anchor="start" x="982.7882" y="-833.9" font-family="Arial" font-size="14.00" fill="#666666">[bigint]</text>
<polygon fill="none" stroke="#000000" points="926,-792.5 926,-822.5 1210,-822.5 1210,-792.5 926,-792.5"/>
<text text-anchor="start" x="933" y="-803.9" font-family="Arial" font-size="14.00" fill="#000000">url </text>
<text text-anchor="start" x="952.4404" y="-803.9" font-family="Arial" font-size="14.00" fill="#666666">[varchar(255)]</text>
<polygon fill="none" stroke="#000000" points="926,-762.5 926,-792.5 1210,-792.5 1210,-762.5 926,-762.5"/>
<text text-anchor="start" x="933" y="-773.9" font-family="Arial" font-size="14.00" fill="#000000">highlight </text>
<text text-anchor="start" x="989.014" y="-773.9" font-family="Arial" font-size="14.00" fill="#666666">[varchar(500)]</text>
<polygon fill="none" stroke="#000000" points="926,-732.5 926,-762.5 1210,-762.5 1210,-732.5 926,-732.5"/>
<text text-anchor="start" x="933" y="-743.9" font-family="Arial" font-size="14.00" fill="#000000">pinned </text>
<text text-anchor="start" x="978.9102" y="-743.9" font-family="Arial" font-size="14.00" fill="#666666">[boolean]</text>
<polygon fill="none" stroke="#000000" points="926,-702.5 926,-732.5 1210,-732.5 1210,-702.5 926,-702.5"/>
<text text-anchor="start" x="933" y="-713.9" font-family="Arial" font-size="14.00" fill="#000000">created_at </text>
<text text-anchor="start" x="1003.028" y="-713.9" font-family="Arial" font-size="14.00" fill="#666666">[timestamp with time zone]</text>
<polygon fill="none" stroke="#000000" points="926,-672.5 926,-702.5 1210,-702.5 1210,-672.5 926,-672.5"/>
<text text-anchor="start" x="933" y="-683.9" font-family="Arial" font-size="14.00" fill="#000000">updated_at </text>
<text text-anchor="start" x="1006.9326" y="-683.9" font-family="Arial" font-size="14.00" fill="#666666">[timestamp with time zone]</text>
<polygon fill="none" stroke="#000000" points="926,-642.5 926,-672.5 1210,-672.5 1210,-642.5 926,-642.5"/>
<text text-anchor="start" x="933" y="-653.9" font-family="Arial" font-size="14.00" fill="#000000">deleted_at </text>
<text text-anchor="start" x="1002.2566" y="-653.9" font-family="Arial" font-size="14.00" fill="#666666">[timestamp with time zone]</text>
<polygon fill="none" stroke="#000000" points="926,-612.5 926,-642.5 1210,-642.5 1210,-612.5 926,-612.5"/>
<text text-anchor="start" x="933" y="-623.9" font-family="Arial" font-size="14.00" fill="#000000">title </text>
<text text-anchor="start" x="958.6676" y="-623.9" font-family="Arial" font-size="14.00" fill="#666666">[varchar(100)]</text>
<polygon fill="none" stroke="#000000" points="926,-582.5 926,-612.5 1210,-612.5 1210,-582.5 926,-582.5"/>
<text text-anchor="start" x="933" y="-593.9" font-family="Arial" font-size="14.00" fill="#000000">shipped_at </text>
<text text-anchor="start" x="1005.366" y="-593.9" font-family="Arial" font-size="14.00" fill="#666666">[timestamp without time zone]</text>
<polygon fill="none" stroke="#000000" points="926,-552.5 926,-582.5 1210,-582.5 1210,-552.5 926,-552.5"/>
<text text-anchor="start" x="933" y="-563.9" font-family="Arial" font-size="14.00" fill="#000000">featured </text>
<text text-anchor="start" x="988.2454" y="-563.9" font-family="Arial" font-size="14.00" fill="#666666">[boolean]</text>
<polygon fill="none" stroke="#000000" points="926,-522.5 926,-552.5 1210,-552.5 1210,-522.5 926,-522.5"/>
<text text-anchor="start" x="933" y="-533.9" font-family="Arial" font-size="14.00" fill="#000000">type </text>
<text text-anchor="start" x="963.3464" y="-533.9" font-family="Arial" font-size="14.00" fill="#666666">[varchar(25)]</text>
<polygon fill="none" stroke="#000000" points="926,-492.5 926,-522.5 1210,-522.5 1210,-492.5 926,-492.5"/>
<text text-anchor="start" x="933" y="-503.9" font-family="Arial" font-size="14.00" fill="#000000">tagged_repos </text>
<text text-anchor="start" x="1022.4852" y="-503.9" font-family="Arial" font-size="14.00" fill="#666666">[text[]]</text>
</g>
<!-- public.user_highlight_reactions&#45;&gt;public.user_highlights -->
<g id="edge3" class="edge">
<title>public.user_highlight_reactions:highlight_id&#45;&gt;public.user_highlights:id</title>
<path fill="none" stroke="#000000" d="M836.1712,-1624.0218C918.574,-1615.8119 859.2404,-1503.4779 874,-1411 883.5612,-1351.0935 865.3353,-867.5 926,-867.5"/>
<polygon fill="#000000" stroke="#000000" points="835.989,-1624.0303 825.7886,-1620.005 830.9945,-1624.2652 826,-1624.5 826,-1624.5 826,-1624.5 830.9945,-1624.2652 826.2114,-1628.995 835.989,-1624.0303 835.989,-1624.0303"/>
<text text-anchor="start" x="832.6555" y="-1634.5" font-family="Arial" font-size="10.00" fill="#000000">FOREIGN KEY (highlight_id) REFERENCES user_highlights(id) ON UPDATE CASCADE ON DELETE CASCADE</text>
</g>
</g>
</svg>
