<?xml version="1.0" encoding="UTF-8" standalone="no"?>
<!DOCTYPE svg PUBLIC "-//W3C//DTD SVG 1.1//EN"
 "http://www.w3.org/Graphics/SVG/1.1/DTD/svg11.dtd">
<!-- Generated by graphviz version 2.40.1 (20161225.0304)
 -->
<!-- Title: public.user_highlights Pages: 1 -->
<svg width="1354pt" height="1756pt"
 viewBox="0.00 0.00 1354.00 1756.00" xmlns="http://www.w3.org/2000/svg" xmlns:xlink="http://www.w3.org/1999/xlink">
<g id="graph0" class="graph" transform="scale(1 1) rotate(0) translate(4 1752)">
<title>public.user_highlights</title>
<polygon fill="#ffffff" stroke="transparent" points="-4,4 -4,-1752 1350,-1752 1350,4 -4,4"/>
<!-- public.user_highlights -->
<g id="node1" class="node">
<title>public.user_highlights</title>
<polygon fill="#efefef" stroke="transparent" points="131,-867.5 131,-902.5 415,-902.5 415,-867.5 131,-867.5"/>
<polygon fill="none" stroke="#000000" points="131,-867.5 131,-902.5 415,-902.5 415,-867.5 131,-867.5"/>
<text text-anchor="start" x="137.8552" y="-880.3" font-family="Arial Bold" font-size="18.00" fill="#000000">public.user_highlights</text>
<text text-anchor="start" x="310.891" y="-880.3" font-family="Arial" font-size="14.00" fill="#000000"> </text>
<text text-anchor="start" x="314.7816" y="-880.3" font-family="Arial" font-size="14.00" fill="#666666">[BASE TABLE]</text>
<polygon fill="none" stroke="#000000" points="131,-837.5 131,-867.5 415,-867.5 415,-837.5 131,-837.5"/>
<text text-anchor="start" x="138" y="-848.9" font-family="Arial" font-size="14.00" fill="#000000">id </text>
<text text-anchor="start" x="152.7798" y="-848.9" font-family="Arial" font-size="14.00" fill="#666666">[bigint]</text>
<polygon fill="none" stroke="#000000" points="131,-807.5 131,-837.5 415,-837.5 415,-807.5 131,-807.5"/>
<text text-anchor="start" x="138" y="-818.9" font-family="Arial" font-size="14.00" fill="#000000">user_id </text>
<text text-anchor="start" x="187.7882" y="-818.9" font-family="Arial" font-size="14.00" fill="#666666">[bigint]</text>
<polygon fill="none" stroke="#000000" points="131,-777.5 131,-807.5 415,-807.5 415,-777.5 131,-777.5"/>
<text text-anchor="start" x="138" y="-788.9" font-family="Arial" font-size="14.00" fill="#000000">url </text>
<text text-anchor="start" x="157.4404" y="-788.9" font-family="Arial" font-size="14.00" fill="#666666">[varchar(255)]</text>
<polygon fill="none" stroke="#000000" points="131,-747.5 131,-777.5 415,-777.5 415,-747.5 131,-747.5"/>
<text text-anchor="start" x="138" y="-758.9" font-family="Arial" font-size="14.00" fill="#000000">highlight </text>
<text text-anchor="start" x="194.014" y="-758.9" font-family="Arial" font-size="14.00" fill="#666666">[varchar(500)]</text>
<polygon fill="none" stroke="#000000" points="131,-717.5 131,-747.5 415,-747.5 415,-717.5 131,-717.5"/>
<text text-anchor="start" x="138" y="-728.9" font-family="Arial" font-size="14.00" fill="#000000">pinned </text>
<text text-anchor="start" x="183.9102" y="-728.9" font-family="Arial" font-size="14.00" fill="#666666">[boolean]</text>
<polygon fill="none" stroke="#000000" points="131,-687.5 131,-717.5 415,-717.5 415,-687.5 131,-687.5"/>
<text text-anchor="start" x="138" y="-698.9" font-family="Arial" font-size="14.00" fill="#000000">created_at </text>
<text text-anchor="start" x="208.028" y="-698.9" font-family="Arial" font-size="14.00" fill="#666666">[timestamp with time zone]</text>
<polygon fill="none" stroke="#000000" points="131,-657.5 131,-687.5 415,-687.5 415,-657.5 131,-657.5"/>
<text text-anchor="start" x="138" y="-668.9" font-family="Arial" font-size="14.00" fill="#000000">updated_at </text>
<text text-anchor="start" x="211.9326" y="-668.9" font-family="Arial" font-size="14.00" fill="#666666">[timestamp with time zone]</text>
<polygon fill="none" stroke="#000000" points="131,-627.5 131,-657.5 415,-657.5 415,-627.5 131,-627.5"/>
<text text-anchor="start" x="138" y="-638.9" font-family="Arial" font-size="14.00" fill="#000000">deleted_at </text>
<text text-anchor="start" x="207.2566" y="-638.9" font-family="Arial" font-size="14.00" fill="#666666">[timestamp with time zone]</text>
<polygon fill="none" stroke="#000000" points="131,-597.5 131,-627.5 415,-627.5 415,-597.5 131,-597.5"/>
<text text-anchor="start" x="138" y="-608.9" font-family="Arial" font-size="14.00" fill="#000000">title </text>
<text text-anchor="start" x="163.6676" y="-608.9" font-family="Arial" font-size="14.00" fill="#666666">[varchar(100)]</text>
<polygon fill="none" stroke="#000000" points="131,-567.5 131,-597.5 415,-597.5 415,-567.5 131,-567.5"/>
<text text-anchor="start" x="138" y="-578.9" font-family="Arial" font-size="14.00" fill="#000000">shipped_at </text>
<text text-anchor="start" x="210.366" y="-578.9" font-family="Arial" font-size="14.00" fill="#666666">[timestamp without time zone]</text>
<polygon fill="none" stroke="#000000" points="131,-537.5 131,-567.5 415,-567.5 415,-537.5 131,-537.5"/>
<text text-anchor="start" x="138" y="-548.9" font-family="Arial" font-size="14.00" fill="#000000">featured </text>
<text text-anchor="start" x="193.2454" y="-548.9" font-family="Arial" font-size="14.00" fill="#666666">[boolean]</text>
<polygon fill="none" stroke="#000000" points="131,-507.5 131,-537.5 415,-537.5 415,-507.5 131,-507.5"/>
<text text-anchor="start" x="138" y="-518.9" font-family="Arial" font-size="14.00" fill="#000000">type </text>
<text text-anchor="start" x="168.3464" y="-518.9" font-family="Arial" font-size="14.00" fill="#666666">[varchar(25)]</text>
<polygon fill="none" stroke="#000000" points="131,-477.5 131,-507.5 415,-507.5 415,-477.5 131,-477.5"/>
<text text-anchor="start" x="138" y="-488.9" font-family="Arial" font-size="14.00" fill="#000000">tagged_repos </text>
<text text-anchor="start" x="227.4852" y="-488.9" font-family="Arial" font-size="14.00" fill="#666666">[text[]]</text>
<polygon fill="none" stroke="#000000" stroke-width="3" points="129.5,-476.5 129.5,-904.5 416.5,-904.5 416.5,-476.5 129.5,-476.5"/>
</g>
<!-- public.user_highlight_reactions -->
<g id="node2" class="node">
<title>public.user_highlight_reactions</title>
<polygon fill="#efefef" stroke="transparent" points="520,-1669.5 520,-1704.5 878,-1704.5 878,-1669.5 520,-1669.5"/>
<polygon fill="none" stroke="#000000" points="520,-1669.5 520,-1704.5 878,-1704.5 878,-1669.5 520,-1669.5"/>
<text text-anchor="start" x="526.8454" y="-1682.3" font-family="Arial Bold" font-size="18.00" fill="#000000">public.user_highlight_reactions</text>
<text text-anchor="start" x="773.9008" y="-1682.3" font-family="Arial" font-size="14.00" fill="#000000"> </text>
<text text-anchor="start" x="777.7914" y="-1682.3" font-family="Arial" font-size="14.00" fill="#666666">[BASE TABLE]</text>
<polygon fill="none" stroke="#000000" points="520,-1639.5 520,-1669.5 878,-1669.5 878,-1639.5 520,-1639.5"/>
<text text-anchor="start" x="527" y="-1650.9" font-family="Arial" font-size="14.00" fill="#000000">id </text>
<text text-anchor="start" x="541.7798" y="-1650.9" font-family="Arial" font-size="14.00" fill="#666666">[uuid]</text>
<polygon fill="none" stroke="#000000" points="520,-1609.5 520,-1639.5 878,-1639.5 878,-1609.5 520,-1609.5"/>
<text text-anchor="start" x="527" y="-1620.9" font-family="Arial" font-size="14.00" fill="#000000">user_id </text>
<text text-anchor="start" x="576.7882" y="-1620.9" font-family="Arial" font-size="14.00" fill="#666666">[bigint]</text>
<polygon fill="none" stroke="#000000" points="520,-1579.5 520,-1609.5 878,-1609.5 878,-1579.5 520,-1579.5"/>
<text text-anchor="start" x="527" y="-1590.9" font-family="Arial" font-size="14.00" fill="#000000">highlight_id </text>
<text text-anchor="start" x="601.6858" y="-1590.9" font-family="Arial" font-size="14.00" fill="#666666">[bigint]</text>
<polygon fill="none" stroke="#000000" points="520,-1549.5 520,-1579.5 878,-1579.5 878,-1549.5 520,-1549.5"/>
<text text-anchor="start" x="527" y="-1560.9" font-family="Arial" font-size="14.00" fill="#000000">emoji_id </text>
<text text-anchor="start" x="583.0014" y="-1560.9" font-family="Arial" font-size="14.00" fill="#666666">[uuid]</text>
<polygon fill="none" stroke="#000000" points="520,-1519.5 520,-1549.5 878,-1549.5 878,-1519.5 520,-1519.5"/>
<text text-anchor="start" x="527" y="-1530.9" font-family="Arial" font-size="14.00" fill="#000000">created_at </text>
<text text-anchor="start" x="597.028" y="-1530.9" font-family="Arial" font-size="14.00" fill="#666666">[timestamp without time zone]</text>
<polygon fill="none" stroke="#000000" points="520,-1489.5 520,-1519.5 878,-1519.5 878,-1489.5 520,-1489.5"/>
<text text-anchor="start" x="527" y="-1500.9" font-family="Arial" font-size="14.00" fill="#000000">updated_at </text>
<text text-anchor="start" x="600.9326" y="-1500.9" font-family="Arial" font-size="14.00" fill="#666666">[timestamp without time zone]</text>
<polygon fill="none" stroke="#000000" points="520,-1459.5 520,-1489.5 878,-1489.5 878,-1459.5 520,-1459.5"/>
<text text-anchor="start" x="527" y="-1470.9" font-family="Arial" font-size="14.00" fill="#000000">deleted_at </text>
<text text-anchor="start" x="596.2566" y="-1470.9" font-family="Arial" font-size="14.00" fill="#666666">[timestamp without time zone]</text>
</g>
<!-- public.user_highlight_reactions&#45;&gt;public.user_highlights -->
<g id="edge1" class="edge">
<title>public.user_highlight_reactions:highlight_id&#45;&gt;public.user_highlights:id</title>
<path fill="none" stroke="#000000" d="M509.8036,-1594.0221C427.1573,-1585.8162 485.5865,-1473.5363 470,-1381 460.1937,-1322.7807 474.0394,-852.5 415,-852.5"/>
<polygon fill="#000000" stroke="#000000" points="510.011,-1594.0317 519.7893,-1598.9951 515.0055,-1594.2659 520,-1594.5 520,-1594.5 520,-1594.5 515.0055,-1594.2659 520.2107,-1590.0049 510.011,-1594.0317 510.011,-1594.0317"/>
<text text-anchor="start" x="6.6555" y="-1604.5" font-family="Arial" font-size="10.00" fill="#000000">FOREIGN KEY (highlight_id) REFERENCES user_highlights(id) ON UPDATE CASCADE ON DELETE CASCADE</text>
</g>
<!-- public.users -->
<g id="node3" class="node">
<title>public.users</title>
<polygon fill="#efefef" stroke="transparent" points="523,-1302.5 523,-1337.5 874,-1337.5 874,-1302.5 523,-1302.5"/>
<polygon fill="none" stroke="#000000" points="523,-1302.5 523,-1337.5 874,-1337.5 874,-1302.5 523,-1302.5"/>
<text text-anchor="start" x="601.8662" y="-1315.3" font-family="Arial Bold" font-size="18.00" fill="#000000">public.users</text>
<text text-anchor="start" x="697.88" y="-1315.3" font-family="Arial" font-size="14.00" fill="#000000"> </text>
<text text-anchor="start" x="701.7706" y="-1315.3" font-family="Arial" font-size="14.00" fill="#666666">[BASE TABLE]</text>
<polygon fill="none" stroke="#000000" points="523,-1272.5 523,-1302.5 874,-1302.5 874,-1272.5 523,-1272.5"/>
<text text-anchor="start" x="530" y="-1283.9" font-family="Arial" font-size="14.00" fill="#000000">id </text>
<text text-anchor="start" x="544.7798" y="-1283.9" font-family="Arial" font-size="14.00" fill="#666666">[bigint]</text>
<polygon fill="none" stroke="#000000" points="523,-1242.5 523,-1272.5 874,-1272.5 874,-1242.5 523,-1242.5"/>
<text text-anchor="start" x="530" y="-1253.9" font-family="Arial" font-size="14.00" fill="#000000">open_issues </text>
<text text-anchor="start" x="612.4754" y="-1253.9" font-family="Arial" font-size="14.00" fill="#666666">[bigint]</text>
<polygon fill="none" stroke="#000000" points="523,-1212.5 523,-1242.5 874,-1242.5 874,-1212.5 523,-1212.5"/>
<text text-anchor="start" x="530" y="-1223.9" font-family="Arial" font-size="14.00" fill="#000000">public_repos </text>
<text text-anchor="start" x="613.2426" y="-1223.9" font-family="Arial" font-size="14.00" fill="#666666">[bigint]</text>
<polygon fill="none" stroke="#000000" points="523,-1182.5 523,-1212.5 874,-1212.5 874,-1182.5 523,-1182.5"/>
<text text-anchor="start" x="530" y="-1193.9" font-family="Arial" font-size="14.00" fill="#000000">public_gists </text>
<text text-anchor="start" x="607.014" y="-1193.9" font-family="Arial" font-size="14.00" fill="#666666">[bigint]</text>
<polygon fill="none" stroke="#000000" points="523,-1152.5 523,-1182.5 874,-1182.5 874,-1152.5 523,-1152.5"/>
<text text-anchor="start" x="530" y="-1163.9" font-family="Arial" font-size="14.00" fill="#000000">followers </text>
<text text-anchor="start" x="589.1094" y="-1163.9" font-family="Arial" font-size="14.00" fill="#666666">[bigint]</text>
<polygon fill="none" stroke="#000000" points="523,-1122.5 523,-1152.5 874,-1152.5 874,-1122.5 523,-1122.5"/>
<text text-anchor="start" x="530" y="-1133.9" font-family="Arial" font-size="14.00" fill="#000000">following </text>
<text text-anchor="start" x="588.338" y="-1133.9" font-family="Arial" font-size="14.00" fill="#666666">[bigint]</text>
<polygon fill="none" stroke="#000000" points="523,-1092.5 523,-1122.5 874,-1122.5 874,-1092.5 523,-1092.5"/>
<text text-anchor="start" x="530" y="-1103.9" font-family="Arial" font-size="14.00" fill="#000000">role </text>
<text text-anchor="start" x="557.223" y="-1103.9" font-family="Arial" font-size="14.00" fill="#666666">[bigint]</text>
<polygon fill="none" stroke="#000000" points="523,-1062.5 523,-1092.5 874,-1092.5 874,-1062.5 523,-1062.5"/>
<text text-anchor="start" x="530" y="-1073.9" font-family="Arial" font-size="14.00" fill="#000000">display_local_time </text>
<text text-anchor="start" x="648.2356" y="-1073.9" font-family="Arial" font-size="14.00" fill="#666666">[boolean]</text>
<polygon fill="none" stroke="#000000" points="523,-1032.5 523,-1062.5 874,-1062.5 874,-1032.5 523,-1032.5"/>
<text text-anchor="start" x="530" y="-1043.9" font-family="Arial" font-size="14.00" fill="#000000">has_stars_data </text>
<text text-anchor="start" x="629.5932" y="-1043.9" font-family="Arial" font-size="14.00" fill="#666666">[boolean]</text>
<polygon fill="none" stroke="#000000" points="523,-1002.5 523,-1032.5 874,-1032.5 874,-1002.5 523,-1002.5"/>
<text text-anchor="start" x="530" y="-1013.9" font-family="Arial" font-size="14.00" fill="#000000">is_private </text>
<text text-anchor="start" x="593.7854" y="-1013.9" font-family="Arial" font-size="14.00" fill="#666666">[boolean]</text>
<polygon fill="none" stroke="#000000" points="523,-972.5 523,-1002.5 874,-1002.5 874,-972.5 523,-972.5"/>
<text text-anchor="start" x="530" y="-983.9" font-family="Arial" font-size="14.00" fill="#000000">is_open_sauced_member </text>
<text text-anchor="start" x="694.9354" y="-983.9" font-family="Arial" font-size="14.00" fill="#666666">[boolean]</text>
<polygon fill="none" stroke="#000000" points="523,-942.5 523,-972.5 874,-972.5 874,-942.5 523,-942.5"/>
<text text-anchor="start" x="530" y="-953.9" font-family="Arial" font-size="14.00" fill="#000000">is_onboarded </text>
<text text-anchor="start" x="618.7012" y="-953.9" font-family="Arial" font-size="14.00" fill="#666666">[boolean]</text>
<polygon fill="none" stroke="#000000" points="523,-912.5 523,-942.5 874,-942.5 874,-912.5 523,-912.5"/>
<text text-anchor="start" x="530" y="-923.9" font-family="Arial" font-size="14.00" fill="#000000">is_waitlisted </text>
<text text-anchor="start" x="609.3352" y="-923.9" font-family="Arial" font-size="14.00" fill="#666666">[boolean]</text>
<polygon fill="none" stroke="#000000" points="523,-882.5 523,-912.5 874,-912.5 874,-882.5 523,-882.5"/>
<text text-anchor="start" x="530" y="-893.9" font-family="Arial" font-size="14.00" fill="#000000">hireable </text>
<text text-anchor="start" x="583.6774" y="-893.9" font-family="Arial" font-size="14.00" fill="#666666">[boolean]</text>
<polygon fill="none" stroke="#000000" points="523,-852.5 523,-882.5 874,-882.5 874,-852.5 523,-852.5"/>
<text text-anchor="start" x="530" y="-863.9" font-family="Arial" font-size="14.00" fill="#000000">display_email </text>
<text text-anchor="start" x="618.6732" y="-863.9" font-family="Arial" font-size="14.00" fill="#666666">[boolean]</text>
<polygon fill="none" stroke="#000000" points="523,-822.5 523,-852.5 874,-852.5 874,-822.5 523,-822.5"/>
<text text-anchor="start" x="530" y="-833.9" font-family="Arial" font-size="14.00" fill="#000000">receive_collaboration </text>
<text text-anchor="start" x="666.1374" y="-833.9" font-family="Arial" font-size="14.00" fill="#666666">[boolean]</text>
<polygon fill="none" stroke="#000000" points="523,-792.5 523,-822.5 874,-822.5 874,-792.5 523,-792.5"/>
<text text-anchor="start" x="530" y="-803.9" font-family="Arial" font-size="14.00" fill="#000000">created_at </text>
<text text-anchor="start" x="600.028" y="-803.9" font-family="Arial" font-size="14.00" fill="#666666">[timestamp without time zone]</text>
<polygon fill="none" stroke="#000000" points="523,-762.5 523,-792.5 874,-792.5 874,-762.5 523,-762.5"/>
<text text-anchor="start" x="530" y="-773.9" font-family="Arial" font-size="14.00" fill="#000000">updated_at </text>
<text text-anchor="start" x="603.9326" y="-773.9" font-family="Arial" font-size="14.00" fill="#666666">[timestamp without time zone]</text>
<polygon fill="none" stroke="#000000" points="523,-732.5 523,-762.5 874,-762.5 874,-732.5 523,-732.5"/>
<text text-anchor="start" x="530" y="-743.9" font-family="Arial" font-size="14.00" fill="#000000">deleted_at </text>
<text text-anchor="start" x="599.2566" y="-743.9" font-family="Arial" font-size="14.00" fill="#666666">[timestamp without time zone]</text>
<polygon fill="none" stroke="#000000" points="523,-702.5 523,-732.5 874,-732.5 874,-702.5 523,-702.5"/>
<text text-anchor="start" x="530" y="-713.9" font-family="Arial" font-size="14.00" fill="#000000">type </text>
<text text-anchor="start" x="560.3464" y="-713.9" font-family="Arial" font-size="14.00" fill="#666666">[varchar(20)]</text>
<polygon fill="none" stroke="#000000" points="523,-672.5 523,-702.5 874,-702.5 874,-672.5 523,-672.5"/>
<text text-anchor="start" x="530" y="-683.9" font-family="Arial" font-size="14.00" fill="#000000">timezone </text>
<text text-anchor="start" x="590.6788" y="-683.9" font-family="Arial" font-size="14.00" fill="#666666">[varchar(50)]</text>
<polygon fill="none" stroke="#000000" points="523,-642.5 523,-672.5 874,-672.5 874,-642.5 523,-642.5"/>
<text text-anchor="start" x="530" y="-653.9" font-family="Arial" font-size="14.00" fill="#000000">login </text>
<text text-anchor="start" x="563.4516" y="-653.9" font-family="Arial" font-size="14.00" fill="#666666">[varchar(255)]</text>
<polygon fill="none" stroke="#000000" points="523,-612.5 523,-642.5 874,-642.5 874,-612.5 523,-612.5"/>
<text text-anchor="start" x="530" y="-623.9" font-family="Arial" font-size="14.00" fill="#000000">email </text>
<text text-anchor="start" x="567.3296" y="-623.9" font-family="Arial" font-size="14.00" fill="#666666">[varchar(255)]</text>
<polygon fill="none" stroke="#000000" points="523,-582.5 523,-612.5 874,-612.5 874,-582.5 523,-582.5"/>
<text text-anchor="start" x="530" y="-593.9" font-family="Arial" font-size="14.00" fill="#000000">bio </text>
<text text-anchor="start" x="552.5624" y="-593.9" font-family="Arial" font-size="14.00" fill="#666666">[varchar(255)]</text>
<polygon fill="none" stroke="#000000" points="523,-552.5 523,-582.5 874,-582.5 874,-552.5 523,-552.5"/>
<text text-anchor="start" x="530" y="-563.9" font-family="Arial" font-size="14.00" fill="#000000">name </text>
<text text-anchor="start" x="568.899" y="-563.9" font-family="Arial" font-size="14.00" fill="#666666">[varchar(255)]</text>
<polygon fill="none" stroke="#000000" points="523,-522.5 523,-552.5 874,-552.5 874,-522.5 523,-522.5"/>
<text text-anchor="start" x="530" y="-533.9" font-family="Arial" font-size="14.00" fill="#000000">twitter_username </text>
<text text-anchor="start" x="641.2356" y="-533.9" font-family="Arial" font-size="14.00" fill="#666666">[varchar(15)]</text>
<polygon fill="none" stroke="#000000" points="523,-492.5 523,-522.5 874,-522.5 874,-492.5 523,-492.5"/>
<text text-anchor="start" x="530" y="-503.9" font-family="Arial" font-size="14.00" fill="#000000">company </text>
<text text-anchor="start" x="590.6816" y="-503.9" font-family="Arial" font-size="14.00" fill="#666666">[varchar(255)]</text>
<polygon fill="none" stroke="#000000" points="523,-462.5 523,-492.5 874,-492.5 874,-462.5 523,-462.5"/>
<text text-anchor="start" x="530" y="-473.9" font-family="Arial" font-size="14.00" fill="#000000">location </text>
<text text-anchor="start" x="582.1248" y="-473.9" font-family="Arial" font-size="14.00" fill="#666666">[varchar(255)]</text>
<polygon fill="none" stroke="#000000" points="523,-432.5 523,-462.5 874,-462.5 874,-432.5 523,-432.5"/>
<text text-anchor="start" x="530" y="-443.9" font-family="Arial" font-size="14.00" fill="#000000">node_id </text>
<text text-anchor="start" x="583.6928" y="-443.9" font-family="Arial" font-size="14.00" fill="#666666">[varchar(50)]</text>
<polygon fill="none" stroke="#000000" points="523,-402.5 523,-432.5 874,-432.5 874,-402.5 523,-402.5"/>
<text text-anchor="start" x="530" y="-413.9" font-family="Arial" font-size="14.00" fill="#000000">avatar_url </text>
<text text-anchor="start" x="596.122" y="-413.9" font-family="Arial" font-size="14.00" fill="#666666">[varchar(255)]</text>
<polygon fill="none" stroke="#000000" points="523,-372.5 523,-402.5 874,-402.5 874,-372.5 523,-372.5"/>
<text text-anchor="start" x="530" y="-383.9" font-family="Arial" font-size="14.00" fill="#000000">gravatar_id </text>
<text text-anchor="start" x="603.9046" y="-383.9" font-family="Arial" font-size="14.00" fill="#666666">[varchar(255)]</text>
<polygon fill="none" stroke="#000000" points="523,-342.5 523,-372.5 874,-372.5 874,-342.5 523,-342.5"/>
<text text-anchor="start" x="530" y="-353.9" font-family="Arial" font-size="14.00" fill="#000000">url </text>
<text text-anchor="start" x="549.4404" y="-353.9" font-family="Arial" font-size="14.00" fill="#666666">[varchar(255)]</text>
<polygon fill="none" stroke="#000000" points="523,-312.5 523,-342.5 874,-342.5 874,-312.5 523,-312.5"/>
<text text-anchor="start" x="530" y="-323.9" font-family="Arial" font-size="14.00" fill="#000000">blog </text>
<text text-anchor="start" x="560.345" y="-323.9" font-family="Arial" font-size="14.00" fill="#666666">[varchar(255)]</text>
<polygon fill="none" stroke="#000000" points="523,-282.5 523,-312.5 874,-312.5 874,-282.5 523,-282.5"/>
<text text-anchor="start" x="530" y="-293.9" font-family="Arial" font-size="14.00" fill="#000000">interests </text>
<text text-anchor="start" x="586.7868" y="-293.9" font-family="Arial" font-size="14.00" fill="#666666">[varchar(200)]</text>
<polygon fill="none" stroke="#000000" points="523,-252.5 523,-282.5 874,-282.5 874,-252.5 523,-252.5"/>
<text text-anchor="start" x="530" y="-263.9" font-family="Arial" font-size="14.00" fill="#000000">linkedin_url </text>
<text text-anchor="start" x="604.6732" y="-263.9" font-family="Arial" font-size="14.00" fill="#666666">[varchar(255)]</text>
<polygon fill="none" stroke="#000000" points="523,-222.5 523,-252.5 874,-252.5 874,-222.5 523,-222.5"/>
<text text-anchor="start" x="530" y="-233.9" font-family="Arial" font-size="14.00" fill="#000000">github_sponsors_url </text>
<text text-anchor="start" x="659.9242" y="-233.9" font-family="Arial" font-size="14.00" fill="#666666">[varchar(255)]</text>
<polygon fill="none" stroke="#000000" points="523,-192.5 523,-222.5 874,-222.5 874,-192.5 523,-192.5"/>
<text text-anchor="start" x="530" y="-203.9" font-family="Arial" font-size="14.00" fill="#000000">last_fetched_users_at </text>
<text text-anchor="start" x="670.8288" y="-203.9" font-family="Arial" font-size="14.00" fill="#666666">[timestamp without time zone]</text>
<polygon fill="none" stroke="#000000" points="523,-162.5 523,-192.5 874,-192.5 874,-162.5 523,-162.5"/>
<text text-anchor="start" x="530" y="-173.9" font-family="Arial" font-size="14.00" fill="#000000">languages </text>
<text text-anchor="start" x="598.4754" y="-173.9" font-family="Arial" font-size="14.00" fill="#666666">[jsonb]</text>
<polygon fill="none" stroke="#000000" points="523,-132.5 523,-162.5 874,-162.5 874,-132.5 523,-132.5"/>
<text text-anchor="start" x="530" y="-143.9" font-family="Arial" font-size="14.00" fill="#000000">first_opened_pr_at </text>
<text text-anchor="start" x="650.5988" y="-143.9" font-family="Arial" font-size="14.00" fill="#666666">[timestamp without time zone]</text>
<polygon fill="none" stroke="#000000" points="523,-102.5 523,-132.5 874,-132.5 874,-102.5 523,-102.5"/>
<text text-anchor="start" x="529.6929" y="-113.9" font-family="Arial" font-size="14.00" fill="#000000">first_pushed_commit_at </text>
<text text-anchor="start" x="682.1669" y="-113.9" font-family="Arial" font-size="14.00" fill="#666666">[timestamp without time zone]</text>
<polygon fill="none" stroke="#000000" points="523,-72.5 523,-102.5 874,-102.5 874,-72.5 523,-72.5"/>
<text text-anchor="start" x="530" y="-83.9" font-family="Arial" font-size="14.00" fill="#000000">connected_at </text>
<text text-anchor="start" x="617.9326" y="-83.9" font-family="Arial" font-size="14.00" fill="#666666">[timestamp without time zone]</text>
<polygon fill="none" stroke="#000000" points="523,-42.5 523,-72.5 874,-72.5 874,-42.5 523,-42.5"/>
<text text-anchor="start" x="530" y="-53.9" font-family="Arial" font-size="14.00" fill="#000000">discord_url </text>
<text text-anchor="start" x="602.338" y="-53.9" font-family="Arial" font-size="14.00" fill="#666666">[varchar(255)]</text>
</g>
<!-- public.user_highlight_reactions&#45;&gt;public.users -->
<g id="edge2" class="edge">
<title>public.user_highlight_reactions:user_id&#45;&gt;public.users:id</title>
<path fill="none" stroke="#000000" d="M509.7486,-1623.8759C430.2006,-1613.743 460.5908,-1482.7572 520,-1417 573.0088,-1358.3271 820.9912,-1439.6729 874,-1381 901.8581,-1350.1651 915.5556,-1287.5 874,-1287.5"/>
<polygon fill="#000000" stroke="#000000" points="510.0185,-1623.8922 519.7265,-1628.9917 515.0092,-1624.1961 520,-1624.5 520,-1624.5 520,-1624.5 515.0092,-1624.1961 520.2735,-1620.0083 510.0185,-1623.8922 510.0185,-1623.8922"/>
<text text-anchor="start" x="66.9425" y="-1634.5" font-family="Arial" font-size="10.00" fill="#000000">FOREIGN KEY (user_id) REFERENCES users(id) ON UPDATE CASCADE ON DELETE CASCADE</text>
</g>
<!-- public.emojis -->
<g id="node4" class="node">
<title>public.emojis</title>
<polygon fill="#efefef" stroke="transparent" points="978,-777.5 978,-812.5 1251,-812.5 1251,-777.5 978,-777.5"/>
<polygon fill="none" stroke="#000000" points="978,-777.5 978,-812.5 1251,-812.5 1251,-777.5 978,-777.5"/>
<text text-anchor="start" x="1013.872" y="-790.3" font-family="Arial Bold" font-size="18.00" fill="#000000">public.emojis</text>
<text text-anchor="start" x="1117.8742" y="-790.3" font-family="Arial" font-size="14.00" fill="#000000"> </text>
<text text-anchor="start" x="1121.7648" y="-790.3" font-family="Arial" font-size="14.00" fill="#666666">[BASE TABLE]</text>
<polygon fill="none" stroke="#000000" points="978,-747.5 978,-777.5 1251,-777.5 1251,-747.5 978,-747.5"/>
<text text-anchor="start" x="985" y="-758.9" font-family="Arial" font-size="14.00" fill="#000000">id </text>
<text text-anchor="start" x="999.7798" y="-758.9" font-family="Arial" font-size="14.00" fill="#666666">[uuid]</text>
<polygon fill="none" stroke="#000000" points="978,-717.5 978,-747.5 1251,-747.5 1251,-717.5 978,-717.5"/>
<text text-anchor="start" x="985" y="-728.9" font-family="Arial" font-size="14.00" fill="#000000">name </text>
<text text-anchor="start" x="1023.899" y="-728.9" font-family="Arial" font-size="14.00" fill="#666666">[varchar(255)]</text>
<polygon fill="none" stroke="#000000" points="978,-687.5 978,-717.5 1251,-717.5 1251,-687.5 978,-687.5"/>
<text text-anchor="start" x="985" y="-698.9" font-family="Arial" font-size="14.00" fill="#000000">url </text>
<text text-anchor="start" x="1004.4404" y="-698.9" font-family="Arial" font-size="14.00" fill="#666666">[varchar(255)]</text>
<polygon fill="none" stroke="#000000" points="978,-657.5 978,-687.5 1251,-687.5 1251,-657.5 978,-657.5"/>
<text text-anchor="start" x="985" y="-668.9" font-family="Arial" font-size="14.00" fill="#000000">created_at </text>
<text text-anchor="start" x="1055.028" y="-668.9" font-family="Arial" font-size="14.00" fill="#666666">[timestamp without time zone]</text>
<polygon fill="none" stroke="#000000" points="978,-627.5 978,-657.5 1251,-657.5 1251,-627.5 978,-627.5"/>
<text text-anchor="start" x="984.9636" y="-638.9" font-family="Arial" font-size="14.00" fill="#000000">updated_at </text>
<text text-anchor="start" x="1058.8962" y="-638.9" font-family="Arial" font-size="14.00" fill="#666666">[timestamp without time zone]</text>
<polygon fill="none" stroke="#000000" points="978,-597.5 978,-627.5 1251,-627.5 1251,-597.5 978,-597.5"/>
<text text-anchor="start" x="985" y="-608.9" font-family="Arial" font-size="14.00" fill="#000000">deleted_at </text>
<text text-anchor="start" x="1054.2566" y="-608.9" font-family="Arial" font-size="14.00" fill="#666666">[timestamp without time zone]</text>
<polygon fill="none" stroke="#000000" points="978,-567.5 978,-597.5 1251,-597.5 1251,-567.5 978,-567.5"/>
<text text-anchor="start" x="985" y="-578.9" font-family="Arial" font-size="14.00" fill="#000000">display_order </text>
<text text-anchor="start" x="1072.9032" y="-578.9" font-family="Arial" font-size="14.00" fill="#666666">[integer]</text>
</g>
<!-- public.user_highlight_reactions&#45;&gt;public.emojis -->
<g id="edge3" class="edge">
<title>public.user_highlight_reactions:emoji_id&#45;&gt;public.emojis:id</title>
<path fill="none" stroke="#000000" d="M888.1357,-1563.9532C958.0751,-1555.9027 912.3618,-1460.5162 926,-1381 937.6583,-1313.0279 909.0353,-762.5 978,-762.5"/>
<polygon fill="#000000" stroke="#000000" points="887.9855,-1563.9612 877.7575,-1560.0065 882.9927,-1564.2306 878,-1564.5 878,-1564.5 878,-1564.5 882.9927,-1564.2306 878.2425,-1568.9935 887.9855,-1563.9612 887.9855,-1563.9612"/>
<text text-anchor="start" x="884.5045" y="-1574.5" font-family="Arial" font-size="10.00" fill="#000000">FOREIGN KEY (emoji_id) REFERENCES emojis(id) ON UPDATE CASCADE ON DELETE CASCADE</text>
</g>
</g>
</svg>
