<?xml version="1.0" encoding="UTF-8" standalone="no"?>
<!DOCTYPE svg PUBLIC "-//W3C//DTD SVG 1.1//EN"
 "http://www.w3.org/Graphics/SVG/1.1/DTD/svg11.dtd">
<!-- Generated by graphviz version 2.40.1 (20161225.0304)
 -->
<!-- Title: public.workspace_insights Pages: 1 -->
<svg width="2373pt" height="826pt"
 viewBox="0.00 0.00 2373.00 826.00" xmlns="http://www.w3.org/2000/svg" xmlns:xlink="http://www.w3.org/1999/xlink">
<g id="graph0" class="graph" transform="scale(1 1) rotate(0) translate(4 822)">
<title>public.workspace_insights</title>
<polygon fill="#ffffff" stroke="transparent" points="-4,4 -4,-822 2369,-822 2369,4 -4,4"/>
<!-- public.workspace_insights -->
<g id="node1" class="node">
<title>public.workspace_insights</title>
<polygon fill="#efefef" stroke="transparent" points="586,-694.5 586,-729.5 906,-729.5 906,-694.5 586,-694.5"/>
<polygon fill="none" stroke="#000000" points="586,-694.5 586,-729.5 906,-729.5 906,-694.5 586,-694.5"/>
<text text-anchor="start" x="592.8552" y="-707.3" font-family="Arial Bold" font-size="18.00" fill="#000000">public.workspace_insights</text>
<text text-anchor="start" x="801.891" y="-707.3" font-family="Arial" font-size="14.00" fill="#000000"> </text>
<text text-anchor="start" x="805.7816" y="-707.3" font-family="Arial" font-size="14.00" fill="#666666">[BASE TABLE]</text>
<polygon fill="none" stroke="#000000" points="586,-664.5 586,-694.5 906,-694.5 906,-664.5 586,-664.5"/>
<text text-anchor="start" x="593" y="-675.9" font-family="Arial" font-size="14.00" fill="#000000">id </text>
<text text-anchor="start" x="607.7798" y="-675.9" font-family="Arial" font-size="14.00" fill="#666666">[uuid]</text>
<polygon fill="none" stroke="#000000" points="586,-634.5 586,-664.5 906,-664.5 906,-634.5 586,-634.5"/>
<text text-anchor="start" x="593" y="-645.9" font-family="Arial" font-size="14.00" fill="#000000">insight_id </text>
<text text-anchor="start" x="656.014" y="-645.9" font-family="Arial" font-size="14.00" fill="#666666">[integer]</text>
<polygon fill="none" stroke="#000000" points="586,-604.5 586,-634.5 906,-634.5 906,-604.5 586,-604.5"/>
<text text-anchor="start" x="593" y="-615.9" font-family="Arial" font-size="14.00" fill="#000000">workspace_id </text>
<text text-anchor="start" x="682.46" y="-615.9" font-family="Arial" font-size="14.00" fill="#666666">[uuid]</text>
<polygon fill="none" stroke="#000000" points="586,-574.5 586,-604.5 906,-604.5 906,-574.5 586,-574.5"/>
<text text-anchor="start" x="593" y="-585.9" font-family="Arial" font-size="14.00" fill="#000000">created_at </text>
<text text-anchor="start" x="663.028" y="-585.9" font-family="Arial" font-size="14.00" fill="#666666">[timestamp without time zone]</text>
<polygon fill="none" stroke="#000000" points="586,-544.5 586,-574.5 906,-574.5 906,-544.5 586,-544.5"/>
<text text-anchor="start" x="593" y="-555.9" font-family="Arial" font-size="14.00" fill="#000000">updated_at </text>
<text text-anchor="start" x="666.9326" y="-555.9" font-family="Arial" font-size="14.00" fill="#666666">[timestamp without time zone]</text>
<polygon fill="none" stroke="#000000" points="586,-514.5 586,-544.5 906,-544.5 906,-514.5 586,-514.5"/>
<text text-anchor="start" x="593" y="-525.9" font-family="Arial" font-size="14.00" fill="#000000">deleted_at </text>
<text text-anchor="start" x="662.2566" y="-525.9" font-family="Arial" font-size="14.00" fill="#666666">[timestamp without time zone]</text>
<polygon fill="none" stroke="#000000" stroke-width="3" points="584.5,-513.5 584.5,-731.5 907.5,-731.5 907.5,-513.5 584.5,-513.5"/>
</g>
<!-- public.insights -->
<g id="node2" class="node">
<title>public.insights</title>
<polygon fill="#efefef" stroke="transparent" points="395,-312.5 395,-347.5 663,-347.5 663,-312.5 395,-312.5"/>
<polygon fill="none" stroke="#000000" points="395,-312.5 395,-347.5 663,-347.5 663,-312.5 395,-312.5"/>
<text text-anchor="start" x="423.8639" y="-325.3" font-family="Arial Bold" font-size="18.00" fill="#000000">public.insights</text>
<text text-anchor="start" x="536.8823" y="-325.3" font-family="Arial" font-size="14.00" fill="#000000"> </text>
<text text-anchor="start" x="540.7729" y="-325.3" font-family="Arial" font-size="14.00" fill="#666666">[BASE TABLE]</text>
<polygon fill="none" stroke="#000000" points="395,-282.5 395,-312.5 663,-312.5 663,-282.5 395,-282.5"/>
<text text-anchor="start" x="402" y="-293.9" font-family="Arial" font-size="14.00" fill="#000000">id </text>
<text text-anchor="start" x="416.7798" y="-293.9" font-family="Arial" font-size="14.00" fill="#666666">[bigint]</text>
<polygon fill="none" stroke="#000000" points="395,-252.5 395,-282.5 663,-282.5 663,-252.5 395,-252.5"/>
<text text-anchor="start" x="402" y="-263.9" font-family="Arial" font-size="14.00" fill="#000000">name </text>
<text text-anchor="start" x="440.899" y="-263.9" font-family="Arial" font-size="14.00" fill="#666666">[varchar]</text>
<polygon fill="none" stroke="#000000" points="395,-222.5 395,-252.5 663,-252.5 663,-222.5 395,-222.5"/>
<text text-anchor="start" x="402" y="-233.9" font-family="Arial" font-size="14.00" fill="#000000">is_public </text>
<text text-anchor="start" x="460.3408" y="-233.9" font-family="Arial" font-size="14.00" fill="#666666">[boolean]</text>
<polygon fill="none" stroke="#000000" points="395,-192.5 395,-222.5 663,-222.5 663,-192.5 395,-192.5"/>
<text text-anchor="start" x="402" y="-203.9" font-family="Arial" font-size="14.00" fill="#000000">is_favorite </text>
<text text-anchor="start" x="469.676" y="-203.9" font-family="Arial" font-size="14.00" fill="#666666">[boolean]</text>
<polygon fill="none" stroke="#000000" points="395,-162.5 395,-192.5 663,-192.5 663,-162.5 395,-162.5"/>
<text text-anchor="start" x="402" y="-173.9" font-family="Arial" font-size="14.00" fill="#000000">short_code </text>
<text text-anchor="start" x="475.1374" y="-173.9" font-family="Arial" font-size="14.00" fill="#666666">[varchar]</text>
<polygon fill="none" stroke="#000000" points="395,-132.5 395,-162.5 663,-162.5 663,-132.5 395,-132.5"/>
<text text-anchor="start" x="402" y="-143.9" font-family="Arial" font-size="14.00" fill="#000000">created_at </text>
<text text-anchor="start" x="472.028" y="-143.9" font-family="Arial" font-size="14.00" fill="#666666">[timestamp with time zone]</text>
<polygon fill="none" stroke="#000000" points="395,-102.5 395,-132.5 663,-132.5 663,-102.5 395,-102.5"/>
<text text-anchor="start" x="402" y="-113.9" font-family="Arial" font-size="14.00" fill="#000000">updated_at </text>
<text text-anchor="start" x="475.9326" y="-113.9" font-family="Arial" font-size="14.00" fill="#666666">[timestamp with time zone]</text>
<polygon fill="none" stroke="#000000" points="395,-72.5 395,-102.5 663,-102.5 663,-72.5 395,-72.5"/>
<text text-anchor="start" x="401.8016" y="-83.9" font-family="Arial" font-size="14.00" fill="#000000">deleted_at </text>
<text text-anchor="start" x="471.0582" y="-83.9" font-family="Arial" font-size="14.00" fill="#666666">[timestamp without time zone]</text>
<polygon fill="none" stroke="#000000" points="395,-42.5 395,-72.5 663,-72.5 663,-42.5 395,-42.5"/>
<text text-anchor="start" x="402" y="-53.9" font-family="Arial" font-size="14.00" fill="#000000">is_featured </text>
<text text-anchor="start" x="475.1346" y="-53.9" font-family="Arial" font-size="14.00" fill="#666666">[boolean]</text>
</g>
<!-- public.workspace_insights&#45;&gt;public.insights -->
<g id="edge1" class="edge">
<title>public.workspace_insights:insight_id&#45;&gt;public.insights:id</title>
<path fill="none" stroke="#000000" d="M575.9622,-648.8691C510.2096,-640.0156 556.9079,-539.8805 586,-469 604.4963,-423.9353 644.5037,-436.0647 663,-391 678.7787,-352.5566 704.5556,-297.5 663,-297.5"/>
<polygon fill="#000000" stroke="#000000" points="576.0197,-648.8726 585.7177,-653.9911 581.0098,-649.1863 586,-649.5 586,-649.5 586,-649.5 581.0098,-649.1863 586.2823,-645.0089 576.0197,-648.8726 576.0197,-648.8726"/>
<text text-anchor="start" x="593.4955" y="-659.5" font-family="Arial" font-size="10.00" fill="#000000">FOREIGN KEY (insight_id) REFERENCES insights(id) ON UPDATE CASCADE ON DELETE CASCADE</text>
</g>
<!-- public.workspaces -->
<g id="node4" class="node">
<title>public.workspaces</title>
<polygon fill="#efefef" stroke="transparent" points="1252,-267.5 1252,-302.5 1525,-302.5 1525,-267.5 1252,-267.5"/>
<polygon fill="none" stroke="#000000" points="1252,-267.5 1252,-302.5 1525,-302.5 1525,-267.5 1252,-267.5"/>
<text text-anchor="start" x="1266.3629" y="-280.3" font-family="Arial Bold" font-size="18.00" fill="#000000">public.workspaces</text>
<text text-anchor="start" x="1413.3833" y="-280.3" font-family="Arial" font-size="14.00" fill="#000000"> </text>
<text text-anchor="start" x="1417.2739" y="-280.3" font-family="Arial" font-size="14.00" fill="#666666">[BASE TABLE]</text>
<polygon fill="none" stroke="#000000" points="1252,-237.5 1252,-267.5 1525,-267.5 1525,-237.5 1252,-237.5"/>
<text text-anchor="start" x="1259" y="-248.9" font-family="Arial" font-size="14.00" fill="#000000">id </text>
<text text-anchor="start" x="1273.7798" y="-248.9" font-family="Arial" font-size="14.00" fill="#666666">[uuid]</text>
<polygon fill="none" stroke="#000000" points="1252,-207.5 1252,-237.5 1525,-237.5 1525,-207.5 1252,-207.5"/>
<text text-anchor="start" x="1259" y="-218.9" font-family="Arial" font-size="14.00" fill="#000000">created_at </text>
<text text-anchor="start" x="1329.028" y="-218.9" font-family="Arial" font-size="14.00" fill="#666666">[timestamp without time zone]</text>
<polygon fill="none" stroke="#000000" points="1252,-177.5 1252,-207.5 1525,-207.5 1525,-177.5 1252,-177.5"/>
<text text-anchor="start" x="1258.9636" y="-188.9" font-family="Arial" font-size="14.00" fill="#000000">updated_at </text>
<text text-anchor="start" x="1332.8962" y="-188.9" font-family="Arial" font-size="14.00" fill="#666666">[timestamp without time zone]</text>
<polygon fill="none" stroke="#000000" points="1252,-147.5 1252,-177.5 1525,-177.5 1525,-147.5 1252,-147.5"/>
<text text-anchor="start" x="1259" y="-158.9" font-family="Arial" font-size="14.00" fill="#000000">deleted_at </text>
<text text-anchor="start" x="1328.2566" y="-158.9" font-family="Arial" font-size="14.00" fill="#666666">[timestamp without time zone]</text>
<polygon fill="none" stroke="#000000" points="1252,-117.5 1252,-147.5 1525,-147.5 1525,-117.5 1252,-117.5"/>
<text text-anchor="start" x="1259" y="-128.9" font-family="Arial" font-size="14.00" fill="#000000">name </text>
<text text-anchor="start" x="1297.899" y="-128.9" font-family="Arial" font-size="14.00" fill="#666666">[varchar(255)]</text>
<polygon fill="none" stroke="#000000" points="1252,-87.5 1252,-117.5 1525,-117.5 1525,-87.5 1252,-87.5"/>
<text text-anchor="start" x="1259" y="-98.9" font-family="Arial" font-size="14.00" fill="#000000">description </text>
<text text-anchor="start" x="1330.568" y="-98.9" font-family="Arial" font-size="14.00" fill="#666666">[varchar(255)]</text>
</g>
<!-- public.workspace_insights&#45;&gt;public.workspaces -->
<g id="edge3" class="edge">
<title>public.workspace_insights:workspace_id&#45;&gt;public.workspaces:id</title>
<path fill="none" stroke="#000000" d="M916.0767,-618.8967C987.988,-609.5862 909.0569,-494.6983 961,-427 1052.7999,-307.3557 1101.1956,-252.5 1252,-252.5"/>
<polygon fill="#000000" stroke="#000000" points="915.9821,-618.9023 905.731,-615.008 910.9911,-619.2011 906,-619.5 906,-619.5 906,-619.5 910.9911,-619.2011 906.269,-623.992 915.9821,-618.9023 915.9821,-618.9023"/>
<text text-anchor="start" x="396.6055" y="-629.5" font-family="Arial" font-size="10.00" fill="#000000">FOREIGN KEY (workspace_id) REFERENCES workspaces(id) ON UPDATE CASCADE ON DELETE CASCADE</text>
</g>
<!-- public.insight_members -->
<g id="node3" class="node">
<title>public.insight_members</title>
<polygon fill="#efefef" stroke="transparent" points="145,-739.5 145,-774.5 479,-774.5 479,-739.5 145,-739.5"/>
<polygon fill="none" stroke="#000000" points="145,-739.5 145,-774.5 479,-774.5 479,-739.5 145,-739.5"/>
<text text-anchor="start" x="168.8632" y="-752.3" font-family="Arial Bold" font-size="18.00" fill="#000000">public.insight_members</text>
<text text-anchor="start" x="357.883" y="-752.3" font-family="Arial" font-size="14.00" fill="#000000"> </text>
<text text-anchor="start" x="361.7736" y="-752.3" font-family="Arial" font-size="14.00" fill="#666666">[BASE TABLE]</text>
<polygon fill="none" stroke="#000000" points="145,-709.5 145,-739.5 479,-739.5 479,-709.5 145,-709.5"/>
<text text-anchor="start" x="152" y="-720.9" font-family="Arial" font-size="14.00" fill="#000000">id </text>
<text text-anchor="start" x="166.7798" y="-720.9" font-family="Arial" font-size="14.00" fill="#666666">[uuid]</text>
<polygon fill="none" stroke="#000000" points="145,-679.5 145,-709.5 479,-709.5 479,-679.5 145,-679.5"/>
<text text-anchor="start" x="152" y="-690.9" font-family="Arial" font-size="14.00" fill="#000000">user_id </text>
<text text-anchor="start" x="201.7882" y="-690.9" font-family="Arial" font-size="14.00" fill="#666666">[bigint]</text>
<polygon fill="none" stroke="#000000" points="145,-649.5 145,-679.5 479,-679.5 479,-649.5 145,-649.5"/>
<text text-anchor="start" x="152" y="-660.9" font-family="Arial" font-size="14.00" fill="#000000">insight_id </text>
<text text-anchor="start" x="215.014" y="-660.9" font-family="Arial" font-size="14.00" fill="#666666">[bigint]</text>
<polygon fill="none" stroke="#000000" points="145,-619.5 145,-649.5 479,-649.5 479,-619.5 145,-619.5"/>
<text text-anchor="start" x="152" y="-630.9" font-family="Arial" font-size="14.00" fill="#000000">created_at </text>
<text text-anchor="start" x="222.028" y="-630.9" font-family="Arial" font-size="14.00" fill="#666666">[timestamp without time zone]</text>
<polygon fill="none" stroke="#000000" points="145,-589.5 145,-619.5 479,-619.5 479,-589.5 145,-589.5"/>
<text text-anchor="start" x="152" y="-600.9" font-family="Arial" font-size="14.00" fill="#000000">updated_at </text>
<text text-anchor="start" x="225.9326" y="-600.9" font-family="Arial" font-size="14.00" fill="#666666">[timestamp without time zone]</text>
<polygon fill="none" stroke="#000000" points="145,-559.5 145,-589.5 479,-589.5 479,-559.5 145,-559.5"/>
<text text-anchor="start" x="152" y="-570.9" font-family="Arial" font-size="14.00" fill="#000000">deleted_at </text>
<text text-anchor="start" x="221.2566" y="-570.9" font-family="Arial" font-size="14.00" fill="#666666">[timestamp without time zone]</text>
<polygon fill="none" stroke="#000000" points="145,-529.5 145,-559.5 479,-559.5 479,-529.5 145,-529.5"/>
<text text-anchor="start" x="151.7476" y="-540.9" font-family="Arial" font-size="14.00" fill="#000000">invitation_emailed_at </text>
<text text-anchor="start" x="287.1122" y="-540.9" font-family="Arial" font-size="14.00" fill="#666666">[timestamp without time zone]</text>
<polygon fill="none" stroke="#000000" points="145,-499.5 145,-529.5 479,-529.5 479,-499.5 145,-499.5"/>
<text text-anchor="start" x="152" y="-510.9" font-family="Arial" font-size="14.00" fill="#000000">access </text>
<text text-anchor="start" x="199.4558" y="-510.9" font-family="Arial" font-size="14.00" fill="#666666">[varchar(20)]</text>
<polygon fill="none" stroke="#000000" points="145,-469.5 145,-499.5 479,-499.5 479,-469.5 145,-469.5"/>
<text text-anchor="start" x="152" y="-480.9" font-family="Arial" font-size="14.00" fill="#000000">invitation_email </text>
<text text-anchor="start" x="252.3436" y="-480.9" font-family="Arial" font-size="14.00" fill="#666666">[varchar(255)]</text>
</g>
<!-- public.insight_members&#45;&gt;public.insights -->
<g id="edge2" class="edge">
<title>public.insight_members:insight_id&#45;&gt;public.insights:id</title>
<path fill="none" stroke="#000000" d="M489.0229,-661.7502C528.4152,-638.0362 506.0109,-467.963 479,-427 456.6405,-393.0909 417.3595,-424.9091 395,-391 372.124,-356.3077 353.4444,-297.5 395,-297.5"/>
<polygon fill="#000000" stroke="#000000" points="488.6436,-661.8542 477.8094,-660.1604 483.8218,-663.1771 479,-664.5 479,-664.5 479,-664.5 483.8218,-663.1771 480.1906,-668.8396 488.6436,-661.8542 488.6436,-661.8542"/>
<text text-anchor="start" x="7.4955" y="-674.5" font-family="Arial" font-size="10.00" fill="#000000">FOREIGN KEY (insight_id) REFERENCES insights(id) ON UPDATE CASCADE ON DELETE CASCADE</text>
</g>
<!-- public.workspace_members -->
<g id="node5" class="node">
<title>public.workspace_members</title>
<polygon fill="#efefef" stroke="transparent" points="1013,-709.5 1013,-744.5 1347,-744.5 1347,-709.5 1013,-709.5"/>
<polygon fill="none" stroke="#000000" points="1013,-709.5 1013,-744.5 1347,-744.5 1347,-709.5 1013,-709.5"/>
<text text-anchor="start" x="1019.8622" y="-722.3" font-family="Arial Bold" font-size="18.00" fill="#000000">public.workspace_members</text>
<text text-anchor="start" x="1242.884" y="-722.3" font-family="Arial" font-size="14.00" fill="#000000"> </text>
<text text-anchor="start" x="1246.7746" y="-722.3" font-family="Arial" font-size="14.00" fill="#666666">[BASE TABLE]</text>
<polygon fill="none" stroke="#000000" points="1013,-679.5 1013,-709.5 1347,-709.5 1347,-679.5 1013,-679.5"/>
<text text-anchor="start" x="1020" y="-690.9" font-family="Arial" font-size="14.00" fill="#000000">id </text>
<text text-anchor="start" x="1034.7798" y="-690.9" font-family="Arial" font-size="14.00" fill="#666666">[uuid]</text>
<polygon fill="none" stroke="#000000" points="1013,-649.5 1013,-679.5 1347,-679.5 1347,-649.5 1013,-649.5"/>
<text text-anchor="start" x="1020" y="-660.9" font-family="Arial" font-size="14.00" fill="#000000">user_id </text>
<text text-anchor="start" x="1069.7882" y="-660.9" font-family="Arial" font-size="14.00" fill="#666666">[integer]</text>
<polygon fill="none" stroke="#000000" points="1013,-619.5 1013,-649.5 1347,-649.5 1347,-619.5 1013,-619.5"/>
<text text-anchor="start" x="1020" y="-630.9" font-family="Arial" font-size="14.00" fill="#000000">workspace_id </text>
<text text-anchor="start" x="1109.46" y="-630.9" font-family="Arial" font-size="14.00" fill="#666666">[uuid]</text>
<polygon fill="none" stroke="#000000" points="1013,-589.5 1013,-619.5 1347,-619.5 1347,-589.5 1013,-589.5"/>
<text text-anchor="start" x="1020" y="-600.9" font-family="Arial" font-size="14.00" fill="#000000">created_at </text>
<text text-anchor="start" x="1090.028" y="-600.9" font-family="Arial" font-size="14.00" fill="#666666">[timestamp without time zone]</text>
<polygon fill="none" stroke="#000000" points="1013,-559.5 1013,-589.5 1347,-589.5 1347,-559.5 1013,-559.5"/>
<text text-anchor="start" x="1020" y="-570.9" font-family="Arial" font-size="14.00" fill="#000000">updated_at </text>
<text text-anchor="start" x="1093.9326" y="-570.9" font-family="Arial" font-size="14.00" fill="#666666">[timestamp without time zone]</text>
<polygon fill="none" stroke="#000000" points="1013,-529.5 1013,-559.5 1347,-559.5 1347,-529.5 1013,-529.5"/>
<text text-anchor="start" x="1020" y="-540.9" font-family="Arial" font-size="14.00" fill="#000000">deleted_at </text>
<text text-anchor="start" x="1089.2566" y="-540.9" font-family="Arial" font-size="14.00" fill="#666666">[timestamp without time zone]</text>
<polygon fill="none" stroke="#000000" points="1013,-499.5 1013,-529.5 1347,-529.5 1347,-499.5 1013,-499.5"/>
<text text-anchor="start" x="1020" y="-510.9" font-family="Arial" font-size="14.00" fill="#000000">role </text>
<text text-anchor="start" x="1047.223" y="-510.9" font-family="Arial" font-size="14.00" fill="#666666">[workspace_member_role]</text>
</g>
<!-- public.workspace_members&#45;&gt;public.workspaces -->
<g id="edge4" class="edge">
<title>public.workspace_members:workspace_id&#45;&gt;public.workspaces:id</title>
<path fill="none" stroke="#000000" d="M1357.2499,-633.8314C1421.1096,-624.8616 1373.061,-527.5302 1347,-457 1324.4938,-396.0905 1274.5062,-406.9095 1252,-346 1237.5969,-307.0203 1210.4444,-252.5 1252,-252.5"/>
<polygon fill="#000000" stroke="#000000" points="1356.9788,-633.849 1346.7071,-630.0095 1351.9894,-634.1745 1347,-634.5 1347,-634.5 1347,-634.5 1351.9894,-634.1745 1347.2929,-638.9905 1356.9788,-633.849 1356.9788,-633.849"/>
<text text-anchor="start" x="1353.6055" y="-644.5" font-family="Arial" font-size="10.00" fill="#000000">FOREIGN KEY (workspace_id) REFERENCES workspaces(id) ON UPDATE CASCADE ON DELETE CASCADE</text>
</g>
<!-- public.workspace_orgs -->
<g id="node6" class="node">
<title>public.workspace_orgs</title>
<polygon fill="#efefef" stroke="transparent" points="1451,-694.5 1451,-729.5 1745,-729.5 1745,-694.5 1451,-694.5"/>
<polygon fill="none" stroke="#000000" points="1451,-694.5 1451,-729.5 1745,-729.5 1745,-694.5 1451,-694.5"/>
<text text-anchor="start" x="1457.8575" y="-707.3" font-family="Arial Bold" font-size="18.00" fill="#000000">public.workspace_orgs</text>
<text text-anchor="start" x="1640.8887" y="-707.3" font-family="Arial" font-size="14.00" fill="#000000"> </text>
<text text-anchor="start" x="1644.7793" y="-707.3" font-family="Arial" font-size="14.00" fill="#666666">[BASE TABLE]</text>
<polygon fill="none" stroke="#000000" points="1451,-664.5 1451,-694.5 1745,-694.5 1745,-664.5 1451,-664.5"/>
<text text-anchor="start" x="1458" y="-675.9" font-family="Arial" font-size="14.00" fill="#000000">id </text>
<text text-anchor="start" x="1472.7798" y="-675.9" font-family="Arial" font-size="14.00" fill="#666666">[uuid]</text>
<polygon fill="none" stroke="#000000" points="1451,-634.5 1451,-664.5 1745,-664.5 1745,-634.5 1451,-634.5"/>
<text text-anchor="start" x="1458" y="-645.9" font-family="Arial" font-size="14.00" fill="#000000">org_id </text>
<text text-anchor="start" x="1500.7882" y="-645.9" font-family="Arial" font-size="14.00" fill="#666666">[integer]</text>
<polygon fill="none" stroke="#000000" points="1451,-604.5 1451,-634.5 1745,-634.5 1745,-604.5 1451,-604.5"/>
<text text-anchor="start" x="1458" y="-615.9" font-family="Arial" font-size="14.00" fill="#000000">workspace_id </text>
<text text-anchor="start" x="1547.46" y="-615.9" font-family="Arial" font-size="14.00" fill="#666666">[uuid]</text>
<polygon fill="none" stroke="#000000" points="1451,-574.5 1451,-604.5 1745,-604.5 1745,-574.5 1451,-574.5"/>
<text text-anchor="start" x="1458" y="-585.9" font-family="Arial" font-size="14.00" fill="#000000">created_at </text>
<text text-anchor="start" x="1528.028" y="-585.9" font-family="Arial" font-size="14.00" fill="#666666">[timestamp without time zone]</text>
<polygon fill="none" stroke="#000000" points="1451,-544.5 1451,-574.5 1745,-574.5 1745,-544.5 1451,-544.5"/>
<text text-anchor="start" x="1458" y="-555.9" font-family="Arial" font-size="14.00" fill="#000000">updated_at </text>
<text text-anchor="start" x="1531.9326" y="-555.9" font-family="Arial" font-size="14.00" fill="#666666">[timestamp without time zone]</text>
<polygon fill="none" stroke="#000000" points="1451,-514.5 1451,-544.5 1745,-544.5 1745,-514.5 1451,-514.5"/>
<text text-anchor="start" x="1458" y="-525.9" font-family="Arial" font-size="14.00" fill="#000000">deleted_at </text>
<text text-anchor="start" x="1527.2566" y="-525.9" font-family="Arial" font-size="14.00" fill="#666666">[timestamp without time zone]</text>
</g>
<!-- public.workspace_orgs&#45;&gt;public.workspaces -->
<g id="edge5" class="edge">
<title>public.workspace_orgs:workspace_id&#45;&gt;public.workspaces:id</title>
<path fill="none" stroke="#000000" d="M1440.8042,-619.0453C1318.7775,-607.5021 1515.8191,-379.7613 1525,-346 1535.9044,-305.9007 1566.5556,-252.5 1525,-252.5"/>
<polygon fill="#000000" stroke="#000000" points="1441.0099,-619.0544 1450.7995,-623.9955 1446.005,-619.2772 1451,-619.5 1451,-619.5 1451,-619.5 1446.005,-619.2772 1451.2005,-615.0045 1441.0099,-619.0544 1441.0099,-619.0544"/>
<text text-anchor="start" x="1199.6055" y="-603.5" font-family="Arial" font-size="10.00" fill="#000000">FOREIGN KEY (workspace_id) REFERENCES workspaces(id) ON UPDATE CASCADE ON DELETE CASCADE</text>
</g>
<!-- public.workspace_repos -->
<g id="node7" class="node">
<title>public.workspace_repos</title>
<polygon fill="#efefef" stroke="transparent" points="1849,-694.5 1849,-729.5 2153,-729.5 2153,-694.5 1849,-694.5"/>
<polygon fill="none" stroke="#000000" points="1849,-694.5 1849,-729.5 2153,-729.5 2153,-694.5 1849,-694.5"/>
<text text-anchor="start" x="1855.8544" y="-707.3" font-family="Arial Bold" font-size="18.00" fill="#000000">public.workspace_repos</text>
<text text-anchor="start" x="2048.8918" y="-707.3" font-family="Arial" font-size="14.00" fill="#000000"> </text>
<text text-anchor="start" x="2052.7824" y="-707.3" font-family="Arial" font-size="14.00" fill="#666666">[BASE TABLE]</text>
<polygon fill="none" stroke="#000000" points="1849,-664.5 1849,-694.5 2153,-694.5 2153,-664.5 1849,-664.5"/>
<text text-anchor="start" x="1856" y="-675.9" font-family="Arial" font-size="14.00" fill="#000000">id </text>
<text text-anchor="start" x="1870.7798" y="-675.9" font-family="Arial" font-size="14.00" fill="#666666">[uuid]</text>
<polygon fill="none" stroke="#000000" points="1849,-634.5 1849,-664.5 2153,-664.5 2153,-634.5 1849,-634.5"/>
<text text-anchor="start" x="1856" y="-645.9" font-family="Arial" font-size="14.00" fill="#000000">repo_id </text>
<text text-anchor="start" x="1906.5708" y="-645.9" font-family="Arial" font-size="14.00" fill="#666666">[integer]</text>
<polygon fill="none" stroke="#000000" points="1849,-604.5 1849,-634.5 2153,-634.5 2153,-604.5 1849,-604.5"/>
<text text-anchor="start" x="1856" y="-615.9" font-family="Arial" font-size="14.00" fill="#000000">workspace_id </text>
<text text-anchor="start" x="1945.46" y="-615.9" font-family="Arial" font-size="14.00" fill="#666666">[uuid]</text>
<polygon fill="none" stroke="#000000" points="1849,-574.5 1849,-604.5 2153,-604.5 2153,-574.5 1849,-574.5"/>
<text text-anchor="start" x="1856" y="-585.9" font-family="Arial" font-size="14.00" fill="#000000">created_at </text>
<text text-anchor="start" x="1926.028" y="-585.9" font-family="Arial" font-size="14.00" fill="#666666">[timestamp without time zone]</text>
<polygon fill="none" stroke="#000000" points="1849,-544.5 1849,-574.5 2153,-574.5 2153,-544.5 1849,-544.5"/>
<text text-anchor="start" x="1856" y="-555.9" font-family="Arial" font-size="14.00" fill="#000000">updated_at </text>
<text text-anchor="start" x="1929.9326" y="-555.9" font-family="Arial" font-size="14.00" fill="#666666">[timestamp without time zone]</text>
<polygon fill="none" stroke="#000000" points="1849,-514.5 1849,-544.5 2153,-544.5 2153,-514.5 1849,-514.5"/>
<text text-anchor="start" x="1856" y="-525.9" font-family="Arial" font-size="14.00" fill="#000000">deleted_at </text>
<text text-anchor="start" x="1925.2566" y="-525.9" font-family="Arial" font-size="14.00" fill="#666666">[timestamp without time zone]</text>
</g>
<!-- public.workspace_repos&#45;&gt;public.workspaces -->
<g id="edge6" class="edge">
<title>public.workspace_repos:workspace_id&#45;&gt;public.workspaces:id</title>
<path fill="none" stroke="#000000" d="M1838.9697,-618.9011C1767.4396,-609.6574 1847.2146,-495.5662 1797,-427 1712.1376,-311.1235 1668.6279,-252.5 1525,-252.5"/>
<polygon fill="#000000" stroke="#000000" points="1839.0178,-618.9039 1848.7317,-623.992 1844.0089,-619.2019 1849,-619.5 1849,-619.5 1849,-619.5 1844.0089,-619.2019 1849.2683,-615.008 1839.0178,-618.9039 1839.0178,-618.9039"/>
<text text-anchor="start" x="1855.6055" y="-603.5" font-family="Arial" font-size="10.00" fill="#000000">FOREIGN KEY (workspace_id) REFERENCES workspaces(id) ON UPDATE CASCADE ON DELETE CASCADE</text>
</g>
</g>
</svg>
