<?xml version="1.0" encoding="UTF-8" standalone="no"?>
<!DOCTYPE svg PUBLIC "-//W3C//DTD SVG 1.1//EN"
 "http://www.w3.org/Graphics/SVG/1.1/DTD/svg11.dtd">
<!-- Generated by graphviz version 2.40.1 (20161225.0304)
 -->
<!-- Title: public.workspace_insights Pages: 1 -->
<svg width="2782pt" height="826pt"
 viewBox="0.00 0.00 2782.00 826.00" xmlns="http://www.w3.org/2000/svg" xmlns:xlink="http://www.w3.org/1999/xlink">
<g id="graph0" class="graph" transform="scale(1 1) rotate(0) translate(4 822)">
<title>public.workspace_insights</title>
<polygon fill="#ffffff" stroke="transparent" points="-4,4 -4,-822 2778,-822 2778,4 -4,4"/>
<!-- public.workspace_insights -->
<g id="node1" class="node">
<title>public.workspace_insights</title>
<polygon fill="#efefef" stroke="transparent" points="586,-694.5 586,-729.5 906,-729.5 906,-694.5 586,-694.5"/>
<polygon fill="none" stroke="#000000" points="586,-694.5 586,-729.5 906,-729.5 906,-694.5 586,-694.5"/>
<text text-anchor="start" x="592.8552" y="-707.3" font-family="Arial Bold" font-size="18.00" fill="#000000">public.workspace_insights</text>
<text text-anchor="start" x="801.891" y="-707.3" font-family="Arial" font-size="14.00" fill="#000000"> </text>
<text text-anchor="start" x="805.7816" y="-707.3" font-family="Arial" font-size="14.00" fill="#666666">[BASE TABLE]</text>
<polygon fill="none" stroke="#000000" points="586,-664.5 586,-694.5 906,-694.5 906,-664.5 586,-664.5"/>
<text text-anchor="start" x="593" y="-675.9" font-family="Arial" font-size="14.00" fill="#000000">id </text>
<text text-anchor="start" x="607.7798" y="-675.9" font-family="Arial" font-size="14.00" fill="#666666">[uuid]</text>
<polygon fill="none" stroke="#000000" points="586,-634.5 586,-664.5 906,-664.5 906,-634.5 586,-634.5"/>
<text text-anchor="start" x="593" y="-645.9" font-family="Arial" font-size="14.00" fill="#000000">insight_id </text>
<text text-anchor="start" x="656.014" y="-645.9" font-family="Arial" font-size="14.00" fill="#666666">[integer]</text>
<polygon fill="none" stroke="#000000" points="586,-604.5 586,-634.5 906,-634.5 906,-604.5 586,-604.5"/>
<text text-anchor="start" x="593" y="-615.9" font-family="Arial" font-size="14.00" fill="#000000">workspace_id </text>
<text text-anchor="start" x="682.46" y="-615.9" font-family="Arial" font-size="14.00" fill="#666666">[uuid]</text>
<polygon fill="none" stroke="#000000" points="586,-574.5 586,-604.5 906,-604.5 906,-574.5 586,-574.5"/>
<text text-anchor="start" x="593" y="-585.9" font-family="Arial" font-size="14.00" fill="#000000">created_at </text>
<text text-anchor="start" x="663.028" y="-585.9" font-family="Arial" font-size="14.00" fill="#666666">[timestamp without time zone]</text>
<polygon fill="none" stroke="#000000" points="586,-544.5 586,-574.5 906,-574.5 906,-544.5 586,-544.5"/>
<text text-anchor="start" x="593" y="-555.9" font-family="Arial" font-size="14.00" fill="#000000">updated_at </text>
<text text-anchor="start" x="666.9326" y="-555.9" font-family="Arial" font-size="14.00" fill="#666666">[timestamp without time zone]</text>
<polygon fill="none" stroke="#000000" points="586,-514.5 586,-544.5 906,-544.5 906,-514.5 586,-514.5"/>
<text text-anchor="start" x="593" y="-525.9" font-family="Arial" font-size="14.00" fill="#000000">deleted_at </text>
<text text-anchor="start" x="662.2566" y="-525.9" font-family="Arial" font-size="14.00" fill="#666666">[timestamp without time zone]</text>
<polygon fill="none" stroke="#000000" stroke-width="3" points="584.5,-513.5 584.5,-731.5 907.5,-731.5 907.5,-513.5 584.5,-513.5"/>
</g>
<!-- public.insights -->
<g id="node2" class="node">
<title>public.insights</title>
<polygon fill="#efefef" stroke="transparent" points="395,-312.5 395,-347.5 663,-347.5 663,-312.5 395,-312.5"/>
<polygon fill="none" stroke="#000000" points="395,-312.5 395,-347.5 663,-347.5 663,-312.5 395,-312.5"/>
<text text-anchor="start" x="423.8639" y="-325.3" font-family="Arial Bold" font-size="18.00" fill="#000000">public.insights</text>
<text text-anchor="start" x="536.8823" y="-325.3" font-family="Arial" font-size="14.00" fill="#000000"> </text>
<text text-anchor="start" x="540.7729" y="-325.3" font-family="Arial" font-size="14.00" fill="#666666">[BASE TABLE]</text>
<polygon fill="none" stroke="#000000" points="395,-282.5 395,-312.5 663,-312.5 663,-282.5 395,-282.5"/>
<text text-anchor="start" x="402" y="-293.9" font-family="Arial" font-size="14.00" fill="#000000">id </text>
<text text-anchor="start" x="416.7798" y="-293.9" font-family="Arial" font-size="14.00" fill="#666666">[bigint]</text>
<polygon fill="none" stroke="#000000" points="395,-252.5 395,-282.5 663,-282.5 663,-252.5 395,-252.5"/>
<text text-anchor="start" x="402" y="-263.9" font-family="Arial" font-size="14.00" fill="#000000">name </text>
<text text-anchor="start" x="440.899" y="-263.9" font-family="Arial" font-size="14.00" fill="#666666">[varchar]</text>
<polygon fill="none" stroke="#000000" points="395,-222.5 395,-252.5 663,-252.5 663,-222.5 395,-222.5"/>
<text text-anchor="start" x="402" y="-233.9" font-family="Arial" font-size="14.00" fill="#000000">is_public </text>
<text text-anchor="start" x="460.3408" y="-233.9" font-family="Arial" font-size="14.00" fill="#666666">[boolean]</text>
<polygon fill="none" stroke="#000000" points="395,-192.5 395,-222.5 663,-222.5 663,-192.5 395,-192.5"/>
<text text-anchor="start" x="402" y="-203.9" font-family="Arial" font-size="14.00" fill="#000000">is_favorite </text>
<text text-anchor="start" x="469.676" y="-203.9" font-family="Arial" font-size="14.00" fill="#666666">[boolean]</text>
<polygon fill="none" stroke="#000000" points="395,-162.5 395,-192.5 663,-192.5 663,-162.5 395,-162.5"/>
<text text-anchor="start" x="402" y="-173.9" font-family="Arial" font-size="14.00" fill="#000000">short_code </text>
<text text-anchor="start" x="475.1374" y="-173.9" font-family="Arial" font-size="14.00" fill="#666666">[varchar]</text>
<polygon fill="none" stroke="#000000" points="395,-132.5 395,-162.5 663,-162.5 663,-132.5 395,-132.5"/>
<text text-anchor="start" x="402" y="-143.9" font-family="Arial" font-size="14.00" fill="#000000">created_at </text>
<text text-anchor="start" x="472.028" y="-143.9" font-family="Arial" font-size="14.00" fill="#666666">[timestamp with time zone]</text>
<polygon fill="none" stroke="#000000" points="395,-102.5 395,-132.5 663,-132.5 663,-102.5 395,-102.5"/>
<text text-anchor="start" x="402" y="-113.9" font-family="Arial" font-size="14.00" fill="#000000">updated_at </text>
<text text-anchor="start" x="475.9326" y="-113.9" font-family="Arial" font-size="14.00" fill="#666666">[timestamp with time zone]</text>
<polygon fill="none" stroke="#000000" points="395,-72.5 395,-102.5 663,-102.5 663,-72.5 395,-72.5"/>
<text text-anchor="start" x="401.8016" y="-83.9" font-family="Arial" font-size="14.00" fill="#000000">deleted_at </text>
<text text-anchor="start" x="471.0582" y="-83.9" font-family="Arial" font-size="14.00" fill="#666666">[timestamp without time zone]</text>
<polygon fill="none" stroke="#000000" points="395,-42.5 395,-72.5 663,-72.5 663,-42.5 395,-42.5"/>
<text text-anchor="start" x="402" y="-53.9" font-family="Arial" font-size="14.00" fill="#000000">is_featured </text>
<text text-anchor="start" x="475.1346" y="-53.9" font-family="Arial" font-size="14.00" fill="#666666">[boolean]</text>
</g>
<!-- public.workspace_insights&#45;&gt;public.insights -->
<g id="edge1" class="edge">
<title>public.workspace_insights:insight_id&#45;&gt;public.insights:id</title>
<path fill="none" stroke="#000000" d="M575.9622,-648.8691C510.2096,-640.0156 556.9079,-539.8805 586,-469 604.4963,-423.9353 644.5037,-436.0647 663,-391 678.7787,-352.5566 704.5556,-297.5 663,-297.5"/>
<polygon fill="#000000" stroke="#000000" points="576.0197,-648.8726 585.7177,-653.9911 581.0098,-649.1863 586,-649.5 586,-649.5 586,-649.5 581.0098,-649.1863 586.2823,-645.0089 576.0197,-648.8726 576.0197,-648.8726"/>
<text text-anchor="start" x="114.4955" y="-659.5" font-family="Arial" font-size="10.00" fill="#000000">FOREIGN KEY (insight_id) REFERENCES insights(id) ON UPDATE CASCADE ON DELETE CASCADE</text>
</g>
<!-- public.workspaces -->
<g id="node4" class="node">
<title>public.workspaces</title>
<polygon fill="#efefef" stroke="transparent" points="1461,-267.5 1461,-302.5 1734,-302.5 1734,-267.5 1461,-267.5"/>
<polygon fill="none" stroke="#000000" points="1461,-267.5 1461,-302.5 1734,-302.5 1734,-267.5 1461,-267.5"/>
<text text-anchor="start" x="1475.3629" y="-280.3" font-family="Arial Bold" font-size="18.00" fill="#000000">public.workspaces</text>
<text text-anchor="start" x="1622.3833" y="-280.3" font-family="Arial" font-size="14.00" fill="#000000"> </text>
<text text-anchor="start" x="1626.2739" y="-280.3" font-family="Arial" font-size="14.00" fill="#666666">[BASE TABLE]</text>
<polygon fill="none" stroke="#000000" points="1461,-237.5 1461,-267.5 1734,-267.5 1734,-237.5 1461,-237.5"/>
<text text-anchor="start" x="1468" y="-248.9" font-family="Arial" font-size="14.00" fill="#000000">id </text>
<text text-anchor="start" x="1482.7798" y="-248.9" font-family="Arial" font-size="14.00" fill="#666666">[uuid]</text>
<polygon fill="none" stroke="#000000" points="1461,-207.5 1461,-237.5 1734,-237.5 1734,-207.5 1461,-207.5"/>
<text text-anchor="start" x="1468" y="-218.9" font-family="Arial" font-size="14.00" fill="#000000">created_at </text>
<text text-anchor="start" x="1538.028" y="-218.9" font-family="Arial" font-size="14.00" fill="#666666">[timestamp without time zone]</text>
<polygon fill="none" stroke="#000000" points="1461,-177.5 1461,-207.5 1734,-207.5 1734,-177.5 1461,-177.5"/>
<text text-anchor="start" x="1467.9636" y="-188.9" font-family="Arial" font-size="14.00" fill="#000000">updated_at </text>
<text text-anchor="start" x="1541.8962" y="-188.9" font-family="Arial" font-size="14.00" fill="#666666">[timestamp without time zone]</text>
<polygon fill="none" stroke="#000000" points="1461,-147.5 1461,-177.5 1734,-177.5 1734,-147.5 1461,-147.5"/>
<text text-anchor="start" x="1468" y="-158.9" font-family="Arial" font-size="14.00" fill="#000000">deleted_at </text>
<text text-anchor="start" x="1537.2566" y="-158.9" font-family="Arial" font-size="14.00" fill="#666666">[timestamp without time zone]</text>
<polygon fill="none" stroke="#000000" points="1461,-117.5 1461,-147.5 1734,-147.5 1734,-117.5 1461,-117.5"/>
<text text-anchor="start" x="1468" y="-128.9" font-family="Arial" font-size="14.00" fill="#000000">name </text>
<text text-anchor="start" x="1506.899" y="-128.9" font-family="Arial" font-size="14.00" fill="#666666">[varchar(255)]</text>
<polygon fill="none" stroke="#000000" points="1461,-87.5 1461,-117.5 1734,-117.5 1734,-87.5 1461,-87.5"/>
<text text-anchor="start" x="1468" y="-98.9" font-family="Arial" font-size="14.00" fill="#000000">description </text>
<text text-anchor="start" x="1539.568" y="-98.9" font-family="Arial" font-size="14.00" fill="#666666">[varchar(255)]</text>
</g>
<!-- public.workspace_insights&#45;&gt;public.workspaces -->
<g id="edge3" class="edge">
<title>public.workspace_insights:workspace_id&#45;&gt;public.workspaces:id</title>
<path fill="none" stroke="#000000" d="M916.0432,-618.8682C987.4437,-609.1225 902.4218,-489.0462 961,-427 1122.5779,-255.8563 1225.6331,-252.5 1461,-252.5"/>
<polygon fill="#000000" stroke="#000000" points="915.9803,-618.8721 905.7174,-615.0089 910.9901,-619.186 906,-619.5 906,-619.5 906,-619.5 910.9901,-619.186 906.2826,-623.9911 915.9803,-618.8721 915.9803,-618.8721"/>
<text text-anchor="start" x="654.6055" y="-603.5" font-family="Arial" font-size="10.00" fill="#000000">FOREIGN KEY (workspace_id) REFERENCES workspaces(id) ON UPDATE CASCADE ON DELETE CASCADE</text>
</g>
<!-- public.insight_members -->
<g id="node3" class="node">
<title>public.insight_members</title>
<polygon fill="#efefef" stroke="transparent" points="145,-739.5 145,-774.5 479,-774.5 479,-739.5 145,-739.5"/>
<polygon fill="none" stroke="#000000" points="145,-739.5 145,-774.5 479,-774.5 479,-739.5 145,-739.5"/>
<text text-anchor="start" x="168.8632" y="-752.3" font-family="Arial Bold" font-size="18.00" fill="#000000">public.insight_members</text>
<text text-anchor="start" x="357.883" y="-752.3" font-family="Arial" font-size="14.00" fill="#000000"> </text>
<text text-anchor="start" x="361.7736" y="-752.3" font-family="Arial" font-size="14.00" fill="#666666">[BASE TABLE]</text>
<polygon fill="none" stroke="#000000" points="145,-709.5 145,-739.5 479,-739.5 479,-709.5 145,-709.5"/>
<text text-anchor="start" x="152" y="-720.9" font-family="Arial" font-size="14.00" fill="#000000">id </text>
<text text-anchor="start" x="166.7798" y="-720.9" font-family="Arial" font-size="14.00" fill="#666666">[uuid]</text>
<polygon fill="none" stroke="#000000" points="145,-679.5 145,-709.5 479,-709.5 479,-679.5 145,-679.5"/>
<text text-anchor="start" x="152" y="-690.9" font-family="Arial" font-size="14.00" fill="#000000">user_id </text>
<text text-anchor="start" x="201.7882" y="-690.9" font-family="Arial" font-size="14.00" fill="#666666">[bigint]</text>
<polygon fill="none" stroke="#000000" points="145,-649.5 145,-679.5 479,-679.5 479,-649.5 145,-649.5"/>
<text text-anchor="start" x="152" y="-660.9" font-family="Arial" font-size="14.00" fill="#000000">insight_id </text>
<text text-anchor="start" x="215.014" y="-660.9" font-family="Arial" font-size="14.00" fill="#666666">[bigint]</text>
<polygon fill="none" stroke="#000000" points="145,-619.5 145,-649.5 479,-649.5 479,-619.5 145,-619.5"/>
<text text-anchor="start" x="152" y="-630.9" font-family="Arial" font-size="14.00" fill="#000000">created_at </text>
<text text-anchor="start" x="222.028" y="-630.9" font-family="Arial" font-size="14.00" fill="#666666">[timestamp without time zone]</text>
<polygon fill="none" stroke="#000000" points="145,-589.5 145,-619.5 479,-619.5 479,-589.5 145,-589.5"/>
<text text-anchor="start" x="152" y="-600.9" font-family="Arial" font-size="14.00" fill="#000000">updated_at </text>
<text text-anchor="start" x="225.9326" y="-600.9" font-family="Arial" font-size="14.00" fill="#666666">[timestamp without time zone]</text>
<polygon fill="none" stroke="#000000" points="145,-559.5 145,-589.5 479,-589.5 479,-559.5 145,-559.5"/>
<text text-anchor="start" x="152" y="-570.9" font-family="Arial" font-size="14.00" fill="#000000">deleted_at </text>
<text text-anchor="start" x="221.2566" y="-570.9" font-family="Arial" font-size="14.00" fill="#666666">[timestamp without time zone]</text>
<polygon fill="none" stroke="#000000" points="145,-529.5 145,-559.5 479,-559.5 479,-529.5 145,-529.5"/>
<text text-anchor="start" x="151.7476" y="-540.9" font-family="Arial" font-size="14.00" fill="#000000">invitation_emailed_at </text>
<text text-anchor="start" x="287.1122" y="-540.9" font-family="Arial" font-size="14.00" fill="#666666">[timestamp without time zone]</text>
<polygon fill="none" stroke="#000000" points="145,-499.5 145,-529.5 479,-529.5 479,-499.5 145,-499.5"/>
<text text-anchor="start" x="152" y="-510.9" font-family="Arial" font-size="14.00" fill="#000000">access </text>
<text text-anchor="start" x="199.4558" y="-510.9" font-family="Arial" font-size="14.00" fill="#666666">[varchar(20)]</text>
<polygon fill="none" stroke="#000000" points="145,-469.5 145,-499.5 479,-499.5 479,-469.5 145,-469.5"/>
<text text-anchor="start" x="152" y="-480.9" font-family="Arial" font-size="14.00" fill="#000000">invitation_email </text>
<text text-anchor="start" x="252.3436" y="-480.9" font-family="Arial" font-size="14.00" fill="#666666">[varchar(255)]</text>
</g>
<!-- public.insight_members&#45;&gt;public.insights -->
<g id="edge2" class="edge">
<title>public.insight_members:insight_id&#45;&gt;public.insights:id</title>
<path fill="none" stroke="#000000" d="M489.0229,-661.7502C528.4152,-638.0362 506.0109,-467.963 479,-427 456.6405,-393.0909 417.3595,-424.9091 395,-391 372.124,-356.3077 353.4444,-297.5 395,-297.5"/>
<polygon fill="#000000" stroke="#000000" points="488.6436,-661.8542 477.8094,-660.1604 483.8218,-663.1771 479,-664.5 479,-664.5 479,-664.5 483.8218,-663.1771 480.1906,-668.8396 488.6436,-661.8542 488.6436,-661.8542"/>
<text text-anchor="start" x="7.4955" y="-674.5" font-family="Arial" font-size="10.00" fill="#000000">FOREIGN KEY (insight_id) REFERENCES insights(id) ON UPDATE CASCADE ON DELETE CASCADE</text>
</g>
<!-- public.workspace_members -->
<g id="node5" class="node">
<title>public.workspace_members</title>
<polygon fill="#efefef" stroke="transparent" points="1013,-709.5 1013,-744.5 1347,-744.5 1347,-709.5 1013,-709.5"/>
<polygon fill="none" stroke="#000000" points="1013,-709.5 1013,-744.5 1347,-744.5 1347,-709.5 1013,-709.5"/>
<text text-anchor="start" x="1019.8622" y="-722.3" font-family="Arial Bold" font-size="18.00" fill="#000000">public.workspace_members</text>
<text text-anchor="start" x="1242.884" y="-722.3" font-family="Arial" font-size="14.00" fill="#000000"> </text>
<text text-anchor="start" x="1246.7746" y="-722.3" font-family="Arial" font-size="14.00" fill="#666666">[BASE TABLE]</text>
<polygon fill="none" stroke="#000000" points="1013,-679.5 1013,-709.5 1347,-709.5 1347,-679.5 1013,-679.5"/>
<text text-anchor="start" x="1020" y="-690.9" font-family="Arial" font-size="14.00" fill="#000000">id </text>
<text text-anchor="start" x="1034.7798" y="-690.9" font-family="Arial" font-size="14.00" fill="#666666">[uuid]</text>
<polygon fill="none" stroke="#000000" points="1013,-649.5 1013,-679.5 1347,-679.5 1347,-649.5 1013,-649.5"/>
<text text-anchor="start" x="1020" y="-660.9" font-family="Arial" font-size="14.00" fill="#000000">user_id </text>
<text text-anchor="start" x="1069.7882" y="-660.9" font-family="Arial" font-size="14.00" fill="#666666">[integer]</text>
<polygon fill="none" stroke="#000000" points="1013,-619.5 1013,-649.5 1347,-649.5 1347,-619.5 1013,-619.5"/>
<text text-anchor="start" x="1020" y="-630.9" font-family="Arial" font-size="14.00" fill="#000000">workspace_id </text>
<text text-anchor="start" x="1109.46" y="-630.9" font-family="Arial" font-size="14.00" fill="#666666">[uuid]</text>
<polygon fill="none" stroke="#000000" points="1013,-589.5 1013,-619.5 1347,-619.5 1347,-589.5 1013,-589.5"/>
<text text-anchor="start" x="1020" y="-600.9" font-family="Arial" font-size="14.00" fill="#000000">created_at </text>
<text text-anchor="start" x="1090.028" y="-600.9" font-family="Arial" font-size="14.00" fill="#666666">[timestamp without time zone]</text>
<polygon fill="none" stroke="#000000" points="1013,-559.5 1013,-589.5 1347,-589.5 1347,-559.5 1013,-559.5"/>
<text text-anchor="start" x="1020" y="-570.9" font-family="Arial" font-size="14.00" fill="#000000">updated_at </text>
<text text-anchor="start" x="1093.9326" y="-570.9" font-family="Arial" font-size="14.00" fill="#666666">[timestamp without time zone]</text>
<polygon fill="none" stroke="#000000" points="1013,-529.5 1013,-559.5 1347,-559.5 1347,-529.5 1013,-529.5"/>
<text text-anchor="start" x="1020" y="-540.9" font-family="Arial" font-size="14.00" fill="#000000">deleted_at </text>
<text text-anchor="start" x="1089.2566" y="-540.9" font-family="Arial" font-size="14.00" fill="#666666">[timestamp without time zone]</text>
<polygon fill="none" stroke="#000000" points="1013,-499.5 1013,-529.5 1347,-529.5 1347,-499.5 1013,-499.5"/>
<text text-anchor="start" x="1020" y="-510.9" font-family="Arial" font-size="14.00" fill="#000000">role </text>
<text text-anchor="start" x="1047.223" y="-510.9" font-family="Arial" font-size="14.00" fill="#666666">[workspace_member_role]</text>
</g>
<!-- public.workspace_members&#45;&gt;public.workspaces -->
<g id="edge4" class="edge">
<title>public.workspace_members:workspace_id&#45;&gt;public.workspaces:id</title>
<path fill="none" stroke="#000000" d="M1357.3989,-633.9752C1436.7099,-625.438 1372.572,-514.4542 1399,-427 1422.8087,-348.2135 1378.6946,-252.5 1461,-252.5"/>
<polygon fill="#000000" stroke="#000000" points="1356.9873,-633.9959 1346.7732,-630.0057 1351.9936,-634.2479 1347,-634.5 1347,-634.5 1347,-634.5 1351.9936,-634.2479 1347.2268,-638.9943 1356.9873,-633.9959 1356.9873,-633.9959"/>
<text text-anchor="start" x="837.6055" y="-644.5" font-family="Arial" font-size="10.00" fill="#000000">FOREIGN KEY (workspace_id) REFERENCES workspaces(id) ON UPDATE CASCADE ON DELETE CASCADE</text>
</g>
<!-- public.workspace_orgs -->
<g id="node6" class="node">
<title>public.workspace_orgs</title>
<polygon fill="#efefef" stroke="transparent" points="1451,-694.5 1451,-729.5 1745,-729.5 1745,-694.5 1451,-694.5"/>
<polygon fill="none" stroke="#000000" points="1451,-694.5 1451,-729.5 1745,-729.5 1745,-694.5 1451,-694.5"/>
<text text-anchor="start" x="1457.8575" y="-707.3" font-family="Arial Bold" font-size="18.00" fill="#000000">public.workspace_orgs</text>
<text text-anchor="start" x="1640.8887" y="-707.3" font-family="Arial" font-size="14.00" fill="#000000"> </text>
<text text-anchor="start" x="1644.7793" y="-707.3" font-family="Arial" font-size="14.00" fill="#666666">[BASE TABLE]</text>
<polygon fill="none" stroke="#000000" points="1451,-664.5 1451,-694.5 1745,-694.5 1745,-664.5 1451,-664.5"/>
<text text-anchor="start" x="1458" y="-675.9" font-family="Arial" font-size="14.00" fill="#000000">id </text>
<text text-anchor="start" x="1472.7798" y="-675.9" font-family="Arial" font-size="14.00" fill="#666666">[uuid]</text>
<polygon fill="none" stroke="#000000" points="1451,-634.5 1451,-664.5 1745,-664.5 1745,-634.5 1451,-634.5"/>
<text text-anchor="start" x="1458" y="-645.9" font-family="Arial" font-size="14.00" fill="#000000">org_id </text>
<text text-anchor="start" x="1500.7882" y="-645.9" font-family="Arial" font-size="14.00" fill="#666666">[integer]</text>
<polygon fill="none" stroke="#000000" points="1451,-604.5 1451,-634.5 1745,-634.5 1745,-604.5 1451,-604.5"/>
<text text-anchor="start" x="1458" y="-615.9" font-family="Arial" font-size="14.00" fill="#000000">workspace_id </text>
<text text-anchor="start" x="1547.46" y="-615.9" font-family="Arial" font-size="14.00" fill="#666666">[uuid]</text>
<polygon fill="none" stroke="#000000" points="1451,-574.5 1451,-604.5 1745,-604.5 1745,-574.5 1451,-574.5"/>
<text text-anchor="start" x="1458" y="-585.9" font-family="Arial" font-size="14.00" fill="#000000">created_at </text>
<text text-anchor="start" x="1528.028" y="-585.9" font-family="Arial" font-size="14.00" fill="#666666">[timestamp without time zone]</text>
<polygon fill="none" stroke="#000000" points="1451,-544.5 1451,-574.5 1745,-574.5 1745,-544.5 1451,-544.5"/>
<text text-anchor="start" x="1458" y="-555.9" font-family="Arial" font-size="14.00" fill="#000000">updated_at </text>
<text text-anchor="start" x="1531.9326" y="-555.9" font-family="Arial" font-size="14.00" fill="#666666">[timestamp without time zone]</text>
<polygon fill="none" stroke="#000000" points="1451,-514.5 1451,-544.5 1745,-544.5 1745,-514.5 1451,-514.5"/>
<text text-anchor="start" x="1458" y="-525.9" font-family="Arial" font-size="14.00" fill="#000000">deleted_at </text>
<text text-anchor="start" x="1527.2566" y="-525.9" font-family="Arial" font-size="14.00" fill="#666666">[timestamp without time zone]</text>
</g>
<!-- public.workspace_orgs&#45;&gt;public.workspaces -->
<g id="edge5" class="edge">
<title>public.workspace_orgs:workspace_id&#45;&gt;public.workspaces:id</title>
<path fill="none" stroke="#000000" d="M1440.7626,-618.6332C1388.8448,-609.1396 1417.3182,-523.8655 1451,-472 1525.9864,-356.531 1659.0136,-461.469 1734,-346 1756.6328,-311.1486 1775.5556,-252.5 1734,-252.5"/>
<polygon fill="#000000" stroke="#000000" points="1441.0357,-618.6562 1450.6203,-623.984 1446.0178,-619.0781 1451,-619.5 1451,-619.5 1451,-619.5 1446.0178,-619.0781 1451.3797,-615.016 1441.0357,-618.6562 1441.0357,-618.6562"/>
<text text-anchor="start" x="1199.6055" y="-603.5" font-family="Arial" font-size="10.00" fill="#000000">FOREIGN KEY (workspace_id) REFERENCES workspaces(id) ON UPDATE CASCADE ON DELETE CASCADE</text>
</g>
<!-- public.workspace_repos -->
<g id="node7" class="node">
<title>public.workspace_repos</title>
<polygon fill="#efefef" stroke="transparent" points="1849,-694.5 1849,-729.5 2153,-729.5 2153,-694.5 1849,-694.5"/>
<polygon fill="none" stroke="#000000" points="1849,-694.5 1849,-729.5 2153,-729.5 2153,-694.5 1849,-694.5"/>
<text text-anchor="start" x="1855.8544" y="-707.3" font-family="Arial Bold" font-size="18.00" fill="#000000">public.workspace_repos</text>
<text text-anchor="start" x="2048.8918" y="-707.3" font-family="Arial" font-size="14.00" fill="#000000"> </text>
<text text-anchor="start" x="2052.7824" y="-707.3" font-family="Arial" font-size="14.00" fill="#666666">[BASE TABLE]</text>
<polygon fill="none" stroke="#000000" points="1849,-664.5 1849,-694.5 2153,-694.5 2153,-664.5 1849,-664.5"/>
<text text-anchor="start" x="1856" y="-675.9" font-family="Arial" font-size="14.00" fill="#000000">id </text>
<text text-anchor="start" x="1870.7798" y="-675.9" font-family="Arial" font-size="14.00" fill="#666666">[uuid]</text>
<polygon fill="none" stroke="#000000" points="1849,-634.5 1849,-664.5 2153,-664.5 2153,-634.5 1849,-634.5"/>
<text text-anchor="start" x="1856" y="-645.9" font-family="Arial" font-size="14.00" fill="#000000">repo_id </text>
<text text-anchor="start" x="1906.5708" y="-645.9" font-family="Arial" font-size="14.00" fill="#666666">[integer]</text>
<polygon fill="none" stroke="#000000" points="1849,-604.5 1849,-634.5 2153,-634.5 2153,-604.5 1849,-604.5"/>
<text text-anchor="start" x="1856" y="-615.9" font-family="Arial" font-size="14.00" fill="#000000">workspace_id </text>
<text text-anchor="start" x="1945.46" y="-615.9" font-family="Arial" font-size="14.00" fill="#666666">[uuid]</text>
<polygon fill="none" stroke="#000000" points="1849,-574.5 1849,-604.5 2153,-604.5 2153,-574.5 1849,-574.5"/>
<text text-anchor="start" x="1856" y="-585.9" font-family="Arial" font-size="14.00" fill="#000000">created_at </text>
<text text-anchor="start" x="1926.028" y="-585.9" font-family="Arial" font-size="14.00" fill="#666666">[timestamp without time zone]</text>
<polygon fill="none" stroke="#000000" points="1849,-544.5 1849,-574.5 2153,-574.5 2153,-544.5 1849,-544.5"/>
<text text-anchor="start" x="1856" y="-555.9" font-family="Arial" font-size="14.00" fill="#000000">updated_at </text>
<text text-anchor="start" x="1929.9326" y="-555.9" font-family="Arial" font-size="14.00" fill="#666666">[timestamp without time zone]</text>
<polygon fill="none" stroke="#000000" points="1849,-514.5 1849,-544.5 2153,-544.5 2153,-514.5 1849,-514.5"/>
<text text-anchor="start" x="1856" y="-525.9" font-family="Arial" font-size="14.00" fill="#000000">deleted_at </text>
<text text-anchor="start" x="1925.2566" y="-525.9" font-family="Arial" font-size="14.00" fill="#666666">[timestamp without time zone]</text>
</g>
<!-- public.workspace_repos&#45;&gt;public.workspaces -->
<g id="edge6" class="edge">
<title>public.workspace_repos:workspace_id&#45;&gt;public.workspaces:id</title>
<path fill="none" stroke="#000000" d="M1838.8451,-618.9641C1765.415,-610.6824 1822.5333,-508.0609 1797,-427 1772.2274,-348.3541 1816.4552,-252.5 1734,-252.5"/>
<polygon fill="#000000" stroke="#000000" points="1839.0139,-618.973 1848.7628,-623.9937 1844.0069,-619.2365 1849,-619.5 1849,-619.5 1849,-619.5 1844.0069,-619.2365 1849.2372,-615.0063 1839.0139,-618.973 1839.0139,-618.973"/>
<text text-anchor="start" x="1855.6055" y="-629.5" font-family="Arial" font-size="10.00" fill="#000000">FOREIGN KEY (workspace_id) REFERENCES workspaces(id) ON UPDATE CASCADE ON DELETE CASCADE</text>
</g>
<!-- public.workspace_contributors -->
<g id="node8" class="node">
<title>public.workspace_contributors</title>
<polygon fill="#efefef" stroke="transparent" points="2258,-694.5 2258,-729.5 2611,-729.5 2611,-694.5 2258,-694.5"/>
<polygon fill="none" stroke="#000000" points="2258,-694.5 2258,-729.5 2611,-729.5 2611,-694.5 2258,-694.5"/>
<text text-anchor="start" x="2264.8528" y="-707.3" font-family="Arial Bold" font-size="18.00" fill="#000000">public.workspace_contributors</text>
<text text-anchor="start" x="2506.8934" y="-707.3" font-family="Arial" font-size="14.00" fill="#000000"> </text>
<text text-anchor="start" x="2510.784" y="-707.3" font-family="Arial" font-size="14.00" fill="#666666">[BASE TABLE]</text>
<polygon fill="none" stroke="#000000" points="2258,-664.5 2258,-694.5 2611,-694.5 2611,-664.5 2258,-664.5"/>
<text text-anchor="start" x="2265" y="-675.9" font-family="Arial" font-size="14.00" fill="#000000">id </text>
<text text-anchor="start" x="2279.7798" y="-675.9" font-family="Arial" font-size="14.00" fill="#666666">[uuid]</text>
<polygon fill="none" stroke="#000000" points="2258,-634.5 2258,-664.5 2611,-664.5 2611,-634.5 2258,-634.5"/>
<text text-anchor="start" x="2265" y="-645.9" font-family="Arial" font-size="14.00" fill="#000000">contributor_id </text>
<text text-anchor="start" x="2353.6844" y="-645.9" font-family="Arial" font-size="14.00" fill="#666666">[integer]</text>
<polygon fill="none" stroke="#000000" points="2258,-604.5 2258,-634.5 2611,-634.5 2611,-604.5 2258,-604.5"/>
<text text-anchor="start" x="2265" y="-615.9" font-family="Arial" font-size="14.00" fill="#000000">workspace_id </text>
<text text-anchor="start" x="2354.46" y="-615.9" font-family="Arial" font-size="14.00" fill="#666666">[uuid]</text>
<polygon fill="none" stroke="#000000" points="2258,-574.5 2258,-604.5 2611,-604.5 2611,-574.5 2258,-574.5"/>
<text text-anchor="start" x="2265" y="-585.9" font-family="Arial" font-size="14.00" fill="#000000">created_at </text>
<text text-anchor="start" x="2335.028" y="-585.9" font-family="Arial" font-size="14.00" fill="#666666">[timestamp without time zone]</text>
<polygon fill="none" stroke="#000000" points="2258,-544.5 2258,-574.5 2611,-574.5 2611,-544.5 2258,-544.5"/>
<text text-anchor="start" x="2265" y="-555.9" font-family="Arial" font-size="14.00" fill="#000000">updated_at </text>
<text text-anchor="start" x="2338.9326" y="-555.9" font-family="Arial" font-size="14.00" fill="#666666">[timestamp without time zone]</text>
<polygon fill="none" stroke="#000000" points="2258,-514.5 2258,-544.5 2611,-544.5 2611,-514.5 2258,-514.5"/>
<text text-anchor="start" x="2265" y="-525.9" font-family="Arial" font-size="14.00" fill="#000000">deleted_at </text>
<text text-anchor="start" x="2334.2566" y="-525.9" font-family="Arial" font-size="14.00" fill="#666666">[timestamp without time zone]</text>
</g>
<!-- public.workspace_contributors&#45;&gt;public.workspaces -->
<g id="edge7" class="edge">
<title>public.workspace_contributors:workspace_id&#45;&gt;public.workspaces:id</title>
<path fill="none" stroke="#000000" d="M2247.9884,-618.8715C2176.8516,-609.177 2262.5276,-489.7095 2205,-427 2054.0899,-262.4964 1957.2382,-252.5 1734,-252.5"/>
<polygon fill="#000000" stroke="#000000" points="2248.0196,-618.8734 2257.718,-623.9912 2253.0098,-619.1867 2258,-619.5 2258,-619.5 2258,-619.5 2253.0098,-619.1867 2258.282,-615.0088 2248.0196,-618.8734 2248.0196,-618.8734"/>
<text text-anchor="start" x="2264.6055" y="-603.5" font-family="Arial" font-size="10.00" fill="#000000">FOREIGN KEY (workspace_id) REFERENCES workspaces(id) ON UPDATE CASCADE ON DELETE CASCADE</text>
</g>
</g>
</svg>
