<?xml version="1.0" encoding="UTF-8" standalone="no"?>
<!DOCTYPE svg PUBLIC "-//W3C//DTD SVG 1.1//EN"
 "http://www.w3.org/Graphics/SVG/1.1/DTD/svg11.dtd">
<!-- Generated by graphviz version 2.40.1 (20161225.0304)
 -->
<!-- Title: public.commits Pages: 1 -->
<svg width="1350pt" height="532pt"
 viewBox="0.00 0.00 1350.00 532.00" xmlns="http://www.w3.org/2000/svg" xmlns:xlink="http://www.w3.org/1999/xlink">
<g id="graph0" class="graph" transform="scale(1 1) rotate(0) translate(4 528)">
<title>public.commits</title>
<polygon fill="#ffffff" stroke="transparent" points="-4,4 -4,-528 1346,-528 1346,4 -4,4"/>
<!-- public.commits -->
<g id="node1" class="node">
<title>public.commits</title>
<polygon fill="#efefef" stroke="transparent" points="526,-442.5 526,-477.5 789,-477.5 789,-442.5 526,-442.5"/>
<polygon fill="none" stroke="#000000" points="526,-442.5 526,-477.5 789,-477.5 789,-442.5 526,-442.5"/>
<text text-anchor="start" x="549.375" y="-455.3" font-family="Arial Bold" font-size="18.00" fill="#000000">public.commits</text>
<text text-anchor="start" x="668.3712" y="-455.3" font-family="Arial" font-size="14.00" fill="#000000"> </text>
<text text-anchor="start" x="672.2618" y="-455.3" font-family="Arial" font-size="14.00" fill="#666666">[BASE TABLE]</text>
<polygon fill="none" stroke="#000000" points="526,-412.5 526,-442.5 789,-442.5 789,-412.5 526,-412.5"/>
<text text-anchor="start" x="533" y="-423.9" font-family="Arial" font-size="14.00" fill="#000000">id </text>
<text text-anchor="start" x="547.7798" y="-423.9" font-family="Arial" font-size="14.00" fill="#666666">[bigint]</text>
<polygon fill="none" stroke="#000000" points="526,-382.5 526,-412.5 789,-412.5 789,-382.5 526,-382.5"/>
<text text-anchor="start" x="533" y="-393.9" font-family="Arial" font-size="14.00" fill="#000000">baked_repo_id </text>
<text text-anchor="start" x="629.4838" y="-393.9" font-family="Arial" font-size="14.00" fill="#666666">[bigint]</text>
<polygon fill="none" stroke="#000000" points="526,-352.5 526,-382.5 789,-382.5 789,-352.5 526,-352.5"/>
<text text-anchor="start" x="533" y="-363.9" font-family="Arial" font-size="14.00" fill="#000000">commit_author_id </text>
<text text-anchor="start" x="648.1276" y="-363.9" font-family="Arial" font-size="14.00" fill="#666666">[bigint]</text>
<polygon fill="none" stroke="#000000" points="526,-322.5 526,-352.5 789,-352.5 789,-322.5 526,-322.5"/>
<text text-anchor="start" x="533" y="-333.9" font-family="Arial" font-size="14.00" fill="#000000">commit_hash </text>
<text text-anchor="start" x="620.122" y="-333.9" font-family="Arial" font-size="14.00" fill="#666666">[varchar(255)]</text>
<polygon fill="none" stroke="#000000" points="526,-292.5 526,-322.5 789,-322.5 789,-292.5 526,-292.5"/>
<text text-anchor="start" x="532.6515" y="-303.9" font-family="Arial" font-size="14.00" fill="#000000">commit_date </text>
<text text-anchor="start" x="616.6641" y="-303.9" font-family="Arial" font-size="14.00" fill="#666666">[timestamp with time zone]</text>
<polygon fill="none" stroke="#000000" stroke-width="3" points="524,-291.5 524,-479.5 790,-479.5 790,-291.5 524,-291.5"/>
</g>
<!-- public.baked_repos -->
<g id="node2" class="node">
<title>public.baked_repos</title>
<polygon fill="#efefef" stroke="transparent" points="333,-132.5 333,-167.5 600,-167.5 600,-132.5 333,-132.5"/>
<polygon fill="none" stroke="#000000" points="333,-132.5 333,-167.5 600,-167.5 600,-132.5 333,-132.5"/>
<text text-anchor="start" x="339.8476" y="-145.3" font-family="Arial Bold" font-size="18.00" fill="#000000">public.baked_repos</text>
<text text-anchor="start" x="495.8986" y="-145.3" font-family="Arial" font-size="14.00" fill="#000000"> </text>
<text text-anchor="start" x="499.7892" y="-145.3" font-family="Arial" font-size="14.00" fill="#666666">[BASE TABLE]</text>
<polygon fill="none" stroke="#000000" points="333,-102.5 333,-132.5 600,-132.5 600,-102.5 333,-102.5"/>
<text text-anchor="start" x="340" y="-113.9" font-family="Arial" font-size="14.00" fill="#000000">id </text>
<text text-anchor="start" x="354.7798" y="-113.9" font-family="Arial" font-size="14.00" fill="#666666">[bigint]</text>
<polygon fill="none" stroke="#000000" points="333,-72.5 333,-102.5 600,-102.5 600,-72.5 333,-72.5"/>
<text text-anchor="start" x="340" y="-83.9" font-family="Arial" font-size="14.00" fill="#000000">clone_url </text>
<text text-anchor="start" x="400.6774" y="-83.9" font-family="Arial" font-size="14.00" fill="#666666">[varchar(255)]</text>
<polygon fill="none" stroke="#000000" points="333,-42.5 333,-72.5 600,-72.5 600,-42.5 333,-42.5"/>
<text text-anchor="start" x="340" y="-53.9" font-family="Arial" font-size="14.00" fill="#000000">repo_id </text>
<text text-anchor="start" x="390.5708" y="-53.9" font-family="Arial" font-size="14.00" fill="#666666">[bigint]</text>
</g>
<!-- public.commits&#45;&gt;public.baked_repos -->
<g id="edge1" class="edge">
<title>public.commits:baked_repo_id&#45;&gt;public.baked_repos:id</title>
<path fill="none" stroke="#000000" d="M515.8926,-396.6799C462.5592,-387.3523 492.4657,-300.606 526,-247 545.397,-215.993 580.603,-242.007 600,-211 622.0388,-175.77 641.5556,-117.5 600,-117.5"/>
<polygon fill="#000000" stroke="#000000" points="516.0328,-396.6912 525.636,-401.9853 521.0164,-397.0956 526,-397.5 526,-397.5 526,-397.5 521.0164,-397.0956 526.364,-393.0147 516.0328,-396.6912 516.0328,-396.6912"/>
<text text-anchor="start" x="6.5885" y="-407.5" font-family="Arial" font-size="10.00" fill="#000000">FOREIGN KEY (baked_repo_id) REFERENCES baked_repos(id) ON UPDATE CASCADE ON DELETE CASCADE</text>
</g>
<!-- public.commit_authors -->
<g id="node3" class="node">
<title>public.commit_authors</title>
<polygon fill="#efefef" stroke="transparent" points="704,-117.5 704,-152.5 995,-152.5 995,-117.5 704,-117.5"/>
<polygon fill="none" stroke="#000000" points="704,-117.5 704,-152.5 995,-152.5 995,-117.5 704,-117.5"/>
<text text-anchor="start" x="710.8623" y="-130.3" font-family="Arial Bold" font-size="18.00" fill="#000000">public.commit_authors</text>
<text text-anchor="start" x="890.8839" y="-130.3" font-family="Arial" font-size="14.00" fill="#000000"> </text>
<text text-anchor="start" x="894.7745" y="-130.3" font-family="Arial" font-size="14.00" fill="#666666">[BASE TABLE]</text>
<polygon fill="none" stroke="#000000" points="704,-87.5 704,-117.5 995,-117.5 995,-87.5 704,-87.5"/>
<text text-anchor="start" x="711" y="-98.9" font-family="Arial" font-size="14.00" fill="#000000">id </text>
<text text-anchor="start" x="725.7798" y="-98.9" font-family="Arial" font-size="14.00" fill="#666666">[bigint]</text>
<polygon fill="none" stroke="#000000" points="704,-57.5 704,-87.5 995,-87.5 995,-57.5 704,-57.5"/>
<text text-anchor="start" x="711" y="-68.9" font-family="Arial" font-size="14.00" fill="#000000">commit_author_email </text>
<text text-anchor="start" x="848.6774" y="-68.9" font-family="Arial" font-size="14.00" fill="#666666">[varchar(255)]</text>
</g>
<!-- public.commits&#45;&gt;public.commit_authors -->
<g id="edge2" class="edge">
<title>public.commits:commit_author_id&#45;&gt;public.commit_authors:id</title>
<path fill="none" stroke="#000000" d="M799.1279,-366.4392C838.7388,-357.2433 813.5314,-290.3272 789,-247 767.2936,-208.6624 725.7064,-234.3376 704,-196 683.5256,-159.8384 662.4444,-102.5 704,-102.5"/>
<polygon fill="#000000" stroke="#000000" points="798.9456,-366.4582 788.5312,-363.0245 793.9728,-366.9791 789,-367.5 789,-367.5 789,-367.5 793.9728,-366.9791 789.4688,-371.9755 798.9456,-366.4582 798.9456,-366.4582"/>
<text text-anchor="start" x="796.2715" y="-377.5" font-family="Arial" font-size="10.00" fill="#000000">FOREIGN KEY (commit_author_id) REFERENCES commit_authors(id) ON UPDATE CASCADE ON DELETE CASCADE</text>
</g>
</g>
</svg>
