<?xml version="1.0" encoding="UTF-8" standalone="no"?>
<!DOCTYPE svg PUBLIC "-//W3C//DTD SVG 1.1//EN"
 "http://www.w3.org/Graphics/SVG/1.1/DTD/svg11.dtd">
<!-- Generated by graphviz version 2.40.1 (20161225.0304)
 -->
<!-- Title: public.commit_authors Pages: 1 -->
<svg width="1350pt" height="526pt"
 viewBox="0.00 0.00 1350.00 526.00" xmlns="http://www.w3.org/2000/svg" xmlns:xlink="http://www.w3.org/1999/xlink">
<g id="graph0" class="graph" transform="scale(1 1) rotate(0) translate(4 522)">
<title>public.commit_authors</title>
<polygon fill="#ffffff" stroke="transparent" points="-4,4 -4,-522 1346,-522 1346,4 -4,4"/>
<!-- public.commit_authors -->
<g id="node1" class="node">
<title>public.commit_authors</title>
<polygon fill="#efefef" stroke="transparent" points="346,-117.5 346,-152.5 637,-152.5 637,-117.5 346,-117.5"/>
<polygon fill="none" stroke="#000000" points="346,-117.5 346,-152.5 637,-152.5 637,-117.5 346,-117.5"/>
<text text-anchor="start" x="352.8623" y="-130.3" font-family="Arial Bold" font-size="18.00" fill="#000000">public.commit_authors</text>
<text text-anchor="start" x="532.8839" y="-130.3" font-family="Arial" font-size="14.00" fill="#000000"> </text>
<text text-anchor="start" x="536.7745" y="-130.3" font-family="Arial" font-size="14.00" fill="#666666">[BASE TABLE]</text>
<polygon fill="none" stroke="#000000" points="346,-87.5 346,-117.5 637,-117.5 637,-87.5 346,-87.5"/>
<text text-anchor="start" x="353" y="-98.9" font-family="Arial" font-size="14.00" fill="#000000">id </text>
<text text-anchor="start" x="367.7798" y="-98.9" font-family="Arial" font-size="14.00" fill="#666666">[bigint]</text>
<polygon fill="none" stroke="#000000" points="346,-57.5 346,-87.5 637,-87.5 637,-57.5 346,-57.5"/>
<text text-anchor="start" x="353" y="-68.9" font-family="Arial" font-size="14.00" fill="#000000">commit_author_email </text>
<text text-anchor="start" x="490.6774" y="-68.9" font-family="Arial" font-size="14.00" fill="#666666">[varchar(255)]</text>
<polygon fill="none" stroke="#000000" stroke-width="3" points="344,-56.5 344,-154.5 638,-154.5 638,-56.5 344,-56.5"/>
</g>
<!-- public.commits -->
<g id="node2" class="node">
<title>public.commits</title>
<polygon fill="#efefef" stroke="transparent" points="553,-439.5 553,-474.5 816,-474.5 816,-439.5 553,-439.5"/>
<polygon fill="none" stroke="#000000" points="553,-439.5 553,-474.5 816,-474.5 816,-439.5 553,-439.5"/>
<text text-anchor="start" x="576.375" y="-452.3" font-family="Arial Bold" font-size="18.00" fill="#000000">public.commits</text>
<text text-anchor="start" x="695.3712" y="-452.3" font-family="Arial" font-size="14.00" fill="#000000"> </text>
<text text-anchor="start" x="699.2618" y="-452.3" font-family="Arial" font-size="14.00" fill="#666666">[BASE TABLE]</text>
<polygon fill="none" stroke="#000000" points="553,-409.5 553,-439.5 816,-439.5 816,-409.5 553,-409.5"/>
<text text-anchor="start" x="560" y="-420.9" font-family="Arial" font-size="14.00" fill="#000000">id </text>
<text text-anchor="start" x="574.7798" y="-420.9" font-family="Arial" font-size="14.00" fill="#666666">[bigint]</text>
<polygon fill="none" stroke="#000000" points="553,-379.5 553,-409.5 816,-409.5 816,-379.5 553,-379.5"/>
<text text-anchor="start" x="560" y="-390.9" font-family="Arial" font-size="14.00" fill="#000000">baked_repo_id </text>
<text text-anchor="start" x="656.4838" y="-390.9" font-family="Arial" font-size="14.00" fill="#666666">[bigint]</text>
<polygon fill="none" stroke="#000000" points="553,-349.5 553,-379.5 816,-379.5 816,-349.5 553,-349.5"/>
<text text-anchor="start" x="560" y="-360.9" font-family="Arial" font-size="14.00" fill="#000000">commit_author_id </text>
<text text-anchor="start" x="675.1276" y="-360.9" font-family="Arial" font-size="14.00" fill="#666666">[bigint]</text>
<polygon fill="none" stroke="#000000" points="553,-319.5 553,-349.5 816,-349.5 816,-319.5 553,-319.5"/>
<text text-anchor="start" x="560" y="-330.9" font-family="Arial" font-size="14.00" fill="#000000">commit_hash </text>
<text text-anchor="start" x="647.122" y="-330.9" font-family="Arial" font-size="14.00" fill="#666666">[varchar(255)]</text>
<polygon fill="none" stroke="#000000" points="553,-289.5 553,-319.5 816,-319.5 816,-289.5 553,-289.5"/>
<text text-anchor="start" x="559.6515" y="-300.9" font-family="Arial" font-size="14.00" fill="#000000">commit_date </text>
<text text-anchor="start" x="643.6641" y="-300.9" font-family="Arial" font-size="14.00" fill="#666666">[timestamp with time zone]</text>
</g>
<!-- public.commits&#45;&gt;public.commit_authors -->
<g id="edge1" class="edge">
<title>public.commits:commit_author_id&#45;&gt;public.commit_authors:id</title>
<path fill="none" stroke="#000000" d="M542.6333,-363.3454C504.6398,-353.9128 528.7337,-288.8152 553,-247 574.5822,-209.81 615.4178,-236.19 637,-199 658.5271,-161.905 679.8889,-102.5 637,-102.5"/>
<polygon fill="#000000" stroke="#000000" points="543.0615,-363.393 552.5018,-368.9723 548.0307,-363.9465 553,-364.5 553,-364.5 553,-364.5 548.0307,-363.9465 553.4982,-360.0277 543.0615,-363.393 543.0615,-363.393"/>
<text text-anchor="start" x="7.2715" y="-374.5" font-family="Arial" font-size="10.00" fill="#000000">FOREIGN KEY (commit_author_id) REFERENCES commit_authors(id) ON UPDATE CASCADE ON DELETE CASCADE</text>
</g>
<!-- public.baked_repos -->
<g id="node3" class="node">
<title>public.baked_repos</title>
<polygon fill="#efefef" stroke="transparent" points="744,-132.5 744,-167.5 1011,-167.5 1011,-132.5 744,-132.5"/>
<polygon fill="none" stroke="#000000" points="744,-132.5 744,-167.5 1011,-167.5 1011,-132.5 744,-132.5"/>
<text text-anchor="start" x="750.8476" y="-145.3" font-family="Arial Bold" font-size="18.00" fill="#000000">public.baked_repos</text>
<text text-anchor="start" x="906.8986" y="-145.3" font-family="Arial" font-size="14.00" fill="#000000"> </text>
<text text-anchor="start" x="910.7892" y="-145.3" font-family="Arial" font-size="14.00" fill="#666666">[BASE TABLE]</text>
<polygon fill="none" stroke="#000000" points="744,-102.5 744,-132.5 1011,-132.5 1011,-102.5 744,-102.5"/>
<text text-anchor="start" x="751" y="-113.9" font-family="Arial" font-size="14.00" fill="#000000">id </text>
<text text-anchor="start" x="765.7798" y="-113.9" font-family="Arial" font-size="14.00" fill="#666666">[bigint]</text>
<polygon fill="none" stroke="#000000" points="744,-72.5 744,-102.5 1011,-102.5 1011,-72.5 744,-72.5"/>
<text text-anchor="start" x="751" y="-83.9" font-family="Arial" font-size="14.00" fill="#000000">clone_url </text>
<text text-anchor="start" x="811.6774" y="-83.9" font-family="Arial" font-size="14.00" fill="#666666">[varchar(255)]</text>
<polygon fill="none" stroke="#000000" points="744,-42.5 744,-72.5 1011,-72.5 1011,-42.5 744,-42.5"/>
<text text-anchor="start" x="751" y="-53.9" font-family="Arial" font-size="14.00" fill="#000000">repo_id </text>
<text text-anchor="start" x="801.5708" y="-53.9" font-family="Arial" font-size="14.00" fill="#666666">[bigint]</text>
</g>
<!-- public.commits&#45;&gt;public.baked_repos -->
<g id="edge2" class="edge">
<title>public.commits:baked_repo_id&#45;&gt;public.baked_repos:id</title>
<path fill="none" stroke="#000000" d="M826.2261,-393.6403C878.0227,-384.2235 848.5125,-299.6063 816,-247 797.1909,-216.5662 762.8091,-241.4338 744,-211 722.153,-175.6507 702.4444,-117.5 744,-117.5"/>
<polygon fill="#000000" stroke="#000000" points="825.9648,-393.6622 815.623,-390.0158 820.9824,-394.0811 816,-394.5 816,-394.5 816,-394.5 820.9824,-394.0811 816.377,-398.9842 825.9648,-393.6622 825.9648,-393.6622"/>
<text text-anchor="start" x="822.5885" y="-404.5" font-family="Arial" font-size="10.00" fill="#000000">FOREIGN KEY (baked_repo_id) REFERENCES baked_repos(id) ON UPDATE CASCADE ON DELETE CASCADE</text>
</g>
</g>
</svg>
