<?xml version="1.0" encoding="UTF-8" standalone="no"?>
<!DOCTYPE svg PUBLIC "-//W3C//DTD SVG 1.1//EN"
 "http://www.w3.org/Graphics/SVG/1.1/DTD/svg11.dtd">
<!-- Generated by graphviz version 2.40.1 (20161225.0304)
 -->
<!-- Title: public.users Pages: 1 -->
<svg width="1860pt" height="1756pt"
 viewBox="0.00 0.00 1860.00 1756.00" xmlns="http://www.w3.org/2000/svg" xmlns:xlink="http://www.w3.org/1999/xlink">
<g id="graph0" class="graph" transform="scale(1 1) rotate(0) translate(4 1752)">
<title>public.users</title>
<polygon fill="#ffffff" stroke="transparent" points="-4,4 -4,-1752 1856,-1752 1856,4 -4,4"/>
<!-- public.users -->
<g id="node1" class="node">
<title>public.users</title>
<polygon fill="#efefef" stroke="transparent" points="628,-1212.5 628,-1247.5 881,-1247.5 881,-1212.5 628,-1212.5"/>
<polygon fill="none" stroke="#000000" points="628,-1212.5 628,-1247.5 881,-1247.5 881,-1212.5 628,-1212.5"/>
<text text-anchor="start" x="657.8662" y="-1225.3" font-family="Arial Bold" font-size="18.00" fill="#000000">public.users</text>
<text text-anchor="start" x="753.88" y="-1225.3" font-family="Arial" font-size="14.00" fill="#000000"> </text>
<text text-anchor="start" x="757.7706" y="-1225.3" font-family="Arial" font-size="14.00" fill="#666666">[BASE TABLE]</text>
<polygon fill="none" stroke="#000000" points="628,-1182.5 628,-1212.5 881,-1212.5 881,-1182.5 628,-1182.5"/>
<text text-anchor="start" x="635" y="-1193.9" font-family="Arial" font-size="14.00" fill="#000000">id </text>
<text text-anchor="start" x="649.7798" y="-1193.9" font-family="Arial" font-size="14.00" fill="#666666">[bigint]</text>
<polygon fill="none" stroke="#000000" points="628,-1152.5 628,-1182.5 881,-1182.5 881,-1152.5 628,-1152.5"/>
<text text-anchor="start" x="635" y="-1163.9" font-family="Arial" font-size="14.00" fill="#000000">open_issues </text>
<text text-anchor="start" x="717.4754" y="-1163.9" font-family="Arial" font-size="14.00" fill="#666666">[bigint]</text>
<polygon fill="none" stroke="#000000" points="628,-1122.5 628,-1152.5 881,-1152.5 881,-1122.5 628,-1122.5"/>
<text text-anchor="start" x="635" y="-1133.9" font-family="Arial" font-size="14.00" fill="#000000">has_stars_data </text>
<text text-anchor="start" x="734.5932" y="-1133.9" font-family="Arial" font-size="14.00" fill="#666666">[boolean]</text>
<polygon fill="none" stroke="#000000" points="628,-1092.5 628,-1122.5 881,-1122.5 881,-1092.5 628,-1092.5"/>
<text text-anchor="start" x="635" y="-1103.9" font-family="Arial" font-size="14.00" fill="#000000">is_private </text>
<text text-anchor="start" x="698.7854" y="-1103.9" font-family="Arial" font-size="14.00" fill="#666666">[boolean]</text>
<polygon fill="none" stroke="#000000" points="628,-1062.5 628,-1092.5 881,-1092.5 881,-1062.5 628,-1062.5"/>
<text text-anchor="start" x="635" y="-1073.9" font-family="Arial" font-size="14.00" fill="#000000">is_open_sauced_member </text>
<text text-anchor="start" x="799.9354" y="-1073.9" font-family="Arial" font-size="14.00" fill="#666666">[boolean]</text>
<polygon fill="none" stroke="#000000" points="628,-1032.5 628,-1062.5 881,-1062.5 881,-1032.5 628,-1032.5"/>
<text text-anchor="start" x="635" y="-1043.9" font-family="Arial" font-size="14.00" fill="#000000">created_at </text>
<text text-anchor="start" x="705.028" y="-1043.9" font-family="Arial" font-size="14.00" fill="#666666">[timestamp with time zone]</text>
<polygon fill="none" stroke="#000000" points="628,-1002.5 628,-1032.5 881,-1032.5 881,-1002.5 628,-1002.5"/>
<text text-anchor="start" x="635" y="-1013.9" font-family="Arial" font-size="14.00" fill="#000000">login </text>
<text text-anchor="start" x="668.4516" y="-1013.9" font-family="Arial" font-size="14.00" fill="#666666">[varchar(255)]</text>
<polygon fill="none" stroke="#000000" points="628,-972.5 628,-1002.5 881,-1002.5 881,-972.5 628,-972.5"/>
<text text-anchor="start" x="635" y="-983.9" font-family="Arial" font-size="14.00" fill="#000000">deleted_at </text>
<text text-anchor="start" x="704.2566" y="-983.9" font-family="Arial" font-size="14.00" fill="#666666">[timestamp with time zone]</text>
<polygon fill="none" stroke="#000000" points="628,-942.5 628,-972.5 881,-972.5 881,-942.5 628,-942.5"/>
<text text-anchor="start" x="634.6915" y="-953.9" font-family="Arial" font-size="14.00" fill="#000000">updated_at </text>
<text text-anchor="start" x="708.6241" y="-953.9" font-family="Arial" font-size="14.00" fill="#666666">[timestamp with time zone]</text>
<polygon fill="none" stroke="#000000" points="628,-912.5 628,-942.5 881,-942.5 881,-912.5 628,-912.5"/>
<text text-anchor="start" x="635" y="-923.9" font-family="Arial" font-size="14.00" fill="#000000">is_onboarded </text>
<text text-anchor="start" x="723.7012" y="-923.9" font-family="Arial" font-size="14.00" fill="#666666">[boolean]</text>
<polygon fill="none" stroke="#000000" points="628,-882.5 628,-912.5 881,-912.5 881,-882.5 628,-882.5"/>
<text text-anchor="start" x="635" y="-893.9" font-family="Arial" font-size="14.00" fill="#000000">role </text>
<text text-anchor="start" x="662.223" y="-893.9" font-family="Arial" font-size="14.00" fill="#666666">[bigint]</text>
<polygon fill="none" stroke="#000000" points="628,-852.5 628,-882.5 881,-882.5 881,-852.5 628,-852.5"/>
<text text-anchor="start" x="635" y="-863.9" font-family="Arial" font-size="14.00" fill="#000000">is_waitlisted </text>
<text text-anchor="start" x="714.3352" y="-863.9" font-family="Arial" font-size="14.00" fill="#666666">[boolean]</text>
<polygon fill="none" stroke="#000000" points="628,-822.5 628,-852.5 881,-852.5 881,-822.5 628,-822.5"/>
<text text-anchor="start" x="635" y="-833.9" font-family="Arial" font-size="14.00" fill="#000000">email </text>
<text text-anchor="start" x="672.3296" y="-833.9" font-family="Arial" font-size="14.00" fill="#666666">[varchar(255)]</text>
<polygon fill="none" stroke="#000000" points="628,-792.5 628,-822.5 881,-822.5 881,-792.5 628,-792.5"/>
<text text-anchor="start" x="635" y="-803.9" font-family="Arial" font-size="14.00" fill="#000000">bio </text>
<text text-anchor="start" x="657.5624" y="-803.9" font-family="Arial" font-size="14.00" fill="#666666">[varchar(255)]</text>
<polygon fill="none" stroke="#000000" points="628,-762.5 628,-792.5 881,-792.5 881,-762.5 628,-762.5"/>
<text text-anchor="start" x="635" y="-773.9" font-family="Arial" font-size="14.00" fill="#000000">name </text>
<text text-anchor="start" x="673.899" y="-773.9" font-family="Arial" font-size="14.00" fill="#666666">[varchar(100)]</text>
<polygon fill="none" stroke="#000000" points="628,-732.5 628,-762.5 881,-762.5 881,-732.5 628,-732.5"/>
<text text-anchor="start" x="635" y="-743.9" font-family="Arial" font-size="14.00" fill="#000000">twitter_username </text>
<text text-anchor="start" x="746.2356" y="-743.9" font-family="Arial" font-size="14.00" fill="#666666">[varchar(15)]</text>
<polygon fill="none" stroke="#000000" points="628,-702.5 628,-732.5 881,-732.5 881,-702.5 628,-702.5"/>
<text text-anchor="start" x="635" y="-713.9" font-family="Arial" font-size="14.00" fill="#000000">company </text>
<text text-anchor="start" x="695.6816" y="-713.9" font-family="Arial" font-size="14.00" fill="#666666">[varchar(50)]</text>
<polygon fill="none" stroke="#000000" points="628,-672.5 628,-702.5 881,-702.5 881,-672.5 628,-672.5"/>
<text text-anchor="start" x="635" y="-683.9" font-family="Arial" font-size="14.00" fill="#000000">location </text>
<text text-anchor="start" x="687.1248" y="-683.9" font-family="Arial" font-size="14.00" fill="#666666">[varchar(50)]</text>
<polygon fill="none" stroke="#000000" points="628,-642.5 628,-672.5 881,-672.5 881,-642.5 628,-642.5"/>
<text text-anchor="start" x="635" y="-653.9" font-family="Arial" font-size="14.00" fill="#000000">display_local_time </text>
<text text-anchor="start" x="753.2356" y="-653.9" font-family="Arial" font-size="14.00" fill="#666666">[boolean]</text>
<polygon fill="none" stroke="#000000" points="628,-612.5 628,-642.5 881,-642.5 881,-612.5 628,-612.5"/>
<text text-anchor="start" x="635" y="-623.9" font-family="Arial" font-size="14.00" fill="#000000">timezone </text>
<text text-anchor="start" x="695.6788" y="-623.9" font-family="Arial" font-size="14.00" fill="#666666">[varchar(30)]</text>
<polygon fill="none" stroke="#000000" points="628,-582.5 628,-612.5 881,-612.5 881,-582.5 628,-582.5"/>
<text text-anchor="start" x="635" y="-593.9" font-family="Arial" font-size="14.00" fill="#000000">interests </text>
<text text-anchor="start" x="691.7868" y="-593.9" font-family="Arial" font-size="14.00" fill="#666666">[varchar(200)]</text>
<polygon fill="none" stroke="#000000" points="628,-552.5 628,-582.5 881,-582.5 881,-552.5 628,-552.5"/>
<text text-anchor="start" x="635" y="-563.9" font-family="Arial" font-size="14.00" fill="#000000">node_id </text>
<text text-anchor="start" x="688.6928" y="-563.9" font-family="Arial" font-size="14.00" fill="#666666">[varchar(50)]</text>
<polygon fill="none" stroke="#000000" points="628,-522.5 628,-552.5 881,-552.5 881,-522.5 628,-522.5"/>
<text text-anchor="start" x="635" y="-533.9" font-family="Arial" font-size="14.00" fill="#000000">avatar_url </text>
<text text-anchor="start" x="701.122" y="-533.9" font-family="Arial" font-size="14.00" fill="#666666">[varchar(255)]</text>
<polygon fill="none" stroke="#000000" points="628,-492.5 628,-522.5 881,-522.5 881,-492.5 628,-492.5"/>
<text text-anchor="start" x="635" y="-503.9" font-family="Arial" font-size="14.00" fill="#000000">gravatar_id </text>
<text text-anchor="start" x="708.9046" y="-503.9" font-family="Arial" font-size="14.00" fill="#666666">[varchar(255)]</text>
<polygon fill="none" stroke="#000000" points="628,-462.5 628,-492.5 881,-492.5 881,-462.5 628,-462.5"/>
<text text-anchor="start" x="635" y="-473.9" font-family="Arial" font-size="14.00" fill="#000000">url </text>
<text text-anchor="start" x="654.4404" y="-473.9" font-family="Arial" font-size="14.00" fill="#666666">[varchar(255)]</text>
<polygon fill="none" stroke="#000000" points="628,-432.5 628,-462.5 881,-462.5 881,-432.5 628,-432.5"/>
<text text-anchor="start" x="635" y="-443.9" font-family="Arial" font-size="14.00" fill="#000000">blog </text>
<text text-anchor="start" x="665.345" y="-443.9" font-family="Arial" font-size="14.00" fill="#666666">[varchar(255)]</text>
<polygon fill="none" stroke="#000000" points="628,-402.5 628,-432.5 881,-432.5 881,-402.5 628,-402.5"/>
<text text-anchor="start" x="635" y="-413.9" font-family="Arial" font-size="14.00" fill="#000000">hireable </text>
<text text-anchor="start" x="688.6774" y="-413.9" font-family="Arial" font-size="14.00" fill="#666666">[boolean]</text>
<polygon fill="none" stroke="#000000" points="628,-372.5 628,-402.5 881,-402.5 881,-372.5 628,-372.5"/>
<text text-anchor="start" x="635" y="-383.9" font-family="Arial" font-size="14.00" fill="#000000">type </text>
<text text-anchor="start" x="665.3464" y="-383.9" font-family="Arial" font-size="14.00" fill="#666666">[varchar(20)]</text>
<polygon fill="none" stroke="#000000" points="628,-342.5 628,-372.5 881,-372.5 881,-342.5 628,-342.5"/>
<text text-anchor="start" x="635" y="-353.9" font-family="Arial" font-size="14.00" fill="#000000">public_repos </text>
<text text-anchor="start" x="718.2426" y="-353.9" font-family="Arial" font-size="14.00" fill="#666666">[bigint]</text>
<polygon fill="none" stroke="#000000" points="628,-312.5 628,-342.5 881,-342.5 881,-312.5 628,-312.5"/>
<text text-anchor="start" x="635" y="-323.9" font-family="Arial" font-size="14.00" fill="#000000">public_gists </text>
<text text-anchor="start" x="712.014" y="-323.9" font-family="Arial" font-size="14.00" fill="#666666">[bigint]</text>
<polygon fill="none" stroke="#000000" points="628,-282.5 628,-312.5 881,-312.5 881,-282.5 628,-282.5"/>
<text text-anchor="start" x="635" y="-293.9" font-family="Arial" font-size="14.00" fill="#000000">followers </text>
<text text-anchor="start" x="694.1094" y="-293.9" font-family="Arial" font-size="14.00" fill="#666666">[bigint]</text>
<polygon fill="none" stroke="#000000" points="628,-252.5 628,-282.5 881,-282.5 881,-252.5 628,-252.5"/>
<text text-anchor="start" x="635" y="-263.9" font-family="Arial" font-size="14.00" fill="#000000">following </text>
<text text-anchor="start" x="693.338" y="-263.9" font-family="Arial" font-size="14.00" fill="#666666">[bigint]</text>
<polygon fill="none" stroke="#000000" points="628,-222.5 628,-252.5 881,-252.5 881,-222.5 628,-222.5"/>
<text text-anchor="start" x="635" y="-233.9" font-family="Arial" font-size="14.00" fill="#000000">display_email </text>
<text text-anchor="start" x="723.6732" y="-233.9" font-family="Arial" font-size="14.00" fill="#666666">[boolean]</text>
<polygon fill="none" stroke="#000000" points="628,-192.5 628,-222.5 881,-222.5 881,-192.5 628,-192.5"/>
<text text-anchor="start" x="635" y="-203.9" font-family="Arial" font-size="14.00" fill="#000000">receive_collaboration </text>
<text text-anchor="start" x="771.1374" y="-203.9" font-family="Arial" font-size="14.00" fill="#666666">[boolean]</text>
<polygon fill="none" stroke="#000000" points="628,-162.5 628,-192.5 881,-192.5 881,-162.5 628,-162.5"/>
<text text-anchor="start" x="635" y="-173.9" font-family="Arial" font-size="14.00" fill="#000000">linkedin_url </text>
<text text-anchor="start" x="709.6732" y="-173.9" font-family="Arial" font-size="14.00" fill="#666666">[varchar(255)]</text>
<polygon fill="none" stroke="#000000" points="628,-132.5 628,-162.5 881,-162.5 881,-132.5 628,-132.5"/>
<text text-anchor="start" x="635" y="-143.9" font-family="Arial" font-size="14.00" fill="#000000">github_sponsors_url </text>
<text text-anchor="start" x="764.9242" y="-143.9" font-family="Arial" font-size="14.00" fill="#666666">[varchar(255)]</text>
<polygon fill="none" stroke="#000000" stroke-width="3" points="626,-131.5 626,-1249.5 882,-1249.5 882,-131.5 626,-131.5"/>
</g>
<!-- public.users_to_repos_stars -->
<g id="node2" class="node">
<title>public.users_to_repos_stars</title>
<polygon fill="#efefef" stroke="transparent" points="1029,-1654.5 1029,-1689.5 1365,-1689.5 1365,-1654.5 1029,-1654.5"/>
<polygon fill="none" stroke="#000000" points="1029,-1654.5 1029,-1689.5 1365,-1689.5 1365,-1654.5 1029,-1654.5"/>
<text text-anchor="start" x="1035.847" y="-1667.3" font-family="Arial Bold" font-size="18.00" fill="#000000">public.users_to_repos_stars</text>
<text text-anchor="start" x="1260.8992" y="-1667.3" font-family="Arial" font-size="14.00" fill="#000000"> </text>
<text text-anchor="start" x="1264.7898" y="-1667.3" font-family="Arial" font-size="14.00" fill="#666666">[BASE TABLE]</text>
<polygon fill="none" stroke="#000000" points="1029,-1624.5 1029,-1654.5 1365,-1654.5 1365,-1624.5 1029,-1624.5"/>
<text text-anchor="start" x="1036" y="-1635.9" font-family="Arial" font-size="14.00" fill="#000000">id </text>
<text text-anchor="start" x="1050.7798" y="-1635.9" font-family="Arial" font-size="14.00" fill="#666666">[bigint]</text>
<polygon fill="none" stroke="#000000" points="1029,-1594.5 1029,-1624.5 1365,-1624.5 1365,-1594.5 1029,-1594.5"/>
<text text-anchor="start" x="1036" y="-1605.9" font-family="Arial" font-size="14.00" fill="#000000">user_id </text>
<text text-anchor="start" x="1085.7882" y="-1605.9" font-family="Arial" font-size="14.00" fill="#666666">[bigint]</text>
<polygon fill="none" stroke="#000000" points="1029,-1564.5 1029,-1594.5 1365,-1594.5 1365,-1564.5 1029,-1564.5"/>
<text text-anchor="start" x="1036" y="-1575.9" font-family="Arial" font-size="14.00" fill="#000000">repo_id </text>
<text text-anchor="start" x="1086.5708" y="-1575.9" font-family="Arial" font-size="14.00" fill="#666666">[bigint]</text>
<polygon fill="none" stroke="#000000" points="1029,-1534.5 1029,-1564.5 1365,-1564.5 1365,-1534.5 1029,-1534.5"/>
<text text-anchor="start" x="1036" y="-1545.9" font-family="Arial" font-size="14.00" fill="#000000">created_at </text>
<text text-anchor="start" x="1106.028" y="-1545.9" font-family="Arial" font-size="14.00" fill="#666666">[timestamp with time zone]</text>
<polygon fill="none" stroke="#000000" points="1029,-1504.5 1029,-1534.5 1365,-1534.5 1365,-1504.5 1029,-1504.5"/>
<text text-anchor="start" x="1036" y="-1515.9" font-family="Arial" font-size="14.00" fill="#000000">updated_at </text>
<text text-anchor="start" x="1109.9326" y="-1515.9" font-family="Arial" font-size="14.00" fill="#666666">[timestamp with time zone]</text>
<polygon fill="none" stroke="#000000" points="1029,-1474.5 1029,-1504.5 1365,-1504.5 1365,-1474.5 1029,-1474.5"/>
<text text-anchor="start" x="1036" y="-1485.9" font-family="Arial" font-size="14.00" fill="#000000">deleted_at </text>
<text text-anchor="start" x="1105.2566" y="-1485.9" font-family="Arial" font-size="14.00" fill="#666666">[timestamp with time zone]</text>
</g>
<!-- public.users_to_repos_stars&#45;&gt;public.users -->
<g id="edge1" class="edge">
<title>public.users_to_repos_stars:user_id&#45;&gt;public.users:id</title>
<path fill="none" stroke="#000000" d="M1018.9171,-1608.934C946.5853,-1600.1927 1016.7999,-1492.0919 977,-1417 967.1119,-1398.3438 956.5952,-1399.2639 946,-1381 902.5844,-1306.1605 967.521,-1197.5 881,-1197.5"/>
<polygon fill="#000000" stroke="#000000" points="1019.0157,-1608.9395 1028.7478,-1613.9929 1024.0079,-1609.2197 1029,-1609.5 1029,-1609.5 1029,-1609.5 1024.0079,-1609.2197 1029.2522,-1605.0071 1019.0157,-1608.9395 1019.0157,-1608.9395"/>
<text text-anchor="start" x="799.3345" y="-1619.5" font-family="Arial" font-size="10.00" fill="#000000">FOREIGN KEY (user_id) REFERENCES users(id)</text>
</g>
<!-- public.repos -->
<g id="node3" class="node">
<title>public.repos</title>
<polygon fill="#efefef" stroke="transparent" points="998,-1302.5 998,-1337.5 1376,-1337.5 1376,-1302.5 998,-1302.5"/>
<polygon fill="none" stroke="#000000" points="998,-1302.5 998,-1337.5 1376,-1337.5 1376,-1302.5 998,-1302.5"/>
<text text-anchor="start" x="1089.8631" y="-1315.3" font-family="Arial Bold" font-size="18.00" fill="#000000">public.repos</text>
<text text-anchor="start" x="1186.8831" y="-1315.3" font-family="Arial" font-size="14.00" fill="#000000"> </text>
<text text-anchor="start" x="1190.7737" y="-1315.3" font-family="Arial" font-size="14.00" fill="#666666">[BASE TABLE]</text>
<polygon fill="none" stroke="#000000" points="998,-1272.5 998,-1302.5 1376,-1302.5 1376,-1272.5 998,-1272.5"/>
<text text-anchor="start" x="1005" y="-1283.9" font-family="Arial" font-size="14.00" fill="#000000">id </text>
<text text-anchor="start" x="1019.7798" y="-1283.9" font-family="Arial" font-size="14.00" fill="#666666">[bigint]</text>
<polygon fill="none" stroke="#000000" points="998,-1242.5 998,-1272.5 1376,-1272.5 1376,-1242.5 998,-1242.5"/>
<text text-anchor="start" x="1005" y="-1253.9" font-family="Arial" font-size="14.00" fill="#000000">user_id </text>
<text text-anchor="start" x="1054.7882" y="-1253.9" font-family="Arial" font-size="14.00" fill="#666666">[bigint]</text>
<polygon fill="none" stroke="#000000" points="998,-1212.5 998,-1242.5 1376,-1242.5 1376,-1212.5 998,-1212.5"/>
<text text-anchor="start" x="1005" y="-1223.9" font-family="Arial" font-size="14.00" fill="#000000">issues </text>
<text text-anchor="start" x="1048.5624" y="-1223.9" font-family="Arial" font-size="14.00" fill="#666666">[bigint]</text>
<polygon fill="none" stroke="#000000" points="998,-1182.5 998,-1212.5 1376,-1212.5 1376,-1182.5 998,-1182.5"/>
<text text-anchor="start" x="1005" y="-1193.9" font-family="Arial" font-size="14.00" fill="#000000">stars </text>
<text text-anchor="start" x="1039.2244" y="-1193.9" font-family="Arial" font-size="14.00" fill="#666666">[bigint]</text>
<polygon fill="none" stroke="#000000" points="998,-1152.5 998,-1182.5 1376,-1182.5 1376,-1152.5 998,-1152.5"/>
<text text-anchor="start" x="1005" y="-1163.9" font-family="Arial" font-size="14.00" fill="#000000">watchers </text>
<text text-anchor="start" x="1064.8962" y="-1163.9" font-family="Arial" font-size="14.00" fill="#666666">[bigint]</text>
<polygon fill="none" stroke="#000000" points="998,-1122.5 998,-1152.5 1376,-1152.5 1376,-1122.5 998,-1122.5"/>
<text text-anchor="start" x="1005" y="-1133.9" font-family="Arial" font-size="14.00" fill="#000000">subscribers </text>
<text text-anchor="start" x="1080.4488" y="-1133.9" font-family="Arial" font-size="14.00" fill="#666666">[bigint]</text>
<polygon fill="none" stroke="#000000" points="998,-1092.5 998,-1122.5 1376,-1122.5 1376,-1092.5 998,-1092.5"/>
<text text-anchor="start" x="1005" y="-1103.9" font-family="Arial" font-size="14.00" fill="#000000">is_fork </text>
<text text-anchor="start" x="1050.1136" y="-1103.9" font-family="Arial" font-size="14.00" fill="#666666">[boolean]</text>
<polygon fill="none" stroke="#000000" points="998,-1062.5 998,-1092.5 1376,-1092.5 1376,-1062.5 998,-1062.5"/>
<text text-anchor="start" x="1005" y="-1073.9" font-family="Arial" font-size="14.00" fill="#000000">created_at </text>
<text text-anchor="start" x="1075.028" y="-1073.9" font-family="Arial" font-size="14.00" fill="#666666">[timestamp without time zone]</text>
<polygon fill="none" stroke="#000000" points="998,-1032.5 998,-1062.5 1376,-1062.5 1376,-1032.5 998,-1032.5"/>
<text text-anchor="start" x="1005" y="-1043.9" font-family="Arial" font-size="14.00" fill="#000000">updated_at </text>
<text text-anchor="start" x="1078.9326" y="-1043.9" font-family="Arial" font-size="14.00" fill="#666666">[timestamp without time zone]</text>
<polygon fill="none" stroke="#000000" points="998,-1002.5 998,-1032.5 1376,-1032.5 1376,-1002.5 998,-1002.5"/>
<text text-anchor="start" x="1005" y="-1013.9" font-family="Arial" font-size="14.00" fill="#000000">pushed_at </text>
<text text-anchor="start" x="1074.2594" y="-1013.9" font-family="Arial" font-size="14.00" fill="#666666">[timestamp without time zone]</text>
<polygon fill="none" stroke="#000000" points="998,-972.5 998,-1002.5 1376,-1002.5 1376,-972.5 998,-972.5"/>
<text text-anchor="start" x="1004.5674" y="-983.9" font-family="Arial" font-size="14.00" fill="#000000">last_fetched_contributors_at </text>
<text text-anchor="start" x="1184.2924" y="-983.9" font-family="Arial" font-size="14.00" fill="#666666">[timestamp without time zone]</text>
<polygon fill="none" stroke="#000000" points="998,-942.5 998,-972.5 1376,-972.5 1376,-942.5 998,-942.5"/>
<text text-anchor="start" x="1005" y="-953.9" font-family="Arial" font-size="14.00" fill="#000000">name </text>
<text text-anchor="start" x="1043.899" y="-953.9" font-family="Arial" font-size="14.00" fill="#666666">[varchar(255)]</text>
<polygon fill="none" stroke="#000000" points="998,-912.5 998,-942.5 1376,-942.5 1376,-912.5 998,-912.5"/>
<text text-anchor="start" x="1005" y="-923.9" font-family="Arial" font-size="14.00" fill="#000000">full_name </text>
<text text-anchor="start" x="1069.568" y="-923.9" font-family="Arial" font-size="14.00" fill="#666666">[varchar(255)]</text>
<polygon fill="none" stroke="#000000" points="998,-882.5 998,-912.5 1376,-912.5 1376,-882.5 998,-882.5"/>
<text text-anchor="start" x="1005" y="-893.9" font-family="Arial" font-size="14.00" fill="#000000">description </text>
<text text-anchor="start" x="1076.568" y="-893.9" font-family="Arial" font-size="14.00" fill="#666666">[text]</text>
<polygon fill="none" stroke="#000000" points="998,-852.5 998,-882.5 1376,-882.5 1376,-852.5 998,-852.5"/>
<text text-anchor="start" x="1005" y="-863.9" font-family="Arial" font-size="14.00" fill="#000000">language </text>
<text text-anchor="start" x="1066.4754" y="-863.9" font-family="Arial" font-size="14.00" fill="#666666">[varchar(64)]</text>
<polygon fill="none" stroke="#000000" points="998,-822.5 998,-852.5 1376,-852.5 1376,-822.5 998,-822.5"/>
<text text-anchor="start" x="1005" y="-833.9" font-family="Arial" font-size="14.00" fill="#000000">license </text>
<text text-anchor="start" x="1052.4516" y="-833.9" font-family="Arial" font-size="14.00" fill="#666666">[varchar(64)]</text>
<polygon fill="none" stroke="#000000" points="998,-792.5 998,-822.5 1376,-822.5 1376,-792.5 998,-792.5"/>
<text text-anchor="start" x="1005" y="-803.9" font-family="Arial" font-size="14.00" fill="#000000">url </text>
<text text-anchor="start" x="1024.4404" y="-803.9" font-family="Arial" font-size="14.00" fill="#666666">[varchar(255)]</text>
<polygon fill="none" stroke="#000000" points="998,-762.5 998,-792.5 1376,-792.5 1376,-762.5 998,-762.5"/>
<text text-anchor="start" x="1005" y="-773.9" font-family="Arial" font-size="14.00" fill="#000000">deleted_at </text>
<text text-anchor="start" x="1074.2566" y="-773.9" font-family="Arial" font-size="14.00" fill="#666666">[timestamp with time zone]</text>
<polygon fill="none" stroke="#000000" points="998,-732.5 998,-762.5 1376,-762.5 1376,-732.5 998,-732.5"/>
<text text-anchor="start" x="1005" y="-743.9" font-family="Arial" font-size="14.00" fill="#000000">last_fetched_repos_at </text>
<text text-anchor="start" x="1146.6114" y="-743.9" font-family="Arial" font-size="14.00" fill="#666666">[timestamp without time zone]</text>
<polygon fill="none" stroke="#000000" points="998,-702.5 998,-732.5 1376,-732.5 1376,-702.5 998,-702.5"/>
<text text-anchor="start" x="1005" y="-713.9" font-family="Arial" font-size="14.00" fill="#000000">last_fetched_prs_at </text>
<text text-anchor="start" x="1131.0462" y="-713.9" font-family="Arial" font-size="14.00" fill="#666666">[timestamp without time zone]</text>
<polygon fill="none" stroke="#000000" points="998,-672.5 998,-702.5 1376,-702.5 1376,-672.5 998,-672.5"/>
<text text-anchor="start" x="1005" y="-683.9" font-family="Arial" font-size="14.00" fill="#000000">last_fetched_commits_at </text>
<text text-anchor="start" x="1163.704" y="-683.9" font-family="Arial" font-size="14.00" fill="#666666">[timestamp without time zone]</text>
<polygon fill="none" stroke="#000000" points="998,-642.5 998,-672.5 1376,-672.5 1376,-642.5 998,-642.5"/>
<text text-anchor="start" x="1005" y="-653.9" font-family="Arial" font-size="14.00" fill="#000000">size </text>
<text text-anchor="start" x="1033.7798" y="-653.9" font-family="Arial" font-size="14.00" fill="#666666">[bigint]</text>
<polygon fill="none" stroke="#000000" points="998,-612.5 998,-642.5 1376,-642.5 1376,-612.5 998,-612.5"/>
<text text-anchor="start" x="1005" y="-623.9" font-family="Arial" font-size="14.00" fill="#000000">forks </text>
<text text-anchor="start" x="1039.2244" y="-623.9" font-family="Arial" font-size="14.00" fill="#666666">[bigint]</text>
<polygon fill="none" stroke="#000000" points="998,-582.5 998,-612.5 1376,-612.5 1376,-582.5 998,-582.5"/>
<text text-anchor="start" x="1005" y="-593.9" font-family="Arial" font-size="14.00" fill="#000000">network </text>
<text text-anchor="start" x="1057.8962" y="-593.9" font-family="Arial" font-size="14.00" fill="#666666">[bigint]</text>
<polygon fill="none" stroke="#000000" points="998,-552.5 998,-582.5 1376,-582.5 1376,-552.5 998,-552.5"/>
<text text-anchor="start" x="1005" y="-563.9" font-family="Arial" font-size="14.00" fill="#000000">is_private </text>
<text text-anchor="start" x="1068.7854" y="-563.9" font-family="Arial" font-size="14.00" fill="#666666">[boolean]</text>
<polygon fill="none" stroke="#000000" points="998,-522.5 998,-552.5 1376,-552.5 1376,-522.5 998,-522.5"/>
<text text-anchor="start" x="1005" y="-533.9" font-family="Arial" font-size="14.00" fill="#000000">is_template </text>
<text text-anchor="start" x="1080.4586" y="-533.9" font-family="Arial" font-size="14.00" fill="#666666">[boolean]</text>
<polygon fill="none" stroke="#000000" points="998,-492.5 998,-522.5 1376,-522.5 1376,-492.5 998,-492.5"/>
<text text-anchor="start" x="1005" y="-503.9" font-family="Arial" font-size="14.00" fill="#000000">is_archived </text>
<text text-anchor="start" x="1079.6774" y="-503.9" font-family="Arial" font-size="14.00" fill="#666666">[boolean]</text>
<polygon fill="none" stroke="#000000" points="998,-462.5 998,-492.5 1376,-492.5 1376,-462.5 998,-462.5"/>
<text text-anchor="start" x="1005" y="-473.9" font-family="Arial" font-size="14.00" fill="#000000">is_disabled </text>
<text text-anchor="start" x="1078.906" y="-473.9" font-family="Arial" font-size="14.00" fill="#666666">[boolean]</text>
<polygon fill="none" stroke="#000000" points="998,-432.5 998,-462.5 1376,-462.5 1376,-432.5 998,-432.5"/>
<text text-anchor="start" x="1005" y="-443.9" font-family="Arial" font-size="14.00" fill="#000000">has_issues </text>
<text text-anchor="start" x="1078.9102" y="-443.9" font-family="Arial" font-size="14.00" fill="#666666">[boolean]</text>
<polygon fill="none" stroke="#000000" points="998,-402.5 998,-432.5 1376,-432.5 1376,-402.5 998,-402.5"/>
<text text-anchor="start" x="1005" y="-413.9" font-family="Arial" font-size="14.00" fill="#000000">has_projects </text>
<text text-anchor="start" x="1088.244" y="-413.9" font-family="Arial" font-size="14.00" fill="#666666">[boolean]</text>
<polygon fill="none" stroke="#000000" points="998,-372.5 998,-402.5 1376,-402.5 1376,-372.5 998,-372.5"/>
<text text-anchor="start" x="1005" y="-383.9" font-family="Arial" font-size="14.00" fill="#000000">has_downloads </text>
<text text-anchor="start" x="1106.1472" y="-383.9" font-family="Arial" font-size="14.00" fill="#666666">[boolean]</text>
<polygon fill="none" stroke="#000000" points="998,-342.5 998,-372.5 1376,-372.5 1376,-342.5 998,-342.5"/>
<text text-anchor="start" x="1005" y="-353.9" font-family="Arial" font-size="14.00" fill="#000000">has_wiki </text>
<text text-anchor="start" x="1062.5582" y="-353.9" font-family="Arial" font-size="14.00" fill="#666666">[boolean]</text>
<polygon fill="none" stroke="#000000" points="998,-312.5 998,-342.5 1376,-342.5 1376,-312.5 998,-312.5"/>
<text text-anchor="start" x="1005" y="-323.9" font-family="Arial" font-size="14.00" fill="#000000">has_pages </text>
<text text-anchor="start" x="1077.3688" y="-323.9" font-family="Arial" font-size="14.00" fill="#666666">[boolean]</text>
<polygon fill="none" stroke="#000000" points="998,-282.5 998,-312.5 1376,-312.5 1376,-282.5 998,-282.5"/>
<text text-anchor="start" x="1005" y="-293.9" font-family="Arial" font-size="14.00" fill="#000000">has_discussions </text>
<text text-anchor="start" x="1111.582" y="-293.9" font-family="Arial" font-size="14.00" fill="#666666">[boolean]</text>
<polygon fill="none" stroke="#000000" points="998,-252.5 998,-282.5 1376,-282.5 1376,-252.5 998,-252.5"/>
<text text-anchor="start" x="1005" y="-263.9" font-family="Arial" font-size="14.00" fill="#000000">default_branch </text>
<text text-anchor="start" x="1101.4824" y="-263.9" font-family="Arial" font-size="14.00" fill="#666666">[varchar(255)]</text>
<polygon fill="none" stroke="#000000" points="998,-222.5 998,-252.5 1376,-252.5 1376,-222.5 998,-222.5"/>
<text text-anchor="start" x="1005" y="-233.9" font-family="Arial" font-size="14.00" fill="#000000">node_id </text>
<text text-anchor="start" x="1058.6928" y="-233.9" font-family="Arial" font-size="14.00" fill="#666666">[varchar(255)]</text>
<polygon fill="none" stroke="#000000" points="998,-192.5 998,-222.5 1376,-222.5 1376,-192.5 998,-192.5"/>
<text text-anchor="start" x="1005" y="-203.9" font-family="Arial" font-size="14.00" fill="#000000">git_url </text>
<text text-anchor="start" x="1047.0028" y="-203.9" font-family="Arial" font-size="14.00" fill="#666666">[varchar(255)]</text>
<polygon fill="none" stroke="#000000" points="998,-162.5 998,-192.5 1376,-192.5 1376,-162.5 998,-162.5"/>
<text text-anchor="start" x="1005" y="-173.9" font-family="Arial" font-size="14.00" fill="#000000">ssh_url </text>
<text text-anchor="start" x="1054.0056" y="-173.9" font-family="Arial" font-size="14.00" fill="#666666">[varchar(255)]</text>
<polygon fill="none" stroke="#000000" points="998,-132.5 998,-162.5 1376,-162.5 1376,-132.5 998,-132.5"/>
<text text-anchor="start" x="1005" y="-143.9" font-family="Arial" font-size="14.00" fill="#000000">clone_url </text>
<text text-anchor="start" x="1065.6774" y="-143.9" font-family="Arial" font-size="14.00" fill="#666666">[varchar(255)]</text>
<polygon fill="none" stroke="#000000" points="998,-102.5 998,-132.5 1376,-132.5 1376,-102.5 998,-102.5"/>
<text text-anchor="start" x="1005" y="-113.9" font-family="Arial" font-size="14.00" fill="#000000">svn_url </text>
<text text-anchor="start" x="1054.0056" y="-113.9" font-family="Arial" font-size="14.00" fill="#666666">[varchar(255)]</text>
<polygon fill="none" stroke="#000000" points="998,-72.5 998,-102.5 1376,-102.5 1376,-72.5 998,-72.5"/>
<text text-anchor="start" x="1005" y="-83.9" font-family="Arial" font-size="14.00" fill="#000000">mirror_url </text>
<text text-anchor="start" x="1068.7546" y="-83.9" font-family="Arial" font-size="14.00" fill="#666666">[varchar(255)]</text>
<polygon fill="none" stroke="#000000" points="998,-42.5 998,-72.5 1376,-72.5 1376,-42.5 998,-42.5"/>
<text text-anchor="start" x="1005" y="-53.9" font-family="Arial" font-size="14.00" fill="#000000">homepage </text>
<text text-anchor="start" x="1075.0294" y="-53.9" font-family="Arial" font-size="14.00" fill="#666666">[varchar(255)]</text>
</g>
<!-- public.users_to_repos_stars&#45;&gt;public.repos -->
<g id="edge2" class="edge">
<title>public.users_to_repos_stars:repo_id&#45;&gt;public.repos:id</title>
<path fill="none" stroke="#000000" d="M1019.0255,-1578.6456C965.9879,-1568.9377 988.4913,-1478.8976 1029,-1432 1130.8946,-1314.0349 1274.1054,-1498.9651 1376,-1381 1403.1639,-1349.5519 1417.5556,-1287.5 1376,-1287.5"/>
<polygon fill="#000000" stroke="#000000" points="1019.0365,-1578.6465 1028.6159,-1583.9836 1024.0182,-1579.0732 1029,-1579.5 1029,-1579.5 1029,-1579.5 1024.0182,-1579.0732 1029.3841,-1575.0164 1019.0365,-1578.6465 1019.0365,-1578.6465"/>
<text text-anchor="start" x="797.7755" y="-1589.5" font-family="Arial" font-size="10.00" fill="#000000">FOREIGN KEY (repo_id) REFERENCES repos(id)</text>
</g>
<!-- public.users_to_repos_votes -->
<g id="node4" class="node">
<title>public.users_to_repos_votes</title>
<polygon fill="#efefef" stroke="transparent" points="1469,-1654.5 1469,-1689.5 1809,-1689.5 1809,-1654.5 1469,-1654.5"/>
<polygon fill="none" stroke="#000000" points="1469,-1654.5 1469,-1689.5 1809,-1689.5 1809,-1654.5 1469,-1654.5"/>
<text text-anchor="start" x="1475.84" y="-1667.3" font-family="Arial Bold" font-size="18.00" fill="#000000">public.users_to_repos_votes</text>
<text text-anchor="start" x="1704.9062" y="-1667.3" font-family="Arial" font-size="14.00" fill="#000000"> </text>
<text text-anchor="start" x="1708.7968" y="-1667.3" font-family="Arial" font-size="14.00" fill="#666666">[BASE TABLE]</text>
<polygon fill="none" stroke="#000000" points="1469,-1624.5 1469,-1654.5 1809,-1654.5 1809,-1624.5 1469,-1624.5"/>
<text text-anchor="start" x="1476" y="-1635.9" font-family="Arial" font-size="14.00" fill="#000000">id </text>
<text text-anchor="start" x="1490.7798" y="-1635.9" font-family="Arial" font-size="14.00" fill="#666666">[bigint]</text>
<polygon fill="none" stroke="#000000" points="1469,-1594.5 1469,-1624.5 1809,-1624.5 1809,-1594.5 1469,-1594.5"/>
<text text-anchor="start" x="1476" y="-1605.9" font-family="Arial" font-size="14.00" fill="#000000">user_id </text>
<text text-anchor="start" x="1525.7882" y="-1605.9" font-family="Arial" font-size="14.00" fill="#666666">[bigint]</text>
<polygon fill="none" stroke="#000000" points="1469,-1564.5 1469,-1594.5 1809,-1594.5 1809,-1564.5 1469,-1564.5"/>
<text text-anchor="start" x="1476" y="-1575.9" font-family="Arial" font-size="14.00" fill="#000000">repo_id </text>
<text text-anchor="start" x="1526.5708" y="-1575.9" font-family="Arial" font-size="14.00" fill="#666666">[bigint]</text>
<polygon fill="none" stroke="#000000" points="1469,-1534.5 1469,-1564.5 1809,-1564.5 1809,-1534.5 1469,-1534.5"/>
<text text-anchor="start" x="1476" y="-1545.9" font-family="Arial" font-size="14.00" fill="#000000">created_at </text>
<text text-anchor="start" x="1546.028" y="-1545.9" font-family="Arial" font-size="14.00" fill="#666666">[timestamp with time zone]</text>
<polygon fill="none" stroke="#000000" points="1469,-1504.5 1469,-1534.5 1809,-1534.5 1809,-1504.5 1469,-1504.5"/>
<text text-anchor="start" x="1476" y="-1515.9" font-family="Arial" font-size="14.00" fill="#000000">updated_at </text>
<text text-anchor="start" x="1549.9326" y="-1515.9" font-family="Arial" font-size="14.00" fill="#666666">[timestamp with time zone]</text>
<polygon fill="none" stroke="#000000" points="1469,-1474.5 1469,-1504.5 1809,-1504.5 1809,-1474.5 1469,-1474.5"/>
<text text-anchor="start" x="1476" y="-1485.9" font-family="Arial" font-size="14.00" fill="#000000">deleted_at </text>
<text text-anchor="start" x="1545.2566" y="-1485.9" font-family="Arial" font-size="14.00" fill="#666666">[timestamp with time zone]</text>
</g>
<!-- public.users_to_repos_votes&#45;&gt;public.users -->
<g id="edge3" class="edge">
<title>public.users_to_repos_votes:user_id&#45;&gt;public.users:id</title>
<path fill="none" stroke="#000000" d="M1458.6188,-1608.7639C1389.0713,-1597.9611 1482.3248,-1471.0935 1417,-1417 1336.1494,-1350.05 1029.3548,-1444.8051 946,-1381 877.2965,-1328.41 967.521,-1197.5 881,-1197.5"/>
<polygon fill="#000000" stroke="#000000" points="1459.025,-1608.7926 1468.6817,-1613.9887 1464.0125,-1609.1463 1469,-1609.5 1469,-1609.5 1469,-1609.5 1464.0125,-1609.1463 1469.3183,-1605.0113 1459.025,-1608.7926 1459.025,-1608.7926"/>
<text text-anchor="start" x="1239.3345" y="-1619.5" font-family="Arial" font-size="10.00" fill="#000000">FOREIGN KEY (user_id) REFERENCES users(id)</text>
</g>
<!-- public.users_to_repos_votes&#45;&gt;public.repos -->
<g id="edge4" class="edge">
<title>public.users_to_repos_votes:repo_id&#45;&gt;public.repos:id</title>
<path fill="none" stroke="#000000" d="M1459.1222,-1577.1496C1405.1463,-1549.5152 1440.5093,-1287.5 1376,-1287.5"/>
<polygon fill="#000000" stroke="#000000" points="1459.2716,-1577.185 1467.9583,-1583.8778 1464.1358,-1578.3425 1469,-1579.5 1469,-1579.5 1469,-1579.5 1464.1358,-1578.3425 1470.0417,-1575.1222 1459.2716,-1577.185 1459.2716,-1577.185"/>
<text text-anchor="start" x="1237.7755" y="-1589.5" font-family="Arial" font-size="10.00" fill="#000000">FOREIGN KEY (repo_id) REFERENCES repos(id)</text>
</g>
<!-- public.users_to_repos_submissions -->
<g id="node5" class="node">
<title>public.users_to_repos_submissions</title>
<polygon fill="#efefef" stroke="transparent" points="43,-1669.5 43,-1704.5 439,-1704.5 439,-1669.5 43,-1669.5"/>
<polygon fill="none" stroke="#000000" points="43,-1669.5 43,-1704.5 439,-1704.5 439,-1669.5 43,-1669.5"/>
<text text-anchor="start" x="49.8446" y="-1682.3" font-family="Arial Bold" font-size="18.00" fill="#000000">public.users_to_repos_submissions</text>
<text text-anchor="start" x="334.9016" y="-1682.3" font-family="Arial" font-size="14.00" fill="#000000"> </text>
<text text-anchor="start" x="338.7922" y="-1682.3" font-family="Arial" font-size="14.00" fill="#666666">[BASE TABLE]</text>
<polygon fill="none" stroke="#000000" points="43,-1639.5 43,-1669.5 439,-1669.5 439,-1639.5 43,-1639.5"/>
<text text-anchor="start" x="50" y="-1650.9" font-family="Arial" font-size="14.00" fill="#000000">id </text>
<text text-anchor="start" x="64.7798" y="-1650.9" font-family="Arial" font-size="14.00" fill="#666666">[bigint]</text>
<polygon fill="none" stroke="#000000" points="43,-1609.5 43,-1639.5 439,-1639.5 439,-1609.5 43,-1609.5"/>
<text text-anchor="start" x="50" y="-1620.9" font-family="Arial" font-size="14.00" fill="#000000">user_id </text>
<text text-anchor="start" x="99.7882" y="-1620.9" font-family="Arial" font-size="14.00" fill="#666666">[bigint]</text>
<polygon fill="none" stroke="#000000" points="43,-1579.5 43,-1609.5 439,-1609.5 439,-1579.5 43,-1579.5"/>
<text text-anchor="start" x="50" y="-1590.9" font-family="Arial" font-size="14.00" fill="#000000">repo_id </text>
<text text-anchor="start" x="100.5708" y="-1590.9" font-family="Arial" font-size="14.00" fill="#666666">[bigint]</text>
<polygon fill="none" stroke="#000000" points="43,-1549.5 43,-1579.5 439,-1579.5 439,-1549.5 43,-1549.5"/>
<text text-anchor="start" x="50" y="-1560.9" font-family="Arial" font-size="14.00" fill="#000000">created_at </text>
<text text-anchor="start" x="120.028" y="-1560.9" font-family="Arial" font-size="14.00" fill="#666666">[timestamp with time zone]</text>
<polygon fill="none" stroke="#000000" points="43,-1519.5 43,-1549.5 439,-1549.5 439,-1519.5 43,-1519.5"/>
<text text-anchor="start" x="50" y="-1530.9" font-family="Arial" font-size="14.00" fill="#000000">updated_at </text>
<text text-anchor="start" x="123.9326" y="-1530.9" font-family="Arial" font-size="14.00" fill="#666666">[timestamp with time zone]</text>
<polygon fill="none" stroke="#000000" points="43,-1489.5 43,-1519.5 439,-1519.5 439,-1489.5 43,-1489.5"/>
<text text-anchor="start" x="50" y="-1500.9" font-family="Arial" font-size="14.00" fill="#000000">deleted_at </text>
<text text-anchor="start" x="119.2566" y="-1500.9" font-family="Arial" font-size="14.00" fill="#666666">[timestamp with time zone]</text>
<polygon fill="none" stroke="#000000" points="43,-1459.5 43,-1489.5 439,-1489.5 439,-1459.5 43,-1459.5"/>
<text text-anchor="start" x="50" y="-1470.9" font-family="Arial" font-size="14.00" fill="#000000">is_accepted </text>
<text text-anchor="start" x="128.5834" y="-1470.9" font-family="Arial" font-size="14.00" fill="#666666">[boolean]</text>
</g>
<!-- public.users_to_repos_submissions&#45;&gt;public.users -->
<g id="edge5" class="edge">
<title>public.users_to_repos_submissions:user_id&#45;&gt;public.users:id</title>
<path fill="none" stroke="#000000" d="M449.3722,-1623.9601C528.1534,-1615.1806 456.1809,-1501.1595 492,-1417 536.9431,-1311.403 513.2367,-1197.5 628,-1197.5"/>
<polygon fill="#000000" stroke="#000000" points="448.9865,-1623.9801 438.7661,-1620.0061 443.9932,-1624.2401 439,-1624.5 439,-1624.5 439,-1624.5 443.9932,-1624.2401 439.2339,-1628.9939 448.9865,-1623.9801 448.9865,-1623.9801"/>
<text text-anchor="start" x="446.3345" y="-1634.5" font-family="Arial" font-size="10.00" fill="#000000">FOREIGN KEY (user_id) REFERENCES users(id)</text>
</g>
<!-- public.users_to_repos_submissions&#45;&gt;public.repos -->
<g id="edge6" class="edge">
<title>public.users_to_repos_submissions:repo_id&#45;&gt;public.repos:id</title>
<path fill="none" stroke="#000000" d="M449.0622,-1593.7572C513.2648,-1583.3573 430.8958,-1466.4903 492,-1417 568.9244,-1354.6964 850.7451,-1431.3062 936,-1381 978.9429,-1355.6607 948.1385,-1287.5 998,-1287.5"/>
<polygon fill="#000000" stroke="#000000" points="448.9729,-1593.7637 438.6687,-1590.0122 443.9864,-1594.1319 439,-1594.5 439,-1594.5 439,-1594.5 443.9864,-1594.1319 439.3313,-1598.9878 448.9729,-1593.7637 448.9729,-1593.7637"/>
<text text-anchor="start" x="445.7755" y="-1604.5" font-family="Arial" font-size="10.00" fill="#000000">FOREIGN KEY (repo_id) REFERENCES repos(id)</text>
</g>
<!-- public.users_to_repos_stargazers -->
<g id="node6" class="node">
<title>public.users_to_repos_stargazers</title>
<polygon fill="#efefef" stroke="transparent" points="544,-1654.5 544,-1689.5 925,-1689.5 925,-1654.5 544,-1654.5"/>
<polygon fill="none" stroke="#000000" points="544,-1654.5 544,-1689.5 925,-1689.5 925,-1654.5 544,-1654.5"/>
<text text-anchor="start" x="550.8416" y="-1667.3" font-family="Arial Bold" font-size="18.00" fill="#000000">public.users_to_repos_stargazers</text>
<text text-anchor="start" x="820.9046" y="-1667.3" font-family="Arial" font-size="14.00" fill="#000000"> </text>
<text text-anchor="start" x="824.7952" y="-1667.3" font-family="Arial" font-size="14.00" fill="#666666">[BASE TABLE]</text>
<polygon fill="none" stroke="#000000" points="544,-1624.5 544,-1654.5 925,-1654.5 925,-1624.5 544,-1624.5"/>
<text text-anchor="start" x="551" y="-1635.9" font-family="Arial" font-size="14.00" fill="#000000">id </text>
<text text-anchor="start" x="565.7798" y="-1635.9" font-family="Arial" font-size="14.00" fill="#666666">[bigint]</text>
<polygon fill="none" stroke="#000000" points="544,-1594.5 544,-1624.5 925,-1624.5 925,-1594.5 544,-1594.5"/>
<text text-anchor="start" x="551" y="-1605.9" font-family="Arial" font-size="14.00" fill="#000000">user_id </text>
<text text-anchor="start" x="600.7882" y="-1605.9" font-family="Arial" font-size="14.00" fill="#666666">[bigint]</text>
<polygon fill="none" stroke="#000000" points="544,-1564.5 544,-1594.5 925,-1594.5 925,-1564.5 544,-1564.5"/>
<text text-anchor="start" x="551" y="-1575.9" font-family="Arial" font-size="14.00" fill="#000000">repo_id </text>
<text text-anchor="start" x="601.5708" y="-1575.9" font-family="Arial" font-size="14.00" fill="#666666">[bigint]</text>
<polygon fill="none" stroke="#000000" points="544,-1534.5 544,-1564.5 925,-1564.5 925,-1534.5 544,-1534.5"/>
<text text-anchor="start" x="551" y="-1545.9" font-family="Arial" font-size="14.00" fill="#000000">created_at </text>
<text text-anchor="start" x="621.028" y="-1545.9" font-family="Arial" font-size="14.00" fill="#666666">[timestamp without time zone]</text>
<polygon fill="none" stroke="#000000" points="544,-1504.5 544,-1534.5 925,-1534.5 925,-1504.5 544,-1504.5"/>
<text text-anchor="start" x="551" y="-1515.9" font-family="Arial" font-size="14.00" fill="#000000">updated_at </text>
<text text-anchor="start" x="624.9326" y="-1515.9" font-family="Arial" font-size="14.00" fill="#666666">[timestamp without time zone]</text>
<polygon fill="none" stroke="#000000" points="544,-1474.5 544,-1504.5 925,-1504.5 925,-1474.5 544,-1474.5"/>
<text text-anchor="start" x="551" y="-1485.9" font-family="Arial" font-size="14.00" fill="#000000">deleted_at </text>
<text text-anchor="start" x="620.2566" y="-1485.9" font-family="Arial" font-size="14.00" fill="#666666">[timestamp without time zone]</text>
</g>
<!-- public.users_to_repos_stargazers&#45;&gt;public.users -->
<g id="edge7" class="edge">
<title>public.users_to_repos_stargazers:user_id&#45;&gt;public.users:id</title>
<path fill="none" stroke="#000000" d="M935.3447,-1608.7844C1000.458,-1599.192 965.4434,-1495.3878 925,-1432 846.7105,-1309.295 706.2895,-1416.705 628,-1294 604.9311,-1257.8436 585.1111,-1197.5 628,-1197.5"/>
<polygon fill="#000000" stroke="#000000" points="934.9762,-1608.8098 924.6894,-1605.0107 929.9881,-1609.1549 925,-1609.5 925,-1609.5 925,-1609.5 929.9881,-1609.1549 925.3106,-1613.9893 934.9762,-1608.8098 934.9762,-1608.8098"/>
<text text-anchor="start" x="695.3345" y="-1619.5" font-family="Arial" font-size="10.00" fill="#000000">FOREIGN KEY (user_id) REFERENCES users(id)</text>
</g>
<!-- public.users_to_repos_stargazers&#45;&gt;public.repos -->
<g id="edge8" class="edge">
<title>public.users_to_repos_stargazers:repo_id&#45;&gt;public.repos:id</title>
<path fill="none" stroke="#000000" d="M935.2505,-1578.857C1048.3782,-1563.7496 867.886,-1287.5 998,-1287.5"/>
<polygon fill="#000000" stroke="#000000" points="934.9804,-1578.8738 924.7182,-1575.0088 929.9902,-1579.1869 925,-1579.5 925,-1579.5 925,-1579.5 929.9902,-1579.1869 925.2818,-1583.9912 934.9804,-1578.8738 934.9804,-1578.8738"/>
<text text-anchor="start" x="812.7755" y="-1563.5" font-family="Arial" font-size="10.00" fill="#000000">FOREIGN KEY (repo_id) REFERENCES repos(id)</text>
</g>
</g>
</svg>
