<?xml version="1.0" encoding="UTF-8" standalone="no"?>
<!DOCTYPE svg PUBLIC "-//W3C//DTD SVG 1.1//EN"
 "http://www.w3.org/Graphics/SVG/1.1/DTD/svg11.dtd">
<!-- Generated by graphviz version 2.40.1 (20161225.0304)
 -->
<!-- Title: public.insights Pages: 1 -->
<svg width="1833pt" height="1996pt"
 viewBox="0.00 0.00 1833.00 1996.00" xmlns="http://www.w3.org/2000/svg" xmlns:xlink="http://www.w3.org/1999/xlink">
<g id="graph0" class="graph" transform="scale(1 1) rotate(0) translate(4 1992)">
<title>public.insights</title>
<polygon fill="#ffffff" stroke="transparent" points="-4,4 -4,-1992 1829,-1992 1829,4 -4,4"/>
<!-- public.insights -->
<g id="node1" class="node">
<title>public.insights</title>
<polygon fill="#efefef" stroke="transparent" points="727,-897.5 727,-932.5 995,-932.5 995,-897.5 727,-897.5"/>
<polygon fill="none" stroke="#000000" points="727,-897.5 727,-932.5 995,-932.5 995,-897.5 727,-897.5"/>
<text text-anchor="start" x="755.8639" y="-910.3" font-family="Arial Bold" font-size="18.00" fill="#000000">public.insights</text>
<text text-anchor="start" x="868.8823" y="-910.3" font-family="Arial" font-size="14.00" fill="#000000"> </text>
<text text-anchor="start" x="872.7729" y="-910.3" font-family="Arial" font-size="14.00" fill="#666666">[BASE TABLE]</text>
<polygon fill="none" stroke="#000000" points="727,-867.5 727,-897.5 995,-897.5 995,-867.5 727,-867.5"/>
<text text-anchor="start" x="734" y="-878.9" font-family="Arial" font-size="14.00" fill="#000000">id </text>
<text text-anchor="start" x="748.7798" y="-878.9" font-family="Arial" font-size="14.00" fill="#666666">[bigint]</text>
<polygon fill="none" stroke="#000000" points="727,-837.5 727,-867.5 995,-867.5 995,-837.5 727,-837.5"/>
<text text-anchor="start" x="734" y="-848.9" font-family="Arial" font-size="14.00" fill="#000000">name </text>
<text text-anchor="start" x="772.899" y="-848.9" font-family="Arial" font-size="14.00" fill="#666666">[varchar]</text>
<polygon fill="none" stroke="#000000" points="727,-807.5 727,-837.5 995,-837.5 995,-807.5 727,-807.5"/>
<text text-anchor="start" x="734" y="-818.9" font-family="Arial" font-size="14.00" fill="#000000">is_public </text>
<text text-anchor="start" x="792.3408" y="-818.9" font-family="Arial" font-size="14.00" fill="#666666">[boolean]</text>
<polygon fill="none" stroke="#000000" points="727,-777.5 727,-807.5 995,-807.5 995,-777.5 727,-777.5"/>
<text text-anchor="start" x="734" y="-788.9" font-family="Arial" font-size="14.00" fill="#000000">is_favorite </text>
<text text-anchor="start" x="801.676" y="-788.9" font-family="Arial" font-size="14.00" fill="#666666">[boolean]</text>
<polygon fill="none" stroke="#000000" points="727,-747.5 727,-777.5 995,-777.5 995,-747.5 727,-747.5"/>
<text text-anchor="start" x="734" y="-758.9" font-family="Arial" font-size="14.00" fill="#000000">short_code </text>
<text text-anchor="start" x="807.1374" y="-758.9" font-family="Arial" font-size="14.00" fill="#666666">[varchar]</text>
<polygon fill="none" stroke="#000000" points="727,-717.5 727,-747.5 995,-747.5 995,-717.5 727,-717.5"/>
<text text-anchor="start" x="734" y="-728.9" font-family="Arial" font-size="14.00" fill="#000000">created_at </text>
<text text-anchor="start" x="804.028" y="-728.9" font-family="Arial" font-size="14.00" fill="#666666">[timestamp with time zone]</text>
<polygon fill="none" stroke="#000000" points="727,-687.5 727,-717.5 995,-717.5 995,-687.5 727,-687.5"/>
<text text-anchor="start" x="734" y="-698.9" font-family="Arial" font-size="14.00" fill="#000000">updated_at </text>
<text text-anchor="start" x="807.9326" y="-698.9" font-family="Arial" font-size="14.00" fill="#666666">[timestamp with time zone]</text>
<polygon fill="none" stroke="#000000" points="727,-657.5 727,-687.5 995,-687.5 995,-657.5 727,-657.5"/>
<text text-anchor="start" x="733.8016" y="-668.9" font-family="Arial" font-size="14.00" fill="#000000">deleted_at </text>
<text text-anchor="start" x="803.0582" y="-668.9" font-family="Arial" font-size="14.00" fill="#666666">[timestamp without time zone]</text>
<polygon fill="none" stroke="#000000" points="727,-627.5 727,-657.5 995,-657.5 995,-627.5 727,-627.5"/>
<text text-anchor="start" x="734" y="-638.9" font-family="Arial" font-size="14.00" fill="#000000">is_featured </text>
<text text-anchor="start" x="807.1346" y="-638.9" font-family="Arial" font-size="14.00" fill="#666666">[boolean]</text>
<polygon fill="none" stroke="#000000" stroke-width="3" points="725.5,-626.5 725.5,-934.5 996.5,-934.5 996.5,-626.5 725.5,-626.5"/>
</g>
<!-- public.insight_members -->
<g id="node2" class="node">
<title>public.insight_members</title>
<polygon fill="#efefef" stroke="transparent" points="460,-1909.5 460,-1944.5 794,-1944.5 794,-1909.5 460,-1909.5"/>
<polygon fill="none" stroke="#000000" points="460,-1909.5 460,-1944.5 794,-1944.5 794,-1909.5 460,-1909.5"/>
<text text-anchor="start" x="483.8632" y="-1922.3" font-family="Arial Bold" font-size="18.00" fill="#000000">public.insight_members</text>
<text text-anchor="start" x="672.883" y="-1922.3" font-family="Arial" font-size="14.00" fill="#000000"> </text>
<text text-anchor="start" x="676.7736" y="-1922.3" font-family="Arial" font-size="14.00" fill="#666666">[BASE TABLE]</text>
<polygon fill="none" stroke="#000000" points="460,-1879.5 460,-1909.5 794,-1909.5 794,-1879.5 460,-1879.5"/>
<text text-anchor="start" x="467" y="-1890.9" font-family="Arial" font-size="14.00" fill="#000000">id </text>
<text text-anchor="start" x="481.7798" y="-1890.9" font-family="Arial" font-size="14.00" fill="#666666">[uuid]</text>
<polygon fill="none" stroke="#000000" points="460,-1849.5 460,-1879.5 794,-1879.5 794,-1849.5 460,-1849.5"/>
<text text-anchor="start" x="467" y="-1860.9" font-family="Arial" font-size="14.00" fill="#000000">user_id </text>
<text text-anchor="start" x="516.7882" y="-1860.9" font-family="Arial" font-size="14.00" fill="#666666">[bigint]</text>
<polygon fill="none" stroke="#000000" points="460,-1819.5 460,-1849.5 794,-1849.5 794,-1819.5 460,-1819.5"/>
<text text-anchor="start" x="467" y="-1830.9" font-family="Arial" font-size="14.00" fill="#000000">insight_id </text>
<text text-anchor="start" x="530.014" y="-1830.9" font-family="Arial" font-size="14.00" fill="#666666">[bigint]</text>
<polygon fill="none" stroke="#000000" points="460,-1789.5 460,-1819.5 794,-1819.5 794,-1789.5 460,-1789.5"/>
<text text-anchor="start" x="467" y="-1800.9" font-family="Arial" font-size="14.00" fill="#000000">created_at </text>
<text text-anchor="start" x="537.028" y="-1800.9" font-family="Arial" font-size="14.00" fill="#666666">[timestamp without time zone]</text>
<polygon fill="none" stroke="#000000" points="460,-1759.5 460,-1789.5 794,-1789.5 794,-1759.5 460,-1759.5"/>
<text text-anchor="start" x="467" y="-1770.9" font-family="Arial" font-size="14.00" fill="#000000">updated_at </text>
<text text-anchor="start" x="540.9326" y="-1770.9" font-family="Arial" font-size="14.00" fill="#666666">[timestamp without time zone]</text>
<polygon fill="none" stroke="#000000" points="460,-1729.5 460,-1759.5 794,-1759.5 794,-1729.5 460,-1729.5"/>
<text text-anchor="start" x="467" y="-1740.9" font-family="Arial" font-size="14.00" fill="#000000">deleted_at </text>
<text text-anchor="start" x="536.2566" y="-1740.9" font-family="Arial" font-size="14.00" fill="#666666">[timestamp without time zone]</text>
<polygon fill="none" stroke="#000000" points="460,-1699.5 460,-1729.5 794,-1729.5 794,-1699.5 460,-1699.5"/>
<text text-anchor="start" x="466.7476" y="-1710.9" font-family="Arial" font-size="14.00" fill="#000000">invitation_emailed_at </text>
<text text-anchor="start" x="602.1122" y="-1710.9" font-family="Arial" font-size="14.00" fill="#666666">[timestamp without time zone]</text>
<polygon fill="none" stroke="#000000" points="460,-1669.5 460,-1699.5 794,-1699.5 794,-1669.5 460,-1669.5"/>
<text text-anchor="start" x="467" y="-1680.9" font-family="Arial" font-size="14.00" fill="#000000">access </text>
<text text-anchor="start" x="514.4558" y="-1680.9" font-family="Arial" font-size="14.00" fill="#666666">[varchar(20)]</text>
<polygon fill="none" stroke="#000000" points="460,-1639.5 460,-1669.5 794,-1669.5 794,-1639.5 460,-1639.5"/>
<text text-anchor="start" x="467" y="-1650.9" font-family="Arial" font-size="14.00" fill="#000000">invitation_email </text>
<text text-anchor="start" x="567.3436" y="-1650.9" font-family="Arial" font-size="14.00" fill="#666666">[varchar(255)]</text>
</g>
<!-- public.insight_members&#45;&gt;public.insights -->
<g id="edge1" class="edge">
<title>public.insight_members:insight_id&#45;&gt;public.insights:id</title>
<path fill="none" stroke="#000000" d="M803.9875,-1833.7216C989.9647,-1803.153 518.442,-882.5 727,-882.5"/>
<polygon fill="#000000" stroke="#000000" points="803.9698,-1833.7229 793.6503,-1830.0136 798.9849,-1834.1114 794,-1834.5 794,-1834.5 794,-1834.5 798.9849,-1834.1114 794.3497,-1838.9864 803.9698,-1833.7229 803.9698,-1833.7229"/>
<text text-anchor="start" x="801.4955" y="-1844.5" font-family="Arial" font-size="10.00" fill="#000000">FOREIGN KEY (insight_id) REFERENCES insights(id) ON UPDATE CASCADE ON DELETE CASCADE</text>
</g>
<!-- public.users -->
<g id="node3" class="node">
<title>public.users</title>
<polygon fill="#efefef" stroke="transparent" points="269,-1482.5 269,-1517.5 620,-1517.5 620,-1482.5 269,-1482.5"/>
<polygon fill="none" stroke="#000000" points="269,-1482.5 269,-1517.5 620,-1517.5 620,-1482.5 269,-1482.5"/>
<text text-anchor="start" x="347.8662" y="-1495.3" font-family="Arial Bold" font-size="18.00" fill="#000000">public.users</text>
<text text-anchor="start" x="443.88" y="-1495.3" font-family="Arial" font-size="14.00" fill="#000000"> </text>
<text text-anchor="start" x="447.7706" y="-1495.3" font-family="Arial" font-size="14.00" fill="#666666">[BASE TABLE]</text>
<polygon fill="none" stroke="#000000" points="269,-1452.5 269,-1482.5 620,-1482.5 620,-1452.5 269,-1452.5"/>
<text text-anchor="start" x="276" y="-1463.9" font-family="Arial" font-size="14.00" fill="#000000">id </text>
<text text-anchor="start" x="290.7798" y="-1463.9" font-family="Arial" font-size="14.00" fill="#666666">[bigint]</text>
<polygon fill="none" stroke="#000000" points="269,-1422.5 269,-1452.5 620,-1452.5 620,-1422.5 269,-1422.5"/>
<text text-anchor="start" x="276" y="-1433.9" font-family="Arial" font-size="14.00" fill="#000000">open_issues </text>
<text text-anchor="start" x="358.4754" y="-1433.9" font-family="Arial" font-size="14.00" fill="#666666">[bigint]</text>
<polygon fill="none" stroke="#000000" points="269,-1392.5 269,-1422.5 620,-1422.5 620,-1392.5 269,-1392.5"/>
<text text-anchor="start" x="276" y="-1403.9" font-family="Arial" font-size="14.00" fill="#000000">public_repos </text>
<text text-anchor="start" x="359.2426" y="-1403.9" font-family="Arial" font-size="14.00" fill="#666666">[bigint]</text>
<polygon fill="none" stroke="#000000" points="269,-1362.5 269,-1392.5 620,-1392.5 620,-1362.5 269,-1362.5"/>
<text text-anchor="start" x="276" y="-1373.9" font-family="Arial" font-size="14.00" fill="#000000">public_gists </text>
<text text-anchor="start" x="353.014" y="-1373.9" font-family="Arial" font-size="14.00" fill="#666666">[bigint]</text>
<polygon fill="none" stroke="#000000" points="269,-1332.5 269,-1362.5 620,-1362.5 620,-1332.5 269,-1332.5"/>
<text text-anchor="start" x="276" y="-1343.9" font-family="Arial" font-size="14.00" fill="#000000">followers </text>
<text text-anchor="start" x="335.1094" y="-1343.9" font-family="Arial" font-size="14.00" fill="#666666">[bigint]</text>
<polygon fill="none" stroke="#000000" points="269,-1302.5 269,-1332.5 620,-1332.5 620,-1302.5 269,-1302.5"/>
<text text-anchor="start" x="276" y="-1313.9" font-family="Arial" font-size="14.00" fill="#000000">following </text>
<text text-anchor="start" x="334.338" y="-1313.9" font-family="Arial" font-size="14.00" fill="#666666">[bigint]</text>
<polygon fill="none" stroke="#000000" points="269,-1272.5 269,-1302.5 620,-1302.5 620,-1272.5 269,-1272.5"/>
<text text-anchor="start" x="276" y="-1283.9" font-family="Arial" font-size="14.00" fill="#000000">role </text>
<text text-anchor="start" x="303.223" y="-1283.9" font-family="Arial" font-size="14.00" fill="#666666">[bigint]</text>
<polygon fill="none" stroke="#000000" points="269,-1242.5 269,-1272.5 620,-1272.5 620,-1242.5 269,-1242.5"/>
<text text-anchor="start" x="276" y="-1253.9" font-family="Arial" font-size="14.00" fill="#000000">display_local_time </text>
<text text-anchor="start" x="394.2356" y="-1253.9" font-family="Arial" font-size="14.00" fill="#666666">[boolean]</text>
<polygon fill="none" stroke="#000000" points="269,-1212.5 269,-1242.5 620,-1242.5 620,-1212.5 269,-1212.5"/>
<text text-anchor="start" x="276" y="-1223.9" font-family="Arial" font-size="14.00" fill="#000000">has_stars_data </text>
<text text-anchor="start" x="375.5932" y="-1223.9" font-family="Arial" font-size="14.00" fill="#666666">[boolean]</text>
<polygon fill="none" stroke="#000000" points="269,-1182.5 269,-1212.5 620,-1212.5 620,-1182.5 269,-1182.5"/>
<text text-anchor="start" x="276" y="-1193.9" font-family="Arial" font-size="14.00" fill="#000000">is_private </text>
<text text-anchor="start" x="339.7854" y="-1193.9" font-family="Arial" font-size="14.00" fill="#666666">[boolean]</text>
<polygon fill="none" stroke="#000000" points="269,-1152.5 269,-1182.5 620,-1182.5 620,-1152.5 269,-1152.5"/>
<text text-anchor="start" x="276" y="-1163.9" font-family="Arial" font-size="14.00" fill="#000000">is_open_sauced_member </text>
<text text-anchor="start" x="440.9354" y="-1163.9" font-family="Arial" font-size="14.00" fill="#666666">[boolean]</text>
<polygon fill="none" stroke="#000000" points="269,-1122.5 269,-1152.5 620,-1152.5 620,-1122.5 269,-1122.5"/>
<text text-anchor="start" x="276" y="-1133.9" font-family="Arial" font-size="14.00" fill="#000000">is_onboarded </text>
<text text-anchor="start" x="364.7012" y="-1133.9" font-family="Arial" font-size="14.00" fill="#666666">[boolean]</text>
<polygon fill="none" stroke="#000000" points="269,-1092.5 269,-1122.5 620,-1122.5 620,-1092.5 269,-1092.5"/>
<text text-anchor="start" x="276" y="-1103.9" font-family="Arial" font-size="14.00" fill="#000000">is_waitlisted </text>
<text text-anchor="start" x="355.3352" y="-1103.9" font-family="Arial" font-size="14.00" fill="#666666">[boolean]</text>
<polygon fill="none" stroke="#000000" points="269,-1062.5 269,-1092.5 620,-1092.5 620,-1062.5 269,-1062.5"/>
<text text-anchor="start" x="276" y="-1073.9" font-family="Arial" font-size="14.00" fill="#000000">hireable </text>
<text text-anchor="start" x="329.6774" y="-1073.9" font-family="Arial" font-size="14.00" fill="#666666">[boolean]</text>
<polygon fill="none" stroke="#000000" points="269,-1032.5 269,-1062.5 620,-1062.5 620,-1032.5 269,-1032.5"/>
<text text-anchor="start" x="276" y="-1043.9" font-family="Arial" font-size="14.00" fill="#000000">display_email </text>
<text text-anchor="start" x="364.6732" y="-1043.9" font-family="Arial" font-size="14.00" fill="#666666">[boolean]</text>
<polygon fill="none" stroke="#000000" points="269,-1002.5 269,-1032.5 620,-1032.5 620,-1002.5 269,-1002.5"/>
<text text-anchor="start" x="276" y="-1013.9" font-family="Arial" font-size="14.00" fill="#000000">receive_collaboration </text>
<text text-anchor="start" x="412.1374" y="-1013.9" font-family="Arial" font-size="14.00" fill="#666666">[boolean]</text>
<polygon fill="none" stroke="#000000" points="269,-972.5 269,-1002.5 620,-1002.5 620,-972.5 269,-972.5"/>
<text text-anchor="start" x="276" y="-983.9" font-family="Arial" font-size="14.00" fill="#000000">created_at </text>
<text text-anchor="start" x="346.028" y="-983.9" font-family="Arial" font-size="14.00" fill="#666666">[timestamp without time zone]</text>
<polygon fill="none" stroke="#000000" points="269,-942.5 269,-972.5 620,-972.5 620,-942.5 269,-942.5"/>
<text text-anchor="start" x="276" y="-953.9" font-family="Arial" font-size="14.00" fill="#000000">updated_at </text>
<text text-anchor="start" x="349.9326" y="-953.9" font-family="Arial" font-size="14.00" fill="#666666">[timestamp without time zone]</text>
<polygon fill="none" stroke="#000000" points="269,-912.5 269,-942.5 620,-942.5 620,-912.5 269,-912.5"/>
<text text-anchor="start" x="276" y="-923.9" font-family="Arial" font-size="14.00" fill="#000000">deleted_at </text>
<text text-anchor="start" x="345.2566" y="-923.9" font-family="Arial" font-size="14.00" fill="#666666">[timestamp without time zone]</text>
<polygon fill="none" stroke="#000000" points="269,-882.5 269,-912.5 620,-912.5 620,-882.5 269,-882.5"/>
<text text-anchor="start" x="276" y="-893.9" font-family="Arial" font-size="14.00" fill="#000000">type </text>
<text text-anchor="start" x="306.3464" y="-893.9" font-family="Arial" font-size="14.00" fill="#666666">[varchar(20)]</text>
<polygon fill="none" stroke="#000000" points="269,-852.5 269,-882.5 620,-882.5 620,-852.5 269,-852.5"/>
<text text-anchor="start" x="276" y="-863.9" font-family="Arial" font-size="14.00" fill="#000000">timezone </text>
<text text-anchor="start" x="336.6788" y="-863.9" font-family="Arial" font-size="14.00" fill="#666666">[varchar(50)]</text>
<polygon fill="none" stroke="#000000" points="269,-822.5 269,-852.5 620,-852.5 620,-822.5 269,-822.5"/>
<text text-anchor="start" x="276" y="-833.9" font-family="Arial" font-size="14.00" fill="#000000">login </text>
<text text-anchor="start" x="309.4516" y="-833.9" font-family="Arial" font-size="14.00" fill="#666666">[varchar(255)]</text>
<polygon fill="none" stroke="#000000" points="269,-792.5 269,-822.5 620,-822.5 620,-792.5 269,-792.5"/>
<text text-anchor="start" x="276" y="-803.9" font-family="Arial" font-size="14.00" fill="#000000">email </text>
<text text-anchor="start" x="313.3296" y="-803.9" font-family="Arial" font-size="14.00" fill="#666666">[varchar(255)]</text>
<polygon fill="none" stroke="#000000" points="269,-762.5 269,-792.5 620,-792.5 620,-762.5 269,-762.5"/>
<text text-anchor="start" x="276" y="-773.9" font-family="Arial" font-size="14.00" fill="#000000">bio </text>
<text text-anchor="start" x="298.5624" y="-773.9" font-family="Arial" font-size="14.00" fill="#666666">[varchar(255)]</text>
<polygon fill="none" stroke="#000000" points="269,-732.5 269,-762.5 620,-762.5 620,-732.5 269,-732.5"/>
<text text-anchor="start" x="276" y="-743.9" font-family="Arial" font-size="14.00" fill="#000000">name </text>
<text text-anchor="start" x="314.899" y="-743.9" font-family="Arial" font-size="14.00" fill="#666666">[varchar(255)]</text>
<polygon fill="none" stroke="#000000" points="269,-702.5 269,-732.5 620,-732.5 620,-702.5 269,-702.5"/>
<text text-anchor="start" x="276" y="-713.9" font-family="Arial" font-size="14.00" fill="#000000">twitter_username </text>
<text text-anchor="start" x="387.2356" y="-713.9" font-family="Arial" font-size="14.00" fill="#666666">[varchar(15)]</text>
<polygon fill="none" stroke="#000000" points="269,-672.5 269,-702.5 620,-702.5 620,-672.5 269,-672.5"/>
<text text-anchor="start" x="276" y="-683.9" font-family="Arial" font-size="14.00" fill="#000000">company </text>
<text text-anchor="start" x="336.6816" y="-683.9" font-family="Arial" font-size="14.00" fill="#666666">[varchar(255)]</text>
<polygon fill="none" stroke="#000000" points="269,-642.5 269,-672.5 620,-672.5 620,-642.5 269,-642.5"/>
<text text-anchor="start" x="276" y="-653.9" font-family="Arial" font-size="14.00" fill="#000000">location </text>
<text text-anchor="start" x="328.1248" y="-653.9" font-family="Arial" font-size="14.00" fill="#666666">[varchar(255)]</text>
<polygon fill="none" stroke="#000000" points="269,-612.5 269,-642.5 620,-642.5 620,-612.5 269,-612.5"/>
<text text-anchor="start" x="276" y="-623.9" font-family="Arial" font-size="14.00" fill="#000000">node_id </text>
<text text-anchor="start" x="329.6928" y="-623.9" font-family="Arial" font-size="14.00" fill="#666666">[varchar(50)]</text>
<polygon fill="none" stroke="#000000" points="269,-582.5 269,-612.5 620,-612.5 620,-582.5 269,-582.5"/>
<text text-anchor="start" x="276" y="-593.9" font-family="Arial" font-size="14.00" fill="#000000">avatar_url </text>
<text text-anchor="start" x="342.122" y="-593.9" font-family="Arial" font-size="14.00" fill="#666666">[varchar(255)]</text>
<polygon fill="none" stroke="#000000" points="269,-552.5 269,-582.5 620,-582.5 620,-552.5 269,-552.5"/>
<text text-anchor="start" x="276" y="-563.9" font-family="Arial" font-size="14.00" fill="#000000">gravatar_id </text>
<text text-anchor="start" x="349.9046" y="-563.9" font-family="Arial" font-size="14.00" fill="#666666">[varchar(255)]</text>
<polygon fill="none" stroke="#000000" points="269,-522.5 269,-552.5 620,-552.5 620,-522.5 269,-522.5"/>
<text text-anchor="start" x="276" y="-533.9" font-family="Arial" font-size="14.00" fill="#000000">url </text>
<text text-anchor="start" x="295.4404" y="-533.9" font-family="Arial" font-size="14.00" fill="#666666">[varchar(255)]</text>
<polygon fill="none" stroke="#000000" points="269,-492.5 269,-522.5 620,-522.5 620,-492.5 269,-492.5"/>
<text text-anchor="start" x="276" y="-503.9" font-family="Arial" font-size="14.00" fill="#000000">blog </text>
<text text-anchor="start" x="306.345" y="-503.9" font-family="Arial" font-size="14.00" fill="#666666">[varchar(255)]</text>
<polygon fill="none" stroke="#000000" points="269,-462.5 269,-492.5 620,-492.5 620,-462.5 269,-462.5"/>
<text text-anchor="start" x="276" y="-473.9" font-family="Arial" font-size="14.00" fill="#000000">interests </text>
<text text-anchor="start" x="332.7868" y="-473.9" font-family="Arial" font-size="14.00" fill="#666666">[varchar(200)]</text>
<polygon fill="none" stroke="#000000" points="269,-432.5 269,-462.5 620,-462.5 620,-432.5 269,-432.5"/>
<text text-anchor="start" x="276" y="-443.9" font-family="Arial" font-size="14.00" fill="#000000">linkedin_url </text>
<text text-anchor="start" x="350.6732" y="-443.9" font-family="Arial" font-size="14.00" fill="#666666">[varchar(255)]</text>
<polygon fill="none" stroke="#000000" points="269,-402.5 269,-432.5 620,-432.5 620,-402.5 269,-402.5"/>
<text text-anchor="start" x="276" y="-413.9" font-family="Arial" font-size="14.00" fill="#000000">github_sponsors_url </text>
<text text-anchor="start" x="405.9242" y="-413.9" font-family="Arial" font-size="14.00" fill="#666666">[varchar(255)]</text>
<polygon fill="none" stroke="#000000" points="269,-372.5 269,-402.5 620,-402.5 620,-372.5 269,-372.5"/>
<text text-anchor="start" x="276" y="-383.9" font-family="Arial" font-size="14.00" fill="#000000">last_fetched_users_at </text>
<text text-anchor="start" x="416.8288" y="-383.9" font-family="Arial" font-size="14.00" fill="#666666">[timestamp without time zone]</text>
<polygon fill="none" stroke="#000000" points="269,-342.5 269,-372.5 620,-372.5 620,-342.5 269,-342.5"/>
<text text-anchor="start" x="276" y="-353.9" font-family="Arial" font-size="14.00" fill="#000000">languages </text>
<text text-anchor="start" x="344.4754" y="-353.9" font-family="Arial" font-size="14.00" fill="#666666">[jsonb]</text>
<polygon fill="none" stroke="#000000" points="269,-312.5 269,-342.5 620,-342.5 620,-312.5 269,-312.5"/>
<text text-anchor="start" x="276" y="-323.9" font-family="Arial" font-size="14.00" fill="#000000">first_opened_pr_at </text>
<text text-anchor="start" x="396.5988" y="-323.9" font-family="Arial" font-size="14.00" fill="#666666">[timestamp without time zone]</text>
<polygon fill="none" stroke="#000000" points="269,-282.5 269,-312.5 620,-312.5 620,-282.5 269,-282.5"/>
<text text-anchor="start" x="275.6929" y="-293.9" font-family="Arial" font-size="14.00" fill="#000000">first_pushed_commit_at </text>
<text text-anchor="start" x="428.1669" y="-293.9" font-family="Arial" font-size="14.00" fill="#666666">[timestamp without time zone]</text>
<polygon fill="none" stroke="#000000" points="269,-252.5 269,-282.5 620,-282.5 620,-252.5 269,-252.5"/>
<text text-anchor="start" x="276" y="-263.9" font-family="Arial" font-size="14.00" fill="#000000">connected_at </text>
<text text-anchor="start" x="363.9326" y="-263.9" font-family="Arial" font-size="14.00" fill="#666666">[timestamp without time zone]</text>
<polygon fill="none" stroke="#000000" points="269,-222.5 269,-252.5 620,-252.5 620,-222.5 269,-222.5"/>
<text text-anchor="start" x="276" y="-233.9" font-family="Arial" font-size="14.00" fill="#000000">discord_url </text>
<text text-anchor="start" x="348.338" y="-233.9" font-family="Arial" font-size="14.00" fill="#666666">[varchar(255)]</text>
<polygon fill="none" stroke="#000000" points="269,-192.5 269,-222.5 620,-222.5 620,-192.5 269,-192.5"/>
<text text-anchor="start" x="276" y="-203.9" font-family="Arial" font-size="14.00" fill="#000000">coupon_code </text>
<text text-anchor="start" x="363.934" y="-203.9" font-family="Arial" font-size="14.00" fill="#666666">[varchar]</text>
<polygon fill="none" stroke="#000000" points="269,-162.5 269,-192.5 620,-192.5 620,-162.5 269,-162.5"/>
<text text-anchor="start" x="276" y="-173.9" font-family="Arial" font-size="14.00" fill="#000000">receive_product_updates </text>
<text text-anchor="start" x="437.056" y="-173.9" font-family="Arial" font-size="14.00" fill="#666666">[boolean]</text>
<polygon fill="none" stroke="#000000" points="269,-132.5 269,-162.5 620,-162.5 620,-132.5 269,-132.5"/>
<text text-anchor="start" x="276" y="-143.9" font-family="Arial" font-size="14.00" fill="#000000">campaign_start_date </text>
<text text-anchor="start" x="410.5988" y="-143.9" font-family="Arial" font-size="14.00" fill="#666666">[timestamp without time zone]</text>
<polygon fill="none" stroke="#000000" points="269,-102.5 269,-132.5 620,-132.5 620,-102.5 269,-102.5"/>
<text text-anchor="start" x="276" y="-113.9" font-family="Arial" font-size="14.00" fill="#000000">personal_workspace_id </text>
<text text-anchor="start" x="426.9228" y="-113.9" font-family="Arial" font-size="14.00" fill="#666666">[uuid]</text>
<polygon fill="none" stroke="#000000" points="269,-72.5 269,-102.5 620,-102.5 620,-72.5 269,-72.5"/>
<text text-anchor="start" x="276" y="-83.9" font-family="Arial" font-size="14.00" fill="#000000">accepted_usage_terms </text>
<text text-anchor="start" x="425.3842" y="-83.9" font-family="Arial" font-size="14.00" fill="#666666">[boolean]</text>
<polygon fill="none" stroke="#000000" points="269,-42.5 269,-72.5 620,-72.5 620,-42.5 269,-42.5"/>
<text text-anchor="start" x="276" y="-53.9" font-family="Arial" font-size="14.00" fill="#000000">fetch_error </text>
<text text-anchor="start" x="347.5666" y="-53.9" font-family="Arial" font-size="14.00" fill="#666666">[boolean]</text>
</g>
<!-- public.insight_members&#45;&gt;public.users -->
<g id="edge2" class="edge">
<title>public.insight_members:user_id&#45;&gt;public.users:id</title>
<path fill="none" stroke="#000000" d="M449.9684,-1864.0567C343.751,-1854.3361 387.9066,-1687.1168 460,-1597 505.5333,-1540.0833 574.4667,-1617.9167 620,-1561 645.9595,-1528.5506 661.5556,-1467.5 620,-1467.5"/>
<polygon fill="#000000" stroke="#000000" points="450.0097,-1864.0584 459.8013,-1868.9956 455.0049,-1864.2792 460,-1864.5 460,-1864.5 460,-1864.5 455.0049,-1864.2792 460.1987,-1860.0044 450.0097,-1864.0584 450.0097,-1864.0584"/>
<text text-anchor="start" x="6.9425" y="-1874.5" font-family="Arial" font-size="10.00" fill="#000000">FOREIGN KEY (user_id) REFERENCES users(id) ON UPDATE CASCADE ON DELETE CASCADE</text>
</g>
<!-- public.workspace_insights -->
<g id="node4" class="node">
<title>public.workspace_insights</title>
<polygon fill="#efefef" stroke="transparent" points="989,-1864.5 989,-1899.5 1309,-1899.5 1309,-1864.5 989,-1864.5"/>
<polygon fill="none" stroke="#000000" points="989,-1864.5 989,-1899.5 1309,-1899.5 1309,-1864.5 989,-1864.5"/>
<text text-anchor="start" x="995.8552" y="-1877.3" font-family="Arial Bold" font-size="18.00" fill="#000000">public.workspace_insights</text>
<text text-anchor="start" x="1204.891" y="-1877.3" font-family="Arial" font-size="14.00" fill="#000000"> </text>
<text text-anchor="start" x="1208.7816" y="-1877.3" font-family="Arial" font-size="14.00" fill="#666666">[BASE TABLE]</text>
<polygon fill="none" stroke="#000000" points="989,-1834.5 989,-1864.5 1309,-1864.5 1309,-1834.5 989,-1834.5"/>
<text text-anchor="start" x="996" y="-1845.9" font-family="Arial" font-size="14.00" fill="#000000">id </text>
<text text-anchor="start" x="1010.7798" y="-1845.9" font-family="Arial" font-size="14.00" fill="#666666">[uuid]</text>
<polygon fill="none" stroke="#000000" points="989,-1804.5 989,-1834.5 1309,-1834.5 1309,-1804.5 989,-1804.5"/>
<text text-anchor="start" x="996" y="-1815.9" font-family="Arial" font-size="14.00" fill="#000000">insight_id </text>
<text text-anchor="start" x="1059.014" y="-1815.9" font-family="Arial" font-size="14.00" fill="#666666">[integer]</text>
<polygon fill="none" stroke="#000000" points="989,-1774.5 989,-1804.5 1309,-1804.5 1309,-1774.5 989,-1774.5"/>
<text text-anchor="start" x="996" y="-1785.9" font-family="Arial" font-size="14.00" fill="#000000">workspace_id </text>
<text text-anchor="start" x="1085.46" y="-1785.9" font-family="Arial" font-size="14.00" fill="#666666">[uuid]</text>
<polygon fill="none" stroke="#000000" points="989,-1744.5 989,-1774.5 1309,-1774.5 1309,-1744.5 989,-1744.5"/>
<text text-anchor="start" x="996" y="-1755.9" font-family="Arial" font-size="14.00" fill="#000000">created_at </text>
<text text-anchor="start" x="1066.028" y="-1755.9" font-family="Arial" font-size="14.00" fill="#666666">[timestamp without time zone]</text>
<polygon fill="none" stroke="#000000" points="989,-1714.5 989,-1744.5 1309,-1744.5 1309,-1714.5 989,-1714.5"/>
<text text-anchor="start" x="996" y="-1725.9" font-family="Arial" font-size="14.00" fill="#000000">updated_at </text>
<text text-anchor="start" x="1069.9326" y="-1725.9" font-family="Arial" font-size="14.00" fill="#666666">[timestamp without time zone]</text>
<polygon fill="none" stroke="#000000" points="989,-1684.5 989,-1714.5 1309,-1714.5 1309,-1684.5 989,-1684.5"/>
<text text-anchor="start" x="996" y="-1695.9" font-family="Arial" font-size="14.00" fill="#000000">deleted_at </text>
<text text-anchor="start" x="1065.2566" y="-1695.9" font-family="Arial" font-size="14.00" fill="#666666">[timestamp without time zone]</text>
</g>
<!-- public.workspace_insights&#45;&gt;public.insights -->
<g id="edge3" class="edge">
<title>public.workspace_insights:insight_id&#45;&gt;public.insights:id</title>
<path fill="none" stroke="#000000" d="M979.172,-1816.1071C899.5561,-1754.7753 1095.453,-882.5 995,-882.5"/>
<polygon fill="#000000" stroke="#000000" points="979.5474,-1816.2367 987.5315,-1823.7537 984.2737,-1817.8683 989,-1819.5 989,-1819.5 989,-1819.5 984.2737,-1817.8683 990.4685,-1815.2463 979.5474,-1816.2367 979.5474,-1816.2367"/>
<text text-anchor="start" x="996.4955" y="-1803.5" font-family="Arial" font-size="10.00" fill="#000000">FOREIGN KEY (insight_id) REFERENCES insights(id) ON UPDATE CASCADE ON DELETE CASCADE</text>
</g>
<!-- public.workspaces -->
<g id="node5" class="node">
<title>public.workspaces</title>
<polygon fill="#efefef" stroke="transparent" points="1103,-852.5 1103,-887.5 1376,-887.5 1376,-852.5 1103,-852.5"/>
<polygon fill="none" stroke="#000000" points="1103,-852.5 1103,-887.5 1376,-887.5 1376,-852.5 1103,-852.5"/>
<text text-anchor="start" x="1117.3629" y="-865.3" font-family="Arial Bold" font-size="18.00" fill="#000000">public.workspaces</text>
<text text-anchor="start" x="1264.3833" y="-865.3" font-family="Arial" font-size="14.00" fill="#000000"> </text>
<text text-anchor="start" x="1268.2739" y="-865.3" font-family="Arial" font-size="14.00" fill="#666666">[BASE TABLE]</text>
<polygon fill="none" stroke="#000000" points="1103,-822.5 1103,-852.5 1376,-852.5 1376,-822.5 1103,-822.5"/>
<text text-anchor="start" x="1110" y="-833.9" font-family="Arial" font-size="14.00" fill="#000000">id </text>
<text text-anchor="start" x="1124.7798" y="-833.9" font-family="Arial" font-size="14.00" fill="#666666">[uuid]</text>
<polygon fill="none" stroke="#000000" points="1103,-792.5 1103,-822.5 1376,-822.5 1376,-792.5 1103,-792.5"/>
<text text-anchor="start" x="1110" y="-803.9" font-family="Arial" font-size="14.00" fill="#000000">created_at </text>
<text text-anchor="start" x="1180.028" y="-803.9" font-family="Arial" font-size="14.00" fill="#666666">[timestamp without time zone]</text>
<polygon fill="none" stroke="#000000" points="1103,-762.5 1103,-792.5 1376,-792.5 1376,-762.5 1103,-762.5"/>
<text text-anchor="start" x="1109.9636" y="-773.9" font-family="Arial" font-size="14.00" fill="#000000">updated_at </text>
<text text-anchor="start" x="1183.8962" y="-773.9" font-family="Arial" font-size="14.00" fill="#666666">[timestamp without time zone]</text>
<polygon fill="none" stroke="#000000" points="1103,-732.5 1103,-762.5 1376,-762.5 1376,-732.5 1103,-732.5"/>
<text text-anchor="start" x="1110" y="-743.9" font-family="Arial" font-size="14.00" fill="#000000">deleted_at </text>
<text text-anchor="start" x="1179.2566" y="-743.9" font-family="Arial" font-size="14.00" fill="#666666">[timestamp without time zone]</text>
<polygon fill="none" stroke="#000000" points="1103,-702.5 1103,-732.5 1376,-732.5 1376,-702.5 1103,-702.5"/>
<text text-anchor="start" x="1110" y="-713.9" font-family="Arial" font-size="14.00" fill="#000000">name </text>
<text text-anchor="start" x="1148.899" y="-713.9" font-family="Arial" font-size="14.00" fill="#666666">[varchar(255)]</text>
<polygon fill="none" stroke="#000000" points="1103,-672.5 1103,-702.5 1376,-702.5 1376,-672.5 1103,-672.5"/>
<text text-anchor="start" x="1110" y="-683.9" font-family="Arial" font-size="14.00" fill="#000000">description </text>
<text text-anchor="start" x="1181.568" y="-683.9" font-family="Arial" font-size="14.00" fill="#666666">[varchar(255)]</text>
</g>
<!-- public.workspace_insights&#45;&gt;public.workspaces -->
<g id="edge4" class="edge">
<title>public.workspace_insights:workspace_id&#45;&gt;public.workspaces:id</title>
<path fill="none" stroke="#000000" d="M1319.0809,-1788.7216C1504.4739,-1758.153 890.1417,-837.5 1103,-837.5"/>
<polygon fill="#000000" stroke="#000000" points="1318.9703,-1788.73 1308.6535,-1785.0134 1313.9852,-1789.115 1309,-1789.5 1309,-1789.5 1309,-1789.5 1313.9852,-1789.115 1309.3465,-1793.9866 1318.9703,-1788.73 1318.9703,-1788.73"/>
<text text-anchor="start" x="1315.6055" y="-1773.5" font-family="Arial" font-size="10.00" fill="#000000">FOREIGN KEY (workspace_id) REFERENCES workspaces(id) ON UPDATE CASCADE ON DELETE CASCADE</text>
</g>
</g>
</svg>
