<?xml version="1.0" encoding="UTF-8" standalone="no"?>
<!DOCTYPE svg PUBLIC "-//W3C//DTD SVG 1.1//EN"
 "http://www.w3.org/Graphics/SVG/1.1/DTD/svg11.dtd">
<!-- Generated by graphviz version 2.40.1 (20161225.0304)
 -->
<!-- Title: public.emojis Pages: 1 -->
<svg width="1354pt" height="1726pt"
 viewBox="0.00 0.00 1354.00 1726.00" xmlns="http://www.w3.org/2000/svg" xmlns:xlink="http://www.w3.org/1999/xlink">
<g id="graph0" class="graph" transform="scale(1 1) rotate(0) translate(4 1722)">
<title>public.emojis</title>
<polygon fill="#ffffff" stroke="transparent" points="-4,4 -4,-1722 1350,-1722 1350,4 -4,4"/>
<!-- public.emojis -->
<g id="node1" class="node">
<title>public.emojis</title>
<polygon fill="#efefef" stroke="transparent" points="91,-762.5 91,-797.5 364,-797.5 364,-762.5 91,-762.5"/>
<polygon fill="none" stroke="#000000" points="91,-762.5 91,-797.5 364,-797.5 364,-762.5 91,-762.5"/>
<text text-anchor="start" x="126.872" y="-775.3" font-family="Arial Bold" font-size="18.00" fill="#000000">public.emojis</text>
<text text-anchor="start" x="230.8742" y="-775.3" font-family="Arial" font-size="14.00" fill="#000000"> </text>
<text text-anchor="start" x="234.7648" y="-775.3" font-family="Arial" font-size="14.00" fill="#666666">[BASE TABLE]</text>
<polygon fill="none" stroke="#000000" points="91,-732.5 91,-762.5 364,-762.5 364,-732.5 91,-732.5"/>
<text text-anchor="start" x="98" y="-743.9" font-family="Arial" font-size="14.00" fill="#000000">id </text>
<text text-anchor="start" x="112.7798" y="-743.9" font-family="Arial" font-size="14.00" fill="#666666">[uuid]</text>
<polygon fill="none" stroke="#000000" points="91,-702.5 91,-732.5 364,-732.5 364,-702.5 91,-702.5"/>
<text text-anchor="start" x="98" y="-713.9" font-family="Arial" font-size="14.00" fill="#000000">name </text>
<text text-anchor="start" x="136.899" y="-713.9" font-family="Arial" font-size="14.00" fill="#666666">[varchar(255)]</text>
<polygon fill="none" stroke="#000000" points="91,-672.5 91,-702.5 364,-702.5 364,-672.5 91,-672.5"/>
<text text-anchor="start" x="98" y="-683.9" font-family="Arial" font-size="14.00" fill="#000000">url </text>
<text text-anchor="start" x="117.4404" y="-683.9" font-family="Arial" font-size="14.00" fill="#666666">[varchar(255)]</text>
<polygon fill="none" stroke="#000000" points="91,-642.5 91,-672.5 364,-672.5 364,-642.5 91,-642.5"/>
<text text-anchor="start" x="98" y="-653.9" font-family="Arial" font-size="14.00" fill="#000000">created_at </text>
<text text-anchor="start" x="168.028" y="-653.9" font-family="Arial" font-size="14.00" fill="#666666">[timestamp without time zone]</text>
<polygon fill="none" stroke="#000000" points="91,-612.5 91,-642.5 364,-642.5 364,-612.5 91,-612.5"/>
<text text-anchor="start" x="97.9636" y="-623.9" font-family="Arial" font-size="14.00" fill="#000000">updated_at </text>
<text text-anchor="start" x="171.8962" y="-623.9" font-family="Arial" font-size="14.00" fill="#666666">[timestamp without time zone]</text>
<polygon fill="none" stroke="#000000" points="91,-582.5 91,-612.5 364,-612.5 364,-582.5 91,-582.5"/>
<text text-anchor="start" x="98" y="-593.9" font-family="Arial" font-size="14.00" fill="#000000">deleted_at </text>
<text text-anchor="start" x="167.2566" y="-593.9" font-family="Arial" font-size="14.00" fill="#666666">[timestamp without time zone]</text>
<polygon fill="none" stroke="#000000" points="91,-552.5 91,-582.5 364,-582.5 364,-552.5 91,-552.5"/>
<text text-anchor="start" x="98" y="-563.9" font-family="Arial" font-size="14.00" fill="#000000">display_order </text>
<text text-anchor="start" x="185.9032" y="-563.9" font-family="Arial" font-size="14.00" fill="#666666">[integer]</text>
<polygon fill="none" stroke="#000000" stroke-width="3" points="89,-551.5 89,-799.5 365,-799.5 365,-551.5 89,-551.5"/>
</g>
<!-- public.user_highlight_reactions -->
<g id="node2" class="node">
<title>public.user_highlight_reactions</title>
<polygon fill="#efefef" stroke="transparent" points="468,-1639.5 468,-1674.5 826,-1674.5 826,-1639.5 468,-1639.5"/>
<polygon fill="none" stroke="#000000" points="468,-1639.5 468,-1674.5 826,-1674.5 826,-1639.5 468,-1639.5"/>
<text text-anchor="start" x="474.8454" y="-1652.3" font-family="Arial Bold" font-size="18.00" fill="#000000">public.user_highlight_reactions</text>
<text text-anchor="start" x="721.9008" y="-1652.3" font-family="Arial" font-size="14.00" fill="#000000"> </text>
<text text-anchor="start" x="725.7914" y="-1652.3" font-family="Arial" font-size="14.00" fill="#666666">[BASE TABLE]</text>
<polygon fill="none" stroke="#000000" points="468,-1609.5 468,-1639.5 826,-1639.5 826,-1609.5 468,-1609.5"/>
<text text-anchor="start" x="475" y="-1620.9" font-family="Arial" font-size="14.00" fill="#000000">id </text>
<text text-anchor="start" x="489.7798" y="-1620.9" font-family="Arial" font-size="14.00" fill="#666666">[uuid]</text>
<polygon fill="none" stroke="#000000" points="468,-1579.5 468,-1609.5 826,-1609.5 826,-1579.5 468,-1579.5"/>
<text text-anchor="start" x="475" y="-1590.9" font-family="Arial" font-size="14.00" fill="#000000">user_id </text>
<text text-anchor="start" x="524.7882" y="-1590.9" font-family="Arial" font-size="14.00" fill="#666666">[bigint]</text>
<polygon fill="none" stroke="#000000" points="468,-1549.5 468,-1579.5 826,-1579.5 826,-1549.5 468,-1549.5"/>
<text text-anchor="start" x="475" y="-1560.9" font-family="Arial" font-size="14.00" fill="#000000">highlight_id </text>
<text text-anchor="start" x="549.6858" y="-1560.9" font-family="Arial" font-size="14.00" fill="#666666">[bigint]</text>
<polygon fill="none" stroke="#000000" points="468,-1519.5 468,-1549.5 826,-1549.5 826,-1519.5 468,-1519.5"/>
<text text-anchor="start" x="475" y="-1530.9" font-family="Arial" font-size="14.00" fill="#000000">emoji_id </text>
<text text-anchor="start" x="531.0014" y="-1530.9" font-family="Arial" font-size="14.00" fill="#666666">[uuid]</text>
<polygon fill="none" stroke="#000000" points="468,-1489.5 468,-1519.5 826,-1519.5 826,-1489.5 468,-1489.5"/>
<text text-anchor="start" x="475" y="-1500.9" font-family="Arial" font-size="14.00" fill="#000000">created_at </text>
<text text-anchor="start" x="545.028" y="-1500.9" font-family="Arial" font-size="14.00" fill="#666666">[timestamp without time zone]</text>
<polygon fill="none" stroke="#000000" points="468,-1459.5 468,-1489.5 826,-1489.5 826,-1459.5 468,-1459.5"/>
<text text-anchor="start" x="475" y="-1470.9" font-family="Arial" font-size="14.00" fill="#000000">updated_at </text>
<text text-anchor="start" x="548.9326" y="-1470.9" font-family="Arial" font-size="14.00" fill="#666666">[timestamp without time zone]</text>
<polygon fill="none" stroke="#000000" points="468,-1429.5 468,-1459.5 826,-1459.5 826,-1429.5 468,-1429.5"/>
<text text-anchor="start" x="475" y="-1440.9" font-family="Arial" font-size="14.00" fill="#000000">deleted_at </text>
<text text-anchor="start" x="544.2566" y="-1440.9" font-family="Arial" font-size="14.00" fill="#666666">[timestamp without time zone]</text>
</g>
<!-- public.user_highlight_reactions&#45;&gt;public.emojis -->
<g id="edge1" class="edge">
<title>public.user_highlight_reactions:emoji_id&#45;&gt;public.emojis:id</title>
<path fill="none" stroke="#000000" d="M457.8301,-1533.9538C387.6031,-1525.9119 432.2943,-1430.6239 418,-1351 406.1041,-1284.7359 431.3235,-747.5 364,-747.5"/>
<polygon fill="#000000" stroke="#000000" points="458.0144,-1533.9636 467.7586,-1538.9935 463.0072,-1534.2318 468,-1534.5 468,-1534.5 468,-1534.5 463.0072,-1534.2318 468.2414,-1530.0065 458.0144,-1533.9636 458.0144,-1533.9636"/>
<text text-anchor="start" x="6.5045" y="-1544.5" font-family="Arial" font-size="10.00" fill="#000000">FOREIGN KEY (emoji_id) REFERENCES emojis(id) ON UPDATE CASCADE ON DELETE CASCADE</text>
</g>
<!-- public.users -->
<g id="node3" class="node">
<title>public.users</title>
<polygon fill="#efefef" stroke="transparent" points="471,-1272.5 471,-1307.5 822,-1307.5 822,-1272.5 471,-1272.5"/>
<polygon fill="none" stroke="#000000" points="471,-1272.5 471,-1307.5 822,-1307.5 822,-1272.5 471,-1272.5"/>
<text text-anchor="start" x="549.8662" y="-1285.3" font-family="Arial Bold" font-size="18.00" fill="#000000">public.users</text>
<text text-anchor="start" x="645.88" y="-1285.3" font-family="Arial" font-size="14.00" fill="#000000"> </text>
<text text-anchor="start" x="649.7706" y="-1285.3" font-family="Arial" font-size="14.00" fill="#666666">[BASE TABLE]</text>
<polygon fill="none" stroke="#000000" points="471,-1242.5 471,-1272.5 822,-1272.5 822,-1242.5 471,-1242.5"/>
<text text-anchor="start" x="478" y="-1253.9" font-family="Arial" font-size="14.00" fill="#000000">id </text>
<text text-anchor="start" x="492.7798" y="-1253.9" font-family="Arial" font-size="14.00" fill="#666666">[bigint]</text>
<polygon fill="none" stroke="#000000" points="471,-1212.5 471,-1242.5 822,-1242.5 822,-1212.5 471,-1212.5"/>
<text text-anchor="start" x="478" y="-1223.9" font-family="Arial" font-size="14.00" fill="#000000">open_issues </text>
<text text-anchor="start" x="560.4754" y="-1223.9" font-family="Arial" font-size="14.00" fill="#666666">[bigint]</text>
<polygon fill="none" stroke="#000000" points="471,-1182.5 471,-1212.5 822,-1212.5 822,-1182.5 471,-1182.5"/>
<text text-anchor="start" x="478" y="-1193.9" font-family="Arial" font-size="14.00" fill="#000000">public_repos </text>
<text text-anchor="start" x="561.2426" y="-1193.9" font-family="Arial" font-size="14.00" fill="#666666">[bigint]</text>
<polygon fill="none" stroke="#000000" points="471,-1152.5 471,-1182.5 822,-1182.5 822,-1152.5 471,-1152.5"/>
<text text-anchor="start" x="478" y="-1163.9" font-family="Arial" font-size="14.00" fill="#000000">public_gists </text>
<text text-anchor="start" x="555.014" y="-1163.9" font-family="Arial" font-size="14.00" fill="#666666">[bigint]</text>
<polygon fill="none" stroke="#000000" points="471,-1122.5 471,-1152.5 822,-1152.5 822,-1122.5 471,-1122.5"/>
<text text-anchor="start" x="478" y="-1133.9" font-family="Arial" font-size="14.00" fill="#000000">followers </text>
<text text-anchor="start" x="537.1094" y="-1133.9" font-family="Arial" font-size="14.00" fill="#666666">[bigint]</text>
<polygon fill="none" stroke="#000000" points="471,-1092.5 471,-1122.5 822,-1122.5 822,-1092.5 471,-1092.5"/>
<text text-anchor="start" x="478" y="-1103.9" font-family="Arial" font-size="14.00" fill="#000000">following </text>
<text text-anchor="start" x="536.338" y="-1103.9" font-family="Arial" font-size="14.00" fill="#666666">[bigint]</text>
<polygon fill="none" stroke="#000000" points="471,-1062.5 471,-1092.5 822,-1092.5 822,-1062.5 471,-1062.5"/>
<text text-anchor="start" x="478" y="-1073.9" font-family="Arial" font-size="14.00" fill="#000000">role </text>
<text text-anchor="start" x="505.223" y="-1073.9" font-family="Arial" font-size="14.00" fill="#666666">[bigint]</text>
<polygon fill="none" stroke="#000000" points="471,-1032.5 471,-1062.5 822,-1062.5 822,-1032.5 471,-1032.5"/>
<text text-anchor="start" x="478" y="-1043.9" font-family="Arial" font-size="14.00" fill="#000000">display_local_time </text>
<text text-anchor="start" x="596.2356" y="-1043.9" font-family="Arial" font-size="14.00" fill="#666666">[boolean]</text>
<polygon fill="none" stroke="#000000" points="471,-1002.5 471,-1032.5 822,-1032.5 822,-1002.5 471,-1002.5"/>
<text text-anchor="start" x="478" y="-1013.9" font-family="Arial" font-size="14.00" fill="#000000">has_stars_data </text>
<text text-anchor="start" x="577.5932" y="-1013.9" font-family="Arial" font-size="14.00" fill="#666666">[boolean]</text>
<polygon fill="none" stroke="#000000" points="471,-972.5 471,-1002.5 822,-1002.5 822,-972.5 471,-972.5"/>
<text text-anchor="start" x="478" y="-983.9" font-family="Arial" font-size="14.00" fill="#000000">is_private </text>
<text text-anchor="start" x="541.7854" y="-983.9" font-family="Arial" font-size="14.00" fill="#666666">[boolean]</text>
<polygon fill="none" stroke="#000000" points="471,-942.5 471,-972.5 822,-972.5 822,-942.5 471,-942.5"/>
<text text-anchor="start" x="478" y="-953.9" font-family="Arial" font-size="14.00" fill="#000000">is_open_sauced_member </text>
<text text-anchor="start" x="642.9354" y="-953.9" font-family="Arial" font-size="14.00" fill="#666666">[boolean]</text>
<polygon fill="none" stroke="#000000" points="471,-912.5 471,-942.5 822,-942.5 822,-912.5 471,-912.5"/>
<text text-anchor="start" x="478" y="-923.9" font-family="Arial" font-size="14.00" fill="#000000">is_onboarded </text>
<text text-anchor="start" x="566.7012" y="-923.9" font-family="Arial" font-size="14.00" fill="#666666">[boolean]</text>
<polygon fill="none" stroke="#000000" points="471,-882.5 471,-912.5 822,-912.5 822,-882.5 471,-882.5"/>
<text text-anchor="start" x="478" y="-893.9" font-family="Arial" font-size="14.00" fill="#000000">is_waitlisted </text>
<text text-anchor="start" x="557.3352" y="-893.9" font-family="Arial" font-size="14.00" fill="#666666">[boolean]</text>
<polygon fill="none" stroke="#000000" points="471,-852.5 471,-882.5 822,-882.5 822,-852.5 471,-852.5"/>
<text text-anchor="start" x="478" y="-863.9" font-family="Arial" font-size="14.00" fill="#000000">hireable </text>
<text text-anchor="start" x="531.6774" y="-863.9" font-family="Arial" font-size="14.00" fill="#666666">[boolean]</text>
<polygon fill="none" stroke="#000000" points="471,-822.5 471,-852.5 822,-852.5 822,-822.5 471,-822.5"/>
<text text-anchor="start" x="478" y="-833.9" font-family="Arial" font-size="14.00" fill="#000000">display_email </text>
<text text-anchor="start" x="566.6732" y="-833.9" font-family="Arial" font-size="14.00" fill="#666666">[boolean]</text>
<polygon fill="none" stroke="#000000" points="471,-792.5 471,-822.5 822,-822.5 822,-792.5 471,-792.5"/>
<text text-anchor="start" x="478" y="-803.9" font-family="Arial" font-size="14.00" fill="#000000">receive_collaboration </text>
<text text-anchor="start" x="614.1374" y="-803.9" font-family="Arial" font-size="14.00" fill="#666666">[boolean]</text>
<polygon fill="none" stroke="#000000" points="471,-762.5 471,-792.5 822,-792.5 822,-762.5 471,-762.5"/>
<text text-anchor="start" x="478" y="-773.9" font-family="Arial" font-size="14.00" fill="#000000">created_at </text>
<text text-anchor="start" x="548.028" y="-773.9" font-family="Arial" font-size="14.00" fill="#666666">[timestamp without time zone]</text>
<polygon fill="none" stroke="#000000" points="471,-732.5 471,-762.5 822,-762.5 822,-732.5 471,-732.5"/>
<text text-anchor="start" x="478" y="-743.9" font-family="Arial" font-size="14.00" fill="#000000">updated_at </text>
<text text-anchor="start" x="551.9326" y="-743.9" font-family="Arial" font-size="14.00" fill="#666666">[timestamp without time zone]</text>
<polygon fill="none" stroke="#000000" points="471,-702.5 471,-732.5 822,-732.5 822,-702.5 471,-702.5"/>
<text text-anchor="start" x="478" y="-713.9" font-family="Arial" font-size="14.00" fill="#000000">deleted_at </text>
<text text-anchor="start" x="547.2566" y="-713.9" font-family="Arial" font-size="14.00" fill="#666666">[timestamp without time zone]</text>
<polygon fill="none" stroke="#000000" points="471,-672.5 471,-702.5 822,-702.5 822,-672.5 471,-672.5"/>
<text text-anchor="start" x="478" y="-683.9" font-family="Arial" font-size="14.00" fill="#000000">type </text>
<text text-anchor="start" x="508.3464" y="-683.9" font-family="Arial" font-size="14.00" fill="#666666">[varchar(20)]</text>
<polygon fill="none" stroke="#000000" points="471,-642.5 471,-672.5 822,-672.5 822,-642.5 471,-642.5"/>
<text text-anchor="start" x="478" y="-653.9" font-family="Arial" font-size="14.00" fill="#000000">timezone </text>
<text text-anchor="start" x="538.6788" y="-653.9" font-family="Arial" font-size="14.00" fill="#666666">[varchar(50)]</text>
<polygon fill="none" stroke="#000000" points="471,-612.5 471,-642.5 822,-642.5 822,-612.5 471,-612.5"/>
<text text-anchor="start" x="478" y="-623.9" font-family="Arial" font-size="14.00" fill="#000000">login </text>
<text text-anchor="start" x="511.4516" y="-623.9" font-family="Arial" font-size="14.00" fill="#666666">[varchar(255)]</text>
<polygon fill="none" stroke="#000000" points="471,-582.5 471,-612.5 822,-612.5 822,-582.5 471,-582.5"/>
<text text-anchor="start" x="478" y="-593.9" font-family="Arial" font-size="14.00" fill="#000000">email </text>
<text text-anchor="start" x="515.3296" y="-593.9" font-family="Arial" font-size="14.00" fill="#666666">[varchar(255)]</text>
<polygon fill="none" stroke="#000000" points="471,-552.5 471,-582.5 822,-582.5 822,-552.5 471,-552.5"/>
<text text-anchor="start" x="478" y="-563.9" font-family="Arial" font-size="14.00" fill="#000000">bio </text>
<text text-anchor="start" x="500.5624" y="-563.9" font-family="Arial" font-size="14.00" fill="#666666">[varchar(255)]</text>
<polygon fill="none" stroke="#000000" points="471,-522.5 471,-552.5 822,-552.5 822,-522.5 471,-522.5"/>
<text text-anchor="start" x="478" y="-533.9" font-family="Arial" font-size="14.00" fill="#000000">name </text>
<text text-anchor="start" x="516.899" y="-533.9" font-family="Arial" font-size="14.00" fill="#666666">[varchar(255)]</text>
<polygon fill="none" stroke="#000000" points="471,-492.5 471,-522.5 822,-522.5 822,-492.5 471,-492.5"/>
<text text-anchor="start" x="478" y="-503.9" font-family="Arial" font-size="14.00" fill="#000000">twitter_username </text>
<text text-anchor="start" x="589.2356" y="-503.9" font-family="Arial" font-size="14.00" fill="#666666">[varchar(15)]</text>
<polygon fill="none" stroke="#000000" points="471,-462.5 471,-492.5 822,-492.5 822,-462.5 471,-462.5"/>
<text text-anchor="start" x="478" y="-473.9" font-family="Arial" font-size="14.00" fill="#000000">company </text>
<text text-anchor="start" x="538.6816" y="-473.9" font-family="Arial" font-size="14.00" fill="#666666">[varchar(255)]</text>
<polygon fill="none" stroke="#000000" points="471,-432.5 471,-462.5 822,-462.5 822,-432.5 471,-432.5"/>
<text text-anchor="start" x="478" y="-443.9" font-family="Arial" font-size="14.00" fill="#000000">location </text>
<text text-anchor="start" x="530.1248" y="-443.9" font-family="Arial" font-size="14.00" fill="#666666">[varchar(255)]</text>
<polygon fill="none" stroke="#000000" points="471,-402.5 471,-432.5 822,-432.5 822,-402.5 471,-402.5"/>
<text text-anchor="start" x="478" y="-413.9" font-family="Arial" font-size="14.00" fill="#000000">node_id </text>
<text text-anchor="start" x="531.6928" y="-413.9" font-family="Arial" font-size="14.00" fill="#666666">[varchar(50)]</text>
<polygon fill="none" stroke="#000000" points="471,-372.5 471,-402.5 822,-402.5 822,-372.5 471,-372.5"/>
<text text-anchor="start" x="478" y="-383.9" font-family="Arial" font-size="14.00" fill="#000000">avatar_url </text>
<text text-anchor="start" x="544.122" y="-383.9" font-family="Arial" font-size="14.00" fill="#666666">[varchar(255)]</text>
<polygon fill="none" stroke="#000000" points="471,-342.5 471,-372.5 822,-372.5 822,-342.5 471,-342.5"/>
<text text-anchor="start" x="478" y="-353.9" font-family="Arial" font-size="14.00" fill="#000000">gravatar_id </text>
<text text-anchor="start" x="551.9046" y="-353.9" font-family="Arial" font-size="14.00" fill="#666666">[varchar(255)]</text>
<polygon fill="none" stroke="#000000" points="471,-312.5 471,-342.5 822,-342.5 822,-312.5 471,-312.5"/>
<text text-anchor="start" x="478" y="-323.9" font-family="Arial" font-size="14.00" fill="#000000">url </text>
<text text-anchor="start" x="497.4404" y="-323.9" font-family="Arial" font-size="14.00" fill="#666666">[varchar(255)]</text>
<polygon fill="none" stroke="#000000" points="471,-282.5 471,-312.5 822,-312.5 822,-282.5 471,-282.5"/>
<text text-anchor="start" x="478" y="-293.9" font-family="Arial" font-size="14.00" fill="#000000">blog </text>
<text text-anchor="start" x="508.345" y="-293.9" font-family="Arial" font-size="14.00" fill="#666666">[varchar(255)]</text>
<polygon fill="none" stroke="#000000" points="471,-252.5 471,-282.5 822,-282.5 822,-252.5 471,-252.5"/>
<text text-anchor="start" x="478" y="-263.9" font-family="Arial" font-size="14.00" fill="#000000">interests </text>
<text text-anchor="start" x="534.7868" y="-263.9" font-family="Arial" font-size="14.00" fill="#666666">[varchar(200)]</text>
<polygon fill="none" stroke="#000000" points="471,-222.5 471,-252.5 822,-252.5 822,-222.5 471,-222.5"/>
<text text-anchor="start" x="478" y="-233.9" font-family="Arial" font-size="14.00" fill="#000000">linkedin_url </text>
<text text-anchor="start" x="552.6732" y="-233.9" font-family="Arial" font-size="14.00" fill="#666666">[varchar(255)]</text>
<polygon fill="none" stroke="#000000" points="471,-192.5 471,-222.5 822,-222.5 822,-192.5 471,-192.5"/>
<text text-anchor="start" x="478" y="-203.9" font-family="Arial" font-size="14.00" fill="#000000">github_sponsors_url </text>
<text text-anchor="start" x="607.9242" y="-203.9" font-family="Arial" font-size="14.00" fill="#666666">[varchar(255)]</text>
<polygon fill="none" stroke="#000000" points="471,-162.5 471,-192.5 822,-192.5 822,-162.5 471,-162.5"/>
<text text-anchor="start" x="478" y="-173.9" font-family="Arial" font-size="14.00" fill="#000000">last_fetched_users_at </text>
<text text-anchor="start" x="618.8288" y="-173.9" font-family="Arial" font-size="14.00" fill="#666666">[timestamp without time zone]</text>
<polygon fill="none" stroke="#000000" points="471,-132.5 471,-162.5 822,-162.5 822,-132.5 471,-132.5"/>
<text text-anchor="start" x="478" y="-143.9" font-family="Arial" font-size="14.00" fill="#000000">languages </text>
<text text-anchor="start" x="546.4754" y="-143.9" font-family="Arial" font-size="14.00" fill="#666666">[jsonb]</text>
<polygon fill="none" stroke="#000000" points="471,-102.5 471,-132.5 822,-132.5 822,-102.5 471,-102.5"/>
<text text-anchor="start" x="478" y="-113.9" font-family="Arial" font-size="14.00" fill="#000000">first_opened_pr_at </text>
<text text-anchor="start" x="598.5988" y="-113.9" font-family="Arial" font-size="14.00" fill="#666666">[timestamp without time zone]</text>
<polygon fill="none" stroke="#000000" points="471,-72.5 471,-102.5 822,-102.5 822,-72.5 471,-72.5"/>
<text text-anchor="start" x="477.6929" y="-83.9" font-family="Arial" font-size="14.00" fill="#000000">first_pushed_commit_at </text>
<text text-anchor="start" x="630.1669" y="-83.9" font-family="Arial" font-size="14.00" fill="#666666">[timestamp without time zone]</text>
<polygon fill="none" stroke="#000000" points="471,-42.5 471,-72.5 822,-72.5 822,-42.5 471,-42.5"/>
<text text-anchor="start" x="478" y="-53.9" font-family="Arial" font-size="14.00" fill="#000000">connected_at </text>
<text text-anchor="start" x="565.9326" y="-53.9" font-family="Arial" font-size="14.00" fill="#666666">[timestamp without time zone]</text>
</g>
<!-- public.user_highlight_reactions&#45;&gt;public.users -->
<g id="edge2" class="edge">
<title>public.user_highlight_reactions:user_id&#45;&gt;public.users:id</title>
<path fill="none" stroke="#000000" d="M457.7486,-1593.8759C378.2006,-1583.743 408.5908,-1452.7572 468,-1387 521.0088,-1328.3271 768.9912,-1409.6729 822,-1351 849.8581,-1320.1651 863.5556,-1257.5 822,-1257.5"/>
<polygon fill="#000000" stroke="#000000" points="458.0185,-1593.8922 467.7265,-1598.9917 463.0092,-1594.1961 468,-1594.5 468,-1594.5 468,-1594.5 463.0092,-1594.1961 468.2735,-1590.0083 458.0185,-1593.8922 458.0185,-1593.8922"/>
<text text-anchor="start" x="14.9425" y="-1604.5" font-family="Arial" font-size="10.00" fill="#000000">FOREIGN KEY (user_id) REFERENCES users(id) ON UPDATE CASCADE ON DELETE CASCADE</text>
</g>
<!-- public.user_highlights -->
<g id="node4" class="node">
<title>public.user_highlights</title>
<polygon fill="#efefef" stroke="transparent" points="926,-807.5 926,-842.5 1210,-842.5 1210,-807.5 926,-807.5"/>
<polygon fill="none" stroke="#000000" points="926,-807.5 926,-842.5 1210,-842.5 1210,-807.5 926,-807.5"/>
<text text-anchor="start" x="932.8552" y="-820.3" font-family="Arial Bold" font-size="18.00" fill="#000000">public.user_highlights</text>
<text text-anchor="start" x="1105.891" y="-820.3" font-family="Arial" font-size="14.00" fill="#000000"> </text>
<text text-anchor="start" x="1109.7816" y="-820.3" font-family="Arial" font-size="14.00" fill="#666666">[BASE TABLE]</text>
<polygon fill="none" stroke="#000000" points="926,-777.5 926,-807.5 1210,-807.5 1210,-777.5 926,-777.5"/>
<text text-anchor="start" x="933" y="-788.9" font-family="Arial" font-size="14.00" fill="#000000">id </text>
<text text-anchor="start" x="947.7798" y="-788.9" font-family="Arial" font-size="14.00" fill="#666666">[bigint]</text>
<polygon fill="none" stroke="#000000" points="926,-747.5 926,-777.5 1210,-777.5 1210,-747.5 926,-747.5"/>
<text text-anchor="start" x="933" y="-758.9" font-family="Arial" font-size="14.00" fill="#000000">user_id </text>
<text text-anchor="start" x="982.7882" y="-758.9" font-family="Arial" font-size="14.00" fill="#666666">[bigint]</text>
<polygon fill="none" stroke="#000000" points="926,-717.5 926,-747.5 1210,-747.5 1210,-717.5 926,-717.5"/>
<text text-anchor="start" x="933" y="-728.9" font-family="Arial" font-size="14.00" fill="#000000">url </text>
<text text-anchor="start" x="952.4404" y="-728.9" font-family="Arial" font-size="14.00" fill="#666666">[varchar(255)]</text>
<polygon fill="none" stroke="#000000" points="926,-687.5 926,-717.5 1210,-717.5 1210,-687.5 926,-687.5"/>
<text text-anchor="start" x="933" y="-698.9" font-family="Arial" font-size="14.00" fill="#000000">highlight </text>
<text text-anchor="start" x="989.014" y="-698.9" font-family="Arial" font-size="14.00" fill="#666666">[varchar(500)]</text>
<polygon fill="none" stroke="#000000" points="926,-657.5 926,-687.5 1210,-687.5 1210,-657.5 926,-657.5"/>
<text text-anchor="start" x="933" y="-668.9" font-family="Arial" font-size="14.00" fill="#000000">pinned </text>
<text text-anchor="start" x="978.9102" y="-668.9" font-family="Arial" font-size="14.00" fill="#666666">[boolean]</text>
<polygon fill="none" stroke="#000000" points="926,-627.5 926,-657.5 1210,-657.5 1210,-627.5 926,-627.5"/>
<text text-anchor="start" x="933" y="-638.9" font-family="Arial" font-size="14.00" fill="#000000">created_at </text>
<text text-anchor="start" x="1003.028" y="-638.9" font-family="Arial" font-size="14.00" fill="#666666">[timestamp with time zone]</text>
<polygon fill="none" stroke="#000000" points="926,-597.5 926,-627.5 1210,-627.5 1210,-597.5 926,-597.5"/>
<text text-anchor="start" x="933" y="-608.9" font-family="Arial" font-size="14.00" fill="#000000">updated_at </text>
<text text-anchor="start" x="1006.9326" y="-608.9" font-family="Arial" font-size="14.00" fill="#666666">[timestamp with time zone]</text>
<polygon fill="none" stroke="#000000" points="926,-567.5 926,-597.5 1210,-597.5 1210,-567.5 926,-567.5"/>
<text text-anchor="start" x="933" y="-578.9" font-family="Arial" font-size="14.00" fill="#000000">deleted_at </text>
<text text-anchor="start" x="1002.2566" y="-578.9" font-family="Arial" font-size="14.00" fill="#666666">[timestamp with time zone]</text>
<polygon fill="none" stroke="#000000" points="926,-537.5 926,-567.5 1210,-567.5 1210,-537.5 926,-537.5"/>
<text text-anchor="start" x="933" y="-548.9" font-family="Arial" font-size="14.00" fill="#000000">title </text>
<text text-anchor="start" x="958.6676" y="-548.9" font-family="Arial" font-size="14.00" fill="#666666">[varchar(100)]</text>
<polygon fill="none" stroke="#000000" points="926,-507.5 926,-537.5 1210,-537.5 1210,-507.5 926,-507.5"/>
<text text-anchor="start" x="933" y="-518.9" font-family="Arial" font-size="14.00" fill="#000000">shipped_at </text>
<text text-anchor="start" x="1005.366" y="-518.9" font-family="Arial" font-size="14.00" fill="#666666">[timestamp without time zone]</text>
</g>
<!-- public.user_highlight_reactions&#45;&gt;public.user_highlights -->
<g id="edge3" class="edge">
<title>public.user_highlight_reactions:highlight_id&#45;&gt;public.user_highlights:id</title>
<path fill="none" stroke="#000000" d="M836.1717,-1564.0219C918.5828,-1555.8133 859.3582,-1443.4966 874,-1351 883.7443,-1289.4425 863.6761,-792.5 926,-792.5"/>
<polygon fill="#000000" stroke="#000000" points="835.989,-1564.0304 825.7887,-1560.005 830.9945,-1564.2652 826,-1564.5 826,-1564.5 826,-1564.5 830.9945,-1564.2652 826.2113,-1568.995 835.989,-1564.0304 835.989,-1564.0304"/>
<text text-anchor="start" x="832.6555" y="-1574.5" font-family="Arial" font-size="10.00" fill="#000000">FOREIGN KEY (highlight_id) REFERENCES user_highlights(id) ON UPDATE CASCADE ON DELETE CASCADE</text>
</g>
</g>
</svg>
