<?xml version="1.0" encoding="UTF-8" standalone="no"?>
<!DOCTYPE svg PUBLIC "-//W3C//DTD SVG 1.1//EN"
 "http://www.w3.org/Graphics/SVG/1.1/DTD/svg11.dtd">
<!-- Generated by graphviz version 3.0.0 (20220226.1711)
 -->
<!-- Title: dependencies Pages: 1 -->
<svg width="2196pt" height="247pt"
 viewBox="0.00 0.00 2196.00 246.80" xmlns="http://www.w3.org/2000/svg" xmlns:xlink="http://www.w3.org/1999/xlink">
<g id="graph0" class="graph" transform="scale(1 1) rotate(0) translate(4 242.8)">
<title>dependencies</title>
<polygon fill="white" stroke="transparent" points="-4,4 -4,-242.8 2192,-242.8 2192,4 -4,4"/>
<text text-anchor="middle" x="1094" y="-8.2" font-family="sans-serif" font-size="14.00">dependencies</text>
<g id="clust1" class="cluster">
<title>cluster_PullRequestModule</title>
<polygon fill="none" stroke="black" stroke-dasharray="1,5" points="8,-32.8 8,-230.8 2180,-230.8 2180,-32.8 8,-32.8"/>
</g>
<g id="clust4" class="cluster">
<title>cluster_PullRequestModule_exports</title>
<polygon fill="none" stroke="black" points="1100,-170.8 1100,-222.8 1436,-222.8 1436,-170.8 1100,-170.8"/>
</g>
<g id="clust3" class="cluster">
<title>cluster_PullRequestModule_imports</title>
<polygon fill="none" stroke="black" points="1779,-40.8 1779,-92.8 2172,-92.8 2172,-40.8 1779,-40.8"/>
</g>
<g id="clust6" class="cluster">
<title>cluster_PullRequestModule_providers</title>
<polygon fill="none" stroke="black" points="16,-40.8 16,-92.8 1771,-92.8 1771,-40.8 16,-40.8"/>
</g>
<!-- OpenAiModule -->
<g id="node1" class="node">
<title>OpenAiModule</title>
<polygon fill="#8dd3c7" stroke="black" points="2163.88,-84.8 2160.88,-88.8 2139.88,-88.8 2136.88,-84.8 2060.12,-84.8 2060.12,-48.8 2163.88,-48.8 2163.88,-84.8"/>
<text text-anchor="middle" x="2112" y="-62.6" font-family="Times,serif" font-size="14.00">OpenAiModule</text>
</g>
<!-- PullRequestModule -->
<g id="node4" class="node">
<title>PullRequestModule</title>
<polygon fill="#8dd3c7" stroke="black" points="1320.72,-149.8 1317.72,-153.8 1296.72,-153.8 1293.72,-149.8 1193.28,-149.8 1193.28,-113.8 1320.72,-113.8 1320.72,-149.8"/>
<text text-anchor="middle" x="1257" y="-127.6" font-family="Times,serif" font-size="14.00">PullRequestModule</text>
</g>
<!-- OpenAiModule&#45;&gt;PullRequestModule -->
<g id="edge1" class="edge">
<title>OpenAiModule&#45;&gt;PullRequestModule</title>
<path fill="none" stroke="black" d="M2112,-84.81C2112,-107.29 2112,-142.8 2112,-142.8 2112,-142.8 1330.91,-142.8 1330.91,-142.8"/>
<polygon fill="black" stroke="black" points="1330.91,-139.3 1320.91,-142.8 1330.91,-146.3 1330.91,-139.3"/>
</g>
<!-- RepoFilterModule -->
<g id="node2" class="node">
<title>RepoFilterModule</title>
<polygon fill="#8dd3c7" stroke="black" points="2041.94,-84.8 2038.94,-88.8 2017.94,-88.8 2014.94,-84.8 1922.06,-84.8 1922.06,-48.8 2041.94,-48.8 2041.94,-84.8"/>
<text text-anchor="middle" x="1982" y="-62.6" font-family="Times,serif" font-size="14.00">RepoFilterModule</text>
</g>
<!-- RepoFilterModule&#45;&gt;PullRequestModule -->
<g id="edge2" class="edge">
<title>RepoFilterModule&#45;&gt;PullRequestModule</title>
<path fill="none" stroke="black" d="M1982,-84.93C1982,-105.37 1982,-135.8 1982,-135.8 1982,-135.8 1330.7,-135.8 1330.7,-135.8"/>
<polygon fill="black" stroke="black" points="1330.7,-132.3 1320.7,-135.8 1330.7,-139.3 1330.7,-132.3"/>
</g>
<!-- TimescaleModule -->
<g id="node3" class="node">
<title>TimescaleModule</title>
<polygon fill="#8dd3c7" stroke="black" points="1904.58,-84.8 1901.58,-88.8 1880.58,-88.8 1877.58,-84.8 1787.42,-84.8 1787.42,-48.8 1904.58,-48.8 1904.58,-84.8"/>
<text text-anchor="middle" x="1846" y="-62.6" font-family="Times,serif" font-size="14.00">TimescaleModule</text>
</g>
<!-- TimescaleModule&#45;&gt;PullRequestModule -->
<g id="edge3" class="edge">
<title>TimescaleModule&#45;&gt;PullRequestModule</title>
<path fill="none" stroke="black" d="M1846,-85.07C1846,-103.36 1846,-128.8 1846,-128.8 1846,-128.8 1330.87,-128.8 1330.87,-128.8"/>
<polygon fill="black" stroke="black" points="1330.87,-125.3 1320.87,-128.8 1330.87,-132.3 1330.87,-125.3"/>
</g>
<!-- PullRequestReviewService  -->
<g id="node5" class="node">
<title>PullRequestReviewService </title>
<polygon fill="#fb8072" stroke="black" points="1427.91,-214.8 1256.09,-214.8 1256.09,-178.8 1427.91,-178.8 1427.91,-214.8"/>
<text text-anchor="middle" x="1342" y="-192.6" font-family="Times,serif" font-size="14.00">PullRequestReviewService </text>
</g>
<!-- PullRequestModule&#45;&gt;PullRequestReviewService  -->
<g id="edge4" class="edge">
<title>PullRequestModule&#45;&gt;PullRequestReviewService </title>
<path fill="none" stroke="black" stroke-dasharray="5,2" d="M1288.33,-149.91C1288.33,-149.91 1288.33,-168.79 1288.33,-168.79"/>
<polygon fill="black" stroke="black" points="1284.83,-168.79 1288.33,-178.79 1291.83,-168.79 1284.83,-168.79"/>
</g>
<!-- PullRequestService  -->
<g id="node6" class="node">
<title>PullRequestService </title>
<polygon fill="#fb8072" stroke="black" points="1237.65,-214.8 1108.35,-214.8 1108.35,-178.8 1237.65,-178.8 1237.65,-214.8"/>
<text text-anchor="middle" x="1173" y="-192.6" font-family="Times,serif" font-size="14.00">PullRequestService </text>
</g>
<!-- PullRequestModule&#45;&gt;PullRequestService  -->
<g id="edge5" class="edge">
<title>PullRequestModule&#45;&gt;PullRequestService </title>
<path fill="none" stroke="black" stroke-dasharray="5,2" d="M1215.48,-149.91C1215.48,-149.91 1215.48,-168.79 1215.48,-168.79"/>
<polygon fill="black" stroke="black" points="1211.98,-168.79 1215.48,-178.79 1218.98,-168.79 1211.98,-168.79"/>
</g>
<!-- CodeExplanationService -->
<g id="node7" class="node">
<title>CodeExplanationService</title>
<ellipse fill="#fdb462" stroke="black" cx="1656" cy="-66.8" rx="107.08" ry="18"/>
<text text-anchor="middle" x="1656" y="-62.6" font-family="Times,serif" font-size="14.00">CodeExplanationService</text>
</g>
<!-- CodeExplanationService&#45;&gt;PullRequestModule -->
<g id="edge6" class="edge">
<title>CodeExplanationService&#45;&gt;PullRequestModule</title>
<path fill="none" stroke="black" d="M1656,-84.81C1656,-100.85 1656,-121.8 1656,-121.8 1656,-121.8 1330.66,-121.8 1330.66,-121.8"/>
<polygon fill="black" stroke="black" points="1330.66,-118.3 1320.66,-121.8 1330.66,-125.3 1330.66,-118.3"/>
</g>
<!-- CodeRefactorSuggestionService -->
<g id="node8" class="node">
<title>CodeRefactorSuggestionService</title>
<ellipse fill="#fdb462" stroke="black" cx="1394" cy="-66.8" rx="136.59" ry="18"/>
<text text-anchor="middle" x="1394" y="-62.6" font-family="Times,serif" font-size="14.00">CodeRefactorSuggestionService</text>
</g>
<!-- CodeRefactorSuggestionService&#45;&gt;PullRequestModule -->
<g id="edge7" class="edge">
<title>CodeRefactorSuggestionService&#45;&gt;PullRequestModule</title>
<path fill="none" stroke="black" d="M1289.03,-78.42C1289.03,-78.42 1289.03,-103.65 1289.03,-103.65"/>
<polygon fill="black" stroke="black" points="1285.53,-103.65 1289.03,-113.65 1292.53,-103.65 1285.53,-103.65"/>
</g>
<!-- CodeTestSuggestionService -->
<g id="node9" class="node">
<title>CodeTestSuggestionService</title>
<ellipse fill="#fdb462" stroke="black" cx="1120" cy="-66.8" rx="119.85" ry="18"/>
<text text-anchor="middle" x="1120" y="-62.6" font-family="Times,serif" font-size="14.00">CodeTestSuggestionService</text>
</g>
<!-- CodeTestSuggestionService&#45;&gt;PullRequestModule -->
<g id="edge8" class="edge">
<title>CodeTestSuggestionService&#45;&gt;PullRequestModule</title>
<path fill="none" stroke="black" d="M1216.66,-77.53C1216.66,-77.53 1216.66,-103.67 1216.66,-103.67"/>
<polygon fill="black" stroke="black" points="1213.16,-103.67 1216.66,-113.67 1220.16,-103.67 1213.16,-103.67"/>
</g>
<!-- PullRequestDescriptionService -->
<g id="node10" class="node">
<title>PullRequestDescriptionService</title>
<ellipse fill="#fdb462" stroke="black" cx="850" cy="-66.8" rx="131.95" ry="18"/>
<text text-anchor="middle" x="850" y="-62.6" font-family="Times,serif" font-size="14.00">PullRequestDescriptionService</text>
</g>
<!-- PullRequestDescriptionService&#45;&gt;PullRequestModule -->
<g id="edge9" class="edge">
<title>PullRequestDescriptionService&#45;&gt;PullRequestModule</title>
<path fill="none" stroke="black" d="M850,-84.81C850,-100.85 850,-121.8 850,-121.8 850,-121.8 1182.96,-121.8 1182.96,-121.8"/>
<polygon fill="black" stroke="black" points="1182.96,-125.3 1192.96,-121.8 1182.96,-118.3 1182.96,-125.3"/>
</g>
<!-- PullRequestInsightsService -->
<g id="node11" class="node">
<title>PullRequestInsightsService</title>
<ellipse fill="#fdb462" stroke="black" cx="583" cy="-66.8" rx="117.01" ry="18"/>
<text text-anchor="middle" x="583" y="-62.6" font-family="Times,serif" font-size="14.00">PullRequestInsightsService</text>
</g>
<!-- PullRequestInsightsService&#45;&gt;PullRequestModule -->
<g id="edge10" class="edge">
<title>PullRequestInsightsService&#45;&gt;PullRequestModule</title>
<path fill="none" stroke="black" d="M583,-85.07C583,-103.36 583,-128.8 583,-128.8 583,-128.8 1183.29,-128.8 1183.29,-128.8"/>
<polygon fill="black" stroke="black" points="1183.29,-132.3 1193.29,-128.8 1183.29,-125.3 1183.29,-132.3"/>
</g>
<!-- PullRequestReviewService -->
<g id="node12" class="node">
<title>PullRequestReviewService</title>
<ellipse fill="#fdb462" stroke="black" cx="332" cy="-66.8" rx="116.34" ry="18"/>
<text text-anchor="middle" x="332" y="-62.6" font-family="Times,serif" font-size="14.00">PullRequestReviewService</text>
</g>
<!-- PullRequestReviewService&#45;&gt;PullRequestModule -->
<g id="edge11" class="edge">
<title>PullRequestReviewService&#45;&gt;PullRequestModule</title>
<path fill="none" stroke="black" d="M332,-84.93C332,-105.37 332,-135.8 332,-135.8 332,-135.8 1183.06,-135.8 1183.06,-135.8"/>
<polygon fill="black" stroke="black" points="1183.06,-139.3 1193.06,-135.8 1183.06,-132.3 1183.06,-139.3"/>
</g>
<!-- PullRequestService -->
<g id="node13" class="node">
<title>PullRequestService</title>
<ellipse fill="#fdb462" stroke="black" cx="111" cy="-66.8" rx="86.84" ry="18"/>
<text text-anchor="middle" x="111" y="-62.6" font-family="Times,serif" font-size="14.00">PullRequestService</text>
</g>
<!-- PullRequestService&#45;&gt;PullRequestModule -->
<g id="edge12" class="edge">
<title>PullRequestService&#45;&gt;PullRequestModule</title>
<path fill="none" stroke="black" d="M111,-84.81C111,-107.29 111,-142.8 111,-142.8 111,-142.8 1183.34,-142.8 1183.34,-142.8"/>
<polygon fill="black" stroke="black" points="1183.34,-146.3 1193.34,-142.8 1183.34,-139.3 1183.34,-146.3"/>
</g>
</g>
</svg>
