<?xml version="1.0" encoding="UTF-8" standalone="no"?>
<!DOCTYPE svg PUBLIC "-//W3C//DTD SVG 1.1//EN"
 "http://www.w3.org/Graphics/SVG/1.1/DTD/svg11.dtd">
<!-- Generated by graphviz version 3.0.0 (20220226.1711)
 -->
<!-- Title: dependencies Pages: 1 -->
<svg width="2061pt" height="247pt"
 viewBox="0.00 0.00 2061.00 246.80" xmlns="http://www.w3.org/2000/svg" xmlns:xlink="http://www.w3.org/1999/xlink">
<g id="graph0" class="graph" transform="scale(1 1) rotate(0) translate(4 242.8)">
<title>dependencies</title>
<polygon fill="white" stroke="transparent" points="-4,4 -4,-242.8 2057,-242.8 2057,4 -4,4"/>
<text text-anchor="middle" x="1026.5" y="-8.2" font-family="sans-serif" font-size="14.00">dependencies</text>
<g id="clust1" class="cluster">
<title>cluster_PullRequestModule</title>
<polygon fill="none" stroke="black" stroke-dasharray="1,5" points="8,-32.8 8,-230.8 2045,-230.8 2045,-32.8 8,-32.8"/>
</g>
<g id="clust3" class="cluster">
<title>cluster_PullRequestModule_imports</title>
<polygon fill="none" stroke="black" points="1779,-40.8 1779,-92.8 2037,-92.8 2037,-40.8 1779,-40.8"/>
</g>
<g id="clust4" class="cluster">
<title>cluster_PullRequestModule_exports</title>
<polygon fill="none" stroke="black" points="963,-170.8 963,-222.8 1299,-222.8 1299,-170.8 963,-170.8"/>
</g>
<g id="clust6" class="cluster">
<title>cluster_PullRequestModule_providers</title>
<polygon fill="none" stroke="black" points="16,-40.8 16,-92.8 1771,-92.8 1771,-40.8 16,-40.8"/>
</g>
<!-- OpenAiModule -->
<g id="node1" class="node">
<title>OpenAiModule</title>
<polygon fill="#8dd3c7" stroke="black" points="2028.88,-84.8 2025.88,-88.8 2004.88,-88.8 2001.88,-84.8 1925.12,-84.8 1925.12,-48.8 2028.88,-48.8 2028.88,-84.8"/>
<text text-anchor="middle" x="1977" y="-62.6" font-family="Times,serif" font-size="14.00">OpenAiModule</text>
</g>
<!-- PullRequestModule -->
<g id="node3" class="node">
<title>PullRequestModule</title>
<polygon fill="#8dd3c7" stroke="black" points="1183.72,-149.8 1180.72,-153.8 1159.72,-153.8 1156.72,-149.8 1056.28,-149.8 1056.28,-113.8 1183.72,-113.8 1183.72,-149.8"/>
<text text-anchor="middle" x="1120" y="-127.6" font-family="Times,serif" font-size="14.00">PullRequestModule</text>
</g>
<!-- OpenAiModule&#45;&gt;PullRequestModule -->
<g id="edge1" class="edge">
<title>OpenAiModule&#45;&gt;PullRequestModule</title>
<path fill="none" stroke="black" d="M1977,-84.81C1977,-107.29 1977,-142.8 1977,-142.8 1977,-142.8 1193.71,-142.8 1193.71,-142.8"/>
<polygon fill="black" stroke="black" points="1193.71,-139.3 1183.71,-142.8 1193.71,-146.3 1193.71,-139.3"/>
</g>
<!-- RepoFilterModule -->
<g id="node2" class="node">
<title>RepoFilterModule</title>
<polygon fill="#8dd3c7" stroke="black" points="1906.94,-84.8 1903.94,-88.8 1882.94,-88.8 1879.94,-84.8 1787.06,-84.8 1787.06,-48.8 1906.94,-48.8 1906.94,-84.8"/>
<text text-anchor="middle" x="1847" y="-62.6" font-family="Times,serif" font-size="14.00">RepoFilterModule</text>
</g>
<!-- RepoFilterModule&#45;&gt;PullRequestModule -->
<g id="edge2" class="edge">
<title>RepoFilterModule&#45;&gt;PullRequestModule</title>
<path fill="none" stroke="black" d="M1847,-84.93C1847,-105.37 1847,-135.8 1847,-135.8 1847,-135.8 1193.88,-135.8 1193.88,-135.8"/>
<polygon fill="black" stroke="black" points="1193.88,-132.3 1183.88,-135.8 1193.88,-139.3 1193.88,-132.3"/>
</g>
<!-- PullRequestReviewService  -->
<g id="node4" class="node">
<title>PullRequestReviewService </title>
<polygon fill="#fb8072" stroke="black" points="1290.91,-214.8 1119.09,-214.8 1119.09,-178.8 1290.91,-178.8 1290.91,-214.8"/>
<text text-anchor="middle" x="1205" y="-192.6" font-family="Times,serif" font-size="14.00">PullRequestReviewService </text>
</g>
<!-- PullRequestModule&#45;&gt;PullRequestReviewService  -->
<g id="edge3" class="edge">
<title>PullRequestModule&#45;&gt;PullRequestReviewService </title>
<path fill="none" stroke="black" stroke-dasharray="5,2" d="M1151.33,-149.91C1151.33,-149.91 1151.33,-168.79 1151.33,-168.79"/>
<polygon fill="black" stroke="black" points="1147.83,-168.79 1151.33,-178.79 1154.83,-168.79 1147.83,-168.79"/>
</g>
<!-- PullRequestService  -->
<g id="node5" class="node">
<title>PullRequestService </title>
<polygon fill="#fb8072" stroke="black" points="1100.65,-214.8 971.35,-214.8 971.35,-178.8 1100.65,-178.8 1100.65,-214.8"/>
<text text-anchor="middle" x="1036" y="-192.6" font-family="Times,serif" font-size="14.00">PullRequestService </text>
</g>
<!-- PullRequestModule&#45;&gt;PullRequestService  -->
<g id="edge4" class="edge">
<title>PullRequestModule&#45;&gt;PullRequestService </title>
<path fill="none" stroke="black" stroke-dasharray="5,2" d="M1078.48,-149.91C1078.48,-149.91 1078.48,-168.79 1078.48,-168.79"/>
<polygon fill="black" stroke="black" points="1074.98,-168.79 1078.48,-178.79 1081.98,-168.79 1074.98,-168.79"/>
</g>
<!-- CodeExplanationService -->
<g id="node6" class="node">
<title>CodeExplanationService</title>
<ellipse fill="#fdb462" stroke="black" cx="1656" cy="-66.8" rx="107.08" ry="18"/>
<text text-anchor="middle" x="1656" y="-62.6" font-family="Times,serif" font-size="14.00">CodeExplanationService</text>
</g>
<!-- CodeExplanationService&#45;&gt;PullRequestModule -->
<g id="edge5" class="edge">
<title>CodeExplanationService&#45;&gt;PullRequestModule</title>
<path fill="none" stroke="black" d="M1656,-85.07C1656,-103.36 1656,-128.8 1656,-128.8 1656,-128.8 1193.86,-128.8 1193.86,-128.8"/>
<polygon fill="black" stroke="black" points="1193.86,-125.3 1183.86,-128.8 1193.86,-132.3 1193.86,-125.3"/>
</g>
<!-- CodeRefactorSuggestionService -->
<g id="node7" class="node">
<title>CodeRefactorSuggestionService</title>
<ellipse fill="#fdb462" stroke="black" cx="1394" cy="-66.8" rx="136.59" ry="18"/>
<text text-anchor="middle" x="1394" y="-62.6" font-family="Times,serif" font-size="14.00">CodeRefactorSuggestionService</text>
</g>
<!-- CodeRefactorSuggestionService&#45;&gt;PullRequestModule -->
<g id="edge6" class="edge">
<title>CodeRefactorSuggestionService&#45;&gt;PullRequestModule</title>
<path fill="none" stroke="black" d="M1274.21,-75.88C1274.21,-91.5 1274.21,-121.8 1274.21,-121.8 1274.21,-121.8 1193.61,-121.8 1193.61,-121.8"/>
<polygon fill="black" stroke="black" points="1193.61,-118.3 1183.61,-121.8 1193.61,-125.3 1193.61,-118.3"/>
</g>
<!-- CodeTestSuggestionService -->
<g id="node8" class="node">
<title>CodeTestSuggestionService</title>
<ellipse fill="#fdb462" stroke="black" cx="1120" cy="-66.8" rx="119.85" ry="18"/>
<text text-anchor="middle" x="1120" y="-62.6" font-family="Times,serif" font-size="14.00">CodeTestSuggestionService</text>
</g>
<!-- CodeTestSuggestionService&#45;&gt;PullRequestModule -->
<g id="edge7" class="edge">
<title>CodeTestSuggestionService&#45;&gt;PullRequestModule</title>
<path fill="none" stroke="black" d="M1120,-84.91C1120,-84.91 1120,-103.79 1120,-103.79"/>
<polygon fill="black" stroke="black" points="1116.5,-103.79 1120,-113.79 1123.5,-103.79 1116.5,-103.79"/>
</g>
<!-- PullRequestDescriptionService -->
<g id="node9" class="node">
<title>PullRequestDescriptionService</title>
<ellipse fill="#fdb462" stroke="black" cx="850" cy="-66.8" rx="131.95" ry="18"/>
<text text-anchor="middle" x="850" y="-62.6" font-family="Times,serif" font-size="14.00">PullRequestDescriptionService</text>
</g>
<!-- PullRequestDescriptionService&#45;&gt;PullRequestModule -->
<g id="edge8" class="edge">
<title>PullRequestDescriptionService&#45;&gt;PullRequestModule</title>
<path fill="none" stroke="black" d="M976.58,-71.88C976.58,-85.49 976.58,-121.8 976.58,-121.8 976.58,-121.8 1046.26,-121.8 1046.26,-121.8"/>
<polygon fill="black" stroke="black" points="1046.26,-125.3 1056.26,-121.8 1046.26,-118.3 1046.26,-125.3"/>
</g>
<!-- PullRequestInsightsService -->
<g id="node10" class="node">
<title>PullRequestInsightsService</title>
<ellipse fill="#fdb462" stroke="black" cx="583" cy="-66.8" rx="117.01" ry="18"/>
<text text-anchor="middle" x="583" y="-62.6" font-family="Times,serif" font-size="14.00">PullRequestInsightsService</text>
</g>
<!-- PullRequestInsightsService&#45;&gt;PullRequestModule -->
<g id="edge9" class="edge">
<title>PullRequestInsightsService&#45;&gt;PullRequestModule</title>
<path fill="none" stroke="black" d="M583,-85.07C583,-103.36 583,-128.8 583,-128.8 583,-128.8 1046.29,-128.8 1046.29,-128.8"/>
<polygon fill="black" stroke="black" points="1046.29,-132.3 1056.29,-128.8 1046.29,-125.3 1046.29,-132.3"/>
</g>
<!-- PullRequestReviewService -->
<g id="node11" class="node">
<title>PullRequestReviewService</title>
<ellipse fill="#fdb462" stroke="black" cx="332" cy="-66.8" rx="116.34" ry="18"/>
<text text-anchor="middle" x="332" y="-62.6" font-family="Times,serif" font-size="14.00">PullRequestReviewService</text>
</g>
<!-- PullRequestReviewService&#45;&gt;PullRequestModule -->
<g id="edge10" class="edge">
<title>PullRequestReviewService&#45;&gt;PullRequestModule</title>
<path fill="none" stroke="black" d="M332,-84.93C332,-105.37 332,-135.8 332,-135.8 332,-135.8 1046.18,-135.8 1046.18,-135.8"/>
<polygon fill="black" stroke="black" points="1046.18,-139.3 1056.18,-135.8 1046.18,-132.3 1046.18,-139.3"/>
</g>
<!-- PullRequestService -->
<g id="node12" class="node">
<title>PullRequestService</title>
<ellipse fill="#fdb462" stroke="black" cx="111" cy="-66.8" rx="86.84" ry="18"/>
<text text-anchor="middle" x="111" y="-62.6" font-family="Times,serif" font-size="14.00">PullRequestService</text>
</g>
<!-- PullRequestService&#45;&gt;PullRequestModule -->
<g id="edge11" class="edge">
<title>PullRequestService&#45;&gt;PullRequestModule</title>
<path fill="none" stroke="black" d="M111,-84.81C111,-107.29 111,-142.8 111,-142.8 111,-142.8 1046.12,-142.8 1046.12,-142.8"/>
<polygon fill="black" stroke="black" points="1046.12,-146.3 1056.12,-142.8 1046.12,-139.3 1046.12,-146.3"/>
</g>
</g>
</svg>
