<?xml version="1.0" encoding="UTF-8" standalone="no"?>
<!DOCTYPE svg PUBLIC "-//W3C//DTD SVG 1.1//EN"
 "http://www.w3.org/Graphics/SVG/1.1/DTD/svg11.dtd">
<!-- Generated by graphviz version 3.0.0 (20220226.1711)
 -->
<!-- Title: dependencies Pages: 1 -->
<svg width="1619pt" height="174pt"
 viewBox="0.00 0.00 1619.00 173.80" xmlns="http://www.w3.org/2000/svg" xmlns:xlink="http://www.w3.org/1999/xlink">
<g id="graph0" class="graph" transform="scale(1 1) rotate(0) translate(4 169.8)">
<title>dependencies</title>
<polygon fill="white" stroke="transparent" points="-4,4 -4,-169.8 1615,-169.8 1615,4 -4,4"/>
<text text-anchor="middle" x="805.5" y="-8.2" font-family="sans-serif" font-size="14.00">dependencies</text>
<g id="clust1" class="cluster">
<title>cluster_PullRequestModule</title>
<polygon fill="none" stroke="black" stroke-dasharray="1,5" points="8,-32.8 8,-157.8 1603,-157.8 1603,-32.8 8,-32.8"/>
</g>
<g id="clust3" class="cluster">
<title>cluster_PullRequestModule_imports</title>
<polygon fill="none" stroke="black" points="1337,-40.8 1337,-92.8 1595,-92.8 1595,-40.8 1337,-40.8"/>
</g>
<g id="clust6" class="cluster">
<title>cluster_PullRequestModule_providers</title>
<polygon fill="none" stroke="black" points="16,-40.8 16,-92.8 1329,-92.8 1329,-40.8 16,-40.8"/>
</g>
<!-- OpenAiModule -->
<g id="node1" class="node">
<title>OpenAiModule</title>
<polygon fill="#8dd3c7" stroke="black" points="1586.88,-84.8 1583.88,-88.8 1562.88,-88.8 1559.88,-84.8 1483.12,-84.8 1483.12,-48.8 1586.88,-48.8 1586.88,-84.8"/>
<text text-anchor="middle" x="1535" y="-62.6" font-family="Times,serif" font-size="14.00">OpenAiModule</text>
</g>
<!-- PullRequestModule -->
<g id="node3" class="node">
<title>PullRequestModule</title>
<polygon fill="#8dd3c7" stroke="black" points="1015.72,-149.8 1012.72,-153.8 991.72,-153.8 988.72,-149.8 888.28,-149.8 888.28,-113.8 1015.72,-113.8 1015.72,-149.8"/>
<text text-anchor="middle" x="952" y="-127.6" font-family="Times,serif" font-size="14.00">PullRequestModule</text>
</g>
<!-- OpenAiModule&#45;&gt;PullRequestModule -->
<g id="edge1" class="edge">
<title>OpenAiModule&#45;&gt;PullRequestModule</title>
<path fill="none" stroke="black" d="M1535,-85.09C1535,-107.01 1535,-140.8 1535,-140.8 1535,-140.8 1025.78,-140.8 1025.78,-140.8"/>
<polygon fill="black" stroke="black" points="1025.78,-137.3 1015.78,-140.8 1025.78,-144.3 1025.78,-137.3"/>
</g>
<!-- RepoFilterModule -->
<g id="node2" class="node">
<title>RepoFilterModule</title>
<polygon fill="#8dd3c7" stroke="black" points="1464.94,-84.8 1461.94,-88.8 1440.94,-88.8 1437.94,-84.8 1345.06,-84.8 1345.06,-48.8 1464.94,-48.8 1464.94,-84.8"/>
<text text-anchor="middle" x="1405" y="-62.6" font-family="Times,serif" font-size="14.00">RepoFilterModule</text>
</g>
<!-- RepoFilterModule&#45;&gt;PullRequestModule -->
<g id="edge2" class="edge">
<title>RepoFilterModule&#45;&gt;PullRequestModule</title>
<path fill="none" stroke="black" d="M1405,-84.91C1405,-104.14 1405,-131.8 1405,-131.8 1405,-131.8 1025.94,-131.8 1025.94,-131.8"/>
<polygon fill="black" stroke="black" points="1025.94,-128.3 1015.94,-131.8 1025.94,-135.3 1025.94,-128.3"/>
</g>
<!-- CodeExplanationService -->
<g id="node4" class="node">
<title>CodeExplanationService</title>
<ellipse fill="#fdb462" stroke="black" cx="1214" cy="-66.8" rx="107.08" ry="18"/>
<text text-anchor="middle" x="1214" y="-62.6" font-family="Times,serif" font-size="14.00">CodeExplanationService</text>
</g>
<!-- CodeExplanationService&#45;&gt;PullRequestModule -->
<g id="edge3" class="edge">
<title>CodeExplanationService&#45;&gt;PullRequestModule</title>
<path fill="none" stroke="black" d="M1214,-84.83C1214,-101.2 1214,-122.8 1214,-122.8 1214,-122.8 1025.76,-122.8 1025.76,-122.8"/>
<polygon fill="black" stroke="black" points="1025.76,-119.3 1015.76,-122.8 1025.76,-126.3 1025.76,-119.3"/>
</g>
<!-- CodeRefactorSuggestionService -->
<g id="node5" class="node">
<title>CodeRefactorSuggestionService</title>
<ellipse fill="#fdb462" stroke="black" cx="952" cy="-66.8" rx="136.59" ry="18"/>
<text text-anchor="middle" x="952" y="-62.6" font-family="Times,serif" font-size="14.00">CodeRefactorSuggestionService</text>
</g>
<!-- CodeRefactorSuggestionService&#45;&gt;PullRequestModule -->
<g id="edge4" class="edge">
<title>CodeRefactorSuggestionService&#45;&gt;PullRequestModule</title>
<path fill="none" stroke="black" d="M952,-84.91C952,-84.91 952,-103.79 952,-103.79"/>
<polygon fill="black" stroke="black" points="948.5,-103.79 952,-113.79 955.5,-103.79 948.5,-103.79"/>
</g>
<!-- CodeTestSuggestionService -->
<g id="node6" class="node">
<title>CodeTestSuggestionService</title>
<ellipse fill="#fdb462" stroke="black" cx="678" cy="-66.8" rx="119.85" ry="18"/>
<text text-anchor="middle" x="678" y="-62.6" font-family="Times,serif" font-size="14.00">CodeTestSuggestionService</text>
</g>
<!-- CodeTestSuggestionService&#45;&gt;PullRequestModule -->
<g id="edge5" class="edge">
<title>CodeTestSuggestionService&#45;&gt;PullRequestModule</title>
<path fill="none" stroke="black" d="M678,-84.83C678,-101.2 678,-122.8 678,-122.8 678,-122.8 878.1,-122.8 878.1,-122.8"/>
<polygon fill="black" stroke="black" points="878.11,-126.3 888.1,-122.8 878.1,-119.3 878.11,-126.3"/>
</g>
<!-- PullRequestDescriptionService -->
<g id="node7" class="node">
<title>PullRequestDescriptionService</title>
<ellipse fill="#fdb462" stroke="black" cx="408" cy="-66.8" rx="131.95" ry="18"/>
<text text-anchor="middle" x="408" y="-62.6" font-family="Times,serif" font-size="14.00">PullRequestDescriptionService</text>
</g>
<!-- PullRequestDescriptionService&#45;&gt;PullRequestModule -->
<g id="edge6" class="edge">
<title>PullRequestDescriptionService&#45;&gt;PullRequestModule</title>
<path fill="none" stroke="black" d="M408,-84.91C408,-104.14 408,-131.8 408,-131.8 408,-131.8 878.26,-131.8 878.26,-131.8"/>
<polygon fill="black" stroke="black" points="878.26,-135.3 888.26,-131.8 878.26,-128.3 878.26,-135.3"/>
</g>
<!-- PullRequestInsightsService -->
<g id="node8" class="node">
<title>PullRequestInsightsService</title>
<ellipse fill="#fdb462" stroke="black" cx="141" cy="-66.8" rx="117.01" ry="18"/>
<text text-anchor="middle" x="141" y="-62.6" font-family="Times,serif" font-size="14.00">PullRequestInsightsService</text>
</g>
<!-- PullRequestInsightsService&#45;&gt;PullRequestModule -->
<g id="edge7" class="edge">
<title>PullRequestInsightsService&#45;&gt;PullRequestModule</title>
<path fill="none" stroke="black" d="M141,-85.09C141,-107.01 141,-140.8 141,-140.8 141,-140.8 878.36,-140.8 878.36,-140.8"/>
<polygon fill="black" stroke="black" points="878.36,-144.3 888.36,-140.8 878.36,-137.3 878.36,-144.3"/>
</g>
</g>
</svg>
