<?xml version="1.0" encoding="UTF-8" standalone="no"?>
<!DOCTYPE svg PUBLIC "-//W3C//DTD SVG 1.1//EN"
 "http://www.w3.org/Graphics/SVG/1.1/DTD/svg11.dtd">
<!-- Generated by graphviz version 3.0.0 (20220226.1711)
 -->
<!-- Title: dependencies Pages: 1 -->
<svg width="1811pt" height="247pt"
 viewBox="0.00 0.00 1811.00 246.80" xmlns="http://www.w3.org/2000/svg" xmlns:xlink="http://www.w3.org/1999/xlink">
<g id="graph0" class="graph" transform="scale(1 1) rotate(0) translate(4 242.8)">
<title>dependencies</title>
<polygon fill="white" stroke="transparent" points="-4,4 -4,-242.8 1807,-242.8 1807,4 -4,4"/>
<text text-anchor="middle" x="901.5" y="-8.2" font-family="sans-serif" font-size="14.00">dependencies</text>
<g id="clust1" class="cluster">
<title>cluster_PullRequestModule</title>
<polygon fill="none" stroke="black" stroke-dasharray="1,5" points="8,-32.8 8,-230.8 1795,-230.8 1795,-32.8 8,-32.8"/>
</g>
<g id="clust4" class="cluster">
<title>cluster_PullRequestModule_exports</title>
<polygon fill="none" stroke="black" points="659,-170.8 659,-222.8 805,-222.8 805,-170.8 659,-170.8"/>
</g>
<g id="clust6" class="cluster">
<title>cluster_PullRequestModule_providers</title>
<polygon fill="none" stroke="black" points="282,-40.8 282,-92.8 1787,-92.8 1787,-40.8 282,-40.8"/>
</g>
<g id="clust3" class="cluster">
<title>cluster_PullRequestModule_imports</title>
<polygon fill="none" stroke="black" points="16,-40.8 16,-92.8 274,-92.8 274,-40.8 16,-40.8"/>
</g>
<!-- OpenAiModule -->
<g id="node1" class="node">
<title>OpenAiModule</title>
<polygon fill="#8dd3c7" stroke="black" points="265.88,-84.8 262.88,-88.8 241.88,-88.8 238.88,-84.8 162.12,-84.8 162.12,-48.8 265.88,-48.8 265.88,-84.8"/>
<text text-anchor="middle" x="214" y="-62.6" font-family="Times,serif" font-size="14.00">OpenAiModule</text>
</g>
<!-- PullRequestModule -->
<g id="node3" class="node">
<title>PullRequestModule</title>
<polygon fill="#8dd3c7" stroke="black" points="795.72,-149.8 792.72,-153.8 771.72,-153.8 768.72,-149.8 668.28,-149.8 668.28,-113.8 795.72,-113.8 795.72,-149.8"/>
<text text-anchor="middle" x="732" y="-127.6" font-family="Times,serif" font-size="14.00">PullRequestModule</text>
</g>
<!-- OpenAiModule&#45;&gt;PullRequestModule -->
<g id="edge1" class="edge">
<title>OpenAiModule&#45;&gt;PullRequestModule</title>
<path fill="none" stroke="black" d="M214,-84.91C214,-104.14 214,-131.8 214,-131.8 214,-131.8 658.22,-131.8 658.22,-131.8"/>
<polygon fill="black" stroke="black" points="658.22,-135.3 668.22,-131.8 658.22,-128.3 658.22,-135.3"/>
</g>
<!-- RepoFilterModule -->
<g id="node2" class="node">
<title>RepoFilterModule</title>
<polygon fill="#8dd3c7" stroke="black" points="143.94,-84.8 140.94,-88.8 119.94,-88.8 116.94,-84.8 24.06,-84.8 24.06,-48.8 143.94,-48.8 143.94,-84.8"/>
<text text-anchor="middle" x="84" y="-62.6" font-family="Times,serif" font-size="14.00">RepoFilterModule</text>
</g>
<!-- RepoFilterModule&#45;&gt;PullRequestModule -->
<g id="edge2" class="edge">
<title>RepoFilterModule&#45;&gt;PullRequestModule</title>
<path fill="none" stroke="black" d="M84,-85.09C84,-107.01 84,-140.8 84,-140.8 84,-140.8 658.09,-140.8 658.09,-140.8"/>
<polygon fill="black" stroke="black" points="658.09,-144.3 668.09,-140.8 658.09,-137.3 658.09,-144.3"/>
</g>
<!-- PullRequestService  -->
<g id="node4" class="node">
<title>PullRequestService </title>
<polygon fill="#fb8072" stroke="black" points="796.65,-214.8 667.35,-214.8 667.35,-178.8 796.65,-178.8 796.65,-214.8"/>
<text text-anchor="middle" x="732" y="-192.6" font-family="Times,serif" font-size="14.00">PullRequestService </text>
</g>
<!-- PullRequestModule&#45;&gt;PullRequestService  -->
<g id="edge3" class="edge">
<title>PullRequestModule&#45;&gt;PullRequestService </title>
<path fill="none" stroke="black" stroke-dasharray="5,2" d="M732,-149.91C732,-149.91 732,-168.79 732,-168.79"/>
<polygon fill="black" stroke="black" points="728.5,-168.79 732,-178.79 735.5,-168.79 728.5,-168.79"/>
</g>
<!-- CodeExplanationService -->
<g id="node5" class="node">
<title>CodeExplanationService</title>
<ellipse fill="#fdb462" stroke="black" cx="1672" cy="-66.8" rx="107.08" ry="18"/>
<text text-anchor="middle" x="1672" y="-62.6" font-family="Times,serif" font-size="14.00">CodeExplanationService</text>
</g>
<!-- CodeExplanationService&#45;&gt;PullRequestModule -->
<g id="edge4" class="edge">
<title>CodeExplanationService&#45;&gt;PullRequestModule</title>
<path fill="none" stroke="black" d="M1672,-85.09C1672,-107.01 1672,-140.8 1672,-140.8 1672,-140.8 805.87,-140.8 805.87,-140.8"/>
<polygon fill="black" stroke="black" points="805.87,-137.3 795.87,-140.8 805.87,-144.3 805.87,-137.3"/>
</g>
<!-- CodeRefactorSuggestionService -->
<g id="node6" class="node">
<title>CodeRefactorSuggestionService</title>
<ellipse fill="#fdb462" stroke="black" cx="1410" cy="-66.8" rx="136.59" ry="18"/>
<text text-anchor="middle" x="1410" y="-62.6" font-family="Times,serif" font-size="14.00">CodeRefactorSuggestionService</text>
</g>
<!-- CodeRefactorSuggestionService&#45;&gt;PullRequestModule -->
<g id="edge5" class="edge">
<title>CodeRefactorSuggestionService&#45;&gt;PullRequestModule</title>
<path fill="none" stroke="black" d="M1410,-84.91C1410,-104.14 1410,-131.8 1410,-131.8 1410,-131.8 805.78,-131.8 805.78,-131.8"/>
<polygon fill="black" stroke="black" points="805.78,-128.3 795.78,-131.8 805.78,-135.3 805.78,-128.3"/>
</g>
<!-- CodeTestSuggestionService -->
<g id="node7" class="node">
<title>CodeTestSuggestionService</title>
<ellipse fill="#fdb462" stroke="black" cx="1136" cy="-66.8" rx="119.85" ry="18"/>
<text text-anchor="middle" x="1136" y="-62.6" font-family="Times,serif" font-size="14.00">CodeTestSuggestionService</text>
</g>
<!-- CodeTestSuggestionService&#45;&gt;PullRequestModule -->
<g id="edge6" class="edge">
<title>CodeTestSuggestionService&#45;&gt;PullRequestModule</title>
<path fill="none" stroke="black" d="M1136,-84.83C1136,-101.2 1136,-122.8 1136,-122.8 1136,-122.8 806.02,-122.8 806.02,-122.8"/>
<polygon fill="black" stroke="black" points="806.02,-119.3 796.02,-122.8 806.01,-126.3 806.02,-119.3"/>
</g>
<!-- PullRequestDescriptionService -->
<g id="node8" class="node">
<title>PullRequestDescriptionService</title>
<ellipse fill="#fdb462" stroke="black" cx="866" cy="-66.8" rx="131.95" ry="18"/>
<text text-anchor="middle" x="866" y="-62.6" font-family="Times,serif" font-size="14.00">PullRequestDescriptionService</text>
</g>
<!-- PullRequestDescriptionService&#45;&gt;PullRequestModule -->
<g id="edge7" class="edge">
<title>PullRequestDescriptionService&#45;&gt;PullRequestModule</title>
<path fill="none" stroke="black" d="M764.94,-78.42C764.94,-78.42 764.94,-103.65 764.94,-103.65"/>
<polygon fill="black" stroke="black" points="761.44,-103.65 764.94,-113.65 768.44,-103.65 761.44,-103.65"/>
</g>
<!-- PullRequestInsightsService -->
<g id="node9" class="node">
<title>PullRequestInsightsService</title>
<ellipse fill="#fdb462" stroke="black" cx="599" cy="-66.8" rx="117.01" ry="18"/>
<text text-anchor="middle" x="599" y="-62.6" font-family="Times,serif" font-size="14.00">PullRequestInsightsService</text>
</g>
<!-- PullRequestInsightsService&#45;&gt;PullRequestModule -->
<g id="edge8" class="edge">
<title>PullRequestInsightsService&#45;&gt;PullRequestModule</title>
<path fill="none" stroke="black" d="M692.32,-77.83C692.32,-77.83 692.32,-103.58 692.32,-103.58"/>
<polygon fill="black" stroke="black" points="688.82,-103.58 692.32,-113.58 695.82,-103.58 688.82,-103.58"/>
</g>
<!-- PullRequestService -->
<g id="node10" class="node">
<title>PullRequestService</title>
<ellipse fill="#fdb462" stroke="black" cx="377" cy="-66.8" rx="86.84" ry="18"/>
<text text-anchor="middle" x="377" y="-62.6" font-family="Times,serif" font-size="14.00">PullRequestService</text>
</g>
<!-- PullRequestService&#45;&gt;PullRequestModule -->
<g id="edge9" class="edge">
<title>PullRequestService&#45;&gt;PullRequestModule</title>
<path fill="none" stroke="black" d="M377,-84.83C377,-101.2 377,-122.8 377,-122.8 377,-122.8 658.12,-122.8 658.12,-122.8"/>
<polygon fill="black" stroke="black" points="658.12,-126.3 668.12,-122.8 658.12,-119.3 658.12,-126.3"/>
</g>
</g>
</svg>
