<?xml version="1.0" encoding="UTF-8" standalone="no"?>
<!DOCTYPE svg PUBLIC "-//W3C//DTD SVG 1.1//EN"
 "http://www.w3.org/Graphics/SVG/1.1/DTD/svg11.dtd">
<!-- Generated by graphviz version 3.0.0 (20220226.1711)
 -->
<!-- Title: dependencies Pages: 1 -->
<svg width="1199pt" height="247pt"
 viewBox="0.00 0.00 1199.00 246.80" xmlns="http://www.w3.org/2000/svg" xmlns:xlink="http://www.w3.org/1999/xlink">
<g id="graph0" class="graph" transform="scale(1 1) rotate(0) translate(4 242.8)">
<title>dependencies</title>
<polygon fill="white" stroke="transparent" points="-4,4 -4,-242.8 1195,-242.8 1195,4 -4,4"/>
<text text-anchor="middle" x="595.5" y="-8.2" font-family="sans-serif" font-size="14.00">dependencies</text>
<g id="clust1" class="cluster">
<title>cluster_PullRequestModule</title>
<polygon fill="none" stroke="black" stroke-dasharray="1,5" points="8,-32.8 8,-230.8 1183,-230.8 1183,-32.8 8,-32.8"/>
</g>
<g id="clust6" class="cluster">
<title>cluster_PullRequestModule_providers</title>
<polygon fill="none" stroke="black" points="160,-40.8 160,-92.8 1175,-92.8 1175,-40.8 160,-40.8"/>
</g>
<g id="clust3" class="cluster">
<title>cluster_PullRequestModule_imports</title>
<polygon fill="none" stroke="black" points="16,-40.8 16,-92.8 152,-92.8 152,-40.8 16,-40.8"/>
</g>
<g id="clust4" class="cluster">
<title>cluster_PullRequestModule_exports</title>
<polygon fill="none" stroke="black" points="404,-170.8 404,-222.8 550,-222.8 550,-170.8 404,-170.8"/>
</g>
<!-- RepoFilterModule -->
<g id="node1" class="node">
<title>RepoFilterModule</title>
<polygon fill="#8dd3c7" stroke="black" points="143.94,-84.8 140.94,-88.8 119.94,-88.8 116.94,-84.8 24.06,-84.8 24.06,-48.8 143.94,-48.8 143.94,-84.8"/>
<text text-anchor="middle" x="84" y="-62.6" font-family="Times,serif" font-size="14.00">RepoFilterModule</text>
</g>
<!-- PullRequestModule -->
<g id="node2" class="node">
<title>PullRequestModule</title>
<polygon fill="#8dd3c7" stroke="black" points="540.72,-149.8 537.72,-153.8 516.72,-153.8 513.72,-149.8 413.28,-149.8 413.28,-113.8 540.72,-113.8 540.72,-149.8"/>
<text text-anchor="middle" x="477" y="-127.6" font-family="Times,serif" font-size="14.00">PullRequestModule</text>
</g>
<!-- RepoFilterModule&#45;&gt;PullRequestModule -->
<g id="edge1" class="edge">
<title>RepoFilterModule&#45;&gt;PullRequestModule</title>
<path fill="none" stroke="black" d="M84,-85.08C84,-106.12 84,-137.8 84,-137.8 84,-137.8 402.98,-137.8 402.98,-137.8"/>
<polygon fill="black" stroke="black" points="402.98,-141.3 412.98,-137.8 402.98,-134.3 402.98,-141.3"/>
</g>
<!-- PullRequestService  -->
<g id="node3" class="node">
<title>PullRequestService </title>
<polygon fill="#fb8072" stroke="black" points="541.65,-214.8 412.35,-214.8 412.35,-178.8 541.65,-178.8 541.65,-214.8"/>
<text text-anchor="middle" x="477" y="-192.6" font-family="Times,serif" font-size="14.00">PullRequestService </text>
</g>
<!-- PullRequestModule&#45;&gt;PullRequestService  -->
<g id="edge2" class="edge">
<title>PullRequestModule&#45;&gt;PullRequestService </title>
<path fill="none" stroke="black" stroke-dasharray="5,2" d="M477,-149.91C477,-149.91 477,-168.79 477,-168.79"/>
<polygon fill="black" stroke="black" points="473.5,-168.79 477,-178.79 480.5,-168.79 473.5,-168.79"/>
</g>
<!-- CodeRefactorSuggestionService -->
<g id="node4" class="node">
<title>CodeRefactorSuggestionService</title>
<ellipse fill="#fdb462" stroke="black" cx="1030" cy="-66.8" rx="136.59" ry="18"/>
<text text-anchor="middle" x="1030" y="-62.6" font-family="Times,serif" font-size="14.00">CodeRefactorSuggestionService</text>
</g>
<!-- CodeRefactorSuggestionService&#45;&gt;PullRequestModule -->
<g id="edge3" class="edge">
<title>CodeRefactorSuggestionService&#45;&gt;PullRequestModule</title>
<path fill="none" stroke="black" d="M1030,-85.08C1030,-106.12 1030,-137.8 1030,-137.8 1030,-137.8 550.71,-137.8 550.71,-137.8"/>
<polygon fill="black" stroke="black" points="550.71,-134.3 540.71,-137.8 550.71,-141.3 550.71,-134.3"/>
</g>
<!-- PullRequestDescriptionService -->
<g id="node5" class="node">
<title>PullRequestDescriptionService</title>
<ellipse fill="#fdb462" stroke="black" cx="744" cy="-66.8" rx="131.95" ry="18"/>
<text text-anchor="middle" x="744" y="-62.6" font-family="Times,serif" font-size="14.00">PullRequestDescriptionService</text>
</g>
<!-- PullRequestDescriptionService&#45;&gt;PullRequestModule -->
<g id="edge4" class="edge">
<title>PullRequestDescriptionService&#45;&gt;PullRequestModule</title>
<path fill="none" stroke="black" d="M744,-84.82C744,-102.17 744,-125.8 744,-125.8 744,-125.8 550.61,-125.8 550.61,-125.8"/>
<polygon fill="black" stroke="black" points="550.61,-122.3 540.61,-125.8 550.61,-129.3 550.61,-122.3"/>
</g>
<!-- PullRequestInsightsService -->
<g id="node6" class="node">
<title>PullRequestInsightsService</title>
<ellipse fill="#fdb462" stroke="black" cx="477" cy="-66.8" rx="117.01" ry="18"/>
<text text-anchor="middle" x="477" y="-62.6" font-family="Times,serif" font-size="14.00">PullRequestInsightsService</text>
</g>
<!-- PullRequestInsightsService&#45;&gt;PullRequestModule -->
<g id="edge5" class="edge">
<title>PullRequestInsightsService&#45;&gt;PullRequestModule</title>
<path fill="none" stroke="black" d="M477,-84.91C477,-84.91 477,-103.79 477,-103.79"/>
<polygon fill="black" stroke="black" points="473.5,-103.79 477,-113.79 480.5,-103.79 473.5,-103.79"/>
</g>
<!-- PullRequestService -->
<g id="node7" class="node">
<title>PullRequestService</title>
<ellipse fill="#fdb462" stroke="black" cx="255" cy="-66.8" rx="86.84" ry="18"/>
<text text-anchor="middle" x="255" y="-62.6" font-family="Times,serif" font-size="14.00">PullRequestService</text>
</g>
<!-- PullRequestService&#45;&gt;PullRequestModule -->
<g id="edge6" class="edge">
<title>PullRequestService&#45;&gt;PullRequestModule</title>
<path fill="none" stroke="black" d="M255,-84.82C255,-102.17 255,-125.8 255,-125.8 255,-125.8 403.38,-125.8 403.38,-125.8"/>
<polygon fill="black" stroke="black" points="403.38,-129.3 413.38,-125.8 403.38,-122.3 403.38,-129.3"/>
</g>
</g>
</svg>
