<?xml version="1.0" encoding="UTF-8" standalone="no"?>
<!DOCTYPE svg PUBLIC "-//W3C//DTD SVG 1.1//EN"
 "http://www.w3.org/Graphics/SVG/1.1/DTD/svg11.dtd">
<!-- Generated by graphviz version 3.0.0 (20220226.1711)
 -->
<!-- Title: dependencies Pages: 1 -->
<svg width="1367pt" height="174pt"
 viewBox="0.00 0.00 1367.00 173.80" xmlns="http://www.w3.org/2000/svg" xmlns:xlink="http://www.w3.org/1999/xlink">
<g id="graph0" class="graph" transform="scale(1 1) rotate(0) translate(4 169.8)">
<title>dependencies</title>
<polygon fill="white" stroke="transparent" points="-4,4 -4,-169.8 1363,-169.8 1363,4 -4,4"/>
<text text-anchor="middle" x="679.5" y="-8.2" font-family="sans-serif" font-size="14.00">dependencies</text>
<g id="clust1" class="cluster">
<title>cluster_PullRequestModule</title>
<polygon fill="none" stroke="black" stroke-dasharray="1,5" points="8,-32.8 8,-157.8 1351,-157.8 1351,-32.8 8,-32.8"/>
</g>
<g id="clust6" class="cluster">
<title>cluster_PullRequestModule_providers</title>
<polygon fill="none" stroke="black" points="282,-40.8 282,-92.8 1343,-92.8 1343,-40.8 282,-40.8"/>
</g>
<g id="clust3" class="cluster">
<title>cluster_PullRequestModule_imports</title>
<polygon fill="none" stroke="black" points="16,-40.8 16,-92.8 274,-92.8 274,-40.8 16,-40.8"/>
</g>
<!-- OpenAiModule -->
<g id="node1" class="node">
<title>OpenAiModule</title>
<polygon fill="#8dd3c7" stroke="black" points="265.88,-84.8 262.88,-88.8 241.88,-88.8 238.88,-84.8 162.12,-84.8 162.12,-48.8 265.88,-48.8 265.88,-84.8"/>
<text text-anchor="middle" x="214" y="-62.6" font-family="Times,serif" font-size="14.00">OpenAiModule</text>
</g>
<!-- PullRequestModule -->
<g id="node3" class="node">
<title>PullRequestModule</title>
<polygon fill="#8dd3c7" stroke="black" points="620.72,-149.8 617.72,-153.8 596.72,-153.8 593.72,-149.8 493.28,-149.8 493.28,-113.8 620.72,-113.8 620.72,-149.8"/>
<text text-anchor="middle" x="557" y="-127.6" font-family="Times,serif" font-size="14.00">PullRequestModule</text>
</g>
<!-- OpenAiModule&#45;&gt;PullRequestModule -->
<g id="edge1" class="edge">
<title>OpenAiModule&#45;&gt;PullRequestModule</title>
<path fill="none" stroke="black" d="M214,-84.82C214,-102.17 214,-125.8 214,-125.8 214,-125.8 483.29,-125.8 483.29,-125.8"/>
<polygon fill="black" stroke="black" points="483.29,-129.3 493.29,-125.8 483.29,-122.3 483.29,-129.3"/>
</g>
<!-- RepoFilterModule -->
<g id="node2" class="node">
<title>RepoFilterModule</title>
<polygon fill="#8dd3c7" stroke="black" points="143.94,-84.8 140.94,-88.8 119.94,-88.8 116.94,-84.8 24.06,-84.8 24.06,-48.8 143.94,-48.8 143.94,-84.8"/>
<text text-anchor="middle" x="84" y="-62.6" font-family="Times,serif" font-size="14.00">RepoFilterModule</text>
</g>
<!-- RepoFilterModule&#45;&gt;PullRequestModule -->
<g id="edge2" class="edge">
<title>RepoFilterModule&#45;&gt;PullRequestModule</title>
<path fill="none" stroke="black" d="M84,-85.08C84,-106.12 84,-137.8 84,-137.8 84,-137.8 483.21,-137.8 483.21,-137.8"/>
<polygon fill="black" stroke="black" points="483.21,-141.3 493.21,-137.8 483.21,-134.3 483.21,-141.3"/>
</g>
<!-- CodeExplanationService -->
<g id="node4" class="node">
<title>CodeExplanationService</title>
<ellipse fill="#fdb462" stroke="black" cx="1228" cy="-66.8" rx="107.08" ry="18"/>
<text text-anchor="middle" x="1228" y="-62.6" font-family="Times,serif" font-size="14.00">CodeExplanationService</text>
</g>
<!-- CodeExplanationService&#45;&gt;PullRequestModule -->
<g id="edge3" class="edge">
<title>CodeExplanationService&#45;&gt;PullRequestModule</title>
<path fill="none" stroke="black" d="M1228,-85.08C1228,-106.12 1228,-137.8 1228,-137.8 1228,-137.8 630.73,-137.8 630.73,-137.8"/>
<polygon fill="black" stroke="black" points="630.73,-134.3 620.73,-137.8 630.73,-141.3 630.73,-134.3"/>
</g>
<!-- CodeRefactorSuggestionService -->
<g id="node5" class="node">
<title>CodeRefactorSuggestionService</title>
<ellipse fill="#fdb462" stroke="black" cx="966" cy="-66.8" rx="136.59" ry="18"/>
<text text-anchor="middle" x="966" y="-62.6" font-family="Times,serif" font-size="14.00">CodeRefactorSuggestionService</text>
</g>
<!-- CodeRefactorSuggestionService&#45;&gt;PullRequestModule -->
<g id="edge4" class="edge">
<title>CodeRefactorSuggestionService&#45;&gt;PullRequestModule</title>
<path fill="none" stroke="black" d="M966,-84.82C966,-102.17 966,-125.8 966,-125.8 966,-125.8 630.91,-125.8 630.91,-125.8"/>
<polygon fill="black" stroke="black" points="630.91,-122.3 620.91,-125.8 630.91,-129.3 630.91,-122.3"/>
</g>
<!-- CodeTestSuggestionService -->
<g id="node6" class="node">
<title>CodeTestSuggestionService</title>
<ellipse fill="#fdb462" stroke="black" cx="692" cy="-66.8" rx="119.85" ry="18"/>
<text text-anchor="middle" x="692" y="-62.6" font-family="Times,serif" font-size="14.00">CodeTestSuggestionService</text>
</g>
<!-- CodeTestSuggestionService&#45;&gt;PullRequestModule -->
<g id="edge5" class="edge">
<title>CodeTestSuggestionService&#45;&gt;PullRequestModule</title>
<path fill="none" stroke="black" d="M596.34,-77.83C596.34,-77.83 596.34,-103.58 596.34,-103.58"/>
<polygon fill="black" stroke="black" points="592.84,-103.58 596.34,-113.58 599.84,-103.58 592.84,-103.58"/>
</g>
<!-- PullRequestDescriptionService -->
<g id="node7" class="node">
<title>PullRequestDescriptionService</title>
<ellipse fill="#fdb462" stroke="black" cx="422" cy="-66.8" rx="131.95" ry="18"/>
<text text-anchor="middle" x="422" y="-62.6" font-family="Times,serif" font-size="14.00">PullRequestDescriptionService</text>
</g>
<!-- PullRequestDescriptionService&#45;&gt;PullRequestModule -->
<g id="edge6" class="edge">
<title>PullRequestDescriptionService&#45;&gt;PullRequestModule</title>
<path fill="none" stroke="black" d="M523.56,-78.42C523.56,-78.42 523.56,-103.65 523.56,-103.65"/>
<polygon fill="black" stroke="black" points="520.06,-103.65 523.56,-113.65 527.06,-103.65 520.06,-103.65"/>
</g>
</g>
</svg>
