<?xml version="1.0" encoding="UTF-8" standalone="no"?>
<!DOCTYPE svg PUBLIC "-//W3C//DTD SVG 1.1//EN"
 "http://www.w3.org/Graphics/SVG/1.1/DTD/svg11.dtd">
<!-- Generated by graphviz version 3.0.0 (20220226.1711)
 -->
<!-- Title: dependencies Pages: 1 -->
<svg width="908pt" height="247pt"
 viewBox="0.00 0.00 908.00 246.80" xmlns="http://www.w3.org/2000/svg" xmlns:xlink="http://www.w3.org/1999/xlink">
<g id="graph0" class="graph" transform="scale(1 1) rotate(0) translate(4 242.8)">
<title>dependencies</title>
<polygon fill="white" stroke="transparent" points="-4,4 -4,-242.8 904,-242.8 904,4 -4,4"/>
<text text-anchor="middle" x="450" y="-8.2" font-family="sans-serif" font-size="14.00">dependencies</text>
<g id="clust1" class="cluster">
<title>cluster_PullRequestModule</title>
<polygon fill="none" stroke="black" stroke-dasharray="1,5" points="8,-32.8 8,-230.8 892,-230.8 892,-32.8 8,-32.8"/>
</g>
<g id="clust3" class="cluster">
<title>cluster_PullRequestModule_imports</title>
<polygon fill="none" stroke="black" points="748,-40.8 748,-92.8 884,-92.8 884,-40.8 748,-40.8"/>
</g>
<g id="clust4" class="cluster">
<title>cluster_PullRequestModule_exports</title>
<polygon fill="none" stroke="black" points="393,-170.8 393,-222.8 539,-222.8 539,-170.8 393,-170.8"/>
</g>
<g id="clust6" class="cluster">
<title>cluster_PullRequestModule_providers</title>
<polygon fill="none" stroke="black" points="16,-40.8 16,-92.8 740,-92.8 740,-40.8 16,-40.8"/>
</g>
<!-- RepoFilterModule -->
<g id="node1" class="node">
<title>RepoFilterModule</title>
<polygon fill="#8dd3c7" stroke="black" points="875.94,-84.8 872.94,-88.8 851.94,-88.8 848.94,-84.8 756.06,-84.8 756.06,-48.8 875.94,-48.8 875.94,-84.8"/>
<text text-anchor="middle" x="816" y="-62.6" font-family="Times,serif" font-size="14.00">RepoFilterModule</text>
</g>
<!-- PullRequestModule -->
<g id="node2" class="node">
<title>PullRequestModule</title>
<polygon fill="#8dd3c7" stroke="black" points="529.72,-149.8 526.72,-153.8 505.72,-153.8 502.72,-149.8 402.28,-149.8 402.28,-113.8 529.72,-113.8 529.72,-149.8"/>
<text text-anchor="middle" x="466" y="-127.6" font-family="Times,serif" font-size="14.00">PullRequestModule</text>
</g>
<!-- RepoFilterModule&#45;&gt;PullRequestModule -->
<g id="edge1" class="edge">
<title>RepoFilterModule&#45;&gt;PullRequestModule</title>
<path fill="none" stroke="black" d="M816,-84.91C816,-104.14 816,-131.8 816,-131.8 816,-131.8 539.79,-131.8 539.79,-131.8"/>
<polygon fill="black" stroke="black" points="539.79,-128.3 529.79,-131.8 539.79,-135.3 539.79,-128.3"/>
</g>
<!-- PullRequestService  -->
<g id="node3" class="node">
<title>PullRequestService </title>
<polygon fill="#fb8072" stroke="black" points="530.65,-214.8 401.35,-214.8 401.35,-178.8 530.65,-178.8 530.65,-214.8"/>
<text text-anchor="middle" x="466" y="-192.6" font-family="Times,serif" font-size="14.00">PullRequestService </text>
</g>
<!-- PullRequestModule&#45;&gt;PullRequestService  -->
<g id="edge2" class="edge">
<title>PullRequestModule&#45;&gt;PullRequestService </title>
<path fill="none" stroke="black" stroke-dasharray="5,2" d="M466,-149.91C466,-149.91 466,-168.79 466,-168.79"/>
<polygon fill="black" stroke="black" points="462.5,-168.79 466,-178.79 469.5,-168.79 462.5,-168.79"/>
</g>
<!-- PullRequestDescriptionService -->
<g id="node4" class="node">
<title>PullRequestDescriptionService</title>
<ellipse fill="#fdb462" stroke="black" cx="600" cy="-66.8" rx="131.95" ry="18"/>
<text text-anchor="middle" x="600" y="-62.6" font-family="Times,serif" font-size="14.00">PullRequestDescriptionService</text>
</g>
<!-- PullRequestDescriptionService&#45;&gt;PullRequestModule -->
<g id="edge3" class="edge">
<title>PullRequestDescriptionService&#45;&gt;PullRequestModule</title>
<path fill="none" stroke="black" d="M498.94,-78.42C498.94,-78.42 498.94,-103.65 498.94,-103.65"/>
<polygon fill="black" stroke="black" points="495.44,-103.65 498.94,-113.65 502.44,-103.65 495.44,-103.65"/>
</g>
<!-- PullRequestInsightsService -->
<g id="node5" class="node">
<title>PullRequestInsightsService</title>
<ellipse fill="#fdb462" stroke="black" cx="333" cy="-66.8" rx="117.01" ry="18"/>
<text text-anchor="middle" x="333" y="-62.6" font-family="Times,serif" font-size="14.00">PullRequestInsightsService</text>
</g>
<!-- PullRequestInsightsService&#45;&gt;PullRequestModule -->
<g id="edge4" class="edge">
<title>PullRequestInsightsService&#45;&gt;PullRequestModule</title>
<path fill="none" stroke="black" d="M426.32,-77.83C426.32,-77.83 426.32,-103.58 426.32,-103.58"/>
<polygon fill="black" stroke="black" points="422.82,-103.58 426.32,-113.58 429.82,-103.58 422.82,-103.58"/>
</g>
<!-- PullRequestService -->
<g id="node6" class="node">
<title>PullRequestService</title>
<ellipse fill="#fdb462" stroke="black" cx="111" cy="-66.8" rx="86.84" ry="18"/>
<text text-anchor="middle" x="111" y="-62.6" font-family="Times,serif" font-size="14.00">PullRequestService</text>
</g>
<!-- PullRequestService&#45;&gt;PullRequestModule -->
<g id="edge5" class="edge">
<title>PullRequestService&#45;&gt;PullRequestModule</title>
<path fill="none" stroke="black" d="M111,-84.91C111,-104.14 111,-131.8 111,-131.8 111,-131.8 392.12,-131.8 392.12,-131.8"/>
<polygon fill="black" stroke="black" points="392.12,-135.3 402.12,-131.8 392.12,-128.3 392.12,-135.3"/>
</g>
</g>
</svg>
