<?xml version="1.0" encoding="UTF-8" standalone="no"?>
<!DOCTYPE svg PUBLIC "-//W3C//DTD SVG 1.1//EN"
 "http://www.w3.org/Graphics/SVG/1.1/DTD/svg11.dtd">
<!-- Generated by graphviz version 3.0.0 (20220226.1711)
 -->
<!-- Title: dependencies Pages: 1 -->
<svg width="2061pt" height="247pt"
 viewBox="0.00 0.00 2061.00 246.80" xmlns="http://www.w3.org/2000/svg" xmlns:xlink="http://www.w3.org/1999/xlink">
<g id="graph0" class="graph" transform="scale(1 1) rotate(0) translate(4 242.8)">
<title>dependencies</title>
<polygon fill="white" stroke="transparent" points="-4,4 -4,-242.8 2057,-242.8 2057,4 -4,4"/>
<text text-anchor="middle" x="1026.5" y="-8.2" font-family="sans-serif" font-size="14.00">dependencies</text>
<g id="clust1" class="cluster">
<title>cluster_PullRequestModule</title>
<polygon fill="none" stroke="black" stroke-dasharray="1,5" points="8,-32.8 8,-230.8 2045,-230.8 2045,-32.8 8,-32.8"/>
</g>
<g id="clust6" class="cluster">
<title>cluster_PullRequestModule_providers</title>
<polygon fill="none" stroke="black" points="282,-40.8 282,-92.8 2037,-92.8 2037,-40.8 282,-40.8"/>
</g>
<g id="clust3" class="cluster">
<title>cluster_PullRequestModule_imports</title>
<polygon fill="none" stroke="black" points="16,-40.8 16,-92.8 274,-92.8 274,-40.8 16,-40.8"/>
</g>
<g id="clust4" class="cluster">
<title>cluster_PullRequestModule_exports</title>
<polygon fill="none" stroke="black" points="692,-170.8 692,-222.8 1028,-222.8 1028,-170.8 692,-170.8"/>
</g>
<!-- OpenAiModule -->
<g id="node1" class="node">
<title>OpenAiModule</title>
<polygon fill="#8dd3c7" stroke="black" points="265.88,-84.8 262.88,-88.8 241.88,-88.8 238.88,-84.8 162.12,-84.8 162.12,-48.8 265.88,-48.8 265.88,-84.8"/>
<text text-anchor="middle" x="214" y="-62.6" font-family="Times,serif" font-size="14.00">OpenAiModule</text>
</g>
<!-- PullRequestModule -->
<g id="node3" class="node">
<title>PullRequestModule</title>
<polygon fill="#8dd3c7" stroke="black" points="912.72,-149.8 909.72,-153.8 888.72,-153.8 885.72,-149.8 785.28,-149.8 785.28,-113.8 912.72,-113.8 912.72,-149.8"/>
<text text-anchor="middle" x="849" y="-127.6" font-family="Times,serif" font-size="14.00">PullRequestModule</text>
</g>
<!-- OpenAiModule&#45;&gt;PullRequestModule -->
<g id="edge1" class="edge">
<title>OpenAiModule&#45;&gt;PullRequestModule</title>
<path fill="none" stroke="black" d="M214,-84.93C214,-105.37 214,-135.8 214,-135.8 214,-135.8 775.21,-135.8 775.21,-135.8"/>
<polygon fill="black" stroke="black" points="775.21,-139.3 785.21,-135.8 775.21,-132.3 775.21,-139.3"/>
</g>
<!-- RepoFilterModule -->
<g id="node2" class="node">
<title>RepoFilterModule</title>
<polygon fill="#8dd3c7" stroke="black" points="143.94,-84.8 140.94,-88.8 119.94,-88.8 116.94,-84.8 24.06,-84.8 24.06,-48.8 143.94,-48.8 143.94,-84.8"/>
<text text-anchor="middle" x="84" y="-62.6" font-family="Times,serif" font-size="14.00">RepoFilterModule</text>
</g>
<!-- RepoFilterModule&#45;&gt;PullRequestModule -->
<g id="edge2" class="edge">
<title>RepoFilterModule&#45;&gt;PullRequestModule</title>
<path fill="none" stroke="black" d="M84,-84.81C84,-107.29 84,-142.8 84,-142.8 84,-142.8 775.09,-142.8 775.09,-142.8"/>
<polygon fill="black" stroke="black" points="775.09,-146.3 785.09,-142.8 775.09,-139.3 775.09,-146.3"/>
</g>
<!-- PullRequestReviewService  -->
<g id="node4" class="node">
<title>PullRequestReviewService </title>
<polygon fill="#fb8072" stroke="black" points="1019.91,-214.8 848.09,-214.8 848.09,-178.8 1019.91,-178.8 1019.91,-214.8"/>
<text text-anchor="middle" x="934" y="-192.6" font-family="Times,serif" font-size="14.00">PullRequestReviewService </text>
</g>
<!-- PullRequestModule&#45;&gt;PullRequestReviewService  -->
<g id="edge3" class="edge">
<title>PullRequestModule&#45;&gt;PullRequestReviewService </title>
<path fill="none" stroke="black" stroke-dasharray="5,2" d="M880.33,-149.91C880.33,-149.91 880.33,-168.79 880.33,-168.79"/>
<polygon fill="black" stroke="black" points="876.83,-168.79 880.33,-178.79 883.83,-168.79 876.83,-168.79"/>
</g>
<!-- PullRequestService  -->
<g id="node5" class="node">
<title>PullRequestService </title>
<polygon fill="#fb8072" stroke="black" points="829.65,-214.8 700.35,-214.8 700.35,-178.8 829.65,-178.8 829.65,-214.8"/>
<text text-anchor="middle" x="765" y="-192.6" font-family="Times,serif" font-size="14.00">PullRequestService </text>
</g>
<!-- PullRequestModule&#45;&gt;PullRequestService  -->
<g id="edge4" class="edge">
<title>PullRequestModule&#45;&gt;PullRequestService </title>
<path fill="none" stroke="black" stroke-dasharray="5,2" d="M807.48,-149.91C807.48,-149.91 807.48,-168.79 807.48,-168.79"/>
<polygon fill="black" stroke="black" points="803.98,-168.79 807.48,-178.79 810.98,-168.79 803.98,-168.79"/>
</g>
<!-- CodeExplanationService -->
<g id="node6" class="node">
<title>CodeExplanationService</title>
<ellipse fill="#fdb462" stroke="black" cx="1922" cy="-66.8" rx="107.08" ry="18"/>
<text text-anchor="middle" x="1922" y="-62.6" font-family="Times,serif" font-size="14.00">CodeExplanationService</text>
</g>
<!-- CodeExplanationService&#45;&gt;PullRequestModule -->
<g id="edge5" class="edge">
<title>CodeExplanationService&#45;&gt;PullRequestModule</title>
<path fill="none" stroke="black" d="M1922,-84.81C1922,-107.29 1922,-142.8 1922,-142.8 1922,-142.8 922.91,-142.8 922.91,-142.8"/>
<polygon fill="black" stroke="black" points="922.91,-139.3 912.91,-142.8 922.91,-146.3 922.91,-139.3"/>
</g>
<!-- CodeRefactorSuggestionService -->
<g id="node7" class="node">
<title>CodeRefactorSuggestionService</title>
<ellipse fill="#fdb462" stroke="black" cx="1660" cy="-66.8" rx="136.59" ry="18"/>
<text text-anchor="middle" x="1660" y="-62.6" font-family="Times,serif" font-size="14.00">CodeRefactorSuggestionService</text>
</g>
<!-- CodeRefactorSuggestionService&#45;&gt;PullRequestModule -->
<g id="edge6" class="edge">
<title>CodeRefactorSuggestionService&#45;&gt;PullRequestModule</title>
<path fill="none" stroke="black" d="M1660,-84.93C1660,-105.37 1660,-135.8 1660,-135.8 1660,-135.8 922.64,-135.8 922.64,-135.8"/>
<polygon fill="black" stroke="black" points="922.64,-132.3 912.64,-135.8 922.64,-139.3 922.64,-132.3"/>
</g>
<!-- CodeTestSuggestionService -->
<g id="node8" class="node">
<title>CodeTestSuggestionService</title>
<ellipse fill="#fdb462" stroke="black" cx="1386" cy="-66.8" rx="119.85" ry="18"/>
<text text-anchor="middle" x="1386" y="-62.6" font-family="Times,serif" font-size="14.00">CodeTestSuggestionService</text>
</g>
<!-- CodeTestSuggestionService&#45;&gt;PullRequestModule -->
<g id="edge7" class="edge">
<title>CodeTestSuggestionService&#45;&gt;PullRequestModule</title>
<path fill="none" stroke="black" d="M1386,-85.07C1386,-103.36 1386,-128.8 1386,-128.8 1386,-128.8 922.71,-128.8 922.71,-128.8"/>
<polygon fill="black" stroke="black" points="922.71,-125.3 912.71,-128.8 922.71,-132.3 922.71,-125.3"/>
</g>
<!-- PullRequestDescriptionService -->
<g id="node9" class="node">
<title>PullRequestDescriptionService</title>
<ellipse fill="#fdb462" stroke="black" cx="1116" cy="-66.8" rx="131.95" ry="18"/>
<text text-anchor="middle" x="1116" y="-62.6" font-family="Times,serif" font-size="14.00">PullRequestDescriptionService</text>
</g>
<!-- PullRequestDescriptionService&#45;&gt;PullRequestModule -->
<g id="edge8" class="edge">
<title>PullRequestDescriptionService&#45;&gt;PullRequestModule</title>
<path fill="none" stroke="black" d="M1002.12,-75.88C1002.12,-91.5 1002.12,-121.8 1002.12,-121.8 1002.12,-121.8 923.05,-121.8 923.05,-121.8"/>
<polygon fill="black" stroke="black" points="923.05,-118.3 913.05,-121.8 923.05,-125.3 923.05,-118.3"/>
</g>
<!-- PullRequestInsightsService -->
<g id="node10" class="node">
<title>PullRequestInsightsService</title>
<ellipse fill="#fdb462" stroke="black" cx="849" cy="-66.8" rx="117.01" ry="18"/>
<text text-anchor="middle" x="849" y="-62.6" font-family="Times,serif" font-size="14.00">PullRequestInsightsService</text>
</g>
<!-- PullRequestInsightsService&#45;&gt;PullRequestModule -->
<g id="edge9" class="edge">
<title>PullRequestInsightsService&#45;&gt;PullRequestModule</title>
<path fill="none" stroke="black" d="M849,-84.91C849,-84.91 849,-103.79 849,-103.79"/>
<polygon fill="black" stroke="black" points="845.5,-103.79 849,-113.79 852.5,-103.79 845.5,-103.79"/>
</g>
<!-- PullRequestReviewService -->
<g id="node11" class="node">
<title>PullRequestReviewService</title>
<ellipse fill="#fdb462" stroke="black" cx="598" cy="-66.8" rx="116.34" ry="18"/>
<text text-anchor="middle" x="598" y="-62.6" font-family="Times,serif" font-size="14.00">PullRequestReviewService</text>
</g>
<!-- PullRequestReviewService&#45;&gt;PullRequestModule -->
<g id="edge10" class="edge">
<title>PullRequestReviewService&#45;&gt;PullRequestModule</title>
<path fill="none" stroke="black" d="M707.3,-73.11C707.3,-87.56 707.3,-121.8 707.3,-121.8 707.3,-121.8 775.2,-121.8 775.2,-121.8"/>
<polygon fill="black" stroke="black" points="775.2,-125.3 785.2,-121.8 775.2,-118.3 775.2,-125.3"/>
</g>
<!-- PullRequestService -->
<g id="node12" class="node">
<title>PullRequestService</title>
<ellipse fill="#fdb462" stroke="black" cx="377" cy="-66.8" rx="86.84" ry="18"/>
<text text-anchor="middle" x="377" y="-62.6" font-family="Times,serif" font-size="14.00">PullRequestService</text>
</g>
<!-- PullRequestService&#45;&gt;PullRequestModule -->
<g id="edge11" class="edge">
<title>PullRequestService&#45;&gt;PullRequestModule</title>
<path fill="none" stroke="black" d="M377,-85.07C377,-103.36 377,-128.8 377,-128.8 377,-128.8 775.34,-128.8 775.34,-128.8"/>
<polygon fill="black" stroke="black" points="775.34,-132.3 785.34,-128.8 775.34,-125.3 775.34,-132.3"/>
</g>
</g>
</svg>
