<?xml version="1.0" encoding="UTF-8" standalone="no"?>
<!DOCTYPE svg PUBLIC "-//W3C//DTD SVG 1.1//EN"
 "http://www.w3.org/Graphics/SVG/1.1/DTD/svg11.dtd">
<!-- Generated by graphviz version 3.0.0 (20220226.1711)
 -->
<!-- Title: dependencies Pages: 1 -->
<svg width="2196pt" height="247pt"
 viewBox="0.00 0.00 2196.00 246.80" xmlns="http://www.w3.org/2000/svg" xmlns:xlink="http://www.w3.org/1999/xlink">
<g id="graph0" class="graph" transform="scale(1 1) rotate(0) translate(4 242.8)">
<title>dependencies</title>
<polygon fill="white" stroke="transparent" points="-4,4 -4,-242.8 2192,-242.8 2192,4 -4,4"/>
<text text-anchor="middle" x="1094" y="-8.2" font-family="sans-serif" font-size="14.00">dependencies</text>
<g id="clust1" class="cluster">
<title>cluster_PullRequestModule</title>
<polygon fill="none" stroke="black" stroke-dasharray="1,5" points="8,-32.8 8,-230.8 2180,-230.8 2180,-32.8 8,-32.8"/>
</g>
<g id="clust6" class="cluster">
<title>cluster_PullRequestModule_providers</title>
<polygon fill="none" stroke="black" points="417,-40.8 417,-92.8 2172,-92.8 2172,-40.8 417,-40.8"/>
</g>
<g id="clust4" class="cluster">
<title>cluster_PullRequestModule_exports</title>
<polygon fill="none" stroke="black" points="701,-170.8 701,-222.8 1037,-222.8 1037,-170.8 701,-170.8"/>
</g>
<g id="clust3" class="cluster">
<title>cluster_PullRequestModule_imports</title>
<polygon fill="none" stroke="black" points="16,-40.8 16,-92.8 409,-92.8 409,-40.8 16,-40.8"/>
</g>
<!-- OpenAiModule -->
<g id="node1" class="node">
<title>OpenAiModule</title>
<polygon fill="#8dd3c7" stroke="black" points="400.88,-84.8 397.88,-88.8 376.88,-88.8 373.88,-84.8 297.12,-84.8 297.12,-48.8 400.88,-48.8 400.88,-84.8"/>
<text text-anchor="middle" x="349" y="-62.6" font-family="Times,serif" font-size="14.00">OpenAiModule</text>
</g>
<!-- PullRequestModule -->
<g id="node4" class="node">
<title>PullRequestModule</title>
<polygon fill="#8dd3c7" stroke="black" points="921.72,-149.8 918.72,-153.8 897.72,-153.8 894.72,-149.8 794.28,-149.8 794.28,-113.8 921.72,-113.8 921.72,-149.8"/>
<text text-anchor="middle" x="858" y="-127.6" font-family="Times,serif" font-size="14.00">PullRequestModule</text>
</g>
<!-- OpenAiModule&#45;&gt;PullRequestModule -->
<g id="edge1" class="edge">
<title>OpenAiModule&#45;&gt;PullRequestModule</title>
<path fill="none" stroke="black" d="M349,-85.07C349,-103.36 349,-128.8 349,-128.8 349,-128.8 784.31,-128.8 784.31,-128.8"/>
<polygon fill="black" stroke="black" points="784.31,-132.3 794.31,-128.8 784.31,-125.3 784.31,-132.3"/>
</g>
<!-- RepoFilterModule -->
<g id="node2" class="node">
<title>RepoFilterModule</title>
<polygon fill="#8dd3c7" stroke="black" points="278.94,-84.8 275.94,-88.8 254.94,-88.8 251.94,-84.8 159.06,-84.8 159.06,-48.8 278.94,-48.8 278.94,-84.8"/>
<text text-anchor="middle" x="219" y="-62.6" font-family="Times,serif" font-size="14.00">RepoFilterModule</text>
</g>
<!-- RepoFilterModule&#45;&gt;PullRequestModule -->
<g id="edge2" class="edge">
<title>RepoFilterModule&#45;&gt;PullRequestModule</title>
<path fill="none" stroke="black" d="M219,-84.93C219,-105.37 219,-135.8 219,-135.8 219,-135.8 784.1,-135.8 784.1,-135.8"/>
<polygon fill="black" stroke="black" points="784.1,-139.3 794.1,-135.8 784.1,-132.3 784.1,-139.3"/>
</g>
<!-- TimescaleModule -->
<g id="node3" class="node">
<title>TimescaleModule</title>
<polygon fill="#8dd3c7" stroke="black" points="141.58,-84.8 138.58,-88.8 117.58,-88.8 114.58,-84.8 24.42,-84.8 24.42,-48.8 141.58,-48.8 141.58,-84.8"/>
<text text-anchor="middle" x="83" y="-62.6" font-family="Times,serif" font-size="14.00">TimescaleModule</text>
</g>
<!-- TimescaleModule&#45;&gt;PullRequestModule -->
<g id="edge3" class="edge">
<title>TimescaleModule&#45;&gt;PullRequestModule</title>
<path fill="none" stroke="black" d="M83,-84.81C83,-107.29 83,-142.8 83,-142.8 83,-142.8 784.25,-142.8 784.25,-142.8"/>
<polygon fill="black" stroke="black" points="784.25,-146.3 794.25,-142.8 784.25,-139.3 784.25,-146.3"/>
</g>
<!-- PullRequestReviewService  -->
<g id="node5" class="node">
<title>PullRequestReviewService </title>
<polygon fill="#fb8072" stroke="black" points="1028.91,-214.8 857.09,-214.8 857.09,-178.8 1028.91,-178.8 1028.91,-214.8"/>
<text text-anchor="middle" x="943" y="-192.6" font-family="Times,serif" font-size="14.00">PullRequestReviewService </text>
</g>
<!-- PullRequestModule&#45;&gt;PullRequestReviewService  -->
<g id="edge4" class="edge">
<title>PullRequestModule&#45;&gt;PullRequestReviewService </title>
<path fill="none" stroke="black" stroke-dasharray="5,2" d="M889.33,-149.91C889.33,-149.91 889.33,-168.79 889.33,-168.79"/>
<polygon fill="black" stroke="black" points="885.83,-168.79 889.33,-178.79 892.83,-168.79 885.83,-168.79"/>
</g>
<!-- PullRequestService  -->
<g id="node6" class="node">
<title>PullRequestService </title>
<polygon fill="#fb8072" stroke="black" points="838.65,-214.8 709.35,-214.8 709.35,-178.8 838.65,-178.8 838.65,-214.8"/>
<text text-anchor="middle" x="774" y="-192.6" font-family="Times,serif" font-size="14.00">PullRequestService </text>
</g>
<!-- PullRequestModule&#45;&gt;PullRequestService  -->
<g id="edge5" class="edge">
<title>PullRequestModule&#45;&gt;PullRequestService </title>
<path fill="none" stroke="black" stroke-dasharray="5,2" d="M816.48,-149.91C816.48,-149.91 816.48,-168.79 816.48,-168.79"/>
<polygon fill="black" stroke="black" points="812.98,-168.79 816.48,-178.79 819.98,-168.79 812.98,-168.79"/>
</g>
<!-- CodeExplanationService -->
<g id="node7" class="node">
<title>CodeExplanationService</title>
<ellipse fill="#fdb462" stroke="black" cx="2057" cy="-66.8" rx="107.08" ry="18"/>
<text text-anchor="middle" x="2057" y="-62.6" font-family="Times,serif" font-size="14.00">CodeExplanationService</text>
</g>
<!-- CodeExplanationService&#45;&gt;PullRequestModule -->
<g id="edge6" class="edge">
<title>CodeExplanationService&#45;&gt;PullRequestModule</title>
<path fill="none" stroke="black" d="M2057,-84.81C2057,-107.29 2057,-142.8 2057,-142.8 2057,-142.8 931.62,-142.8 931.62,-142.8"/>
<polygon fill="black" stroke="black" points="931.62,-139.3 921.62,-142.8 931.62,-146.3 931.62,-139.3"/>
</g>
<!-- CodeRefactorSuggestionService -->
<g id="node8" class="node">
<title>CodeRefactorSuggestionService</title>
<ellipse fill="#fdb462" stroke="black" cx="1795" cy="-66.8" rx="136.59" ry="18"/>
<text text-anchor="middle" x="1795" y="-62.6" font-family="Times,serif" font-size="14.00">CodeRefactorSuggestionService</text>
</g>
<!-- CodeRefactorSuggestionService&#45;&gt;PullRequestModule -->
<g id="edge7" class="edge">
<title>CodeRefactorSuggestionService&#45;&gt;PullRequestModule</title>
<path fill="none" stroke="black" d="M1795,-84.93C1795,-105.37 1795,-135.8 1795,-135.8 1795,-135.8 931.67,-135.8 931.67,-135.8"/>
<polygon fill="black" stroke="black" points="931.67,-132.3 921.67,-135.8 931.67,-139.3 931.67,-132.3"/>
</g>
<!-- CodeTestSuggestionService -->
<g id="node9" class="node">
<title>CodeTestSuggestionService</title>
<ellipse fill="#fdb462" stroke="black" cx="1521" cy="-66.8" rx="119.85" ry="18"/>
<text text-anchor="middle" x="1521" y="-62.6" font-family="Times,serif" font-size="14.00">CodeTestSuggestionService</text>
</g>
<!-- CodeTestSuggestionService&#45;&gt;PullRequestModule -->
<g id="edge8" class="edge">
<title>CodeTestSuggestionService&#45;&gt;PullRequestModule</title>
<path fill="none" stroke="black" d="M1521,-85.07C1521,-103.36 1521,-128.8 1521,-128.8 1521,-128.8 931.87,-128.8 931.87,-128.8"/>
<polygon fill="black" stroke="black" points="931.87,-125.3 921.87,-128.8 931.87,-132.3 931.87,-125.3"/>
</g>
<!-- PullRequestDescriptionService -->
<g id="node10" class="node">
<title>PullRequestDescriptionService</title>
<ellipse fill="#fdb462" stroke="black" cx="1251" cy="-66.8" rx="131.95" ry="18"/>
<text text-anchor="middle" x="1251" y="-62.6" font-family="Times,serif" font-size="14.00">PullRequestDescriptionService</text>
</g>
<!-- PullRequestDescriptionService&#45;&gt;PullRequestModule -->
<g id="edge9" class="edge">
<title>PullRequestDescriptionService&#45;&gt;PullRequestModule</title>
<path fill="none" stroke="black" d="M1251,-84.81C1251,-100.85 1251,-121.8 1251,-121.8 1251,-121.8 932.02,-121.8 932.02,-121.8"/>
<polygon fill="black" stroke="black" points="932.02,-118.3 922.02,-121.8 932.02,-125.3 932.02,-118.3"/>
</g>
<!-- PullRequestInsightsService -->
<g id="node11" class="node">
<title>PullRequestInsightsService</title>
<ellipse fill="#fdb462" stroke="black" cx="984" cy="-66.8" rx="117.01" ry="18"/>
<text text-anchor="middle" x="984" y="-62.6" font-family="Times,serif" font-size="14.00">PullRequestInsightsService</text>
</g>
<!-- PullRequestInsightsService&#45;&gt;PullRequestModule -->
<g id="edge10" class="edge">
<title>PullRequestInsightsService&#45;&gt;PullRequestModule</title>
<path fill="none" stroke="black" d="M894.18,-78.42C894.18,-78.42 894.18,-103.65 894.18,-103.65"/>
<polygon fill="black" stroke="black" points="890.68,-103.65 894.18,-113.65 897.68,-103.65 890.68,-103.65"/>
</g>
<!-- PullRequestReviewService -->
<g id="node12" class="node">
<title>PullRequestReviewService</title>
<ellipse fill="#fdb462" stroke="black" cx="733" cy="-66.8" rx="116.34" ry="18"/>
<text text-anchor="middle" x="733" y="-62.6" font-family="Times,serif" font-size="14.00">PullRequestReviewService</text>
</g>
<!-- PullRequestReviewService&#45;&gt;PullRequestModule -->
<g id="edge11" class="edge">
<title>PullRequestReviewService&#45;&gt;PullRequestModule</title>
<path fill="none" stroke="black" d="M821.78,-78.42C821.78,-78.42 821.78,-103.65 821.78,-103.65"/>
<polygon fill="black" stroke="black" points="818.28,-103.65 821.78,-113.65 825.28,-103.65 818.28,-103.65"/>
</g>
<!-- PullRequestService -->
<g id="node13" class="node">
<title>PullRequestService</title>
<ellipse fill="#fdb462" stroke="black" cx="512" cy="-66.8" rx="86.84" ry="18"/>
<text text-anchor="middle" x="512" y="-62.6" font-family="Times,serif" font-size="14.00">PullRequestService</text>
</g>
<!-- PullRequestService&#45;&gt;PullRequestModule -->
<g id="edge12" class="edge">
<title>PullRequestService&#45;&gt;PullRequestModule</title>
<path fill="none" stroke="black" d="M512,-84.81C512,-100.85 512,-121.8 512,-121.8 512,-121.8 784.14,-121.8 784.14,-121.8"/>
<polygon fill="black" stroke="black" points="784.14,-125.3 794.14,-121.8 784.14,-118.3 784.14,-125.3"/>
</g>
</g>
</svg>
