<?xml version="1.0" encoding="UTF-8" standalone="no"?>
<!DOCTYPE svg PUBLIC "-//W3C//DTD SVG 1.1//EN"
 "http://www.w3.org/Graphics/SVG/1.1/DTD/svg11.dtd">
<!-- Generated by graphviz version 3.0.0 (20220226.1711)
 -->
<!-- Title: dependencies Pages: 1 -->
<svg width="374pt" height="247pt"
 viewBox="0.00 0.00 374.00 246.80" xmlns="http://www.w3.org/2000/svg" xmlns:xlink="http://www.w3.org/1999/xlink">
<g id="graph0" class="graph" transform="scale(1 1) rotate(0) translate(4 242.8)">
<title>dependencies</title>
<polygon fill="white" stroke="transparent" points="-4,4 -4,-242.8 370,-242.8 370,4 -4,4"/>
<text text-anchor="middle" x="183" y="-8.2" font-family="sans-serif" font-size="14.00">dependencies</text>
<g id="clust1" class="cluster">
<title>cluster_PullRequestModule</title>
<polygon fill="none" stroke="black" stroke-dasharray="1,5" points="8,-32.8 8,-230.8 358,-230.8 358,-32.8 8,-32.8"/>
</g>
<g id="clust4" class="cluster">
<title>cluster_PullRequestModule_exports</title>
<polygon fill="none" stroke="black" points="121,-170.8 121,-222.8 267,-222.8 267,-170.8 121,-170.8"/>
</g>
<g id="clust3" class="cluster">
<title>cluster_PullRequestModule_imports</title>
<polygon fill="none" stroke="black" points="214,-40.8 214,-92.8 350,-92.8 350,-40.8 214,-40.8"/>
</g>
<g id="clust6" class="cluster">
<title>cluster_PullRequestModule_providers</title>
<polygon fill="none" stroke="black" points="16,-40.8 16,-92.8 206,-92.8 206,-40.8 16,-40.8"/>
</g>
<!-- RepoFilterModule -->
<g id="node1" class="node">
<title>RepoFilterModule</title>
<polygon fill="#8dd3c7" stroke="black" points="341.94,-84.8 338.94,-88.8 317.94,-88.8 314.94,-84.8 222.06,-84.8 222.06,-48.8 341.94,-48.8 341.94,-84.8"/>
<text text-anchor="middle" x="282" y="-62.6" font-family="Times,serif" font-size="14.00">RepoFilterModule</text>
</g>
<!-- PullRequestModule -->
<g id="node2" class="node">
<title>PullRequestModule</title>
<polygon fill="#8dd3c7" stroke="black" points="257.72,-149.8 254.72,-153.8 233.72,-153.8 230.72,-149.8 130.28,-149.8 130.28,-113.8 257.72,-113.8 257.72,-149.8"/>
<text text-anchor="middle" x="194" y="-127.6" font-family="Times,serif" font-size="14.00">PullRequestModule</text>
</g>
<!-- RepoFilterModule&#45;&gt;PullRequestModule -->
<g id="edge1" class="edge">
<title>RepoFilterModule&#45;&gt;PullRequestModule</title>
<path fill="none" stroke="black" d="M239.95,-84.91C239.95,-84.91 239.95,-103.79 239.95,-103.79"/>
<polygon fill="black" stroke="black" points="236.45,-103.79 239.95,-113.79 243.45,-103.79 236.45,-103.79"/>
</g>
<!-- PullRequestService  -->
<g id="node3" class="node">
<title>PullRequestService </title>
<polygon fill="#fb8072" stroke="black" points="258.65,-214.8 129.35,-214.8 129.35,-178.8 258.65,-178.8 258.65,-214.8"/>
<text text-anchor="middle" x="194" y="-192.6" font-family="Times,serif" font-size="14.00">PullRequestService </text>
</g>
<!-- PullRequestModule&#45;&gt;PullRequestService  -->
<g id="edge2" class="edge">
<title>PullRequestModule&#45;&gt;PullRequestService </title>
<path fill="none" stroke="black" stroke-dasharray="5,2" d="M194,-149.91C194,-149.91 194,-168.79 194,-168.79"/>
<polygon fill="black" stroke="black" points="190.5,-168.79 194,-178.79 197.5,-168.79 190.5,-168.79"/>
</g>
<!-- PullRequestService -->
<g id="node4" class="node">
<title>PullRequestService</title>
<ellipse fill="#fdb462" stroke="black" cx="111" cy="-66.8" rx="86.84" ry="18"/>
<text text-anchor="middle" x="111" y="-62.6" font-family="Times,serif" font-size="14.00">PullRequestService</text>
</g>
<!-- PullRequestService&#45;&gt;PullRequestModule -->
<g id="edge3" class="edge">
<title>PullRequestService&#45;&gt;PullRequestModule</title>
<path fill="none" stroke="black" d="M164.03,-81.23C164.03,-81.23 164.03,-103.69 164.03,-103.69"/>
<polygon fill="black" stroke="black" points="160.53,-103.69 164.03,-113.69 167.53,-103.69 160.53,-103.69"/>
</g>
</g>
</svg>
