<?xml version="1.0" encoding="UTF-8" standalone="no"?>
<!DOCTYPE svg PUBLIC "-//W3C//DTD SVG 1.1//EN"
 "http://www.w3.org/Graphics/SVG/1.1/DTD/svg11.dtd">
<!-- Generated by graphviz version 3.0.0 (20220226.1711)
 -->
<!-- Title: dependencies Pages: 1 -->
<svg width="1367pt" height="174pt"
 viewBox="0.00 0.00 1367.00 173.80" xmlns="http://www.w3.org/2000/svg" xmlns:xlink="http://www.w3.org/1999/xlink">
<g id="graph0" class="graph" transform="scale(1 1) rotate(0) translate(4 169.8)">
<title>dependencies</title>
<polygon fill="white" stroke="transparent" points="-4,4 -4,-169.8 1363,-169.8 1363,4 -4,4"/>
<text text-anchor="middle" x="679.5" y="-8.2" font-family="sans-serif" font-size="14.00">dependencies</text>
<g id="clust1" class="cluster">
<title>cluster_PullRequestModule</title>
<polygon fill="none" stroke="black" stroke-dasharray="1,5" points="8,-32.8 8,-157.8 1351,-157.8 1351,-32.8 8,-32.8"/>
</g>
<g id="clust3" class="cluster">
<title>cluster_PullRequestModule_imports</title>
<polygon fill="none" stroke="black" points="1085,-40.8 1085,-92.8 1343,-92.8 1343,-40.8 1085,-40.8"/>
</g>
<g id="clust6" class="cluster">
<title>cluster_PullRequestModule_providers</title>
<polygon fill="none" stroke="black" points="16,-40.8 16,-92.8 1077,-92.8 1077,-40.8 16,-40.8"/>
</g>
<!-- OpenAiModule -->
<g id="node1" class="node">
<title>OpenAiModule</title>
<polygon fill="#8dd3c7" stroke="black" points="1334.88,-84.8 1331.88,-88.8 1310.88,-88.8 1307.88,-84.8 1231.12,-84.8 1231.12,-48.8 1334.88,-48.8 1334.88,-84.8"/>
<text text-anchor="middle" x="1283" y="-62.6" font-family="Times,serif" font-size="14.00">OpenAiModule</text>
</g>
<!-- PullRequestModule -->
<g id="node3" class="node">
<title>PullRequestModule</title>
<polygon fill="#8dd3c7" stroke="black" points="894.72,-149.8 891.72,-153.8 870.72,-153.8 867.72,-149.8 767.28,-149.8 767.28,-113.8 894.72,-113.8 894.72,-149.8"/>
<text text-anchor="middle" x="831" y="-127.6" font-family="Times,serif" font-size="14.00">PullRequestModule</text>
</g>
<!-- OpenAiModule&#45;&gt;PullRequestModule -->
<g id="edge1" class="edge">
<title>OpenAiModule&#45;&gt;PullRequestModule</title>
<path fill="none" stroke="black" d="M1283,-85.08C1283,-106.12 1283,-137.8 1283,-137.8 1283,-137.8 904.8,-137.8 904.8,-137.8"/>
<polygon fill="black" stroke="black" points="904.8,-134.3 894.8,-137.8 904.8,-141.3 904.8,-134.3"/>
</g>
<!-- RepoFilterModule -->
<g id="node2" class="node">
<title>RepoFilterModule</title>
<polygon fill="#8dd3c7" stroke="black" points="1212.94,-84.8 1209.94,-88.8 1188.94,-88.8 1185.94,-84.8 1093.06,-84.8 1093.06,-48.8 1212.94,-48.8 1212.94,-84.8"/>
<text text-anchor="middle" x="1153" y="-62.6" font-family="Times,serif" font-size="14.00">RepoFilterModule</text>
</g>
<!-- RepoFilterModule&#45;&gt;PullRequestModule -->
<g id="edge2" class="edge">
<title>RepoFilterModule&#45;&gt;PullRequestModule</title>
<path fill="none" stroke="black" d="M1153,-84.82C1153,-102.17 1153,-125.8 1153,-125.8 1153,-125.8 904.62,-125.8 904.62,-125.8"/>
<polygon fill="black" stroke="black" points="904.62,-122.3 894.62,-125.8 904.62,-129.3 904.62,-122.3"/>
</g>
<!-- CodeExplanationService -->
<g id="node4" class="node">
<title>CodeExplanationService</title>
<ellipse fill="#fdb462" stroke="black" cx="962" cy="-66.8" rx="107.08" ry="18"/>
<text text-anchor="middle" x="962" y="-62.6" font-family="Times,serif" font-size="14.00">CodeExplanationService</text>
</g>
<!-- CodeExplanationService&#45;&gt;PullRequestModule -->
<g id="edge3" class="edge">
<title>CodeExplanationService&#45;&gt;PullRequestModule</title>
<path fill="none" stroke="black" d="M874.79,-77.24C874.79,-77.24 874.79,-103.77 874.79,-103.77"/>
<polygon fill="black" stroke="black" points="871.29,-103.77 874.79,-113.77 878.29,-103.77 871.29,-103.77"/>
</g>
<!-- CodeRefactorSuggestionService -->
<g id="node5" class="node">
<title>CodeRefactorSuggestionService</title>
<ellipse fill="#fdb462" stroke="black" cx="700" cy="-66.8" rx="136.59" ry="18"/>
<text text-anchor="middle" x="700" y="-62.6" font-family="Times,serif" font-size="14.00">CodeRefactorSuggestionService</text>
</g>
<!-- CodeRefactorSuggestionService&#45;&gt;PullRequestModule -->
<g id="edge4" class="edge">
<title>CodeRefactorSuggestionService&#45;&gt;PullRequestModule</title>
<path fill="none" stroke="black" d="M801.97,-79.03C801.97,-79.03 801.97,-103.48 801.97,-103.48"/>
<polygon fill="black" stroke="black" points="798.47,-103.48 801.97,-113.48 805.47,-103.48 798.47,-103.48"/>
</g>
<!-- CodeTestSuggestionService -->
<g id="node6" class="node">
<title>CodeTestSuggestionService</title>
<ellipse fill="#fdb462" stroke="black" cx="426" cy="-66.8" rx="119.85" ry="18"/>
<text text-anchor="middle" x="426" y="-62.6" font-family="Times,serif" font-size="14.00">CodeTestSuggestionService</text>
</g>
<!-- CodeTestSuggestionService&#45;&gt;PullRequestModule -->
<g id="edge5" class="edge">
<title>CodeTestSuggestionService&#45;&gt;PullRequestModule</title>
<path fill="none" stroke="black" d="M426,-84.82C426,-102.17 426,-125.8 426,-125.8 426,-125.8 757.27,-125.8 757.27,-125.8"/>
<polygon fill="black" stroke="black" points="757.27,-129.3 767.27,-125.8 757.27,-122.3 757.27,-129.3"/>
</g>
<!-- PullRequestDescriptionService -->
<g id="node7" class="node">
<title>PullRequestDescriptionService</title>
<ellipse fill="#fdb462" stroke="black" cx="156" cy="-66.8" rx="131.95" ry="18"/>
<text text-anchor="middle" x="156" y="-62.6" font-family="Times,serif" font-size="14.00">PullRequestDescriptionService</text>
</g>
<!-- PullRequestDescriptionService&#45;&gt;PullRequestModule -->
<g id="edge6" class="edge">
<title>PullRequestDescriptionService&#45;&gt;PullRequestModule</title>
<path fill="none" stroke="black" d="M156,-85.08C156,-106.12 156,-137.8 156,-137.8 156,-137.8 757.19,-137.8 757.19,-137.8"/>
<polygon fill="black" stroke="black" points="757.19,-141.3 767.19,-137.8 757.19,-134.3 757.19,-141.3"/>
</g>
</g>
</svg>
