<?xml version="1.0" encoding="UTF-8" standalone="no"?>
<!DOCTYPE svg PUBLIC "-//W3C//DTD SVG 1.1//EN"
 "http://www.w3.org/Graphics/SVG/1.1/DTD/svg11.dtd">
<!-- Generated by graphviz version 3.0.0 (20220226.1711)
 -->
<!-- Title: dependencies Pages: 1 -->
<svg width="1811pt" height="247pt"
 viewBox="0.00 0.00 1811.00 246.80" xmlns="http://www.w3.org/2000/svg" xmlns:xlink="http://www.w3.org/1999/xlink">
<g id="graph0" class="graph" transform="scale(1 1) rotate(0) translate(4 242.8)">
<title>dependencies</title>
<polygon fill="white" stroke="transparent" points="-4,4 -4,-242.8 1807,-242.8 1807,4 -4,4"/>
<text text-anchor="middle" x="901.5" y="-8.2" font-family="sans-serif" font-size="14.00">dependencies</text>
<g id="clust1" class="cluster">
<title>cluster_PullRequestModule</title>
<polygon fill="none" stroke="black" stroke-dasharray="1,5" points="8,-32.8 8,-230.8 1795,-230.8 1795,-32.8 8,-32.8"/>
</g>
<g id="clust3" class="cluster">
<title>cluster_PullRequestModule_imports</title>
<polygon fill="none" stroke="black" points="1529,-40.8 1529,-92.8 1787,-92.8 1787,-40.8 1529,-40.8"/>
</g>
<g id="clust4" class="cluster">
<title>cluster_PullRequestModule_exports</title>
<polygon fill="none" stroke="black" points="934,-170.8 934,-222.8 1080,-222.8 1080,-170.8 934,-170.8"/>
</g>
<g id="clust6" class="cluster">
<title>cluster_PullRequestModule_providers</title>
<polygon fill="none" stroke="black" points="16,-40.8 16,-92.8 1521,-92.8 1521,-40.8 16,-40.8"/>
</g>
<!-- OpenAiModule -->
<g id="node1" class="node">
<title>OpenAiModule</title>
<polygon fill="#8dd3c7" stroke="black" points="1778.88,-84.8 1775.88,-88.8 1754.88,-88.8 1751.88,-84.8 1675.12,-84.8 1675.12,-48.8 1778.88,-48.8 1778.88,-84.8"/>
<text text-anchor="middle" x="1727" y="-62.6" font-family="Times,serif" font-size="14.00">OpenAiModule</text>
</g>
<!-- PullRequestModule -->
<g id="node3" class="node">
<title>PullRequestModule</title>
<polygon fill="#8dd3c7" stroke="black" points="1070.72,-149.8 1067.72,-153.8 1046.72,-153.8 1043.72,-149.8 943.28,-149.8 943.28,-113.8 1070.72,-113.8 1070.72,-149.8"/>
<text text-anchor="middle" x="1007" y="-127.6" font-family="Times,serif" font-size="14.00">PullRequestModule</text>
</g>
<!-- OpenAiModule&#45;&gt;PullRequestModule -->
<g id="edge1" class="edge">
<title>OpenAiModule&#45;&gt;PullRequestModule</title>
<path fill="none" stroke="black" d="M1727,-85.09C1727,-107.01 1727,-140.8 1727,-140.8 1727,-140.8 1080.9,-140.8 1080.9,-140.8"/>
<polygon fill="black" stroke="black" points="1080.9,-137.3 1070.9,-140.8 1080.9,-144.3 1080.9,-137.3"/>
</g>
<!-- RepoFilterModule -->
<g id="node2" class="node">
<title>RepoFilterModule</title>
<polygon fill="#8dd3c7" stroke="black" points="1656.94,-84.8 1653.94,-88.8 1632.94,-88.8 1629.94,-84.8 1537.06,-84.8 1537.06,-48.8 1656.94,-48.8 1656.94,-84.8"/>
<text text-anchor="middle" x="1597" y="-62.6" font-family="Times,serif" font-size="14.00">RepoFilterModule</text>
</g>
<!-- RepoFilterModule&#45;&gt;PullRequestModule -->
<g id="edge2" class="edge">
<title>RepoFilterModule&#45;&gt;PullRequestModule</title>
<path fill="none" stroke="black" d="M1597,-84.91C1597,-104.14 1597,-131.8 1597,-131.8 1597,-131.8 1080.7,-131.8 1080.7,-131.8"/>
<polygon fill="black" stroke="black" points="1080.7,-128.3 1070.7,-131.8 1080.7,-135.3 1080.7,-128.3"/>
</g>
<!-- PullRequestService  -->
<g id="node4" class="node">
<title>PullRequestService </title>
<polygon fill="#fb8072" stroke="black" points="1071.65,-214.8 942.35,-214.8 942.35,-178.8 1071.65,-178.8 1071.65,-214.8"/>
<text text-anchor="middle" x="1007" y="-192.6" font-family="Times,serif" font-size="14.00">PullRequestService </text>
</g>
<!-- PullRequestModule&#45;&gt;PullRequestService  -->
<g id="edge3" class="edge">
<title>PullRequestModule&#45;&gt;PullRequestService </title>
<path fill="none" stroke="black" stroke-dasharray="5,2" d="M1007,-149.91C1007,-149.91 1007,-168.79 1007,-168.79"/>
<polygon fill="black" stroke="black" points="1003.5,-168.79 1007,-178.79 1010.5,-168.79 1003.5,-168.79"/>
</g>
<!-- CodeExplanationService -->
<g id="node5" class="node">
<title>CodeExplanationService</title>
<ellipse fill="#fdb462" stroke="black" cx="1406" cy="-66.8" rx="107.08" ry="18"/>
<text text-anchor="middle" x="1406" y="-62.6" font-family="Times,serif" font-size="14.00">CodeExplanationService</text>
</g>
<!-- CodeExplanationService&#45;&gt;PullRequestModule -->
<g id="edge4" class="edge">
<title>CodeExplanationService&#45;&gt;PullRequestModule</title>
<path fill="none" stroke="black" d="M1406,-84.83C1406,-101.2 1406,-122.8 1406,-122.8 1406,-122.8 1080.66,-122.8 1080.66,-122.8"/>
<polygon fill="black" stroke="black" points="1080.66,-119.3 1070.66,-122.8 1080.66,-126.3 1080.66,-119.3"/>
</g>
<!-- CodeRefactorSuggestionService -->
<g id="node6" class="node">
<title>CodeRefactorSuggestionService</title>
<ellipse fill="#fdb462" stroke="black" cx="1144" cy="-66.8" rx="136.59" ry="18"/>
<text text-anchor="middle" x="1144" y="-62.6" font-family="Times,serif" font-size="14.00">CodeRefactorSuggestionService</text>
</g>
<!-- CodeRefactorSuggestionService&#45;&gt;PullRequestModule -->
<g id="edge5" class="edge">
<title>CodeRefactorSuggestionService&#45;&gt;PullRequestModule</title>
<path fill="none" stroke="black" d="M1039.03,-78.42C1039.03,-78.42 1039.03,-103.65 1039.03,-103.65"/>
<polygon fill="black" stroke="black" points="1035.53,-103.65 1039.03,-113.65 1042.53,-103.65 1035.53,-103.65"/>
</g>
<!-- CodeTestSuggestionService -->
<g id="node7" class="node">
<title>CodeTestSuggestionService</title>
<ellipse fill="#fdb462" stroke="black" cx="870" cy="-66.8" rx="119.85" ry="18"/>
<text text-anchor="middle" x="870" y="-62.6" font-family="Times,serif" font-size="14.00">CodeTestSuggestionService</text>
</g>
<!-- CodeTestSuggestionService&#45;&gt;PullRequestModule -->
<g id="edge6" class="edge">
<title>CodeTestSuggestionService&#45;&gt;PullRequestModule</title>
<path fill="none" stroke="black" d="M966.66,-77.53C966.66,-77.53 966.66,-103.67 966.66,-103.67"/>
<polygon fill="black" stroke="black" points="963.16,-103.67 966.66,-113.67 970.16,-103.67 963.16,-103.67"/>
</g>
<!-- PullRequestDescriptionService -->
<g id="node8" class="node">
<title>PullRequestDescriptionService</title>
<ellipse fill="#fdb462" stroke="black" cx="600" cy="-66.8" rx="131.95" ry="18"/>
<text text-anchor="middle" x="600" y="-62.6" font-family="Times,serif" font-size="14.00">PullRequestDescriptionService</text>
</g>
<!-- PullRequestDescriptionService&#45;&gt;PullRequestModule -->
<g id="edge7" class="edge">
<title>PullRequestDescriptionService&#45;&gt;PullRequestModule</title>
<path fill="none" stroke="black" d="M600,-84.83C600,-101.2 600,-122.8 600,-122.8 600,-122.8 932.96,-122.8 932.96,-122.8"/>
<polygon fill="black" stroke="black" points="932.96,-126.3 942.96,-122.8 932.96,-119.3 932.96,-126.3"/>
</g>
<!-- PullRequestInsightsService -->
<g id="node9" class="node">
<title>PullRequestInsightsService</title>
<ellipse fill="#fdb462" stroke="black" cx="333" cy="-66.8" rx="117.01" ry="18"/>
<text text-anchor="middle" x="333" y="-62.6" font-family="Times,serif" font-size="14.00">PullRequestInsightsService</text>
</g>
<!-- PullRequestInsightsService&#45;&gt;PullRequestModule -->
<g id="edge8" class="edge">
<title>PullRequestInsightsService&#45;&gt;PullRequestModule</title>
<path fill="none" stroke="black" d="M333,-84.91C333,-104.14 333,-131.8 333,-131.8 333,-131.8 933.29,-131.8 933.29,-131.8"/>
<polygon fill="black" stroke="black" points="933.29,-135.3 943.29,-131.8 933.29,-128.3 933.29,-135.3"/>
</g>
<!-- PullRequestService -->
<g id="node10" class="node">
<title>PullRequestService</title>
<ellipse fill="#fdb462" stroke="black" cx="111" cy="-66.8" rx="86.84" ry="18"/>
<text text-anchor="middle" x="111" y="-62.6" font-family="Times,serif" font-size="14.00">PullRequestService</text>
</g>
<!-- PullRequestService&#45;&gt;PullRequestModule -->
<g id="edge9" class="edge">
<title>PullRequestService&#45;&gt;PullRequestModule</title>
<path fill="none" stroke="black" d="M111,-85.09C111,-107.01 111,-140.8 111,-140.8 111,-140.8 933.28,-140.8 933.28,-140.8"/>
<polygon fill="black" stroke="black" points="933.28,-144.3 943.28,-140.8 933.28,-137.3 933.28,-144.3"/>
</g>
</g>
</svg>
