<?xml version="1.0" encoding="UTF-8" standalone="no"?>
<!DOCTYPE svg PUBLIC "-//W3C//DTD SVG 1.1//EN"
 "http://www.w3.org/Graphics/SVG/1.1/DTD/svg11.dtd">
<!-- Generated by graphviz version 3.0.0 (20220226.1711)
 -->
<!-- Title: dependencies Pages: 1 -->
<svg width="1199pt" height="247pt"
 viewBox="0.00 0.00 1199.00 246.80" xmlns="http://www.w3.org/2000/svg" xmlns:xlink="http://www.w3.org/1999/xlink">
<g id="graph0" class="graph" transform="scale(1 1) rotate(0) translate(4 242.8)">
<title>dependencies</title>
<polygon fill="white" stroke="transparent" points="-4,4 -4,-242.8 1195,-242.8 1195,4 -4,4"/>
<text text-anchor="middle" x="595.5" y="-8.2" font-family="sans-serif" font-size="14.00">dependencies</text>
<g id="clust1" class="cluster">
<title>cluster_PullRequestModule</title>
<polygon fill="none" stroke="black" stroke-dasharray="1,5" points="8,-32.8 8,-230.8 1183,-230.8 1183,-32.8 8,-32.8"/>
</g>
<g id="clust4" class="cluster">
<title>cluster_PullRequestModule_exports</title>
<polygon fill="none" stroke="black" points="527,-170.8 527,-222.8 673,-222.8 673,-170.8 527,-170.8"/>
</g>
<g id="clust3" class="cluster">
<title>cluster_PullRequestModule_imports</title>
<polygon fill="none" stroke="black" points="1039,-40.8 1039,-92.8 1175,-92.8 1175,-40.8 1039,-40.8"/>
</g>
<g id="clust6" class="cluster">
<title>cluster_PullRequestModule_providers</title>
<polygon fill="none" stroke="black" points="16,-40.8 16,-92.8 1031,-92.8 1031,-40.8 16,-40.8"/>
</g>
<!-- RepoFilterModule -->
<g id="node1" class="node">
<title>RepoFilterModule</title>
<polygon fill="#8dd3c7" stroke="black" points="1166.94,-84.8 1163.94,-88.8 1142.94,-88.8 1139.94,-84.8 1047.06,-84.8 1047.06,-48.8 1166.94,-48.8 1166.94,-84.8"/>
<text text-anchor="middle" x="1107" y="-62.6" font-family="Times,serif" font-size="14.00">RepoFilterModule</text>
</g>
<!-- PullRequestModule -->
<g id="node2" class="node">
<title>PullRequestModule</title>
<polygon fill="#8dd3c7" stroke="black" points="663.72,-149.8 660.72,-153.8 639.72,-153.8 636.72,-149.8 536.28,-149.8 536.28,-113.8 663.72,-113.8 663.72,-149.8"/>
<text text-anchor="middle" x="600" y="-127.6" font-family="Times,serif" font-size="14.00">PullRequestModule</text>
</g>
<!-- RepoFilterModule&#45;&gt;PullRequestModule -->
<g id="edge1" class="edge">
<title>RepoFilterModule&#45;&gt;PullRequestModule</title>
<path fill="none" stroke="black" d="M1107,-85.08C1107,-106.12 1107,-137.8 1107,-137.8 1107,-137.8 673.7,-137.8 673.7,-137.8"/>
<polygon fill="black" stroke="black" points="673.7,-134.3 663.7,-137.8 673.7,-141.3 673.7,-134.3"/>
</g>
<!-- PullRequestService  -->
<g id="node3" class="node">
<title>PullRequestService </title>
<polygon fill="#fb8072" stroke="black" points="664.65,-214.8 535.35,-214.8 535.35,-178.8 664.65,-178.8 664.65,-214.8"/>
<text text-anchor="middle" x="600" y="-192.6" font-family="Times,serif" font-size="14.00">PullRequestService </text>
</g>
<!-- PullRequestModule&#45;&gt;PullRequestService  -->
<g id="edge2" class="edge">
<title>PullRequestModule&#45;&gt;PullRequestService </title>
<path fill="none" stroke="black" stroke-dasharray="5,2" d="M600,-149.91C600,-149.91 600,-168.79 600,-168.79"/>
<polygon fill="black" stroke="black" points="596.5,-168.79 600,-178.79 603.5,-168.79 596.5,-168.79"/>
</g>
<!-- CodeRefactorSuggestionService -->
<g id="node4" class="node">
<title>CodeRefactorSuggestionService</title>
<ellipse fill="#fdb462" stroke="black" cx="886" cy="-66.8" rx="136.59" ry="18"/>
<text text-anchor="middle" x="886" y="-62.6" font-family="Times,serif" font-size="14.00">CodeRefactorSuggestionService</text>
</g>
<!-- CodeRefactorSuggestionService&#45;&gt;PullRequestModule -->
<g id="edge3" class="edge">
<title>CodeRefactorSuggestionService&#45;&gt;PullRequestModule</title>
<path fill="none" stroke="black" d="M886,-84.82C886,-102.17 886,-125.8 886,-125.8 886,-125.8 673.83,-125.8 673.83,-125.8"/>
<polygon fill="black" stroke="black" points="673.83,-122.3 663.83,-125.8 673.83,-129.3 673.83,-122.3"/>
</g>
<!-- PullRequestDescriptionService -->
<g id="node5" class="node">
<title>PullRequestDescriptionService</title>
<ellipse fill="#fdb462" stroke="black" cx="600" cy="-66.8" rx="131.95" ry="18"/>
<text text-anchor="middle" x="600" y="-62.6" font-family="Times,serif" font-size="14.00">PullRequestDescriptionService</text>
</g>
<!-- PullRequestDescriptionService&#45;&gt;PullRequestModule -->
<g id="edge4" class="edge">
<title>PullRequestDescriptionService&#45;&gt;PullRequestModule</title>
<path fill="none" stroke="black" d="M600,-84.91C600,-84.91 600,-103.79 600,-103.79"/>
<polygon fill="black" stroke="black" points="596.5,-103.79 600,-113.79 603.5,-103.79 596.5,-103.79"/>
</g>
<!-- PullRequestInsightsService -->
<g id="node6" class="node">
<title>PullRequestInsightsService</title>
<ellipse fill="#fdb462" stroke="black" cx="333" cy="-66.8" rx="117.01" ry="18"/>
<text text-anchor="middle" x="333" y="-62.6" font-family="Times,serif" font-size="14.00">PullRequestInsightsService</text>
</g>
<!-- PullRequestInsightsService&#45;&gt;PullRequestModule -->
<g id="edge5" class="edge">
<title>PullRequestInsightsService&#45;&gt;PullRequestModule</title>
<path fill="none" stroke="black" d="M333,-84.82C333,-102.17 333,-125.8 333,-125.8 333,-125.8 526.39,-125.8 526.39,-125.8"/>
<polygon fill="black" stroke="black" points="526.39,-129.3 536.39,-125.8 526.39,-122.3 526.39,-129.3"/>
</g>
<!-- PullRequestService -->
<g id="node7" class="node">
<title>PullRequestService</title>
<ellipse fill="#fdb462" stroke="black" cx="111" cy="-66.8" rx="86.84" ry="18"/>
<text text-anchor="middle" x="111" y="-62.6" font-family="Times,serif" font-size="14.00">PullRequestService</text>
</g>
<!-- PullRequestService&#45;&gt;PullRequestModule -->
<g id="edge6" class="edge">
<title>PullRequestService&#45;&gt;PullRequestModule</title>
<path fill="none" stroke="black" d="M111,-85.08C111,-106.12 111,-137.8 111,-137.8 111,-137.8 526.07,-137.8 526.07,-137.8"/>
<polygon fill="black" stroke="black" points="526.07,-141.3 536.07,-137.8 526.07,-134.3 526.07,-141.3"/>
</g>
</g>
</svg>
