<?xml version="1.0" encoding="UTF-8" standalone="no"?>
<!DOCTYPE svg PUBLIC "-//W3C//DTD SVG 1.1//EN"
 "http://www.w3.org/Graphics/SVG/1.1/DTD/svg11.dtd">
<!-- Generated by graphviz version 3.0.0 (20220226.1711)
 -->
<!-- Title: dependencies Pages: 1 -->
<svg width="626pt" height="247pt"
 viewBox="0.00 0.00 626.00 246.80" xmlns="http://www.w3.org/2000/svg" xmlns:xlink="http://www.w3.org/1999/xlink">
<g id="graph0" class="graph" transform="scale(1 1) rotate(0) translate(4 242.8)">
<title>dependencies</title>
<polygon fill="white" stroke="transparent" points="-4,4 -4,-242.8 622,-242.8 622,4 -4,4"/>
<text text-anchor="middle" x="309" y="-8.2" font-family="sans-serif" font-size="14.00">dependencies</text>
<g id="clust1" class="cluster">
<title>cluster_PullRequestModule</title>
<polygon fill="none" stroke="black" stroke-dasharray="1,5" points="8,-32.8 8,-230.8 610,-230.8 610,-32.8 8,-32.8"/>
</g>
<g id="clust3" class="cluster">
<title>cluster_PullRequestModule_imports</title>
<polygon fill="none" stroke="black" points="466,-40.8 466,-92.8 602,-92.8 602,-40.8 466,-40.8"/>
</g>
<g id="clust6" class="cluster">
<title>cluster_PullRequestModule_providers</title>
<polygon fill="none" stroke="black" points="16,-40.8 16,-92.8 458,-92.8 458,-40.8 16,-40.8"/>
</g>
<g id="clust4" class="cluster">
<title>cluster_PullRequestModule_exports</title>
<polygon fill="none" stroke="black" points="260,-170.8 260,-222.8 406,-222.8 406,-170.8 260,-170.8"/>
</g>
<!-- RepoFilterModule -->
<g id="node1" class="node">
<title>RepoFilterModule</title>
<polygon fill="#8dd3c7" stroke="black" points="593.94,-84.8 590.94,-88.8 569.94,-88.8 566.94,-84.8 474.06,-84.8 474.06,-48.8 593.94,-48.8 593.94,-84.8"/>
<text text-anchor="middle" x="534" y="-62.6" font-family="Times,serif" font-size="14.00">RepoFilterModule</text>
</g>
<!-- PullRequestModule -->
<g id="node2" class="node">
<title>PullRequestModule</title>
<polygon fill="#8dd3c7" stroke="black" points="396.72,-149.8 393.72,-153.8 372.72,-153.8 369.72,-149.8 269.28,-149.8 269.28,-113.8 396.72,-113.8 396.72,-149.8"/>
<text text-anchor="middle" x="333" y="-127.6" font-family="Times,serif" font-size="14.00">PullRequestModule</text>
</g>
<!-- RepoFilterModule&#45;&gt;PullRequestModule -->
<g id="edge1" class="edge">
<title>RepoFilterModule&#45;&gt;PullRequestModule</title>
<path fill="none" stroke="black" d="M534,-84.91C534,-104.14 534,-131.8 534,-131.8 534,-131.8 406.87,-131.8 406.87,-131.8"/>
<polygon fill="black" stroke="black" points="406.87,-128.3 396.87,-131.8 406.87,-135.3 406.87,-128.3"/>
</g>
<!-- PullRequestService  -->
<g id="node3" class="node">
<title>PullRequestService </title>
<polygon fill="#fb8072" stroke="black" points="397.65,-214.8 268.35,-214.8 268.35,-178.8 397.65,-178.8 397.65,-214.8"/>
<text text-anchor="middle" x="333" y="-192.6" font-family="Times,serif" font-size="14.00">PullRequestService </text>
</g>
<!-- PullRequestModule&#45;&gt;PullRequestService  -->
<g id="edge2" class="edge">
<title>PullRequestModule&#45;&gt;PullRequestService </title>
<path fill="none" stroke="black" stroke-dasharray="5,2" d="M333,-149.91C333,-149.91 333,-168.79 333,-168.79"/>
<polygon fill="black" stroke="black" points="329.5,-168.79 333,-178.79 336.5,-168.79 329.5,-168.79"/>
</g>
<!-- PullRequestInsightsService -->
<g id="node4" class="node">
<title>PullRequestInsightsService</title>
<ellipse fill="#fdb462" stroke="black" cx="333" cy="-66.8" rx="117.01" ry="18"/>
<text text-anchor="middle" x="333" y="-62.6" font-family="Times,serif" font-size="14.00">PullRequestInsightsService</text>
</g>
<!-- PullRequestInsightsService&#45;&gt;PullRequestModule -->
<g id="edge3" class="edge">
<title>PullRequestInsightsService&#45;&gt;PullRequestModule</title>
<path fill="none" stroke="black" d="M333,-84.91C333,-84.91 333,-103.79 333,-103.79"/>
<polygon fill="black" stroke="black" points="329.5,-103.79 333,-113.79 336.5,-103.79 329.5,-103.79"/>
</g>
<!-- PullRequestService -->
<g id="node5" class="node">
<title>PullRequestService</title>
<ellipse fill="#fdb462" stroke="black" cx="111" cy="-66.8" rx="86.84" ry="18"/>
<text text-anchor="middle" x="111" y="-62.6" font-family="Times,serif" font-size="14.00">PullRequestService</text>
</g>
<!-- PullRequestService&#45;&gt;PullRequestModule -->
<g id="edge4" class="edge">
<title>PullRequestService&#45;&gt;PullRequestModule</title>
<path fill="none" stroke="black" d="M111,-84.91C111,-104.14 111,-131.8 111,-131.8 111,-131.8 259.38,-131.8 259.38,-131.8"/>
<polygon fill="black" stroke="black" points="259.38,-135.3 269.38,-131.8 259.38,-128.3 259.38,-135.3"/>
</g>
</g>
</svg>
