<?xml version="1.0" encoding="UTF-8" standalone="no"?>
<!DOCTYPE svg PUBLIC "-//W3C//DTD SVG 1.1//EN"
 "http://www.w3.org/Graphics/SVG/1.1/DTD/svg11.dtd">
<!-- Generated by graphviz version 3.0.0 (20220226.1711)
 -->
<!-- Title: dependencies Pages: 1 -->
<svg width="1754pt" height="174pt"
 viewBox="0.00 0.00 1754.00 173.80" xmlns="http://www.w3.org/2000/svg" xmlns:xlink="http://www.w3.org/1999/xlink">
<g id="graph0" class="graph" transform="scale(1 1) rotate(0) translate(4 169.8)">
<title>dependencies</title>
<polygon fill="white" stroke="transparent" points="-4,4 -4,-169.8 1750,-169.8 1750,4 -4,4"/>
<text text-anchor="middle" x="873" y="-8.2" font-family="sans-serif" font-size="14.00">dependencies</text>
<g id="clust1" class="cluster">
<title>cluster_PullRequestModule</title>
<polygon fill="none" stroke="black" stroke-dasharray="1,5" points="8,-32.8 8,-157.8 1738,-157.8 1738,-32.8 8,-32.8"/>
</g>
<g id="clust6" class="cluster">
<title>cluster_PullRequestModule_providers</title>
<polygon fill="none" stroke="black" points="417,-40.8 417,-92.8 1730,-92.8 1730,-40.8 417,-40.8"/>
</g>
<g id="clust3" class="cluster">
<title>cluster_PullRequestModule_imports</title>
<polygon fill="none" stroke="black" points="16,-40.8 16,-92.8 409,-92.8 409,-40.8 16,-40.8"/>
</g>
<!-- OpenAiModule -->
<g id="node1" class="node">
<title>OpenAiModule</title>
<polygon fill="#8dd3c7" stroke="black" points="400.88,-84.8 397.88,-88.8 376.88,-88.8 373.88,-84.8 297.12,-84.8 297.12,-48.8 400.88,-48.8 400.88,-84.8"/>
<text text-anchor="middle" x="349" y="-62.6" font-family="Times,serif" font-size="14.00">OpenAiModule</text>
</g>
<!-- PullRequestModule -->
<g id="node4" class="node">
<title>PullRequestModule</title>
<polygon fill="#8dd3c7" stroke="black" points="738.72,-149.8 735.72,-153.8 714.72,-153.8 711.72,-149.8 611.28,-149.8 611.28,-113.8 738.72,-113.8 738.72,-149.8"/>
<text text-anchor="middle" x="675" y="-127.6" font-family="Times,serif" font-size="14.00">PullRequestModule</text>
</g>
<!-- OpenAiModule&#45;&gt;PullRequestModule -->
<g id="edge1" class="edge">
<title>OpenAiModule&#45;&gt;PullRequestModule</title>
<path fill="none" stroke="black" d="M349,-84.83C349,-101.2 349,-122.8 349,-122.8 349,-122.8 601.37,-122.8 601.37,-122.8"/>
<polygon fill="black" stroke="black" points="601.37,-126.3 611.37,-122.8 601.37,-119.3 601.37,-126.3"/>
</g>
<!-- RepoFilterModule -->
<g id="node2" class="node">
<title>RepoFilterModule</title>
<polygon fill="#8dd3c7" stroke="black" points="278.94,-84.8 275.94,-88.8 254.94,-88.8 251.94,-84.8 159.06,-84.8 159.06,-48.8 278.94,-48.8 278.94,-84.8"/>
<text text-anchor="middle" x="219" y="-62.6" font-family="Times,serif" font-size="14.00">RepoFilterModule</text>
</g>
<!-- RepoFilterModule&#45;&gt;PullRequestModule -->
<g id="edge2" class="edge">
<title>RepoFilterModule&#45;&gt;PullRequestModule</title>
<path fill="none" stroke="black" d="M219,-84.91C219,-104.14 219,-131.8 219,-131.8 219,-131.8 601.12,-131.8 601.12,-131.8"/>
<polygon fill="black" stroke="black" points="601.12,-135.3 611.12,-131.8 601.11,-128.3 601.12,-135.3"/>
</g>
<!-- TimescaleModule -->
<g id="node3" class="node">
<title>TimescaleModule</title>
<polygon fill="#8dd3c7" stroke="black" points="141.58,-84.8 138.58,-88.8 117.58,-88.8 114.58,-84.8 24.42,-84.8 24.42,-48.8 141.58,-48.8 141.58,-84.8"/>
<text text-anchor="middle" x="83" y="-62.6" font-family="Times,serif" font-size="14.00">TimescaleModule</text>
</g>
<!-- TimescaleModule&#45;&gt;PullRequestModule -->
<g id="edge3" class="edge">
<title>TimescaleModule&#45;&gt;PullRequestModule</title>
<path fill="none" stroke="black" d="M83,-85.09C83,-107.01 83,-140.8 83,-140.8 83,-140.8 601.36,-140.8 601.36,-140.8"/>
<polygon fill="black" stroke="black" points="601.36,-144.3 611.36,-140.8 601.36,-137.3 601.36,-144.3"/>
</g>
<!-- CodeExplanationService -->
<g id="node5" class="node">
<title>CodeExplanationService</title>
<ellipse fill="#fdb462" stroke="black" cx="1615" cy="-66.8" rx="107.08" ry="18"/>
<text text-anchor="middle" x="1615" y="-62.6" font-family="Times,serif" font-size="14.00">CodeExplanationService</text>
</g>
<!-- CodeExplanationService&#45;&gt;PullRequestModule -->
<g id="edge4" class="edge">
<title>CodeExplanationService&#45;&gt;PullRequestModule</title>
<path fill="none" stroke="black" d="M1615,-85.09C1615,-107.01 1615,-140.8 1615,-140.8 1615,-140.8 748.87,-140.8 748.87,-140.8"/>
<polygon fill="black" stroke="black" points="748.87,-137.3 738.87,-140.8 748.87,-144.3 748.87,-137.3"/>
</g>
<!-- CodeRefactorSuggestionService -->
<g id="node6" class="node">
<title>CodeRefactorSuggestionService</title>
<ellipse fill="#fdb462" stroke="black" cx="1353" cy="-66.8" rx="136.59" ry="18"/>
<text text-anchor="middle" x="1353" y="-62.6" font-family="Times,serif" font-size="14.00">CodeRefactorSuggestionService</text>
</g>
<!-- CodeRefactorSuggestionService&#45;&gt;PullRequestModule -->
<g id="edge5" class="edge">
<title>CodeRefactorSuggestionService&#45;&gt;PullRequestModule</title>
<path fill="none" stroke="black" d="M1353,-84.91C1353,-104.14 1353,-131.8 1353,-131.8 1353,-131.8 748.78,-131.8 748.78,-131.8"/>
<polygon fill="black" stroke="black" points="748.78,-128.3 738.78,-131.8 748.78,-135.3 748.78,-128.3"/>
</g>
<!-- CodeTestSuggestionService -->
<g id="node7" class="node">
<title>CodeTestSuggestionService</title>
<ellipse fill="#fdb462" stroke="black" cx="1079" cy="-66.8" rx="119.85" ry="18"/>
<text text-anchor="middle" x="1079" y="-62.6" font-family="Times,serif" font-size="14.00">CodeTestSuggestionService</text>
</g>
<!-- CodeTestSuggestionService&#45;&gt;PullRequestModule -->
<g id="edge6" class="edge">
<title>CodeTestSuggestionService&#45;&gt;PullRequestModule</title>
<path fill="none" stroke="black" d="M1079,-84.83C1079,-101.2 1079,-122.8 1079,-122.8 1079,-122.8 749.02,-122.8 749.02,-122.8"/>
<polygon fill="black" stroke="black" points="749.02,-119.3 739.02,-122.8 749.01,-126.3 749.02,-119.3"/>
</g>
<!-- PullRequestDescriptionService -->
<g id="node8" class="node">
<title>PullRequestDescriptionService</title>
<ellipse fill="#fdb462" stroke="black" cx="809" cy="-66.8" rx="131.95" ry="18"/>
<text text-anchor="middle" x="809" y="-62.6" font-family="Times,serif" font-size="14.00">PullRequestDescriptionService</text>
</g>
<!-- PullRequestDescriptionService&#45;&gt;PullRequestModule -->
<g id="edge7" class="edge">
<title>PullRequestDescriptionService&#45;&gt;PullRequestModule</title>
<path fill="none" stroke="black" d="M707.94,-78.42C707.94,-78.42 707.94,-103.65 707.94,-103.65"/>
<polygon fill="black" stroke="black" points="704.44,-103.65 707.94,-113.65 711.44,-103.65 704.44,-103.65"/>
</g>
<!-- PullRequestInsightsService -->
<g id="node9" class="node">
<title>PullRequestInsightsService</title>
<ellipse fill="#fdb462" stroke="black" cx="542" cy="-66.8" rx="117.01" ry="18"/>
<text text-anchor="middle" x="542" y="-62.6" font-family="Times,serif" font-size="14.00">PullRequestInsightsService</text>
</g>
<!-- PullRequestInsightsService&#45;&gt;PullRequestModule -->
<g id="edge8" class="edge">
<title>PullRequestInsightsService&#45;&gt;PullRequestModule</title>
<path fill="none" stroke="black" d="M635.32,-77.83C635.32,-77.83 635.32,-103.58 635.32,-103.58"/>
<polygon fill="black" stroke="black" points="631.82,-103.58 635.32,-113.58 638.82,-103.58 631.82,-103.58"/>
</g>
</g>
</svg>
