<?xml version="1.0" encoding="UTF-8" standalone="no"?>
<!DOCTYPE svg PUBLIC "-//W3C//DTD SVG 1.1//EN"
 "http://www.w3.org/Graphics/SVG/1.1/DTD/svg11.dtd">
<!-- Generated by graphviz version 3.0.0 (20220226.1711)
 -->
<!-- Title: dependencies Pages: 1 -->
<svg width="626pt" height="247pt"
 viewBox="0.00 0.00 626.00 246.80" xmlns="http://www.w3.org/2000/svg" xmlns:xlink="http://www.w3.org/1999/xlink">
<g id="graph0" class="graph" transform="scale(1 1) rotate(0) translate(4 242.8)">
<title>dependencies</title>
<polygon fill="white" stroke="transparent" points="-4,4 -4,-242.8 622,-242.8 622,4 -4,4"/>
<text text-anchor="middle" x="309" y="-8.2" font-family="sans-serif" font-size="14.00">dependencies</text>
<g id="clust1" class="cluster">
<title>cluster_PullRequestModule</title>
<polygon fill="none" stroke="black" stroke-dasharray="1,5" points="8,-32.8 8,-230.8 610,-230.8 610,-32.8 8,-32.8"/>
</g>
<g id="clust6" class="cluster">
<title>cluster_PullRequestModule_providers</title>
<polygon fill="none" stroke="black" points="160,-40.8 160,-92.8 602,-92.8 602,-40.8 160,-40.8"/>
</g>
<g id="clust4" class="cluster">
<title>cluster_PullRequestModule_exports</title>
<polygon fill="none" stroke="black" points="182,-170.8 182,-222.8 328,-222.8 328,-170.8 182,-170.8"/>
</g>
<g id="clust3" class="cluster">
<title>cluster_PullRequestModule_imports</title>
<polygon fill="none" stroke="black" points="16,-40.8 16,-92.8 152,-92.8 152,-40.8 16,-40.8"/>
</g>
<!-- RepoFilterModule -->
<g id="node1" class="node">
<title>RepoFilterModule</title>
<polygon fill="#8dd3c7" stroke="black" points="143.94,-84.8 140.94,-88.8 119.94,-88.8 116.94,-84.8 24.06,-84.8 24.06,-48.8 143.94,-48.8 143.94,-84.8"/>
<text text-anchor="middle" x="84" y="-62.6" font-family="Times,serif" font-size="14.00">RepoFilterModule</text>
</g>
<!-- PullRequestModule -->
<g id="node2" class="node">
<title>PullRequestModule</title>
<polygon fill="#8dd3c7" stroke="black" points="318.72,-149.8 315.72,-153.8 294.72,-153.8 291.72,-149.8 191.28,-149.8 191.28,-113.8 318.72,-113.8 318.72,-149.8"/>
<text text-anchor="middle" x="255" y="-127.6" font-family="Times,serif" font-size="14.00">PullRequestModule</text>
</g>
<!-- RepoFilterModule&#45;&gt;PullRequestModule -->
<g id="edge1" class="edge">
<title>RepoFilterModule&#45;&gt;PullRequestModule</title>
<path fill="none" stroke="black" d="M84,-84.91C84,-104.14 84,-131.8 84,-131.8 84,-131.8 181.33,-131.8 181.33,-131.8"/>
<polygon fill="black" stroke="black" points="181.33,-135.3 191.33,-131.8 181.33,-128.3 181.33,-135.3"/>
</g>
<!-- PullRequestService  -->
<g id="node3" class="node">
<title>PullRequestService </title>
<polygon fill="#fb8072" stroke="black" points="319.65,-214.8 190.35,-214.8 190.35,-178.8 319.65,-178.8 319.65,-214.8"/>
<text text-anchor="middle" x="255" y="-192.6" font-family="Times,serif" font-size="14.00">PullRequestService </text>
</g>
<!-- PullRequestModule&#45;&gt;PullRequestService  -->
<g id="edge2" class="edge">
<title>PullRequestModule&#45;&gt;PullRequestService </title>
<path fill="none" stroke="black" stroke-dasharray="5,2" d="M255,-149.91C255,-149.91 255,-168.79 255,-168.79"/>
<polygon fill="black" stroke="black" points="251.5,-168.79 255,-178.79 258.5,-168.79 251.5,-168.79"/>
</g>
<!-- PullRequestInsightsService -->
<g id="node4" class="node">
<title>PullRequestInsightsService</title>
<ellipse fill="#fdb462" stroke="black" cx="477" cy="-66.8" rx="117.01" ry="18"/>
<text text-anchor="middle" x="477" y="-62.6" font-family="Times,serif" font-size="14.00">PullRequestInsightsService</text>
</g>
<!-- PullRequestInsightsService&#45;&gt;PullRequestModule -->
<g id="edge3" class="edge">
<title>PullRequestInsightsService&#45;&gt;PullRequestModule</title>
<path fill="none" stroke="black" d="M477,-84.91C477,-104.14 477,-131.8 477,-131.8 477,-131.8 328.62,-131.8 328.62,-131.8"/>
<polygon fill="black" stroke="black" points="328.62,-128.3 318.62,-131.8 328.62,-135.3 328.62,-128.3"/>
</g>
<!-- PullRequestService -->
<g id="node5" class="node">
<title>PullRequestService</title>
<ellipse fill="#fdb462" stroke="black" cx="255" cy="-66.8" rx="86.84" ry="18"/>
<text text-anchor="middle" x="255" y="-62.6" font-family="Times,serif" font-size="14.00">PullRequestService</text>
</g>
<!-- PullRequestService&#45;&gt;PullRequestModule -->
<g id="edge4" class="edge">
<title>PullRequestService&#45;&gt;PullRequestModule</title>
<path fill="none" stroke="black" d="M255,-84.91C255,-84.91 255,-103.79 255,-103.79"/>
<polygon fill="black" stroke="black" points="251.5,-103.79 255,-113.79 258.5,-103.79 251.5,-103.79"/>
</g>
</g>
</svg>
