<?xml version="1.0" encoding="UTF-8" standalone="no"?>
<!DOCTYPE svg PUBLIC "-//W3C//DTD SVG 1.1//EN"
 "http://www.w3.org/Graphics/SVG/1.1/DTD/svg11.dtd">
<!-- Generated by graphviz version 3.0.0 (20220226.1711)
 -->
<!-- Title: dependencies Pages: 1 -->
<svg width="908pt" height="247pt"
 viewBox="0.00 0.00 908.00 246.80" xmlns="http://www.w3.org/2000/svg" xmlns:xlink="http://www.w3.org/1999/xlink">
<g id="graph0" class="graph" transform="scale(1 1) rotate(0) translate(4 242.8)">
<title>dependencies</title>
<polygon fill="white" stroke="transparent" points="-4,4 -4,-242.8 904,-242.8 904,4 -4,4"/>
<text text-anchor="middle" x="450" y="-8.2" font-family="sans-serif" font-size="14.00">dependencies</text>
<g id="clust1" class="cluster">
<title>cluster_PullRequestModule</title>
<polygon fill="none" stroke="black" stroke-dasharray="1,5" points="8,-32.8 8,-230.8 892,-230.8 892,-32.8 8,-32.8"/>
</g>
<g id="clust6" class="cluster">
<title>cluster_PullRequestModule_providers</title>
<polygon fill="none" stroke="black" points="160,-40.8 160,-92.8 884,-92.8 884,-40.8 160,-40.8"/>
</g>
<g id="clust3" class="cluster">
<title>cluster_PullRequestModule_imports</title>
<polygon fill="none" stroke="black" points="16,-40.8 16,-92.8 152,-92.8 152,-40.8 16,-40.8"/>
</g>
<g id="clust4" class="cluster">
<title>cluster_PullRequestModule_exports</title>
<polygon fill="none" stroke="black" points="293,-170.8 293,-222.8 439,-222.8 439,-170.8 293,-170.8"/>
</g>
<!-- RepoFilterModule -->
<g id="node1" class="node">
<title>RepoFilterModule</title>
<polygon fill="#8dd3c7" stroke="black" points="143.94,-84.8 140.94,-88.8 119.94,-88.8 116.94,-84.8 24.06,-84.8 24.06,-48.8 143.94,-48.8 143.94,-84.8"/>
<text text-anchor="middle" x="84" y="-62.6" font-family="Times,serif" font-size="14.00">RepoFilterModule</text>
</g>
<!-- PullRequestModule -->
<g id="node2" class="node">
<title>PullRequestModule</title>
<polygon fill="#8dd3c7" stroke="black" points="429.72,-149.8 426.72,-153.8 405.72,-153.8 402.72,-149.8 302.28,-149.8 302.28,-113.8 429.72,-113.8 429.72,-149.8"/>
<text text-anchor="middle" x="366" y="-127.6" font-family="Times,serif" font-size="14.00">PullRequestModule</text>
</g>
<!-- RepoFilterModule&#45;&gt;PullRequestModule -->
<g id="edge1" class="edge">
<title>RepoFilterModule&#45;&gt;PullRequestModule</title>
<path fill="none" stroke="black" d="M84,-84.91C84,-104.14 84,-131.8 84,-131.8 84,-131.8 292.36,-131.8 292.36,-131.8"/>
<polygon fill="black" stroke="black" points="292.36,-135.3 302.36,-131.8 292.36,-128.3 292.36,-135.3"/>
</g>
<!-- PullRequestService  -->
<g id="node3" class="node">
<title>PullRequestService </title>
<polygon fill="#fb8072" stroke="black" points="430.65,-214.8 301.35,-214.8 301.35,-178.8 430.65,-178.8 430.65,-214.8"/>
<text text-anchor="middle" x="366" y="-192.6" font-family="Times,serif" font-size="14.00">PullRequestService </text>
</g>
<!-- PullRequestModule&#45;&gt;PullRequestService  -->
<g id="edge2" class="edge">
<title>PullRequestModule&#45;&gt;PullRequestService </title>
<path fill="none" stroke="black" stroke-dasharray="5,2" d="M366,-149.91C366,-149.91 366,-168.79 366,-168.79"/>
<polygon fill="black" stroke="black" points="362.5,-168.79 366,-178.79 369.5,-168.79 362.5,-168.79"/>
</g>
<!-- PullRequestDescriptionService -->
<g id="node4" class="node">
<title>PullRequestDescriptionService</title>
<ellipse fill="#fdb462" stroke="black" cx="744" cy="-66.8" rx="131.95" ry="18"/>
<text text-anchor="middle" x="744" y="-62.6" font-family="Times,serif" font-size="14.00">PullRequestDescriptionService</text>
</g>
<!-- PullRequestDescriptionService&#45;&gt;PullRequestModule -->
<g id="edge3" class="edge">
<title>PullRequestDescriptionService&#45;&gt;PullRequestModule</title>
<path fill="none" stroke="black" d="M744,-84.91C744,-104.14 744,-131.8 744,-131.8 744,-131.8 439.7,-131.8 439.7,-131.8"/>
<polygon fill="black" stroke="black" points="439.7,-128.3 429.7,-131.8 439.7,-135.3 439.7,-128.3"/>
</g>
<!-- PullRequestInsightsService -->
<g id="node5" class="node">
<title>PullRequestInsightsService</title>
<ellipse fill="#fdb462" stroke="black" cx="477" cy="-66.8" rx="117.01" ry="18"/>
<text text-anchor="middle" x="477" y="-62.6" font-family="Times,serif" font-size="14.00">PullRequestInsightsService</text>
</g>
<!-- PullRequestInsightsService&#45;&gt;PullRequestModule -->
<g id="edge4" class="edge">
<title>PullRequestInsightsService&#45;&gt;PullRequestModule</title>
<path fill="none" stroke="black" d="M394.68,-79.64C394.68,-79.64 394.68,-103.32 394.68,-103.32"/>
<polygon fill="black" stroke="black" points="391.18,-103.32 394.68,-113.32 398.18,-103.32 391.18,-103.32"/>
</g>
<!-- PullRequestService -->
<g id="node6" class="node">
<title>PullRequestService</title>
<ellipse fill="#fdb462" stroke="black" cx="255" cy="-66.8" rx="86.84" ry="18"/>
<text text-anchor="middle" x="255" y="-62.6" font-family="Times,serif" font-size="14.00">PullRequestService</text>
</g>
<!-- PullRequestService&#45;&gt;PullRequestModule -->
<g id="edge5" class="edge">
<title>PullRequestService&#45;&gt;PullRequestModule</title>
<path fill="none" stroke="black" d="M322.03,-78.42C322.03,-78.42 322.03,-103.65 322.03,-103.65"/>
<polygon fill="black" stroke="black" points="318.53,-103.65 322.03,-113.65 325.53,-103.65 318.53,-103.65"/>
</g>
</g>
</svg>
