<?xml version="1.0" encoding="UTF-8" standalone="no"?>
<!DOCTYPE svg PUBLIC "-//W3C//DTD SVG 1.1//EN"
 "http://www.w3.org/Graphics/SVG/1.1/DTD/svg11.dtd">
<!-- Generated by graphviz version 3.0.0 (20220226.1711)
 -->
<!-- Title: dependencies Pages: 1 -->
<svg width="1619pt" height="174pt"
 viewBox="0.00 0.00 1619.00 173.80" xmlns="http://www.w3.org/2000/svg" xmlns:xlink="http://www.w3.org/1999/xlink">
<g id="graph0" class="graph" transform="scale(1 1) rotate(0) translate(4 169.8)">
<title>dependencies</title>
<polygon fill="white" stroke="transparent" points="-4,4 -4,-169.8 1615,-169.8 1615,4 -4,4"/>
<text text-anchor="middle" x="805.5" y="-8.2" font-family="sans-serif" font-size="14.00">dependencies</text>
<g id="clust1" class="cluster">
<title>cluster_PullRequestModule</title>
<polygon fill="none" stroke="black" stroke-dasharray="1,5" points="8,-32.8 8,-157.8 1603,-157.8 1603,-32.8 8,-32.8"/>
</g>
<g id="clust6" class="cluster">
<title>cluster_PullRequestModule_providers</title>
<polygon fill="none" stroke="black" points="282,-40.8 282,-92.8 1595,-92.8 1595,-40.8 282,-40.8"/>
</g>
<g id="clust3" class="cluster">
<title>cluster_PullRequestModule_imports</title>
<polygon fill="none" stroke="black" points="16,-40.8 16,-92.8 274,-92.8 274,-40.8 16,-40.8"/>
</g>
<!-- OpenAiModule -->
<g id="node1" class="node">
<title>OpenAiModule</title>
<polygon fill="#8dd3c7" stroke="black" points="265.88,-84.8 262.88,-88.8 241.88,-88.8 238.88,-84.8 162.12,-84.8 162.12,-48.8 265.88,-48.8 265.88,-84.8"/>
<text text-anchor="middle" x="214" y="-62.6" font-family="Times,serif" font-size="14.00">OpenAiModule</text>
</g>
<!-- PullRequestModule -->
<g id="node3" class="node">
<title>PullRequestModule</title>
<polygon fill="#8dd3c7" stroke="black" points="737.72,-149.8 734.72,-153.8 713.72,-153.8 710.72,-149.8 610.28,-149.8 610.28,-113.8 737.72,-113.8 737.72,-149.8"/>
<text text-anchor="middle" x="674" y="-127.6" font-family="Times,serif" font-size="14.00">PullRequestModule</text>
</g>
<!-- OpenAiModule&#45;&gt;PullRequestModule -->
<g id="edge1" class="edge">
<title>OpenAiModule&#45;&gt;PullRequestModule</title>
<path fill="none" stroke="black" d="M214,-84.91C214,-104.14 214,-131.8 214,-131.8 214,-131.8 600.04,-131.8 600.04,-131.8"/>
<polygon fill="black" stroke="black" points="600.04,-135.3 610.04,-131.8 600.04,-128.3 600.04,-135.3"/>
</g>
<!-- RepoFilterModule -->
<g id="node2" class="node">
<title>RepoFilterModule</title>
<polygon fill="#8dd3c7" stroke="black" points="143.94,-84.8 140.94,-88.8 119.94,-88.8 116.94,-84.8 24.06,-84.8 24.06,-48.8 143.94,-48.8 143.94,-84.8"/>
<text text-anchor="middle" x="84" y="-62.6" font-family="Times,serif" font-size="14.00">RepoFilterModule</text>
</g>
<!-- RepoFilterModule&#45;&gt;PullRequestModule -->
<g id="edge2" class="edge">
<title>RepoFilterModule&#45;&gt;PullRequestModule</title>
<path fill="none" stroke="black" d="M84,-85.09C84,-107.01 84,-140.8 84,-140.8 84,-140.8 600.3,-140.8 600.3,-140.8"/>
<polygon fill="black" stroke="black" points="600.3,-144.3 610.3,-140.8 600.3,-137.3 600.3,-144.3"/>
</g>
<!-- CodeExplanationService -->
<g id="node4" class="node">
<title>CodeExplanationService</title>
<ellipse fill="#fdb462" stroke="black" cx="1480" cy="-66.8" rx="107.08" ry="18"/>
<text text-anchor="middle" x="1480" y="-62.6" font-family="Times,serif" font-size="14.00">CodeExplanationService</text>
</g>
<!-- CodeExplanationService&#45;&gt;PullRequestModule -->
<g id="edge3" class="edge">
<title>CodeExplanationService&#45;&gt;PullRequestModule</title>
<path fill="none" stroke="black" d="M1480,-85.09C1480,-107.01 1480,-140.8 1480,-140.8 1480,-140.8 747.92,-140.8 747.92,-140.8"/>
<polygon fill="black" stroke="black" points="747.92,-137.3 737.92,-140.8 747.92,-144.3 747.92,-137.3"/>
</g>
<!-- CodeRefactorSuggestionService -->
<g id="node5" class="node">
<title>CodeRefactorSuggestionService</title>
<ellipse fill="#fdb462" stroke="black" cx="1218" cy="-66.8" rx="136.59" ry="18"/>
<text text-anchor="middle" x="1218" y="-62.6" font-family="Times,serif" font-size="14.00">CodeRefactorSuggestionService</text>
</g>
<!-- CodeRefactorSuggestionService&#45;&gt;PullRequestModule -->
<g id="edge4" class="edge">
<title>CodeRefactorSuggestionService&#45;&gt;PullRequestModule</title>
<path fill="none" stroke="black" d="M1218,-84.91C1218,-104.14 1218,-131.8 1218,-131.8 1218,-131.8 747.74,-131.8 747.74,-131.8"/>
<polygon fill="black" stroke="black" points="747.74,-128.3 737.74,-131.8 747.74,-135.3 747.74,-128.3"/>
</g>
<!-- CodeTestSuggestionService -->
<g id="node6" class="node">
<title>CodeTestSuggestionService</title>
<ellipse fill="#fdb462" stroke="black" cx="944" cy="-66.8" rx="119.85" ry="18"/>
<text text-anchor="middle" x="944" y="-62.6" font-family="Times,serif" font-size="14.00">CodeTestSuggestionService</text>
</g>
<!-- CodeTestSuggestionService&#45;&gt;PullRequestModule -->
<g id="edge5" class="edge">
<title>CodeTestSuggestionService&#45;&gt;PullRequestModule</title>
<path fill="none" stroke="black" d="M944,-84.83C944,-101.2 944,-122.8 944,-122.8 944,-122.8 747.64,-122.8 747.64,-122.8"/>
<polygon fill="black" stroke="black" points="747.64,-119.3 737.64,-122.8 747.64,-126.3 747.64,-119.3"/>
</g>
<!-- PullRequestDescriptionService -->
<g id="node7" class="node">
<title>PullRequestDescriptionService</title>
<ellipse fill="#fdb462" stroke="black" cx="674" cy="-66.8" rx="131.95" ry="18"/>
<text text-anchor="middle" x="674" y="-62.6" font-family="Times,serif" font-size="14.00">PullRequestDescriptionService</text>
</g>
<!-- PullRequestDescriptionService&#45;&gt;PullRequestModule -->
<g id="edge6" class="edge">
<title>PullRequestDescriptionService&#45;&gt;PullRequestModule</title>
<path fill="none" stroke="black" d="M674,-84.91C674,-84.91 674,-103.79 674,-103.79"/>
<polygon fill="black" stroke="black" points="670.5,-103.79 674,-113.79 677.5,-103.79 670.5,-103.79"/>
</g>
<!-- PullRequestInsightsService -->
<g id="node8" class="node">
<title>PullRequestInsightsService</title>
<ellipse fill="#fdb462" stroke="black" cx="407" cy="-66.8" rx="117.01" ry="18"/>
<text text-anchor="middle" x="407" y="-62.6" font-family="Times,serif" font-size="14.00">PullRequestInsightsService</text>
</g>
<!-- PullRequestInsightsService&#45;&gt;PullRequestModule -->
<g id="edge7" class="edge">
<title>PullRequestInsightsService&#45;&gt;PullRequestModule</title>
<path fill="none" stroke="black" d="M407,-84.83C407,-101.2 407,-122.8 407,-122.8 407,-122.8 600.39,-122.8 600.39,-122.8"/>
<polygon fill="black" stroke="black" points="600.39,-126.3 610.39,-122.8 600.39,-119.3 600.39,-126.3"/>
</g>
</g>
</svg>
