<?xml version="1.0" encoding="UTF-8" standalone="no"?>
<!DOCTYPE svg PUBLIC "-//W3C//DTD SVG 1.1//EN"
 "http://www.w3.org/Graphics/SVG/1.1/DTD/svg11.dtd">
<!-- Generated by graphviz version 3.0.0 (20220226.1711)
 -->
<!-- Title: dependencies Pages: 1 -->
<svg width="1754pt" height="174pt"
 viewBox="0.00 0.00 1754.00 173.80" xmlns="http://www.w3.org/2000/svg" xmlns:xlink="http://www.w3.org/1999/xlink">
<g id="graph0" class="graph" transform="scale(1 1) rotate(0) translate(4 169.8)">
<title>dependencies</title>
<polygon fill="white" stroke="transparent" points="-4,4 -4,-169.8 1750,-169.8 1750,4 -4,4"/>
<text text-anchor="middle" x="873" y="-8.2" font-family="sans-serif" font-size="14.00">dependencies</text>
<g id="clust1" class="cluster">
<title>cluster_PullRequestModule</title>
<polygon fill="none" stroke="black" stroke-dasharray="1,5" points="8,-32.8 8,-157.8 1738,-157.8 1738,-32.8 8,-32.8"/>
</g>
<g id="clust3" class="cluster">
<title>cluster_PullRequestModule_imports</title>
<polygon fill="none" stroke="black" points="1337,-40.8 1337,-92.8 1730,-92.8 1730,-40.8 1337,-40.8"/>
</g>
<g id="clust6" class="cluster">
<title>cluster_PullRequestModule_providers</title>
<polygon fill="none" stroke="black" points="16,-40.8 16,-92.8 1329,-92.8 1329,-40.8 16,-40.8"/>
</g>
<!-- OpenAiModule -->
<g id="node1" class="node">
<title>OpenAiModule</title>
<polygon fill="#8dd3c7" stroke="black" points="1721.88,-84.8 1718.88,-88.8 1697.88,-88.8 1694.88,-84.8 1618.12,-84.8 1618.12,-48.8 1721.88,-48.8 1721.88,-84.8"/>
<text text-anchor="middle" x="1670" y="-62.6" font-family="Times,serif" font-size="14.00">OpenAiModule</text>
</g>
<!-- PullRequestModule -->
<g id="node4" class="node">
<title>PullRequestModule</title>
<polygon fill="#8dd3c7" stroke="black" points="1146.72,-149.8 1143.72,-153.8 1122.72,-153.8 1119.72,-149.8 1019.28,-149.8 1019.28,-113.8 1146.72,-113.8 1146.72,-149.8"/>
<text text-anchor="middle" x="1083" y="-127.6" font-family="Times,serif" font-size="14.00">PullRequestModule</text>
</g>
<!-- OpenAiModule&#45;&gt;PullRequestModule -->
<g id="edge1" class="edge">
<title>OpenAiModule&#45;&gt;PullRequestModule</title>
<path fill="none" stroke="black" d="M1670,-85.09C1670,-107.01 1670,-140.8 1670,-140.8 1670,-140.8 1156.66,-140.8 1156.66,-140.8"/>
<polygon fill="black" stroke="black" points="1156.66,-137.3 1146.66,-140.8 1156.66,-144.3 1156.66,-137.3"/>
</g>
<!-- RepoFilterModule -->
<g id="node2" class="node">
<title>RepoFilterModule</title>
<polygon fill="#8dd3c7" stroke="black" points="1599.94,-84.8 1596.94,-88.8 1575.94,-88.8 1572.94,-84.8 1480.06,-84.8 1480.06,-48.8 1599.94,-48.8 1599.94,-84.8"/>
<text text-anchor="middle" x="1540" y="-62.6" font-family="Times,serif" font-size="14.00">RepoFilterModule</text>
</g>
<!-- RepoFilterModule&#45;&gt;PullRequestModule -->
<g id="edge2" class="edge">
<title>RepoFilterModule&#45;&gt;PullRequestModule</title>
<path fill="none" stroke="black" d="M1540,-84.91C1540,-104.14 1540,-131.8 1540,-131.8 1540,-131.8 1157.03,-131.8 1157.03,-131.8"/>
<polygon fill="black" stroke="black" points="1157.03,-128.3 1147.03,-131.8 1157.03,-135.3 1157.03,-128.3"/>
</g>
<!-- TimescaleModule -->
<g id="node3" class="node">
<title>TimescaleModule</title>
<polygon fill="#8dd3c7" stroke="black" points="1462.58,-84.8 1459.58,-88.8 1438.58,-88.8 1435.58,-84.8 1345.42,-84.8 1345.42,-48.8 1462.58,-48.8 1462.58,-84.8"/>
<text text-anchor="middle" x="1404" y="-62.6" font-family="Times,serif" font-size="14.00">TimescaleModule</text>
</g>
<!-- TimescaleModule&#45;&gt;PullRequestModule -->
<g id="edge3" class="edge">
<title>TimescaleModule&#45;&gt;PullRequestModule</title>
<path fill="none" stroke="black" d="M1404,-84.83C1404,-101.2 1404,-122.8 1404,-122.8 1404,-122.8 1156.8,-122.8 1156.8,-122.8"/>
<polygon fill="black" stroke="black" points="1156.8,-119.3 1146.8,-122.8 1156.8,-126.3 1156.8,-119.3"/>
</g>
<!-- CodeExplanationService -->
<g id="node5" class="node">
<title>CodeExplanationService</title>
<ellipse fill="#fdb462" stroke="black" cx="1214" cy="-66.8" rx="107.08" ry="18"/>
<text text-anchor="middle" x="1214" y="-62.6" font-family="Times,serif" font-size="14.00">CodeExplanationService</text>
</g>
<!-- CodeExplanationService&#45;&gt;PullRequestModule -->
<g id="edge4" class="edge">
<title>CodeExplanationService&#45;&gt;PullRequestModule</title>
<path fill="none" stroke="black" d="M1126.79,-77.24C1126.79,-77.24 1126.79,-103.77 1126.79,-103.77"/>
<polygon fill="black" stroke="black" points="1123.29,-103.77 1126.79,-113.77 1130.29,-103.77 1123.29,-103.77"/>
</g>
<!-- CodeRefactorSuggestionService -->
<g id="node6" class="node">
<title>CodeRefactorSuggestionService</title>
<ellipse fill="#fdb462" stroke="black" cx="952" cy="-66.8" rx="136.59" ry="18"/>
<text text-anchor="middle" x="952" y="-62.6" font-family="Times,serif" font-size="14.00">CodeRefactorSuggestionService</text>
</g>
<!-- CodeRefactorSuggestionService&#45;&gt;PullRequestModule -->
<g id="edge5" class="edge">
<title>CodeRefactorSuggestionService&#45;&gt;PullRequestModule</title>
<path fill="none" stroke="black" d="M1053.97,-79.03C1053.97,-79.03 1053.97,-103.48 1053.97,-103.48"/>
<polygon fill="black" stroke="black" points="1050.47,-103.48 1053.97,-113.48 1057.47,-103.48 1050.47,-103.48"/>
</g>
<!-- CodeTestSuggestionService -->
<g id="node7" class="node">
<title>CodeTestSuggestionService</title>
<ellipse fill="#fdb462" stroke="black" cx="678" cy="-66.8" rx="119.85" ry="18"/>
<text text-anchor="middle" x="678" y="-62.6" font-family="Times,serif" font-size="14.00">CodeTestSuggestionService</text>
</g>
<!-- CodeTestSuggestionService&#45;&gt;PullRequestModule -->
<g id="edge6" class="edge">
<title>CodeTestSuggestionService&#45;&gt;PullRequestModule</title>
<path fill="none" stroke="black" d="M678,-84.83C678,-101.2 678,-122.8 678,-122.8 678,-122.8 1009.27,-122.8 1009.27,-122.8"/>
<polygon fill="black" stroke="black" points="1009.27,-126.3 1019.27,-122.8 1009.27,-119.3 1009.27,-126.3"/>
</g>
<!-- PullRequestDescriptionService -->
<g id="node8" class="node">
<title>PullRequestDescriptionService</title>
<ellipse fill="#fdb462" stroke="black" cx="408" cy="-66.8" rx="131.95" ry="18"/>
<text text-anchor="middle" x="408" y="-62.6" font-family="Times,serif" font-size="14.00">PullRequestDescriptionService</text>
</g>
<!-- PullRequestDescriptionService&#45;&gt;PullRequestModule -->
<g id="edge7" class="edge">
<title>PullRequestDescriptionService&#45;&gt;PullRequestModule</title>
<path fill="none" stroke="black" d="M408,-84.91C408,-104.14 408,-131.8 408,-131.8 408,-131.8 1009.19,-131.8 1009.19,-131.8"/>
<polygon fill="black" stroke="black" points="1009.19,-135.3 1019.19,-131.8 1009.19,-128.3 1009.19,-135.3"/>
</g>
<!-- PullRequestInsightsService -->
<g id="node9" class="node">
<title>PullRequestInsightsService</title>
<ellipse fill="#fdb462" stroke="black" cx="141" cy="-66.8" rx="117.01" ry="18"/>
<text text-anchor="middle" x="141" y="-62.6" font-family="Times,serif" font-size="14.00">PullRequestInsightsService</text>
</g>
<!-- PullRequestInsightsService&#45;&gt;PullRequestModule -->
<g id="edge8" class="edge">
<title>PullRequestInsightsService&#45;&gt;PullRequestModule</title>
<path fill="none" stroke="black" d="M141,-85.09C141,-107.01 141,-140.8 141,-140.8 141,-140.8 1009.36,-140.8 1009.36,-140.8"/>
<polygon fill="black" stroke="black" points="1009.36,-144.3 1019.36,-140.8 1009.36,-137.3 1009.36,-144.3"/>
</g>
</g>
</svg>
