<?xml version="1.0" encoding="UTF-8" standalone="no"?>
<!DOCTYPE svg PUBLIC "-//W3C//DTD SVG 1.1//EN"
 "http://www.w3.org/Graphics/SVG/1.1/DTD/svg11.dtd">
<!-- Generated by graphviz version 3.0.0 (20220226.1711)
 -->
<!-- Title: dependencies Pages: 1 -->
<svg width="372pt" height="247pt"
 viewBox="0.00 0.00 372.00 246.80" xmlns="http://www.w3.org/2000/svg" xmlns:xlink="http://www.w3.org/1999/xlink">
<g id="graph0" class="graph" transform="scale(1 1) rotate(0) translate(4 242.8)">
<title>dependencies</title>
<polygon fill="white" stroke="transparent" points="-4,4 -4,-242.8 368,-242.8 368,4 -4,4"/>
<text text-anchor="middle" x="182" y="-8.2" font-family="sans-serif" font-size="14.00">dependencies</text>
<g id="clust1" class="cluster">
<title>cluster_UserReposModule</title>
<polygon fill="none" stroke="black" stroke-dasharray="1,5" points="8,-32.8 8,-230.8 356,-230.8 356,-32.8 8,-32.8"/>
</g>
<g id="clust4" class="cluster">
<title>cluster_UserReposModule_exports</title>
<polygon fill="none" stroke="black" points="122,-170.8 122,-222.8 260,-222.8 260,-170.8 122,-170.8"/>
</g>
<g id="clust3" class="cluster">
<title>cluster_UserReposModule_imports</title>
<polygon fill="none" stroke="black" points="204,-40.8 204,-92.8 348,-92.8 348,-40.8 204,-40.8"/>
</g>
<g id="clust6" class="cluster">
<title>cluster_UserReposModule_providers</title>
<polygon fill="none" stroke="black" points="16,-40.8 16,-92.8 196,-92.8 196,-40.8 16,-40.8"/>
</g>
<!-- ApiServicesModule -->
<g id="node1" class="node">
<title>ApiServicesModule</title>
<polygon fill="#8dd3c7" stroke="black" points="339.98,-84.8 336.98,-88.8 315.98,-88.8 312.98,-84.8 212.02,-84.8 212.02,-48.8 339.98,-48.8 339.98,-84.8"/>
<text text-anchor="middle" x="276" y="-62.6" font-family="Times,serif" font-size="14.00">ApiServicesModule</text>
</g>
<!-- UserReposModule -->
<g id="node2" class="node">
<title>UserReposModule</title>
<polygon fill="#8dd3c7" stroke="black" points="251.49,-149.8 248.49,-153.8 227.49,-153.8 224.49,-149.8 130.51,-149.8 130.51,-113.8 251.49,-113.8 251.49,-149.8"/>
<text text-anchor="middle" x="191" y="-127.6" font-family="Times,serif" font-size="14.00">UserReposModule</text>
</g>
<!-- ApiServicesModule&#45;&gt;UserReposModule -->
<g id="edge1" class="edge">
<title>ApiServicesModule&#45;&gt;UserReposModule</title>
<path fill="none" stroke="black" d="M231.75,-84.91C231.75,-84.91 231.75,-103.79 231.75,-103.79"/>
<polygon fill="black" stroke="black" points="228.25,-103.79 231.75,-113.79 235.25,-103.79 228.25,-103.79"/>
</g>
<!-- UserReposService  -->
<g id="node3" class="node">
<title>UserReposService </title>
<polygon fill="#fb8072" stroke="black" points="252.41,-214.8 129.59,-214.8 129.59,-178.8 252.41,-178.8 252.41,-214.8"/>
<text text-anchor="middle" x="191" y="-192.6" font-family="Times,serif" font-size="14.00">UserReposService </text>
</g>
<!-- UserReposModule&#45;&gt;UserReposService  -->
<g id="edge2" class="edge">
<title>UserReposModule&#45;&gt;UserReposService </title>
<path fill="none" stroke="black" stroke-dasharray="5,2" d="M191,-149.91C191,-149.91 191,-168.79 191,-168.79"/>
<polygon fill="black" stroke="black" points="187.5,-168.79 191,-178.79 194.5,-168.79 187.5,-168.79"/>
</g>
<!-- UserReposService -->
<g id="node4" class="node">
<title>UserReposService</title>
<ellipse fill="#fdb462" stroke="black" cx="106" cy="-66.8" rx="82.24" ry="18"/>
<text text-anchor="middle" x="106" y="-62.6" font-family="Times,serif" font-size="14.00">UserReposService</text>
</g>
<!-- UserReposService&#45;&gt;UserReposModule -->
<g id="edge3" class="edge">
<title>UserReposService&#45;&gt;UserReposModule</title>
<path fill="none" stroke="black" d="M159.44,-80.58C159.44,-80.58 159.44,-103.35 159.44,-103.35"/>
<polygon fill="black" stroke="black" points="155.94,-103.35 159.44,-113.35 162.94,-103.35 155.94,-103.35"/>
</g>
</g>
</svg>
