<?xml version="1.0" encoding="UTF-8" standalone="no"?>
<!DOCTYPE svg PUBLIC "-//W3C//DTD SVG 1.1//EN"
 "http://www.w3.org/Graphics/SVG/1.1/DTD/svg11.dtd">
<!-- Generated by graphviz version 3.0.0 (20220226.1711)
 -->
<!-- Title: dependencies Pages: 1 -->
<svg width="168pt" height="247pt"
 viewBox="0.00 0.00 168.00 246.80" xmlns="http://www.w3.org/2000/svg" xmlns:xlink="http://www.w3.org/1999/xlink">
<g id="graph0" class="graph" transform="scale(1 1) rotate(0) translate(4 242.8)">
<title>dependencies</title>
<polygon fill="white" stroke="transparent" points="-4,4 -4,-242.8 164,-242.8 164,4 -4,4"/>
<text text-anchor="middle" x="80" y="-8.2" font-family="sans-serif" font-size="14.00">dependencies</text>
<g id="clust1" class="cluster">
<title>cluster_TierModule</title>
<polygon fill="none" stroke="black" stroke-dasharray="1,5" points="8,-32.8 8,-230.8 152,-230.8 152,-32.8 8,-32.8"/>
</g>
<g id="clust6" class="cluster">
<title>cluster_TierModule_providers</title>
<polygon fill="none" stroke="black" points="16,-40.8 16,-92.8 144,-92.8 144,-40.8 16,-40.8"/>
</g>
<g id="clust4" class="cluster">
<title>cluster_TierModule_exports</title>
<polygon fill="none" stroke="black" points="30,-170.8 30,-222.8 130,-222.8 130,-170.8 30,-170.8"/>
</g>
<!-- TierService  -->
<g id="node1" class="node">
<title>TierService </title>
<polygon fill="#fb8072" stroke="black" points="122.3,-214.8 37.7,-214.8 37.7,-178.8 122.3,-178.8 122.3,-214.8"/>
<text text-anchor="middle" x="80" y="-192.6" font-family="Times,serif" font-size="14.00">TierService </text>
</g>
<!-- TierModule -->
<g id="node2" class="node">
<title>TierModule</title>
<polygon fill="#8dd3c7" stroke="black" points="121.37,-149.8 118.37,-153.8 97.37,-153.8 94.37,-149.8 38.63,-149.8 38.63,-113.8 121.37,-113.8 121.37,-149.8"/>
<text text-anchor="middle" x="80" y="-127.6" font-family="Times,serif" font-size="14.00">TierModule</text>
</g>
<!-- TierModule&#45;&gt;TierService  -->
<g id="edge1" class="edge">
<title>TierModule&#45;&gt;TierService </title>
<path fill="none" stroke="black" stroke-dasharray="5,2" d="M80,-149.91C80,-149.91 80,-168.79 80,-168.79"/>
<polygon fill="black" stroke="black" points="76.5,-168.79 80,-178.79 83.5,-168.79 76.5,-168.79"/>
</g>
<!-- TierService -->
<g id="node3" class="node">
<title>TierService</title>
<ellipse fill="#fdb462" stroke="black" cx="80" cy="-66.8" rx="56.15" ry="18"/>
<text text-anchor="middle" x="80" y="-62.6" font-family="Times,serif" font-size="14.00">TierService</text>
</g>
<!-- TierService&#45;&gt;TierModule -->
<g id="edge2" class="edge">
<title>TierService&#45;&gt;TierModule</title>
<path fill="none" stroke="black" d="M80,-84.91C80,-84.91 80,-103.79 80,-103.79"/>
<polygon fill="black" stroke="black" points="76.5,-103.79 80,-113.79 83.5,-103.79 76.5,-103.79"/>
</g>
</g>
</svg>
