<?xml version="1.0" encoding="UTF-8" standalone="no"?>
<!DOCTYPE svg PUBLIC "-//W3C//DTD SVG 1.1//EN"
 "http://www.w3.org/Graphics/SVG/1.1/DTD/svg11.dtd">
<!-- Generated by graphviz version 3.0.0 (20220226.1711)
 -->
<!-- Title: dependencies Pages: 1 -->
<svg width="1825pt" height="247pt"
 viewBox="0.00 0.00 1825.00 246.80" xmlns="http://www.w3.org/2000/svg" xmlns:xlink="http://www.w3.org/1999/xlink">
<g id="graph0" class="graph" transform="scale(1 1) rotate(0) translate(4 242.8)">
<title>dependencies</title>
<polygon fill="white" stroke="transparent" points="-4,4 -4,-242.8 1821,-242.8 1821,4 -4,4"/>
<text text-anchor="middle" x="908.5" y="-8.2" font-family="sans-serif" font-size="14.00">dependencies</text>
<g id="clust1" class="cluster">
<title>cluster_UserModule</title>
<polygon fill="none" stroke="black" stroke-dasharray="1,5" points="8,-32.8 8,-230.8 1809,-230.8 1809,-32.8 8,-32.8"/>
</g>
<g id="clust3" class="cluster">
<title>cluster_UserModule_imports</title>
<polygon fill="none" stroke="black" points="1550,-40.8 1550,-92.8 1801,-92.8 1801,-40.8 1550,-40.8"/>
</g>
<g id="clust4" class="cluster">
<title>cluster_UserModule_exports</title>
<polygon fill="none" stroke="black" points="656,-170.8 656,-222.8 1332,-222.8 1332,-170.8 656,-170.8"/>
</g>
<g id="clust6" class="cluster">
<title>cluster_UserModule_providers</title>
<polygon fill="none" stroke="black" points="16,-40.8 16,-92.8 1542,-92.8 1542,-40.8 16,-40.8"/>
</g>
<!-- PullRequestModule -->
<g id="node1" class="node">
<title>PullRequestModule</title>
<polygon fill="#8dd3c7" stroke="black" points="1792.72,-84.8 1789.72,-88.8 1768.72,-88.8 1765.72,-84.8 1665.28,-84.8 1665.28,-48.8 1792.72,-48.8 1792.72,-84.8"/>
<text text-anchor="middle" x="1729" y="-62.6" font-family="Times,serif" font-size="14.00">PullRequestModule</text>
</g>
<!-- UserModule -->
<g id="node3" class="node">
<title>UserModule</title>
<polygon fill="#8dd3c7" stroke="black" points="1040.99,-149.8 1037.99,-153.8 1016.99,-153.8 1013.99,-149.8 955.01,-149.8 955.01,-113.8 1040.99,-113.8 1040.99,-149.8"/>
<text text-anchor="middle" x="998" y="-127.6" font-family="Times,serif" font-size="14.00">UserModule</text>
</g>
<!-- PullRequestModule&#45;&gt;UserModule -->
<g id="edge1" class="edge">
<title>PullRequestModule&#45;&gt;UserModule</title>
<path fill="none" stroke="black" d="M1729,-85.02C1729,-105.17 1729,-134.8 1729,-134.8 1729,-134.8 1051,-134.8 1051,-134.8"/>
<polygon fill="black" stroke="black" points="1051,-131.3 1041,-134.8 1051,-138.3 1051,-131.3"/>
</g>
<!-- RepoModule -->
<g id="node2" class="node">
<title>RepoModule</title>
<polygon fill="#8dd3c7" stroke="black" points="1647.6,-84.8 1644.6,-88.8 1623.6,-88.8 1620.6,-84.8 1558.4,-84.8 1558.4,-48.8 1647.6,-48.8 1647.6,-84.8"/>
<text text-anchor="middle" x="1603" y="-62.6" font-family="Times,serif" font-size="14.00">RepoModule</text>
</g>
<!-- RepoModule&#45;&gt;UserModule -->
<g id="edge2" class="edge">
<title>RepoModule&#45;&gt;UserModule</title>
<path fill="none" stroke="black" d="M1603,-85.02C1603,-103.63 1603,-129.8 1603,-129.8 1603,-129.8 1051.03,-129.8 1051.03,-129.8"/>
<polygon fill="black" stroke="black" points="1051.03,-126.3 1041.03,-129.8 1051.03,-133.3 1051.03,-126.3"/>
</g>
<!-- EndorsementService  -->
<g id="node4" class="node">
<title>EndorsementService </title>
<polygon fill="#fb8072" stroke="black" points="1323.85,-214.8 1188.15,-214.8 1188.15,-178.8 1323.85,-178.8 1323.85,-214.8"/>
<text text-anchor="middle" x="1256" y="-192.6" font-family="Times,serif" font-size="14.00">EndorsementService </text>
</g>
<!-- UserModule&#45;&gt;EndorsementService  -->
<g id="edge3" class="edge">
<title>UserModule&#45;&gt;EndorsementService </title>
<path fill="none" stroke="black" stroke-dasharray="5,2" d="M1041.18,-139.8C1114.63,-139.8 1256,-139.8 1256,-139.8 1256,-139.8 1256,-168.76 1256,-168.76"/>
<polygon fill="black" stroke="black" points="1252.5,-168.76 1256,-178.76 1259.5,-168.76 1252.5,-168.76"/>
</g>
<!-- RepoService  -->
<g id="node5" class="node">
<title>RepoService </title>
<polygon fill="#fb8072" stroke="black" points="1170.53,-214.8 1079.47,-214.8 1079.47,-178.8 1170.53,-178.8 1170.53,-214.8"/>
<text text-anchor="middle" x="1125" y="-192.6" font-family="Times,serif" font-size="14.00">RepoService </text>
</g>
<!-- UserModule&#45;&gt;RepoService  -->
<g id="edge4" class="edge">
<title>UserModule&#45;&gt;RepoService </title>
<path fill="none" stroke="black" stroke-dasharray="5,2" d="M1041.09,-144.8C1074.95,-144.8 1116.43,-144.8 1116.43,-144.8 1116.43,-144.8 1116.43,-168.61 1116.43,-168.61"/>
<polygon fill="black" stroke="black" points="1112.93,-168.61 1116.43,-178.61 1119.93,-168.61 1112.93,-168.61"/>
</g>
<!-- UserFollowService  -->
<g id="node6" class="node">
<title>UserFollowService </title>
<polygon fill="#fb8072" stroke="black" points="1061.59,-214.8 934.41,-214.8 934.41,-178.8 1061.59,-178.8 1061.59,-214.8"/>
<text text-anchor="middle" x="998" y="-192.6" font-family="Times,serif" font-size="14.00">UserFollowService </text>
</g>
<!-- UserModule&#45;&gt;UserFollowService  -->
<g id="edge5" class="edge">
<title>UserModule&#45;&gt;UserFollowService </title>
<path fill="none" stroke="black" stroke-dasharray="5,2" d="M998,-149.91C998,-149.91 998,-168.79 998,-168.79"/>
<polygon fill="black" stroke="black" points="994.5,-168.79 998,-178.79 1001.5,-168.79 994.5,-168.79"/>
</g>
<!-- UserHighlightsService  -->
<g id="node7" class="node">
<title>UserHighlightsService </title>
<polygon fill="#fb8072" stroke="black" points="916.53,-214.8 769.47,-214.8 769.47,-178.8 916.53,-178.8 916.53,-214.8"/>
<text text-anchor="middle" x="843" y="-192.6" font-family="Times,serif" font-size="14.00">UserHighlightsService </text>
</g>
<!-- UserModule&#45;&gt;UserHighlightsService  -->
<g id="edge6" class="edge">
<title>UserModule&#45;&gt;UserHighlightsService </title>
<path fill="none" stroke="black" stroke-dasharray="5,2" d="M954.82,-144.8C912.43,-144.8 854.09,-144.8 854.09,-144.8 854.09,-144.8 854.09,-168.61 854.09,-168.61"/>
<polygon fill="black" stroke="black" points="850.59,-168.61 854.09,-178.61 857.59,-168.61 850.59,-168.61"/>
</g>
<!-- UserService  -->
<g id="node8" class="node">
<title>UserService </title>
<polygon fill="#fb8072" stroke="black" points="751.91,-214.8 664.09,-214.8 664.09,-178.8 751.91,-178.8 751.91,-214.8"/>
<text text-anchor="middle" x="708" y="-192.6" font-family="Times,serif" font-size="14.00">UserService </text>
</g>
<!-- UserModule&#45;&gt;UserService  -->
<g id="edge7" class="edge">
<title>UserModule&#45;&gt;UserService </title>
<path fill="none" stroke="black" stroke-dasharray="5,2" d="M954.9,-139.8C874.11,-139.8 708,-139.8 708,-139.8 708,-139.8 708,-168.76 708,-168.76"/>
<polygon fill="black" stroke="black" points="704.5,-168.76 708,-178.76 711.5,-168.76 704.5,-168.76"/>
</g>
<!-- EndorsementService -->
<g id="node9" class="node">
<title>EndorsementService</title>
<ellipse fill="#fdb462" stroke="black" cx="1443" cy="-66.8" rx="90.89" ry="18"/>
<text text-anchor="middle" x="1443" y="-62.6" font-family="Times,serif" font-size="14.00">EndorsementService</text>
</g>
<!-- EndorsementService&#45;&gt;UserModule -->
<g id="edge8" class="edge">
<title>EndorsementService&#45;&gt;UserModule</title>
<path fill="none" stroke="black" d="M1443,-84.83C1443,-101.86 1443,-124.8 1443,-124.8 1443,-124.8 1051.07,-124.8 1051.07,-124.8"/>
<polygon fill="black" stroke="black" points="1051.07,-121.3 1041.07,-124.8 1051.07,-128.3 1051.07,-121.3"/>
</g>
<!-- RepoFilterService -->
<g id="node10" class="node">
<title>RepoFilterService</title>
<ellipse fill="#fdb462" stroke="black" cx="1253" cy="-66.8" rx="81.1" ry="18"/>
<text text-anchor="middle" x="1253" y="-62.6" font-family="Times,serif" font-size="14.00">RepoFilterService</text>
</g>
<!-- RepoFilterService&#45;&gt;UserModule -->
<g id="edge9" class="edge">
<title>RepoFilterService&#45;&gt;UserModule</title>
<path fill="none" stroke="black" d="M1180.01,-75.08C1180.01,-89.99 1180.01,-119.8 1180.01,-119.8 1180.01,-119.8 1051.13,-119.8 1051.13,-119.8"/>
<polygon fill="black" stroke="black" points="1051.13,-116.3 1041.13,-119.8 1051.13,-123.3 1051.13,-116.3"/>
</g>
<!-- RepoService -->
<g id="node11" class="node">
<title>RepoService</title>
<ellipse fill="#fdb462" stroke="black" cx="1093" cy="-66.8" rx="60.26" ry="18"/>
<text text-anchor="middle" x="1093" y="-62.6" font-family="Times,serif" font-size="14.00">RepoService</text>
</g>
<!-- RepoService&#45;&gt;UserModule -->
<g id="edge10" class="edge">
<title>RepoService&#45;&gt;UserModule</title>
<path fill="none" stroke="black" d="M1036.81,-73.76C1036.81,-73.76 1036.81,-103.61 1036.81,-103.61"/>
<polygon fill="black" stroke="black" points="1033.31,-103.61 1036.81,-113.61 1040.31,-103.61 1033.31,-103.61"/>
</g>
<!-- UserCollaborationService -->
<g id="node12" class="node">
<title>UserCollaborationService</title>
<ellipse fill="#fdb462" stroke="black" cx="903" cy="-66.8" rx="111.16" ry="18"/>
<text text-anchor="middle" x="903" y="-62.6" font-family="Times,serif" font-size="14.00">UserCollaborationService</text>
</g>
<!-- UserCollaborationService&#45;&gt;UserModule -->
<g id="edge11" class="edge">
<title>UserCollaborationService&#45;&gt;UserModule</title>
<path fill="none" stroke="black" d="M984.67,-79.33C984.67,-79.33 984.67,-103.65 984.67,-103.65"/>
<polygon fill="black" stroke="black" points="981.17,-103.65 984.67,-113.65 988.17,-103.65 981.17,-103.65"/>
</g>
<!-- UserFollowService -->
<g id="node13" class="node">
<title>UserFollowService</title>
<ellipse fill="#fdb462" stroke="black" cx="688" cy="-66.8" rx="85.69" ry="18"/>
<text text-anchor="middle" x="688" y="-62.6" font-family="Times,serif" font-size="14.00">UserFollowService</text>
</g>
<!-- UserFollowService&#45;&gt;UserModule -->
<g id="edge12" class="edge">
<title>UserFollowService&#45;&gt;UserModule</title>
<path fill="none" stroke="black" d="M760.72,-76.52C760.72,-91.82 760.72,-119.8 760.72,-119.8 760.72,-119.8 944.76,-119.8 944.76,-119.8"/>
<polygon fill="black" stroke="black" points="944.76,-123.3 954.76,-119.8 944.76,-116.3 944.76,-123.3"/>
</g>
<!-- UserHighlightsService -->
<g id="node14" class="node">
<title>UserHighlightsService</title>
<ellipse fill="#fdb462" stroke="black" cx="485" cy="-66.8" rx="99.01" ry="18"/>
<text text-anchor="middle" x="485" y="-62.6" font-family="Times,serif" font-size="14.00">UserHighlightsService</text>
</g>
<!-- UserHighlightsService&#45;&gt;UserModule -->
<g id="edge13" class="edge">
<title>UserHighlightsService&#45;&gt;UserModule</title>
<path fill="none" stroke="black" d="M485,-84.83C485,-101.86 485,-124.8 485,-124.8 485,-124.8 944.7,-124.8 944.7,-124.8"/>
<polygon fill="black" stroke="black" points="944.7,-128.3 954.7,-124.8 944.7,-121.3 944.7,-128.3"/>
</g>
<!-- UserNotificationService -->
<g id="node15" class="node">
<title>UserNotificationService</title>
<ellipse fill="#fdb462" stroke="black" cx="263" cy="-66.8" rx="104.78" ry="18"/>
<text text-anchor="middle" x="263" y="-62.6" font-family="Times,serif" font-size="14.00">UserNotificationService</text>
</g>
<!-- UserNotificationService&#45;&gt;UserModule -->
<g id="edge14" class="edge">
<title>UserNotificationService&#45;&gt;UserModule</title>
<path fill="none" stroke="black" d="M263,-85.02C263,-103.63 263,-129.8 263,-129.8 263,-129.8 944.77,-129.8 944.77,-129.8"/>
<polygon fill="black" stroke="black" points="944.77,-133.3 954.77,-129.8 944.77,-126.3 944.77,-133.3"/>
</g>
<!-- UserService -->
<g id="node16" class="node">
<title>UserService</title>
<ellipse fill="#fdb462" stroke="black" cx="82" cy="-66.8" rx="58.46" ry="18"/>
<text text-anchor="middle" x="82" y="-62.6" font-family="Times,serif" font-size="14.00">UserService</text>
</g>
<!-- UserService&#45;&gt;UserModule -->
<g id="edge15" class="edge">
<title>UserService&#45;&gt;UserModule</title>
<path fill="none" stroke="black" d="M82,-85.02C82,-105.17 82,-134.8 82,-134.8 82,-134.8 944.74,-134.8 944.74,-134.8"/>
<polygon fill="black" stroke="black" points="944.74,-138.3 954.74,-134.8 944.74,-131.3 944.74,-138.3"/>
</g>
</g>
</svg>
