<?xml version="1.0" encoding="UTF-8" standalone="no"?>
<!DOCTYPE svg PUBLIC "-//W3C//DTD SVG 1.1//EN"
 "http://www.w3.org/Graphics/SVG/1.1/DTD/svg11.dtd">
<!-- Generated by graphviz version 3.0.0 (20220226.1711)
 -->
<!-- Title: dependencies Pages: 1 -->
<svg width="2342pt" height="247pt"
 viewBox="0.00 0.00 2342.00 246.80" xmlns="http://www.w3.org/2000/svg" xmlns:xlink="http://www.w3.org/1999/xlink">
<g id="graph0" class="graph" transform="scale(1 1) rotate(0) translate(4 242.8)">
<title>dependencies</title>
<polygon fill="white" stroke="transparent" points="-4,4 -4,-242.8 2338,-242.8 2338,4 -4,4"/>
<text text-anchor="middle" x="1167" y="-8.2" font-family="sans-serif" font-size="14.00">dependencies</text>
<g id="clust1" class="cluster">
<title>cluster_UserModule</title>
<polygon fill="none" stroke="black" stroke-dasharray="1,5" points="8,-32.8 8,-230.8 2326,-230.8 2326,-32.8 8,-32.8"/>
</g>
<g id="clust6" class="cluster">
<title>cluster_UserModule_providers</title>
<polygon fill="none" stroke="black" points="556,-40.8 556,-92.8 2318,-92.8 2318,-40.8 556,-40.8"/>
</g>
<g id="clust3" class="cluster">
<title>cluster_UserModule_imports</title>
<polygon fill="none" stroke="black" points="16,-40.8 16,-92.8 548,-92.8 548,-40.8 16,-40.8"/>
</g>
<g id="clust4" class="cluster">
<title>cluster_UserModule_exports</title>
<polygon fill="none" stroke="black" points="596,-170.8 596,-222.8 1451,-222.8 1451,-170.8 596,-170.8"/>
</g>
<!-- ApiServicesModule -->
<g id="node1" class="node">
<title>ApiServicesModule</title>
<polygon fill="#8dd3c7" stroke="black" points="539.98,-84.8 536.98,-88.8 515.98,-88.8 512.98,-84.8 412.02,-84.8 412.02,-48.8 539.98,-48.8 539.98,-84.8"/>
<text text-anchor="middle" x="476" y="-62.6" font-family="Times,serif" font-size="14.00">ApiServicesModule</text>
</g>
<!-- UserModule -->
<g id="node5" class="node">
<title>UserModule</title>
<polygon fill="#8dd3c7" stroke="black" points="1081.99,-149.8 1078.99,-153.8 1057.99,-153.8 1054.99,-149.8 996.01,-149.8 996.01,-113.8 1081.99,-113.8 1081.99,-149.8"/>
<text text-anchor="middle" x="1039" y="-127.6" font-family="Times,serif" font-size="14.00">UserModule</text>
</g>
<!-- ApiServicesModule&#45;&gt;UserModule -->
<g id="edge1" class="edge">
<title>ApiServicesModule&#45;&gt;UserModule</title>
<path fill="none" stroke="black" d="M476,-84.82C476,-102.17 476,-125.8 476,-125.8 476,-125.8 985.76,-125.8 985.76,-125.8"/>
<polygon fill="black" stroke="black" points="985.76,-129.3 995.76,-125.8 985.76,-122.3 985.76,-129.3"/>
</g>
<!-- PullRequestModule -->
<g id="node2" class="node">
<title>PullRequestModule</title>
<polygon fill="#8dd3c7" stroke="black" points="393.72,-84.8 390.72,-88.8 369.72,-88.8 366.72,-84.8 266.28,-84.8 266.28,-48.8 393.72,-48.8 393.72,-84.8"/>
<text text-anchor="middle" x="330" y="-62.6" font-family="Times,serif" font-size="14.00">PullRequestModule</text>
</g>
<!-- PullRequestModule&#45;&gt;UserModule -->
<g id="edge2" class="edge">
<title>PullRequestModule&#45;&gt;UserModule</title>
<path fill="none" stroke="black" d="M330,-85.02C330,-103.63 330,-129.8 330,-129.8 330,-129.8 985.98,-129.8 985.98,-129.8"/>
<polygon fill="black" stroke="black" points="985.98,-133.3 995.98,-129.8 985.98,-126.3 985.98,-133.3"/>
</g>
<!-- RepoModule -->
<g id="node3" class="node">
<title>RepoModule</title>
<polygon fill="#8dd3c7" stroke="black" points="248.6,-84.8 245.6,-88.8 224.6,-88.8 221.6,-84.8 159.4,-84.8 159.4,-48.8 248.6,-48.8 248.6,-84.8"/>
<text text-anchor="middle" x="204" y="-62.6" font-family="Times,serif" font-size="14.00">RepoModule</text>
</g>
<!-- RepoModule&#45;&gt;UserModule -->
<g id="edge3" class="edge">
<title>RepoModule&#45;&gt;UserModule</title>
<path fill="none" stroke="black" d="M204,-85.11C204,-104.95 204,-133.8 204,-133.8 204,-133.8 985.87,-133.8 985.87,-133.8"/>
<polygon fill="black" stroke="black" points="985.87,-137.3 995.87,-133.8 985.87,-130.3 985.87,-137.3"/>
</g>
<!-- TimescaleModule -->
<g id="node4" class="node">
<title>TimescaleModule</title>
<polygon fill="#8dd3c7" stroke="black" points="141.58,-84.8 138.58,-88.8 117.58,-88.8 114.58,-84.8 24.42,-84.8 24.42,-48.8 141.58,-48.8 141.58,-84.8"/>
<text text-anchor="middle" x="83" y="-62.6" font-family="Times,serif" font-size="14.00">TimescaleModule</text>
</g>
<!-- TimescaleModule&#45;&gt;UserModule -->
<g id="edge4" class="edge">
<title>TimescaleModule&#45;&gt;UserModule</title>
<path fill="none" stroke="black" d="M83,-85.08C83,-106.12 83,-137.8 83,-137.8 83,-137.8 985.75,-137.8 985.75,-137.8"/>
<polygon fill="black" stroke="black" points="985.75,-141.3 995.75,-137.8 985.75,-134.3 985.75,-141.3"/>
</g>
<!-- EndorsementService  -->
<g id="node6" class="node">
<title>EndorsementService </title>
<polygon fill="#fb8072" stroke="black" points="1442.85,-214.8 1307.15,-214.8 1307.15,-178.8 1442.85,-178.8 1442.85,-214.8"/>
<text text-anchor="middle" x="1375" y="-192.6" font-family="Times,serif" font-size="14.00">EndorsementService </text>
</g>
<!-- UserModule&#45;&gt;EndorsementService  -->
<g id="edge5" class="edge">
<title>UserModule&#45;&gt;EndorsementService </title>
<path fill="none" stroke="black" stroke-dasharray="5,2" d="M1082.16,-141.8C1164.01,-141.8 1333.67,-141.8 1333.67,-141.8 1333.67,-141.8 1333.67,-168.79 1333.67,-168.79"/>
<polygon fill="black" stroke="black" points="1330.17,-168.79 1333.67,-178.79 1337.17,-168.79 1330.17,-168.79"/>
</g>
<!-- RepoService  -->
<g id="node7" class="node">
<title>RepoService </title>
<polygon fill="#fb8072" stroke="black" points="1289.53,-214.8 1198.47,-214.8 1198.47,-178.8 1289.53,-178.8 1289.53,-214.8"/>
<text text-anchor="middle" x="1244" y="-192.6" font-family="Times,serif" font-size="14.00">RepoService </text>
</g>
<!-- UserModule&#45;&gt;RepoService  -->
<g id="edge6" class="edge">
<title>UserModule&#45;&gt;RepoService </title>
<path fill="none" stroke="black" stroke-dasharray="5,2" d="M1082.48,-145.8C1142.65,-145.8 1244,-145.8 1244,-145.8 1244,-145.8 1244,-168.68 1244,-168.68"/>
<polygon fill="black" stroke="black" points="1240.5,-168.68 1244,-178.68 1247.5,-168.68 1240.5,-168.68"/>
</g>
<!-- UserFollowService  -->
<g id="node8" class="node">
<title>UserFollowService </title>
<polygon fill="#fb8072" stroke="black" points="1180.59,-214.8 1053.41,-214.8 1053.41,-178.8 1180.59,-178.8 1180.59,-214.8"/>
<text text-anchor="middle" x="1117" y="-192.6" font-family="Times,serif" font-size="14.00">UserFollowService </text>
</g>
<!-- UserModule&#45;&gt;UserFollowService  -->
<g id="edge7" class="edge">
<title>UserModule&#45;&gt;UserFollowService </title>
<path fill="none" stroke="black" stroke-dasharray="5,2" d="M1067.6,-149.91C1067.6,-149.91 1067.6,-168.79 1067.6,-168.79"/>
<polygon fill="black" stroke="black" points="1064.1,-168.79 1067.6,-178.79 1071.1,-168.79 1064.1,-168.79"/>
</g>
<!-- UserHighlightsService  -->
<g id="node9" class="node">
<title>UserHighlightsService </title>
<polygon fill="#fb8072" stroke="black" points="1035.53,-214.8 888.47,-214.8 888.47,-178.8 1035.53,-178.8 1035.53,-214.8"/>
<text text-anchor="middle" x="962" y="-192.6" font-family="Times,serif" font-size="14.00">UserHighlightsService </text>
</g>
<!-- UserModule&#45;&gt;UserHighlightsService  -->
<g id="edge8" class="edge">
<title>UserModule&#45;&gt;UserHighlightsService </title>
<path fill="none" stroke="black" stroke-dasharray="5,2" d="M1015.76,-149.91C1015.76,-149.91 1015.76,-168.79 1015.76,-168.79"/>
<polygon fill="black" stroke="black" points="1012.26,-168.79 1015.76,-178.79 1019.26,-168.79 1012.26,-168.79"/>
</g>
<!-- UserOrganizationService  -->
<g id="node10" class="node">
<title>UserOrganizationService </title>
<polygon fill="#fb8072" stroke="black" points="870.5,-214.8 709.5,-214.8 709.5,-178.8 870.5,-178.8 870.5,-214.8"/>
<text text-anchor="middle" x="790" y="-192.6" font-family="Times,serif" font-size="14.00">UserOrganizationService </text>
</g>
<!-- UserModule&#45;&gt;UserOrganizationService  -->
<g id="edge9" class="edge">
<title>UserModule&#45;&gt;UserOrganizationService </title>
<path fill="none" stroke="black" stroke-dasharray="5,2" d="M995.91,-145.8C924.64,-145.8 790,-145.8 790,-145.8 790,-145.8 790,-168.68 790,-168.68"/>
<polygon fill="black" stroke="black" points="786.5,-168.68 790,-178.68 793.5,-168.68 786.5,-168.68"/>
</g>
<!-- UserService  -->
<g id="node11" class="node">
<title>UserService </title>
<polygon fill="#fb8072" stroke="black" points="691.91,-214.8 604.09,-214.8 604.09,-178.8 691.91,-178.8 691.91,-214.8"/>
<text text-anchor="middle" x="648" y="-192.6" font-family="Times,serif" font-size="14.00">UserService </text>
</g>
<!-- UserModule&#45;&gt;UserService  -->
<g id="edge10" class="edge">
<title>UserModule&#45;&gt;UserService </title>
<path fill="none" stroke="black" stroke-dasharray="5,2" d="M995.73,-141.8C901.49,-141.8 686.09,-141.8 686.09,-141.8 686.09,-141.8 686.09,-168.79 686.09,-168.79"/>
<polygon fill="black" stroke="black" points="682.59,-168.79 686.09,-178.79 689.59,-168.79 682.59,-168.79"/>
</g>
<!-- EndorsementService -->
<g id="node12" class="node">
<title>EndorsementService</title>
<ellipse fill="#fdb462" stroke="black" cx="2219" cy="-66.8" rx="90.89" ry="18"/>
<text text-anchor="middle" x="2219" y="-62.6" font-family="Times,serif" font-size="14.00">EndorsementService</text>
</g>
<!-- EndorsementService&#45;&gt;UserModule -->
<g id="edge11" class="edge">
<title>EndorsementService&#45;&gt;UserModule</title>
<path fill="none" stroke="black" d="M2219,-85.08C2219,-106.12 2219,-137.8 2219,-137.8 2219,-137.8 1092.04,-137.8 1092.04,-137.8"/>
<polygon fill="black" stroke="black" points="1092.04,-134.3 1082.04,-137.8 1092.04,-141.3 1092.04,-134.3"/>
</g>
<!-- RepoFilterService -->
<g id="node13" class="node">
<title>RepoFilterService</title>
<ellipse fill="#fdb462" stroke="black" cx="2029" cy="-66.8" rx="81.1" ry="18"/>
<text text-anchor="middle" x="2029" y="-62.6" font-family="Times,serif" font-size="14.00">RepoFilterService</text>
</g>
<!-- RepoFilterService&#45;&gt;UserModule -->
<g id="edge12" class="edge">
<title>RepoFilterService&#45;&gt;UserModule</title>
<path fill="none" stroke="black" d="M2029,-85.11C2029,-104.95 2029,-133.8 2029,-133.8 2029,-133.8 1092.18,-133.8 1092.18,-133.8"/>
<polygon fill="black" stroke="black" points="1092.18,-130.3 1082.18,-133.8 1092.18,-137.3 1092.18,-130.3"/>
</g>
<!-- RepoService -->
<g id="node14" class="node">
<title>RepoService</title>
<ellipse fill="#fdb462" stroke="black" cx="1869" cy="-66.8" rx="60.26" ry="18"/>
<text text-anchor="middle" x="1869" y="-62.6" font-family="Times,serif" font-size="14.00">RepoService</text>
</g>
<!-- RepoService&#45;&gt;UserModule -->
<g id="edge13" class="edge">
<title>RepoService&#45;&gt;UserModule</title>
<path fill="none" stroke="black" d="M1869,-85.02C1869,-103.63 1869,-129.8 1869,-129.8 1869,-129.8 1092.17,-129.8 1092.17,-129.8"/>
<polygon fill="black" stroke="black" points="1092.17,-126.3 1082.17,-129.8 1092.17,-133.3 1092.17,-126.3"/>
</g>
<!-- UserCollaborationService -->
<g id="node15" class="node">
<title>UserCollaborationService</title>
<ellipse fill="#fdb462" stroke="black" cx="1679" cy="-66.8" rx="111.16" ry="18"/>
<text text-anchor="middle" x="1679" y="-62.6" font-family="Times,serif" font-size="14.00">UserCollaborationService</text>
</g>
<!-- UserCollaborationService&#45;&gt;UserModule -->
<g id="edge14" class="edge">
<title>UserCollaborationService&#45;&gt;UserModule</title>
<path fill="none" stroke="black" d="M1679,-84.82C1679,-102.17 1679,-125.8 1679,-125.8 1679,-125.8 1092.24,-125.8 1092.24,-125.8"/>
<polygon fill="black" stroke="black" points="1092.24,-122.3 1082.24,-125.8 1092.24,-129.3 1092.24,-122.3"/>
</g>
<!-- UserFollowService -->
<g id="node16" class="node">
<title>UserFollowService</title>
<ellipse fill="#fdb462" stroke="black" cx="1464" cy="-66.8" rx="85.69" ry="18"/>
<text text-anchor="middle" x="1464" y="-62.6" font-family="Times,serif" font-size="14.00">UserFollowService</text>
</g>
<!-- UserFollowService&#45;&gt;UserModule -->
<g id="edge15" class="edge">
<title>UserFollowService&#45;&gt;UserModule</title>
<path fill="none" stroke="black" d="M1410.54,-80.96C1410.54,-97.26 1410.54,-121.8 1410.54,-121.8 1410.54,-121.8 1092.35,-121.8 1092.35,-121.8"/>
<polygon fill="black" stroke="black" points="1092.35,-118.3 1082.35,-121.8 1092.35,-125.3 1092.35,-118.3"/>
</g>
<!-- UserHighlightsService -->
<g id="node17" class="node">
<title>UserHighlightsService</title>
<ellipse fill="#fdb462" stroke="black" cx="1261" cy="-66.8" rx="99.01" ry="18"/>
<text text-anchor="middle" x="1261" y="-62.6" font-family="Times,serif" font-size="14.00">UserHighlightsService</text>
</g>
<!-- UserHighlightsService&#45;&gt;UserModule -->
<g id="edge16" class="edge">
<title>UserHighlightsService&#45;&gt;UserModule</title>
<path fill="none" stroke="black" d="M1171.39,-74.77C1171.39,-89.11 1171.39,-117.8 1171.39,-117.8 1171.39,-117.8 1092.35,-117.8 1092.35,-117.8"/>
<polygon fill="black" stroke="black" points="1092.35,-114.3 1082.35,-117.8 1092.35,-121.3 1092.35,-114.3"/>
</g>
<!-- UserNotificationService -->
<g id="node18" class="node">
<title>UserNotificationService</title>
<ellipse fill="#fdb462" stroke="black" cx="1039" cy="-66.8" rx="104.78" ry="18"/>
<text text-anchor="middle" x="1039" y="-62.6" font-family="Times,serif" font-size="14.00">UserNotificationService</text>
</g>
<!-- UserNotificationService&#45;&gt;UserModule -->
<g id="edge17" class="edge">
<title>UserNotificationService&#45;&gt;UserModule</title>
<path fill="none" stroke="black" d="M1039,-84.91C1039,-84.91 1039,-103.79 1039,-103.79"/>
<polygon fill="black" stroke="black" points="1035.5,-103.79 1039,-113.79 1042.5,-103.79 1035.5,-103.79"/>
</g>
<!-- UserOrganizationService -->
<g id="node19" class="node">
<title>UserOrganizationService</title>
<ellipse fill="#fdb462" stroke="black" cx="807" cy="-66.8" rx="108.78" ry="18"/>
<text text-anchor="middle" x="807" y="-62.6" font-family="Times,serif" font-size="14.00">UserOrganizationService</text>
</g>
<!-- UserOrganizationService&#45;&gt;UserModule -->
<g id="edge18" class="edge">
<title>UserOrganizationService&#45;&gt;UserModule</title>
<path fill="none" stroke="black" d="M902.06,-75.68C902.06,-90.3 902.06,-117.8 902.06,-117.8 902.06,-117.8 985.67,-117.8 985.67,-117.8"/>
<polygon fill="black" stroke="black" points="985.67,-121.3 995.67,-117.8 985.67,-114.3 985.67,-121.3"/>
</g>
<!-- UserService -->
<g id="node20" class="node">
<title>UserService</title>
<ellipse fill="#fdb462" stroke="black" cx="622" cy="-66.8" rx="58.46" ry="18"/>
<text text-anchor="middle" x="622" y="-62.6" font-family="Times,serif" font-size="14.00">UserService</text>
</g>
<!-- UserService&#45;&gt;UserModule -->
<g id="edge19" class="edge">
<title>UserService&#45;&gt;UserModule</title>
<path fill="none" stroke="black" d="M642.14,-83.9C642.14,-100.05 642.14,-121.8 642.14,-121.8 642.14,-121.8 985.77,-121.8 985.77,-121.8"/>
<polygon fill="black" stroke="black" points="985.77,-125.3 995.77,-121.8 985.77,-118.3 985.77,-125.3"/>
</g>
</g>
</svg>
