<?xml version="1.0" encoding="UTF-8" standalone="no"?>
<!DOCTYPE svg PUBLIC "-//W3C//DTD SVG 1.1//EN"
 "http://www.w3.org/Graphics/SVG/1.1/DTD/svg11.dtd">
<!-- Generated by graphviz version 3.0.0 (20220226.1711)
 -->
<!-- Title: dependencies Pages: 1 -->
<svg width="540pt" height="247pt"
 viewBox="0.00 0.00 540.00 246.80" xmlns="http://www.w3.org/2000/svg" xmlns:xlink="http://www.w3.org/1999/xlink">
<g id="graph0" class="graph" transform="scale(1 1) rotate(0) translate(4 242.8)">
<title>dependencies</title>
<polygon fill="white" stroke="transparent" points="-4,4 -4,-242.8 536,-242.8 536,4 -4,4"/>
<text text-anchor="middle" x="266" y="-8.2" font-family="sans-serif" font-size="14.00">dependencies</text>
<g id="clust1" class="cluster">
<title>cluster_UserModule</title>
<polygon fill="none" stroke="black" stroke-dasharray="1,5" points="8,-32.8 8,-230.8 524,-230.8 524,-32.8 8,-32.8"/>
</g>
<g id="clust3" class="cluster">
<title>cluster_UserModule_imports</title>
<polygon fill="none" stroke="black" points="372,-40.8 372,-92.8 516,-92.8 516,-40.8 372,-40.8"/>
</g>
<g id="clust4" class="cluster">
<title>cluster_UserModule_exports</title>
<polygon fill="none" stroke="black" points="138,-170.8 138,-222.8 407,-222.8 407,-170.8 138,-170.8"/>
</g>
<g id="clust6" class="cluster">
<title>cluster_UserModule_providers</title>
<polygon fill="none" stroke="black" points="16,-40.8 16,-92.8 364,-92.8 364,-40.8 16,-40.8"/>
</g>
<!-- PullRequestModule -->
<g id="node1" class="node">
<title>PullRequestModule</title>
<polygon fill="#8dd3c7" stroke="black" points="507.72,-84.8 504.72,-88.8 483.72,-88.8 480.72,-84.8 380.28,-84.8 380.28,-48.8 507.72,-48.8 507.72,-84.8"/>
<text text-anchor="middle" x="444" y="-62.6" font-family="Times,serif" font-size="14.00">PullRequestModule</text>
</g>
<!-- UserModule -->
<g id="node2" class="node">
<title>UserModule</title>
<polygon fill="#8dd3c7" stroke="black" points="299.99,-149.8 296.99,-153.8 275.99,-153.8 272.99,-149.8 214.01,-149.8 214.01,-113.8 299.99,-113.8 299.99,-149.8"/>
<text text-anchor="middle" x="257" y="-127.6" font-family="Times,serif" font-size="14.00">UserModule</text>
</g>
<!-- PullRequestModule&#45;&gt;UserModule -->
<g id="edge1" class="edge">
<title>PullRequestModule&#45;&gt;UserModule</title>
<path fill="none" stroke="black" d="M389.45,-84.91C389.45,-104.14 389.45,-131.8 389.45,-131.8 389.45,-131.8 310,-131.8 310,-131.8"/>
<polygon fill="black" stroke="black" points="310,-128.3 300,-131.8 310,-135.3 310,-128.3"/>
</g>
<!-- UserHighlightsService  -->
<g id="node3" class="node">
<title>UserHighlightsService </title>
<polygon fill="#fb8072" stroke="black" points="398.53,-214.8 251.47,-214.8 251.47,-178.8 398.53,-178.8 398.53,-214.8"/>
<text text-anchor="middle" x="325" y="-192.6" font-family="Times,serif" font-size="14.00">UserHighlightsService </text>
</g>
<!-- UserModule&#45;&gt;UserHighlightsService  -->
<g id="edge2" class="edge">
<title>UserModule&#45;&gt;UserHighlightsService </title>
<path fill="none" stroke="black" stroke-dasharray="5,2" d="M275.74,-149.91C275.74,-149.91 275.74,-168.79 275.74,-168.79"/>
<polygon fill="black" stroke="black" points="272.24,-168.79 275.74,-178.79 279.24,-168.79 272.24,-168.79"/>
</g>
<!-- UserService  -->
<g id="node4" class="node">
<title>UserService </title>
<polygon fill="#fb8072" stroke="black" points="233.91,-214.8 146.09,-214.8 146.09,-178.8 233.91,-178.8 233.91,-214.8"/>
<text text-anchor="middle" x="190" y="-192.6" font-family="Times,serif" font-size="14.00">UserService </text>
</g>
<!-- UserModule&#45;&gt;UserService  -->
<g id="edge3" class="edge">
<title>UserModule&#45;&gt;UserService </title>
<path fill="none" stroke="black" stroke-dasharray="5,2" d="M223.98,-149.91C223.98,-149.91 223.98,-168.79 223.98,-168.79"/>
<polygon fill="black" stroke="black" points="220.48,-168.79 223.98,-178.79 227.48,-168.79 220.48,-168.79"/>
</g>
<!-- UserHighlightsService -->
<g id="node5" class="node">
<title>UserHighlightsService</title>
<ellipse fill="#fdb462" stroke="black" cx="257" cy="-66.8" rx="99.01" ry="18"/>
<text text-anchor="middle" x="257" y="-62.6" font-family="Times,serif" font-size="14.00">UserHighlightsService</text>
</g>
<!-- UserHighlightsService&#45;&gt;UserModule -->
<g id="edge4" class="edge">
<title>UserHighlightsService&#45;&gt;UserModule</title>
<path fill="none" stroke="black" d="M257,-84.91C257,-84.91 257,-103.79 257,-103.79"/>
<polygon fill="black" stroke="black" points="253.5,-103.79 257,-113.79 260.5,-103.79 253.5,-103.79"/>
</g>
<!-- UserService -->
<g id="node6" class="node">
<title>UserService</title>
<ellipse fill="#fdb462" stroke="black" cx="82" cy="-66.8" rx="58.46" ry="18"/>
<text text-anchor="middle" x="82" y="-62.6" font-family="Times,serif" font-size="14.00">UserService</text>
</g>
<!-- UserService&#45;&gt;UserModule -->
<g id="edge5" class="edge">
<title>UserService&#45;&gt;UserModule</title>
<path fill="none" stroke="black" d="M82,-84.91C82,-104.14 82,-131.8 82,-131.8 82,-131.8 203.74,-131.8 203.74,-131.8"/>
<polygon fill="black" stroke="black" points="203.74,-135.3 213.74,-131.8 203.74,-128.3 203.74,-135.3"/>
</g>
</g>
</svg>
