<?xml version="1.0" encoding="UTF-8" standalone="no"?>
<!DOCTYPE svg PUBLIC "-//W3C//DTD SVG 1.1//EN"
 "http://www.w3.org/Graphics/SVG/1.1/DTD/svg11.dtd">
<!-- Generated by graphviz version 3.0.0 (20220226.1711)
 -->
<!-- Title: dependencies Pages: 1 -->
<svg width="1825pt" height="247pt"
 viewBox="0.00 0.00 1825.00 246.80" xmlns="http://www.w3.org/2000/svg" xmlns:xlink="http://www.w3.org/1999/xlink">
<g id="graph0" class="graph" transform="scale(1 1) rotate(0) translate(4 242.8)">
<title>dependencies</title>
<polygon fill="white" stroke="transparent" points="-4,4 -4,-242.8 1821,-242.8 1821,4 -4,4"/>
<text text-anchor="middle" x="908.5" y="-8.2" font-family="sans-serif" font-size="14.00">dependencies</text>
<g id="clust1" class="cluster">
<title>cluster_UserModule</title>
<polygon fill="none" stroke="black" stroke-dasharray="1,5" points="8,-32.8 8,-230.8 1809,-230.8 1809,-32.8 8,-32.8"/>
</g>
<g id="clust6" class="cluster">
<title>cluster_UserModule_providers</title>
<polygon fill="none" stroke="black" points="275,-40.8 275,-92.8 1801,-92.8 1801,-40.8 275,-40.8"/>
</g>
<g id="clust4" class="cluster">
<title>cluster_UserModule_exports</title>
<polygon fill="none" stroke="black" points="503,-170.8 503,-222.8 1179,-222.8 1179,-170.8 503,-170.8"/>
</g>
<g id="clust3" class="cluster">
<title>cluster_UserModule_imports</title>
<polygon fill="none" stroke="black" points="16,-40.8 16,-92.8 267,-92.8 267,-40.8 16,-40.8"/>
</g>
<!-- PullRequestModule -->
<g id="node1" class="node">
<title>PullRequestModule</title>
<polygon fill="#8dd3c7" stroke="black" points="258.72,-84.8 255.72,-88.8 234.72,-88.8 231.72,-84.8 131.28,-84.8 131.28,-48.8 258.72,-48.8 258.72,-84.8"/>
<text text-anchor="middle" x="195" y="-62.6" font-family="Times,serif" font-size="14.00">PullRequestModule</text>
</g>
<!-- UserModule -->
<g id="node3" class="node">
<title>UserModule</title>
<polygon fill="#8dd3c7" stroke="black" points="887.99,-149.8 884.99,-153.8 863.99,-153.8 860.99,-149.8 802.01,-149.8 802.01,-113.8 887.99,-113.8 887.99,-149.8"/>
<text text-anchor="middle" x="845" y="-127.6" font-family="Times,serif" font-size="14.00">UserModule</text>
</g>
<!-- PullRequestModule&#45;&gt;UserModule -->
<g id="edge1" class="edge">
<title>PullRequestModule&#45;&gt;UserModule</title>
<path fill="none" stroke="black" d="M195,-85.02C195,-103.63 195,-129.8 195,-129.8 195,-129.8 791.85,-129.8 791.85,-129.8"/>
<polygon fill="black" stroke="black" points="791.85,-133.3 801.85,-129.8 791.85,-126.3 791.85,-133.3"/>
</g>
<!-- RepoModule -->
<g id="node2" class="node">
<title>RepoModule</title>
<polygon fill="#8dd3c7" stroke="black" points="113.6,-84.8 110.6,-88.8 89.6,-88.8 86.6,-84.8 24.4,-84.8 24.4,-48.8 113.6,-48.8 113.6,-84.8"/>
<text text-anchor="middle" x="69" y="-62.6" font-family="Times,serif" font-size="14.00">RepoModule</text>
</g>
<!-- RepoModule&#45;&gt;UserModule -->
<g id="edge2" class="edge">
<title>RepoModule&#45;&gt;UserModule</title>
<path fill="none" stroke="black" d="M69,-85.02C69,-105.17 69,-134.8 69,-134.8 69,-134.8 791.9,-134.8 791.9,-134.8"/>
<polygon fill="black" stroke="black" points="791.9,-138.3 801.9,-134.8 791.9,-131.3 791.9,-138.3"/>
</g>
<!-- EndorsementService  -->
<g id="node4" class="node">
<title>EndorsementService </title>
<polygon fill="#fb8072" stroke="black" points="1170.85,-214.8 1035.15,-214.8 1035.15,-178.8 1170.85,-178.8 1170.85,-214.8"/>
<text text-anchor="middle" x="1103" y="-192.6" font-family="Times,serif" font-size="14.00">EndorsementService </text>
</g>
<!-- UserModule&#45;&gt;EndorsementService  -->
<g id="edge3" class="edge">
<title>UserModule&#45;&gt;EndorsementService </title>
<path fill="none" stroke="black" stroke-dasharray="5,2" d="M888.45,-139.8C946.74,-139.8 1043,-139.8 1043,-139.8 1043,-139.8 1043,-168.76 1043,-168.76"/>
<polygon fill="black" stroke="black" points="1039.5,-168.76 1043,-178.76 1046.5,-168.76 1039.5,-168.76"/>
</g>
<!-- RepoService  -->
<g id="node5" class="node">
<title>RepoService </title>
<polygon fill="#fb8072" stroke="black" points="1017.53,-214.8 926.47,-214.8 926.47,-178.8 1017.53,-178.8 1017.53,-214.8"/>
<text text-anchor="middle" x="972" y="-192.6" font-family="Times,serif" font-size="14.00">RepoService </text>
</g>
<!-- UserModule&#45;&gt;RepoService  -->
<g id="edge4" class="edge">
<title>UserModule&#45;&gt;RepoService </title>
<path fill="none" stroke="black" stroke-dasharray="5,2" d="M888,-144.8C924.84,-144.8 972,-144.8 972,-144.8 972,-144.8 972,-168.61 972,-168.61"/>
<polygon fill="black" stroke="black" points="968.5,-168.61 972,-178.61 975.5,-168.61 968.5,-168.61"/>
</g>
<!-- UserFollowService  -->
<g id="node6" class="node">
<title>UserFollowService </title>
<polygon fill="#fb8072" stroke="black" points="908.59,-214.8 781.41,-214.8 781.41,-178.8 908.59,-178.8 908.59,-214.8"/>
<text text-anchor="middle" x="845" y="-192.6" font-family="Times,serif" font-size="14.00">UserFollowService </text>
</g>
<!-- UserModule&#45;&gt;UserFollowService  -->
<g id="edge5" class="edge">
<title>UserModule&#45;&gt;UserFollowService </title>
<path fill="none" stroke="black" stroke-dasharray="5,2" d="M845,-149.91C845,-149.91 845,-168.79 845,-168.79"/>
<polygon fill="black" stroke="black" points="841.5,-168.79 845,-178.79 848.5,-168.79 841.5,-168.79"/>
</g>
<!-- UserHighlightsService  -->
<g id="node7" class="node">
<title>UserHighlightsService </title>
<polygon fill="#fb8072" stroke="black" points="763.53,-214.8 616.47,-214.8 616.47,-178.8 763.53,-178.8 763.53,-214.8"/>
<text text-anchor="middle" x="690" y="-192.6" font-family="Times,serif" font-size="14.00">UserHighlightsService </text>
</g>
<!-- UserModule&#45;&gt;UserHighlightsService  -->
<g id="edge6" class="edge">
<title>UserModule&#45;&gt;UserHighlightsService </title>
<path fill="none" stroke="black" stroke-dasharray="5,2" d="M802.01,-144.8C760.62,-144.8 704.26,-144.8 704.26,-144.8 704.26,-144.8 704.26,-168.61 704.26,-168.61"/>
<polygon fill="black" stroke="black" points="700.76,-168.61 704.26,-178.61 707.76,-168.61 700.76,-168.61"/>
</g>
<!-- UserService  -->
<g id="node8" class="node">
<title>UserService </title>
<polygon fill="#fb8072" stroke="black" points="598.91,-214.8 511.09,-214.8 511.09,-178.8 598.91,-178.8 598.91,-214.8"/>
<text text-anchor="middle" x="555" y="-192.6" font-family="Times,serif" font-size="14.00">UserService </text>
</g>
<!-- UserModule&#45;&gt;UserService  -->
<g id="edge7" class="edge">
<title>UserModule&#45;&gt;UserService </title>
<path fill="none" stroke="black" stroke-dasharray="5,2" d="M801.9,-139.8C721.11,-139.8 555,-139.8 555,-139.8 555,-139.8 555,-168.76 555,-168.76"/>
<polygon fill="black" stroke="black" points="551.5,-168.76 555,-178.76 558.5,-168.76 551.5,-168.76"/>
</g>
<!-- EndorsementService -->
<g id="node9" class="node">
<title>EndorsementService</title>
<ellipse fill="#fdb462" stroke="black" cx="1702" cy="-66.8" rx="90.89" ry="18"/>
<text text-anchor="middle" x="1702" y="-62.6" font-family="Times,serif" font-size="14.00">EndorsementService</text>
</g>
<!-- EndorsementService&#45;&gt;UserModule -->
<g id="edge8" class="edge">
<title>EndorsementService&#45;&gt;UserModule</title>
<path fill="none" stroke="black" d="M1702,-85.02C1702,-105.17 1702,-134.8 1702,-134.8 1702,-134.8 898.09,-134.8 898.09,-134.8"/>
<polygon fill="black" stroke="black" points="898.09,-131.3 888.09,-134.8 898.09,-138.3 898.09,-131.3"/>
</g>
<!-- RepoFilterService -->
<g id="node10" class="node">
<title>RepoFilterService</title>
<ellipse fill="#fdb462" stroke="black" cx="1512" cy="-66.8" rx="81.1" ry="18"/>
<text text-anchor="middle" x="1512" y="-62.6" font-family="Times,serif" font-size="14.00">RepoFilterService</text>
</g>
<!-- RepoFilterService&#45;&gt;UserModule -->
<g id="edge9" class="edge">
<title>RepoFilterService&#45;&gt;UserModule</title>
<path fill="none" stroke="black" d="M1512,-85.02C1512,-103.63 1512,-129.8 1512,-129.8 1512,-129.8 897.99,-129.8 897.99,-129.8"/>
<polygon fill="black" stroke="black" points="897.99,-126.3 887.99,-129.8 897.99,-133.3 897.99,-126.3"/>
</g>
<!-- RepoService -->
<g id="node11" class="node">
<title>RepoService</title>
<ellipse fill="#fdb462" stroke="black" cx="1352" cy="-66.8" rx="60.26" ry="18"/>
<text text-anchor="middle" x="1352" y="-62.6" font-family="Times,serif" font-size="14.00">RepoService</text>
</g>
<!-- RepoService&#45;&gt;UserModule -->
<g id="edge10" class="edge">
<title>RepoService&#45;&gt;UserModule</title>
<path fill="none" stroke="black" d="M1352,-84.83C1352,-101.86 1352,-124.8 1352,-124.8 1352,-124.8 898.23,-124.8 898.23,-124.8"/>
<polygon fill="black" stroke="black" points="898.23,-121.3 888.23,-124.8 898.23,-128.3 898.23,-121.3"/>
</g>
<!-- UserCollaborationService -->
<g id="node12" class="node">
<title>UserCollaborationService</title>
<ellipse fill="#fdb462" stroke="black" cx="1162" cy="-66.8" rx="111.16" ry="18"/>
<text text-anchor="middle" x="1162" y="-62.6" font-family="Times,serif" font-size="14.00">UserCollaborationService</text>
</g>
<!-- UserCollaborationService&#45;&gt;UserModule -->
<g id="edge11" class="edge">
<title>UserCollaborationService&#45;&gt;UserModule</title>
<path fill="none" stroke="black" d="M1110.67,-82.99C1110.67,-98.58 1110.67,-119.8 1110.67,-119.8 1110.67,-119.8 898.28,-119.8 898.28,-119.8"/>
<polygon fill="black" stroke="black" points="898.28,-116.3 888.28,-119.8 898.28,-123.3 898.28,-116.3"/>
</g>
<!-- UserFollowService -->
<g id="node13" class="node">
<title>UserFollowService</title>
<ellipse fill="#fdb462" stroke="black" cx="947" cy="-66.8" rx="85.69" ry="18"/>
<text text-anchor="middle" x="947" y="-62.6" font-family="Times,serif" font-size="14.00">UserFollowService</text>
</g>
<!-- UserFollowService&#45;&gt;UserModule -->
<g id="edge12" class="edge">
<title>UserFollowService&#45;&gt;UserModule</title>
<path fill="none" stroke="black" d="M874.7,-76.67C874.7,-76.67 874.7,-103.71 874.7,-103.71"/>
<polygon fill="black" stroke="black" points="871.2,-103.71 874.7,-113.71 878.2,-103.71 871.2,-103.71"/>
</g>
<!-- UserHighlightsService -->
<g id="node14" class="node">
<title>UserHighlightsService</title>
<ellipse fill="#fdb462" stroke="black" cx="744" cy="-66.8" rx="99.01" ry="18"/>
<text text-anchor="middle" x="744" y="-62.6" font-family="Times,serif" font-size="14.00">UserHighlightsService</text>
</g>
<!-- UserHighlightsService&#45;&gt;UserModule -->
<g id="edge13" class="edge">
<title>UserHighlightsService&#45;&gt;UserModule</title>
<path fill="none" stroke="black" d="M822.51,-77.83C822.51,-77.83 822.51,-103.58 822.51,-103.58"/>
<polygon fill="black" stroke="black" points="819.01,-103.58 822.51,-113.58 826.01,-103.58 819.01,-103.58"/>
</g>
<!-- UserNotificationService -->
<g id="node15" class="node">
<title>UserNotificationService</title>
<ellipse fill="#fdb462" stroke="black" cx="522" cy="-66.8" rx="104.78" ry="18"/>
<text text-anchor="middle" x="522" y="-62.6" font-family="Times,serif" font-size="14.00">UserNotificationService</text>
</g>
<!-- UserNotificationService&#45;&gt;UserModule -->
<g id="edge14" class="edge">
<title>UserNotificationService&#45;&gt;UserModule</title>
<path fill="none" stroke="black" d="M621.69,-72.47C621.69,-86.14 621.69,-119.8 621.69,-119.8 621.69,-119.8 791.94,-119.8 791.94,-119.8"/>
<polygon fill="black" stroke="black" points="791.94,-123.3 801.94,-119.8 791.94,-116.3 791.94,-123.3"/>
</g>
<!-- UserService -->
<g id="node16" class="node">
<title>UserService</title>
<ellipse fill="#fdb462" stroke="black" cx="341" cy="-66.8" rx="58.46" ry="18"/>
<text text-anchor="middle" x="341" y="-62.6" font-family="Times,serif" font-size="14.00">UserService</text>
</g>
<!-- UserService&#45;&gt;UserModule -->
<g id="edge15" class="edge">
<title>UserService&#45;&gt;UserModule</title>
<path fill="none" stroke="black" d="M341,-84.83C341,-101.86 341,-124.8 341,-124.8 341,-124.8 791.59,-124.8 791.59,-124.8"/>
<polygon fill="black" stroke="black" points="791.59,-128.3 801.59,-124.8 791.59,-121.3 791.59,-128.3"/>
</g>
</g>
</svg>
