<?xml version="1.0" encoding="UTF-8" standalone="no"?>
<!DOCTYPE svg PUBLIC "-//W3C//DTD SVG 1.1//EN"
 "http://www.w3.org/Graphics/SVG/1.1/DTD/svg11.dtd">
<!-- Generated by graphviz version 3.0.0 (20220226.1711)
 -->
<!-- Title: dependencies Pages: 1 -->
<svg width="1971pt" height="247pt"
 viewBox="0.00 0.00 1971.00 246.80" xmlns="http://www.w3.org/2000/svg" xmlns:xlink="http://www.w3.org/1999/xlink">
<g id="graph0" class="graph" transform="scale(1 1) rotate(0) translate(4 242.8)">
<title>dependencies</title>
<polygon fill="white" stroke="transparent" points="-4,4 -4,-242.8 1967,-242.8 1967,4 -4,4"/>
<text text-anchor="middle" x="981.5" y="-8.2" font-family="sans-serif" font-size="14.00">dependencies</text>
<g id="clust1" class="cluster">
<title>cluster_UserModule</title>
<polygon fill="none" stroke="black" stroke-dasharray="1,5" points="8,-32.8 8,-230.8 1955,-230.8 1955,-32.8 8,-32.8"/>
</g>
<g id="clust3" class="cluster">
<title>cluster_UserModule_imports</title>
<polygon fill="none" stroke="black" points="1550,-40.8 1550,-92.8 1947,-92.8 1947,-40.8 1550,-40.8"/>
</g>
<g id="clust4" class="cluster">
<title>cluster_UserModule_exports</title>
<polygon fill="none" stroke="black" points="751,-170.8 751,-222.8 1427,-222.8 1427,-170.8 751,-170.8"/>
</g>
<g id="clust6" class="cluster">
<title>cluster_UserModule_providers</title>
<polygon fill="none" stroke="black" points="16,-40.8 16,-92.8 1542,-92.8 1542,-40.8 16,-40.8"/>
</g>
<!-- ApiServicesModule -->
<g id="node1" class="node">
<title>ApiServicesModule</title>
<polygon fill="#8dd3c7" stroke="black" points="1938.98,-84.8 1935.98,-88.8 1914.98,-88.8 1911.98,-84.8 1811.02,-84.8 1811.02,-48.8 1938.98,-48.8 1938.98,-84.8"/>
<text text-anchor="middle" x="1875" y="-62.6" font-family="Times,serif" font-size="14.00">ApiServicesModule</text>
</g>
<!-- UserModule -->
<g id="node4" class="node">
<title>UserModule</title>
<polygon fill="#8dd3c7" stroke="black" points="1135.99,-149.8 1132.99,-153.8 1111.99,-153.8 1108.99,-149.8 1050.01,-149.8 1050.01,-113.8 1135.99,-113.8 1135.99,-149.8"/>
<text text-anchor="middle" x="1093" y="-127.6" font-family="Times,serif" font-size="14.00">UserModule</text>
</g>
<!-- ApiServicesModule&#45;&gt;UserModule -->
<g id="edge1" class="edge">
<title>ApiServicesModule&#45;&gt;UserModule</title>
<path fill="none" stroke="black" d="M1875,-84.83C1875,-105.57 1875,-136.8 1875,-136.8 1875,-136.8 1146.16,-136.8 1146.16,-136.8"/>
<polygon fill="black" stroke="black" points="1146.16,-133.3 1136.16,-136.8 1146.16,-140.3 1146.16,-133.3"/>
</g>
<!-- PullRequestModule -->
<g id="node2" class="node">
<title>PullRequestModule</title>
<polygon fill="#8dd3c7" stroke="black" points="1792.72,-84.8 1789.72,-88.8 1768.72,-88.8 1765.72,-84.8 1665.28,-84.8 1665.28,-48.8 1792.72,-48.8 1792.72,-84.8"/>
<text text-anchor="middle" x="1729" y="-62.6" font-family="Times,serif" font-size="14.00">PullRequestModule</text>
</g>
<!-- PullRequestModule&#45;&gt;UserModule -->
<g id="edge2" class="edge">
<title>PullRequestModule&#45;&gt;UserModule</title>
<path fill="none" stroke="black" d="M1729,-84.91C1729,-104.14 1729,-131.8 1729,-131.8 1729,-131.8 1146.21,-131.8 1146.21,-131.8"/>
<polygon fill="black" stroke="black" points="1146.21,-128.3 1136.21,-131.8 1146.21,-135.3 1146.21,-128.3"/>
</g>
<!-- RepoModule -->
<g id="node3" class="node">
<title>RepoModule</title>
<polygon fill="#8dd3c7" stroke="black" points="1647.6,-84.8 1644.6,-88.8 1623.6,-88.8 1620.6,-84.8 1558.4,-84.8 1558.4,-48.8 1647.6,-48.8 1647.6,-84.8"/>
<text text-anchor="middle" x="1603" y="-62.6" font-family="Times,serif" font-size="14.00">RepoModule</text>
</g>
<!-- RepoModule&#45;&gt;UserModule -->
<g id="edge3" class="edge">
<title>RepoModule&#45;&gt;UserModule</title>
<path fill="none" stroke="black" d="M1603,-85.1C1603,-103.07 1603,-127.8 1603,-127.8 1603,-127.8 1146.04,-127.8 1146.04,-127.8"/>
<polygon fill="black" stroke="black" points="1146.04,-124.3 1136.04,-127.8 1146.04,-131.3 1146.04,-124.3"/>
</g>
<!-- EndorsementService  -->
<g id="node5" class="node">
<title>EndorsementService </title>
<polygon fill="#fb8072" stroke="black" points="1418.85,-214.8 1283.15,-214.8 1283.15,-178.8 1418.85,-178.8 1418.85,-214.8"/>
<text text-anchor="middle" x="1351" y="-192.6" font-family="Times,serif" font-size="14.00">EndorsementService </text>
</g>
<!-- UserModule&#45;&gt;EndorsementService  -->
<g id="edge4" class="edge">
<title>UserModule&#45;&gt;EndorsementService </title>
<path fill="none" stroke="black" stroke-dasharray="5,2" d="M1136.15,-140.8C1199.13,-140.8 1308.81,-140.8 1308.81,-140.8 1308.81,-140.8 1308.81,-168.77 1308.81,-168.77"/>
<polygon fill="black" stroke="black" points="1305.31,-168.77 1308.81,-178.77 1312.31,-168.77 1305.31,-168.77"/>
</g>
<!-- RepoService  -->
<g id="node6" class="node">
<title>RepoService </title>
<polygon fill="#fb8072" stroke="black" points="1265.53,-214.8 1174.47,-214.8 1174.47,-178.8 1265.53,-178.8 1265.53,-214.8"/>
<text text-anchor="middle" x="1220" y="-192.6" font-family="Times,serif" font-size="14.00">RepoService </text>
</g>
<!-- UserModule&#45;&gt;RepoService  -->
<g id="edge5" class="edge">
<title>UserModule&#45;&gt;RepoService </title>
<path fill="none" stroke="black" stroke-dasharray="5,2" d="M1136.04,-145.8C1177.89,-145.8 1235.17,-145.8 1235.17,-145.8 1235.17,-145.8 1235.17,-168.68 1235.17,-168.68"/>
<polygon fill="black" stroke="black" points="1231.67,-168.68 1235.17,-178.68 1238.67,-168.68 1231.67,-168.68"/>
</g>
<!-- UserFollowService  -->
<g id="node7" class="node">
<title>UserFollowService </title>
<polygon fill="#fb8072" stroke="black" points="1156.59,-214.8 1029.41,-214.8 1029.41,-178.8 1156.59,-178.8 1156.59,-214.8"/>
<text text-anchor="middle" x="1093" y="-192.6" font-family="Times,serif" font-size="14.00">UserFollowService </text>
</g>
<!-- UserModule&#45;&gt;UserFollowService  -->
<g id="edge6" class="edge">
<title>UserModule&#45;&gt;UserFollowService </title>
<path fill="none" stroke="black" stroke-dasharray="5,2" d="M1093,-149.91C1093,-149.91 1093,-168.79 1093,-168.79"/>
<polygon fill="black" stroke="black" points="1089.5,-168.79 1093,-178.79 1096.5,-168.79 1089.5,-168.79"/>
</g>
<!-- UserHighlightsService  -->
<g id="node8" class="node">
<title>UserHighlightsService </title>
<polygon fill="#fb8072" stroke="black" points="1011.53,-214.8 864.47,-214.8 864.47,-178.8 1011.53,-178.8 1011.53,-214.8"/>
<text text-anchor="middle" x="938" y="-192.6" font-family="Times,serif" font-size="14.00">UserHighlightsService </text>
</g>
<!-- UserModule&#45;&gt;UserHighlightsService  -->
<g id="edge7" class="edge">
<title>UserModule&#45;&gt;UserHighlightsService </title>
<path fill="none" stroke="black" stroke-dasharray="5,2" d="M1049.91,-145.8C1011.9,-145.8 962.51,-145.8 962.51,-145.8 962.51,-145.8 962.51,-168.68 962.51,-168.68"/>
<polygon fill="black" stroke="black" points="959.01,-168.68 962.51,-178.68 966.01,-168.68 959.01,-168.68"/>
</g>
<!-- UserService  -->
<g id="node9" class="node">
<title>UserService </title>
<polygon fill="#fb8072" stroke="black" points="846.91,-214.8 759.09,-214.8 759.09,-178.8 846.91,-178.8 846.91,-214.8"/>
<text text-anchor="middle" x="803" y="-192.6" font-family="Times,serif" font-size="14.00">UserService </text>
</g>
<!-- UserModule&#45;&gt;UserService  -->
<g id="edge8" class="edge">
<title>UserModule&#45;&gt;UserService </title>
<path fill="none" stroke="black" stroke-dasharray="5,2" d="M1049.94,-140.8C972.86,-140.8 819.31,-140.8 819.31,-140.8 819.31,-140.8 819.31,-168.77 819.31,-168.77"/>
<polygon fill="black" stroke="black" points="815.81,-168.77 819.31,-178.77 822.81,-168.77 815.81,-168.77"/>
</g>
<!-- EndorsementService -->
<g id="node10" class="node">
<title>EndorsementService</title>
<ellipse fill="#fdb462" stroke="black" cx="1443" cy="-66.8" rx="90.89" ry="18"/>
<text text-anchor="middle" x="1443" y="-62.6" font-family="Times,serif" font-size="14.00">EndorsementService</text>
</g>
<!-- EndorsementService&#45;&gt;UserModule -->
<g id="edge9" class="edge">
<title>EndorsementService&#45;&gt;UserModule</title>
<path fill="none" stroke="black" d="M1385.36,-80.93C1385.36,-97.52 1385.36,-122.8 1385.36,-122.8 1385.36,-122.8 1146.14,-122.8 1146.14,-122.8"/>
<polygon fill="black" stroke="black" points="1146.14,-119.3 1136.14,-122.8 1146.14,-126.3 1146.14,-119.3"/>
</g>
<!-- RepoFilterService -->
<g id="node11" class="node">
<title>RepoFilterService</title>
<ellipse fill="#fdb462" stroke="black" cx="1253" cy="-66.8" rx="81.1" ry="18"/>
<text text-anchor="middle" x="1253" y="-62.6" font-family="Times,serif" font-size="14.00">RepoFilterService</text>
</g>
<!-- RepoFilterService&#45;&gt;UserModule -->
<g id="edge10" class="edge">
<title>RepoFilterService&#45;&gt;UserModule</title>
<path fill="none" stroke="black" d="M1204.83,-81.56C1204.83,-96.94 1204.83,-118.8 1204.83,-118.8 1204.83,-118.8 1146.24,-118.8 1146.24,-118.8"/>
<polygon fill="black" stroke="black" points="1146.24,-115.3 1136.24,-118.8 1146.24,-122.3 1146.24,-115.3"/>
</g>
<!-- RepoService -->
<g id="node12" class="node">
<title>RepoService</title>
<ellipse fill="#fdb462" stroke="black" cx="1093" cy="-66.8" rx="60.26" ry="18"/>
<text text-anchor="middle" x="1093" y="-62.6" font-family="Times,serif" font-size="14.00">RepoService</text>
</g>
<!-- RepoService&#45;&gt;UserModule -->
<g id="edge11" class="edge">
<title>RepoService&#45;&gt;UserModule</title>
<path fill="none" stroke="black" d="M1093,-84.91C1093,-84.91 1093,-103.79 1093,-103.79"/>
<polygon fill="black" stroke="black" points="1089.5,-103.79 1093,-113.79 1096.5,-103.79 1089.5,-103.79"/>
</g>
<!-- UserCollaborationService -->
<g id="node13" class="node">
<title>UserCollaborationService</title>
<ellipse fill="#fdb462" stroke="black" cx="903" cy="-66.8" rx="111.16" ry="18"/>
<text text-anchor="middle" x="903" y="-62.6" font-family="Times,serif" font-size="14.00">UserCollaborationService</text>
</g>
<!-- UserCollaborationService&#45;&gt;UserModule -->
<g id="edge12" class="edge">
<title>UserCollaborationService&#45;&gt;UserModule</title>
<path fill="none" stroke="black" d="M913.49,-84.99C913.49,-99.98 913.49,-118.8 913.49,-118.8 913.49,-118.8 1040,-118.8 1040,-118.8"/>
<polygon fill="black" stroke="black" points="1040,-122.3 1050,-118.8 1040,-115.3 1040,-122.3"/>
</g>
<!-- UserFollowService -->
<g id="node14" class="node">
<title>UserFollowService</title>
<ellipse fill="#fdb462" stroke="black" cx="688" cy="-66.8" rx="85.69" ry="18"/>
<text text-anchor="middle" x="688" y="-62.6" font-family="Times,serif" font-size="14.00">UserFollowService</text>
</g>
<!-- UserFollowService&#45;&gt;UserModule -->
<g id="edge13" class="edge">
<title>UserFollowService&#45;&gt;UserModule</title>
<path fill="none" stroke="black" d="M766.32,-74.12C766.32,-89.3 766.32,-122.8 766.32,-122.8 766.32,-122.8 1039.96,-122.8 1039.96,-122.8"/>
<polygon fill="black" stroke="black" points="1039.96,-126.3 1049.96,-122.8 1039.96,-119.3 1039.96,-126.3"/>
</g>
<!-- UserHighlightsService -->
<g id="node15" class="node">
<title>UserHighlightsService</title>
<ellipse fill="#fdb462" stroke="black" cx="485" cy="-66.8" rx="99.01" ry="18"/>
<text text-anchor="middle" x="485" y="-62.6" font-family="Times,serif" font-size="14.00">UserHighlightsService</text>
</g>
<!-- UserHighlightsService&#45;&gt;UserModule -->
<g id="edge14" class="edge">
<title>UserHighlightsService&#45;&gt;UserModule</title>
<path fill="none" stroke="black" d="M485,-85.1C485,-103.07 485,-127.8 485,-127.8 485,-127.8 1039.76,-127.8 1039.76,-127.8"/>
<polygon fill="black" stroke="black" points="1039.76,-131.3 1049.76,-127.8 1039.76,-124.3 1039.76,-131.3"/>
</g>
<!-- UserNotificationService -->
<g id="node16" class="node">
<title>UserNotificationService</title>
<ellipse fill="#fdb462" stroke="black" cx="263" cy="-66.8" rx="104.78" ry="18"/>
<text text-anchor="middle" x="263" y="-62.6" font-family="Times,serif" font-size="14.00">UserNotificationService</text>
</g>
<!-- UserNotificationService&#45;&gt;UserModule -->
<g id="edge15" class="edge">
<title>UserNotificationService&#45;&gt;UserModule</title>
<path fill="none" stroke="black" d="M263,-84.91C263,-104.14 263,-131.8 263,-131.8 263,-131.8 1039.83,-131.8 1039.83,-131.8"/>
<polygon fill="black" stroke="black" points="1039.83,-135.3 1049.83,-131.8 1039.83,-128.3 1039.83,-135.3"/>
</g>
<!-- UserService -->
<g id="node17" class="node">
<title>UserService</title>
<ellipse fill="#fdb462" stroke="black" cx="82" cy="-66.8" rx="58.46" ry="18"/>
<text text-anchor="middle" x="82" y="-62.6" font-family="Times,serif" font-size="14.00">UserService</text>
</g>
<!-- UserService&#45;&gt;UserModule -->
<g id="edge16" class="edge">
<title>UserService&#45;&gt;UserModule</title>
<path fill="none" stroke="black" d="M82,-84.83C82,-105.57 82,-136.8 82,-136.8 82,-136.8 1039.88,-136.8 1039.88,-136.8"/>
<polygon fill="black" stroke="black" points="1039.88,-140.3 1049.88,-136.8 1039.88,-133.3 1039.88,-140.3"/>
</g>
</g>
</svg>
