<?xml version="1.0" encoding="UTF-8" standalone="no"?>
<!DOCTYPE svg PUBLIC "-//W3C//DTD SVG 1.1//EN"
 "http://www.w3.org/Graphics/SVG/1.1/DTD/svg11.dtd">
<!-- Generated by graphviz version 3.0.0 (20220226.1711)
 -->
<!-- Title: dependencies Pages: 1 -->
<svg width="730pt" height="247pt"
 viewBox="0.00 0.00 730.00 246.80" xmlns="http://www.w3.org/2000/svg" xmlns:xlink="http://www.w3.org/1999/xlink">
<g id="graph0" class="graph" transform="scale(1 1) rotate(0) translate(4 242.8)">
<title>dependencies</title>
<polygon fill="white" stroke="transparent" points="-4,4 -4,-242.8 726,-242.8 726,4 -4,4"/>
<text text-anchor="middle" x="361" y="-8.2" font-family="sans-serif" font-size="14.00">dependencies</text>
<g id="clust1" class="cluster">
<title>cluster_UserModule</title>
<polygon fill="none" stroke="black" stroke-dasharray="1,5" points="8,-32.8 8,-230.8 714,-230.8 714,-32.8 8,-32.8"/>
</g>
<g id="clust6" class="cluster">
<title>cluster_UserModule_providers</title>
<polygon fill="none" stroke="black" points="168,-40.8 168,-92.8 706,-92.8 706,-40.8 168,-40.8"/>
</g>
<g id="clust4" class="cluster">
<title>cluster_UserModule_exports</title>
<polygon fill="none" stroke="black" points="134,-170.8 134,-222.8 548,-222.8 548,-170.8 134,-170.8"/>
</g>
<g id="clust3" class="cluster">
<title>cluster_UserModule_imports</title>
<polygon fill="none" stroke="black" points="16,-40.8 16,-92.8 160,-92.8 160,-40.8 16,-40.8"/>
</g>
<!-- PullRequestModule -->
<g id="node1" class="node">
<title>PullRequestModule</title>
<polygon fill="#8dd3c7" stroke="black" points="151.72,-84.8 148.72,-88.8 127.72,-88.8 124.72,-84.8 24.28,-84.8 24.28,-48.8 151.72,-48.8 151.72,-84.8"/>
<text text-anchor="middle" x="88" y="-62.6" font-family="Times,serif" font-size="14.00">PullRequestModule</text>
</g>
<!-- UserModule -->
<g id="node2" class="node">
<title>UserModule</title>
<polygon fill="#8dd3c7" stroke="black" points="363.99,-149.8 360.99,-153.8 339.99,-153.8 336.99,-149.8 278.01,-149.8 278.01,-113.8 363.99,-113.8 363.99,-149.8"/>
<text text-anchor="middle" x="321" y="-127.6" font-family="Times,serif" font-size="14.00">UserModule</text>
</g>
<!-- PullRequestModule&#45;&gt;UserModule -->
<g id="edge1" class="edge">
<title>PullRequestModule&#45;&gt;UserModule</title>
<path fill="none" stroke="black" d="M146.83,-84.82C146.83,-102.17 146.83,-125.8 146.83,-125.8 146.83,-125.8 267.95,-125.8 267.95,-125.8"/>
<polygon fill="black" stroke="black" points="267.95,-129.3 277.95,-125.8 267.95,-122.3 267.95,-129.3"/>
</g>
<!-- UserFollowService  -->
<g id="node3" class="node">
<title>UserFollowService </title>
<polygon fill="#fb8072" stroke="black" points="539.59,-214.8 412.41,-214.8 412.41,-178.8 539.59,-178.8 539.59,-214.8"/>
<text text-anchor="middle" x="476" y="-192.6" font-family="Times,serif" font-size="14.00">UserFollowService </text>
</g>
<!-- UserModule&#45;&gt;UserFollowService  -->
<g id="edge2" class="edge">
<title>UserModule&#45;&gt;UserFollowService </title>
<path fill="none" stroke="black" stroke-dasharray="5,2" d="M364.25,-137.8C405.09,-137.8 460.11,-137.8 460.11,-137.8 460.11,-137.8 460.11,-168.78 460.11,-168.78"/>
<polygon fill="black" stroke="black" points="456.61,-168.78 460.11,-178.78 463.61,-168.78 456.61,-168.78"/>
</g>
<!-- UserHighlightsService  -->
<g id="node4" class="node">
<title>UserHighlightsService </title>
<polygon fill="#fb8072" stroke="black" points="394.53,-214.8 247.47,-214.8 247.47,-178.8 394.53,-178.8 394.53,-214.8"/>
<text text-anchor="middle" x="321" y="-192.6" font-family="Times,serif" font-size="14.00">UserHighlightsService </text>
</g>
<!-- UserModule&#45;&gt;UserHighlightsService  -->
<g id="edge3" class="edge">
<title>UserModule&#45;&gt;UserHighlightsService </title>
<path fill="none" stroke="black" stroke-dasharray="5,2" d="M321,-149.91C321,-149.91 321,-168.79 321,-168.79"/>
<polygon fill="black" stroke="black" points="317.5,-168.79 321,-178.79 324.5,-168.79 317.5,-168.79"/>
</g>
<!-- UserService  -->
<g id="node5" class="node">
<title>UserService </title>
<polygon fill="#fb8072" stroke="black" points="229.91,-214.8 142.09,-214.8 142.09,-178.8 229.91,-178.8 229.91,-214.8"/>
<text text-anchor="middle" x="186" y="-192.6" font-family="Times,serif" font-size="14.00">UserService </text>
</g>
<!-- UserModule&#45;&gt;UserService  -->
<g id="edge4" class="edge">
<title>UserModule&#45;&gt;UserService </title>
<path fill="none" stroke="black" stroke-dasharray="5,2" d="M277.68,-137.8C243.97,-137.8 202.86,-137.8 202.86,-137.8 202.86,-137.8 202.86,-168.78 202.86,-168.78"/>
<polygon fill="black" stroke="black" points="199.36,-168.78 202.86,-178.78 206.36,-168.78 199.36,-168.78"/>
</g>
<!-- UserFollowService -->
<g id="node6" class="node">
<title>UserFollowService</title>
<ellipse fill="#fdb462" stroke="black" cx="612" cy="-66.8" rx="85.69" ry="18"/>
<text text-anchor="middle" x="612" y="-62.6" font-family="Times,serif" font-size="14.00">UserFollowService</text>
</g>
<!-- UserFollowService&#45;&gt;UserModule -->
<g id="edge5" class="edge">
<title>UserFollowService&#45;&gt;UserModule</title>
<path fill="none" stroke="black" d="M533.1,-74.03C533.1,-89.79 533.1,-125.8 533.1,-125.8 533.1,-125.8 374.18,-125.8 374.18,-125.8"/>
<polygon fill="black" stroke="black" points="374.18,-122.3 364.18,-125.8 374.18,-129.3 374.18,-122.3"/>
</g>
<!-- UserHighlightsService -->
<g id="node7" class="node">
<title>UserHighlightsService</title>
<ellipse fill="#fdb462" stroke="black" cx="409" cy="-66.8" rx="99.01" ry="18"/>
<text text-anchor="middle" x="409" y="-62.6" font-family="Times,serif" font-size="14.00">UserHighlightsService</text>
</g>
<!-- UserHighlightsService&#45;&gt;UserModule -->
<g id="edge6" class="edge">
<title>UserHighlightsService&#45;&gt;UserModule</title>
<path fill="none" stroke="black" d="M336.99,-79.33C336.99,-79.33 336.99,-103.65 336.99,-103.65"/>
<polygon fill="black" stroke="black" points="333.49,-103.65 336.99,-113.65 340.49,-103.65 333.49,-103.65"/>
</g>
<!-- UserService -->
<g id="node8" class="node">
<title>UserService</title>
<ellipse fill="#fdb462" stroke="black" cx="234" cy="-66.8" rx="58.46" ry="18"/>
<text text-anchor="middle" x="234" y="-62.6" font-family="Times,serif" font-size="14.00">UserService</text>
</g>
<!-- UserService&#45;&gt;UserModule -->
<g id="edge7" class="edge">
<title>UserService&#45;&gt;UserModule</title>
<path fill="none" stroke="black" d="M285.12,-75.57C285.12,-75.57 285.12,-103.6 285.12,-103.6"/>
<polygon fill="black" stroke="black" points="281.62,-103.6 285.12,-113.6 288.62,-103.6 281.62,-103.6"/>
</g>
</g>
</svg>
