<?xml version="1.0" encoding="UTF-8" standalone="no"?>
<!DOCTYPE svg PUBLIC "-//W3C//DTD SVG 1.1//EN"
 "http://www.w3.org/Graphics/SVG/1.1/DTD/svg11.dtd">
<!-- Generated by graphviz version 3.0.0 (20220226.1711)
 -->
<!-- Title: dependencies Pages: 1 -->
<svg width="2100pt" height="247pt"
 viewBox="0.00 0.00 2100.00 246.80" xmlns="http://www.w3.org/2000/svg" xmlns:xlink="http://www.w3.org/1999/xlink">
<g id="graph0" class="graph" transform="scale(1 1) rotate(0) translate(4 242.8)">
<title>dependencies</title>
<polygon fill="white" stroke="transparent" points="-4,4 -4,-242.8 2096,-242.8 2096,4 -4,4"/>
<text text-anchor="middle" x="1046" y="-8.2" font-family="sans-serif" font-size="14.00">dependencies</text>
<g id="clust1" class="cluster">
<title>cluster_UserModule</title>
<polygon fill="none" stroke="black" stroke-dasharray="1,5" points="8,-32.8 8,-230.8 2084,-230.8 2084,-32.8 8,-32.8"/>
</g>
<g id="clust4" class="cluster">
<title>cluster_UserModule_exports</title>
<polygon fill="none" stroke="black" points="696,-170.8 696,-222.8 1551,-222.8 1551,-170.8 696,-170.8"/>
</g>
<g id="clust3" class="cluster">
<title>cluster_UserModule_imports</title>
<polygon fill="none" stroke="black" points="1786,-40.8 1786,-92.8 2076,-92.8 2076,-40.8 1786,-40.8"/>
</g>
<g id="clust6" class="cluster">
<title>cluster_UserModule_providers</title>
<polygon fill="none" stroke="black" points="16,-40.8 16,-92.8 1778,-92.8 1778,-40.8 16,-40.8"/>
</g>
<!-- ApiServicesModule -->
<g id="node1" class="node">
<title>ApiServicesModule</title>
<polygon fill="#8dd3c7" stroke="black" points="2067.98,-84.8 2064.98,-88.8 2043.98,-88.8 2040.98,-84.8 1940.02,-84.8 1940.02,-48.8 2067.98,-48.8 2067.98,-84.8"/>
<text text-anchor="middle" x="2004" y="-62.6" font-family="Times,serif" font-size="14.00">ApiServicesModule</text>
</g>
<!-- UserModule -->
<g id="node3" class="node">
<title>UserModule</title>
<polygon fill="#8dd3c7" stroke="black" points="1181.99,-149.8 1178.99,-153.8 1157.99,-153.8 1154.99,-149.8 1096.01,-149.8 1096.01,-113.8 1181.99,-113.8 1181.99,-149.8"/>
<text text-anchor="middle" x="1139" y="-127.6" font-family="Times,serif" font-size="14.00">UserModule</text>
</g>
<!-- ApiServicesModule&#45;&gt;UserModule -->
<g id="edge1" class="edge">
<title>ApiServicesModule&#45;&gt;UserModule</title>
<path fill="none" stroke="black" d="M2004,-84.83C2004,-105.57 2004,-136.8 2004,-136.8 2004,-136.8 1192.19,-136.8 1192.19,-136.8"/>
<polygon fill="black" stroke="black" points="1192.19,-133.3 1182.19,-136.8 1192.19,-140.3 1192.19,-133.3"/>
</g>
<!-- PullRequestModule -->
<g id="node2" class="node">
<title>PullRequestModule</title>
<polygon fill="#8dd3c7" stroke="black" points="1921.72,-84.8 1918.72,-88.8 1897.72,-88.8 1894.72,-84.8 1794.28,-84.8 1794.28,-48.8 1921.72,-48.8 1921.72,-84.8"/>
<text text-anchor="middle" x="1858" y="-62.6" font-family="Times,serif" font-size="14.00">PullRequestModule</text>
</g>
<!-- PullRequestModule&#45;&gt;UserModule -->
<g id="edge2" class="edge">
<title>PullRequestModule&#45;&gt;UserModule</title>
<path fill="none" stroke="black" d="M1858,-84.91C1858,-104.14 1858,-131.8 1858,-131.8 1858,-131.8 1192.09,-131.8 1192.09,-131.8"/>
<polygon fill="black" stroke="black" points="1192.09,-128.3 1182.09,-131.8 1192.09,-135.3 1192.09,-128.3"/>
</g>
<!-- EndorsementService  -->
<g id="node4" class="node">
<title>EndorsementService </title>
<polygon fill="#fb8072" stroke="black" points="1542.85,-214.8 1407.15,-214.8 1407.15,-178.8 1542.85,-178.8 1542.85,-214.8"/>
<text text-anchor="middle" x="1475" y="-192.6" font-family="Times,serif" font-size="14.00">EndorsementService </text>
</g>
<!-- UserModule&#45;&gt;EndorsementService  -->
<g id="edge3" class="edge">
<title>UserModule&#45;&gt;EndorsementService </title>
<path fill="none" stroke="black" stroke-dasharray="5,2" d="M1182.27,-140.8C1277.66,-140.8 1497.68,-140.8 1497.68,-140.8 1497.68,-140.8 1497.68,-168.77 1497.68,-168.77"/>
<polygon fill="black" stroke="black" points="1494.18,-168.77 1497.68,-178.77 1501.18,-168.77 1494.18,-168.77"/>
</g>
<!-- RepoService  -->
<g id="node5" class="node">
<title>RepoService </title>
<polygon fill="#fb8072" stroke="black" points="1389.53,-214.8 1298.47,-214.8 1298.47,-178.8 1389.53,-178.8 1389.53,-214.8"/>
<text text-anchor="middle" x="1344" y="-192.6" font-family="Times,serif" font-size="14.00">RepoService </text>
</g>
<!-- UserModule&#45;&gt;RepoService  -->
<g id="edge4" class="edge">
<title>UserModule&#45;&gt;RepoService </title>
<path fill="none" stroke="black" stroke-dasharray="5,2" d="M1182.46,-145.8C1242.62,-145.8 1343.93,-145.8 1343.93,-145.8 1343.93,-145.8 1343.93,-168.68 1343.93,-168.68"/>
<polygon fill="black" stroke="black" points="1340.43,-168.68 1343.93,-178.68 1347.43,-168.68 1340.43,-168.68"/>
</g>
<!-- UserFollowService  -->
<g id="node6" class="node">
<title>UserFollowService </title>
<polygon fill="#fb8072" stroke="black" points="1280.59,-214.8 1153.41,-214.8 1153.41,-178.8 1280.59,-178.8 1280.59,-214.8"/>
<text text-anchor="middle" x="1217" y="-192.6" font-family="Times,serif" font-size="14.00">UserFollowService </text>
</g>
<!-- UserModule&#45;&gt;UserFollowService  -->
<g id="edge5" class="edge">
<title>UserModule&#45;&gt;UserFollowService </title>
<path fill="none" stroke="black" stroke-dasharray="5,2" d="M1167.6,-149.91C1167.6,-149.91 1167.6,-168.79 1167.6,-168.79"/>
<polygon fill="black" stroke="black" points="1164.1,-168.79 1167.6,-178.79 1171.1,-168.79 1164.1,-168.79"/>
</g>
<!-- UserHighlightsService  -->
<g id="node7" class="node">
<title>UserHighlightsService </title>
<polygon fill="#fb8072" stroke="black" points="1135.53,-214.8 988.47,-214.8 988.47,-178.8 1135.53,-178.8 1135.53,-214.8"/>
<text text-anchor="middle" x="1062" y="-192.6" font-family="Times,serif" font-size="14.00">UserHighlightsService </text>
</g>
<!-- UserModule&#45;&gt;UserHighlightsService  -->
<g id="edge6" class="edge">
<title>UserModule&#45;&gt;UserHighlightsService </title>
<path fill="none" stroke="black" stroke-dasharray="5,2" d="M1115.76,-149.91C1115.76,-149.91 1115.76,-168.79 1115.76,-168.79"/>
<polygon fill="black" stroke="black" points="1112.26,-168.79 1115.76,-178.79 1119.26,-168.79 1112.26,-168.79"/>
</g>
<!-- UserOrganizationService  -->
<g id="node8" class="node">
<title>UserOrganizationService </title>
<polygon fill="#fb8072" stroke="black" points="970.5,-214.8 809.5,-214.8 809.5,-178.8 970.5,-178.8 970.5,-214.8"/>
<text text-anchor="middle" x="890" y="-192.6" font-family="Times,serif" font-size="14.00">UserOrganizationService </text>
</g>
<!-- UserModule&#45;&gt;UserOrganizationService  -->
<g id="edge7" class="edge">
<title>UserModule&#45;&gt;UserOrganizationService </title>
<path fill="none" stroke="black" stroke-dasharray="5,2" d="M1095.98,-145.8C1028.27,-145.8 904.45,-145.8 904.45,-145.8 904.45,-145.8 904.45,-168.68 904.45,-168.68"/>
<polygon fill="black" stroke="black" points="900.95,-168.68 904.45,-178.68 907.95,-168.68 900.95,-168.68"/>
</g>
<!-- UserService  -->
<g id="node9" class="node">
<title>UserService </title>
<polygon fill="#fb8072" stroke="black" points="791.91,-214.8 704.09,-214.8 704.09,-178.8 791.91,-178.8 791.91,-214.8"/>
<text text-anchor="middle" x="748" y="-192.6" font-family="Times,serif" font-size="14.00">UserService </text>
</g>
<!-- UserModule&#45;&gt;UserService  -->
<g id="edge8" class="edge">
<title>UserModule&#45;&gt;UserService </title>
<path fill="none" stroke="black" stroke-dasharray="5,2" d="M1095.66,-140.8C993.86,-140.8 748,-140.8 748,-140.8 748,-140.8 748,-168.77 748,-168.77"/>
<polygon fill="black" stroke="black" points="744.5,-168.77 748,-178.77 751.5,-168.77 744.5,-168.77"/>
</g>
<!-- EndorsementService -->
<g id="node10" class="node">
<title>EndorsementService</title>
<ellipse fill="#fdb462" stroke="black" cx="1679" cy="-66.8" rx="90.89" ry="18"/>
<text text-anchor="middle" x="1679" y="-62.6" font-family="Times,serif" font-size="14.00">EndorsementService</text>
</g>
<!-- EndorsementService&#45;&gt;UserModule -->
<g id="edge9" class="edge">
<title>EndorsementService&#45;&gt;UserModule</title>
<path fill="none" stroke="black" d="M1679,-85.1C1679,-103.07 1679,-127.8 1679,-127.8 1679,-127.8 1192.28,-127.8 1192.28,-127.8"/>
<polygon fill="black" stroke="black" points="1192.28,-124.3 1182.28,-127.8 1192.28,-131.3 1192.28,-124.3"/>
</g>
<!-- RepoFilterService -->
<g id="node11" class="node">
<title>RepoFilterService</title>
<ellipse fill="#fdb462" stroke="black" cx="1489" cy="-66.8" rx="81.1" ry="18"/>
<text text-anchor="middle" x="1489" y="-62.6" font-family="Times,serif" font-size="14.00">RepoFilterService</text>
</g>
<!-- RepoFilterService&#45;&gt;UserModule -->
<g id="edge10" class="edge">
<title>RepoFilterService&#45;&gt;UserModule</title>
<path fill="none" stroke="black" d="M1452.69,-83C1452.69,-99.54 1452.69,-122.8 1452.69,-122.8 1452.69,-122.8 1192.29,-122.8 1192.29,-122.8"/>
<polygon fill="black" stroke="black" points="1192.29,-119.3 1182.29,-122.8 1192.29,-126.3 1192.29,-119.3"/>
</g>
<!-- RepoService -->
<g id="node12" class="node">
<title>RepoService</title>
<ellipse fill="#fdb462" stroke="black" cx="1329" cy="-66.8" rx="60.26" ry="18"/>
<text text-anchor="middle" x="1329" y="-62.6" font-family="Times,serif" font-size="14.00">RepoService</text>
</g>
<!-- RepoService&#45;&gt;UserModule -->
<g id="edge11" class="edge">
<title>RepoService&#45;&gt;UserModule</title>
<path fill="none" stroke="black" d="M1274.71,-74.93C1274.71,-89.55 1274.71,-118.8 1274.71,-118.8 1274.71,-118.8 1192.31,-118.8 1192.31,-118.8"/>
<polygon fill="black" stroke="black" points="1192.31,-115.3 1182.31,-118.8 1192.31,-122.3 1192.31,-115.3"/>
</g>
<!-- UserCollaborationService -->
<g id="node13" class="node">
<title>UserCollaborationService</title>
<ellipse fill="#fdb462" stroke="black" cx="1139" cy="-66.8" rx="111.16" ry="18"/>
<text text-anchor="middle" x="1139" y="-62.6" font-family="Times,serif" font-size="14.00">UserCollaborationService</text>
</g>
<!-- UserCollaborationService&#45;&gt;UserModule -->
<g id="edge12" class="edge">
<title>UserCollaborationService&#45;&gt;UserModule</title>
<path fill="none" stroke="black" d="M1139,-84.91C1139,-84.91 1139,-103.79 1139,-103.79"/>
<polygon fill="black" stroke="black" points="1135.5,-103.79 1139,-113.79 1142.5,-103.79 1135.5,-103.79"/>
</g>
<!-- UserFollowService -->
<g id="node14" class="node">
<title>UserFollowService</title>
<ellipse fill="#fdb462" stroke="black" cx="924" cy="-66.8" rx="85.69" ry="18"/>
<text text-anchor="middle" x="924" y="-62.6" font-family="Times,serif" font-size="14.00">UserFollowService</text>
</g>
<!-- UserFollowService&#45;&gt;UserModule -->
<g id="edge13" class="edge">
<title>UserFollowService&#45;&gt;UserModule</title>
<path fill="none" stroke="black" d="M999.04,-75.86C999.04,-90.76 999.04,-118.8 999.04,-118.8 999.04,-118.8 1085.87,-118.8 1085.87,-118.8"/>
<polygon fill="black" stroke="black" points="1085.87,-122.3 1095.87,-118.8 1085.87,-115.3 1085.87,-122.3"/>
</g>
<!-- UserHighlightsService -->
<g id="node15" class="node">
<title>UserHighlightsService</title>
<ellipse fill="#fdb462" stroke="black" cx="721" cy="-66.8" rx="99.01" ry="18"/>
<text text-anchor="middle" x="721" y="-62.6" font-family="Times,serif" font-size="14.00">UserHighlightsService</text>
</g>
<!-- UserHighlightsService&#45;&gt;UserModule -->
<g id="edge14" class="edge">
<title>UserHighlightsService&#45;&gt;UserModule</title>
<path fill="none" stroke="black" d="M814.75,-72.79C814.75,-87.24 814.75,-122.8 814.75,-122.8 814.75,-122.8 1085.94,-122.8 1085.94,-122.8"/>
<polygon fill="black" stroke="black" points="1085.94,-126.3 1095.94,-122.8 1085.94,-119.3 1085.94,-126.3"/>
</g>
<!-- UserNotificationService -->
<g id="node16" class="node">
<title>UserNotificationService</title>
<ellipse fill="#fdb462" stroke="black" cx="499" cy="-66.8" rx="104.78" ry="18"/>
<text text-anchor="middle" x="499" y="-62.6" font-family="Times,serif" font-size="14.00">UserNotificationService</text>
</g>
<!-- UserNotificationService&#45;&gt;UserModule -->
<g id="edge15" class="edge">
<title>UserNotificationService&#45;&gt;UserModule</title>
<path fill="none" stroke="black" d="M499,-85.1C499,-103.07 499,-127.8 499,-127.8 499,-127.8 1085.76,-127.8 1085.76,-127.8"/>
<polygon fill="black" stroke="black" points="1085.76,-131.3 1095.76,-127.8 1085.76,-124.3 1085.76,-131.3"/>
</g>
<!-- UserOrganizationService -->
<g id="node17" class="node">
<title>UserOrganizationService</title>
<ellipse fill="#fdb462" stroke="black" cx="267" cy="-66.8" rx="108.78" ry="18"/>
<text text-anchor="middle" x="267" y="-62.6" font-family="Times,serif" font-size="14.00">UserOrganizationService</text>
</g>
<!-- UserOrganizationService&#45;&gt;UserModule -->
<g id="edge16" class="edge">
<title>UserOrganizationService&#45;&gt;UserModule</title>
<path fill="none" stroke="black" d="M267,-84.91C267,-104.14 267,-131.8 267,-131.8 267,-131.8 1085.76,-131.8 1085.76,-131.8"/>
<polygon fill="black" stroke="black" points="1085.76,-135.3 1095.76,-131.8 1085.76,-128.3 1085.76,-135.3"/>
</g>
<!-- UserService -->
<g id="node18" class="node">
<title>UserService</title>
<ellipse fill="#fdb462" stroke="black" cx="82" cy="-66.8" rx="58.46" ry="18"/>
<text text-anchor="middle" x="82" y="-62.6" font-family="Times,serif" font-size="14.00">UserService</text>
</g>
<!-- UserService&#45;&gt;UserModule -->
<g id="edge17" class="edge">
<title>UserService&#45;&gt;UserModule</title>
<path fill="none" stroke="black" d="M82,-84.83C82,-105.57 82,-136.8 82,-136.8 82,-136.8 1085.93,-136.8 1085.93,-136.8"/>
<polygon fill="black" stroke="black" points="1085.93,-140.3 1095.93,-136.8 1085.93,-133.3 1085.93,-140.3"/>
</g>
</g>
</svg>
