<?xml version="1.0" encoding="UTF-8" standalone="no"?>
<!DOCTYPE svg PUBLIC "-//W3C//DTD SVG 1.1//EN"
 "http://www.w3.org/Graphics/SVG/1.1/DTD/svg11.dtd">
<!-- Generated by graphviz version 3.0.0 (20220226.1711)
 -->
<!-- Title: dependencies Pages: 1 -->
<svg width="540pt" height="247pt"
 viewBox="0.00 0.00 540.00 246.80" xmlns="http://www.w3.org/2000/svg" xmlns:xlink="http://www.w3.org/1999/xlink">
<g id="graph0" class="graph" transform="scale(1 1) rotate(0) translate(4 242.8)">
<title>dependencies</title>
<polygon fill="white" stroke="transparent" points="-4,4 -4,-242.8 536,-242.8 536,4 -4,4"/>
<text text-anchor="middle" x="266" y="-8.2" font-family="sans-serif" font-size="14.00">dependencies</text>
<g id="clust1" class="cluster">
<title>cluster_UserModule</title>
<polygon fill="none" stroke="black" stroke-dasharray="1,5" points="8,-32.8 8,-230.8 524,-230.8 524,-32.8 8,-32.8"/>
</g>
<g id="clust6" class="cluster">
<title>cluster_UserModule_providers</title>
<polygon fill="none" stroke="black" points="168,-40.8 168,-92.8 516,-92.8 516,-40.8 168,-40.8"/>
</g>
<g id="clust4" class="cluster">
<title>cluster_UserModule_exports</title>
<polygon fill="none" stroke="black" points="115,-170.8 115,-222.8 384,-222.8 384,-170.8 115,-170.8"/>
</g>
<g id="clust3" class="cluster">
<title>cluster_UserModule_imports</title>
<polygon fill="none" stroke="black" points="16,-40.8 16,-92.8 160,-92.8 160,-40.8 16,-40.8"/>
</g>
<!-- PullRequestModule -->
<g id="node1" class="node">
<title>PullRequestModule</title>
<polygon fill="#8dd3c7" stroke="black" points="151.72,-84.8 148.72,-88.8 127.72,-88.8 124.72,-84.8 24.28,-84.8 24.28,-48.8 151.72,-48.8 151.72,-84.8"/>
<text text-anchor="middle" x="88" y="-62.6" font-family="Times,serif" font-size="14.00">PullRequestModule</text>
</g>
<!-- UserModule -->
<g id="node2" class="node">
<title>UserModule</title>
<polygon fill="#8dd3c7" stroke="black" points="276.99,-149.8 273.99,-153.8 252.99,-153.8 249.99,-149.8 191.01,-149.8 191.01,-113.8 276.99,-113.8 276.99,-149.8"/>
<text text-anchor="middle" x="234" y="-127.6" font-family="Times,serif" font-size="14.00">UserModule</text>
</g>
<!-- PullRequestModule&#45;&gt;UserModule -->
<g id="edge1" class="edge">
<title>PullRequestModule&#45;&gt;UserModule</title>
<path fill="none" stroke="black" d="M137.33,-84.91C137.33,-104.14 137.33,-131.8 137.33,-131.8 137.33,-131.8 180.75,-131.8 180.75,-131.8"/>
<polygon fill="black" stroke="black" points="180.75,-135.3 190.75,-131.8 180.75,-128.3 180.75,-135.3"/>
</g>
<!-- UserHighlightsService  -->
<g id="node3" class="node">
<title>UserHighlightsService </title>
<polygon fill="#fb8072" stroke="black" points="375.53,-214.8 228.47,-214.8 228.47,-178.8 375.53,-178.8 375.53,-214.8"/>
<text text-anchor="middle" x="302" y="-192.6" font-family="Times,serif" font-size="14.00">UserHighlightsService </text>
</g>
<!-- UserModule&#45;&gt;UserHighlightsService  -->
<g id="edge2" class="edge">
<title>UserModule&#45;&gt;UserHighlightsService </title>
<path fill="none" stroke="black" stroke-dasharray="5,2" d="M252.74,-149.91C252.74,-149.91 252.74,-168.79 252.74,-168.79"/>
<polygon fill="black" stroke="black" points="249.24,-168.79 252.74,-178.79 256.24,-168.79 249.24,-168.79"/>
</g>
<!-- UserService  -->
<g id="node4" class="node">
<title>UserService </title>
<polygon fill="#fb8072" stroke="black" points="210.91,-214.8 123.09,-214.8 123.09,-178.8 210.91,-178.8 210.91,-214.8"/>
<text text-anchor="middle" x="167" y="-192.6" font-family="Times,serif" font-size="14.00">UserService </text>
</g>
<!-- UserModule&#45;&gt;UserService  -->
<g id="edge3" class="edge">
<title>UserModule&#45;&gt;UserService </title>
<path fill="none" stroke="black" stroke-dasharray="5,2" d="M200.98,-149.91C200.98,-149.91 200.98,-168.79 200.98,-168.79"/>
<polygon fill="black" stroke="black" points="197.48,-168.79 200.98,-178.79 204.48,-168.79 197.48,-168.79"/>
</g>
<!-- UserHighlightsService -->
<g id="node5" class="node">
<title>UserHighlightsService</title>
<ellipse fill="#fdb462" stroke="black" cx="409" cy="-66.8" rx="99.01" ry="18"/>
<text text-anchor="middle" x="409" y="-62.6" font-family="Times,serif" font-size="14.00">UserHighlightsService</text>
</g>
<!-- UserHighlightsService&#45;&gt;UserModule -->
<g id="edge4" class="edge">
<title>UserHighlightsService&#45;&gt;UserModule</title>
<path fill="none" stroke="black" d="M342.76,-80.27C342.76,-99.31 342.76,-131.8 342.76,-131.8 342.76,-131.8 287.3,-131.8 287.3,-131.8"/>
<polygon fill="black" stroke="black" points="287.3,-128.3 277.3,-131.8 287.3,-135.3 287.3,-128.3"/>
</g>
<!-- UserService -->
<g id="node6" class="node">
<title>UserService</title>
<ellipse fill="#fdb462" stroke="black" cx="234" cy="-66.8" rx="58.46" ry="18"/>
<text text-anchor="middle" x="234" y="-62.6" font-family="Times,serif" font-size="14.00">UserService</text>
</g>
<!-- UserService&#45;&gt;UserModule -->
<g id="edge5" class="edge">
<title>UserService&#45;&gt;UserModule</title>
<path fill="none" stroke="black" d="M234,-84.91C234,-84.91 234,-103.79 234,-103.79"/>
<polygon fill="black" stroke="black" points="230.5,-103.79 234,-113.79 237.5,-103.79 230.5,-103.79"/>
</g>
</g>
</svg>
