<?xml version="1.0" encoding="UTF-8" standalone="no"?>
<!DOCTYPE svg PUBLIC "-//W3C//DTD SVG 1.1//EN"
 "http://www.w3.org/Graphics/SVG/1.1/DTD/svg11.dtd">
<!-- Generated by graphviz version 3.0.0 (20220226.1711)
 -->
<!-- Title: dependencies Pages: 1 -->
<svg width="2443pt" height="247pt"
 viewBox="0.00 0.00 2443.00 246.80" xmlns="http://www.w3.org/2000/svg" xmlns:xlink="http://www.w3.org/1999/xlink">
<g id="graph0" class="graph" transform="scale(1 1) rotate(0) translate(4 242.8)">
<title>dependencies</title>
<polygon fill="white" stroke="transparent" points="-4,4 -4,-242.8 2439,-242.8 2439,4 -4,4"/>
<text text-anchor="middle" x="1217.5" y="-8.2" font-family="sans-serif" font-size="14.00">dependencies</text>
<g id="clust1" class="cluster">
<title>cluster_UserModule</title>
<polygon fill="none" stroke="black" stroke-dasharray="1,5" points="8,-32.8 8,-230.8 2427,-230.8 2427,-32.8 8,-32.8"/>
</g>
<g id="clust3" class="cluster">
<title>cluster_UserModule_imports</title>
<polygon fill="none" stroke="black" points="1786,-40.8 1786,-92.8 2419,-92.8 2419,-40.8 1786,-40.8"/>
</g>
<g id="clust4" class="cluster">
<title>cluster_UserModule_exports</title>
<polygon fill="none" stroke="black" points="966,-170.8 966,-222.8 1821,-222.8 1821,-170.8 966,-170.8"/>
</g>
<g id="clust6" class="cluster">
<title>cluster_UserModule_providers</title>
<polygon fill="none" stroke="black" points="16,-40.8 16,-92.8 1778,-92.8 1778,-40.8 16,-40.8"/>
</g>
<!-- ApiServicesModule -->
<g id="node1" class="node">
<title>ApiServicesModule</title>
<polygon fill="#8dd3c7" stroke="black" points="2410.98,-84.8 2407.98,-88.8 2386.98,-88.8 2383.98,-84.8 2283.02,-84.8 2283.02,-48.8 2410.98,-48.8 2410.98,-84.8"/>
<text text-anchor="middle" x="2347" y="-62.6" font-family="Times,serif" font-size="14.00">ApiServicesModule</text>
</g>
<!-- UserModule -->
<g id="node6" class="node">
<title>UserModule</title>
<polygon fill="#8dd3c7" stroke="black" points="1451.99,-149.8 1448.99,-153.8 1427.99,-153.8 1424.99,-149.8 1366.01,-149.8 1366.01,-113.8 1451.99,-113.8 1451.99,-149.8"/>
<text text-anchor="middle" x="1409" y="-127.6" font-family="Times,serif" font-size="14.00">UserModule</text>
</g>
<!-- ApiServicesModule&#45;&gt;UserModule -->
<g id="edge1" class="edge">
<title>ApiServicesModule&#45;&gt;UserModule</title>
<path fill="none" stroke="black" d="M2347,-85.08C2347,-106.12 2347,-137.8 2347,-137.8 2347,-137.8 1462.05,-137.8 1462.05,-137.8"/>
<polygon fill="black" stroke="black" points="1462.05,-134.3 1452.05,-137.8 1462.05,-141.3 1462.05,-134.3"/>
</g>
<!-- PullRequestModule -->
<g id="node2" class="node">
<title>PullRequestModule</title>
<polygon fill="#8dd3c7" stroke="black" points="2264.72,-84.8 2261.72,-88.8 2240.72,-88.8 2237.72,-84.8 2137.28,-84.8 2137.28,-48.8 2264.72,-48.8 2264.72,-84.8"/>
<text text-anchor="middle" x="2201" y="-62.6" font-family="Times,serif" font-size="14.00">PullRequestModule</text>
</g>
<!-- PullRequestModule&#45;&gt;UserModule -->
<g id="edge2" class="edge">
<title>PullRequestModule&#45;&gt;UserModule</title>
<path fill="none" stroke="black" d="M2201,-85.11C2201,-104.95 2201,-133.8 2201,-133.8 2201,-133.8 1462.14,-133.8 1462.14,-133.8"/>
<polygon fill="black" stroke="black" points="1462.14,-130.3 1452.14,-133.8 1462.14,-137.3 1462.14,-130.3"/>
</g>
<!-- RepoModule -->
<g id="node3" class="node">
<title>RepoModule</title>
<polygon fill="#8dd3c7" stroke="black" points="2119.6,-84.8 2116.6,-88.8 2095.6,-88.8 2092.6,-84.8 2030.4,-84.8 2030.4,-48.8 2119.6,-48.8 2119.6,-84.8"/>
<text text-anchor="middle" x="2075" y="-62.6" font-family="Times,serif" font-size="14.00">RepoModule</text>
</g>
<!-- RepoModule&#45;&gt;UserModule -->
<g id="edge3" class="edge">
<title>RepoModule&#45;&gt;UserModule</title>
<path fill="none" stroke="black" d="M2075,-85.02C2075,-103.63 2075,-129.8 2075,-129.8 2075,-129.8 1462.18,-129.8 1462.18,-129.8"/>
<polygon fill="black" stroke="black" points="1462.18,-126.3 1452.18,-129.8 1462.18,-133.3 1462.18,-126.3"/>
</g>
<!-- TierModule -->
<g id="node4" class="node">
<title>TierModule</title>
<polygon fill="#8dd3c7" stroke="black" points="2012.37,-84.8 2009.37,-88.8 1988.37,-88.8 1985.37,-84.8 1929.63,-84.8 1929.63,-48.8 2012.37,-48.8 2012.37,-84.8"/>
<text text-anchor="middle" x="1971" y="-62.6" font-family="Times,serif" font-size="14.00">TierModule</text>
</g>
<!-- TierModule&#45;&gt;UserModule -->
<g id="edge4" class="edge">
<title>TierModule&#45;&gt;UserModule</title>
<path fill="none" stroke="black" d="M1971,-84.82C1971,-102.17 1971,-125.8 1971,-125.8 1971,-125.8 1462.17,-125.8 1462.17,-125.8"/>
<polygon fill="black" stroke="black" points="1462.17,-122.3 1452.17,-125.8 1462.17,-129.3 1462.17,-122.3"/>
</g>
<!-- TimescaleModule -->
<g id="node5" class="node">
<title>TimescaleModule</title>
<polygon fill="#8dd3c7" stroke="black" points="1911.58,-84.8 1908.58,-88.8 1887.58,-88.8 1884.58,-84.8 1794.42,-84.8 1794.42,-48.8 1911.58,-48.8 1911.58,-84.8"/>
<text text-anchor="middle" x="1853" y="-62.6" font-family="Times,serif" font-size="14.00">TimescaleModule</text>
</g>
<!-- TimescaleModule&#45;&gt;UserModule -->
<g id="edge5" class="edge">
<title>TimescaleModule&#45;&gt;UserModule</title>
<path fill="none" stroke="black" d="M1803.57,-84.81C1803.57,-100.85 1803.57,-121.8 1803.57,-121.8 1803.57,-121.8 1462.35,-121.8 1462.35,-121.8"/>
<polygon fill="black" stroke="black" points="1462.35,-118.3 1452.35,-121.8 1462.35,-125.3 1462.35,-118.3"/>
</g>
<!-- EndorsementService  -->
<g id="node7" class="node">
<title>EndorsementService </title>
<polygon fill="#fb8072" stroke="black" points="1812.85,-214.8 1677.15,-214.8 1677.15,-178.8 1812.85,-178.8 1812.85,-214.8"/>
<text text-anchor="middle" x="1745" y="-192.6" font-family="Times,serif" font-size="14.00">EndorsementService </text>
</g>
<!-- UserModule&#45;&gt;EndorsementService  -->
<g id="edge6" class="edge">
<title>UserModule&#45;&gt;EndorsementService </title>
<path fill="none" stroke="black" stroke-dasharray="5,2" d="M1452.09,-141.8C1538.26,-141.8 1723.64,-141.8 1723.64,-141.8 1723.64,-141.8 1723.64,-168.79 1723.64,-168.79"/>
<polygon fill="black" stroke="black" points="1720.14,-168.79 1723.64,-178.79 1727.14,-168.79 1720.14,-168.79"/>
</g>
<!-- RepoService  -->
<g id="node8" class="node">
<title>RepoService </title>
<polygon fill="#fb8072" stroke="black" points="1659.53,-214.8 1568.47,-214.8 1568.47,-178.8 1659.53,-178.8 1659.53,-214.8"/>
<text text-anchor="middle" x="1614" y="-192.6" font-family="Times,serif" font-size="14.00">RepoService </text>
</g>
<!-- UserModule&#45;&gt;RepoService  -->
<g id="edge7" class="edge">
<title>UserModule&#45;&gt;RepoService </title>
<path fill="none" stroke="black" stroke-dasharray="5,2" d="M1452.38,-145.8C1502.8,-145.8 1579.18,-145.8 1579.18,-145.8 1579.18,-145.8 1579.18,-168.68 1579.18,-168.68"/>
<polygon fill="black" stroke="black" points="1575.68,-168.68 1579.18,-178.68 1582.68,-168.68 1575.68,-168.68"/>
</g>
<!-- UserFollowService  -->
<g id="node9" class="node">
<title>UserFollowService </title>
<polygon fill="#fb8072" stroke="black" points="1550.59,-214.8 1423.41,-214.8 1423.41,-178.8 1550.59,-178.8 1550.59,-214.8"/>
<text text-anchor="middle" x="1487" y="-192.6" font-family="Times,serif" font-size="14.00">UserFollowService </text>
</g>
<!-- UserModule&#45;&gt;UserFollowService  -->
<g id="edge8" class="edge">
<title>UserModule&#45;&gt;UserFollowService </title>
<path fill="none" stroke="black" stroke-dasharray="5,2" d="M1437.6,-149.91C1437.6,-149.91 1437.6,-168.79 1437.6,-168.79"/>
<polygon fill="black" stroke="black" points="1434.1,-168.79 1437.6,-178.79 1441.1,-168.79 1434.1,-168.79"/>
</g>
<!-- UserHighlightsService  -->
<g id="node10" class="node">
<title>UserHighlightsService </title>
<polygon fill="#fb8072" stroke="black" points="1405.53,-214.8 1258.47,-214.8 1258.47,-178.8 1405.53,-178.8 1405.53,-214.8"/>
<text text-anchor="middle" x="1332" y="-192.6" font-family="Times,serif" font-size="14.00">UserHighlightsService </text>
</g>
<!-- UserModule&#45;&gt;UserHighlightsService  -->
<g id="edge9" class="edge">
<title>UserModule&#45;&gt;UserHighlightsService </title>
<path fill="none" stroke="black" stroke-dasharray="5,2" d="M1385.76,-149.91C1385.76,-149.91 1385.76,-168.79 1385.76,-168.79"/>
<polygon fill="black" stroke="black" points="1382.26,-168.79 1385.76,-178.79 1389.26,-168.79 1382.26,-168.79"/>
</g>
<!-- UserOrganizationService  -->
<g id="node11" class="node">
<title>UserOrganizationService </title>
<polygon fill="#fb8072" stroke="black" points="1240.5,-214.8 1079.5,-214.8 1079.5,-178.8 1240.5,-178.8 1240.5,-214.8"/>
<text text-anchor="middle" x="1160" y="-192.6" font-family="Times,serif" font-size="14.00">UserOrganizationService </text>
</g>
<!-- UserModule&#45;&gt;UserOrganizationService  -->
<g id="edge10" class="edge">
<title>UserModule&#45;&gt;UserOrganizationService </title>
<path fill="none" stroke="black" stroke-dasharray="5,2" d="M1365.91,-145.8C1294.64,-145.8 1160,-145.8 1160,-145.8 1160,-145.8 1160,-168.68 1160,-168.68"/>
<polygon fill="black" stroke="black" points="1156.5,-168.68 1160,-178.68 1163.5,-168.68 1156.5,-168.68"/>
</g>
<!-- UserService  -->
<g id="node12" class="node">
<title>UserService </title>
<polygon fill="#fb8072" stroke="black" points="1061.91,-214.8 974.09,-214.8 974.09,-178.8 1061.91,-178.8 1061.91,-214.8"/>
<text text-anchor="middle" x="1018" y="-192.6" font-family="Times,serif" font-size="14.00">UserService </text>
</g>
<!-- UserModule&#45;&gt;UserService  -->
<g id="edge11" class="edge">
<title>UserModule&#45;&gt;UserService </title>
<path fill="none" stroke="black" stroke-dasharray="5,2" d="M1365.79,-141.8C1269.32,-141.8 1044.81,-141.8 1044.81,-141.8 1044.81,-141.8 1044.81,-168.79 1044.81,-168.79"/>
<polygon fill="black" stroke="black" points="1041.31,-168.79 1044.81,-178.79 1048.31,-168.79 1041.31,-168.79"/>
</g>
<!-- EndorsementService -->
<g id="node13" class="node">
<title>EndorsementService</title>
<ellipse fill="#fdb462" stroke="black" cx="1679" cy="-66.8" rx="90.89" ry="18"/>
<text text-anchor="middle" x="1679" y="-62.6" font-family="Times,serif" font-size="14.00">EndorsementService</text>
</g>
<!-- EndorsementService&#45;&gt;UserModule -->
<g id="edge12" class="edge">
<title>EndorsementService&#45;&gt;UserModule</title>
<path fill="none" stroke="black" d="M1623.78,-81.28C1623.78,-96.36 1623.78,-117.8 1623.78,-117.8 1623.78,-117.8 1462.21,-117.8 1462.21,-117.8"/>
<polygon fill="black" stroke="black" points="1462.21,-114.3 1452.21,-117.8 1462.21,-121.3 1462.21,-114.3"/>
</g>
<!-- RepoFilterService -->
<g id="node14" class="node">
<title>RepoFilterService</title>
<ellipse fill="#fdb462" stroke="black" cx="1489" cy="-66.8" rx="81.1" ry="18"/>
<text text-anchor="middle" x="1489" y="-62.6" font-family="Times,serif" font-size="14.00">RepoFilterService</text>
</g>
<!-- RepoFilterService&#45;&gt;UserModule -->
<g id="edge13" class="edge">
<title>RepoFilterService&#45;&gt;UserModule</title>
<path fill="none" stroke="black" d="M1429.85,-79.33C1429.85,-79.33 1429.85,-103.65 1429.85,-103.65"/>
<polygon fill="black" stroke="black" points="1426.35,-103.65 1429.85,-113.65 1433.35,-103.65 1426.35,-103.65"/>
</g>
<!-- RepoService -->
<g id="node15" class="node">
<title>RepoService</title>
<ellipse fill="#fdb462" stroke="black" cx="1329" cy="-66.8" rx="60.26" ry="18"/>
<text text-anchor="middle" x="1329" y="-62.6" font-family="Times,serif" font-size="14.00">RepoService</text>
</g>
<!-- RepoService&#45;&gt;UserModule -->
<g id="edge14" class="edge">
<title>RepoService&#45;&gt;UserModule</title>
<path fill="none" stroke="black" d="M1377.69,-77.53C1377.69,-77.53 1377.69,-103.67 1377.69,-103.67"/>
<polygon fill="black" stroke="black" points="1374.19,-103.67 1377.69,-113.67 1381.19,-103.67 1374.19,-103.67"/>
</g>
<!-- UserCollaborationService -->
<g id="node16" class="node">
<title>UserCollaborationService</title>
<ellipse fill="#fdb462" stroke="black" cx="1139" cy="-66.8" rx="111.16" ry="18"/>
<text text-anchor="middle" x="1139" y="-62.6" font-family="Times,serif" font-size="14.00">UserCollaborationService</text>
</g>
<!-- UserCollaborationService&#45;&gt;UserModule -->
<g id="edge15" class="edge">
<title>UserCollaborationService&#45;&gt;UserModule</title>
<path fill="none" stroke="black" d="M1245.41,-72.26C1245.41,-85.41 1245.41,-117.8 1245.41,-117.8 1245.41,-117.8 1355.59,-117.8 1355.59,-117.8"/>
<polygon fill="black" stroke="black" points="1355.59,-121.3 1365.59,-117.8 1355.59,-114.3 1355.59,-121.3"/>
</g>
<!-- UserFollowService -->
<g id="node17" class="node">
<title>UserFollowService</title>
<ellipse fill="#fdb462" stroke="black" cx="924" cy="-66.8" rx="85.69" ry="18"/>
<text text-anchor="middle" x="924" y="-62.6" font-family="Times,serif" font-size="14.00">UserFollowService</text>
</g>
<!-- UserFollowService&#45;&gt;UserModule -->
<g id="edge16" class="edge">
<title>UserFollowService&#45;&gt;UserModule</title>
<path fill="none" stroke="black" d="M991.82,-77.93C991.82,-94 991.82,-121.8 991.82,-121.8 991.82,-121.8 1355.93,-121.8 1355.93,-121.8"/>
<polygon fill="black" stroke="black" points="1355.93,-125.3 1365.93,-121.8 1355.93,-118.3 1355.93,-125.3"/>
</g>
<!-- UserHighlightsService -->
<g id="node18" class="node">
<title>UserHighlightsService</title>
<ellipse fill="#fdb462" stroke="black" cx="721" cy="-66.8" rx="99.01" ry="18"/>
<text text-anchor="middle" x="721" y="-62.6" font-family="Times,serif" font-size="14.00">UserHighlightsService</text>
</g>
<!-- UserHighlightsService&#45;&gt;UserModule -->
<g id="edge17" class="edge">
<title>UserHighlightsService&#45;&gt;UserModule</title>
<path fill="none" stroke="black" d="M721,-84.82C721,-102.17 721,-125.8 721,-125.8 721,-125.8 1355.96,-125.8 1355.96,-125.8"/>
<polygon fill="black" stroke="black" points="1355.96,-129.3 1365.96,-125.8 1355.96,-122.3 1355.96,-129.3"/>
</g>
<!-- UserNotificationService -->
<g id="node19" class="node">
<title>UserNotificationService</title>
<ellipse fill="#fdb462" stroke="black" cx="499" cy="-66.8" rx="104.78" ry="18"/>
<text text-anchor="middle" x="499" y="-62.6" font-family="Times,serif" font-size="14.00">UserNotificationService</text>
</g>
<!-- UserNotificationService&#45;&gt;UserModule -->
<g id="edge18" class="edge">
<title>UserNotificationService&#45;&gt;UserModule</title>
<path fill="none" stroke="black" d="M499,-85.02C499,-103.63 499,-129.8 499,-129.8 499,-129.8 1355.72,-129.8 1355.72,-129.8"/>
<polygon fill="black" stroke="black" points="1355.72,-133.3 1365.72,-129.8 1355.72,-126.3 1355.72,-133.3"/>
</g>
<!-- UserOrganizationService -->
<g id="node20" class="node">
<title>UserOrganizationService</title>
<ellipse fill="#fdb462" stroke="black" cx="267" cy="-66.8" rx="108.78" ry="18"/>
<text text-anchor="middle" x="267" y="-62.6" font-family="Times,serif" font-size="14.00">UserOrganizationService</text>
</g>
<!-- UserOrganizationService&#45;&gt;UserModule -->
<g id="edge19" class="edge">
<title>UserOrganizationService&#45;&gt;UserModule</title>
<path fill="none" stroke="black" d="M267,-85.11C267,-104.95 267,-133.8 267,-133.8 267,-133.8 1355.97,-133.8 1355.97,-133.8"/>
<polygon fill="black" stroke="black" points="1355.97,-137.3 1365.97,-133.8 1355.97,-130.3 1355.97,-137.3"/>
</g>
<!-- UserService -->
<g id="node21" class="node">
<title>UserService</title>
<ellipse fill="#fdb462" stroke="black" cx="82" cy="-66.8" rx="58.46" ry="18"/>
<text text-anchor="middle" x="82" y="-62.6" font-family="Times,serif" font-size="14.00">UserService</text>
</g>
<!-- UserService&#45;&gt;UserModule -->
<g id="edge20" class="edge">
<title>UserService&#45;&gt;UserModule</title>
<path fill="none" stroke="black" d="M82,-85.08C82,-106.12 82,-137.8 82,-137.8 82,-137.8 1355.98,-137.8 1355.98,-137.8"/>
<polygon fill="black" stroke="black" points="1355.98,-141.3 1365.98,-137.8 1355.98,-134.3 1355.98,-141.3"/>
</g>
</g>
</svg>
