<?xml version="1.0" encoding="UTF-8" standalone="no"?>
<!DOCTYPE svg PUBLIC "-//W3C//DTD SVG 1.1//EN"
 "http://www.w3.org/Graphics/SVG/1.1/DTD/svg11.dtd">
<!-- Generated by graphviz version 3.0.0 (20220226.1711)
 -->
<!-- Title: dependencies Pages: 1 -->
<svg width="2207pt" height="247pt"
 viewBox="0.00 0.00 2207.00 246.80" xmlns="http://www.w3.org/2000/svg" xmlns:xlink="http://www.w3.org/1999/xlink">
<g id="graph0" class="graph" transform="scale(1 1) rotate(0) translate(4 242.8)">
<title>dependencies</title>
<polygon fill="white" stroke="transparent" points="-4,4 -4,-242.8 2203,-242.8 2203,4 -4,4"/>
<text text-anchor="middle" x="1099.5" y="-8.2" font-family="sans-serif" font-size="14.00">dependencies</text>
<g id="clust1" class="cluster">
<title>cluster_UserModule</title>
<polygon fill="none" stroke="black" stroke-dasharray="1,5" points="8,-32.8 8,-230.8 2191,-230.8 2191,-32.8 8,-32.8"/>
</g>
<g id="clust4" class="cluster">
<title>cluster_UserModule_exports</title>
<polygon fill="none" stroke="black" points="572,-170.8 572,-222.8 1427,-222.8 1427,-170.8 572,-170.8"/>
</g>
<g id="clust6" class="cluster">
<title>cluster_UserModule_providers</title>
<polygon fill="none" stroke="black" points="421,-40.8 421,-92.8 2183,-92.8 2183,-40.8 421,-40.8"/>
</g>
<g id="clust3" class="cluster">
<title>cluster_UserModule_imports</title>
<polygon fill="none" stroke="black" points="16,-40.8 16,-92.8 413,-92.8 413,-40.8 16,-40.8"/>
</g>
<!-- ApiServicesModule -->
<g id="node1" class="node">
<title>ApiServicesModule</title>
<polygon fill="#8dd3c7" stroke="black" points="404.98,-84.8 401.98,-88.8 380.98,-88.8 377.98,-84.8 277.02,-84.8 277.02,-48.8 404.98,-48.8 404.98,-84.8"/>
<text text-anchor="middle" x="341" y="-62.6" font-family="Times,serif" font-size="14.00">ApiServicesModule</text>
</g>
<!-- UserModule -->
<g id="node4" class="node">
<title>UserModule</title>
<polygon fill="#8dd3c7" stroke="black" points="1057.99,-149.8 1054.99,-153.8 1033.99,-153.8 1030.99,-149.8 972.01,-149.8 972.01,-113.8 1057.99,-113.8 1057.99,-149.8"/>
<text text-anchor="middle" x="1015" y="-127.6" font-family="Times,serif" font-size="14.00">UserModule</text>
</g>
<!-- ApiServicesModule&#45;&gt;UserModule -->
<g id="edge1" class="edge">
<title>ApiServicesModule&#45;&gt;UserModule</title>
<path fill="none" stroke="black" d="M341,-85.1C341,-103.07 341,-127.8 341,-127.8 341,-127.8 961.81,-127.8 961.81,-127.8"/>
<polygon fill="black" stroke="black" points="961.81,-131.3 971.81,-127.8 961.81,-124.3 961.81,-131.3"/>
</g>
<!-- PullRequestModule -->
<g id="node2" class="node">
<title>PullRequestModule</title>
<polygon fill="#8dd3c7" stroke="black" points="258.72,-84.8 255.72,-88.8 234.72,-88.8 231.72,-84.8 131.28,-84.8 131.28,-48.8 258.72,-48.8 258.72,-84.8"/>
<text text-anchor="middle" x="195" y="-62.6" font-family="Times,serif" font-size="14.00">PullRequestModule</text>
</g>
<!-- PullRequestModule&#45;&gt;UserModule -->
<g id="edge2" class="edge">
<title>PullRequestModule&#45;&gt;UserModule</title>
<path fill="none" stroke="black" d="M195,-84.91C195,-104.14 195,-131.8 195,-131.8 195,-131.8 961.78,-131.8 961.78,-131.8"/>
<polygon fill="black" stroke="black" points="961.78,-135.3 971.78,-131.8 961.78,-128.3 961.78,-135.3"/>
</g>
<!-- RepoModule -->
<g id="node3" class="node">
<title>RepoModule</title>
<polygon fill="#8dd3c7" stroke="black" points="113.6,-84.8 110.6,-88.8 89.6,-88.8 86.6,-84.8 24.4,-84.8 24.4,-48.8 113.6,-48.8 113.6,-84.8"/>
<text text-anchor="middle" x="69" y="-62.6" font-family="Times,serif" font-size="14.00">RepoModule</text>
</g>
<!-- RepoModule&#45;&gt;UserModule -->
<g id="edge3" class="edge">
<title>RepoModule&#45;&gt;UserModule</title>
<path fill="none" stroke="black" d="M69,-84.83C69,-105.57 69,-136.8 69,-136.8 69,-136.8 961.89,-136.8 961.89,-136.8"/>
<polygon fill="black" stroke="black" points="961.89,-140.3 971.89,-136.8 961.89,-133.3 961.89,-140.3"/>
</g>
<!-- EndorsementService  -->
<g id="node5" class="node">
<title>EndorsementService </title>
<polygon fill="#fb8072" stroke="black" points="1418.85,-214.8 1283.15,-214.8 1283.15,-178.8 1418.85,-178.8 1418.85,-214.8"/>
<text text-anchor="middle" x="1351" y="-192.6" font-family="Times,serif" font-size="14.00">EndorsementService </text>
</g>
<!-- UserModule&#45;&gt;EndorsementService  -->
<g id="edge4" class="edge">
<title>UserModule&#45;&gt;EndorsementService </title>
<path fill="none" stroke="black" stroke-dasharray="5,2" d="M1058.32,-140.8C1148.68,-140.8 1348.96,-140.8 1348.96,-140.8 1348.96,-140.8 1348.96,-168.77 1348.96,-168.77"/>
<polygon fill="black" stroke="black" points="1345.46,-168.77 1348.96,-178.77 1352.46,-168.77 1345.46,-168.77"/>
</g>
<!-- RepoService  -->
<g id="node6" class="node">
<title>RepoService </title>
<polygon fill="#fb8072" stroke="black" points="1265.53,-214.8 1174.47,-214.8 1174.47,-178.8 1265.53,-178.8 1265.53,-214.8"/>
<text text-anchor="middle" x="1220" y="-192.6" font-family="Times,serif" font-size="14.00">RepoService </text>
</g>
<!-- UserModule&#45;&gt;RepoService  -->
<g id="edge5" class="edge">
<title>UserModule&#45;&gt;RepoService </title>
<path fill="none" stroke="black" stroke-dasharray="5,2" d="M1058.31,-145.8C1112.92,-145.8 1199.74,-145.8 1199.74,-145.8 1199.74,-145.8 1199.74,-168.68 1199.74,-168.68"/>
<polygon fill="black" stroke="black" points="1196.24,-168.68 1199.74,-178.68 1203.24,-168.68 1196.24,-168.68"/>
</g>
<!-- UserFollowService  -->
<g id="node7" class="node">
<title>UserFollowService </title>
<polygon fill="#fb8072" stroke="black" points="1156.59,-214.8 1029.41,-214.8 1029.41,-178.8 1156.59,-178.8 1156.59,-214.8"/>
<text text-anchor="middle" x="1093" y="-192.6" font-family="Times,serif" font-size="14.00">UserFollowService </text>
</g>
<!-- UserModule&#45;&gt;UserFollowService  -->
<g id="edge6" class="edge">
<title>UserModule&#45;&gt;UserFollowService </title>
<path fill="none" stroke="black" stroke-dasharray="5,2" d="M1043.6,-149.91C1043.6,-149.91 1043.6,-168.79 1043.6,-168.79"/>
<polygon fill="black" stroke="black" points="1040.1,-168.79 1043.6,-178.79 1047.1,-168.79 1040.1,-168.79"/>
</g>
<!-- UserHighlightsService  -->
<g id="node8" class="node">
<title>UserHighlightsService </title>
<polygon fill="#fb8072" stroke="black" points="1011.53,-214.8 864.47,-214.8 864.47,-178.8 1011.53,-178.8 1011.53,-214.8"/>
<text text-anchor="middle" x="938" y="-192.6" font-family="Times,serif" font-size="14.00">UserHighlightsService </text>
</g>
<!-- UserModule&#45;&gt;UserHighlightsService  -->
<g id="edge7" class="edge">
<title>UserModule&#45;&gt;UserHighlightsService </title>
<path fill="none" stroke="black" stroke-dasharray="5,2" d="M991.76,-149.91C991.76,-149.91 991.76,-168.79 991.76,-168.79"/>
<polygon fill="black" stroke="black" points="988.26,-168.79 991.76,-178.79 995.26,-168.79 988.26,-168.79"/>
</g>
<!-- UserOrganizationService  -->
<g id="node9" class="node">
<title>UserOrganizationService </title>
<polygon fill="#fb8072" stroke="black" points="846.5,-214.8 685.5,-214.8 685.5,-178.8 846.5,-178.8 846.5,-214.8"/>
<text text-anchor="middle" x="766" y="-192.6" font-family="Times,serif" font-size="14.00">UserOrganizationService </text>
</g>
<!-- UserModule&#45;&gt;UserOrganizationService  -->
<g id="edge8" class="edge">
<title>UserModule&#45;&gt;UserOrganizationService </title>
<path fill="none" stroke="black" stroke-dasharray="5,2" d="M971.87,-145.8C915.2,-145.8 822.8,-145.8 822.8,-145.8 822.8,-145.8 822.8,-168.68 822.8,-168.68"/>
<polygon fill="black" stroke="black" points="819.3,-168.68 822.8,-178.68 826.3,-168.68 819.3,-168.68"/>
</g>
<!-- UserService  -->
<g id="node10" class="node">
<title>UserService </title>
<polygon fill="#fb8072" stroke="black" points="667.91,-214.8 580.09,-214.8 580.09,-178.8 667.91,-178.8 667.91,-214.8"/>
<text text-anchor="middle" x="624" y="-192.6" font-family="Times,serif" font-size="14.00">UserService </text>
</g>
<!-- UserModule&#45;&gt;UserService  -->
<g id="edge9" class="edge">
<title>UserModule&#45;&gt;UserService </title>
<path fill="none" stroke="black" stroke-dasharray="5,2" d="M971.66,-140.8C869.86,-140.8 624,-140.8 624,-140.8 624,-140.8 624,-168.77 624,-168.77"/>
<polygon fill="black" stroke="black" points="620.5,-168.77 624,-178.77 627.5,-168.77 620.5,-168.77"/>
</g>
<!-- EndorsementService -->
<g id="node11" class="node">
<title>EndorsementService</title>
<ellipse fill="#fdb462" stroke="black" cx="2084" cy="-66.8" rx="90.89" ry="18"/>
<text text-anchor="middle" x="2084" y="-62.6" font-family="Times,serif" font-size="14.00">EndorsementService</text>
</g>
<!-- EndorsementService&#45;&gt;UserModule -->
<g id="edge10" class="edge">
<title>EndorsementService&#45;&gt;UserModule</title>
<path fill="none" stroke="black" d="M2084,-84.83C2084,-105.57 2084,-136.8 2084,-136.8 2084,-136.8 1068.23,-136.8 1068.23,-136.8"/>
<polygon fill="black" stroke="black" points="1068.23,-133.3 1058.23,-136.8 1068.23,-140.3 1068.23,-133.3"/>
</g>
<!-- RepoFilterService -->
<g id="node12" class="node">
<title>RepoFilterService</title>
<ellipse fill="#fdb462" stroke="black" cx="1894" cy="-66.8" rx="81.1" ry="18"/>
<text text-anchor="middle" x="1894" y="-62.6" font-family="Times,serif" font-size="14.00">RepoFilterService</text>
</g>
<!-- RepoFilterService&#45;&gt;UserModule -->
<g id="edge11" class="edge">
<title>RepoFilterService&#45;&gt;UserModule</title>
<path fill="none" stroke="black" d="M1894,-84.91C1894,-104.14 1894,-131.8 1894,-131.8 1894,-131.8 1067.99,-131.8 1067.99,-131.8"/>
<polygon fill="black" stroke="black" points="1067.99,-128.3 1057.99,-131.8 1067.99,-135.3 1067.99,-128.3"/>
</g>
<!-- RepoService -->
<g id="node13" class="node">
<title>RepoService</title>
<ellipse fill="#fdb462" stroke="black" cx="1734" cy="-66.8" rx="60.26" ry="18"/>
<text text-anchor="middle" x="1734" y="-62.6" font-family="Times,serif" font-size="14.00">RepoService</text>
</g>
<!-- RepoService&#45;&gt;UserModule -->
<g id="edge12" class="edge">
<title>RepoService&#45;&gt;UserModule</title>
<path fill="none" stroke="black" d="M1734,-85.1C1734,-103.07 1734,-127.8 1734,-127.8 1734,-127.8 1068.09,-127.8 1068.09,-127.8"/>
<polygon fill="black" stroke="black" points="1068.09,-124.3 1058.09,-127.8 1068.09,-131.3 1068.09,-124.3"/>
</g>
<!-- UserCollaborationService -->
<g id="node14" class="node">
<title>UserCollaborationService</title>
<ellipse fill="#fdb462" stroke="black" cx="1544" cy="-66.8" rx="111.16" ry="18"/>
<text text-anchor="middle" x="1544" y="-62.6" font-family="Times,serif" font-size="14.00">UserCollaborationService</text>
</g>
<!-- UserCollaborationService&#45;&gt;UserModule -->
<g id="edge13" class="edge">
<title>UserCollaborationService&#45;&gt;UserModule</title>
<path fill="none" stroke="black" d="M1544,-84.83C1544,-101.2 1544,-122.8 1544,-122.8 1544,-122.8 1068.29,-122.8 1068.29,-122.8"/>
<polygon fill="black" stroke="black" points="1068.29,-119.3 1058.29,-122.8 1068.29,-126.3 1068.29,-119.3"/>
</g>
<!-- UserFollowService -->
<g id="node15" class="node">
<title>UserFollowService</title>
<ellipse fill="#fdb462" stroke="black" cx="1329" cy="-66.8" rx="85.69" ry="18"/>
<text text-anchor="middle" x="1329" y="-62.6" font-family="Times,serif" font-size="14.00">UserFollowService</text>
</g>
<!-- UserFollowService&#45;&gt;UserModule -->
<g id="edge14" class="edge">
<title>UserFollowService&#45;&gt;UserModule</title>
<path fill="none" stroke="black" d="M1254.46,-75.86C1254.46,-90.76 1254.46,-118.8 1254.46,-118.8 1254.46,-118.8 1068.09,-118.8 1068.09,-118.8"/>
<polygon fill="black" stroke="black" points="1068.09,-115.3 1058.09,-118.8 1068.09,-122.3 1068.09,-115.3"/>
</g>
<!-- UserHighlightsService -->
<g id="node16" class="node">
<title>UserHighlightsService</title>
<ellipse fill="#fdb462" stroke="black" cx="1126" cy="-66.8" rx="99.01" ry="18"/>
<text text-anchor="middle" x="1126" y="-62.6" font-family="Times,serif" font-size="14.00">UserHighlightsService</text>
</g>
<!-- UserHighlightsService&#45;&gt;UserModule -->
<g id="edge15" class="edge">
<title>UserHighlightsService&#45;&gt;UserModule</title>
<path fill="none" stroke="black" d="M1042.49,-76.67C1042.49,-76.67 1042.49,-103.71 1042.49,-103.71"/>
<polygon fill="black" stroke="black" points="1038.99,-103.71 1042.49,-113.71 1045.99,-103.71 1038.99,-103.71"/>
</g>
<!-- UserNotificationService -->
<g id="node17" class="node">
<title>UserNotificationService</title>
<ellipse fill="#fdb462" stroke="black" cx="904" cy="-66.8" rx="104.78" ry="18"/>
<text text-anchor="middle" x="904" y="-62.6" font-family="Times,serif" font-size="14.00">UserNotificationService</text>
</g>
<!-- UserNotificationService&#45;&gt;UserModule -->
<g id="edge16" class="edge">
<title>UserNotificationService&#45;&gt;UserModule</title>
<path fill="none" stroke="black" d="M990.45,-77.24C990.45,-77.24 990.45,-103.77 990.45,-103.77"/>
<polygon fill="black" stroke="black" points="986.95,-103.77 990.45,-113.77 993.95,-103.77 986.95,-103.77"/>
</g>
<!-- UserOrganizationService -->
<g id="node18" class="node">
<title>UserOrganizationService</title>
<ellipse fill="#fdb462" stroke="black" cx="672" cy="-66.8" rx="108.78" ry="18"/>
<text text-anchor="middle" x="672" y="-62.6" font-family="Times,serif" font-size="14.00">UserOrganizationService</text>
</g>
<!-- UserOrganizationService&#45;&gt;UserModule -->
<g id="edge17" class="edge">
<title>UserOrganizationService&#45;&gt;UserModule</title>
<path fill="none" stroke="black" d="M733.07,-81.84C733.07,-97.2 733.07,-118.8 733.07,-118.8 733.07,-118.8 961.87,-118.8 961.87,-118.8"/>
<polygon fill="black" stroke="black" points="961.87,-122.3 971.87,-118.8 961.87,-115.3 961.87,-122.3"/>
</g>
<!-- UserService -->
<g id="node19" class="node">
<title>UserService</title>
<ellipse fill="#fdb462" stroke="black" cx="487" cy="-66.8" rx="58.46" ry="18"/>
<text text-anchor="middle" x="487" y="-62.6" font-family="Times,serif" font-size="14.00">UserService</text>
</g>
<!-- UserService&#45;&gt;UserModule -->
<g id="edge18" class="edge">
<title>UserService&#45;&gt;UserModule</title>
<path fill="none" stroke="black" d="M487,-84.83C487,-101.2 487,-122.8 487,-122.8 487,-122.8 961.79,-122.8 961.79,-122.8"/>
<polygon fill="black" stroke="black" points="961.79,-126.3 971.79,-122.8 961.79,-119.3 961.79,-126.3"/>
</g>
</g>
</svg>
