<?xml version="1.0" encoding="UTF-8" standalone="no"?>
<!DOCTYPE svg PUBLIC "-//W3C//DTD SVG 1.1//EN"
 "http://www.w3.org/Graphics/SVG/1.1/DTD/svg11.dtd">
<!-- Generated by graphviz version 3.0.0 (20220226.1711)
 -->
<!-- Title: dependencies Pages: 1 -->
<svg width="730pt" height="247pt"
 viewBox="0.00 0.00 730.00 246.80" xmlns="http://www.w3.org/2000/svg" xmlns:xlink="http://www.w3.org/1999/xlink">
<g id="graph0" class="graph" transform="scale(1 1) rotate(0) translate(4 242.8)">
<title>dependencies</title>
<polygon fill="white" stroke="transparent" points="-4,4 -4,-242.8 726,-242.8 726,4 -4,4"/>
<text text-anchor="middle" x="361" y="-8.2" font-family="sans-serif" font-size="14.00">dependencies</text>
<g id="clust1" class="cluster">
<title>cluster_UserModule</title>
<polygon fill="none" stroke="black" stroke-dasharray="1,5" points="8,-32.8 8,-230.8 714,-230.8 714,-32.8 8,-32.8"/>
</g>
<g id="clust3" class="cluster">
<title>cluster_UserModule_imports</title>
<polygon fill="none" stroke="black" points="562,-40.8 562,-92.8 706,-92.8 706,-40.8 562,-40.8"/>
</g>
<g id="clust6" class="cluster">
<title>cluster_UserModule_providers</title>
<polygon fill="none" stroke="black" points="16,-40.8 16,-92.8 554,-92.8 554,-40.8 16,-40.8"/>
</g>
<g id="clust4" class="cluster">
<title>cluster_UserModule_exports</title>
<polygon fill="none" stroke="black" points="171,-170.8 171,-222.8 585,-222.8 585,-170.8 171,-170.8"/>
</g>
<!-- PullRequestModule -->
<g id="node1" class="node">
<title>PullRequestModule</title>
<polygon fill="#8dd3c7" stroke="black" points="697.72,-84.8 694.72,-88.8 673.72,-88.8 670.72,-84.8 570.28,-84.8 570.28,-48.8 697.72,-48.8 697.72,-84.8"/>
<text text-anchor="middle" x="634" y="-62.6" font-family="Times,serif" font-size="14.00">PullRequestModule</text>
</g>
<!-- UserModule -->
<g id="node2" class="node">
<title>UserModule</title>
<polygon fill="#8dd3c7" stroke="black" points="400.99,-149.8 397.99,-153.8 376.99,-153.8 373.99,-149.8 315.01,-149.8 315.01,-113.8 400.99,-113.8 400.99,-149.8"/>
<text text-anchor="middle" x="358" y="-127.6" font-family="Times,serif" font-size="14.00">UserModule</text>
</g>
<!-- PullRequestModule&#45;&gt;UserModule -->
<g id="edge1" class="edge">
<title>PullRequestModule&#45;&gt;UserModule</title>
<path fill="none" stroke="black" d="M637.2,-84.82C637.2,-102.17 637.2,-125.8 637.2,-125.8 637.2,-125.8 411.01,-125.8 411.01,-125.8"/>
<polygon fill="black" stroke="black" points="411.01,-122.3 401.01,-125.8 411.01,-129.3 411.01,-122.3"/>
</g>
<!-- UserFollowService  -->
<g id="node3" class="node">
<title>UserFollowService </title>
<polygon fill="#fb8072" stroke="black" points="576.59,-214.8 449.41,-214.8 449.41,-178.8 576.59,-178.8 576.59,-214.8"/>
<text text-anchor="middle" x="513" y="-192.6" font-family="Times,serif" font-size="14.00">UserFollowService </text>
</g>
<!-- UserModule&#45;&gt;UserFollowService  -->
<g id="edge2" class="edge">
<title>UserModule&#45;&gt;UserFollowService </title>
<path fill="none" stroke="black" stroke-dasharray="5,2" d="M401.34,-137.8C442.26,-137.8 497.4,-137.8 497.4,-137.8 497.4,-137.8 497.4,-168.78 497.4,-168.78"/>
<polygon fill="black" stroke="black" points="493.9,-168.78 497.4,-178.78 500.9,-168.78 493.9,-168.78"/>
</g>
<!-- UserHighlightsService  -->
<g id="node4" class="node">
<title>UserHighlightsService </title>
<polygon fill="#fb8072" stroke="black" points="431.53,-214.8 284.47,-214.8 284.47,-178.8 431.53,-178.8 431.53,-214.8"/>
<text text-anchor="middle" x="358" y="-192.6" font-family="Times,serif" font-size="14.00">UserHighlightsService </text>
</g>
<!-- UserModule&#45;&gt;UserHighlightsService  -->
<g id="edge3" class="edge">
<title>UserModule&#45;&gt;UserHighlightsService </title>
<path fill="none" stroke="black" stroke-dasharray="5,2" d="M358,-149.91C358,-149.91 358,-168.79 358,-168.79"/>
<polygon fill="black" stroke="black" points="354.5,-168.79 358,-178.79 361.5,-168.79 354.5,-168.79"/>
</g>
<!-- UserService  -->
<g id="node5" class="node">
<title>UserService </title>
<polygon fill="#fb8072" stroke="black" points="266.91,-214.8 179.09,-214.8 179.09,-178.8 266.91,-178.8 266.91,-214.8"/>
<text text-anchor="middle" x="223" y="-192.6" font-family="Times,serif" font-size="14.00">UserService </text>
</g>
<!-- UserModule&#45;&gt;UserService  -->
<g id="edge4" class="edge">
<title>UserModule&#45;&gt;UserService </title>
<path fill="none" stroke="black" stroke-dasharray="5,2" d="M314.91,-137.8C275.41,-137.8 223,-137.8 223,-137.8 223,-137.8 223,-168.78 223,-168.78"/>
<polygon fill="black" stroke="black" points="219.5,-168.78 223,-178.78 226.5,-168.78 219.5,-168.78"/>
</g>
<!-- UserFollowService -->
<g id="node6" class="node">
<title>UserFollowService</title>
<ellipse fill="#fdb462" stroke="black" cx="460" cy="-66.8" rx="85.69" ry="18"/>
<text text-anchor="middle" x="460" y="-62.6" font-family="Times,serif" font-size="14.00">UserFollowService</text>
</g>
<!-- UserFollowService&#45;&gt;UserModule -->
<g id="edge5" class="edge">
<title>UserFollowService&#45;&gt;UserModule</title>
<path fill="none" stroke="black" d="M387.7,-76.67C387.7,-76.67 387.7,-103.71 387.7,-103.71"/>
<polygon fill="black" stroke="black" points="384.2,-103.71 387.7,-113.71 391.2,-103.71 384.2,-103.71"/>
</g>
<!-- UserHighlightsService -->
<g id="node7" class="node">
<title>UserHighlightsService</title>
<ellipse fill="#fdb462" stroke="black" cx="257" cy="-66.8" rx="99.01" ry="18"/>
<text text-anchor="middle" x="257" y="-62.6" font-family="Times,serif" font-size="14.00">UserHighlightsService</text>
</g>
<!-- UserHighlightsService&#45;&gt;UserModule -->
<g id="edge6" class="edge">
<title>UserHighlightsService&#45;&gt;UserModule</title>
<path fill="none" stroke="black" d="M335.51,-77.83C335.51,-77.83 335.51,-103.58 335.51,-103.58"/>
<polygon fill="black" stroke="black" points="332.01,-103.58 335.51,-113.58 339.01,-103.58 332.01,-103.58"/>
</g>
<!-- UserService -->
<g id="node8" class="node">
<title>UserService</title>
<ellipse fill="#fdb462" stroke="black" cx="82" cy="-66.8" rx="58.46" ry="18"/>
<text text-anchor="middle" x="82" y="-62.6" font-family="Times,serif" font-size="14.00">UserService</text>
</g>
<!-- UserService&#45;&gt;UserModule -->
<g id="edge7" class="edge">
<title>UserService&#45;&gt;UserModule</title>
<path fill="none" stroke="black" d="M82,-84.82C82,-102.17 82,-125.8 82,-125.8 82,-125.8 304.88,-125.8 304.88,-125.8"/>
<polygon fill="black" stroke="black" points="304.88,-129.3 314.88,-125.8 304.87,-122.3 304.88,-129.3"/>
</g>
</g>
</svg>
