<?xml version="1.0" encoding="UTF-8" standalone="no"?>
<!DOCTYPE svg PUBLIC "-//W3C//DTD SVG 1.1//EN"
 "http://www.w3.org/Graphics/SVG/1.1/DTD/svg11.dtd">
<!-- Generated by graphviz version 3.0.0 (20220226.1711)
 -->
<!-- Title: dependencies Pages: 1 -->
<svg width="1971pt" height="247pt"
 viewBox="0.00 0.00 1971.00 246.80" xmlns="http://www.w3.org/2000/svg" xmlns:xlink="http://www.w3.org/1999/xlink">
<g id="graph0" class="graph" transform="scale(1 1) rotate(0) translate(4 242.8)">
<title>dependencies</title>
<polygon fill="white" stroke="transparent" points="-4,4 -4,-242.8 1967,-242.8 1967,4 -4,4"/>
<text text-anchor="middle" x="981.5" y="-8.2" font-family="sans-serif" font-size="14.00">dependencies</text>
<g id="clust1" class="cluster">
<title>cluster_UserModule</title>
<polygon fill="none" stroke="black" stroke-dasharray="1,5" points="8,-32.8 8,-230.8 1955,-230.8 1955,-32.8 8,-32.8"/>
</g>
<g id="clust4" class="cluster">
<title>cluster_UserModule_exports</title>
<polygon fill="none" stroke="black" points="548,-170.8 548,-222.8 1224,-222.8 1224,-170.8 548,-170.8"/>
</g>
<g id="clust6" class="cluster">
<title>cluster_UserModule_providers</title>
<polygon fill="none" stroke="black" points="421,-40.8 421,-92.8 1947,-92.8 1947,-40.8 421,-40.8"/>
</g>
<g id="clust3" class="cluster">
<title>cluster_UserModule_imports</title>
<polygon fill="none" stroke="black" points="16,-40.8 16,-92.8 413,-92.8 413,-40.8 16,-40.8"/>
</g>
<!-- ApiServicesModule -->
<g id="node1" class="node">
<title>ApiServicesModule</title>
<polygon fill="#8dd3c7" stroke="black" points="404.98,-84.8 401.98,-88.8 380.98,-88.8 377.98,-84.8 277.02,-84.8 277.02,-48.8 404.98,-48.8 404.98,-84.8"/>
<text text-anchor="middle" x="341" y="-62.6" font-family="Times,serif" font-size="14.00">ApiServicesModule</text>
</g>
<!-- UserModule -->
<g id="node4" class="node">
<title>UserModule</title>
<polygon fill="#8dd3c7" stroke="black" points="932.99,-149.8 929.99,-153.8 908.99,-153.8 905.99,-149.8 847.01,-149.8 847.01,-113.8 932.99,-113.8 932.99,-149.8"/>
<text text-anchor="middle" x="890" y="-127.6" font-family="Times,serif" font-size="14.00">UserModule</text>
</g>
<!-- ApiServicesModule&#45;&gt;UserModule -->
<g id="edge1" class="edge">
<title>ApiServicesModule&#45;&gt;UserModule</title>
<path fill="none" stroke="black" d="M341,-85.1C341,-103.07 341,-127.8 341,-127.8 341,-127.8 836.92,-127.8 836.92,-127.8"/>
<polygon fill="black" stroke="black" points="836.92,-131.3 846.92,-127.8 836.92,-124.3 836.92,-131.3"/>
</g>
<!-- PullRequestModule -->
<g id="node2" class="node">
<title>PullRequestModule</title>
<polygon fill="#8dd3c7" stroke="black" points="258.72,-84.8 255.72,-88.8 234.72,-88.8 231.72,-84.8 131.28,-84.8 131.28,-48.8 258.72,-48.8 258.72,-84.8"/>
<text text-anchor="middle" x="195" y="-62.6" font-family="Times,serif" font-size="14.00">PullRequestModule</text>
</g>
<!-- PullRequestModule&#45;&gt;UserModule -->
<g id="edge2" class="edge">
<title>PullRequestModule&#45;&gt;UserModule</title>
<path fill="none" stroke="black" d="M195,-84.91C195,-104.14 195,-131.8 195,-131.8 195,-131.8 836.79,-131.8 836.79,-131.8"/>
<polygon fill="black" stroke="black" points="836.79,-135.3 846.79,-131.8 836.79,-128.3 836.79,-135.3"/>
</g>
<!-- RepoModule -->
<g id="node3" class="node">
<title>RepoModule</title>
<polygon fill="#8dd3c7" stroke="black" points="113.6,-84.8 110.6,-88.8 89.6,-88.8 86.6,-84.8 24.4,-84.8 24.4,-48.8 113.6,-48.8 113.6,-84.8"/>
<text text-anchor="middle" x="69" y="-62.6" font-family="Times,serif" font-size="14.00">RepoModule</text>
</g>
<!-- RepoModule&#45;&gt;UserModule -->
<g id="edge3" class="edge">
<title>RepoModule&#45;&gt;UserModule</title>
<path fill="none" stroke="black" d="M69,-84.83C69,-105.57 69,-136.8 69,-136.8 69,-136.8 836.73,-136.8 836.73,-136.8"/>
<polygon fill="black" stroke="black" points="836.73,-140.3 846.73,-136.8 836.73,-133.3 836.73,-140.3"/>
</g>
<!-- EndorsementService  -->
<g id="node5" class="node">
<title>EndorsementService </title>
<polygon fill="#fb8072" stroke="black" points="1215.85,-214.8 1080.15,-214.8 1080.15,-178.8 1215.85,-178.8 1215.85,-214.8"/>
<text text-anchor="middle" x="1148" y="-192.6" font-family="Times,serif" font-size="14.00">EndorsementService </text>
</g>
<!-- UserModule&#45;&gt;EndorsementService  -->
<g id="edge4" class="edge">
<title>UserModule&#45;&gt;EndorsementService </title>
<path fill="none" stroke="black" stroke-dasharray="5,2" d="M933.09,-140.8C1002.03,-140.8 1129.46,-140.8 1129.46,-140.8 1129.46,-140.8 1129.46,-168.77 1129.46,-168.77"/>
<polygon fill="black" stroke="black" points="1125.96,-168.77 1129.46,-178.77 1132.96,-168.77 1125.96,-168.77"/>
</g>
<!-- RepoService  -->
<g id="node6" class="node">
<title>RepoService </title>
<polygon fill="#fb8072" stroke="black" points="1062.53,-214.8 971.47,-214.8 971.47,-178.8 1062.53,-178.8 1062.53,-214.8"/>
<text text-anchor="middle" x="1017" y="-192.6" font-family="Times,serif" font-size="14.00">RepoService </text>
</g>
<!-- UserModule&#45;&gt;RepoService  -->
<g id="edge5" class="edge">
<title>UserModule&#45;&gt;RepoService </title>
<path fill="none" stroke="black" stroke-dasharray="5,2" d="M933.01,-145.8C956.25,-145.8 980.24,-145.8 980.24,-145.8 980.24,-145.8 980.24,-168.68 980.24,-168.68"/>
<polygon fill="black" stroke="black" points="976.74,-168.68 980.24,-178.68 983.74,-168.68 976.74,-168.68"/>
</g>
<!-- UserFollowService  -->
<g id="node7" class="node">
<title>UserFollowService </title>
<polygon fill="#fb8072" stroke="black" points="953.59,-214.8 826.41,-214.8 826.41,-178.8 953.59,-178.8 953.59,-214.8"/>
<text text-anchor="middle" x="890" y="-192.6" font-family="Times,serif" font-size="14.00">UserFollowService </text>
</g>
<!-- UserModule&#45;&gt;UserFollowService  -->
<g id="edge6" class="edge">
<title>UserModule&#45;&gt;UserFollowService </title>
<path fill="none" stroke="black" stroke-dasharray="5,2" d="M890,-149.91C890,-149.91 890,-168.79 890,-168.79"/>
<polygon fill="black" stroke="black" points="886.5,-168.79 890,-178.79 893.5,-168.79 886.5,-168.79"/>
</g>
<!-- UserHighlightsService  -->
<g id="node8" class="node">
<title>UserHighlightsService </title>
<polygon fill="#fb8072" stroke="black" points="808.53,-214.8 661.47,-214.8 661.47,-178.8 808.53,-178.8 808.53,-214.8"/>
<text text-anchor="middle" x="735" y="-192.6" font-family="Times,serif" font-size="14.00">UserHighlightsService </text>
</g>
<!-- UserModule&#45;&gt;UserHighlightsService  -->
<g id="edge7" class="edge">
<title>UserModule&#45;&gt;UserHighlightsService </title>
<path fill="none" stroke="black" stroke-dasharray="5,2" d="M846.99,-145.8C823.75,-145.8 799.76,-145.8 799.76,-145.8 799.76,-145.8 799.76,-168.68 799.76,-168.68"/>
<polygon fill="black" stroke="black" points="796.26,-168.68 799.76,-178.68 803.26,-168.68 796.26,-168.68"/>
</g>
<!-- UserService  -->
<g id="node9" class="node">
<title>UserService </title>
<polygon fill="#fb8072" stroke="black" points="643.91,-214.8 556.09,-214.8 556.09,-178.8 643.91,-178.8 643.91,-214.8"/>
<text text-anchor="middle" x="600" y="-192.6" font-family="Times,serif" font-size="14.00">UserService </text>
</g>
<!-- UserModule&#45;&gt;UserService  -->
<g id="edge8" class="edge">
<title>UserModule&#45;&gt;UserService </title>
<path fill="none" stroke="black" stroke-dasharray="5,2" d="M846.8,-140.8C766.78,-140.8 603.53,-140.8 603.53,-140.8 603.53,-140.8 603.53,-168.77 603.53,-168.77"/>
<polygon fill="black" stroke="black" points="600.03,-168.77 603.53,-178.77 607.03,-168.77 600.03,-168.77"/>
</g>
<!-- EndorsementService -->
<g id="node10" class="node">
<title>EndorsementService</title>
<ellipse fill="#fdb462" stroke="black" cx="1848" cy="-66.8" rx="90.89" ry="18"/>
<text text-anchor="middle" x="1848" y="-62.6" font-family="Times,serif" font-size="14.00">EndorsementService</text>
</g>
<!-- EndorsementService&#45;&gt;UserModule -->
<g id="edge9" class="edge">
<title>EndorsementService&#45;&gt;UserModule</title>
<path fill="none" stroke="black" d="M1848,-84.83C1848,-105.57 1848,-136.8 1848,-136.8 1848,-136.8 943.02,-136.8 943.02,-136.8"/>
<polygon fill="black" stroke="black" points="943.02,-133.3 933.02,-136.8 943.02,-140.3 943.02,-133.3"/>
</g>
<!-- RepoFilterService -->
<g id="node11" class="node">
<title>RepoFilterService</title>
<ellipse fill="#fdb462" stroke="black" cx="1658" cy="-66.8" rx="81.1" ry="18"/>
<text text-anchor="middle" x="1658" y="-62.6" font-family="Times,serif" font-size="14.00">RepoFilterService</text>
</g>
<!-- RepoFilterService&#45;&gt;UserModule -->
<g id="edge10" class="edge">
<title>RepoFilterService&#45;&gt;UserModule</title>
<path fill="none" stroke="black" d="M1658,-84.91C1658,-104.14 1658,-131.8 1658,-131.8 1658,-131.8 943.21,-131.8 943.21,-131.8"/>
<polygon fill="black" stroke="black" points="943.21,-128.3 933.21,-131.8 943.21,-135.3 943.21,-128.3"/>
</g>
<!-- RepoService -->
<g id="node12" class="node">
<title>RepoService</title>
<ellipse fill="#fdb462" stroke="black" cx="1498" cy="-66.8" rx="60.26" ry="18"/>
<text text-anchor="middle" x="1498" y="-62.6" font-family="Times,serif" font-size="14.00">RepoService</text>
</g>
<!-- RepoService&#45;&gt;UserModule -->
<g id="edge11" class="edge">
<title>RepoService&#45;&gt;UserModule</title>
<path fill="none" stroke="black" d="M1498,-85.1C1498,-103.07 1498,-127.8 1498,-127.8 1498,-127.8 943.24,-127.8 943.24,-127.8"/>
<polygon fill="black" stroke="black" points="943.24,-124.3 933.24,-127.8 943.24,-131.3 943.24,-124.3"/>
</g>
<!-- UserCollaborationService -->
<g id="node13" class="node">
<title>UserCollaborationService</title>
<ellipse fill="#fdb462" stroke="black" cx="1308" cy="-66.8" rx="111.16" ry="18"/>
<text text-anchor="middle" x="1308" y="-62.6" font-family="Times,serif" font-size="14.00">UserCollaborationService</text>
</g>
<!-- UserCollaborationService&#45;&gt;UserModule -->
<g id="edge12" class="edge">
<title>UserCollaborationService&#45;&gt;UserModule</title>
<path fill="none" stroke="black" d="M1206.17,-74.12C1206.17,-89.3 1206.17,-122.8 1206.17,-122.8 1206.17,-122.8 943.3,-122.8 943.3,-122.8"/>
<polygon fill="black" stroke="black" points="943.3,-119.3 933.3,-122.8 943.3,-126.3 943.3,-119.3"/>
</g>
<!-- UserFollowService -->
<g id="node14" class="node">
<title>UserFollowService</title>
<ellipse fill="#fdb462" stroke="black" cx="1093" cy="-66.8" rx="85.69" ry="18"/>
<text text-anchor="middle" x="1093" y="-62.6" font-family="Times,serif" font-size="14.00">UserFollowService</text>
</g>
<!-- UserFollowService&#45;&gt;UserModule -->
<g id="edge13" class="edge">
<title>UserFollowService&#45;&gt;UserModule</title>
<path fill="none" stroke="black" d="M1034.96,-80.19C1034.96,-95.6 1034.96,-118.8 1034.96,-118.8 1034.96,-118.8 943.1,-118.8 943.1,-118.8"/>
<polygon fill="black" stroke="black" points="943.1,-115.3 933.1,-118.8 943.1,-122.3 943.1,-115.3"/>
</g>
<!-- UserHighlightsService -->
<g id="node15" class="node">
<title>UserHighlightsService</title>
<ellipse fill="#fdb462" stroke="black" cx="890" cy="-66.8" rx="99.01" ry="18"/>
<text text-anchor="middle" x="890" y="-62.6" font-family="Times,serif" font-size="14.00">UserHighlightsService</text>
</g>
<!-- UserHighlightsService&#45;&gt;UserModule -->
<g id="edge14" class="edge">
<title>UserHighlightsService&#45;&gt;UserModule</title>
<path fill="none" stroke="black" d="M890,-84.91C890,-84.91 890,-103.79 890,-103.79"/>
<polygon fill="black" stroke="black" points="886.5,-103.79 890,-113.79 893.5,-103.79 886.5,-103.79"/>
</g>
<!-- UserNotificationService -->
<g id="node16" class="node">
<title>UserNotificationService</title>
<ellipse fill="#fdb462" stroke="black" cx="668" cy="-66.8" rx="104.78" ry="18"/>
<text text-anchor="middle" x="668" y="-62.6" font-family="Times,serif" font-size="14.00">UserNotificationService</text>
</g>
<!-- UserNotificationService&#45;&gt;UserModule -->
<g id="edge15" class="edge">
<title>UserNotificationService&#45;&gt;UserModule</title>
<path fill="none" stroke="black" d="M717.19,-82.97C717.19,-98.23 717.19,-118.8 717.19,-118.8 717.19,-118.8 836.84,-118.8 836.84,-118.8"/>
<polygon fill="black" stroke="black" points="836.84,-122.3 846.84,-118.8 836.84,-115.3 836.84,-122.3"/>
</g>
<!-- UserService -->
<g id="node17" class="node">
<title>UserService</title>
<ellipse fill="#fdb462" stroke="black" cx="487" cy="-66.8" rx="58.46" ry="18"/>
<text text-anchor="middle" x="487" y="-62.6" font-family="Times,serif" font-size="14.00">UserService</text>
</g>
<!-- UserService&#45;&gt;UserModule -->
<g id="edge16" class="edge">
<title>UserService&#45;&gt;UserModule</title>
<path fill="none" stroke="black" d="M487,-84.83C487,-101.2 487,-122.8 487,-122.8 487,-122.8 836.87,-122.8 836.87,-122.8"/>
<polygon fill="black" stroke="black" points="836.87,-126.3 846.87,-122.8 836.87,-119.3 836.87,-126.3"/>
</g>
</g>
</svg>
