<?xml version="1.0" encoding="UTF-8" standalone="no"?>
<!DOCTYPE svg PUBLIC "-//W3C//DTD SVG 1.1//EN"
 "http://www.w3.org/Graphics/SVG/1.1/DTD/svg11.dtd">
<!-- Generated by graphviz version 3.0.0 (20220226.1711)
 -->
<!-- Title: dependencies Pages: 1 -->
<svg width="1625pt" height="247pt"
 viewBox="0.00 0.00 1625.00 246.80" xmlns="http://www.w3.org/2000/svg" xmlns:xlink="http://www.w3.org/1999/xlink">
<g id="graph0" class="graph" transform="scale(1 1) rotate(0) translate(4 242.8)">
<title>dependencies</title>
<polygon fill="white" stroke="transparent" points="-4,4 -4,-242.8 1621,-242.8 1621,4 -4,4"/>
<text text-anchor="middle" x="808.5" y="-8.2" font-family="sans-serif" font-size="14.00">dependencies</text>
<g id="clust1" class="cluster">
<title>cluster_UserModule</title>
<polygon fill="none" stroke="black" stroke-dasharray="1,5" points="8,-32.8 8,-230.8 1609,-230.8 1609,-32.8 8,-32.8"/>
</g>
<g id="clust3" class="cluster">
<title>cluster_UserModule_imports</title>
<polygon fill="none" stroke="black" points="1350,-40.8 1350,-92.8 1601,-92.8 1601,-40.8 1350,-40.8"/>
</g>
<g id="clust4" class="cluster">
<title>cluster_UserModule_exports</title>
<polygon fill="none" stroke="black" points="639,-170.8 639,-222.8 1162,-222.8 1162,-170.8 639,-170.8"/>
</g>
<g id="clust6" class="cluster">
<title>cluster_UserModule_providers</title>
<polygon fill="none" stroke="black" points="16,-40.8 16,-92.8 1342,-92.8 1342,-40.8 16,-40.8"/>
</g>
<!-- PullRequestModule -->
<g id="node1" class="node">
<title>PullRequestModule</title>
<polygon fill="#8dd3c7" stroke="black" points="1592.72,-84.8 1589.72,-88.8 1568.72,-88.8 1565.72,-84.8 1465.28,-84.8 1465.28,-48.8 1592.72,-48.8 1592.72,-84.8"/>
<text text-anchor="middle" x="1529" y="-62.6" font-family="Times,serif" font-size="14.00">PullRequestModule</text>
</g>
<!-- UserModule -->
<g id="node3" class="node">
<title>UserModule</title>
<polygon fill="#8dd3c7" stroke="black" points="945.99,-149.8 942.99,-153.8 921.99,-153.8 918.99,-149.8 860.01,-149.8 860.01,-113.8 945.99,-113.8 945.99,-149.8"/>
<text text-anchor="middle" x="903" y="-127.6" font-family="Times,serif" font-size="14.00">UserModule</text>
</g>
<!-- PullRequestModule&#45;&gt;UserModule -->
<g id="edge1" class="edge">
<title>PullRequestModule&#45;&gt;UserModule</title>
<path fill="none" stroke="black" d="M1529,-85.08C1529,-106.12 1529,-137.8 1529,-137.8 1529,-137.8 956.03,-137.8 956.03,-137.8"/>
<polygon fill="black" stroke="black" points="956.03,-134.3 946.03,-137.8 956.03,-141.3 956.03,-134.3"/>
</g>
<!-- RepoModule -->
<g id="node2" class="node">
<title>RepoModule</title>
<polygon fill="#8dd3c7" stroke="black" points="1447.6,-84.8 1444.6,-88.8 1423.6,-88.8 1420.6,-84.8 1358.4,-84.8 1358.4,-48.8 1447.6,-48.8 1447.6,-84.8"/>
<text text-anchor="middle" x="1403" y="-62.6" font-family="Times,serif" font-size="14.00">RepoModule</text>
</g>
<!-- RepoModule&#45;&gt;UserModule -->
<g id="edge2" class="edge">
<title>RepoModule&#45;&gt;UserModule</title>
<path fill="none" stroke="black" d="M1403,-84.91C1403,-104.14 1403,-131.8 1403,-131.8 1403,-131.8 956.06,-131.8 956.06,-131.8"/>
<polygon fill="black" stroke="black" points="956.06,-128.3 946.06,-131.8 956.06,-135.3 956.06,-128.3"/>
</g>
<!-- RepoService  -->
<g id="node4" class="node">
<title>RepoService </title>
<polygon fill="#fb8072" stroke="black" points="1153.53,-214.8 1062.47,-214.8 1062.47,-178.8 1153.53,-178.8 1153.53,-214.8"/>
<text text-anchor="middle" x="1108" y="-192.6" font-family="Times,serif" font-size="14.00">RepoService </text>
</g>
<!-- UserModule&#45;&gt;RepoService  -->
<g id="edge3" class="edge">
<title>UserModule&#45;&gt;RepoService </title>
<path fill="none" stroke="black" stroke-dasharray="5,2" d="M946.46,-143.8C1006.62,-143.8 1107.93,-143.8 1107.93,-143.8 1107.93,-143.8 1107.93,-168.56 1107.93,-168.56"/>
<polygon fill="black" stroke="black" points="1104.43,-168.56 1107.93,-178.56 1111.43,-168.56 1104.43,-168.56"/>
</g>
<!-- UserFollowService  -->
<g id="node5" class="node">
<title>UserFollowService </title>
<polygon fill="#fb8072" stroke="black" points="1044.59,-214.8 917.41,-214.8 917.41,-178.8 1044.59,-178.8 1044.59,-214.8"/>
<text text-anchor="middle" x="981" y="-192.6" font-family="Times,serif" font-size="14.00">UserFollowService </text>
</g>
<!-- UserModule&#45;&gt;UserFollowService  -->
<g id="edge4" class="edge">
<title>UserModule&#45;&gt;UserFollowService </title>
<path fill="none" stroke="black" stroke-dasharray="5,2" d="M931.6,-149.91C931.6,-149.91 931.6,-168.79 931.6,-168.79"/>
<polygon fill="black" stroke="black" points="928.1,-168.79 931.6,-178.79 935.1,-168.79 928.1,-168.79"/>
</g>
<!-- UserHighlightsService  -->
<g id="node6" class="node">
<title>UserHighlightsService </title>
<polygon fill="#fb8072" stroke="black" points="899.53,-214.8 752.47,-214.8 752.47,-178.8 899.53,-178.8 899.53,-214.8"/>
<text text-anchor="middle" x="826" y="-192.6" font-family="Times,serif" font-size="14.00">UserHighlightsService </text>
</g>
<!-- UserModule&#45;&gt;UserHighlightsService  -->
<g id="edge5" class="edge">
<title>UserModule&#45;&gt;UserHighlightsService </title>
<path fill="none" stroke="black" stroke-dasharray="5,2" d="M879.76,-149.91C879.76,-149.91 879.76,-168.79 879.76,-168.79"/>
<polygon fill="black" stroke="black" points="876.26,-168.79 879.76,-178.79 883.26,-168.79 876.26,-168.79"/>
</g>
<!-- UserService  -->
<g id="node7" class="node">
<title>UserService </title>
<polygon fill="#fb8072" stroke="black" points="734.91,-214.8 647.09,-214.8 647.09,-178.8 734.91,-178.8 734.91,-214.8"/>
<text text-anchor="middle" x="691" y="-192.6" font-family="Times,serif" font-size="14.00">UserService </text>
</g>
<!-- UserModule&#45;&gt;UserService  -->
<g id="edge6" class="edge">
<title>UserModule&#45;&gt;UserService </title>
<path fill="none" stroke="black" stroke-dasharray="5,2" d="M859.84,-143.8C797.86,-143.8 691,-143.8 691,-143.8 691,-143.8 691,-168.56 691,-168.56"/>
<polygon fill="black" stroke="black" points="687.5,-168.56 691,-178.56 694.5,-168.56 687.5,-168.56"/>
</g>
<!-- RepoFilterService -->
<g id="node8" class="node">
<title>RepoFilterService</title>
<ellipse fill="#fdb462" stroke="black" cx="1253" cy="-66.8" rx="81.1" ry="18"/>
<text text-anchor="middle" x="1253" y="-62.6" font-family="Times,serif" font-size="14.00">RepoFilterService</text>
</g>
<!-- RepoFilterService&#45;&gt;UserModule -->
<g id="edge7" class="edge">
<title>RepoFilterService&#45;&gt;UserModule</title>
<path fill="none" stroke="black" d="M1253,-84.82C1253,-102.17 1253,-125.8 1253,-125.8 1253,-125.8 956.27,-125.8 956.27,-125.8"/>
<polygon fill="black" stroke="black" points="956.27,-122.3 946.27,-125.8 956.27,-129.3 956.27,-122.3"/>
</g>
<!-- RepoService -->
<g id="node9" class="node">
<title>RepoService</title>
<ellipse fill="#fdb462" stroke="black" cx="1093" cy="-66.8" rx="60.26" ry="18"/>
<text text-anchor="middle" x="1093" y="-62.6" font-family="Times,serif" font-size="14.00">RepoService</text>
</g>
<!-- RepoService&#45;&gt;UserModule -->
<g id="edge8" class="edge">
<title>RepoService&#45;&gt;UserModule</title>
<path fill="none" stroke="black" d="M1038.71,-75.08C1038.71,-89.99 1038.71,-119.8 1038.71,-119.8 1038.71,-119.8 956.31,-119.8 956.31,-119.8"/>
<polygon fill="black" stroke="black" points="956.31,-116.3 946.31,-119.8 956.31,-123.3 956.31,-116.3"/>
</g>
<!-- UserCollaborationService -->
<g id="node10" class="node">
<title>UserCollaborationService</title>
<ellipse fill="#fdb462" stroke="black" cx="903" cy="-66.8" rx="111.16" ry="18"/>
<text text-anchor="middle" x="903" y="-62.6" font-family="Times,serif" font-size="14.00">UserCollaborationService</text>
</g>
<!-- UserCollaborationService&#45;&gt;UserModule -->
<g id="edge9" class="edge">
<title>UserCollaborationService&#45;&gt;UserModule</title>
<path fill="none" stroke="black" d="M903,-84.91C903,-84.91 903,-103.79 903,-103.79"/>
<polygon fill="black" stroke="black" points="899.5,-103.79 903,-113.79 906.5,-103.79 899.5,-103.79"/>
</g>
<!-- UserFollowService -->
<g id="node11" class="node">
<title>UserFollowService</title>
<ellipse fill="#fdb462" stroke="black" cx="688" cy="-66.8" rx="85.69" ry="18"/>
<text text-anchor="middle" x="688" y="-62.6" font-family="Times,serif" font-size="14.00">UserFollowService</text>
</g>
<!-- UserFollowService&#45;&gt;UserModule -->
<g id="edge10" class="edge">
<title>UserFollowService&#45;&gt;UserModule</title>
<path fill="none" stroke="black" d="M763.04,-75.55C763.04,-90.61 763.04,-119.8 763.04,-119.8 763.04,-119.8 849.87,-119.8 849.87,-119.8"/>
<polygon fill="black" stroke="black" points="849.87,-123.3 859.87,-119.8 849.87,-116.3 849.87,-123.3"/>
</g>
<!-- UserHighlightsService -->
<g id="node12" class="node">
<title>UserHighlightsService</title>
<ellipse fill="#fdb462" stroke="black" cx="485" cy="-66.8" rx="99.01" ry="18"/>
<text text-anchor="middle" x="485" y="-62.6" font-family="Times,serif" font-size="14.00">UserHighlightsService</text>
</g>
<!-- UserHighlightsService&#45;&gt;UserModule -->
<g id="edge11" class="edge">
<title>UserHighlightsService&#45;&gt;UserModule</title>
<path fill="none" stroke="black" d="M485,-84.82C485,-102.17 485,-125.8 485,-125.8 485,-125.8 849.84,-125.8 849.84,-125.8"/>
<polygon fill="black" stroke="black" points="849.84,-129.3 859.84,-125.8 849.84,-122.3 849.84,-129.3"/>
</g>
<!-- UserNotificationService -->
<g id="node13" class="node">
<title>UserNotificationService</title>
<ellipse fill="#fdb462" stroke="black" cx="263" cy="-66.8" rx="104.78" ry="18"/>
<text text-anchor="middle" x="263" y="-62.6" font-family="Times,serif" font-size="14.00">UserNotificationService</text>
</g>
<!-- UserNotificationService&#45;&gt;UserModule -->
<g id="edge12" class="edge">
<title>UserNotificationService&#45;&gt;UserModule</title>
<path fill="none" stroke="black" d="M263,-84.91C263,-104.14 263,-131.8 263,-131.8 263,-131.8 849.76,-131.8 849.76,-131.8"/>
<polygon fill="black" stroke="black" points="849.76,-135.3 859.76,-131.8 849.76,-128.3 849.76,-135.3"/>
</g>
<!-- UserService -->
<g id="node14" class="node">
<title>UserService</title>
<ellipse fill="#fdb462" stroke="black" cx="82" cy="-66.8" rx="58.46" ry="18"/>
<text text-anchor="middle" x="82" y="-62.6" font-family="Times,serif" font-size="14.00">UserService</text>
</g>
<!-- UserService&#45;&gt;UserModule -->
<g id="edge13" class="edge">
<title>UserService&#45;&gt;UserModule</title>
<path fill="none" stroke="black" d="M82,-85.08C82,-106.12 82,-137.8 82,-137.8 82,-137.8 849.73,-137.8 849.73,-137.8"/>
<polygon fill="black" stroke="black" points="849.73,-141.3 859.73,-137.8 849.73,-134.3 849.73,-141.3"/>
</g>
</g>
</svg>
