<?xml version="1.0" encoding="UTF-8" standalone="no"?>
<!DOCTYPE svg PUBLIC "-//W3C//DTD SVG 1.1//EN"
 "http://www.w3.org/Graphics/SVG/1.1/DTD/svg11.dtd">
<!-- Generated by graphviz version 3.0.0 (20220226.1711)
 -->
<!-- Title: dependencies Pages: 1 -->
<svg width="1384pt" height="247pt"
 viewBox="0.00 0.00 1384.00 246.80" xmlns="http://www.w3.org/2000/svg" xmlns:xlink="http://www.w3.org/1999/xlink">
<g id="graph0" class="graph" transform="scale(1 1) rotate(0) translate(4 242.8)">
<title>dependencies</title>
<polygon fill="white" stroke="transparent" points="-4,4 -4,-242.8 1380,-242.8 1380,4 -4,4"/>
<text text-anchor="middle" x="688" y="-8.2" font-family="sans-serif" font-size="14.00">dependencies</text>
<g id="clust1" class="cluster">
<title>cluster_UserModule</title>
<polygon fill="none" stroke="black" stroke-dasharray="1,5" points="8,-32.8 8,-230.8 1368,-230.8 1368,-32.8 8,-32.8"/>
</g>
<g id="clust3" class="cluster">
<title>cluster_UserModule_imports</title>
<polygon fill="none" stroke="black" points="1109,-40.8 1109,-92.8 1360,-92.8 1360,-40.8 1109,-40.8"/>
</g>
<g id="clust4" class="cluster">
<title>cluster_UserModule_exports</title>
<polygon fill="none" stroke="black" points="506,-170.8 506,-222.8 1029,-222.8 1029,-170.8 506,-170.8"/>
</g>
<g id="clust6" class="cluster">
<title>cluster_UserModule_providers</title>
<polygon fill="none" stroke="black" points="16,-40.8 16,-92.8 1101,-92.8 1101,-40.8 16,-40.8"/>
</g>
<!-- PullRequestModule -->
<g id="node1" class="node">
<title>PullRequestModule</title>
<polygon fill="#8dd3c7" stroke="black" points="1351.72,-84.8 1348.72,-88.8 1327.72,-88.8 1324.72,-84.8 1224.28,-84.8 1224.28,-48.8 1351.72,-48.8 1351.72,-84.8"/>
<text text-anchor="middle" x="1288" y="-62.6" font-family="Times,serif" font-size="14.00">PullRequestModule</text>
</g>
<!-- UserModule -->
<g id="node3" class="node">
<title>UserModule</title>
<polygon fill="#8dd3c7" stroke="black" points="812.99,-149.8 809.99,-153.8 788.99,-153.8 785.99,-149.8 727.01,-149.8 727.01,-113.8 812.99,-113.8 812.99,-149.8"/>
<text text-anchor="middle" x="770" y="-127.6" font-family="Times,serif" font-size="14.00">UserModule</text>
</g>
<!-- PullRequestModule&#45;&gt;UserModule -->
<g id="edge1" class="edge">
<title>PullRequestModule&#45;&gt;UserModule</title>
<path fill="none" stroke="black" d="M1288,-84.93C1288,-105.37 1288,-135.8 1288,-135.8 1288,-135.8 823.27,-135.8 823.27,-135.8"/>
<polygon fill="black" stroke="black" points="823.27,-132.3 813.27,-135.8 823.27,-139.3 823.27,-132.3"/>
</g>
<!-- RepoModule -->
<g id="node2" class="node">
<title>RepoModule</title>
<polygon fill="#8dd3c7" stroke="black" points="1206.6,-84.8 1203.6,-88.8 1182.6,-88.8 1179.6,-84.8 1117.4,-84.8 1117.4,-48.8 1206.6,-48.8 1206.6,-84.8"/>
<text text-anchor="middle" x="1162" y="-62.6" font-family="Times,serif" font-size="14.00">RepoModule</text>
</g>
<!-- RepoModule&#45;&gt;UserModule -->
<g id="edge2" class="edge">
<title>RepoModule&#45;&gt;UserModule</title>
<path fill="none" stroke="black" d="M1162,-85.07C1162,-103.36 1162,-128.8 1162,-128.8 1162,-128.8 823.07,-128.8 823.07,-128.8"/>
<polygon fill="black" stroke="black" points="823.07,-125.3 813.07,-128.8 823.07,-132.3 823.07,-125.3"/>
</g>
<!-- RepoService  -->
<g id="node4" class="node">
<title>RepoService </title>
<polygon fill="#fb8072" stroke="black" points="1020.53,-214.8 929.47,-214.8 929.47,-178.8 1020.53,-178.8 1020.53,-214.8"/>
<text text-anchor="middle" x="975" y="-192.6" font-family="Times,serif" font-size="14.00">RepoService </text>
</g>
<!-- UserModule&#45;&gt;RepoService  -->
<g id="edge3" class="edge">
<title>UserModule&#45;&gt;RepoService </title>
<path fill="none" stroke="black" stroke-dasharray="5,2" d="M813.05,-142.8C877.25,-142.8 990.58,-142.8 990.58,-142.8 990.58,-142.8 990.58,-168.52 990.58,-168.52"/>
<polygon fill="black" stroke="black" points="987.08,-168.52 990.58,-178.52 994.08,-168.52 987.08,-168.52"/>
</g>
<!-- UserFollowService  -->
<g id="node5" class="node">
<title>UserFollowService </title>
<polygon fill="#fb8072" stroke="black" points="911.59,-214.8 784.41,-214.8 784.41,-178.8 911.59,-178.8 911.59,-214.8"/>
<text text-anchor="middle" x="848" y="-192.6" font-family="Times,serif" font-size="14.00">UserFollowService </text>
</g>
<!-- UserModule&#45;&gt;UserFollowService  -->
<g id="edge4" class="edge">
<title>UserModule&#45;&gt;UserFollowService </title>
<path fill="none" stroke="black" stroke-dasharray="5,2" d="M798.6,-149.91C798.6,-149.91 798.6,-168.79 798.6,-168.79"/>
<polygon fill="black" stroke="black" points="795.1,-168.79 798.6,-178.79 802.1,-168.79 795.1,-168.79"/>
</g>
<!-- UserHighlightsService  -->
<g id="node6" class="node">
<title>UserHighlightsService </title>
<polygon fill="#fb8072" stroke="black" points="766.53,-214.8 619.47,-214.8 619.47,-178.8 766.53,-178.8 766.53,-214.8"/>
<text text-anchor="middle" x="693" y="-192.6" font-family="Times,serif" font-size="14.00">UserHighlightsService </text>
</g>
<!-- UserModule&#45;&gt;UserHighlightsService  -->
<g id="edge5" class="edge">
<title>UserModule&#45;&gt;UserHighlightsService </title>
<path fill="none" stroke="black" stroke-dasharray="5,2" d="M746.76,-149.91C746.76,-149.91 746.76,-168.79 746.76,-168.79"/>
<polygon fill="black" stroke="black" points="743.26,-168.79 746.76,-178.79 750.26,-168.79 743.26,-168.79"/>
</g>
<!-- UserService  -->
<g id="node7" class="node">
<title>UserService </title>
<polygon fill="#fb8072" stroke="black" points="601.91,-214.8 514.09,-214.8 514.09,-178.8 601.91,-178.8 601.91,-214.8"/>
<text text-anchor="middle" x="558" y="-192.6" font-family="Times,serif" font-size="14.00">UserService </text>
</g>
<!-- UserModule&#45;&gt;UserService  -->
<g id="edge6" class="edge">
<title>UserModule&#45;&gt;UserService </title>
<path fill="none" stroke="black" stroke-dasharray="5,2" d="M726.7,-142.8C674.29,-142.8 592.98,-142.8 592.98,-142.8 592.98,-142.8 592.98,-168.52 592.98,-168.52"/>
<polygon fill="black" stroke="black" points="589.48,-168.52 592.98,-178.52 596.48,-168.52 589.48,-168.52"/>
</g>
<!-- RepoFilterService -->
<g id="node8" class="node">
<title>RepoFilterService</title>
<ellipse fill="#fdb462" stroke="black" cx="1012" cy="-66.8" rx="81.1" ry="18"/>
<text text-anchor="middle" x="1012" y="-62.6" font-family="Times,serif" font-size="14.00">RepoFilterService</text>
</g>
<!-- RepoFilterService&#45;&gt;UserModule -->
<g id="edge7" class="edge">
<title>RepoFilterService&#45;&gt;UserModule</title>
<path fill="none" stroke="black" d="M960.64,-80.96C960.64,-97.26 960.64,-121.8 960.64,-121.8 960.64,-121.8 823.26,-121.8 823.26,-121.8"/>
<polygon fill="black" stroke="black" points="823.26,-118.3 813.26,-121.8 823.26,-125.3 823.26,-118.3"/>
</g>
<!-- RepoService -->
<g id="node9" class="node">
<title>RepoService</title>
<ellipse fill="#fdb462" stroke="black" cx="852" cy="-66.8" rx="60.26" ry="18"/>
<text text-anchor="middle" x="852" y="-62.6" font-family="Times,serif" font-size="14.00">RepoService</text>
</g>
<!-- RepoService&#45;&gt;UserModule -->
<g id="edge8" class="edge">
<title>RepoService&#45;&gt;UserModule</title>
<path fill="none" stroke="black" d="M802.31,-77.24C802.31,-77.24 802.31,-103.77 802.31,-103.77"/>
<polygon fill="black" stroke="black" points="798.81,-103.77 802.31,-113.77 805.81,-103.77 798.81,-103.77"/>
</g>
<!-- UserFollowService -->
<g id="node10" class="node">
<title>UserFollowService</title>
<ellipse fill="#fdb462" stroke="black" cx="688" cy="-66.8" rx="85.69" ry="18"/>
<text text-anchor="middle" x="688" y="-62.6" font-family="Times,serif" font-size="14.00">UserFollowService</text>
</g>
<!-- UserFollowService&#45;&gt;UserModule -->
<g id="edge9" class="edge">
<title>UserFollowService&#45;&gt;UserModule</title>
<path fill="none" stroke="black" d="M750.3,-79.33C750.3,-79.33 750.3,-103.65 750.3,-103.65"/>
<polygon fill="black" stroke="black" points="746.8,-103.65 750.3,-113.65 753.8,-103.65 746.8,-103.65"/>
</g>
<!-- UserHighlightsService -->
<g id="node11" class="node">
<title>UserHighlightsService</title>
<ellipse fill="#fdb462" stroke="black" cx="485" cy="-66.8" rx="99.01" ry="18"/>
<text text-anchor="middle" x="485" y="-62.6" font-family="Times,serif" font-size="14.00">UserHighlightsService</text>
</g>
<!-- UserHighlightsService&#45;&gt;UserModule -->
<g id="edge10" class="edge">
<title>UserHighlightsService&#45;&gt;UserModule</title>
<path fill="none" stroke="black" d="M549.02,-80.68C549.02,-96.97 549.02,-121.8 549.02,-121.8 549.02,-121.8 716.87,-121.8 716.87,-121.8"/>
<polygon fill="black" stroke="black" points="716.87,-125.3 726.87,-121.8 716.87,-118.3 716.87,-125.3"/>
</g>
<!-- UserNotificationService -->
<g id="node12" class="node">
<title>UserNotificationService</title>
<ellipse fill="#fdb462" stroke="black" cx="263" cy="-66.8" rx="104.78" ry="18"/>
<text text-anchor="middle" x="263" y="-62.6" font-family="Times,serif" font-size="14.00">UserNotificationService</text>
</g>
<!-- UserNotificationService&#45;&gt;UserModule -->
<g id="edge11" class="edge">
<title>UserNotificationService&#45;&gt;UserModule</title>
<path fill="none" stroke="black" d="M263,-85.07C263,-103.36 263,-128.8 263,-128.8 263,-128.8 716.77,-128.8 716.77,-128.8"/>
<polygon fill="black" stroke="black" points="716.77,-132.3 726.77,-128.8 716.77,-125.3 716.77,-132.3"/>
</g>
<!-- UserService -->
<g id="node13" class="node">
<title>UserService</title>
<ellipse fill="#fdb462" stroke="black" cx="82" cy="-66.8" rx="58.46" ry="18"/>
<text text-anchor="middle" x="82" y="-62.6" font-family="Times,serif" font-size="14.00">UserService</text>
</g>
<!-- UserService&#45;&gt;UserModule -->
<g id="edge12" class="edge">
<title>UserService&#45;&gt;UserModule</title>
<path fill="none" stroke="black" d="M82,-84.93C82,-105.37 82,-135.8 82,-135.8 82,-135.8 716.96,-135.8 716.96,-135.8"/>
<polygon fill="black" stroke="black" points="716.96,-139.3 726.96,-135.8 716.96,-132.3 716.96,-139.3"/>
</g>
</g>
</svg>
