<?xml version="1.0" encoding="UTF-8" standalone="no"?>
<!DOCTYPE svg PUBLIC "-//W3C//DTD SVG 1.1//EN"
 "http://www.w3.org/Graphics/SVG/1.1/DTD/svg11.dtd">
<!-- Generated by graphviz version 3.0.0 (20220226.1711)
 -->
<!-- Title: dependencies Pages: 1 -->
<svg width="2100pt" height="247pt"
 viewBox="0.00 0.00 2100.00 246.80" xmlns="http://www.w3.org/2000/svg" xmlns:xlink="http://www.w3.org/1999/xlink">
<g id="graph0" class="graph" transform="scale(1 1) rotate(0) translate(4 242.8)">
<title>dependencies</title>
<polygon fill="white" stroke="transparent" points="-4,4 -4,-242.8 2096,-242.8 2096,4 -4,4"/>
<text text-anchor="middle" x="1046" y="-8.2" font-family="sans-serif" font-size="14.00">dependencies</text>
<g id="clust1" class="cluster">
<title>cluster_UserModule</title>
<polygon fill="none" stroke="black" stroke-dasharray="1,5" points="8,-32.8 8,-230.8 2084,-230.8 2084,-32.8 8,-32.8"/>
</g>
<g id="clust4" class="cluster">
<title>cluster_UserModule_exports</title>
<polygon fill="none" stroke="black" points="576,-170.8 576,-222.8 1431,-222.8 1431,-170.8 576,-170.8"/>
</g>
<g id="clust6" class="cluster">
<title>cluster_UserModule_providers</title>
<polygon fill="none" stroke="black" points="314,-40.8 314,-92.8 2076,-92.8 2076,-40.8 314,-40.8"/>
</g>
<g id="clust3" class="cluster">
<title>cluster_UserModule_imports</title>
<polygon fill="none" stroke="black" points="16,-40.8 16,-92.8 306,-92.8 306,-40.8 16,-40.8"/>
</g>
<!-- ApiServicesModule -->
<g id="node1" class="node">
<title>ApiServicesModule</title>
<polygon fill="#8dd3c7" stroke="black" points="297.98,-84.8 294.98,-88.8 273.98,-88.8 270.98,-84.8 170.02,-84.8 170.02,-48.8 297.98,-48.8 297.98,-84.8"/>
<text text-anchor="middle" x="234" y="-62.6" font-family="Times,serif" font-size="14.00">ApiServicesModule</text>
</g>
<!-- UserModule -->
<g id="node3" class="node">
<title>UserModule</title>
<polygon fill="#8dd3c7" stroke="black" points="1061.99,-149.8 1058.99,-153.8 1037.99,-153.8 1034.99,-149.8 976.01,-149.8 976.01,-113.8 1061.99,-113.8 1061.99,-149.8"/>
<text text-anchor="middle" x="1019" y="-127.6" font-family="Times,serif" font-size="14.00">UserModule</text>
</g>
<!-- ApiServicesModule&#45;&gt;UserModule -->
<g id="edge1" class="edge">
<title>ApiServicesModule&#45;&gt;UserModule</title>
<path fill="none" stroke="black" d="M234,-84.91C234,-104.14 234,-131.8 234,-131.8 234,-131.8 965.96,-131.8 965.96,-131.8"/>
<polygon fill="black" stroke="black" points="965.96,-135.3 975.96,-131.8 965.96,-128.3 965.96,-135.3"/>
</g>
<!-- PullRequestModule -->
<g id="node2" class="node">
<title>PullRequestModule</title>
<polygon fill="#8dd3c7" stroke="black" points="151.72,-84.8 148.72,-88.8 127.72,-88.8 124.72,-84.8 24.28,-84.8 24.28,-48.8 151.72,-48.8 151.72,-84.8"/>
<text text-anchor="middle" x="88" y="-62.6" font-family="Times,serif" font-size="14.00">PullRequestModule</text>
</g>
<!-- PullRequestModule&#45;&gt;UserModule -->
<g id="edge2" class="edge">
<title>PullRequestModule&#45;&gt;UserModule</title>
<path fill="none" stroke="black" d="M88,-84.83C88,-105.57 88,-136.8 88,-136.8 88,-136.8 965.96,-136.8 965.96,-136.8"/>
<polygon fill="black" stroke="black" points="965.96,-140.3 975.96,-136.8 965.96,-133.3 965.96,-140.3"/>
</g>
<!-- EndorsementService  -->
<g id="node4" class="node">
<title>EndorsementService </title>
<polygon fill="#fb8072" stroke="black" points="1422.85,-214.8 1287.15,-214.8 1287.15,-178.8 1422.85,-178.8 1422.85,-214.8"/>
<text text-anchor="middle" x="1355" y="-192.6" font-family="Times,serif" font-size="14.00">EndorsementService </text>
</g>
<!-- UserModule&#45;&gt;EndorsementService  -->
<g id="edge3" class="edge">
<title>UserModule&#45;&gt;EndorsementService </title>
<path fill="none" stroke="black" stroke-dasharray="5,2" d="M1062.2,-140.8C1140.42,-140.8 1297.46,-140.8 1297.46,-140.8 1297.46,-140.8 1297.46,-168.77 1297.46,-168.77"/>
<polygon fill="black" stroke="black" points="1293.96,-168.77 1297.46,-178.77 1300.96,-168.77 1293.96,-168.77"/>
</g>
<!-- RepoService  -->
<g id="node5" class="node">
<title>RepoService </title>
<polygon fill="#fb8072" stroke="black" points="1269.53,-214.8 1178.47,-214.8 1178.47,-178.8 1269.53,-178.8 1269.53,-214.8"/>
<text text-anchor="middle" x="1224" y="-192.6" font-family="Times,serif" font-size="14.00">RepoService </text>
</g>
<!-- UserModule&#45;&gt;RepoService  -->
<g id="edge4" class="edge">
<title>UserModule&#45;&gt;RepoService </title>
<path fill="none" stroke="black" stroke-dasharray="5,2" d="M1062.48,-145.8C1122.65,-145.8 1224,-145.8 1224,-145.8 1224,-145.8 1224,-168.68 1224,-168.68"/>
<polygon fill="black" stroke="black" points="1220.5,-168.68 1224,-178.68 1227.5,-168.68 1220.5,-168.68"/>
</g>
<!-- UserFollowService  -->
<g id="node6" class="node">
<title>UserFollowService </title>
<polygon fill="#fb8072" stroke="black" points="1160.59,-214.8 1033.41,-214.8 1033.41,-178.8 1160.59,-178.8 1160.59,-214.8"/>
<text text-anchor="middle" x="1097" y="-192.6" font-family="Times,serif" font-size="14.00">UserFollowService </text>
</g>
<!-- UserModule&#45;&gt;UserFollowService  -->
<g id="edge5" class="edge">
<title>UserModule&#45;&gt;UserFollowService </title>
<path fill="none" stroke="black" stroke-dasharray="5,2" d="M1047.6,-149.91C1047.6,-149.91 1047.6,-168.79 1047.6,-168.79"/>
<polygon fill="black" stroke="black" points="1044.1,-168.79 1047.6,-178.79 1051.1,-168.79 1044.1,-168.79"/>
</g>
<!-- UserHighlightsService  -->
<g id="node7" class="node">
<title>UserHighlightsService </title>
<polygon fill="#fb8072" stroke="black" points="1015.53,-214.8 868.47,-214.8 868.47,-178.8 1015.53,-178.8 1015.53,-214.8"/>
<text text-anchor="middle" x="942" y="-192.6" font-family="Times,serif" font-size="14.00">UserHighlightsService </text>
</g>
<!-- UserModule&#45;&gt;UserHighlightsService  -->
<g id="edge6" class="edge">
<title>UserModule&#45;&gt;UserHighlightsService </title>
<path fill="none" stroke="black" stroke-dasharray="5,2" d="M995.76,-149.91C995.76,-149.91 995.76,-168.79 995.76,-168.79"/>
<polygon fill="black" stroke="black" points="992.26,-168.79 995.76,-178.79 999.26,-168.79 992.26,-168.79"/>
</g>
<!-- UserOrganizationService  -->
<g id="node8" class="node">
<title>UserOrganizationService </title>
<polygon fill="#fb8072" stroke="black" points="850.5,-214.8 689.5,-214.8 689.5,-178.8 850.5,-178.8 850.5,-214.8"/>
<text text-anchor="middle" x="770" y="-192.6" font-family="Times,serif" font-size="14.00">UserOrganizationService </text>
</g>
<!-- UserModule&#45;&gt;UserOrganizationService  -->
<g id="edge7" class="edge">
<title>UserModule&#45;&gt;UserOrganizationService </title>
<path fill="none" stroke="black" stroke-dasharray="5,2" d="M975.85,-145.8C904.89,-145.8 771.3,-145.8 771.3,-145.8 771.3,-145.8 771.3,-168.68 771.3,-168.68"/>
<polygon fill="black" stroke="black" points="767.8,-168.68 771.3,-178.68 774.8,-168.68 767.8,-168.68"/>
</g>
<!-- UserService  -->
<g id="node9" class="node">
<title>UserService </title>
<polygon fill="#fb8072" stroke="black" points="671.91,-214.8 584.09,-214.8 584.09,-178.8 671.91,-178.8 671.91,-214.8"/>
<text text-anchor="middle" x="628" y="-192.6" font-family="Times,serif" font-size="14.00">UserService </text>
</g>
<!-- UserModule&#45;&gt;UserService  -->
<g id="edge8" class="edge">
<title>UserModule&#45;&gt;UserService </title>
<path fill="none" stroke="black" stroke-dasharray="5,2" d="M975.83,-140.8C876.97,-140.8 642.65,-140.8 642.65,-140.8 642.65,-140.8 642.65,-168.77 642.65,-168.77"/>
<polygon fill="black" stroke="black" points="639.15,-168.77 642.65,-178.77 646.15,-168.77 639.15,-168.77"/>
</g>
<!-- EndorsementService -->
<g id="node10" class="node">
<title>EndorsementService</title>
<ellipse fill="#fdb462" stroke="black" cx="1977" cy="-66.8" rx="90.89" ry="18"/>
<text text-anchor="middle" x="1977" y="-62.6" font-family="Times,serif" font-size="14.00">EndorsementService</text>
</g>
<!-- EndorsementService&#45;&gt;UserModule -->
<g id="edge9" class="edge">
<title>EndorsementService&#45;&gt;UserModule</title>
<path fill="none" stroke="black" d="M1977,-84.83C1977,-105.57 1977,-136.8 1977,-136.8 1977,-136.8 1072.02,-136.8 1072.02,-136.8"/>
<polygon fill="black" stroke="black" points="1072.02,-133.3 1062.02,-136.8 1072.02,-140.3 1072.02,-133.3"/>
</g>
<!-- RepoFilterService -->
<g id="node11" class="node">
<title>RepoFilterService</title>
<ellipse fill="#fdb462" stroke="black" cx="1787" cy="-66.8" rx="81.1" ry="18"/>
<text text-anchor="middle" x="1787" y="-62.6" font-family="Times,serif" font-size="14.00">RepoFilterService</text>
</g>
<!-- RepoFilterService&#45;&gt;UserModule -->
<g id="edge10" class="edge">
<title>RepoFilterService&#45;&gt;UserModule</title>
<path fill="none" stroke="black" d="M1787,-84.91C1787,-104.14 1787,-131.8 1787,-131.8 1787,-131.8 1072.21,-131.8 1072.21,-131.8"/>
<polygon fill="black" stroke="black" points="1072.21,-128.3 1062.21,-131.8 1072.21,-135.3 1072.21,-128.3"/>
</g>
<!-- RepoService -->
<g id="node12" class="node">
<title>RepoService</title>
<ellipse fill="#fdb462" stroke="black" cx="1627" cy="-66.8" rx="60.26" ry="18"/>
<text text-anchor="middle" x="1627" y="-62.6" font-family="Times,serif" font-size="14.00">RepoService</text>
</g>
<!-- RepoService&#45;&gt;UserModule -->
<g id="edge11" class="edge">
<title>RepoService&#45;&gt;UserModule</title>
<path fill="none" stroke="black" d="M1627,-85.1C1627,-103.07 1627,-127.8 1627,-127.8 1627,-127.8 1072.24,-127.8 1072.24,-127.8"/>
<polygon fill="black" stroke="black" points="1072.24,-124.3 1062.24,-127.8 1072.24,-131.3 1072.24,-124.3"/>
</g>
<!-- UserCollaborationService -->
<g id="node13" class="node">
<title>UserCollaborationService</title>
<ellipse fill="#fdb462" stroke="black" cx="1437" cy="-66.8" rx="111.16" ry="18"/>
<text text-anchor="middle" x="1437" y="-62.6" font-family="Times,serif" font-size="14.00">UserCollaborationService</text>
</g>
<!-- UserCollaborationService&#45;&gt;UserModule -->
<g id="edge12" class="edge">
<title>UserCollaborationService&#45;&gt;UserModule</title>
<path fill="none" stroke="black" d="M1374.17,-81.81C1374.17,-98.39 1374.17,-122.8 1374.17,-122.8 1374.17,-122.8 1072.2,-122.8 1072.2,-122.8"/>
<polygon fill="black" stroke="black" points="1072.2,-119.3 1062.2,-122.8 1072.2,-126.3 1072.2,-119.3"/>
</g>
<!-- UserFollowService -->
<g id="node14" class="node">
<title>UserFollowService</title>
<ellipse fill="#fdb462" stroke="black" cx="1222" cy="-66.8" rx="85.69" ry="18"/>
<text text-anchor="middle" x="1222" y="-62.6" font-family="Times,serif" font-size="14.00">UserFollowService</text>
</g>
<!-- UserFollowService&#45;&gt;UserModule -->
<g id="edge13" class="edge">
<title>UserFollowService&#45;&gt;UserModule</title>
<path fill="none" stroke="black" d="M1148.6,-76.34C1148.6,-91.35 1148.6,-118.8 1148.6,-118.8 1148.6,-118.8 1072.15,-118.8 1072.15,-118.8"/>
<polygon fill="black" stroke="black" points="1072.15,-115.3 1062.15,-118.8 1072.15,-122.3 1072.15,-115.3"/>
</g>
<!-- UserHighlightsService -->
<g id="node15" class="node">
<title>UserHighlightsService</title>
<ellipse fill="#fdb462" stroke="black" cx="1019" cy="-66.8" rx="99.01" ry="18"/>
<text text-anchor="middle" x="1019" y="-62.6" font-family="Times,serif" font-size="14.00">UserHighlightsService</text>
</g>
<!-- UserHighlightsService&#45;&gt;UserModule -->
<g id="edge14" class="edge">
<title>UserHighlightsService&#45;&gt;UserModule</title>
<path fill="none" stroke="black" d="M1019,-84.91C1019,-84.91 1019,-103.79 1019,-103.79"/>
<polygon fill="black" stroke="black" points="1015.5,-103.79 1019,-113.79 1022.5,-103.79 1015.5,-103.79"/>
</g>
<!-- UserNotificationService -->
<g id="node16" class="node">
<title>UserNotificationService</title>
<ellipse fill="#fdb462" stroke="black" cx="797" cy="-66.8" rx="104.78" ry="18"/>
<text text-anchor="middle" x="797" y="-62.6" font-family="Times,serif" font-size="14.00">UserNotificationService</text>
</g>
<!-- UserNotificationService&#45;&gt;UserModule -->
<g id="edge15" class="edge">
<title>UserNotificationService&#45;&gt;UserModule</title>
<path fill="none" stroke="black" d="M885.19,-76.83C885.19,-91.94 885.19,-118.8 885.19,-118.8 885.19,-118.8 965.92,-118.8 965.92,-118.8"/>
<polygon fill="black" stroke="black" points="965.92,-122.3 975.92,-118.8 965.92,-115.3 965.92,-122.3"/>
</g>
<!-- UserOrganizationService -->
<g id="node17" class="node">
<title>UserOrganizationService</title>
<ellipse fill="#fdb462" stroke="black" cx="565" cy="-66.8" rx="108.78" ry="18"/>
<text text-anchor="middle" x="565" y="-62.6" font-family="Times,serif" font-size="14.00">UserOrganizationService</text>
</g>
<!-- UserOrganizationService&#45;&gt;UserModule -->
<g id="edge16" class="edge">
<title>UserOrganizationService&#45;&gt;UserModule</title>
<path fill="none" stroke="black" d="M613.35,-83C613.35,-99.54 613.35,-122.8 613.35,-122.8 613.35,-122.8 965.97,-122.8 965.97,-122.8"/>
<polygon fill="black" stroke="black" points="965.97,-126.3 975.97,-122.8 965.97,-119.3 965.97,-126.3"/>
</g>
<!-- UserService -->
<g id="node18" class="node">
<title>UserService</title>
<ellipse fill="#fdb462" stroke="black" cx="380" cy="-66.8" rx="58.46" ry="18"/>
<text text-anchor="middle" x="380" y="-62.6" font-family="Times,serif" font-size="14.00">UserService</text>
</g>
<!-- UserService&#45;&gt;UserModule -->
<g id="edge17" class="edge">
<title>UserService&#45;&gt;UserModule</title>
<path fill="none" stroke="black" d="M380,-85.1C380,-103.07 380,-127.8 380,-127.8 380,-127.8 965.58,-127.8 965.58,-127.8"/>
<polygon fill="black" stroke="black" points="965.58,-131.3 975.58,-127.8 965.58,-124.3 965.58,-131.3"/>
</g>
</g>
</svg>
