<?xml version="1.0" encoding="UTF-8" standalone="no"?>
<!DOCTYPE svg PUBLIC "-//W3C//DTD SVG 1.1//EN"
 "http://www.w3.org/Graphics/SVG/1.1/DTD/svg11.dtd">
<!-- Generated by graphviz version 3.0.0 (20220226.1711)
 -->
<!-- Title: dependencies Pages: 1 -->
<svg width="1156pt" height="247pt"
 viewBox="0.00 0.00 1156.00 246.80" xmlns="http://www.w3.org/2000/svg" xmlns:xlink="http://www.w3.org/1999/xlink">
<g id="graph0" class="graph" transform="scale(1 1) rotate(0) translate(4 242.8)">
<title>dependencies</title>
<polygon fill="white" stroke="transparent" points="-4,4 -4,-242.8 1152,-242.8 1152,4 -4,4"/>
<text text-anchor="middle" x="574" y="-8.2" font-family="sans-serif" font-size="14.00">dependencies</text>
<g id="clust1" class="cluster">
<title>cluster_UserModule</title>
<polygon fill="none" stroke="black" stroke-dasharray="1,5" points="8,-32.8 8,-230.8 1140,-230.8 1140,-32.8 8,-32.8"/>
</g>
<g id="clust3" class="cluster">
<title>cluster_UserModule_imports</title>
<polygon fill="none" stroke="black" points="881,-40.8 881,-92.8 1132,-92.8 1132,-40.8 881,-40.8"/>
</g>
<g id="clust4" class="cluster">
<title>cluster_UserModule_exports</title>
<polygon fill="none" stroke="black" points="360,-170.8 360,-222.8 883,-222.8 883,-170.8 360,-170.8"/>
</g>
<g id="clust6" class="cluster">
<title>cluster_UserModule_providers</title>
<polygon fill="none" stroke="black" points="16,-40.8 16,-92.8 873,-92.8 873,-40.8 16,-40.8"/>
</g>
<!-- PullRequestModule -->
<g id="node1" class="node">
<title>PullRequestModule</title>
<polygon fill="#8dd3c7" stroke="black" points="1123.72,-84.8 1120.72,-88.8 1099.72,-88.8 1096.72,-84.8 996.28,-84.8 996.28,-48.8 1123.72,-48.8 1123.72,-84.8"/>
<text text-anchor="middle" x="1060" y="-62.6" font-family="Times,serif" font-size="14.00">PullRequestModule</text>
</g>
<!-- UserModule -->
<g id="node3" class="node">
<title>UserModule</title>
<polygon fill="#8dd3c7" stroke="black" points="666.99,-149.8 663.99,-153.8 642.99,-153.8 639.99,-149.8 581.01,-149.8 581.01,-113.8 666.99,-113.8 666.99,-149.8"/>
<text text-anchor="middle" x="624" y="-127.6" font-family="Times,serif" font-size="14.00">UserModule</text>
</g>
<!-- PullRequestModule&#45;&gt;UserModule -->
<g id="edge1" class="edge">
<title>PullRequestModule&#45;&gt;UserModule</title>
<path fill="none" stroke="black" d="M1060,-84.93C1060,-105.37 1060,-135.8 1060,-135.8 1060,-135.8 677,-135.8 677,-135.8"/>
<polygon fill="black" stroke="black" points="677,-132.3 667,-135.8 677,-139.3 677,-132.3"/>
</g>
<!-- RepoModule -->
<g id="node2" class="node">
<title>RepoModule</title>
<polygon fill="#8dd3c7" stroke="black" points="978.6,-84.8 975.6,-88.8 954.6,-88.8 951.6,-84.8 889.4,-84.8 889.4,-48.8 978.6,-48.8 978.6,-84.8"/>
<text text-anchor="middle" x="934" y="-62.6" font-family="Times,serif" font-size="14.00">RepoModule</text>
</g>
<!-- RepoModule&#45;&gt;UserModule -->
<g id="edge2" class="edge">
<title>RepoModule&#45;&gt;UserModule</title>
<path fill="none" stroke="black" d="M934,-85.07C934,-103.36 934,-128.8 934,-128.8 934,-128.8 677.1,-128.8 677.1,-128.8"/>
<polygon fill="black" stroke="black" points="677.1,-125.3 667.1,-128.8 677.1,-132.3 677.1,-125.3"/>
</g>
<!-- RepoService  -->
<g id="node4" class="node">
<title>RepoService </title>
<polygon fill="#fb8072" stroke="black" points="874.53,-214.8 783.47,-214.8 783.47,-178.8 874.53,-178.8 874.53,-214.8"/>
<text text-anchor="middle" x="829" y="-192.6" font-family="Times,serif" font-size="14.00">RepoService </text>
</g>
<!-- UserModule&#45;&gt;RepoService  -->
<g id="edge3" class="edge">
<title>UserModule&#45;&gt;RepoService </title>
<path fill="none" stroke="black" stroke-dasharray="5,2" d="M666.99,-142.8C725.87,-142.8 824.39,-142.8 824.39,-142.8 824.39,-142.8 824.39,-168.52 824.39,-168.52"/>
<polygon fill="black" stroke="black" points="820.89,-168.52 824.39,-178.52 827.89,-168.52 820.89,-168.52"/>
</g>
<!-- UserFollowService  -->
<g id="node5" class="node">
<title>UserFollowService </title>
<polygon fill="#fb8072" stroke="black" points="765.59,-214.8 638.41,-214.8 638.41,-178.8 765.59,-178.8 765.59,-214.8"/>
<text text-anchor="middle" x="702" y="-192.6" font-family="Times,serif" font-size="14.00">UserFollowService </text>
</g>
<!-- UserModule&#45;&gt;UserFollowService  -->
<g id="edge4" class="edge">
<title>UserModule&#45;&gt;UserFollowService </title>
<path fill="none" stroke="black" stroke-dasharray="5,2" d="M652.6,-149.91C652.6,-149.91 652.6,-168.79 652.6,-168.79"/>
<polygon fill="black" stroke="black" points="649.1,-168.79 652.6,-178.79 656.1,-168.79 649.1,-168.79"/>
</g>
<!-- UserHighlightsService  -->
<g id="node6" class="node">
<title>UserHighlightsService </title>
<polygon fill="#fb8072" stroke="black" points="620.53,-214.8 473.47,-214.8 473.47,-178.8 620.53,-178.8 620.53,-214.8"/>
<text text-anchor="middle" x="547" y="-192.6" font-family="Times,serif" font-size="14.00">UserHighlightsService </text>
</g>
<!-- UserModule&#45;&gt;UserHighlightsService  -->
<g id="edge5" class="edge">
<title>UserModule&#45;&gt;UserHighlightsService </title>
<path fill="none" stroke="black" stroke-dasharray="5,2" d="M600.76,-149.91C600.76,-149.91 600.76,-168.79 600.76,-168.79"/>
<polygon fill="black" stroke="black" points="597.26,-168.79 600.76,-178.79 604.26,-168.79 597.26,-168.79"/>
</g>
<!-- UserService  -->
<g id="node7" class="node">
<title>UserService </title>
<polygon fill="#fb8072" stroke="black" points="455.91,-214.8 368.09,-214.8 368.09,-178.8 455.91,-178.8 455.91,-214.8"/>
<text text-anchor="middle" x="412" y="-192.6" font-family="Times,serif" font-size="14.00">UserService </text>
</g>
<!-- UserModule&#45;&gt;UserService  -->
<g id="edge6" class="edge">
<title>UserModule&#45;&gt;UserService </title>
<path fill="none" stroke="black" stroke-dasharray="5,2" d="M580.99,-142.8C519.86,-142.8 415.18,-142.8 415.18,-142.8 415.18,-142.8 415.18,-168.52 415.18,-168.52"/>
<polygon fill="black" stroke="black" points="411.68,-168.52 415.18,-178.52 418.68,-168.52 411.68,-168.52"/>
</g>
<!-- RepoFilterService -->
<g id="node8" class="node">
<title>RepoFilterService</title>
<ellipse fill="#fdb462" stroke="black" cx="784" cy="-66.8" rx="81.1" ry="18"/>
<text text-anchor="middle" x="784" y="-62.6" font-family="Times,serif" font-size="14.00">RepoFilterService</text>
</g>
<!-- RepoFilterService&#45;&gt;UserModule -->
<g id="edge7" class="edge">
<title>RepoFilterService&#45;&gt;UserModule</title>
<path fill="none" stroke="black" d="M734.25,-81.25C734.25,-97.55 734.25,-121.8 734.25,-121.8 734.25,-121.8 677.26,-121.8 677.26,-121.8"/>
<polygon fill="black" stroke="black" points="677.26,-118.3 667.26,-121.8 677.26,-125.3 677.26,-118.3"/>
</g>
<!-- RepoService -->
<g id="node9" class="node">
<title>RepoService</title>
<ellipse fill="#fdb462" stroke="black" cx="624" cy="-66.8" rx="60.26" ry="18"/>
<text text-anchor="middle" x="624" y="-62.6" font-family="Times,serif" font-size="14.00">RepoService</text>
</g>
<!-- RepoService&#45;&gt;UserModule -->
<g id="edge8" class="edge">
<title>RepoService&#45;&gt;UserModule</title>
<path fill="none" stroke="black" d="M624,-84.91C624,-84.91 624,-103.79 624,-103.79"/>
<polygon fill="black" stroke="black" points="620.5,-103.79 624,-113.79 627.5,-103.79 620.5,-103.79"/>
</g>
<!-- UserFollowService -->
<g id="node10" class="node">
<title>UserFollowService</title>
<ellipse fill="#fdb462" stroke="black" cx="460" cy="-66.8" rx="85.69" ry="18"/>
<text text-anchor="middle" x="460" y="-62.6" font-family="Times,serif" font-size="14.00">UserFollowService</text>
</g>
<!-- UserFollowService&#45;&gt;UserModule -->
<g id="edge9" class="edge">
<title>UserFollowService&#45;&gt;UserModule</title>
<path fill="none" stroke="black" d="M509.54,-81.54C509.54,-97.83 509.54,-121.8 509.54,-121.8 509.54,-121.8 570.73,-121.8 570.73,-121.8"/>
<polygon fill="black" stroke="black" points="570.73,-125.3 580.73,-121.8 570.73,-118.3 570.73,-125.3"/>
</g>
<!-- UserHighlightsService -->
<g id="node11" class="node">
<title>UserHighlightsService</title>
<ellipse fill="#fdb462" stroke="black" cx="257" cy="-66.8" rx="99.01" ry="18"/>
<text text-anchor="middle" x="257" y="-62.6" font-family="Times,serif" font-size="14.00">UserHighlightsService</text>
</g>
<!-- UserHighlightsService&#45;&gt;UserModule -->
<g id="edge10" class="edge">
<title>UserHighlightsService&#45;&gt;UserModule</title>
<path fill="none" stroke="black" d="M257,-85.07C257,-103.36 257,-128.8 257,-128.8 257,-128.8 570.82,-128.8 570.82,-128.8"/>
<polygon fill="black" stroke="black" points="570.82,-132.3 580.82,-128.8 570.82,-125.3 570.82,-132.3"/>
</g>
<!-- UserService -->
<g id="node12" class="node">
<title>UserService</title>
<ellipse fill="#fdb462" stroke="black" cx="82" cy="-66.8" rx="58.46" ry="18"/>
<text text-anchor="middle" x="82" y="-62.6" font-family="Times,serif" font-size="14.00">UserService</text>
</g>
<!-- UserService&#45;&gt;UserModule -->
<g id="edge11" class="edge">
<title>UserService&#45;&gt;UserModule</title>
<path fill="none" stroke="black" d="M82,-84.93C82,-105.37 82,-135.8 82,-135.8 82,-135.8 570.56,-135.8 570.56,-135.8"/>
<polygon fill="black" stroke="black" points="570.56,-139.3 580.56,-135.8 570.56,-132.3 570.56,-139.3"/>
</g>
</g>
</svg>
