<?xml version="1.0" encoding="UTF-8" standalone="no"?>
<!DOCTYPE svg PUBLIC "-//W3C//DTD SVG 1.1//EN"
 "http://www.w3.org/Graphics/SVG/1.1/DTD/svg11.dtd">
<!-- Generated by graphviz version 3.0.0 (20220226.1711)
 -->
<!-- Title: dependencies Pages: 1 -->
<svg width="2307pt" height="247pt"
 viewBox="0.00 0.00 2307.00 246.80" xmlns="http://www.w3.org/2000/svg" xmlns:xlink="http://www.w3.org/1999/xlink">
<g id="graph0" class="graph" transform="scale(1 1) rotate(0) translate(4 242.8)">
<title>dependencies</title>
<polygon fill="white" stroke="transparent" points="-4,4 -4,-242.8 2303,-242.8 2303,4 -4,4"/>
<text text-anchor="middle" x="1149.5" y="-8.2" font-family="sans-serif" font-size="14.00">dependencies</text>
<g id="clust1" class="cluster">
<title>cluster_UserModule</title>
<polygon fill="none" stroke="black" stroke-dasharray="1,5" points="8,-32.8 8,-230.8 2291,-230.8 2291,-32.8 8,-32.8"/>
</g>
<g id="clust3" class="cluster">
<title>cluster_UserModule_imports</title>
<polygon fill="none" stroke="black" points="1786,-40.8 1786,-92.8 2283,-92.8 2283,-40.8 1786,-40.8"/>
</g>
<g id="clust6" class="cluster">
<title>cluster_UserModule_providers</title>
<polygon fill="none" stroke="black" points="16,-40.8 16,-92.8 1778,-92.8 1778,-40.8 16,-40.8"/>
</g>
<g id="clust4" class="cluster">
<title>cluster_UserModule_exports</title>
<polygon fill="none" stroke="black" points="886,-170.8 886,-222.8 1741,-222.8 1741,-170.8 886,-170.8"/>
</g>
<!-- ApiServicesModule -->
<g id="node1" class="node">
<title>ApiServicesModule</title>
<polygon fill="#8dd3c7" stroke="black" points="2274.98,-84.8 2271.98,-88.8 2250.98,-88.8 2247.98,-84.8 2147.02,-84.8 2147.02,-48.8 2274.98,-48.8 2274.98,-84.8"/>
<text text-anchor="middle" x="2211" y="-62.6" font-family="Times,serif" font-size="14.00">ApiServicesModule</text>
</g>
<!-- UserModule -->
<g id="node5" class="node">
<title>UserModule</title>
<polygon fill="#8dd3c7" stroke="black" points="1371.99,-149.8 1368.99,-153.8 1347.99,-153.8 1344.99,-149.8 1286.01,-149.8 1286.01,-113.8 1371.99,-113.8 1371.99,-149.8"/>
<text text-anchor="middle" x="1329" y="-127.6" font-family="Times,serif" font-size="14.00">UserModule</text>
</g>
<!-- ApiServicesModule&#45;&gt;UserModule -->
<g id="edge1" class="edge">
<title>ApiServicesModule&#45;&gt;UserModule</title>
<path fill="none" stroke="black" d="M2211,-85.08C2211,-106.12 2211,-137.8 2211,-137.8 2211,-137.8 1382.14,-137.8 1382.14,-137.8"/>
<polygon fill="black" stroke="black" points="1382.14,-134.3 1372.14,-137.8 1382.14,-141.3 1382.14,-134.3"/>
</g>
<!-- PullRequestModule -->
<g id="node2" class="node">
<title>PullRequestModule</title>
<polygon fill="#8dd3c7" stroke="black" points="2128.72,-84.8 2125.72,-88.8 2104.72,-88.8 2101.72,-84.8 2001.28,-84.8 2001.28,-48.8 2128.72,-48.8 2128.72,-84.8"/>
<text text-anchor="middle" x="2065" y="-62.6" font-family="Times,serif" font-size="14.00">PullRequestModule</text>
</g>
<!-- PullRequestModule&#45;&gt;UserModule -->
<g id="edge2" class="edge">
<title>PullRequestModule&#45;&gt;UserModule</title>
<path fill="none" stroke="black" d="M2065,-85.11C2065,-104.95 2065,-133.8 2065,-133.8 2065,-133.8 1382.02,-133.8 1382.02,-133.8"/>
<polygon fill="black" stroke="black" points="1382.02,-130.3 1372.02,-133.8 1382.02,-137.3 1382.02,-130.3"/>
</g>
<!-- RepoModule -->
<g id="node3" class="node">
<title>RepoModule</title>
<polygon fill="#8dd3c7" stroke="black" points="1983.6,-84.8 1980.6,-88.8 1959.6,-88.8 1956.6,-84.8 1894.4,-84.8 1894.4,-48.8 1983.6,-48.8 1983.6,-84.8"/>
<text text-anchor="middle" x="1939" y="-62.6" font-family="Times,serif" font-size="14.00">RepoModule</text>
</g>
<!-- RepoModule&#45;&gt;UserModule -->
<g id="edge3" class="edge">
<title>RepoModule&#45;&gt;UserModule</title>
<path fill="none" stroke="black" d="M1939,-85.02C1939,-103.63 1939,-129.8 1939,-129.8 1939,-129.8 1382.38,-129.8 1382.38,-129.8"/>
<polygon fill="black" stroke="black" points="1382.38,-126.3 1372.38,-129.8 1382.38,-133.3 1382.38,-126.3"/>
</g>
<!-- TierModule -->
<g id="node4" class="node">
<title>TierModule</title>
<polygon fill="#8dd3c7" stroke="black" points="1876.37,-84.8 1873.37,-88.8 1852.37,-88.8 1849.37,-84.8 1793.63,-84.8 1793.63,-48.8 1876.37,-48.8 1876.37,-84.8"/>
<text text-anchor="middle" x="1835" y="-62.6" font-family="Times,serif" font-size="14.00">TierModule</text>
</g>
<!-- TierModule&#45;&gt;UserModule -->
<g id="edge4" class="edge">
<title>TierModule&#45;&gt;UserModule</title>
<path fill="none" stroke="black" d="M1835,-84.82C1835,-102.17 1835,-125.8 1835,-125.8 1835,-125.8 1382.14,-125.8 1382.14,-125.8"/>
<polygon fill="black" stroke="black" points="1382.14,-122.3 1372.14,-125.8 1382.14,-129.3 1382.14,-122.3"/>
</g>
<!-- EndorsementService  -->
<g id="node6" class="node">
<title>EndorsementService </title>
<polygon fill="#fb8072" stroke="black" points="1732.85,-214.8 1597.15,-214.8 1597.15,-178.8 1732.85,-178.8 1732.85,-214.8"/>
<text text-anchor="middle" x="1665" y="-192.6" font-family="Times,serif" font-size="14.00">EndorsementService </text>
</g>
<!-- UserModule&#45;&gt;EndorsementService  -->
<g id="edge5" class="edge">
<title>UserModule&#45;&gt;EndorsementService </title>
<path fill="none" stroke="black" stroke-dasharray="5,2" d="M1372.24,-141.8C1462.99,-141.8 1665,-141.8 1665,-141.8 1665,-141.8 1665,-168.79 1665,-168.79"/>
<polygon fill="black" stroke="black" points="1661.5,-168.79 1665,-178.79 1668.5,-168.79 1661.5,-168.79"/>
</g>
<!-- RepoService  -->
<g id="node7" class="node">
<title>RepoService </title>
<polygon fill="#fb8072" stroke="black" points="1579.53,-214.8 1488.47,-214.8 1488.47,-178.8 1579.53,-178.8 1579.53,-214.8"/>
<text text-anchor="middle" x="1534" y="-192.6" font-family="Times,serif" font-size="14.00">RepoService </text>
</g>
<!-- UserModule&#45;&gt;RepoService  -->
<g id="edge6" class="edge">
<title>UserModule&#45;&gt;RepoService </title>
<path fill="none" stroke="black" stroke-dasharray="5,2" d="M1371.99,-145.8C1430.87,-145.8 1529.39,-145.8 1529.39,-145.8 1529.39,-145.8 1529.39,-168.68 1529.39,-168.68"/>
<polygon fill="black" stroke="black" points="1525.89,-168.68 1529.39,-178.68 1532.89,-168.68 1525.89,-168.68"/>
</g>
<!-- UserFollowService  -->
<g id="node8" class="node">
<title>UserFollowService </title>
<polygon fill="#fb8072" stroke="black" points="1470.59,-214.8 1343.41,-214.8 1343.41,-178.8 1470.59,-178.8 1470.59,-214.8"/>
<text text-anchor="middle" x="1407" y="-192.6" font-family="Times,serif" font-size="14.00">UserFollowService </text>
</g>
<!-- UserModule&#45;&gt;UserFollowService  -->
<g id="edge7" class="edge">
<title>UserModule&#45;&gt;UserFollowService </title>
<path fill="none" stroke="black" stroke-dasharray="5,2" d="M1357.6,-149.91C1357.6,-149.91 1357.6,-168.79 1357.6,-168.79"/>
<polygon fill="black" stroke="black" points="1354.1,-168.79 1357.6,-178.79 1361.1,-168.79 1354.1,-168.79"/>
</g>
<!-- UserHighlightsService  -->
<g id="node9" class="node">
<title>UserHighlightsService </title>
<polygon fill="#fb8072" stroke="black" points="1325.53,-214.8 1178.47,-214.8 1178.47,-178.8 1325.53,-178.8 1325.53,-214.8"/>
<text text-anchor="middle" x="1252" y="-192.6" font-family="Times,serif" font-size="14.00">UserHighlightsService </text>
</g>
<!-- UserModule&#45;&gt;UserHighlightsService  -->
<g id="edge8" class="edge">
<title>UserModule&#45;&gt;UserHighlightsService </title>
<path fill="none" stroke="black" stroke-dasharray="5,2" d="M1305.76,-149.91C1305.76,-149.91 1305.76,-168.79 1305.76,-168.79"/>
<polygon fill="black" stroke="black" points="1302.26,-168.79 1305.76,-178.79 1309.26,-168.79 1302.26,-168.79"/>
</g>
<!-- UserOrganizationService  -->
<g id="node10" class="node">
<title>UserOrganizationService </title>
<polygon fill="#fb8072" stroke="black" points="1160.5,-214.8 999.5,-214.8 999.5,-178.8 1160.5,-178.8 1160.5,-214.8"/>
<text text-anchor="middle" x="1080" y="-192.6" font-family="Times,serif" font-size="14.00">UserOrganizationService </text>
</g>
<!-- UserModule&#45;&gt;UserOrganizationService  -->
<g id="edge9" class="edge">
<title>UserModule&#45;&gt;UserOrganizationService </title>
<path fill="none" stroke="black" stroke-dasharray="5,2" d="M1285.91,-145.8C1218.09,-145.8 1094.08,-145.8 1094.08,-145.8 1094.08,-145.8 1094.08,-168.68 1094.08,-168.68"/>
<polygon fill="black" stroke="black" points="1090.58,-168.68 1094.08,-178.68 1097.58,-168.68 1090.58,-168.68"/>
</g>
<!-- UserService  -->
<g id="node11" class="node">
<title>UserService </title>
<polygon fill="#fb8072" stroke="black" points="981.91,-214.8 894.09,-214.8 894.09,-178.8 981.91,-178.8 981.91,-214.8"/>
<text text-anchor="middle" x="938" y="-192.6" font-family="Times,serif" font-size="14.00">UserService </text>
</g>
<!-- UserModule&#45;&gt;UserService  -->
<g id="edge10" class="edge">
<title>UserModule&#45;&gt;UserService </title>
<path fill="none" stroke="black" stroke-dasharray="5,2" d="M1285.66,-141.8C1183.86,-141.8 938,-141.8 938,-141.8 938,-141.8 938,-168.79 938,-168.79"/>
<polygon fill="black" stroke="black" points="934.5,-168.79 938,-178.79 941.5,-168.79 934.5,-168.79"/>
</g>
<!-- EndorsementService -->
<g id="node12" class="node">
<title>EndorsementService</title>
<ellipse fill="#fdb462" stroke="black" cx="1679" cy="-66.8" rx="90.89" ry="18"/>
<text text-anchor="middle" x="1679" y="-62.6" font-family="Times,serif" font-size="14.00">EndorsementService</text>
</g>
<!-- EndorsementService&#45;&gt;UserModule -->
<g id="edge11" class="edge">
<title>EndorsementService&#45;&gt;UserModule</title>
<path fill="none" stroke="black" d="M1592.69,-72.69C1592.69,-86.87 1592.69,-121.8 1592.69,-121.8 1592.69,-121.8 1382.25,-121.8 1382.25,-121.8"/>
<polygon fill="black" stroke="black" points="1382.25,-118.3 1372.25,-121.8 1382.25,-125.3 1382.25,-118.3"/>
</g>
<!-- RepoFilterService -->
<g id="node13" class="node">
<title>RepoFilterService</title>
<ellipse fill="#fdb462" stroke="black" cx="1489" cy="-66.8" rx="81.1" ry="18"/>
<text text-anchor="middle" x="1489" y="-62.6" font-family="Times,serif" font-size="14.00">RepoFilterService</text>
</g>
<!-- RepoFilterService&#45;&gt;UserModule -->
<g id="edge12" class="edge">
<title>RepoFilterService&#45;&gt;UserModule</title>
<path fill="none" stroke="black" d="M1439.25,-81.28C1439.25,-96.36 1439.25,-117.8 1439.25,-117.8 1439.25,-117.8 1382.26,-117.8 1382.26,-117.8"/>
<polygon fill="black" stroke="black" points="1382.26,-114.3 1372.26,-117.8 1382.26,-121.3 1382.26,-114.3"/>
</g>
<!-- RepoService -->
<g id="node14" class="node">
<title>RepoService</title>
<ellipse fill="#fdb462" stroke="black" cx="1329" cy="-66.8" rx="60.26" ry="18"/>
<text text-anchor="middle" x="1329" y="-62.6" font-family="Times,serif" font-size="14.00">RepoService</text>
</g>
<!-- RepoService&#45;&gt;UserModule -->
<g id="edge13" class="edge">
<title>RepoService&#45;&gt;UserModule</title>
<path fill="none" stroke="black" d="M1329,-84.91C1329,-84.91 1329,-103.79 1329,-103.79"/>
<polygon fill="black" stroke="black" points="1325.5,-103.79 1329,-113.79 1332.5,-103.79 1325.5,-103.79"/>
</g>
<!-- UserCollaborationService -->
<g id="node15" class="node">
<title>UserCollaborationService</title>
<ellipse fill="#fdb462" stroke="black" cx="1139" cy="-66.8" rx="111.16" ry="18"/>
<text text-anchor="middle" x="1139" y="-62.6" font-family="Times,serif" font-size="14.00">UserCollaborationService</text>
</g>
<!-- UserCollaborationService&#45;&gt;UserModule -->
<g id="edge14" class="edge">
<title>UserCollaborationService&#45;&gt;UserModule</title>
<path fill="none" stroke="black" d="M1214.41,-80.2C1214.41,-95.31 1214.41,-117.8 1214.41,-117.8 1214.41,-117.8 1276,-117.8 1276,-117.8"/>
<polygon fill="black" stroke="black" points="1276,-121.3 1286,-117.8 1276,-114.3 1276,-121.3"/>
</g>
<!-- UserFollowService -->
<g id="node16" class="node">
<title>UserFollowService</title>
<ellipse fill="#fdb462" stroke="black" cx="924" cy="-66.8" rx="85.69" ry="18"/>
<text text-anchor="middle" x="924" y="-62.6" font-family="Times,serif" font-size="14.00">UserFollowService</text>
</g>
<!-- UserFollowService&#45;&gt;UserModule -->
<g id="edge15" class="edge">
<title>UserFollowService&#45;&gt;UserModule</title>
<path fill="none" stroke="black" d="M1004.55,-73.11C1004.55,-87.56 1004.55,-121.8 1004.55,-121.8 1004.55,-121.8 1275.92,-121.8 1275.92,-121.8"/>
<polygon fill="black" stroke="black" points="1275.92,-125.3 1285.92,-121.8 1275.92,-118.3 1275.92,-125.3"/>
</g>
<!-- UserHighlightsService -->
<g id="node17" class="node">
<title>UserHighlightsService</title>
<ellipse fill="#fdb462" stroke="black" cx="721" cy="-66.8" rx="99.01" ry="18"/>
<text text-anchor="middle" x="721" y="-62.6" font-family="Times,serif" font-size="14.00">UserHighlightsService</text>
</g>
<!-- UserHighlightsService&#45;&gt;UserModule -->
<g id="edge16" class="edge">
<title>UserHighlightsService&#45;&gt;UserModule</title>
<path fill="none" stroke="black" d="M721,-84.82C721,-102.17 721,-125.8 721,-125.8 721,-125.8 1275.76,-125.8 1275.76,-125.8"/>
<polygon fill="black" stroke="black" points="1275.76,-129.3 1285.76,-125.8 1275.76,-122.3 1275.76,-129.3"/>
</g>
<!-- UserNotificationService -->
<g id="node18" class="node">
<title>UserNotificationService</title>
<ellipse fill="#fdb462" stroke="black" cx="499" cy="-66.8" rx="104.78" ry="18"/>
<text text-anchor="middle" x="499" y="-62.6" font-family="Times,serif" font-size="14.00">UserNotificationService</text>
</g>
<!-- UserNotificationService&#45;&gt;UserModule -->
<g id="edge17" class="edge">
<title>UserNotificationService&#45;&gt;UserModule</title>
<path fill="none" stroke="black" d="M499,-85.02C499,-103.63 499,-129.8 499,-129.8 499,-129.8 1275.83,-129.8 1275.83,-129.8"/>
<polygon fill="black" stroke="black" points="1275.83,-133.3 1285.83,-129.8 1275.83,-126.3 1275.83,-133.3"/>
</g>
<!-- UserOrganizationService -->
<g id="node19" class="node">
<title>UserOrganizationService</title>
<ellipse fill="#fdb462" stroke="black" cx="267" cy="-66.8" rx="108.78" ry="18"/>
<text text-anchor="middle" x="267" y="-62.6" font-family="Times,serif" font-size="14.00">UserOrganizationService</text>
</g>
<!-- UserOrganizationService&#45;&gt;UserModule -->
<g id="edge18" class="edge">
<title>UserOrganizationService&#45;&gt;UserModule</title>
<path fill="none" stroke="black" d="M267,-85.11C267,-104.95 267,-133.8 267,-133.8 267,-133.8 1275.72,-133.8 1275.72,-133.8"/>
<polygon fill="black" stroke="black" points="1275.72,-137.3 1285.72,-133.8 1275.72,-130.3 1275.72,-137.3"/>
</g>
<!-- UserService -->
<g id="node20" class="node">
<title>UserService</title>
<ellipse fill="#fdb462" stroke="black" cx="82" cy="-66.8" rx="58.46" ry="18"/>
<text text-anchor="middle" x="82" y="-62.6" font-family="Times,serif" font-size="14.00">UserService</text>
</g>
<!-- UserService&#45;&gt;UserModule -->
<g id="edge19" class="edge">
<title>UserService&#45;&gt;UserModule</title>
<path fill="none" stroke="black" d="M82,-85.08C82,-106.12 82,-137.8 82,-137.8 82,-137.8 1275.71,-137.8 1275.71,-137.8"/>
<polygon fill="black" stroke="black" points="1275.71,-141.3 1285.71,-137.8 1275.71,-134.3 1275.71,-141.3"/>
</g>
</g>
</svg>
