<?xml version="1.0" encoding="UTF-8" standalone="no"?>
<!DOCTYPE svg PUBLIC "-//W3C//DTD SVG 1.1//EN"
 "http://www.w3.org/Graphics/SVG/1.1/DTD/svg11.dtd">
<!-- Generated by graphviz version 3.0.0 (20220226.1711)
 -->
<!-- Title: dependencies Pages: 1 -->
<svg width="2443pt" height="247pt"
 viewBox="0.00 0.00 2443.00 246.80" xmlns="http://www.w3.org/2000/svg" xmlns:xlink="http://www.w3.org/1999/xlink">
<g id="graph0" class="graph" transform="scale(1 1) rotate(0) translate(4 242.8)">
<title>dependencies</title>
<polygon fill="white" stroke="transparent" points="-4,4 -4,-242.8 2439,-242.8 2439,4 -4,4"/>
<text text-anchor="middle" x="1217.5" y="-8.2" font-family="sans-serif" font-size="14.00">dependencies</text>
<g id="clust1" class="cluster">
<title>cluster_UserModule</title>
<polygon fill="none" stroke="black" stroke-dasharray="1,5" points="8,-32.8 8,-230.8 2427,-230.8 2427,-32.8 8,-32.8"/>
</g>
<g id="clust4" class="cluster">
<title>cluster_UserModule_exports</title>
<polygon fill="none" stroke="black" points="581,-170.8 581,-222.8 1436,-222.8 1436,-170.8 581,-170.8"/>
</g>
<g id="clust6" class="cluster">
<title>cluster_UserModule_providers</title>
<polygon fill="none" stroke="black" points="657,-40.8 657,-92.8 2419,-92.8 2419,-40.8 657,-40.8"/>
</g>
<g id="clust3" class="cluster">
<title>cluster_UserModule_imports</title>
<polygon fill="none" stroke="black" points="16,-40.8 16,-92.8 649,-92.8 649,-40.8 16,-40.8"/>
</g>
<!-- ApiServicesModule -->
<g id="node1" class="node">
<title>ApiServicesModule</title>
<polygon fill="#8dd3c7" stroke="black" points="640.98,-84.8 637.98,-88.8 616.98,-88.8 613.98,-84.8 513.02,-84.8 513.02,-48.8 640.98,-48.8 640.98,-84.8"/>
<text text-anchor="middle" x="577" y="-62.6" font-family="Times,serif" font-size="14.00">ApiServicesModule</text>
</g>
<!-- UserModule -->
<g id="node6" class="node">
<title>UserModule</title>
<polygon fill="#8dd3c7" stroke="black" points="1066.99,-149.8 1063.99,-153.8 1042.99,-153.8 1039.99,-149.8 981.01,-149.8 981.01,-113.8 1066.99,-113.8 1066.99,-149.8"/>
<text text-anchor="middle" x="1024" y="-127.6" font-family="Times,serif" font-size="14.00">UserModule</text>
</g>
<!-- ApiServicesModule&#45;&gt;UserModule -->
<g id="edge1" class="edge">
<title>ApiServicesModule&#45;&gt;UserModule</title>
<path fill="none" stroke="black" d="M615.02,-84.81C615.02,-100.85 615.02,-121.8 615.02,-121.8 615.02,-121.8 971,-121.8 971,-121.8"/>
<polygon fill="black" stroke="black" points="971,-125.3 981,-121.8 971,-118.3 971,-125.3"/>
</g>
<!-- PullRequestModule -->
<g id="node2" class="node">
<title>PullRequestModule</title>
<polygon fill="#8dd3c7" stroke="black" points="494.72,-84.8 491.72,-88.8 470.72,-88.8 467.72,-84.8 367.28,-84.8 367.28,-48.8 494.72,-48.8 494.72,-84.8"/>
<text text-anchor="middle" x="431" y="-62.6" font-family="Times,serif" font-size="14.00">PullRequestModule</text>
</g>
<!-- PullRequestModule&#45;&gt;UserModule -->
<g id="edge2" class="edge">
<title>PullRequestModule&#45;&gt;UserModule</title>
<path fill="none" stroke="black" d="M431,-84.82C431,-102.17 431,-125.8 431,-125.8 431,-125.8 970.88,-125.8 970.88,-125.8"/>
<polygon fill="black" stroke="black" points="970.88,-129.3 980.88,-125.8 970.88,-122.3 970.88,-129.3"/>
</g>
<!-- RepoModule -->
<g id="node3" class="node">
<title>RepoModule</title>
<polygon fill="#8dd3c7" stroke="black" points="349.6,-84.8 346.6,-88.8 325.6,-88.8 322.6,-84.8 260.4,-84.8 260.4,-48.8 349.6,-48.8 349.6,-84.8"/>
<text text-anchor="middle" x="305" y="-62.6" font-family="Times,serif" font-size="14.00">RepoModule</text>
</g>
<!-- RepoModule&#45;&gt;UserModule -->
<g id="edge3" class="edge">
<title>RepoModule&#45;&gt;UserModule</title>
<path fill="none" stroke="black" d="M305,-85.02C305,-103.63 305,-129.8 305,-129.8 305,-129.8 970.91,-129.8 970.91,-129.8"/>
<polygon fill="black" stroke="black" points="970.91,-133.3 980.91,-129.8 970.91,-126.3 970.91,-133.3"/>
</g>
<!-- TierModule -->
<g id="node4" class="node">
<title>TierModule</title>
<polygon fill="#8dd3c7" stroke="black" points="242.37,-84.8 239.37,-88.8 218.37,-88.8 215.37,-84.8 159.63,-84.8 159.63,-48.8 242.37,-48.8 242.37,-84.8"/>
<text text-anchor="middle" x="201" y="-62.6" font-family="Times,serif" font-size="14.00">TierModule</text>
</g>
<!-- TierModule&#45;&gt;UserModule -->
<g id="edge4" class="edge">
<title>TierModule&#45;&gt;UserModule</title>
<path fill="none" stroke="black" d="M201,-85.11C201,-104.95 201,-133.8 201,-133.8 201,-133.8 970.91,-133.8 970.91,-133.8"/>
<polygon fill="black" stroke="black" points="970.91,-137.3 980.91,-133.8 970.91,-130.3 970.91,-137.3"/>
</g>
<!-- TimescaleModule -->
<g id="node5" class="node">
<title>TimescaleModule</title>
<polygon fill="#8dd3c7" stroke="black" points="141.58,-84.8 138.58,-88.8 117.58,-88.8 114.58,-84.8 24.42,-84.8 24.42,-48.8 141.58,-48.8 141.58,-84.8"/>
<text text-anchor="middle" x="83" y="-62.6" font-family="Times,serif" font-size="14.00">TimescaleModule</text>
</g>
<!-- TimescaleModule&#45;&gt;UserModule -->
<g id="edge5" class="edge">
<title>TimescaleModule&#45;&gt;UserModule</title>
<path fill="none" stroke="black" d="M83,-85.08C83,-106.12 83,-137.8 83,-137.8 83,-137.8 970.81,-137.8 970.81,-137.8"/>
<polygon fill="black" stroke="black" points="970.81,-141.3 980.81,-137.8 970.81,-134.3 970.81,-141.3"/>
</g>
<!-- EndorsementService  -->
<g id="node7" class="node">
<title>EndorsementService </title>
<polygon fill="#fb8072" stroke="black" points="1427.85,-214.8 1292.15,-214.8 1292.15,-178.8 1427.85,-178.8 1427.85,-214.8"/>
<text text-anchor="middle" x="1360" y="-192.6" font-family="Times,serif" font-size="14.00">EndorsementService </text>
</g>
<!-- UserModule&#45;&gt;EndorsementService  -->
<g id="edge6" class="edge">
<title>UserModule&#45;&gt;EndorsementService </title>
<path fill="none" stroke="black" stroke-dasharray="5,2" d="M1067.24,-141.8C1157.99,-141.8 1360,-141.8 1360,-141.8 1360,-141.8 1360,-168.79 1360,-168.79"/>
<polygon fill="black" stroke="black" points="1356.5,-168.79 1360,-178.79 1363.5,-168.79 1356.5,-168.79"/>
</g>
<!-- RepoService  -->
<g id="node8" class="node">
<title>RepoService </title>
<polygon fill="#fb8072" stroke="black" points="1274.53,-214.8 1183.47,-214.8 1183.47,-178.8 1274.53,-178.8 1274.53,-214.8"/>
<text text-anchor="middle" x="1229" y="-192.6" font-family="Times,serif" font-size="14.00">RepoService </text>
</g>
<!-- UserModule&#45;&gt;RepoService  -->
<g id="edge7" class="edge">
<title>UserModule&#45;&gt;RepoService </title>
<path fill="none" stroke="black" stroke-dasharray="5,2" d="M1067.16,-145.8C1123.27,-145.8 1214.19,-145.8 1214.19,-145.8 1214.19,-145.8 1214.19,-168.68 1214.19,-168.68"/>
<polygon fill="black" stroke="black" points="1210.69,-168.68 1214.19,-178.68 1217.69,-168.68 1210.69,-168.68"/>
</g>
<!-- UserFollowService  -->
<g id="node9" class="node">
<title>UserFollowService </title>
<polygon fill="#fb8072" stroke="black" points="1165.59,-214.8 1038.41,-214.8 1038.41,-178.8 1165.59,-178.8 1165.59,-214.8"/>
<text text-anchor="middle" x="1102" y="-192.6" font-family="Times,serif" font-size="14.00">UserFollowService </text>
</g>
<!-- UserModule&#45;&gt;UserFollowService  -->
<g id="edge8" class="edge">
<title>UserModule&#45;&gt;UserFollowService </title>
<path fill="none" stroke="black" stroke-dasharray="5,2" d="M1052.6,-149.91C1052.6,-149.91 1052.6,-168.79 1052.6,-168.79"/>
<polygon fill="black" stroke="black" points="1049.1,-168.79 1052.6,-178.79 1056.1,-168.79 1049.1,-168.79"/>
</g>
<!-- UserHighlightsService  -->
<g id="node10" class="node">
<title>UserHighlightsService </title>
<polygon fill="#fb8072" stroke="black" points="1020.53,-214.8 873.47,-214.8 873.47,-178.8 1020.53,-178.8 1020.53,-214.8"/>
<text text-anchor="middle" x="947" y="-192.6" font-family="Times,serif" font-size="14.00">UserHighlightsService </text>
</g>
<!-- UserModule&#45;&gt;UserHighlightsService  -->
<g id="edge9" class="edge">
<title>UserModule&#45;&gt;UserHighlightsService </title>
<path fill="none" stroke="black" stroke-dasharray="5,2" d="M1000.76,-149.91C1000.76,-149.91 1000.76,-168.79 1000.76,-168.79"/>
<polygon fill="black" stroke="black" points="997.26,-168.79 1000.76,-178.79 1004.26,-168.79 997.26,-168.79"/>
</g>
<!-- UserOrganizationService  -->
<g id="node11" class="node">
<title>UserOrganizationService </title>
<polygon fill="#fb8072" stroke="black" points="855.5,-214.8 694.5,-214.8 694.5,-178.8 855.5,-178.8 855.5,-214.8"/>
<text text-anchor="middle" x="775" y="-192.6" font-family="Times,serif" font-size="14.00">UserOrganizationService </text>
</g>
<!-- UserModule&#45;&gt;UserOrganizationService  -->
<g id="edge10" class="edge">
<title>UserModule&#45;&gt;UserOrganizationService </title>
<path fill="none" stroke="black" stroke-dasharray="5,2" d="M980.86,-145.8C923,-145.8 827.43,-145.8 827.43,-145.8 827.43,-145.8 827.43,-168.68 827.43,-168.68"/>
<polygon fill="black" stroke="black" points="823.93,-168.68 827.43,-178.68 830.93,-168.68 823.93,-168.68"/>
</g>
<!-- UserService  -->
<g id="node12" class="node">
<title>UserService </title>
<polygon fill="#fb8072" stroke="black" points="676.91,-214.8 589.09,-214.8 589.09,-178.8 676.91,-178.8 676.91,-214.8"/>
<text text-anchor="middle" x="633" y="-192.6" font-family="Times,serif" font-size="14.00">UserService </text>
</g>
<!-- UserModule&#45;&gt;UserService  -->
<g id="edge11" class="edge">
<title>UserModule&#45;&gt;UserService </title>
<path fill="none" stroke="black" stroke-dasharray="5,2" d="M980.7,-141.8C886.4,-141.8 670.86,-141.8 670.86,-141.8 670.86,-141.8 670.86,-168.79 670.86,-168.79"/>
<polygon fill="black" stroke="black" points="667.36,-168.79 670.86,-178.79 674.36,-168.79 667.36,-168.79"/>
</g>
<!-- EndorsementService -->
<g id="node13" class="node">
<title>EndorsementService</title>
<ellipse fill="#fdb462" stroke="black" cx="2320" cy="-66.8" rx="90.89" ry="18"/>
<text text-anchor="middle" x="2320" y="-62.6" font-family="Times,serif" font-size="14.00">EndorsementService</text>
</g>
<!-- EndorsementService&#45;&gt;UserModule -->
<g id="edge12" class="edge">
<title>EndorsementService&#45;&gt;UserModule</title>
<path fill="none" stroke="black" d="M2320,-85.08C2320,-106.12 2320,-137.8 2320,-137.8 2320,-137.8 1077.12,-137.8 1077.12,-137.8"/>
<polygon fill="black" stroke="black" points="1077.12,-134.3 1067.12,-137.8 1077.12,-141.3 1077.12,-134.3"/>
</g>
<!-- RepoFilterService -->
<g id="node14" class="node">
<title>RepoFilterService</title>
<ellipse fill="#fdb462" stroke="black" cx="2130" cy="-66.8" rx="81.1" ry="18"/>
<text text-anchor="middle" x="2130" y="-62.6" font-family="Times,serif" font-size="14.00">RepoFilterService</text>
</g>
<!-- RepoFilterService&#45;&gt;UserModule -->
<g id="edge13" class="edge">
<title>RepoFilterService&#45;&gt;UserModule</title>
<path fill="none" stroke="black" d="M2130,-85.11C2130,-104.95 2130,-133.8 2130,-133.8 2130,-133.8 1077.02,-133.8 1077.02,-133.8"/>
<polygon fill="black" stroke="black" points="1077.02,-130.3 1067.02,-133.8 1077.02,-137.3 1077.02,-130.3"/>
</g>
<!-- RepoService -->
<g id="node15" class="node">
<title>RepoService</title>
<ellipse fill="#fdb462" stroke="black" cx="1970" cy="-66.8" rx="60.26" ry="18"/>
<text text-anchor="middle" x="1970" y="-62.6" font-family="Times,serif" font-size="14.00">RepoService</text>
</g>
<!-- RepoService&#45;&gt;UserModule -->
<g id="edge14" class="edge">
<title>RepoService&#45;&gt;UserModule</title>
<path fill="none" stroke="black" d="M1970,-85.02C1970,-103.63 1970,-129.8 1970,-129.8 1970,-129.8 1077.11,-129.8 1077.11,-129.8"/>
<polygon fill="black" stroke="black" points="1077.11,-126.3 1067.11,-129.8 1077.11,-133.3 1077.11,-126.3"/>
</g>
<!-- UserCollaborationService -->
<g id="node16" class="node">
<title>UserCollaborationService</title>
<ellipse fill="#fdb462" stroke="black" cx="1780" cy="-66.8" rx="111.16" ry="18"/>
<text text-anchor="middle" x="1780" y="-62.6" font-family="Times,serif" font-size="14.00">UserCollaborationService</text>
</g>
<!-- UserCollaborationService&#45;&gt;UserModule -->
<g id="edge15" class="edge">
<title>UserCollaborationService&#45;&gt;UserModule</title>
<path fill="none" stroke="black" d="M1780,-84.82C1780,-102.17 1780,-125.8 1780,-125.8 1780,-125.8 1077.09,-125.8 1077.09,-125.8"/>
<polygon fill="black" stroke="black" points="1077.09,-122.3 1067.09,-125.8 1077.09,-129.3 1077.09,-122.3"/>
</g>
<!-- UserFollowService -->
<g id="node17" class="node">
<title>UserFollowService</title>
<ellipse fill="#fdb462" stroke="black" cx="1565" cy="-66.8" rx="85.69" ry="18"/>
<text text-anchor="middle" x="1565" y="-62.6" font-family="Times,serif" font-size="14.00">UserFollowService</text>
</g>
<!-- UserFollowService&#45;&gt;UserModule -->
<g id="edge16" class="edge">
<title>UserFollowService&#45;&gt;UserModule</title>
<path fill="none" stroke="black" d="M1565,-84.81C1565,-100.85 1565,-121.8 1565,-121.8 1565,-121.8 1077.36,-121.8 1077.36,-121.8"/>
<polygon fill="black" stroke="black" points="1077.36,-118.3 1067.36,-121.8 1077.36,-125.3 1077.36,-118.3"/>
</g>
<!-- UserHighlightsService -->
<g id="node18" class="node">
<title>UserHighlightsService</title>
<ellipse fill="#fdb462" stroke="black" cx="1362" cy="-66.8" rx="99.01" ry="18"/>
<text text-anchor="middle" x="1362" y="-62.6" font-family="Times,serif" font-size="14.00">UserHighlightsService</text>
</g>
<!-- UserHighlightsService&#45;&gt;UserModule -->
<g id="edge17" class="edge">
<title>UserHighlightsService&#45;&gt;UserModule</title>
<path fill="none" stroke="black" d="M1268.76,-73.05C1268.76,-86.67 1268.76,-117.8 1268.76,-117.8 1268.76,-117.8 1077.19,-117.8 1077.19,-117.8"/>
<polygon fill="black" stroke="black" points="1077.19,-114.3 1067.19,-117.8 1077.19,-121.3 1077.19,-114.3"/>
</g>
<!-- UserNotificationService -->
<g id="node19" class="node">
<title>UserNotificationService</title>
<ellipse fill="#fdb462" stroke="black" cx="1140" cy="-66.8" rx="104.78" ry="18"/>
<text text-anchor="middle" x="1140" y="-62.6" font-family="Times,serif" font-size="14.00">UserNotificationService</text>
</g>
<!-- UserNotificationService&#45;&gt;UserModule -->
<g id="edge18" class="edge">
<title>UserNotificationService&#45;&gt;UserModule</title>
<path fill="none" stroke="black" d="M1051.05,-76.39C1051.05,-76.39 1051.05,-103.55 1051.05,-103.55"/>
<polygon fill="black" stroke="black" points="1047.55,-103.55 1051.05,-113.55 1054.55,-103.55 1047.55,-103.55"/>
</g>
<!-- UserOrganizationService -->
<g id="node20" class="node">
<title>UserOrganizationService</title>
<ellipse fill="#fdb462" stroke="black" cx="908" cy="-66.8" rx="108.78" ry="18"/>
<text text-anchor="middle" x="908" y="-62.6" font-family="Times,serif" font-size="14.00">UserOrganizationService</text>
</g>
<!-- UserOrganizationService&#45;&gt;UserModule -->
<g id="edge19" class="edge">
<title>UserOrganizationService&#45;&gt;UserModule</title>
<path fill="none" stroke="black" d="M998.82,-76.96C998.82,-76.96 998.82,-103.61 998.82,-103.61"/>
<polygon fill="black" stroke="black" points="995.32,-103.61 998.82,-113.61 1002.32,-103.61 995.32,-103.61"/>
</g>
<!-- UserService -->
<g id="node21" class="node">
<title>UserService</title>
<ellipse fill="#fdb462" stroke="black" cx="723" cy="-66.8" rx="58.46" ry="18"/>
<text text-anchor="middle" x="723" y="-62.6" font-family="Times,serif" font-size="14.00">UserService</text>
</g>
<!-- UserService&#45;&gt;UserModule -->
<g id="edge20" class="edge">
<title>UserService&#45;&gt;UserModule</title>
<path fill="none" stroke="black" d="M737.86,-84.35C737.86,-99.1 737.86,-117.8 737.86,-117.8 737.86,-117.8 970.85,-117.8 970.85,-117.8"/>
<polygon fill="black" stroke="black" points="970.85,-121.3 980.85,-117.8 970.85,-114.3 970.85,-121.3"/>
</g>
</g>
</svg>
