<?xml version="1.0" encoding="UTF-8" standalone="no"?>
<!DOCTYPE svg PUBLIC "-//W3C//DTD SVG 1.1//EN"
 "http://www.w3.org/Graphics/SVG/1.1/DTD/svg11.dtd">
<!-- Generated by graphviz version 3.0.0 (20220226.1711)
 -->
<!-- Title: dependencies Pages: 1 -->
<svg width="388pt" height="247pt"
 viewBox="0.00 0.00 388.00 246.80" xmlns="http://www.w3.org/2000/svg" xmlns:xlink="http://www.w3.org/1999/xlink">
<g id="graph0" class="graph" transform="scale(1 1) rotate(0) translate(4 242.8)">
<title>dependencies</title>
<polygon fill="white" stroke="transparent" points="-4,4 -4,-242.8 384,-242.8 384,4 -4,4"/>
<text text-anchor="middle" x="190" y="-8.2" font-family="sans-serif" font-size="14.00">dependencies</text>
<g id="clust1" class="cluster">
<title>cluster_UserModule</title>
<polygon fill="none" stroke="black" stroke-dasharray="1,5" points="8,-32.8 8,-230.8 372,-230.8 372,-32.8 8,-32.8"/>
</g>
<g id="clust6" class="cluster">
<title>cluster_UserModule_providers</title>
<polygon fill="none" stroke="black" points="16,-40.8 16,-92.8 364,-92.8 364,-40.8 16,-40.8"/>
</g>
<g id="clust4" class="cluster">
<title>cluster_UserModule_exports</title>
<polygon fill="none" stroke="black" points="39,-170.8 39,-222.8 308,-222.8 308,-170.8 39,-170.8"/>
</g>
<!-- UserHighlightsService  -->
<g id="node1" class="node">
<title>UserHighlightsService </title>
<polygon fill="#fb8072" stroke="black" points="299.53,-214.8 152.47,-214.8 152.47,-178.8 299.53,-178.8 299.53,-214.8"/>
<text text-anchor="middle" x="226" y="-192.6" font-family="Times,serif" font-size="14.00">UserHighlightsService </text>
</g>
<!-- UserService  -->
<g id="node2" class="node">
<title>UserService </title>
<polygon fill="#fb8072" stroke="black" points="134.91,-214.8 47.09,-214.8 47.09,-178.8 134.91,-178.8 134.91,-214.8"/>
<text text-anchor="middle" x="91" y="-192.6" font-family="Times,serif" font-size="14.00">UserService </text>
</g>
<!-- UserModule -->
<g id="node3" class="node">
<title>UserModule</title>
<polygon fill="#8dd3c7" stroke="black" points="156.99,-149.8 153.99,-153.8 132.99,-153.8 129.99,-149.8 71.01,-149.8 71.01,-113.8 156.99,-113.8 156.99,-149.8"/>
<text text-anchor="middle" x="114" y="-127.6" font-family="Times,serif" font-size="14.00">UserModule</text>
</g>
<!-- UserModule&#45;&gt;UserHighlightsService  -->
<g id="edge1" class="edge">
<title>UserModule&#45;&gt;UserHighlightsService </title>
<path fill="none" stroke="black" stroke-dasharray="5,2" d="M143.72,-149.91C143.72,-169.14 143.72,-196.8 143.72,-196.8 143.72,-196.8 144.57,-196.8 144.57,-196.8"/>
<polygon fill="black" stroke="black" points="142.22,-200.3 152.22,-196.8 142.22,-193.3 142.22,-200.3"/>
</g>
<!-- UserModule&#45;&gt;UserService  -->
<g id="edge2" class="edge">
<title>UserModule&#45;&gt;UserService </title>
<path fill="none" stroke="black" stroke-dasharray="5,2" d="M102.98,-149.91C102.98,-149.91 102.98,-168.79 102.98,-168.79"/>
<polygon fill="black" stroke="black" points="99.48,-168.79 102.98,-178.79 106.48,-168.79 99.48,-168.79"/>
</g>
<!-- UserHighlightsService -->
<g id="node4" class="node">
<title>UserHighlightsService</title>
<ellipse fill="#fdb462" stroke="black" cx="257" cy="-66.8" rx="99.01" ry="18"/>
<text text-anchor="middle" x="257" y="-62.6" font-family="Times,serif" font-size="14.00">UserHighlightsService</text>
</g>
<!-- UserHighlightsService&#45;&gt;UserModule -->
<g id="edge3" class="edge">
<title>UserHighlightsService&#45;&gt;UserModule</title>
<path fill="none" stroke="black" d="M157.85,-66.8C152.11,-66.8 148.61,-66.8 148.61,-66.8 148.61,-66.8 148.61,-103.69 148.61,-103.69"/>
<polygon fill="black" stroke="black" points="145.11,-103.69 148.61,-113.69 152.11,-103.69 145.11,-103.69"/>
</g>
<!-- UserService -->
<g id="node5" class="node">
<title>UserService</title>
<ellipse fill="#fdb462" stroke="black" cx="82" cy="-66.8" rx="58.46" ry="18"/>
<text text-anchor="middle" x="82" y="-62.6" font-family="Times,serif" font-size="14.00">UserService</text>
</g>
<!-- UserService&#45;&gt;UserModule -->
<g id="edge4" class="edge">
<title>UserService&#45;&gt;UserModule</title>
<path fill="none" stroke="black" d="M105.62,-83.54C105.62,-83.54 105.62,-103.52 105.62,-103.52"/>
<polygon fill="black" stroke="black" points="102.12,-103.52 105.62,-113.52 109.12,-103.52 102.12,-103.52"/>
</g>
</g>
</svg>
