<?xml version="1.0" encoding="UTF-8" standalone="no"?>
<!DOCTYPE svg PUBLIC "-//W3C//DTD SVG 1.1//EN"
 "http://www.w3.org/Graphics/SVG/1.1/DTD/svg11.dtd">
<!-- Generated by graphviz version 3.0.0 (20220226.1711)
 -->
<!-- Title: dependencies Pages: 1 -->
<svg width="378pt" height="247pt"
 viewBox="0.00 0.00 378.00 246.80" xmlns="http://www.w3.org/2000/svg" xmlns:xlink="http://www.w3.org/1999/xlink">
<g id="graph0" class="graph" transform="scale(1 1) rotate(0) translate(4 242.8)">
<title>dependencies</title>
<polygon fill="white" stroke="transparent" points="-4,4 -4,-242.8 374,-242.8 374,4 -4,4"/>
<text text-anchor="middle" x="185" y="-8.2" font-family="sans-serif" font-size="14.00">dependencies</text>
<g id="clust1" class="cluster">
<title>cluster_IssueSummaryModule</title>
<polygon fill="none" stroke="black" stroke-dasharray="1,5" points="8,-32.8 8,-230.8 362,-230.8 362,-32.8 8,-32.8"/>
</g>
<g id="clust3" class="cluster">
<title>cluster_IssueSummaryModule_imports</title>
<polygon fill="none" stroke="black" points="234,-40.8 234,-92.8 354,-92.8 354,-40.8 234,-40.8"/>
</g>
<g id="clust4" class="cluster">
<title>cluster_IssueSummaryModule_exports</title>
<polygon fill="none" stroke="black" points="117,-170.8 117,-222.8 277,-222.8 277,-170.8 117,-170.8"/>
</g>
<g id="clust6" class="cluster">
<title>cluster_IssueSummaryModule_providers</title>
<polygon fill="none" stroke="black" points="16,-40.8 16,-92.8 226,-92.8 226,-40.8 16,-40.8"/>
</g>
<!-- OpenAiModule -->
<g id="node1" class="node">
<title>OpenAiModule</title>
<polygon fill="#8dd3c7" stroke="black" points="345.88,-84.8 342.88,-88.8 321.88,-88.8 318.88,-84.8 242.12,-84.8 242.12,-48.8 345.88,-48.8 345.88,-84.8"/>
<text text-anchor="middle" x="294" y="-62.6" font-family="Times,serif" font-size="14.00">OpenAiModule</text>
</g>
<!-- IssueSummaryModule -->
<g id="node2" class="node">
<title>IssueSummaryModule</title>
<polygon fill="#8dd3c7" stroke="black" points="268.27,-149.8 265.27,-153.8 244.27,-153.8 241.27,-149.8 125.73,-149.8 125.73,-113.8 268.27,-113.8 268.27,-149.8"/>
<text text-anchor="middle" x="197" y="-127.6" font-family="Times,serif" font-size="14.00">IssueSummaryModule</text>
</g>
<!-- OpenAiModule&#45;&gt;IssueSummaryModule -->
<g id="edge1" class="edge">
<title>OpenAiModule&#45;&gt;IssueSummaryModule</title>
<path fill="none" stroke="black" d="M255.22,-84.91C255.22,-84.91 255.22,-103.79 255.22,-103.79"/>
<polygon fill="black" stroke="black" points="251.72,-103.79 255.22,-113.79 258.72,-103.79 251.72,-103.79"/>
</g>
<!-- IssueSummaryService  -->
<g id="node3" class="node">
<title>IssueSummaryService </title>
<polygon fill="#fb8072" stroke="black" points="269.19,-214.8 124.81,-214.8 124.81,-178.8 269.19,-178.8 269.19,-214.8"/>
<text text-anchor="middle" x="197" y="-192.6" font-family="Times,serif" font-size="14.00">IssueSummaryService </text>
</g>
<!-- IssueSummaryModule&#45;&gt;IssueSummaryService  -->
<g id="edge2" class="edge">
<title>IssueSummaryModule&#45;&gt;IssueSummaryService </title>
<path fill="none" stroke="black" stroke-dasharray="5,2" d="M197,-149.91C197,-149.91 197,-168.79 197,-168.79"/>
<polygon fill="black" stroke="black" points="193.5,-168.79 197,-178.79 200.5,-168.79 193.5,-168.79"/>
</g>
<!-- IssueSummaryService -->
<g id="node4" class="node">
<title>IssueSummaryService</title>
<ellipse fill="#fdb462" stroke="black" cx="121" cy="-66.8" rx="97.29" ry="18"/>
<text text-anchor="middle" x="121" y="-62.6" font-family="Times,serif" font-size="14.00">IssueSummaryService</text>
</g>
<!-- IssueSummaryService&#45;&gt;IssueSummaryModule -->
<g id="edge3" class="edge">
<title>IssueSummaryService&#45;&gt;IssueSummaryModule</title>
<path fill="none" stroke="black" d="M172,-82.2C172,-82.2 172,-103.74 172,-103.74"/>
<polygon fill="black" stroke="black" points="168.5,-103.74 172,-113.74 175.5,-103.74 168.5,-103.74"/>
</g>
</g>
</svg>
