<?xml version="1.0" encoding="UTF-8" standalone="no"?>
<!DOCTYPE svg PUBLIC "-//W3C//DTD SVG 1.1//EN"
 "http://www.w3.org/Graphics/SVG/1.1/DTD/svg11.dtd">
<!-- Generated by graphviz version 3.0.0 (20220226.1711)
 -->
<!-- Title: dependencies Pages: 1 -->
<svg width="218pt" height="247pt"
 viewBox="0.00 0.00 218.00 246.80" xmlns="http://www.w3.org/2000/svg" xmlns:xlink="http://www.w3.org/1999/xlink">
<g id="graph0" class="graph" transform="scale(1 1) rotate(0) translate(4 242.8)">
<title>dependencies</title>
<polygon fill="white" stroke="transparent" points="-4,4 -4,-242.8 214,-242.8 214,4 -4,4"/>
<text text-anchor="middle" x="105" y="-8.2" font-family="sans-serif" font-size="14.00">dependencies</text>
<g id="clust1" class="cluster">
<title>cluster_RepoFilterModule</title>
<polygon fill="none" stroke="black" stroke-dasharray="1,5" points="8,-32.8 8,-230.8 202,-230.8 202,-32.8 8,-32.8"/>
</g>
<g id="clust4" class="cluster">
<title>cluster_RepoFilterModule_exports</title>
<polygon fill="none" stroke="black" points="36,-170.8 36,-222.8 174,-222.8 174,-170.8 36,-170.8"/>
</g>
<g id="clust6" class="cluster">
<title>cluster_RepoFilterModule_providers</title>
<polygon fill="none" stroke="black" points="16,-40.8 16,-92.8 194,-92.8 194,-40.8 16,-40.8"/>
</g>
<!-- RepoFilterService  -->
<g id="node1" class="node">
<title>RepoFilterService </title>
<polygon fill="#fb8072" stroke="black" points="165.86,-214.8 44.14,-214.8 44.14,-178.8 165.86,-178.8 165.86,-214.8"/>
<text text-anchor="middle" x="105" y="-192.6" font-family="Times,serif" font-size="14.00">RepoFilterService </text>
</g>
<!-- RepoFilterModule -->
<g id="node2" class="node">
<title>RepoFilterModule</title>
<polygon fill="#8dd3c7" stroke="black" points="164.94,-149.8 161.94,-153.8 140.94,-153.8 137.94,-149.8 45.06,-149.8 45.06,-113.8 164.94,-113.8 164.94,-149.8"/>
<text text-anchor="middle" x="105" y="-127.6" font-family="Times,serif" font-size="14.00">RepoFilterModule</text>
</g>
<!-- RepoFilterModule&#45;&gt;RepoFilterService  -->
<g id="edge1" class="edge">
<title>RepoFilterModule&#45;&gt;RepoFilterService </title>
<path fill="none" stroke="black" stroke-dasharray="5,2" d="M105,-149.91C105,-149.91 105,-168.79 105,-168.79"/>
<polygon fill="black" stroke="black" points="101.5,-168.79 105,-178.79 108.5,-168.79 101.5,-168.79"/>
</g>
<!-- RepoFilterService -->
<g id="node3" class="node">
<title>RepoFilterService</title>
<ellipse fill="#fdb462" stroke="black" cx="105" cy="-66.8" rx="81.1" ry="18"/>
<text text-anchor="middle" x="105" y="-62.6" font-family="Times,serif" font-size="14.00">RepoFilterService</text>
</g>
<!-- RepoFilterService&#45;&gt;RepoFilterModule -->
<g id="edge2" class="edge">
<title>RepoFilterService&#45;&gt;RepoFilterModule</title>
<path fill="none" stroke="black" d="M105,-84.91C105,-84.91 105,-103.79 105,-103.79"/>
<polygon fill="black" stroke="black" points="101.5,-103.79 105,-113.79 108.5,-103.79 101.5,-103.79"/>
</g>
</g>
</svg>
