<?xml version="1.0" encoding="UTF-8" standalone="no"?>
<!DOCTYPE svg PUBLIC "-//W3C//DTD SVG 1.1//EN"
 "http://www.w3.org/Graphics/SVG/1.1/DTD/svg11.dtd">
<!-- Generated by graphviz version 3.0.0 (20220226.1711)
 -->
<!-- Title: dependencies Pages: 1 -->
<svg width="736pt" height="253pt"
 viewBox="0.00 0.00 736.00 252.80" xmlns="http://www.w3.org/2000/svg" xmlns:xlink="http://www.w3.org/1999/xlink">
<g id="graph0" class="graph" transform="scale(1 1) rotate(0) translate(4 248.8)">
<title>dependencies</title>
<polygon fill="white" stroke="transparent" points="-4,4 -4,-248.8 732,-248.8 732,4 -4,4"/>
<text text-anchor="middle" x="364" y="-8.2" font-family="sans-serif" font-size="14.00">dependencies</text>
<g id="clust1" class="cluster">
<title>cluster_AppModule</title>
<polygon fill="none" stroke="black" stroke-dasharray="1,5" points="8,-32.8 8,-160.8 244,-160.8 244,-32.8 8,-32.8"/>
</g>
<g id="clust3" class="cluster">
<title>cluster_AppModule_imports</title>
<polygon fill="none" stroke="black" points="16,-40.8 16,-92.8 236,-92.8 236,-40.8 16,-40.8"/>
</g>
<g id="clust7" class="cluster">
<title>cluster_AuthModule</title>
<polygon fill="none" stroke="black" stroke-dasharray="1,5" points="528,-32.8 528,-236.8 720,-236.8 720,-32.8 528,-32.8"/>
</g>
<g id="clust10" class="cluster">
<title>cluster_AuthModule_exports</title>
<polygon fill="none" stroke="black" points="556,-176.8 556,-228.8 692,-228.8 692,-176.8 556,-176.8"/>
</g>
<g id="clust12" class="cluster">
<title>cluster_AuthModule_providers</title>
<polygon fill="none" stroke="black" points="536,-40.8 536,-92.8 712,-92.8 712,-40.8 536,-40.8"/>
</g>
<g id="clust19" class="cluster">
<title>cluster_RepoModule</title>
<polygon fill="none" stroke="black" stroke-dasharray="1,5" points="252,-100.8 252,-168.8 520,-168.8 520,-100.8 252,-100.8"/>
</g>
<g id="clust22" class="cluster">
<title>cluster_RepoModule_exports</title>
<polygon fill="none" stroke="black" points="404,-108.8 404,-160.8 512,-160.8 512,-108.8 404,-108.8"/>
</g>
<g id="clust24" class="cluster">
<title>cluster_RepoModule_providers</title>
<polygon fill="none" stroke="black" points="260,-108.8 260,-160.8 396,-160.8 396,-108.8 260,-108.8"/>
</g>
<!-- HealthModule -->
<g id="node1" class="node">
<title>HealthModule</title>
<polygon fill="#8dd3c7" stroke="black" points="120.37,-84.8 117.37,-88.8 96.37,-88.8 93.37,-84.8 23.63,-84.8 23.63,-48.8 120.37,-48.8 120.37,-84.8"/>
<text text-anchor="middle" x="72" y="-62.6" font-family="Times,serif" font-size="14.00">HealthModule</text>
</g>
<!-- AppModule -->
<g id="node3" class="node">
<title>AppModule</title>
<polygon fill="#8dd3c7" stroke="black" points="168.66,-152.8 165.66,-156.8 144.66,-156.8 141.66,-152.8 85.34,-152.8 85.34,-116.8 168.66,-116.8 168.66,-152.8"/>
<text text-anchor="middle" x="127" y="-130.6" font-family="Times,serif" font-size="14.00">AppModule</text>
</g>
<!-- HealthModule&#45;&gt;AppModule -->
<g id="edge1" class="edge">
<title>HealthModule&#45;&gt;AppModule</title>
<path fill="none" stroke="black" d="M102.8,-85.02C102.8,-85.02 102.8,-106.53 102.8,-106.53"/>
<polygon fill="black" stroke="black" points="99.3,-106.53 102.8,-116.53 106.3,-106.53 99.3,-106.53"/>
</g>
<!-- RepoModule -->
<g id="node2" class="node">
<title>RepoModule</title>
<polygon fill="#8dd3c7" stroke="black" points="227.6,-84.8 224.6,-88.8 203.6,-88.8 200.6,-84.8 138.4,-84.8 138.4,-48.8 227.6,-48.8 227.6,-84.8"/>
<text text-anchor="middle" x="183" y="-62.6" font-family="Times,serif" font-size="14.00">RepoModule</text>
</g>
<!-- RepoModule&#45;&gt;AppModule -->
<g id="edge2" class="edge">
<title>RepoModule&#45;&gt;AppModule</title>
<path fill="none" stroke="black" d="M153.64,-85.02C153.64,-85.02 153.64,-106.53 153.64,-106.53"/>
<polygon fill="black" stroke="black" points="150.14,-106.53 153.64,-116.53 157.14,-106.53 150.14,-106.53"/>
</g>
<!-- RepoService  -->
<g id="node7" class="node">
<title>RepoService </title>
<polygon fill="#fb8072" stroke="black" points="503.53,-152.8 412.47,-152.8 412.47,-116.8 503.53,-116.8 503.53,-152.8"/>
<text text-anchor="middle" x="458" y="-130.6" font-family="Times,serif" font-size="14.00">RepoService </text>
</g>
<!-- RepoModule&#45;&gt;RepoService  -->
<g id="edge5" class="edge">
<title>RepoModule&#45;&gt;RepoService </title>
<path fill="none" stroke="black" stroke-dasharray="5,2" d="M227.8,-66.8C305.72,-66.8 458,-66.8 458,-66.8 458,-66.8 458,-106.58 458,-106.58"/>
<polygon fill="black" stroke="black" points="454.5,-106.58 458,-116.58 461.5,-106.58 454.5,-106.58"/>
</g>
<!-- SupabaseStrategy  -->
<g id="node4" class="node">
<title>SupabaseStrategy </title>
<polygon fill="#fb8072" stroke="black" points="683.53,-220.8 564.47,-220.8 564.47,-184.8 683.53,-184.8 683.53,-220.8"/>
<text text-anchor="middle" x="624" y="-198.6" font-family="Times,serif" font-size="14.00">SupabaseStrategy </text>
</g>
<!-- AuthModule -->
<g id="node5" class="node">
<title>AuthModule</title>
<polygon fill="#8dd3c7" stroke="black" points="667.55,-152.8 664.55,-156.8 643.55,-156.8 640.55,-152.8 580.45,-152.8 580.45,-116.8 667.55,-116.8 667.55,-152.8"/>
<text text-anchor="middle" x="624" y="-130.6" font-family="Times,serif" font-size="14.00">AuthModule</text>
</g>
<!-- AuthModule&#45;&gt;SupabaseStrategy  -->
<g id="edge3" class="edge">
<title>AuthModule&#45;&gt;SupabaseStrategy </title>
<path fill="none" stroke="black" stroke-dasharray="5,2" d="M624,-153.02C624,-153.02 624,-174.53 624,-174.53"/>
<polygon fill="black" stroke="black" points="620.5,-174.53 624,-184.53 627.5,-174.53 620.5,-174.53"/>
</g>
<!-- SupabaseStrategy -->
<g id="node6" class="node">
<title>SupabaseStrategy</title>
<ellipse fill="#fdb462" stroke="black" cx="624" cy="-66.8" rx="79.88" ry="18"/>
<text text-anchor="middle" x="624" y="-62.6" font-family="Times,serif" font-size="14.00">SupabaseStrategy</text>
</g>
<!-- SupabaseStrategy&#45;&gt;AuthModule -->
<g id="edge4" class="edge">
<title>SupabaseStrategy&#45;&gt;AuthModule</title>
<path fill="none" stroke="black" d="M624,-85.02C624,-85.02 624,-106.53 624,-106.53"/>
<polygon fill="black" stroke="black" points="620.5,-106.53 624,-116.53 627.5,-106.53 620.5,-106.53"/>
</g>
<!-- RepoService -->
<g id="node8" class="node">
<title>RepoService</title>
<ellipse fill="#fdb462" stroke="black" cx="328" cy="-134.8" rx="60.26" ry="18"/>
<text text-anchor="middle" x="328" y="-130.6" font-family="Times,serif" font-size="14.00">RepoService</text>
</g>
<!-- RepoService&#45;&gt;RepoModule -->
<g id="edge6" class="edge">
<title>RepoService&#45;&gt;RepoModule</title>
<path fill="none" stroke="black" d="M267.28,-134.8C233.49,-134.8 198.19,-134.8 198.19,-134.8 198.19,-134.8 198.19,-95.02 198.19,-95.02"/>
<polygon fill="black" stroke="black" points="201.69,-95.02 198.19,-85.02 194.69,-95.02 201.69,-95.02"/>
</g>
</g>
</svg>
