<?xml version="1.0" encoding="UTF-8" standalone="no"?>
<!DOCTYPE svg PUBLIC "-//W3C//DTD SVG 1.1//EN"
 "http://www.w3.org/Graphics/SVG/1.1/DTD/svg11.dtd">
<!-- Generated by graphviz version 3.0.0 (20220226.1711)
 -->
<!-- Title: dependencies Pages: 1 -->
<svg width="2947pt" height="334pt"
 viewBox="0.00 0.00 2947.00 333.80" xmlns="http://www.w3.org/2000/svg" xmlns:xlink="http://www.w3.org/1999/xlink">
<g id="graph0" class="graph" transform="scale(1 1) rotate(0) translate(4 329.8)">
<title>dependencies</title>
<polygon fill="white" stroke="transparent" points="-4,4 -4,-329.8 2943,-329.8 2943,4 -4,4"/>
<text text-anchor="middle" x="1469.5" y="-8.2" font-family="sans-serif" font-size="14.00">dependencies</text>
<g id="clust1" class="cluster">
<title>cluster_AppModule</title>
<polygon fill="none" stroke="black" stroke-dasharray="1,5" points="8,-108.8 8,-309.8 1067,-309.8 1067,-108.8 8,-108.8"/>
</g>
<g id="clust3" class="cluster">
<title>cluster_AppModule_imports</title>
<polygon fill="none" stroke="black" points="16,-116.8 16,-233.8 1059,-233.8 1059,-116.8 16,-116.8"/>
</g>
<g id="clust7" class="cluster">
<title>cluster_AuthModule</title>
<polygon fill="none" stroke="black" stroke-dasharray="1,5" points="1075,-249.8 1075,-317.8 1697,-317.8 1697,-249.8 1075,-249.8"/>
</g>
<g id="clust10" class="cluster">
<title>cluster_AuthModule_exports</title>
<polygon fill="none" stroke="black" points="1428,-257.8 1428,-309.8 1689,-309.8 1689,-257.8 1428,-257.8"/>
</g>
<g id="clust12" class="cluster">
<title>cluster_AuthModule_providers</title>
<polygon fill="none" stroke="black" points="1083,-257.8 1083,-309.8 1420,-309.8 1420,-257.8 1083,-257.8"/>
</g>
<g id="clust13" class="cluster">
<title>cluster_ContributionModule</title>
<polygon fill="none" stroke="black" stroke-dasharray="1,5" points="75,-32.8 75,-100.8 582,-100.8 582,-32.8 75,-32.8"/>
</g>
<g id="clust16" class="cluster">
<title>cluster_ContributionModule_exports</title>
<polygon fill="none" stroke="black" points="83,-40.8 83,-92.8 233,-92.8 233,-40.8 83,-40.8"/>
</g>
<g id="clust18" class="cluster">
<title>cluster_ContributionModule_providers</title>
<polygon fill="none" stroke="black" points="241,-40.8 241,-92.8 574,-92.8 574,-40.8 241,-40.8"/>
</g>
<g id="clust25" class="cluster">
<title>cluster_InsightsModule</title>
<polygon fill="none" stroke="black" stroke-dasharray="1,5" points="1075,-173.8 1075,-241.8 1379,-241.8 1379,-173.8 1075,-173.8"/>
</g>
<g id="clust28" class="cluster">
<title>cluster_InsightsModule_exports</title>
<polygon fill="none" stroke="black" points="1249,-181.8 1249,-233.8 1371,-233.8 1371,-181.8 1249,-181.8"/>
</g>
<g id="clust30" class="cluster">
<title>cluster_InsightsModule_providers</title>
<polygon fill="none" stroke="black" points="1083,-181.8 1083,-233.8 1241,-233.8 1241,-181.8 1083,-181.8"/>
</g>
<g id="clust31" class="cluster">
<title>cluster_RepoModule</title>
<polygon fill="none" stroke="black" stroke-dasharray="1,5" points="1387,-173.8 1387,-241.8 1511,-241.8 1511,-173.8 1387,-173.8"/>
</g>
<g id="clust34" class="cluster">
<title>cluster_RepoModule_exports</title>
<polygon fill="none" stroke="black" points="1395,-181.8 1395,-233.8 1503,-233.8 1503,-181.8 1395,-181.8"/>
</g>
<g id="clust37" class="cluster">
<title>cluster_StargazeModule</title>
<polygon fill="none" stroke="black" stroke-dasharray="1,5" points="1779,-173.8 1779,-241.8 2091,-241.8 2091,-173.8 1779,-173.8"/>
</g>
<g id="clust40" class="cluster">
<title>cluster_StargazeModule_exports</title>
<polygon fill="none" stroke="black" points="1957,-181.8 1957,-233.8 2083,-233.8 2083,-181.8 1957,-181.8"/>
</g>
<g id="clust42" class="cluster">
<title>cluster_StargazeModule_providers</title>
<polygon fill="none" stroke="black" points="1787,-181.8 1787,-233.8 1949,-233.8 1949,-181.8 1787,-181.8"/>
</g>
<g id="clust43" class="cluster">
<title>cluster_StarModule</title>
<polygon fill="none" stroke="black" stroke-dasharray="1,5" points="1519,-173.8 1519,-241.8 1771,-241.8 1771,-173.8 1519,-173.8"/>
</g>
<g id="clust46" class="cluster">
<title>cluster_StarModule_exports</title>
<polygon fill="none" stroke="black" points="1663,-181.8 1663,-233.8 1763,-233.8 1763,-181.8 1663,-181.8"/>
</g>
<g id="clust48" class="cluster">
<title>cluster_StarModule_providers</title>
<polygon fill="none" stroke="black" points="1527,-181.8 1527,-233.8 1655,-233.8 1655,-181.8 1527,-181.8"/>
</g>
<g id="clust49" class="cluster">
<title>cluster_SubmitModule</title>
<polygon fill="none" stroke="black" stroke-dasharray="1,5" points="2099,-173.8 2099,-241.8 2393,-241.8 2393,-173.8 2099,-173.8"/>
</g>
<g id="clust52" class="cluster">
<title>cluster_SubmitModule_exports</title>
<polygon fill="none" stroke="black" points="2267,-181.8 2267,-233.8 2385,-233.8 2385,-181.8 2267,-181.8"/>
</g>
<g id="clust54" class="cluster">
<title>cluster_SubmitModule_providers</title>
<polygon fill="none" stroke="black" points="2107,-181.8 2107,-233.8 2259,-233.8 2259,-181.8 2107,-181.8"/>
</g>
<g id="clust55" class="cluster">
<title>cluster_UserModule</title>
<polygon fill="none" stroke="black" stroke-dasharray="1,5" points="2401,-173.8 2401,-241.8 2661,-241.8 2661,-173.8 2401,-173.8"/>
</g>
<g id="clust58" class="cluster">
<title>cluster_UserModule_exports</title>
<polygon fill="none" stroke="black" points="2549,-181.8 2549,-233.8 2653,-233.8 2653,-181.8 2549,-181.8"/>
</g>
<g id="clust60" class="cluster">
<title>cluster_UserModule_providers</title>
<polygon fill="none" stroke="black" points="2409,-181.8 2409,-233.8 2541,-233.8 2541,-181.8 2409,-181.8"/>
</g>
<g id="clust61" class="cluster">
<title>cluster_VoteModule</title>
<polygon fill="none" stroke="black" stroke-dasharray="1,5" points="2669,-173.8 2669,-241.8 2931,-241.8 2931,-173.8 2669,-173.8"/>
</g>
<g id="clust64" class="cluster">
<title>cluster_VoteModule_exports</title>
<polygon fill="none" stroke="black" points="2819,-181.8 2819,-233.8 2923,-233.8 2923,-181.8 2819,-181.8"/>
</g>
<g id="clust66" class="cluster">
<title>cluster_VoteModule_providers</title>
<polygon fill="none" stroke="black" points="2677,-181.8 2677,-233.8 2811,-233.8 2811,-181.8 2677,-181.8"/>
</g>
<!-- AuthModule -->
<g id="node1" class="node">
<title>AuthModule</title>
<polygon fill="#8dd3c7" stroke="black" points="1050.55,-225.8 1047.55,-229.8 1026.55,-229.8 1023.55,-225.8 963.45,-225.8 963.45,-189.8 1050.55,-189.8 1050.55,-225.8"/>
<text text-anchor="middle" x="1007" y="-203.6" font-family="Times,serif" font-size="14.00">AuthModule</text>
</g>
<!-- AppModule -->
<g id="node11" class="node">
<title>AppModule</title>
<polygon fill="#8dd3c7" stroke="black" points="644.66,-301.8 641.66,-305.8 620.66,-305.8 617.66,-301.8 561.34,-301.8 561.34,-265.8 644.66,-265.8 644.66,-301.8"/>
<text text-anchor="middle" x="603" y="-279.6" font-family="Times,serif" font-size="14.00">AppModule</text>
</g>
<!-- AuthModule&#45;&gt;AppModule -->
<g id="edge1" class="edge">
<title>AuthModule&#45;&gt;AppModule</title>
<path fill="none" stroke="black" d="M963.3,-213.8C865.13,-213.8 635.6,-213.8 635.6,-213.8 635.6,-213.8 635.6,-255.77 635.6,-255.77"/>
<polygon fill="black" stroke="black" points="632.1,-255.77 635.6,-265.77 639.1,-255.77 632.1,-255.77"/>
</g>
<!-- SupabaseGuard  -->
<g id="node12" class="node">
<title>SupabaseGuard </title>
<polygon fill="#fb8072" stroke="black" points="1680.86,-301.8 1573.14,-301.8 1573.14,-265.8 1680.86,-265.8 1680.86,-301.8"/>
<text text-anchor="middle" x="1627" y="-279.6" font-family="Times,serif" font-size="14.00">SupabaseGuard </text>
</g>
<!-- AuthModule&#45;&gt;SupabaseGuard  -->
<g id="edge12" class="edge">
<title>AuthModule&#45;&gt;SupabaseGuard </title>
<path fill="none" stroke="black" stroke-dasharray="5,2" d="M998.24,-226.01C998.24,-231.35 998.24,-235.8 998.24,-235.8 998.24,-235.8 1609.93,-235.8 1609.93,-235.8 1609.93,-235.8 1609.93,-255.65 1609.93,-255.65"/>
<polygon fill="black" stroke="black" points="1606.43,-255.65 1609.93,-265.65 1613.43,-255.65 1606.43,-255.65"/>
</g>
<!-- SupabaseStrategy  -->
<g id="node13" class="node">
<title>SupabaseStrategy </title>
<polygon fill="#fb8072" stroke="black" points="1555.53,-301.8 1436.47,-301.8 1436.47,-265.8 1555.53,-265.8 1555.53,-301.8"/>
<text text-anchor="middle" x="1496" y="-279.6" font-family="Times,serif" font-size="14.00">SupabaseStrategy </text>
</g>
<!-- AuthModule&#45;&gt;SupabaseStrategy  -->
<g id="edge13" class="edge">
<title>AuthModule&#45;&gt;SupabaseStrategy </title>
<path fill="none" stroke="black" stroke-dasharray="5,2" d="M980.73,-225.91C980.73,-235.7 980.73,-245.8 980.73,-245.8 980.73,-245.8 1465.5,-245.8 1465.5,-245.8 1465.5,-245.8 1465.5,-255.69 1465.5,-255.69"/>
<polygon fill="black" stroke="black" points="1462,-255.69 1465.5,-265.69 1469,-255.69 1462,-255.69"/>
</g>
<!-- ContributionModule -->
<g id="node2" class="node">
<title>ContributionModule</title>
<polygon fill="#8dd3c7" stroke="black" points="155.61,-160.8 152.61,-164.8 131.61,-164.8 128.61,-160.8 24.39,-160.8 24.39,-124.8 155.61,-124.8 155.61,-160.8"/>
<text text-anchor="middle" x="90" y="-138.6" font-family="Times,serif" font-size="14.00">ContributionModule</text>
</g>
<!-- ContributionModule&#45;&gt;AppModule -->
<g id="edge2" class="edge">
<title>ContributionModule&#45;&gt;AppModule</title>
<path fill="none" stroke="black" d="M90,-160.83C90,-201.1 90,-294.8 90,-294.8 90,-294.8 551.02,-294.8 551.02,-294.8"/>
<polygon fill="black" stroke="black" points="551.02,-298.3 561.02,-294.8 551.02,-291.3 551.02,-298.3"/>
</g>
<!-- ContributionService  -->
<g id="node16" class="node">
<title>ContributionService </title>
<polygon fill="#fb8072" stroke="black" points="224.54,-84.8 91.46,-84.8 91.46,-48.8 224.54,-48.8 224.54,-84.8"/>
<text text-anchor="middle" x="158" y="-62.6" font-family="Times,serif" font-size="14.00">ContributionService </text>
</g>
<!-- ContributionModule&#45;&gt;ContributionService  -->
<g id="edge16" class="edge">
<title>ContributionModule&#45;&gt;ContributionService </title>
<path fill="none" stroke="black" stroke-dasharray="5,2" d="M107.5,-124.79C107.5,-124.79 107.5,-94.95 107.5,-94.95"/>
<polygon fill="black" stroke="black" points="111,-94.95 107.5,-84.95 104,-94.95 111,-94.95"/>
</g>
<!-- HealthModule -->
<g id="node3" class="node">
<title>HealthModule</title>
<polygon fill="#8dd3c7" stroke="black" points="270.37,-160.8 267.37,-164.8 246.37,-164.8 243.37,-160.8 173.63,-160.8 173.63,-124.8 270.37,-124.8 270.37,-160.8"/>
<text text-anchor="middle" x="222" y="-138.6" font-family="Times,serif" font-size="14.00">HealthModule</text>
</g>
<!-- HealthModule&#45;&gt;AppModule -->
<g id="edge3" class="edge">
<title>HealthModule&#45;&gt;AppModule</title>
<path fill="none" stroke="black" d="M222,-160.87C222,-199.74 222,-287.8 222,-287.8 222,-287.8 551.14,-287.8 551.14,-287.8"/>
<polygon fill="black" stroke="black" points="551.14,-291.3 561.14,-287.8 551.14,-284.3 551.14,-291.3"/>
</g>
<!-- InsightsModule -->
<g id="node4" class="node">
<title>InsightsModule</title>
<polygon fill="#8dd3c7" stroke="black" points="391.89,-160.8 388.89,-164.8 367.89,-164.8 364.89,-160.8 288.11,-160.8 288.11,-124.8 391.89,-124.8 391.89,-160.8"/>
<text text-anchor="middle" x="340" y="-138.6" font-family="Times,serif" font-size="14.00">InsightsModule</text>
</g>
<!-- InsightsModule&#45;&gt;AppModule -->
<g id="edge4" class="edge">
<title>InsightsModule&#45;&gt;AppModule</title>
<path fill="none" stroke="black" d="M365.97,-160.84C365.97,-198.25 365.97,-280.8 365.97,-280.8 365.97,-280.8 551.17,-280.8 551.17,-280.8"/>
<polygon fill="black" stroke="black" points="551.17,-284.3 561.17,-280.8 551.17,-277.3 551.17,-284.3"/>
</g>
<!-- InsightsService  -->
<g id="node19" class="node">
<title>InsightsService </title>
<polygon fill="#fb8072" stroke="black" points="1362.82,-225.8 1257.18,-225.8 1257.18,-189.8 1362.82,-189.8 1362.82,-225.8"/>
<text text-anchor="middle" x="1310" y="-203.6" font-family="Times,serif" font-size="14.00">InsightsService </text>
</g>
<!-- InsightsModule&#45;&gt;InsightsService  -->
<g id="edge19" class="edge">
<title>InsightsModule&#45;&gt;InsightsService </title>
<path fill="none" stroke="black" stroke-dasharray="5,2" d="M314.03,-161.29C314.03,-172.94 314.03,-185.8 314.03,-185.8 314.03,-185.8 1310,-185.8 1310,-185.8 1310,-185.8 1310,-186.18 1310,-186.18"/>
<polygon fill="black" stroke="black" points="1306.5,-179.63 1310,-189.63 1313.5,-179.63 1306.5,-179.63"/>
</g>
<!-- RepoModule -->
<g id="node5" class="node">
<title>RepoModule</title>
<polygon fill="#8dd3c7" stroke="black" points="498.6,-160.8 495.6,-164.8 474.6,-164.8 471.6,-160.8 409.4,-160.8 409.4,-124.8 498.6,-124.8 498.6,-160.8"/>
<text text-anchor="middle" x="454" y="-138.6" font-family="Times,serif" font-size="14.00">RepoModule</text>
</g>
<!-- RepoModule&#45;&gt;AppModule -->
<g id="edge5" class="edge">
<title>RepoModule&#45;&gt;AppModule</title>
<path fill="none" stroke="black" d="M468.85,-161.01C468.85,-197.01 468.85,-273.8 468.85,-273.8 468.85,-273.8 551.29,-273.8 551.29,-273.8"/>
<polygon fill="black" stroke="black" points="551.29,-277.3 561.29,-273.8 551.29,-270.3 551.29,-277.3"/>
</g>
<!-- RepoService  -->
<g id="node21" class="node">
<title>RepoService </title>
<polygon fill="#fb8072" stroke="black" points="1494.53,-225.8 1403.47,-225.8 1403.47,-189.8 1494.53,-189.8 1494.53,-225.8"/>
<text text-anchor="middle" x="1449" y="-203.6" font-family="Times,serif" font-size="14.00">RepoService </text>
</g>
<!-- RepoModule&#45;&gt;RepoService  -->
<g id="edge21" class="edge">
<title>RepoModule&#45;&gt;RepoService </title>
<path fill="none" stroke="black" stroke-dasharray="5,2" d="M439.15,-160.93C439.15,-171.51 439.15,-182.8 439.15,-182.8 439.15,-182.8 1449,-182.8 1449,-182.8 1449,-182.8 1449,-183.48 1449,-183.48"/>
<polygon fill="black" stroke="black" points="1445.5,-179.63 1449,-189.63 1452.5,-179.63 1445.5,-179.63"/>
</g>
<!-- StarModule -->
<g id="node6" class="node">
<title>StarModule</title>
<polygon fill="#8dd3c7" stroke="black" points="599.1,-160.8 596.1,-164.8 575.1,-164.8 572.1,-160.8 516.9,-160.8 516.9,-124.8 599.1,-124.8 599.1,-160.8"/>
<text text-anchor="middle" x="558" y="-138.6" font-family="Times,serif" font-size="14.00">StarModule</text>
</g>
<!-- StarModule&#45;&gt;AppModule -->
<g id="edge6" class="edge">
<title>StarModule&#45;&gt;AppModule</title>
<path fill="none" stroke="black" d="M589.58,-160.94C589.58,-160.94 589.58,-255.73 589.58,-255.73"/>
<polygon fill="black" stroke="black" points="586.08,-255.72 589.58,-265.73 593.08,-255.73 586.08,-255.72"/>
</g>
<!-- StarService  -->
<g id="node24" class="node">
<title>StarService </title>
<polygon fill="#fb8072" stroke="black" points="1755.03,-225.8 1670.97,-225.8 1670.97,-189.8 1755.03,-189.8 1755.03,-225.8"/>
<text text-anchor="middle" x="1713" y="-203.6" font-family="Times,serif" font-size="14.00">StarService </text>
</g>
<!-- StarModule&#45;&gt;StarService  -->
<g id="edge26" class="edge">
<title>StarModule&#45;&gt;StarService </title>
<path fill="none" stroke="black" stroke-dasharray="5,2" d="M570.64,-161.12C570.64,-169.59 570.64,-177.8 570.64,-177.8 570.64,-177.8 1713,-177.8 1713,-177.8 1713,-177.8 1713,-179.66 1713,-179.66"/>
<polygon fill="black" stroke="black" points="1709.5,-179.66 1713,-189.66 1716.5,-179.66 1709.5,-179.66"/>
</g>
<!-- StargazeModule -->
<g id="node7" class="node">
<title>StargazeModule</title>
<polygon fill="#8dd3c7" stroke="black" points="724.75,-160.8 721.75,-164.8 700.75,-164.8 697.75,-160.8 617.25,-160.8 617.25,-124.8 724.75,-124.8 724.75,-160.8"/>
<text text-anchor="middle" x="671" y="-138.6" font-family="Times,serif" font-size="14.00">StargazeModule</text>
</g>
<!-- StargazeModule&#45;&gt;AppModule -->
<g id="edge7" class="edge">
<title>StargazeModule&#45;&gt;AppModule</title>
<path fill="none" stroke="black" d="M626.36,-160.94C626.36,-160.94 626.36,-255.73 626.36,-255.73"/>
<polygon fill="black" stroke="black" points="622.86,-255.72 626.36,-265.73 629.86,-255.73 622.86,-255.72"/>
</g>
<!-- StargazeService  -->
<g id="node22" class="node">
<title>StargazeService </title>
<polygon fill="#fb8072" stroke="black" points="2074.67,-225.8 1965.33,-225.8 1965.33,-189.8 2074.67,-189.8 2074.67,-225.8"/>
<text text-anchor="middle" x="2020" y="-203.6" font-family="Times,serif" font-size="14.00">StargazeService </text>
</g>
<!-- StargazeModule&#45;&gt;StargazeService  -->
<g id="edge23" class="edge">
<title>StargazeModule&#45;&gt;StargazeService </title>
<path fill="none" stroke="black" stroke-dasharray="5,2" d="M671.51,-160.83C671.51,-167.65 671.51,-173.8 671.51,-173.8 671.51,-173.8 2020,-173.8 2020,-173.8 2020,-173.8 2020,-179.61 2020,-179.61"/>
<polygon fill="black" stroke="black" points="2016.5,-179.61 2020,-189.61 2023.5,-179.61 2016.5,-179.61"/>
</g>
<!-- SubmitModule -->
<g id="node8" class="node">
<title>SubmitModule</title>
<polygon fill="#8dd3c7" stroke="black" points="843.01,-160.8 840.01,-164.8 819.01,-164.8 816.01,-160.8 742.99,-160.8 742.99,-124.8 843.01,-124.8 843.01,-160.8"/>
<text text-anchor="middle" x="793" y="-138.6" font-family="Times,serif" font-size="14.00">SubmitModule</text>
</g>
<!-- SubmitModule&#45;&gt;AppModule -->
<g id="edge8" class="edge">
<title>SubmitModule&#45;&gt;AppModule</title>
<path fill="none" stroke="black" d="M818,-161.01C818,-197.01 818,-273.8 818,-273.8 818,-273.8 654.71,-273.8 654.71,-273.8"/>
<polygon fill="black" stroke="black" points="654.71,-270.3 644.71,-273.8 654.71,-277.3 654.71,-270.3"/>
</g>
<!-- SubmitService  -->
<g id="node26" class="node">
<title>SubmitService </title>
<polygon fill="#fb8072" stroke="black" points="2376.93,-225.8 2275.07,-225.8 2275.07,-189.8 2376.93,-189.8 2376.93,-225.8"/>
<text text-anchor="middle" x="2326" y="-203.6" font-family="Times,serif" font-size="14.00">SubmitService </text>
</g>
<!-- SubmitModule&#45;&gt;SubmitService  -->
<g id="edge29" class="edge">
<title>SubmitModule&#45;&gt;SubmitService </title>
<path fill="none" stroke="black" stroke-dasharray="5,2" d="M768,-160.86C768,-165.29 768,-168.8 768,-168.8 768,-168.8 2326,-168.8 2326,-168.8 2326,-168.8 2326,-179.67 2326,-179.67"/>
<polygon fill="black" stroke="black" points="2322.5,-179.67 2326,-189.67 2329.5,-179.67 2322.5,-179.67"/>
</g>
<!-- UserModule -->
<g id="node9" class="node">
<title>UserModule</title>
<polygon fill="#8dd3c7" stroke="black" points="946.99,-160.8 943.99,-164.8 922.99,-164.8 919.99,-160.8 861.01,-160.8 861.01,-124.8 946.99,-124.8 946.99,-160.8"/>
<text text-anchor="middle" x="904" y="-138.6" font-family="Times,serif" font-size="14.00">UserModule</text>
</g>
<!-- UserModule&#45;&gt;AuthModule -->
<g id="edge11" class="edge">
<title>UserModule&#45;&gt;AuthModule</title>
<path fill="none" stroke="black" d="M929.8,-160.82C929.8,-178.17 929.8,-201.8 929.8,-201.8 929.8,-201.8 953.43,-201.8 953.43,-201.8"/>
<polygon fill="black" stroke="black" points="953.43,-205.3 963.43,-201.8 953.43,-198.3 953.43,-205.3"/>
</g>
<!-- UserModule&#45;&gt;AppModule -->
<g id="edge9" class="edge">
<title>UserModule&#45;&gt;AppModule</title>
<path fill="none" stroke="black" d="M912.6,-160.84C912.6,-198.25 912.6,-280.8 912.6,-280.8 912.6,-280.8 654.75,-280.8 654.75,-280.8"/>
<polygon fill="black" stroke="black" points="654.75,-277.3 644.75,-280.8 654.75,-284.3 654.75,-277.3"/>
</g>
<!-- UserService  -->
<g id="node28" class="node">
<title>UserService </title>
<polygon fill="#fb8072" stroke="black" points="2644.91,-225.8 2557.09,-225.8 2557.09,-189.8 2644.91,-189.8 2644.91,-225.8"/>
<text text-anchor="middle" x="2601" y="-203.6" font-family="Times,serif" font-size="14.00">UserService </text>
</g>
<!-- UserModule&#45;&gt;UserService  -->
<g id="edge32" class="edge">
<title>UserModule&#45;&gt;UserService </title>
<path fill="none" stroke="black" stroke-dasharray="5,2" d="M878.2,-160.88C878.2,-162.65 878.2,-163.8 878.2,-163.8 878.2,-163.8 2601,-163.8 2601,-163.8 2601,-163.8 2601,-179.65 2601,-179.65"/>
<polygon fill="black" stroke="black" points="2597.5,-179.65 2601,-189.65 2604.5,-179.65 2597.5,-179.65"/>
</g>
<!-- VoteModule -->
<g id="node10" class="node">
<title>VoteModule</title>
<polygon fill="#8dd3c7" stroke="black" points="1051.27,-160.8 1048.27,-164.8 1027.27,-164.8 1024.27,-160.8 964.73,-160.8 964.73,-124.8 1051.27,-124.8 1051.27,-160.8"/>
<text text-anchor="middle" x="1008" y="-138.6" font-family="Times,serif" font-size="14.00">VoteModule</text>
</g>
<!-- VoteModule&#45;&gt;AppModule -->
<g id="edge10" class="edge">
<title>VoteModule&#45;&gt;AppModule</title>
<path fill="none" stroke="black" d="M964.32,-142.8C958.84,-142.8 955.11,-142.8 955.11,-142.8 955.11,-142.8 955.11,-287.8 955.11,-287.8 955.11,-287.8 654.77,-287.8 654.77,-287.8"/>
<polygon fill="black" stroke="black" points="654.77,-284.3 644.77,-287.8 654.77,-291.3 654.77,-284.3"/>
</g>
<!-- VoteService  -->
<g id="node30" class="node">
<title>VoteService </title>
<polygon fill="#fb8072" stroke="black" points="2915.19,-225.8 2826.81,-225.8 2826.81,-189.8 2915.19,-189.8 2915.19,-225.8"/>
<text text-anchor="middle" x="2871" y="-203.6" font-family="Times,serif" font-size="14.00">VoteService </text>
</g>
<!-- VoteModule&#45;&gt;VoteService  -->
<g id="edge34" class="edge">
<title>VoteModule&#45;&gt;VoteService </title>
<path fill="none" stroke="black" stroke-dasharray="5,2" d="M1051.31,-136.8C1331.03,-136.8 2871,-136.8 2871,-136.8 2871,-136.8 2871,-179.52 2871,-179.52"/>
<polygon fill="black" stroke="black" points="2867.5,-179.52 2871,-189.52 2874.5,-179.52 2867.5,-179.52"/>
</g>
<!-- SupabaseGuard -->
<g id="node14" class="node">
<title>SupabaseGuard</title>
<ellipse fill="#fdb462" stroke="black" cx="1340" cy="-283.8" rx="71.78" ry="18"/>
<text text-anchor="middle" x="1340" y="-279.6" font-family="Times,serif" font-size="14.00">SupabaseGuard</text>
</g>
<!-- SupabaseGuard&#45;&gt;AuthModule -->
<g id="edge14" class="edge">
<title>SupabaseGuard&#45;&gt;AuthModule</title>
<path fill="none" stroke="black" d="M1315.63,-266.87C1315.63,-260.97 1315.63,-255.8 1315.63,-255.8 1315.63,-255.8 1015.76,-255.8 1015.76,-255.8 1015.76,-255.8 1015.76,-235.95 1015.76,-235.95"/>
<polygon fill="black" stroke="black" points="1019.26,-235.95 1015.76,-225.95 1012.26,-235.95 1019.26,-235.95"/>
</g>
<!-- SupabaseStrategy -->
<g id="node15" class="node">
<title>SupabaseStrategy</title>
<ellipse fill="#fdb462" stroke="black" cx="1171" cy="-283.8" rx="79.88" ry="18"/>
<text text-anchor="middle" x="1171" y="-279.6" font-family="Times,serif" font-size="14.00">SupabaseStrategy</text>
</g>
<!-- SupabaseStrategy&#45;&gt;AuthModule -->
<g id="edge15" class="edge">
<title>SupabaseStrategy&#45;&gt;AuthModule</title>
<path fill="none" stroke="black" d="M1107.78,-294.8C1071.57,-294.8 1033.27,-294.8 1033.27,-294.8 1033.27,-294.8 1033.27,-235.83 1033.27,-235.83"/>
<polygon fill="black" stroke="black" points="1036.77,-235.83 1033.27,-225.83 1029.77,-235.83 1036.77,-235.83"/>
</g>
<!-- ContributionService -->
<g id="node17" class="node">
<title>ContributionService</title>
<ellipse fill="#fdb462" stroke="black" cx="338" cy="-66.8" rx="89.21" ry="18"/>
<text text-anchor="middle" x="338" y="-62.6" font-family="Times,serif" font-size="14.00">ContributionService</text>
</g>
<!-- ContributionService&#45;&gt;ContributionModule -->
<g id="edge17" class="edge">
<title>ContributionService&#45;&gt;ContributionModule</title>
<path fill="none" stroke="black" d="M259.54,-75.54C259.54,-85.02 259.54,-98.8 259.54,-98.8 259.54,-98.8 123.52,-98.8 123.52,-98.8 123.52,-98.8 123.52,-114.65 123.52,-114.65"/>
<polygon fill="black" stroke="black" points="120.02,-114.65 123.52,-124.65 127.02,-114.65 120.02,-114.65"/>
</g>
<!-- RepoService -->
<g id="node18" class="node">
<title>RepoService</title>
<ellipse fill="#fdb462" stroke="black" cx="506" cy="-66.8" rx="60.26" ry="18"/>
<text text-anchor="middle" x="506" y="-62.6" font-family="Times,serif" font-size="14.00">RepoService</text>
</g>
<!-- RepoService&#45;&gt;ContributionModule -->
<g id="edge18" class="edge">
<title>RepoService&#45;&gt;ContributionModule</title>
<path fill="none" stroke="black" d="M463.27,-79.57C463.27,-92.88 463.27,-111.8 463.27,-111.8 463.27,-111.8 139.54,-111.8 139.54,-111.8 139.54,-111.8 139.54,-114.77 139.54,-114.77"/>
<polygon fill="black" stroke="black" points="136.04,-114.77 139.54,-124.77 143.04,-114.77 136.04,-114.77"/>
</g>
<!-- RepoService&#45;&gt;RepoModule -->
<g id="edge22" class="edge">
<title>RepoService&#45;&gt;RepoModule</title>
<path fill="none" stroke="black" d="M480.91,-83.29C480.91,-83.29 480.91,-114.75 480.91,-114.75"/>
<polygon fill="black" stroke="black" points="477.41,-114.75 480.91,-124.75 484.41,-114.75 477.41,-114.75"/>
</g>
<!-- RepoService&#45;&gt;StarModule -->
<g id="edge27" class="edge">
<title>RepoService&#45;&gt;StarModule</title>
<path fill="none" stroke="black" d="M541.66,-81.45C541.66,-81.45 541.66,-114.7 541.66,-114.7"/>
<polygon fill="black" stroke="black" points="538.16,-114.7 541.66,-124.7 545.16,-114.7 538.16,-114.7"/>
</g>
<!-- RepoService&#45;&gt;StargazeModule -->
<g id="edge24" class="edge">
<title>RepoService&#45;&gt;StargazeModule</title>
<path fill="none" stroke="black" d="M558.66,-75.8C606.95,-75.8 671,-75.8 671,-75.8 671,-75.8 671,-114.49 671,-114.49"/>
<polygon fill="black" stroke="black" points="667.5,-114.49 671,-124.49 674.5,-114.49 667.5,-114.49"/>
</g>
<!-- RepoService&#45;&gt;SubmitModule -->
<g id="edge30" class="edge">
<title>RepoService&#45;&gt;SubmitModule</title>
<path fill="none" stroke="black" d="M566.51,-66.8C650.72,-66.8 793,-66.8 793,-66.8 793,-66.8 793,-114.79 793,-114.79"/>
<polygon fill="black" stroke="black" points="789.5,-114.79 793,-124.79 796.5,-114.79 789.5,-114.79"/>
</g>
<!-- RepoService&#45;&gt;VoteModule -->
<g id="edge35" class="edge">
<title>RepoService&#45;&gt;VoteModule</title>
<path fill="none" stroke="black" d="M558.3,-57.8C686.88,-57.8 1008,-57.8 1008,-57.8 1008,-57.8 1008,-114.77 1008,-114.77"/>
<polygon fill="black" stroke="black" points="1004.5,-114.77 1008,-124.77 1011.5,-114.77 1004.5,-114.77"/>
</g>
<!-- InsightsService -->
<g id="node20" class="node">
<title>InsightsService</title>
<ellipse fill="#fdb462" stroke="black" cx="1162" cy="-207.8" rx="70.65" ry="18"/>
<text text-anchor="middle" x="1162" y="-203.6" font-family="Times,serif" font-size="14.00">InsightsService</text>
</g>
<!-- InsightsService&#45;&gt;InsightsModule -->
<g id="edge20" class="edge">
<title>InsightsService&#45;&gt;InsightsModule</title>
<path fill="none" stroke="black" d="M1162,-189.65C1162,-188.5 1162,-187.8 1162,-187.8 1162,-187.8 340,-187.8 340,-187.8 340,-187.8 340,-170.84 340,-170.84"/>
<polygon fill="black" stroke="black" points="343.5,-170.84 340,-160.84 336.5,-170.84 343.5,-170.84"/>
</g>
<!-- StargazeService -->
<g id="node23" class="node">
<title>StargazeService</title>
<ellipse fill="#fdb462" stroke="black" cx="1868" cy="-207.8" rx="73.47" ry="18"/>
<text text-anchor="middle" x="1868" y="-203.6" font-family="Times,serif" font-size="14.00">StargazeService</text>
</g>
<!-- StargazeService&#45;&gt;StargazeModule -->
<g id="edge25" class="edge">
<title>StargazeService&#45;&gt;StargazeModule</title>
<path fill="none" stroke="black" d="M1868,-189.56C1868,-182.37 1868,-175.8 1868,-175.8 1868,-175.8 698.19,-175.8 698.19,-175.8 698.19,-175.8 698.19,-170.84 698.19,-170.84"/>
<polygon fill="black" stroke="black" points="701.69,-170.84 698.19,-160.84 694.69,-170.84 701.69,-170.84"/>
</g>
<!-- StarService -->
<g id="node25" class="node">
<title>StarService</title>
<ellipse fill="#fdb462" stroke="black" cx="1591" cy="-207.8" rx="55.6" ry="18"/>
<text text-anchor="middle" x="1591" y="-203.6" font-family="Times,serif" font-size="14.00">StarService</text>
</g>
<!-- StarService&#45;&gt;StarModule -->
<g id="edge28" class="edge">
<title>StarService&#45;&gt;StarModule</title>
<path fill="none" stroke="black" d="M1591,-189.64C1591,-184.76 1591,-180.8 1591,-180.8 1591,-180.8 580.11,-180.8 580.11,-180.8 580.11,-180.8 580.11,-170.91 580.11,-170.91"/>
<polygon fill="black" stroke="black" points="583.61,-170.91 580.11,-160.91 576.61,-170.91 583.61,-170.91"/>
</g>
<!-- SubmitService -->
<g id="node27" class="node">
<title>SubmitService</title>
<ellipse fill="#fdb462" stroke="black" cx="2183" cy="-207.8" rx="67.8" ry="18"/>
<text text-anchor="middle" x="2183" y="-203.6" font-family="Times,serif" font-size="14.00">SubmitService</text>
</g>
<!-- SubmitService&#45;&gt;SubmitModule -->
<g id="edge31" class="edge">
<title>SubmitService&#45;&gt;SubmitModule</title>
<path fill="none" stroke="black" d="M2183,-189.73C2183,-180.34 2183,-170.8 2183,-170.8 2183,-170.8 793,-170.8 793,-170.8 793,-170.8 793,-169.82 793,-169.82"/>
<polygon fill="black" stroke="black" points="796.5,-171.01 793,-161.01 789.5,-171.01 796.5,-171.01"/>
</g>
<!-- UserService -->
<g id="node29" class="node">
<title>UserService</title>
<ellipse fill="#fdb462" stroke="black" cx="2475" cy="-207.8" rx="58.46" ry="18"/>
<text text-anchor="middle" x="2475" y="-203.6" font-family="Times,serif" font-size="14.00">UserService</text>
</g>
<!-- UserService&#45;&gt;UserModule -->
<g id="edge33" class="edge">
<title>UserService&#45;&gt;UserModule</title>
<path fill="none" stroke="black" d="M2475,-189.74C2475,-178.36 2475,-165.8 2475,-165.8 2475,-165.8 895.4,-165.8 895.4,-165.8 895.4,-165.8 895.4,-165.31 895.4,-165.31"/>
<polygon fill="black" stroke="black" points="898.9,-170.92 895.4,-160.92 891.9,-170.92 898.9,-170.92"/>
</g>
<!-- VoteService -->
<g id="node31" class="node">
<title>VoteService</title>
<ellipse fill="#fdb462" stroke="black" cx="2744" cy="-207.8" rx="58.53" ry="18"/>
<text text-anchor="middle" x="2744" y="-203.6" font-family="Times,serif" font-size="14.00">VoteService</text>
</g>
<!-- VoteService&#45;&gt;VoteModule -->
<g id="edge36" class="edge">
<title>VoteService&#45;&gt;VoteModule</title>
<path fill="none" stroke="black" d="M2744,-189.78C2744,-172.43 2744,-148.8 2744,-148.8 2744,-148.8 1061.35,-148.8 1061.35,-148.8"/>
<polygon fill="black" stroke="black" points="1061.35,-145.3 1051.35,-148.8 1061.35,-152.3 1061.35,-145.3"/>
</g>
</g>
</svg>
