<?xml version="1.0" encoding="UTF-8" standalone="no"?>
<!DOCTYPE svg PUBLIC "-//W3C//DTD SVG 1.1//EN"
 "http://www.w3.org/Graphics/SVG/1.1/DTD/svg11.dtd">
<!-- Generated by graphviz version 3.0.0 (20220226.1711)
 -->
<!-- Title: dependencies Pages: 1 -->
<svg width="2596pt" height="261pt"
 viewBox="0.00 0.00 2596.00 260.80" xmlns="http://www.w3.org/2000/svg" xmlns:xlink="http://www.w3.org/1999/xlink">
<g id="graph0" class="graph" transform="scale(1 1) rotate(0) translate(4 256.8)">
<title>dependencies</title>
<polygon fill="white" stroke="transparent" points="-4,4 -4,-256.8 2592,-256.8 2592,4 -4,4"/>
<text text-anchor="middle" x="1294" y="-8.2" font-family="sans-serif" font-size="14.00">dependencies</text>
<g id="clust1" class="cluster">
<title>cluster_AppModule</title>
<polygon fill="none" stroke="black" stroke-dasharray="1,5" points="8,-108.8 8,-236.8 798,-236.8 798,-108.8 8,-108.8"/>
</g>
<g id="clust3" class="cluster">
<title>cluster_AppModule_imports</title>
<polygon fill="none" stroke="black" points="16,-116.8 16,-168.8 790,-168.8 790,-116.8 16,-116.8"/>
</g>
<g id="clust7" class="cluster">
<title>cluster_AuthModule</title>
<polygon fill="none" stroke="black" stroke-dasharray="1,5" points="806,-176.8 806,-244.8 1428,-244.8 1428,-176.8 806,-176.8"/>
</g>
<g id="clust10" class="cluster">
<title>cluster_AuthModule_exports</title>
<polygon fill="none" stroke="black" points="1159,-184.8 1159,-236.8 1420,-236.8 1420,-184.8 1159,-184.8"/>
</g>
<g id="clust12" class="cluster">
<title>cluster_AuthModule_providers</title>
<polygon fill="none" stroke="black" points="814,-184.8 814,-236.8 1151,-236.8 1151,-184.8 814,-184.8"/>
</g>
<g id="clust19" class="cluster">
<title>cluster_RepoModule</title>
<polygon fill="none" stroke="black" stroke-dasharray="1,5" points="257,-32.8 257,-100.8 525,-100.8 525,-32.8 257,-32.8"/>
</g>
<g id="clust22" class="cluster">
<title>cluster_RepoModule_exports</title>
<polygon fill="none" stroke="black" points="265,-40.8 265,-92.8 373,-92.8 373,-40.8 265,-40.8"/>
</g>
<g id="clust24" class="cluster">
<title>cluster_RepoModule_providers</title>
<polygon fill="none" stroke="black" points="381,-40.8 381,-92.8 517,-92.8 517,-40.8 381,-40.8"/>
</g>
<g id="clust25" class="cluster">
<title>cluster_StargazeModule</title>
<polygon fill="none" stroke="black" stroke-dasharray="1,5" points="1696,-176.8 1696,-244.8 2008,-244.8 2008,-176.8 1696,-176.8"/>
</g>
<g id="clust28" class="cluster">
<title>cluster_StargazeModule_exports</title>
<polygon fill="none" stroke="black" points="1874,-184.8 1874,-236.8 2000,-236.8 2000,-184.8 1874,-184.8"/>
</g>
<g id="clust30" class="cluster">
<title>cluster_StargazeModule_providers</title>
<polygon fill="none" stroke="black" points="1704,-184.8 1704,-236.8 1866,-236.8 1866,-184.8 1704,-184.8"/>
</g>
<g id="clust31" class="cluster">
<title>cluster_StarModule</title>
<polygon fill="none" stroke="black" stroke-dasharray="1,5" points="1436,-176.8 1436,-244.8 1688,-244.8 1688,-176.8 1436,-176.8"/>
</g>
<g id="clust34" class="cluster">
<title>cluster_StarModule_exports</title>
<polygon fill="none" stroke="black" points="1580,-184.8 1580,-236.8 1680,-236.8 1680,-184.8 1580,-184.8"/>
</g>
<g id="clust36" class="cluster">
<title>cluster_StarModule_providers</title>
<polygon fill="none" stroke="black" points="1444,-184.8 1444,-236.8 1572,-236.8 1572,-184.8 1444,-184.8"/>
</g>
<g id="clust37" class="cluster">
<title>cluster_SubmitModule</title>
<polygon fill="none" stroke="black" stroke-dasharray="1,5" points="2016,-176.8 2016,-244.8 2310,-244.8 2310,-176.8 2016,-176.8"/>
</g>
<g id="clust40" class="cluster">
<title>cluster_SubmitModule_exports</title>
<polygon fill="none" stroke="black" points="2184,-184.8 2184,-236.8 2302,-236.8 2302,-184.8 2184,-184.8"/>
</g>
<g id="clust42" class="cluster">
<title>cluster_SubmitModule_providers</title>
<polygon fill="none" stroke="black" points="2024,-184.8 2024,-236.8 2176,-236.8 2176,-184.8 2024,-184.8"/>
</g>
<g id="clust43" class="cluster">
<title>cluster_VoteModule</title>
<polygon fill="none" stroke="black" stroke-dasharray="1,5" points="2318,-176.8 2318,-244.8 2580,-244.8 2580,-176.8 2318,-176.8"/>
</g>
<g id="clust46" class="cluster">
<title>cluster_VoteModule_exports</title>
<polygon fill="none" stroke="black" points="2468,-184.8 2468,-236.8 2572,-236.8 2572,-184.8 2468,-184.8"/>
</g>
<g id="clust48" class="cluster">
<title>cluster_VoteModule_providers</title>
<polygon fill="none" stroke="black" points="2326,-184.8 2326,-236.8 2460,-236.8 2460,-184.8 2326,-184.8"/>
</g>
<!-- AuthModule -->
<g id="node1" class="node">
<title>AuthModule</title>
<polygon fill="#8dd3c7" stroke="black" points="333.55,-160.8 330.55,-164.8 309.55,-164.8 306.55,-160.8 246.45,-160.8 246.45,-124.8 333.55,-124.8 333.55,-160.8"/>
<text text-anchor="middle" x="290" y="-138.6" font-family="Times,serif" font-size="14.00">AuthModule</text>
</g>
<!-- AppModule -->
<g id="node8" class="node">
<title>AppModule</title>
<polygon fill="#8dd3c7" stroke="black" points="434.66,-228.8 431.66,-232.8 410.66,-232.8 407.66,-228.8 351.34,-228.8 351.34,-192.8 434.66,-192.8 434.66,-228.8"/>
<text text-anchor="middle" x="393" y="-206.6" font-family="Times,serif" font-size="14.00">AppModule</text>
</g>
<!-- AuthModule&#45;&gt;AppModule -->
<g id="edge1" class="edge">
<title>AuthModule&#45;&gt;AppModule</title>
<path fill="none" stroke="black" d="M319.18,-160.82C319.18,-178.17 319.18,-201.8 319.18,-201.8 319.18,-201.8 340.92,-201.8 340.92,-201.8"/>
<polygon fill="black" stroke="black" points="340.92,-205.3 350.92,-201.8 340.92,-198.3 340.92,-205.3"/>
</g>
<!-- SupabaseGuard  -->
<g id="node9" class="node">
<title>SupabaseGuard </title>
<polygon fill="#fb8072" stroke="black" points="1411.86,-228.8 1304.14,-228.8 1304.14,-192.8 1411.86,-192.8 1411.86,-228.8"/>
<text text-anchor="middle" x="1358" y="-206.6" font-family="Times,serif" font-size="14.00">SupabaseGuard </text>
</g>
<!-- AuthModule&#45;&gt;SupabaseGuard  -->
<g id="edge8" class="edge">
<title>AuthModule&#45;&gt;SupabaseGuard </title>
<path fill="none" stroke="black" stroke-dasharray="5,2" d="M275.41,-160.93C275.41,-171.11 275.41,-181.8 275.41,-181.8 275.41,-181.8 1358,-181.8 1358,-181.8 1358,-181.8 1358,-182.88 1358,-182.88"/>
<polygon fill="black" stroke="black" points="1354.5,-182.6 1358,-192.6 1361.5,-182.6 1354.5,-182.6"/>
</g>
<!-- SupabaseStrategy  -->
<g id="node10" class="node">
<title>SupabaseStrategy </title>
<polygon fill="#fb8072" stroke="black" points="1286.53,-228.8 1167.47,-228.8 1167.47,-192.8 1286.53,-192.8 1286.53,-228.8"/>
<text text-anchor="middle" x="1227" y="-206.6" font-family="Times,serif" font-size="14.00">SupabaseStrategy </text>
</g>
<!-- AuthModule&#45;&gt;SupabaseStrategy  -->
<g id="edge9" class="edge">
<title>AuthModule&#45;&gt;SupabaseStrategy </title>
<path fill="none" stroke="black" stroke-dasharray="5,2" d="M260.82,-160.86C260.82,-172.24 260.82,-184.8 260.82,-184.8 260.82,-184.8 1227,-184.8 1227,-184.8 1227,-184.8 1227,-185.59 1227,-185.59"/>
<polygon fill="black" stroke="black" points="1223.5,-182.74 1227,-192.74 1230.5,-182.74 1223.5,-182.74"/>
</g>
<!-- HealthModule -->
<g id="node2" class="node">
<title>HealthModule</title>
<polygon fill="#8dd3c7" stroke="black" points="228.37,-160.8 225.37,-164.8 204.37,-164.8 201.37,-160.8 131.63,-160.8 131.63,-124.8 228.37,-124.8 228.37,-160.8"/>
<text text-anchor="middle" x="180" y="-138.6" font-family="Times,serif" font-size="14.00">HealthModule</text>
</g>
<!-- HealthModule&#45;&gt;AppModule -->
<g id="edge2" class="edge">
<title>HealthModule&#45;&gt;AppModule</title>
<path fill="none" stroke="black" d="M180,-161.02C180,-181.17 180,-210.8 180,-210.8 180,-210.8 341.17,-210.8 341.17,-210.8"/>
<polygon fill="black" stroke="black" points="341.17,-214.3 351.17,-210.8 341.17,-207.3 341.17,-214.3"/>
</g>
<!-- RepoModule -->
<g id="node3" class="node">
<title>RepoModule</title>
<polygon fill="#8dd3c7" stroke="black" points="113.6,-160.8 110.6,-164.8 89.6,-164.8 86.6,-160.8 24.4,-160.8 24.4,-124.8 113.6,-124.8 113.6,-160.8"/>
<text text-anchor="middle" x="69" y="-138.6" font-family="Times,serif" font-size="14.00">RepoModule</text>
</g>
<!-- RepoModule&#45;&gt;AppModule -->
<g id="edge3" class="edge">
<title>RepoModule&#45;&gt;AppModule</title>
<path fill="none" stroke="black" d="M69,-161.05C69,-183.82 69,-219.8 69,-219.8 69,-219.8 341.31,-219.8 341.31,-219.8"/>
<polygon fill="black" stroke="black" points="341.31,-223.3 351.31,-219.8 341.31,-216.3 341.31,-223.3"/>
</g>
<!-- RepoService  -->
<g id="node13" class="node">
<title>RepoService </title>
<polygon fill="#fb8072" stroke="black" points="364.53,-84.8 273.47,-84.8 273.47,-48.8 364.53,-48.8 364.53,-84.8"/>
<text text-anchor="middle" x="319" y="-62.6" font-family="Times,serif" font-size="14.00">RepoService </text>
</g>
<!-- RepoModule&#45;&gt;RepoService  -->
<g id="edge12" class="edge">
<title>RepoModule&#45;&gt;RepoService </title>
<path fill="none" stroke="black" stroke-dasharray="5,2" d="M54.15,-124.79C54.15,-102.31 54.15,-66.8 54.15,-66.8 54.15,-66.8 263.47,-66.8 263.47,-66.8"/>
<polygon fill="black" stroke="black" points="263.47,-70.3 273.47,-66.8 263.47,-63.3 263.47,-70.3"/>
</g>
<!-- StarModule -->
<g id="node4" class="node">
<title>StarModule</title>
<polygon fill="#8dd3c7" stroke="black" points="434.1,-160.8 431.1,-164.8 410.1,-164.8 407.1,-160.8 351.9,-160.8 351.9,-124.8 434.1,-124.8 434.1,-160.8"/>
<text text-anchor="middle" x="393" y="-138.6" font-family="Times,serif" font-size="14.00">StarModule</text>
</g>
<!-- StarModule&#45;&gt;AppModule -->
<g id="edge4" class="edge">
<title>StarModule&#45;&gt;AppModule</title>
<path fill="none" stroke="black" d="M372.47,-161.02C372.47,-161.02 372.47,-182.53 372.47,-182.53"/>
<polygon fill="black" stroke="black" points="368.97,-182.53 372.47,-192.53 375.97,-182.53 368.97,-182.53"/>
</g>
<!-- StarService  -->
<g id="node17" class="node">
<title>StarService </title>
<polygon fill="#fb8072" stroke="black" points="1672.03,-228.8 1587.97,-228.8 1587.97,-192.8 1672.03,-192.8 1672.03,-228.8"/>
<text text-anchor="middle" x="1630" y="-206.6" font-family="Times,serif" font-size="14.00">StarService </text>
</g>
<!-- StarModule&#45;&gt;StarService  -->
<g id="edge17" class="edge">
<title>StarModule&#45;&gt;StarService </title>
<path fill="none" stroke="black" stroke-dasharray="5,2" d="M393,-160.84C393,-168.55 393,-175.8 393,-175.8 393,-175.8 1630,-175.8 1630,-175.8 1630,-175.8 1630,-182.48 1630,-182.48"/>
<polygon fill="black" stroke="black" points="1626.5,-182.48 1630,-192.48 1633.5,-182.48 1626.5,-182.48"/>
</g>
<!-- StargazeModule -->
<g id="node5" class="node">
<title>StargazeModule</title>
<polygon fill="#8dd3c7" stroke="black" points="559.75,-160.8 556.75,-164.8 535.75,-164.8 532.75,-160.8 452.25,-160.8 452.25,-124.8 559.75,-124.8 559.75,-160.8"/>
<text text-anchor="middle" x="506" y="-138.6" font-family="Times,serif" font-size="14.00">StargazeModule</text>
</g>
<!-- StargazeModule&#45;&gt;AppModule -->
<g id="edge5" class="edge">
<title>StargazeModule&#45;&gt;AppModule</title>
<path fill="none" stroke="black" d="M532.94,-160.82C532.94,-178.17 532.94,-201.8 532.94,-201.8 532.94,-201.8 444.99,-201.8 444.99,-201.8"/>
<polygon fill="black" stroke="black" points="444.99,-198.3 434.99,-201.8 444.99,-205.3 444.99,-198.3"/>
</g>
<!-- StargazeService  -->
<g id="node15" class="node">
<title>StargazeService </title>
<polygon fill="#fb8072" stroke="black" points="1991.67,-228.8 1882.33,-228.8 1882.33,-192.8 1991.67,-192.8 1991.67,-228.8"/>
<text text-anchor="middle" x="1937" y="-206.6" font-family="Times,serif" font-size="14.00">StargazeService </text>
</g>
<!-- StargazeModule&#45;&gt;StargazeService  -->
<g id="edge14" class="edge">
<title>StargazeModule&#45;&gt;StargazeService </title>
<path fill="none" stroke="black" stroke-dasharray="5,2" d="M479.06,-160.96C479.06,-165.84 479.06,-169.8 479.06,-169.8 479.06,-169.8 1937,-169.8 1937,-169.8 1937,-169.8 1937,-182.7 1937,-182.7"/>
<polygon fill="black" stroke="black" points="1933.5,-182.7 1937,-192.7 1940.5,-182.7 1933.5,-182.7"/>
</g>
<!-- SubmitModule -->
<g id="node6" class="node">
<title>SubmitModule</title>
<polygon fill="#8dd3c7" stroke="black" points="678.01,-160.8 675.01,-164.8 654.01,-164.8 651.01,-160.8 577.99,-160.8 577.99,-124.8 678.01,-124.8 678.01,-160.8"/>
<text text-anchor="middle" x="628" y="-138.6" font-family="Times,serif" font-size="14.00">SubmitModule</text>
</g>
<!-- SubmitModule&#45;&gt;AppModule -->
<g id="edge6" class="edge">
<title>SubmitModule&#45;&gt;AppModule</title>
<path fill="none" stroke="black" d="M653,-161.02C653,-181.17 653,-210.8 653,-210.8 653,-210.8 444.77,-210.8 444.77,-210.8"/>
<polygon fill="black" stroke="black" points="444.77,-207.3 434.77,-210.8 444.77,-214.3 444.77,-207.3"/>
</g>
<!-- SubmitService  -->
<g id="node19" class="node">
<title>SubmitService </title>
<polygon fill="#fb8072" stroke="black" points="2293.93,-228.8 2192.07,-228.8 2192.07,-192.8 2293.93,-192.8 2293.93,-228.8"/>
<text text-anchor="middle" x="2243" y="-206.6" font-family="Times,serif" font-size="14.00">SubmitService </text>
</g>
<!-- SubmitModule&#45;&gt;SubmitService  -->
<g id="edge20" class="edge">
<title>SubmitModule&#45;&gt;SubmitService </title>
<path fill="none" stroke="black" stroke-dasharray="5,2" d="M603,-160.88C603,-162.65 603,-163.8 603,-163.8 603,-163.8 2243,-163.8 2243,-163.8 2243,-163.8 2243,-182.76 2243,-182.76"/>
<polygon fill="black" stroke="black" points="2239.5,-182.76 2243,-192.76 2246.5,-182.76 2239.5,-182.76"/>
</g>
<!-- VoteModule -->
<g id="node7" class="node">
<title>VoteModule</title>
<polygon fill="#8dd3c7" stroke="black" points="782.27,-160.8 779.27,-164.8 758.27,-164.8 755.27,-160.8 695.73,-160.8 695.73,-124.8 782.27,-124.8 782.27,-160.8"/>
<text text-anchor="middle" x="739" y="-138.6" font-family="Times,serif" font-size="14.00">VoteModule</text>
</g>
<!-- VoteModule&#45;&gt;AppModule -->
<g id="edge7" class="edge">
<title>VoteModule&#45;&gt;AppModule</title>
<path fill="none" stroke="black" d="M739,-161.05C739,-183.82 739,-219.8 739,-219.8 739,-219.8 444.74,-219.8 444.74,-219.8"/>
<polygon fill="black" stroke="black" points="444.74,-216.3 434.74,-219.8 444.74,-223.3 444.74,-216.3"/>
</g>
<!-- VoteService  -->
<g id="node21" class="node">
<title>VoteService </title>
<polygon fill="#fb8072" stroke="black" points="2564.19,-228.8 2475.81,-228.8 2475.81,-192.8 2564.19,-192.8 2564.19,-228.8"/>
<text text-anchor="middle" x="2520" y="-206.6" font-family="Times,serif" font-size="14.00">VoteService </text>
</g>
<!-- VoteModule&#45;&gt;VoteService  -->
<g id="edge23" class="edge">
<title>VoteModule&#45;&gt;VoteService </title>
<path fill="none" stroke="black" stroke-dasharray="5,2" d="M782.58,-136.8C1055.71,-136.8 2520,-136.8 2520,-136.8 2520,-136.8 2520,-182.51 2520,-182.51"/>
<polygon fill="black" stroke="black" points="2516.5,-182.51 2520,-192.51 2523.5,-182.51 2516.5,-182.51"/>
</g>
<!-- SupabaseGuard -->
<g id="node11" class="node">
<title>SupabaseGuard</title>
<ellipse fill="#fdb462" stroke="black" cx="1071" cy="-210.8" rx="71.78" ry="18"/>
<text text-anchor="middle" x="1071" y="-206.6" font-family="Times,serif" font-size="14.00">SupabaseGuard</text>
</g>
<!-- SupabaseGuard&#45;&gt;AuthModule -->
<g id="edge10" class="edge">
<title>SupabaseGuard&#45;&gt;AuthModule</title>
<path fill="none" stroke="black" d="M1071,-192.68C1071,-189.83 1071,-187.8 1071,-187.8 1071,-187.8 304.59,-187.8 304.59,-187.8 304.59,-187.8 304.59,-170.84 304.59,-170.84"/>
<polygon fill="black" stroke="black" points="308.09,-170.84 304.59,-160.84 301.09,-170.84 308.09,-170.84"/>
</g>
<!-- SupabaseStrategy -->
<g id="node12" class="node">
<title>SupabaseStrategy</title>
<ellipse fill="#fdb462" stroke="black" cx="902" cy="-210.8" rx="79.88" ry="18"/>
<text text-anchor="middle" x="902" y="-206.6" font-family="Times,serif" font-size="14.00">SupabaseStrategy</text>
</g>
<!-- SupabaseStrategy&#45;&gt;AuthModule -->
<g id="edge11" class="edge">
<title>SupabaseStrategy&#45;&gt;AuthModule</title>
<path fill="none" stroke="black" d="M902,-192.65C902,-191.5 902,-190.8 902,-190.8 902,-190.8 290,-190.8 290,-190.8 290,-190.8 290,-170.95 290,-170.95"/>
<polygon fill="black" stroke="black" points="293.5,-170.95 290,-160.95 286.5,-170.95 293.5,-170.95"/>
</g>
<!-- RepoService -->
<g id="node14" class="node">
<title>RepoService</title>
<ellipse fill="#fdb462" stroke="black" cx="449" cy="-66.8" rx="60.26" ry="18"/>
<text text-anchor="middle" x="449" y="-62.6" font-family="Times,serif" font-size="14.00">RepoService</text>
</g>
<!-- RepoService&#45;&gt;RepoModule -->
<g id="edge13" class="edge">
<title>RepoService&#45;&gt;RepoModule</title>
<path fill="none" stroke="black" d="M403.77,-78.82C403.77,-89.96 403.77,-104.8 403.77,-104.8 403.77,-104.8 83.85,-104.8 83.85,-104.8 83.85,-104.8 83.85,-114.69 83.85,-114.69"/>
<polygon fill="black" stroke="black" points="80.35,-114.69 83.85,-124.69 87.35,-114.69 80.35,-114.69"/>
</g>
<!-- RepoService&#45;&gt;StarModule -->
<g id="edge18" class="edge">
<title>RepoService&#45;&gt;StarModule</title>
<path fill="none" stroke="black" d="M418.91,-82.55C418.91,-82.55 418.91,-114.67 418.91,-114.67"/>
<polygon fill="black" stroke="black" points="415.41,-114.67 418.91,-124.67 422.41,-114.67 415.41,-114.67"/>
</g>
<!-- RepoService&#45;&gt;StargazeModule -->
<g id="edge15" class="edge">
<title>RepoService&#45;&gt;StargazeModule</title>
<path fill="none" stroke="black" d="M480.75,-82.18C480.75,-82.18 480.75,-114.77 480.75,-114.77"/>
<polygon fill="black" stroke="black" points="477.25,-114.77 480.75,-124.77 484.25,-114.77 477.25,-114.77"/>
</g>
<!-- RepoService&#45;&gt;SubmitModule -->
<g id="edge21" class="edge">
<title>RepoService&#45;&gt;SubmitModule</title>
<path fill="none" stroke="black" d="M506.13,-72.8C558.51,-72.8 628,-72.8 628,-72.8 628,-72.8 628,-114.77 628,-114.77"/>
<polygon fill="black" stroke="black" points="624.5,-114.77 628,-124.77 631.5,-114.77 624.5,-114.77"/>
</g>
<!-- RepoService&#45;&gt;VoteModule -->
<g id="edge24" class="edge">
<title>RepoService&#45;&gt;VoteModule</title>
<path fill="none" stroke="black" d="M505.95,-60.8C590.4,-60.8 739,-60.8 739,-60.8 739,-60.8 739,-114.6 739,-114.6"/>
<polygon fill="black" stroke="black" points="735.5,-114.6 739,-124.6 742.5,-114.6 735.5,-114.6"/>
</g>
<!-- StargazeService -->
<g id="node16" class="node">
<title>StargazeService</title>
<ellipse fill="#fdb462" stroke="black" cx="1785" cy="-210.8" rx="73.47" ry="18"/>
<text text-anchor="middle" x="1785" y="-206.6" font-family="Times,serif" font-size="14.00">StargazeService</text>
</g>
<!-- StargazeService&#45;&gt;StargazeModule -->
<g id="edge16" class="edge">
<title>StargazeService&#45;&gt;StargazeModule</title>
<path fill="none" stroke="black" d="M1785,-192.69C1785,-182.9 1785,-172.8 1785,-172.8 1785,-172.8 506,-172.8 506,-172.8 506,-172.8 506,-170.94 506,-170.94"/>
<polygon fill="black" stroke="black" points="509.5,-170.94 506,-160.94 502.5,-170.94 509.5,-170.94"/>
</g>
<!-- StarService -->
<g id="node18" class="node">
<title>StarService</title>
<ellipse fill="#fdb462" stroke="black" cx="1508" cy="-210.8" rx="55.6" ry="18"/>
<text text-anchor="middle" x="1508" y="-206.6" font-family="Times,serif" font-size="14.00">StarService</text>
</g>
<!-- StarService&#45;&gt;StarModule -->
<g id="edge19" class="edge">
<title>StarService&#45;&gt;StarModule</title>
<path fill="none" stroke="black" d="M1508,-192.56C1508,-185.37 1508,-178.8 1508,-178.8 1508,-178.8 413.53,-178.8 413.53,-178.8 413.53,-178.8 413.53,-171.22 413.53,-171.22"/>
<polygon fill="black" stroke="black" points="417.03,-171.22 413.53,-161.22 410.03,-171.22 417.03,-171.22"/>
</g>
<!-- SubmitService -->
<g id="node20" class="node">
<title>SubmitService</title>
<ellipse fill="#fdb462" stroke="black" cx="2100" cy="-210.8" rx="67.8" ry="18"/>
<text text-anchor="middle" x="2100" y="-206.6" font-family="Times,serif" font-size="14.00">SubmitService</text>
</g>
<!-- SubmitService&#45;&gt;SubmitModule -->
<g id="edge22" class="edge">
<title>SubmitService&#45;&gt;SubmitModule</title>
<path fill="none" stroke="black" d="M2100,-192.65C2100,-180.53 2100,-166.8 2100,-166.8 2100,-166.8 628,-166.8 628,-166.8 628,-166.8 628,-166.22 628,-166.22"/>
<polygon fill="black" stroke="black" points="631.5,-170.99 628,-160.99 624.5,-170.99 631.5,-170.99"/>
</g>
<!-- VoteService -->
<g id="node22" class="node">
<title>VoteService</title>
<ellipse fill="#fdb462" stroke="black" cx="2393" cy="-210.8" rx="58.53" ry="18"/>
<text text-anchor="middle" x="2393" y="-206.6" font-family="Times,serif" font-size="14.00">VoteService</text>
</g>
<!-- VoteService&#45;&gt;VoteModule -->
<g id="edge25" class="edge">
<title>VoteService&#45;&gt;VoteModule</title>
<path fill="none" stroke="black" d="M2393,-192.53C2393,-174.24 2393,-148.8 2393,-148.8 2393,-148.8 792.39,-148.8 792.39,-148.8"/>
<polygon fill="black" stroke="black" points="792.39,-145.3 782.39,-148.8 792.39,-152.3 792.39,-145.3"/>
</g>
</g>
</svg>
