<?xml version="1.0" encoding="UTF-8" standalone="no"?>
<!DOCTYPE svg PUBLIC "-//W3C//DTD SVG 1.1//EN"
 "http://www.w3.org/Graphics/SVG/1.1/DTD/svg11.dtd">
<!-- Generated by graphviz version 3.0.0 (20220226.1711)
 -->
<!-- Title: dependencies Pages: 1 -->
<svg width="2515pt" height="334pt"
 viewBox="0.00 0.00 2515.00 333.80" xmlns="http://www.w3.org/2000/svg" xmlns:xlink="http://www.w3.org/1999/xlink">
<g id="graph0" class="graph" transform="scale(1 1) rotate(0) translate(4 329.8)">
<title>dependencies</title>
<polygon fill="white" stroke="transparent" points="-4,4 -4,-329.8 2511,-329.8 2511,4 -4,4"/>
<text text-anchor="middle" x="1253.5" y="-8.2" font-family="sans-serif" font-size="14.00">dependencies</text>
<g id="clust1" class="cluster">
<title>cluster_AppModule</title>
<polygon fill="none" stroke="black" stroke-dasharray="1,5" points="9,-108.8 9,-309.8 947,-309.8 947,-108.8 9,-108.8"/>
</g>
<g id="clust3" class="cluster">
<title>cluster_AppModule_imports</title>
<polygon fill="none" stroke="black" points="17,-116.8 17,-233.8 939,-233.8 939,-116.8 17,-116.8"/>
</g>
<g id="clust7" class="cluster">
<title>cluster_AuthModule</title>
<polygon fill="none" stroke="black" stroke-dasharray="1,5" points="955,-249.8 955,-317.8 1577,-317.8 1577,-249.8 955,-249.8"/>
</g>
<g id="clust10" class="cluster">
<title>cluster_AuthModule_exports</title>
<polygon fill="none" stroke="black" points="1308,-257.8 1308,-309.8 1569,-309.8 1569,-257.8 1308,-257.8"/>
</g>
<g id="clust12" class="cluster">
<title>cluster_AuthModule_providers</title>
<polygon fill="none" stroke="black" points="963,-257.8 963,-309.8 1300,-309.8 1300,-257.8 963,-257.8"/>
</g>
<g id="clust13" class="cluster">
<title>cluster_ContributionModule</title>
<polygon fill="none" stroke="black" stroke-dasharray="1,5" points="8,-32.8 8,-100.8 515,-100.8 515,-32.8 8,-32.8"/>
</g>
<g id="clust16" class="cluster">
<title>cluster_ContributionModule_exports</title>
<polygon fill="none" stroke="black" points="16,-40.8 16,-92.8 166,-92.8 166,-40.8 16,-40.8"/>
</g>
<g id="clust18" class="cluster">
<title>cluster_ContributionModule_providers</title>
<polygon fill="none" stroke="black" points="174,-40.8 174,-92.8 507,-92.8 507,-40.8 174,-40.8"/>
</g>
<g id="clust25" class="cluster">
<title>cluster_RepoModule</title>
<polygon fill="none" stroke="black" stroke-dasharray="1,5" points="955,-173.8 955,-241.8 1079,-241.8 1079,-173.8 955,-173.8"/>
</g>
<g id="clust28" class="cluster">
<title>cluster_RepoModule_exports</title>
<polygon fill="none" stroke="black" points="963,-181.8 963,-233.8 1071,-233.8 1071,-181.8 963,-181.8"/>
</g>
<g id="clust31" class="cluster">
<title>cluster_StargazeModule</title>
<polygon fill="none" stroke="black" stroke-dasharray="1,5" points="1347,-173.8 1347,-241.8 1659,-241.8 1659,-173.8 1347,-173.8"/>
</g>
<g id="clust34" class="cluster">
<title>cluster_StargazeModule_exports</title>
<polygon fill="none" stroke="black" points="1525,-181.8 1525,-233.8 1651,-233.8 1651,-181.8 1525,-181.8"/>
</g>
<g id="clust36" class="cluster">
<title>cluster_StargazeModule_providers</title>
<polygon fill="none" stroke="black" points="1355,-181.8 1355,-233.8 1517,-233.8 1517,-181.8 1355,-181.8"/>
</g>
<g id="clust37" class="cluster">
<title>cluster_StarModule</title>
<polygon fill="none" stroke="black" stroke-dasharray="1,5" points="1087,-173.8 1087,-241.8 1339,-241.8 1339,-173.8 1087,-173.8"/>
</g>
<g id="clust40" class="cluster">
<title>cluster_StarModule_exports</title>
<polygon fill="none" stroke="black" points="1231,-181.8 1231,-233.8 1331,-233.8 1331,-181.8 1231,-181.8"/>
</g>
<g id="clust42" class="cluster">
<title>cluster_StarModule_providers</title>
<polygon fill="none" stroke="black" points="1095,-181.8 1095,-233.8 1223,-233.8 1223,-181.8 1095,-181.8"/>
</g>
<g id="clust43" class="cluster">
<title>cluster_SubmitModule</title>
<polygon fill="none" stroke="black" stroke-dasharray="1,5" points="1667,-173.8 1667,-241.8 1961,-241.8 1961,-173.8 1667,-173.8"/>
</g>
<g id="clust46" class="cluster">
<title>cluster_SubmitModule_exports</title>
<polygon fill="none" stroke="black" points="1835,-181.8 1835,-233.8 1953,-233.8 1953,-181.8 1835,-181.8"/>
</g>
<g id="clust48" class="cluster">
<title>cluster_SubmitModule_providers</title>
<polygon fill="none" stroke="black" points="1675,-181.8 1675,-233.8 1827,-233.8 1827,-181.8 1675,-181.8"/>
</g>
<g id="clust49" class="cluster">
<title>cluster_UserModule</title>
<polygon fill="none" stroke="black" stroke-dasharray="1,5" points="1969,-173.8 1969,-241.8 2229,-241.8 2229,-173.8 1969,-173.8"/>
</g>
<g id="clust52" class="cluster">
<title>cluster_UserModule_exports</title>
<polygon fill="none" stroke="black" points="2117,-181.8 2117,-233.8 2221,-233.8 2221,-181.8 2117,-181.8"/>
</g>
<g id="clust54" class="cluster">
<title>cluster_UserModule_providers</title>
<polygon fill="none" stroke="black" points="1977,-181.8 1977,-233.8 2109,-233.8 2109,-181.8 1977,-181.8"/>
</g>
<g id="clust55" class="cluster">
<title>cluster_VoteModule</title>
<polygon fill="none" stroke="black" stroke-dasharray="1,5" points="2237,-173.8 2237,-241.8 2499,-241.8 2499,-173.8 2237,-173.8"/>
</g>
<g id="clust58" class="cluster">
<title>cluster_VoteModule_exports</title>
<polygon fill="none" stroke="black" points="2387,-181.8 2387,-233.8 2491,-233.8 2491,-181.8 2387,-181.8"/>
</g>
<g id="clust60" class="cluster">
<title>cluster_VoteModule_providers</title>
<polygon fill="none" stroke="black" points="2245,-181.8 2245,-233.8 2379,-233.8 2379,-181.8 2245,-181.8"/>
</g>
<!-- AuthModule -->
<g id="node1" class="node">
<title>AuthModule</title>
<polygon fill="#8dd3c7" stroke="black" points="930.55,-225.8 927.55,-229.8 906.55,-229.8 903.55,-225.8 843.45,-225.8 843.45,-189.8 930.55,-189.8 930.55,-225.8"/>
<text text-anchor="middle" x="887" y="-203.6" font-family="Times,serif" font-size="14.00">AuthModule</text>
</g>
<!-- AppModule -->
<g id="node10" class="node">
<title>AppModule</title>
<polygon fill="#8dd3c7" stroke="black" points="592.66,-301.8 589.66,-305.8 568.66,-305.8 565.66,-301.8 509.34,-301.8 509.34,-265.8 592.66,-265.8 592.66,-301.8"/>
<text text-anchor="middle" x="551" y="-279.6" font-family="Times,serif" font-size="14.00">AppModule</text>
</g>
<!-- AuthModule&#45;&gt;AppModule -->
<g id="edge1" class="edge">
<title>AuthModule&#45;&gt;AppModule</title>
<path fill="none" stroke="black" d="M843.23,-213.8C755.17,-213.8 564.94,-213.8 564.94,-213.8 564.94,-213.8 564.94,-255.77 564.94,-255.77"/>
<polygon fill="black" stroke="black" points="561.44,-255.77 564.94,-265.77 568.44,-255.77 561.44,-255.77"/>
</g>
<!-- SupabaseGuard  -->
<g id="node11" class="node">
<title>SupabaseGuard </title>
<polygon fill="#fb8072" stroke="black" points="1560.86,-301.8 1453.14,-301.8 1453.14,-265.8 1560.86,-265.8 1560.86,-301.8"/>
<text text-anchor="middle" x="1507" y="-279.6" font-family="Times,serif" font-size="14.00">SupabaseGuard </text>
</g>
<!-- AuthModule&#45;&gt;SupabaseGuard  -->
<g id="edge11" class="edge">
<title>AuthModule&#45;&gt;SupabaseGuard </title>
<path fill="none" stroke="black" stroke-dasharray="5,2" d="M878.24,-226.01C878.24,-231.35 878.24,-235.8 878.24,-235.8 878.24,-235.8 1481.28,-235.8 1481.28,-235.8 1481.28,-235.8 1481.28,-255.65 1481.28,-255.65"/>
<polygon fill="black" stroke="black" points="1477.78,-255.65 1481.28,-265.65 1484.78,-255.65 1477.78,-255.65"/>
</g>
<!-- SupabaseStrategy  -->
<g id="node12" class="node">
<title>SupabaseStrategy </title>
<polygon fill="#fb8072" stroke="black" points="1435.53,-301.8 1316.47,-301.8 1316.47,-265.8 1435.53,-265.8 1435.53,-301.8"/>
<text text-anchor="middle" x="1376" y="-279.6" font-family="Times,serif" font-size="14.00">SupabaseStrategy </text>
</g>
<!-- AuthModule&#45;&gt;SupabaseStrategy  -->
<g id="edge12" class="edge">
<title>AuthModule&#45;&gt;SupabaseStrategy </title>
<path fill="none" stroke="black" stroke-dasharray="5,2" d="M860.73,-225.91C860.73,-235.7 860.73,-245.8 860.73,-245.8 860.73,-245.8 1342.89,-245.8 1342.89,-245.8 1342.89,-245.8 1342.89,-255.69 1342.89,-255.69"/>
<polygon fill="black" stroke="black" points="1339.39,-255.69 1342.89,-265.69 1346.39,-255.69 1339.39,-255.69"/>
</g>
<!-- ContributionModule -->
<g id="node2" class="node">
<title>ContributionModule</title>
<polygon fill="#8dd3c7" stroke="black" points="156.61,-160.8 153.61,-164.8 132.61,-164.8 129.61,-160.8 25.39,-160.8 25.39,-124.8 156.61,-124.8 156.61,-160.8"/>
<text text-anchor="middle" x="91" y="-138.6" font-family="Times,serif" font-size="14.00">ContributionModule</text>
</g>
<!-- ContributionModule&#45;&gt;AppModule -->
<g id="edge2" class="edge">
<title>ContributionModule&#45;&gt;AppModule</title>
<path fill="none" stroke="black" d="M91,-160.83C91,-201.1 91,-294.8 91,-294.8 91,-294.8 498.96,-294.8 498.96,-294.8"/>
<polygon fill="black" stroke="black" points="498.96,-298.3 508.96,-294.8 498.96,-291.3 498.96,-298.3"/>
</g>
<!-- ContributionService  -->
<g id="node15" class="node">
<title>ContributionService </title>
<polygon fill="#fb8072" stroke="black" points="157.54,-84.8 24.46,-84.8 24.46,-48.8 157.54,-48.8 157.54,-84.8"/>
<text text-anchor="middle" x="91" y="-62.6" font-family="Times,serif" font-size="14.00">ContributionService </text>
</g>
<!-- ContributionModule&#45;&gt;ContributionService  -->
<g id="edge15" class="edge">
<title>ContributionModule&#45;&gt;ContributionService </title>
<path fill="none" stroke="black" stroke-dasharray="5,2" d="M69.15,-124.79C69.15,-124.79 69.15,-94.95 69.15,-94.95"/>
<polygon fill="black" stroke="black" points="72.65,-94.95 69.15,-84.95 65.65,-94.95 72.65,-94.95"/>
</g>
<!-- HealthModule -->
<g id="node3" class="node">
<title>HealthModule</title>
<polygon fill="#8dd3c7" stroke="black" points="271.37,-160.8 268.37,-164.8 247.37,-164.8 244.37,-160.8 174.63,-160.8 174.63,-124.8 271.37,-124.8 271.37,-160.8"/>
<text text-anchor="middle" x="223" y="-138.6" font-family="Times,serif" font-size="14.00">HealthModule</text>
</g>
<!-- HealthModule&#45;&gt;AppModule -->
<g id="edge3" class="edge">
<title>HealthModule&#45;&gt;AppModule</title>
<path fill="none" stroke="black" d="M223,-160.87C223,-199.74 223,-287.8 223,-287.8 223,-287.8 499.13,-287.8 499.13,-287.8"/>
<polygon fill="black" stroke="black" points="499.13,-291.3 509.13,-287.8 499.13,-284.3 499.13,-291.3"/>
</g>
<!-- RepoModule -->
<g id="node4" class="node">
<title>RepoModule</title>
<polygon fill="#8dd3c7" stroke="black" points="378.6,-160.8 375.6,-164.8 354.6,-164.8 351.6,-160.8 289.4,-160.8 289.4,-124.8 378.6,-124.8 378.6,-160.8"/>
<text text-anchor="middle" x="334" y="-138.6" font-family="Times,serif" font-size="14.00">RepoModule</text>
</g>
<!-- RepoModule&#45;&gt;AppModule -->
<g id="edge4" class="edge">
<title>RepoModule&#45;&gt;AppModule</title>
<path fill="none" stroke="black" d="M348.85,-160.84C348.85,-198.25 348.85,-280.8 348.85,-280.8 348.85,-280.8 499.11,-280.8 499.11,-280.8"/>
<polygon fill="black" stroke="black" points="499.11,-284.3 509.11,-280.8 499.11,-277.3 499.11,-284.3"/>
</g>
<!-- RepoService  -->
<g id="node18" class="node">
<title>RepoService </title>
<polygon fill="#fb8072" stroke="black" points="1062.53,-225.8 971.47,-225.8 971.47,-189.8 1062.53,-189.8 1062.53,-225.8"/>
<text text-anchor="middle" x="1017" y="-203.6" font-family="Times,serif" font-size="14.00">RepoService </text>
</g>
<!-- RepoModule&#45;&gt;RepoService  -->
<g id="edge18" class="edge">
<title>RepoModule&#45;&gt;RepoService </title>
<path fill="none" stroke="black" stroke-dasharray="5,2" d="M319.15,-160.84C319.15,-173.36 319.15,-187.8 319.15,-187.8 319.15,-187.8 1017,-187.8 1017,-187.8 1017,-187.8 1017,-187.98 1017,-187.98"/>
<polygon fill="black" stroke="black" points="1013.5,-179.65 1017,-189.65 1020.5,-179.65 1013.5,-179.65"/>
</g>
<!-- StarModule -->
<g id="node5" class="node">
<title>StarModule</title>
<polygon fill="#8dd3c7" stroke="black" points="479.1,-160.8 476.1,-164.8 455.1,-164.8 452.1,-160.8 396.9,-160.8 396.9,-124.8 479.1,-124.8 479.1,-160.8"/>
<text text-anchor="middle" x="438" y="-138.6" font-family="Times,serif" font-size="14.00">StarModule</text>
</g>
<!-- StarModule&#45;&gt;AppModule -->
<g id="edge5" class="edge">
<title>StarModule&#45;&gt;AppModule</title>
<path fill="none" stroke="black" d="M458.53,-161.01C458.53,-197.01 458.53,-273.8 458.53,-273.8 458.53,-273.8 499.09,-273.8 499.09,-273.8"/>
<polygon fill="black" stroke="black" points="499.09,-277.3 509.09,-273.8 499.09,-270.3 499.09,-277.3"/>
</g>
<!-- StarService  -->
<g id="node21" class="node">
<title>StarService </title>
<polygon fill="#fb8072" stroke="black" points="1323.03,-225.8 1238.97,-225.8 1238.97,-189.8 1323.03,-189.8 1323.03,-225.8"/>
<text text-anchor="middle" x="1281" y="-203.6" font-family="Times,serif" font-size="14.00">StarService </text>
</g>
<!-- StarModule&#45;&gt;StarService  -->
<g id="edge23" class="edge">
<title>StarModule&#45;&gt;StarService </title>
<path fill="none" stroke="black" stroke-dasharray="5,2" d="M417.47,-160.93C417.47,-171.11 417.47,-181.8 417.47,-181.8 417.47,-181.8 1281,-181.8 1281,-181.8 1281,-181.8 1281,-182.59 1281,-182.59"/>
<polygon fill="black" stroke="black" points="1277.5,-179.74 1281,-189.74 1284.5,-179.74 1277.5,-179.74"/>
</g>
<!-- StargazeModule -->
<g id="node6" class="node">
<title>StargazeModule</title>
<polygon fill="#8dd3c7" stroke="black" points="604.75,-160.8 601.75,-164.8 580.75,-164.8 577.75,-160.8 497.25,-160.8 497.25,-124.8 604.75,-124.8 604.75,-160.8"/>
<text text-anchor="middle" x="551" y="-138.6" font-family="Times,serif" font-size="14.00">StargazeModule</text>
</g>
<!-- StargazeModule&#45;&gt;AppModule -->
<g id="edge6" class="edge">
<title>StargazeModule&#45;&gt;AppModule</title>
<path fill="none" stroke="black" d="M537.06,-160.94C537.06,-160.94 537.06,-255.73 537.06,-255.73"/>
<polygon fill="black" stroke="black" points="533.56,-255.72 537.06,-265.73 540.56,-255.73 533.56,-255.72"/>
</g>
<!-- StargazeService  -->
<g id="node19" class="node">
<title>StargazeService </title>
<polygon fill="#fb8072" stroke="black" points="1642.67,-225.8 1533.33,-225.8 1533.33,-189.8 1642.67,-189.8 1642.67,-225.8"/>
<text text-anchor="middle" x="1588" y="-203.6" font-family="Times,serif" font-size="14.00">StargazeService </text>
</g>
<!-- StargazeModule&#45;&gt;StargazeService  -->
<g id="edge20" class="edge">
<title>StargazeModule&#45;&gt;StargazeService </title>
<path fill="none" stroke="black" stroke-dasharray="5,2" d="M596.84,-160.84C596.84,-168.55 596.84,-175.8 596.84,-175.8 596.84,-175.8 1588,-175.8 1588,-175.8 1588,-175.8 1588,-179.56 1588,-179.56"/>
<polygon fill="black" stroke="black" points="1584.5,-179.56 1588,-189.56 1591.5,-179.56 1584.5,-179.56"/>
</g>
<!-- SubmitModule -->
<g id="node7" class="node">
<title>SubmitModule</title>
<polygon fill="#8dd3c7" stroke="black" points="723.01,-160.8 720.01,-164.8 699.01,-164.8 696.01,-160.8 622.99,-160.8 622.99,-124.8 723.01,-124.8 723.01,-160.8"/>
<text text-anchor="middle" x="673" y="-138.6" font-family="Times,serif" font-size="14.00">SubmitModule</text>
</g>
<!-- SubmitModule&#45;&gt;AppModule -->
<g id="edge7" class="edge">
<title>SubmitModule&#45;&gt;AppModule</title>
<path fill="none" stroke="black" d="M698,-161.01C698,-197.01 698,-273.8 698,-273.8 698,-273.8 602.73,-273.8 602.73,-273.8"/>
<polygon fill="black" stroke="black" points="602.73,-270.3 592.73,-273.8 602.73,-277.3 602.73,-270.3"/>
</g>
<!-- SubmitService  -->
<g id="node23" class="node">
<title>SubmitService </title>
<polygon fill="#fb8072" stroke="black" points="1944.93,-225.8 1843.07,-225.8 1843.07,-189.8 1944.93,-189.8 1944.93,-225.8"/>
<text text-anchor="middle" x="1894" y="-203.6" font-family="Times,serif" font-size="14.00">SubmitService </text>
</g>
<!-- SubmitModule&#45;&gt;SubmitService  -->
<g id="edge26" class="edge">
<title>SubmitModule&#45;&gt;SubmitService </title>
<path fill="none" stroke="black" stroke-dasharray="5,2" d="M648,-160.96C648,-165.84 648,-169.8 648,-169.8 648,-169.8 1894,-169.8 1894,-169.8 1894,-169.8 1894,-179.69 1894,-179.69"/>
<polygon fill="black" stroke="black" points="1890.5,-179.69 1894,-189.69 1897.5,-179.69 1890.5,-179.69"/>
</g>
<!-- UserModule -->
<g id="node8" class="node">
<title>UserModule</title>
<polygon fill="#8dd3c7" stroke="black" points="826.99,-160.8 823.99,-164.8 802.99,-164.8 799.99,-160.8 741.01,-160.8 741.01,-124.8 826.99,-124.8 826.99,-160.8"/>
<text text-anchor="middle" x="784" y="-138.6" font-family="Times,serif" font-size="14.00">UserModule</text>
</g>
<!-- UserModule&#45;&gt;AuthModule -->
<g id="edge10" class="edge">
<title>UserModule&#45;&gt;AuthModule</title>
<path fill="none" stroke="black" d="M809.8,-160.82C809.8,-178.17 809.8,-201.8 809.8,-201.8 809.8,-201.8 833.43,-201.8 833.43,-201.8"/>
<polygon fill="black" stroke="black" points="833.43,-205.3 843.43,-201.8 833.43,-198.3 833.43,-205.3"/>
</g>
<!-- UserModule&#45;&gt;AppModule -->
<g id="edge8" class="edge">
<title>UserModule&#45;&gt;AppModule</title>
<path fill="none" stroke="black" d="M792.6,-160.84C792.6,-198.25 792.6,-280.8 792.6,-280.8 792.6,-280.8 602.81,-280.8 602.81,-280.8"/>
<polygon fill="black" stroke="black" points="602.81,-277.3 592.81,-280.8 602.81,-284.3 602.81,-277.3"/>
</g>
<!-- UserService  -->
<g id="node25" class="node">
<title>UserService </title>
<polygon fill="#fb8072" stroke="black" points="2212.91,-225.8 2125.09,-225.8 2125.09,-189.8 2212.91,-189.8 2212.91,-225.8"/>
<text text-anchor="middle" x="2169" y="-203.6" font-family="Times,serif" font-size="14.00">UserService </text>
</g>
<!-- UserModule&#45;&gt;UserService  -->
<g id="edge29" class="edge">
<title>UserModule&#45;&gt;UserService </title>
<path fill="none" stroke="black" stroke-dasharray="5,2" d="M758.2,-160.88C758.2,-162.65 758.2,-163.8 758.2,-163.8 758.2,-163.8 2169,-163.8 2169,-163.8 2169,-163.8 2169,-179.65 2169,-179.65"/>
<polygon fill="black" stroke="black" points="2165.5,-179.65 2169,-189.65 2172.5,-179.65 2165.5,-179.65"/>
</g>
<!-- VoteModule -->
<g id="node9" class="node">
<title>VoteModule</title>
<polygon fill="#8dd3c7" stroke="black" points="931.27,-160.8 928.27,-164.8 907.27,-164.8 904.27,-160.8 844.73,-160.8 844.73,-124.8 931.27,-124.8 931.27,-160.8"/>
<text text-anchor="middle" x="888" y="-138.6" font-family="Times,serif" font-size="14.00">VoteModule</text>
</g>
<!-- VoteModule&#45;&gt;AppModule -->
<g id="edge9" class="edge">
<title>VoteModule&#45;&gt;AppModule</title>
<path fill="none" stroke="black" d="M844.32,-142.8C838.84,-142.8 835.11,-142.8 835.11,-142.8 835.11,-142.8 835.11,-287.8 835.11,-287.8 835.11,-287.8 602.92,-287.8 602.92,-287.8"/>
<polygon fill="black" stroke="black" points="602.92,-284.3 592.92,-287.8 602.92,-291.3 602.92,-284.3"/>
</g>
<!-- VoteService  -->
<g id="node27" class="node">
<title>VoteService </title>
<polygon fill="#fb8072" stroke="black" points="2483.19,-225.8 2394.81,-225.8 2394.81,-189.8 2483.19,-189.8 2483.19,-225.8"/>
<text text-anchor="middle" x="2439" y="-203.6" font-family="Times,serif" font-size="14.00">VoteService </text>
</g>
<!-- VoteModule&#45;&gt;VoteService  -->
<g id="edge31" class="edge">
<title>VoteModule&#45;&gt;VoteService </title>
<path fill="none" stroke="black" stroke-dasharray="5,2" d="M931.51,-136.8C1182.96,-136.8 2439,-136.8 2439,-136.8 2439,-136.8 2439,-179.52 2439,-179.52"/>
<polygon fill="black" stroke="black" points="2435.5,-179.52 2439,-189.52 2442.5,-179.52 2435.5,-179.52"/>
</g>
<!-- SupabaseGuard -->
<g id="node13" class="node">
<title>SupabaseGuard</title>
<ellipse fill="#fdb462" stroke="black" cx="1220" cy="-283.8" rx="71.78" ry="18"/>
<text text-anchor="middle" x="1220" y="-279.6" font-family="Times,serif" font-size="14.00">SupabaseGuard</text>
</g>
<!-- SupabaseGuard&#45;&gt;AuthModule -->
<g id="edge13" class="edge">
<title>SupabaseGuard&#45;&gt;AuthModule</title>
<path fill="none" stroke="black" d="M1181.45,-268.49C1181.45,-261.95 1181.45,-255.8 1181.45,-255.8 1181.45,-255.8 895.76,-255.8 895.76,-255.8 895.76,-255.8 895.76,-235.95 895.76,-235.95"/>
<polygon fill="black" stroke="black" points="899.26,-235.95 895.76,-225.95 892.26,-235.95 899.26,-235.95"/>
</g>
<!-- SupabaseStrategy -->
<g id="node14" class="node">
<title>SupabaseStrategy</title>
<ellipse fill="#fdb462" stroke="black" cx="1051" cy="-283.8" rx="79.88" ry="18"/>
<text text-anchor="middle" x="1051" y="-279.6" font-family="Times,serif" font-size="14.00">SupabaseStrategy</text>
</g>
<!-- SupabaseStrategy&#45;&gt;AuthModule -->
<g id="edge14" class="edge">
<title>SupabaseStrategy&#45;&gt;AuthModule</title>
<path fill="none" stroke="black" d="M987.78,-294.8C951.57,-294.8 913.27,-294.8 913.27,-294.8 913.27,-294.8 913.27,-235.83 913.27,-235.83"/>
<polygon fill="black" stroke="black" points="916.77,-235.83 913.27,-225.83 909.77,-235.83 916.77,-235.83"/>
</g>
<!-- ContributionService -->
<g id="node16" class="node">
<title>ContributionService</title>
<ellipse fill="#fdb462" stroke="black" cx="271" cy="-66.8" rx="89.21" ry="18"/>
<text text-anchor="middle" x="271" y="-62.6" font-family="Times,serif" font-size="14.00">ContributionService</text>
</g>
<!-- ContributionService&#45;&gt;ContributionModule -->
<g id="edge16" class="edge">
<title>ContributionService&#45;&gt;ContributionModule</title>
<path fill="none" stroke="black" d="M181.53,-66.8C172.2,-66.8 166.04,-66.8 166.04,-66.8 166.04,-66.8 166.04,-142.8 166.04,-142.8 166.04,-142.8 165.12,-142.8 165.12,-142.8"/>
<polygon fill="black" stroke="black" points="166.84,-139.3 156.84,-142.8 166.84,-146.3 166.84,-139.3"/>
</g>
<!-- RepoService -->
<g id="node17" class="node">
<title>RepoService</title>
<ellipse fill="#fdb462" stroke="black" cx="439" cy="-66.8" rx="60.26" ry="18"/>
<text text-anchor="middle" x="439" y="-62.6" font-family="Times,serif" font-size="14.00">RepoService</text>
</g>
<!-- RepoService&#45;&gt;ContributionModule -->
<g id="edge17" class="edge">
<title>RepoService&#45;&gt;ContributionModule</title>
<path fill="none" stroke="black" d="M384.73,-74.86C384.73,-86.01 384.73,-104.8 384.73,-104.8 384.73,-104.8 112.85,-104.8 112.85,-104.8 112.85,-104.8 112.85,-114.69 112.85,-114.69"/>
<polygon fill="black" stroke="black" points="109.35,-114.69 112.85,-124.69 116.35,-114.69 109.35,-114.69"/>
</g>
<!-- RepoService&#45;&gt;RepoModule -->
<g id="edge19" class="edge">
<title>RepoService&#45;&gt;RepoModule</title>
<path fill="none" stroke="black" d="M390.84,-77.69C390.84,-98.7 390.84,-142.8 390.84,-142.8 390.84,-142.8 388.79,-142.8 388.79,-142.8"/>
<polygon fill="black" stroke="black" points="388.79,-139.3 378.79,-142.8 388.79,-146.3 388.79,-139.3"/>
</g>
<!-- RepoService&#45;&gt;StarModule -->
<g id="edge24" class="edge">
<title>RepoService&#45;&gt;StarModule</title>
<path fill="none" stroke="black" d="M438,-84.81C438,-84.81 438,-114.65 438,-114.65"/>
<polygon fill="black" stroke="black" points="434.5,-114.65 438,-124.65 441.5,-114.65 434.5,-114.65"/>
</g>
<!-- RepoService&#45;&gt;StargazeModule -->
<g id="edge21" class="edge">
<title>RepoService&#45;&gt;StargazeModule</title>
<path fill="none" stroke="black" d="M488.09,-77.37C488.09,-98.25 488.09,-142.8 488.09,-142.8 488.09,-142.8 488.99,-142.8 488.99,-142.8"/>
<polygon fill="black" stroke="black" points="487.1,-146.3 497.1,-142.8 487.1,-139.3 487.1,-146.3"/>
</g>
<!-- RepoService&#45;&gt;SubmitModule -->
<g id="edge27" class="edge">
<title>RepoService&#45;&gt;SubmitModule</title>
<path fill="none" stroke="black" d="M495.94,-72.8C565.21,-72.8 673,-72.8 673,-72.8 673,-72.8 673,-114.77 673,-114.77"/>
<polygon fill="black" stroke="black" points="669.5,-114.77 673,-124.77 676.5,-114.77 669.5,-114.77"/>
</g>
<!-- RepoService&#45;&gt;VoteModule -->
<g id="edge32" class="edge">
<title>RepoService&#45;&gt;VoteModule</title>
<path fill="none" stroke="black" d="M496.32,-60.8C617.37,-60.8 888,-60.8 888,-60.8 888,-60.8 888,-114.6 888,-114.6"/>
<polygon fill="black" stroke="black" points="884.5,-114.6 888,-124.6 891.5,-114.6 884.5,-114.6"/>
</g>
<!-- StargazeService -->
<g id="node20" class="node">
<title>StargazeService</title>
<ellipse fill="#fdb462" stroke="black" cx="1436" cy="-207.8" rx="73.47" ry="18"/>
<text text-anchor="middle" x="1436" y="-203.6" font-family="Times,serif" font-size="14.00">StargazeService</text>
</g>
<!-- StargazeService&#45;&gt;StargazeModule -->
<g id="edge22" class="edge">
<title>StargazeService&#45;&gt;StargazeModule</title>
<path fill="none" stroke="black" d="M1436,-189.6C1436,-183.77 1436,-178.8 1436,-178.8 1436,-178.8 600.86,-178.8 600.86,-178.8 600.86,-178.8 600.86,-171.22 600.86,-171.22"/>
<polygon fill="black" stroke="black" points="604.36,-171.22 600.86,-161.22 597.36,-171.22 604.36,-171.22"/>
</g>
<!-- StarService -->
<g id="node22" class="node">
<title>StarService</title>
<ellipse fill="#fdb462" stroke="black" cx="1159" cy="-207.8" rx="55.6" ry="18"/>
<text text-anchor="middle" x="1159" y="-203.6" font-family="Times,serif" font-size="14.00">StarService</text>
</g>
<!-- StarService&#45;&gt;StarModule -->
<g id="edge25" class="edge">
<title>StarService&#45;&gt;StarModule</title>
<path fill="none" stroke="black" d="M1159,-189.68C1159,-186.83 1159,-184.8 1159,-184.8 1159,-184.8 438,-184.8 438,-184.8 438,-184.8 438,-170.86 438,-170.86"/>
<polygon fill="black" stroke="black" points="441.5,-170.86 438,-160.86 434.5,-170.86 441.5,-170.86"/>
</g>
<!-- SubmitService -->
<g id="node24" class="node">
<title>SubmitService</title>
<ellipse fill="#fdb462" stroke="black" cx="1751" cy="-207.8" rx="67.8" ry="18"/>
<text text-anchor="middle" x="1751" y="-203.6" font-family="Times,serif" font-size="14.00">SubmitService</text>
</g>
<!-- SubmitService&#45;&gt;SubmitModule -->
<g id="edge28" class="edge">
<title>SubmitService&#45;&gt;SubmitModule</title>
<path fill="none" stroke="black" d="M1751,-189.48C1751,-181.01 1751,-172.8 1751,-172.8 1751,-172.8 673,-172.8 673,-172.8 673,-172.8 673,-170.94 673,-170.94"/>
<polygon fill="black" stroke="black" points="676.5,-170.94 673,-160.94 669.5,-170.94 676.5,-170.94"/>
</g>
<!-- UserService -->
<g id="node26" class="node">
<title>UserService</title>
<ellipse fill="#fdb462" stroke="black" cx="2043" cy="-207.8" rx="58.46" ry="18"/>
<text text-anchor="middle" x="2043" y="-203.6" font-family="Times,serif" font-size="14.00">UserService</text>
</g>
<!-- UserService&#45;&gt;UserModule -->
<g id="edge30" class="edge">
<title>UserService&#45;&gt;UserModule</title>
<path fill="none" stroke="black" d="M2043,-189.7C2043,-178.71 2043,-166.8 2043,-166.8 2043,-166.8 775.4,-166.8 775.4,-166.8 775.4,-166.8 775.4,-166.22 775.4,-166.22"/>
<polygon fill="black" stroke="black" points="778.9,-170.99 775.4,-160.99 771.9,-170.99 778.9,-170.99"/>
</g>
<!-- VoteService -->
<g id="node28" class="node">
<title>VoteService</title>
<ellipse fill="#fdb462" stroke="black" cx="2312" cy="-207.8" rx="58.53" ry="18"/>
<text text-anchor="middle" x="2312" y="-203.6" font-family="Times,serif" font-size="14.00">VoteService</text>
</g>
<!-- VoteService&#45;&gt;VoteModule -->
<g id="edge33" class="edge">
<title>VoteService&#45;&gt;VoteModule</title>
<path fill="none" stroke="black" d="M2312,-189.78C2312,-172.43 2312,-148.8 2312,-148.8 2312,-148.8 941.4,-148.8 941.4,-148.8"/>
<polygon fill="black" stroke="black" points="941.4,-145.3 931.4,-148.8 941.39,-152.3 941.4,-145.3"/>
</g>
</g>
</svg>
