<?xml version="1.0" encoding="UTF-8" standalone="no"?>
<!DOCTYPE svg PUBLIC "-//W3C//DTD SVG 1.1//EN"
 "http://www.w3.org/Graphics/SVG/1.1/DTD/svg11.dtd">
<!-- Generated by graphviz version 3.0.0 (20220226.1711)
 -->
<!-- Title: dependencies Pages: 1 -->
<svg width="5082pt" height="269pt"
 viewBox="0.00 0.00 5082.00 268.80" xmlns="http://www.w3.org/2000/svg" xmlns:xlink="http://www.w3.org/1999/xlink">
<g id="graph0" class="graph" transform="scale(1 1) rotate(0) translate(4 264.8)">
<title>dependencies</title>
<polygon fill="white" stroke="transparent" points="-4,4 -4,-264.8 5078,-264.8 5078,4 -4,4"/>
<text text-anchor="middle" x="2537" y="-8.2" font-family="sans-serif" font-size="14.00">dependencies</text>
<g id="clust1" class="cluster">
<title>cluster_AppModule</title>
<polygon fill="none" stroke="black" stroke-dasharray="1,5" points="754,-108.8 754,-252.8 2176,-252.8 2176,-108.8 754,-108.8"/>
</g>
<g id="clust3" class="cluster">
<title>cluster_AppModule_imports</title>
<polygon fill="none" stroke="black" points="762,-116.8 762,-244.8 2076,-244.8 2076,-116.8 762,-116.8"/>
</g>
<g id="clust7" class="cluster">
<title>cluster_AuthModule</title>
<polygon fill="none" stroke="black" stroke-dasharray="1,5" points="8,-108.8 8,-176.8 746,-176.8 746,-108.8 8,-108.8"/>
</g>
<g id="clust9" class="cluster">
<title>cluster_AuthModule_imports</title>
<polygon fill="none" stroke="black" points="630,-116.8 630,-168.8 738,-168.8 738,-116.8 630,-116.8"/>
</g>
<g id="clust10" class="cluster">
<title>cluster_AuthModule_exports</title>
<polygon fill="none" stroke="black" points="361,-116.8 361,-168.8 622,-168.8 622,-116.8 361,-116.8"/>
</g>
<g id="clust12" class="cluster">
<title>cluster_AuthModule_providers</title>
<polygon fill="none" stroke="black" points="16,-116.8 16,-168.8 353,-168.8 353,-116.8 16,-116.8"/>
</g>
<g id="clust13" class="cluster">
<title>cluster_ContributionModule</title>
<polygon fill="none" stroke="black" stroke-dasharray="1,5" points="953,-32.8 953,-100.8 1460,-100.8 1460,-32.8 953,-32.8"/>
</g>
<g id="clust16" class="cluster">
<title>cluster_ContributionModule_exports</title>
<polygon fill="none" stroke="black" points="961,-40.8 961,-92.8 1111,-92.8 1111,-40.8 961,-40.8"/>
</g>
<g id="clust18" class="cluster">
<title>cluster_ContributionModule_providers</title>
<polygon fill="none" stroke="black" points="1119,-40.8 1119,-92.8 1452,-92.8 1452,-40.8 1119,-40.8"/>
</g>
<g id="clust19" class="cluster">
<title>cluster_CustomerModule</title>
<polygon fill="none" stroke="black" stroke-dasharray="1,5" points="2184,-184.8 2184,-252.8 2512,-252.8 2512,-184.8 2184,-184.8"/>
</g>
<g id="clust22" class="cluster">
<title>cluster_CustomerModule_exports</title>
<polygon fill="none" stroke="black" points="2372,-192.8 2372,-244.8 2504,-244.8 2504,-192.8 2372,-192.8"/>
</g>
<g id="clust24" class="cluster">
<title>cluster_CustomerModule_providers</title>
<polygon fill="none" stroke="black" points="2192,-192.8 2192,-244.8 2364,-244.8 2364,-192.8 2192,-192.8"/>
</g>
<g id="clust31" class="cluster">
<title>cluster_InsightsModule</title>
<polygon fill="none" stroke="black" stroke-dasharray="1,5" points="2520,-184.8 2520,-252.8 3164,-252.8 3164,-184.8 2520,-184.8"/>
</g>
<g id="clust34" class="cluster">
<title>cluster_InsightsModule_exports</title>
<polygon fill="none" stroke="black" points="2886,-192.8 2886,-244.8 3156,-244.8 3156,-192.8 2886,-192.8"/>
</g>
<g id="clust36" class="cluster">
<title>cluster_InsightsModule_providers</title>
<polygon fill="none" stroke="black" points="2528,-192.8 2528,-244.8 2878,-244.8 2878,-192.8 2528,-192.8"/>
</g>
<g id="clust37" class="cluster">
<title>cluster_RepoModule</title>
<polygon fill="none" stroke="black" stroke-dasharray="1,5" points="3172,-184.8 3172,-252.8 3296,-252.8 3296,-184.8 3172,-184.8"/>
</g>
<g id="clust40" class="cluster">
<title>cluster_RepoModule_exports</title>
<polygon fill="none" stroke="black" points="3180,-192.8 3180,-244.8 3288,-244.8 3288,-192.8 3180,-192.8"/>
</g>
<g id="clust43" class="cluster">
<title>cluster_StargazeModule</title>
<polygon fill="none" stroke="black" stroke-dasharray="1,5" points="3564,-184.8 3564,-252.8 3876,-252.8 3876,-184.8 3564,-184.8"/>
</g>
<g id="clust46" class="cluster">
<title>cluster_StargazeModule_exports</title>
<polygon fill="none" stroke="black" points="3742,-192.8 3742,-244.8 3868,-244.8 3868,-192.8 3742,-192.8"/>
</g>
<g id="clust48" class="cluster">
<title>cluster_StargazeModule_providers</title>
<polygon fill="none" stroke="black" points="3572,-192.8 3572,-244.8 3734,-244.8 3734,-192.8 3572,-192.8"/>
</g>
<g id="clust49" class="cluster">
<title>cluster_StarModule</title>
<polygon fill="none" stroke="black" stroke-dasharray="1,5" points="3304,-184.8 3304,-252.8 3556,-252.8 3556,-184.8 3304,-184.8"/>
</g>
<g id="clust52" class="cluster">
<title>cluster_StarModule_exports</title>
<polygon fill="none" stroke="black" points="3448,-192.8 3448,-244.8 3548,-244.8 3548,-192.8 3448,-192.8"/>
</g>
<g id="clust54" class="cluster">
<title>cluster_StarModule_providers</title>
<polygon fill="none" stroke="black" points="3312,-192.8 3312,-244.8 3440,-244.8 3440,-192.8 3312,-192.8"/>
</g>
<g id="clust55" class="cluster">
<title>cluster_StripeModule</title>
<polygon fill="none" stroke="black" stroke-dasharray="1,5" points="538,-32.8 538,-100.8 814,-100.8 814,-32.8 538,-32.8"/>
</g>
<g id="clust58" class="cluster">
<title>cluster_StripeModule_exports</title>
<polygon fill="none" stroke="black" points="696,-40.8 696,-92.8 806,-92.8 806,-40.8 696,-40.8"/>
</g>
<g id="clust60" class="cluster">
<title>cluster_StripeModule_providers</title>
<polygon fill="none" stroke="black" points="546,-40.8 546,-92.8 688,-92.8 688,-40.8 546,-40.8"/>
</g>
<g id="clust61" class="cluster">
<title>cluster_SubmitModule</title>
<polygon fill="none" stroke="black" stroke-dasharray="1,5" points="3884,-184.8 3884,-252.8 4178,-252.8 4178,-184.8 3884,-184.8"/>
</g>
<g id="clust64" class="cluster">
<title>cluster_SubmitModule_exports</title>
<polygon fill="none" stroke="black" points="4052,-192.8 4052,-244.8 4170,-244.8 4170,-192.8 4052,-192.8"/>
</g>
<g id="clust66" class="cluster">
<title>cluster_SubmitModule_providers</title>
<polygon fill="none" stroke="black" points="3892,-192.8 3892,-244.8 4044,-244.8 4044,-192.8 3892,-192.8"/>
</g>
<g id="clust67" class="cluster">
<title>cluster_UserModule</title>
<polygon fill="none" stroke="black" stroke-dasharray="1,5" points="4186,-184.8 4186,-252.8 4446,-252.8 4446,-184.8 4186,-184.8"/>
</g>
<g id="clust70" class="cluster">
<title>cluster_UserModule_exports</title>
<polygon fill="none" stroke="black" points="4334,-192.8 4334,-244.8 4438,-244.8 4438,-192.8 4334,-192.8"/>
</g>
<g id="clust72" class="cluster">
<title>cluster_UserModule_providers</title>
<polygon fill="none" stroke="black" points="4194,-192.8 4194,-244.8 4326,-244.8 4326,-192.8 4194,-192.8"/>
</g>
<g id="clust73" class="cluster">
<title>cluster_UserReposModule</title>
<polygon fill="none" stroke="black" stroke-dasharray="1,5" points="4454,-184.8 4454,-252.8 4796,-252.8 4796,-184.8 4454,-184.8"/>
</g>
<g id="clust76" class="cluster">
<title>cluster_UserReposModule_exports</title>
<polygon fill="none" stroke="black" points="4650,-192.8 4650,-244.8 4788,-244.8 4788,-192.8 4650,-192.8"/>
</g>
<g id="clust78" class="cluster">
<title>cluster_UserReposModule_providers</title>
<polygon fill="none" stroke="black" points="4462,-192.8 4462,-244.8 4642,-244.8 4642,-192.8 4462,-192.8"/>
</g>
<g id="clust79" class="cluster">
<title>cluster_VoteModule</title>
<polygon fill="none" stroke="black" stroke-dasharray="1,5" points="4804,-184.8 4804,-252.8 5066,-252.8 5066,-184.8 4804,-184.8"/>
</g>
<g id="clust82" class="cluster">
<title>cluster_VoteModule_exports</title>
<polygon fill="none" stroke="black" points="4954,-192.8 4954,-244.8 5058,-244.8 5058,-192.8 4954,-192.8"/>
</g>
<g id="clust84" class="cluster">
<title>cluster_VoteModule_providers</title>
<polygon fill="none" stroke="black" points="4812,-192.8 4812,-244.8 4946,-244.8 4946,-192.8 4812,-192.8"/>
</g>
<!-- AuthModule -->
<g id="node1" class="node">
<title>AuthModule</title>
<polygon fill="#8dd3c7" stroke="black" points="857.55,-236.8 854.55,-240.8 833.55,-240.8 830.55,-236.8 770.45,-236.8 770.45,-200.8 857.55,-200.8 857.55,-236.8"/>
<text text-anchor="middle" x="814" y="-214.6" font-family="Times,serif" font-size="14.00">AuthModule</text>
</g>
<!-- AppModule -->
<g id="node13" class="node">
<title>AppModule</title>
<polygon fill="#8dd3c7" stroke="black" points="2167.66,-236.8 2164.66,-240.8 2143.66,-240.8 2140.66,-236.8 2084.34,-236.8 2084.34,-200.8 2167.66,-200.8 2167.66,-236.8"/>
<text text-anchor="middle" x="2126" y="-214.6" font-family="Times,serif" font-size="14.00">AppModule</text>
</g>
<!-- AuthModule&#45;&gt;AppModule -->
<g id="edge1" class="edge">
<title>AuthModule&#45;&gt;AppModule</title>
<path fill="none" stroke="black" d="M857.65,-234.8C857.65,-234.8 2074.17,-234.8 2074.17,-234.8"/>
<polygon fill="black" stroke="black" points="2074.17,-238.3 2084.17,-234.8 2074.17,-231.3 2074.17,-238.3"/>
</g>
<!-- SupabaseGuard  -->
<g id="node15" class="node">
<title>SupabaseGuard </title>
<polygon fill="#fb8072" stroke="black" points="613.86,-160.8 506.14,-160.8 506.14,-124.8 613.86,-124.8 613.86,-160.8"/>
<text text-anchor="middle" x="560" y="-138.6" font-family="Times,serif" font-size="14.00">SupabaseGuard </text>
</g>
<!-- AuthModule&#45;&gt;SupabaseGuard  -->
<g id="edge17" class="edge">
<title>AuthModule&#45;&gt;SupabaseGuard </title>
<path fill="none" stroke="black" stroke-dasharray="5,2" d="M770.34,-212.8C697.71,-212.8 560,-212.8 560,-212.8 560,-212.8 560,-170.83 560,-170.83"/>
<polygon fill="black" stroke="black" points="563.5,-170.83 560,-160.83 556.5,-170.83 563.5,-170.83"/>
</g>
<!-- SupabaseStrategy  -->
<g id="node16" class="node">
<title>SupabaseStrategy </title>
<polygon fill="#fb8072" stroke="black" points="488.53,-160.8 369.47,-160.8 369.47,-124.8 488.53,-124.8 488.53,-160.8"/>
<text text-anchor="middle" x="429" y="-138.6" font-family="Times,serif" font-size="14.00">SupabaseStrategy </text>
</g>
<!-- AuthModule&#45;&gt;SupabaseStrategy  -->
<g id="edge18" class="edge">
<title>AuthModule&#45;&gt;SupabaseStrategy </title>
<path fill="none" stroke="black" stroke-dasharray="5,2" d="M770.21,-218.8C669.3,-218.8 429,-218.8 429,-218.8 429,-218.8 429,-170.81 429,-170.81"/>
<polygon fill="black" stroke="black" points="432.5,-170.81 429,-160.81 425.5,-170.81 432.5,-170.81"/>
</g>
<!-- ContributionModule -->
<g id="node2" class="node">
<title>ContributionModule</title>
<polygon fill="#8dd3c7" stroke="black" points="1015.61,-160.8 1012.61,-164.8 991.61,-164.8 988.61,-160.8 884.39,-160.8 884.39,-124.8 1015.61,-124.8 1015.61,-160.8"/>
<text text-anchor="middle" x="950" y="-138.6" font-family="Times,serif" font-size="14.00">ContributionModule</text>
</g>
<!-- ContributionModule&#45;&gt;AppModule -->
<g id="edge2" class="edge">
<title>ContributionModule&#45;&gt;AppModule</title>
<path fill="none" stroke="black" d="M950,-160.83C950,-186.31 950,-229.8 950,-229.8 950,-229.8 2074.15,-229.8 2074.15,-229.8"/>
<polygon fill="black" stroke="black" points="2074.15,-233.3 2084.15,-229.8 2074.15,-226.3 2074.15,-233.3"/>
</g>
<!-- ContributionService  -->
<g id="node19" class="node">
<title>ContributionService </title>
<polygon fill="#fb8072" stroke="black" points="1102.54,-84.8 969.46,-84.8 969.46,-48.8 1102.54,-48.8 1102.54,-84.8"/>
<text text-anchor="middle" x="1036" y="-62.6" font-family="Times,serif" font-size="14.00">ContributionService </text>
</g>
<!-- ContributionModule&#45;&gt;ContributionService  -->
<g id="edge21" class="edge">
<title>ContributionModule&#45;&gt;ContributionService </title>
<path fill="none" stroke="black" stroke-dasharray="5,2" d="M981,-124.79C981,-124.79 981,-94.95 981,-94.95"/>
<polygon fill="black" stroke="black" points="984.5,-94.95 981,-84.95 977.5,-94.95 984.5,-94.95"/>
</g>
<!-- CustomerModule -->
<g id="node3" class="node">
<title>CustomerModule</title>
<polygon fill="#8dd3c7" stroke="black" points="1147.99,-160.8 1144.99,-164.8 1123.99,-164.8 1120.99,-160.8 1034.01,-160.8 1034.01,-124.8 1147.99,-124.8 1147.99,-160.8"/>
<text text-anchor="middle" x="1091" y="-138.6" font-family="Times,serif" font-size="14.00">CustomerModule</text>
</g>
<!-- CustomerModule&#45;&gt;AuthModule -->
<g id="edge13" class="edge">
<title>CustomerModule&#45;&gt;AuthModule</title>
<path fill="none" stroke="black" d="M1102.4,-161.1C1102.4,-179.07 1102.4,-203.8 1102.4,-203.8 1102.4,-203.8 867.8,-203.8 867.8,-203.8"/>
<polygon fill="black" stroke="black" points="867.8,-200.3 857.8,-203.8 867.8,-207.3 867.8,-200.3"/>
</g>
<!-- CustomerModule&#45;&gt;AppModule -->
<g id="edge3" class="edge">
<title>CustomerModule&#45;&gt;AppModule</title>
<path fill="none" stroke="black" d="M1125.2,-160.83C1125.2,-185.78 1125.2,-227.8 1125.2,-227.8 1125.2,-227.8 2074.27,-227.8 2074.27,-227.8"/>
<polygon fill="black" stroke="black" points="2074.27,-231.3 2084.27,-227.8 2074.27,-224.3 2074.27,-231.3"/>
</g>
<!-- CustomerService  -->
<g id="node22" class="node">
<title>CustomerService </title>
<polygon fill="#fb8072" stroke="black" points="2495.92,-236.8 2380.08,-236.8 2380.08,-200.8 2495.92,-200.8 2495.92,-236.8"/>
<text text-anchor="middle" x="2438" y="-214.6" font-family="Times,serif" font-size="14.00">CustomerService </text>
</g>
<!-- CustomerModule&#45;&gt;CustomerService  -->
<g id="edge24" class="edge">
<title>CustomerModule&#45;&gt;CustomerService </title>
<path fill="none" stroke="black" stroke-dasharray="5,2" d="M1056.8,-161.08C1056.8,-176.75 1056.8,-196.8 1056.8,-196.8 1056.8,-196.8 2438,-196.8 2438,-196.8 2438,-196.8 2438,-197.18 2438,-197.18"/>
<polygon fill="black" stroke="black" points="2434.5,-190.63 2438,-200.63 2441.5,-190.63 2434.5,-190.63"/>
</g>
<!-- HealthModule -->
<g id="node4" class="node">
<title>HealthModule</title>
<polygon fill="#8dd3c7" stroke="black" points="866.37,-160.8 863.37,-164.8 842.37,-164.8 839.37,-160.8 769.63,-160.8 769.63,-124.8 866.37,-124.8 866.37,-160.8"/>
<text text-anchor="middle" x="818" y="-138.6" font-family="Times,serif" font-size="14.00">HealthModule</text>
</g>
<!-- HealthModule&#45;&gt;AppModule -->
<g id="edge4" class="edge">
<title>HealthModule&#45;&gt;AppModule</title>
<path fill="none" stroke="black" d="M866.46,-142.8C871.85,-142.8 875.44,-142.8 875.44,-142.8 875.44,-142.8 875.44,-232.8 875.44,-232.8 875.44,-232.8 2074.03,-232.8 2074.03,-232.8"/>
<polygon fill="black" stroke="black" points="2074.03,-236.3 2084.03,-232.8 2074.03,-229.3 2074.03,-236.3"/>
</g>
<!-- InsightsModule -->
<g id="node5" class="node">
<title>InsightsModule</title>
<polygon fill="#8dd3c7" stroke="black" points="1269.89,-160.8 1266.89,-164.8 1245.89,-164.8 1242.89,-160.8 1166.11,-160.8 1166.11,-124.8 1269.89,-124.8 1269.89,-160.8"/>
<text text-anchor="middle" x="1218" y="-138.6" font-family="Times,serif" font-size="14.00">InsightsModule</text>
</g>
<!-- InsightsModule&#45;&gt;AppModule -->
<g id="edge5" class="edge">
<title>InsightsModule&#45;&gt;AppModule</title>
<path fill="none" stroke="black" d="M1252.63,-161C1252.63,-185.16 1252.63,-224.8 1252.63,-224.8 1252.63,-224.8 2074.17,-224.8 2074.17,-224.8"/>
<polygon fill="black" stroke="black" points="2074.17,-228.3 2084.17,-224.8 2074.17,-221.3 2074.17,-228.3"/>
</g>
<!-- InsightRepoService  -->
<g id="node24" class="node">
<title>InsightRepoService </title>
<polygon fill="#fb8072" stroke="black" points="3023.92,-236.8 2894.08,-236.8 2894.08,-200.8 3023.92,-200.8 3023.92,-236.8"/>
<text text-anchor="middle" x="2959" y="-214.6" font-family="Times,serif" font-size="14.00">InsightRepoService </text>
</g>
<!-- InsightsModule&#45;&gt;InsightRepoService  -->
<g id="edge26" class="edge">
<title>InsightsModule&#45;&gt;InsightRepoService </title>
<path fill="none" stroke="black" stroke-dasharray="5,2" d="M1183.37,-160.84C1183.37,-174.09 1183.37,-189.8 1183.37,-189.8 1183.37,-189.8 2959,-189.8 2959,-189.8 2959,-189.8 2959,-190.88 2959,-190.88"/>
<polygon fill="black" stroke="black" points="2955.5,-190.6 2959,-200.6 2962.5,-190.6 2955.5,-190.6"/>
</g>
<!-- InsightsService  -->
<g id="node25" class="node">
<title>InsightsService </title>
<polygon fill="#fb8072" stroke="black" points="3147.82,-236.8 3042.18,-236.8 3042.18,-200.8 3147.82,-200.8 3147.82,-236.8"/>
<text text-anchor="middle" x="3095" y="-214.6" font-family="Times,serif" font-size="14.00">InsightsService </text>
</g>
<!-- InsightsModule&#45;&gt;InsightsService  -->
<g id="edge27" class="edge">
<title>InsightsModule&#45;&gt;InsightsService </title>
<path fill="none" stroke="black" stroke-dasharray="5,2" d="M1200.69,-160.84C1200.69,-173.36 1200.69,-187.8 1200.69,-187.8 1200.69,-187.8 3095,-187.8 3095,-187.8 3095,-187.8 3095,-190.77 3095,-190.77"/>
<polygon fill="black" stroke="black" points="3091.5,-190.77 3095,-200.77 3098.5,-190.77 3091.5,-190.77"/>
</g>
<!-- RepoModule -->
<g id="node6" class="node">
<title>RepoModule</title>
<polygon fill="#8dd3c7" stroke="black" points="1376.6,-160.8 1373.6,-164.8 1352.6,-164.8 1349.6,-160.8 1287.4,-160.8 1287.4,-124.8 1376.6,-124.8 1376.6,-160.8"/>
<text text-anchor="middle" x="1332" y="-138.6" font-family="Times,serif" font-size="14.00">RepoModule</text>
</g>
<!-- RepoModule&#45;&gt;AppModule -->
<g id="edge6" class="edge">
<title>RepoModule&#45;&gt;AppModule</title>
<path fill="none" stroke="black" d="M1346.85,-160.95C1346.85,-184.56 1346.85,-222.8 1346.85,-222.8 1346.85,-222.8 2074.11,-222.8 2074.11,-222.8"/>
<polygon fill="black" stroke="black" points="2074.11,-226.3 2084.11,-222.8 2074.11,-219.3 2074.11,-226.3"/>
</g>
<!-- RepoService  -->
<g id="node28" class="node">
<title>RepoService </title>
<polygon fill="#fb8072" stroke="black" points="3279.53,-236.8 3188.47,-236.8 3188.47,-200.8 3279.53,-200.8 3279.53,-236.8"/>
<text text-anchor="middle" x="3234" y="-214.6" font-family="Times,serif" font-size="14.00">RepoService </text>
</g>
<!-- RepoModule&#45;&gt;RepoService  -->
<g id="edge30" class="edge">
<title>RepoModule&#45;&gt;RepoService </title>
<path fill="none" stroke="black" stroke-dasharray="5,2" d="M1317.15,-161.29C1317.15,-172.94 1317.15,-185.8 1317.15,-185.8 1317.15,-185.8 3234,-185.8 3234,-185.8 3234,-185.8 3234,-190.76 3234,-190.76"/>
<polygon fill="black" stroke="black" points="3230.5,-190.76 3234,-200.76 3237.5,-190.76 3230.5,-190.76"/>
</g>
<!-- StarModule -->
<g id="node7" class="node">
<title>StarModule</title>
<polygon fill="#8dd3c7" stroke="black" points="1477.1,-160.8 1474.1,-164.8 1453.1,-164.8 1450.1,-160.8 1394.9,-160.8 1394.9,-124.8 1477.1,-124.8 1477.1,-160.8"/>
<text text-anchor="middle" x="1436" y="-138.6" font-family="Times,serif" font-size="14.00">StarModule</text>
</g>
<!-- StarModule&#45;&gt;AppModule -->
<g id="edge7" class="edge">
<title>StarModule&#45;&gt;AppModule</title>
<path fill="none" stroke="black" d="M1456.53,-160.89C1456.53,-183.93 1456.53,-220.8 1456.53,-220.8 1456.53,-220.8 2074.12,-220.8 2074.12,-220.8"/>
<polygon fill="black" stroke="black" points="2074.12,-224.3 2084.12,-220.8 2074.12,-217.3 2074.12,-224.3"/>
</g>
<!-- StarService  -->
<g id="node31" class="node">
<title>StarService </title>
<polygon fill="#fb8072" stroke="black" points="3540.03,-236.8 3455.97,-236.8 3455.97,-200.8 3540.03,-200.8 3540.03,-236.8"/>
<text text-anchor="middle" x="3498" y="-214.6" font-family="Times,serif" font-size="14.00">StarService </text>
</g>
<!-- StarModule&#45;&gt;StarService  -->
<g id="edge35" class="edge">
<title>StarModule&#45;&gt;StarService </title>
<path fill="none" stroke="black" stroke-dasharray="5,2" d="M1415.47,-160.91C1415.47,-170.7 1415.47,-180.8 1415.47,-180.8 1415.47,-180.8 3498,-180.8 3498,-180.8 3498,-180.8 3498,-190.69 3498,-190.69"/>
<polygon fill="black" stroke="black" points="3494.5,-190.69 3498,-200.69 3501.5,-190.69 3494.5,-190.69"/>
</g>
<!-- StargazeModule -->
<g id="node8" class="node">
<title>StargazeModule</title>
<polygon fill="#8dd3c7" stroke="black" points="1602.75,-160.8 1599.75,-164.8 1578.75,-164.8 1575.75,-160.8 1495.25,-160.8 1495.25,-124.8 1602.75,-124.8 1602.75,-160.8"/>
<text text-anchor="middle" x="1549" y="-138.6" font-family="Times,serif" font-size="14.00">StargazeModule</text>
</g>
<!-- StargazeModule&#45;&gt;AppModule -->
<g id="edge8" class="edge">
<title>StargazeModule&#45;&gt;AppModule</title>
<path fill="none" stroke="black" d="M1575.94,-160.96C1575.94,-183.15 1575.94,-217.8 1575.94,-217.8 1575.94,-217.8 2074.2,-217.8 2074.2,-217.8"/>
<polygon fill="black" stroke="black" points="2074.2,-221.3 2084.2,-217.8 2074.2,-214.3 2074.2,-221.3"/>
</g>
<!-- StargazeService  -->
<g id="node29" class="node">
<title>StargazeService </title>
<polygon fill="#fb8072" stroke="black" points="3859.67,-236.8 3750.33,-236.8 3750.33,-200.8 3859.67,-200.8 3859.67,-236.8"/>
<text text-anchor="middle" x="3805" y="-214.6" font-family="Times,serif" font-size="14.00">StargazeService </text>
</g>
<!-- StargazeModule&#45;&gt;StargazeService  -->
<g id="edge32" class="edge">
<title>StargazeModule&#45;&gt;StargazeService </title>
<path fill="none" stroke="black" stroke-dasharray="5,2" d="M1522.06,-160.99C1522.06,-169.08 1522.06,-176.8 1522.06,-176.8 1522.06,-176.8 3805,-176.8 3805,-176.8 3805,-176.8 3805,-190.74 3805,-190.74"/>
<polygon fill="black" stroke="black" points="3801.5,-190.74 3805,-200.74 3808.5,-190.74 3801.5,-190.74"/>
</g>
<!-- SubmitModule -->
<g id="node9" class="node">
<title>SubmitModule</title>
<polygon fill="#8dd3c7" stroke="black" points="1721.01,-160.8 1718.01,-164.8 1697.01,-164.8 1694.01,-160.8 1620.99,-160.8 1620.99,-124.8 1721.01,-124.8 1721.01,-160.8"/>
<text text-anchor="middle" x="1671" y="-138.6" font-family="Times,serif" font-size="14.00">SubmitModule</text>
</g>
<!-- SubmitModule&#45;&gt;AppModule -->
<g id="edge9" class="edge">
<title>SubmitModule&#45;&gt;AppModule</title>
<path fill="none" stroke="black" d="M1696,-160.84C1696,-182.46 1696,-215.8 1696,-215.8 1696,-215.8 2073.99,-215.8 2073.99,-215.8"/>
<polygon fill="black" stroke="black" points="2073.99,-219.3 2083.99,-215.8 2073.99,-212.3 2073.99,-219.3"/>
</g>
<!-- SubmitService  -->
<g id="node35" class="node">
<title>SubmitService </title>
<polygon fill="#fb8072" stroke="black" points="4161.93,-236.8 4060.07,-236.8 4060.07,-200.8 4161.93,-200.8 4161.93,-236.8"/>
<text text-anchor="middle" x="4111" y="-214.6" font-family="Times,serif" font-size="14.00">SubmitService </text>
</g>
<!-- SubmitModule&#45;&gt;SubmitService  -->
<g id="edge40" class="edge">
<title>SubmitModule&#45;&gt;SubmitService </title>
<path fill="none" stroke="black" stroke-dasharray="5,2" d="M1646,-160.94C1646,-167.26 1646,-172.8 1646,-172.8 1646,-172.8 4111,-172.8 4111,-172.8 4111,-172.8 4111,-190.62 4111,-190.62"/>
<polygon fill="black" stroke="black" points="4107.5,-190.62 4111,-200.62 4114.5,-190.62 4107.5,-190.62"/>
</g>
<!-- UserModule -->
<g id="node10" class="node">
<title>UserModule</title>
<polygon fill="#8dd3c7" stroke="black" points="1824.99,-160.8 1821.99,-164.8 1800.99,-164.8 1797.99,-160.8 1739.01,-160.8 1739.01,-124.8 1824.99,-124.8 1824.99,-160.8"/>
<text text-anchor="middle" x="1782" y="-138.6" font-family="Times,serif" font-size="14.00">UserModule</text>
</g>
<!-- UserModule&#45;&gt;AuthModule -->
<g id="edge15" class="edge">
<title>UserModule&#45;&gt;AuthModule</title>
<path fill="none" stroke="black" d="M1790.6,-161.02C1790.6,-179.63 1790.6,-205.8 1790.6,-205.8 1790.6,-205.8 867.86,-205.8 867.86,-205.8"/>
<polygon fill="black" stroke="black" points="867.86,-202.3 857.86,-205.8 867.86,-209.3 867.86,-202.3"/>
</g>
<!-- UserModule&#45;&gt;AppModule -->
<g id="edge10" class="edge">
<title>UserModule&#45;&gt;AppModule</title>
<path fill="none" stroke="black" d="M1807.8,-160.83C1807.8,-181.57 1807.8,-212.8 1807.8,-212.8 1807.8,-212.8 2074.07,-212.8 2074.07,-212.8"/>
<polygon fill="black" stroke="black" points="2074.07,-216.3 2084.07,-212.8 2074.07,-209.3 2074.07,-216.3"/>
</g>
<!-- UserService  -->
<g id="node37" class="node">
<title>UserService </title>
<polygon fill="#fb8072" stroke="black" points="4429.91,-236.8 4342.09,-236.8 4342.09,-200.8 4429.91,-200.8 4429.91,-236.8"/>
<text text-anchor="middle" x="4386" y="-214.6" font-family="Times,serif" font-size="14.00">UserService </text>
</g>
<!-- UserModule&#45;&gt;UserService  -->
<g id="edge43" class="edge">
<title>UserModule&#45;&gt;UserService </title>
<path fill="none" stroke="black" stroke-dasharray="5,2" d="M1756.2,-160.97C1756.2,-164.85 1756.2,-167.8 1756.2,-167.8 1756.2,-167.8 4386,-167.8 4386,-167.8 4386,-167.8 4386,-190.68 4386,-190.68"/>
<polygon fill="black" stroke="black" points="4382.5,-190.68 4386,-200.68 4389.5,-190.68 4382.5,-190.68"/>
</g>
<!-- UserReposModule -->
<g id="node11" class="node">
<title>UserReposModule</title>
<polygon fill="#8dd3c7" stroke="black" points="1963.49,-160.8 1960.49,-164.8 1939.49,-164.8 1936.49,-160.8 1842.51,-160.8 1842.51,-124.8 1963.49,-124.8 1963.49,-160.8"/>
<text text-anchor="middle" x="1903" y="-138.6" font-family="Times,serif" font-size="14.00">UserReposModule</text>
</g>
<!-- UserReposModule&#45;&gt;AuthModule -->
<g id="edge16" class="edge">
<title>UserReposModule&#45;&gt;AuthModule</title>
<path fill="none" stroke="black" d="M1915.1,-160.83C1915.1,-180.38 1915.1,-208.8 1915.1,-208.8 1915.1,-208.8 867.84,-208.8 867.84,-208.8"/>
<polygon fill="black" stroke="black" points="867.84,-205.3 857.84,-208.8 867.84,-212.3 867.84,-205.3"/>
</g>
<!-- UserReposModule&#45;&gt;AppModule -->
<g id="edge11" class="edge">
<title>UserReposModule&#45;&gt;AppModule</title>
<path fill="none" stroke="black" d="M1939.3,-161.02C1939.3,-181.17 1939.3,-210.8 1939.3,-210.8 1939.3,-210.8 2074.1,-210.8 2074.1,-210.8"/>
<polygon fill="black" stroke="black" points="2074.1,-214.3 2084.1,-210.8 2074.1,-207.3 2074.1,-214.3"/>
</g>
<!-- UserReposService  -->
<g id="node39" class="node">
<title>UserReposService </title>
<polygon fill="#fb8072" stroke="black" points="4780.41,-236.8 4657.59,-236.8 4657.59,-200.8 4780.41,-200.8 4780.41,-236.8"/>
<text text-anchor="middle" x="4719" y="-214.6" font-family="Times,serif" font-size="14.00">UserReposService </text>
</g>
<!-- UserReposModule&#45;&gt;UserReposService  -->
<g id="edge45" class="edge">
<title>UserReposModule&#45;&gt;UserReposService </title>
<path fill="none" stroke="black" stroke-dasharray="5,2" d="M1866.7,-160.88C1866.7,-162.65 1866.7,-163.8 1866.7,-163.8 1866.7,-163.8 4719,-163.8 4719,-163.8 4719,-163.8 4719,-190.79 4719,-190.79"/>
<polygon fill="black" stroke="black" points="4715.5,-190.79 4719,-200.79 4722.5,-190.79 4715.5,-190.79"/>
</g>
<!-- VoteModule -->
<g id="node12" class="node">
<title>VoteModule</title>
<polygon fill="#8dd3c7" stroke="black" points="2068.27,-160.8 2065.27,-164.8 2044.27,-164.8 2041.27,-160.8 1981.73,-160.8 1981.73,-124.8 2068.27,-124.8 2068.27,-160.8"/>
<text text-anchor="middle" x="2025" y="-138.6" font-family="Times,serif" font-size="14.00">VoteModule</text>
</g>
<!-- VoteModule&#45;&gt;AppModule -->
<g id="edge12" class="edge">
<title>VoteModule&#45;&gt;AppModule</title>
<path fill="none" stroke="black" d="M2068.42,-151.8C2095.79,-151.8 2126,-151.8 2126,-151.8 2126,-151.8 2126,-190.49 2126,-190.49"/>
<polygon fill="black" stroke="black" points="2122.5,-190.49 2126,-200.49 2129.5,-190.49 2122.5,-190.49"/>
</g>
<!-- VoteService  -->
<g id="node41" class="node">
<title>VoteService </title>
<polygon fill="#fb8072" stroke="black" points="5050.19,-236.8 4961.81,-236.8 4961.81,-200.8 5050.19,-200.8 5050.19,-236.8"/>
<text text-anchor="middle" x="5006" y="-214.6" font-family="Times,serif" font-size="14.00">VoteService </text>
</g>
<!-- VoteModule&#45;&gt;VoteService  -->
<g id="edge47" class="edge">
<title>VoteModule&#45;&gt;VoteService </title>
<path fill="none" stroke="black" stroke-dasharray="5,2" d="M2068.29,-133.8C2434.88,-133.8 5006,-133.8 5006,-133.8 5006,-133.8 5006,-190.77 5006,-190.77"/>
<polygon fill="black" stroke="black" points="5002.5,-190.77 5006,-200.77 5009.5,-190.77 5002.5,-190.77"/>
</g>
<!-- StripeModule -->
<g id="node14" class="node">
<title>StripeModule</title>
<polygon fill="#8dd3c7" stroke="black" points="730.49,-160.8 727.49,-164.8 706.49,-164.8 703.49,-160.8 637.51,-160.8 637.51,-124.8 730.49,-124.8 730.49,-160.8"/>
<text text-anchor="middle" x="684" y="-138.6" font-family="Times,serif" font-size="14.00">StripeModule</text>
</g>
<!-- StripeModule&#45;&gt;AuthModule -->
<g id="edge14" class="edge">
<title>StripeModule&#45;&gt;AuthModule</title>
<path fill="none" stroke="black" d="M684,-160.97C684,-179.89 684,-206.8 684,-206.8 684,-206.8 760.35,-206.8 760.35,-206.8"/>
<polygon fill="black" stroke="black" points="760.35,-210.3 770.35,-206.8 760.35,-203.3 760.35,-210.3"/>
</g>
<!-- StripeService  -->
<g id="node33" class="node">
<title>StripeService </title>
<polygon fill="#fb8072" stroke="black" points="798.42,-84.8 703.58,-84.8 703.58,-48.8 798.42,-48.8 798.42,-84.8"/>
<text text-anchor="middle" x="751" y="-62.6" font-family="Times,serif" font-size="14.00">StripeService </text>
</g>
<!-- StripeModule&#45;&gt;StripeService  -->
<g id="edge38" class="edge">
<title>StripeModule&#45;&gt;StripeService </title>
<path fill="none" stroke="black" stroke-dasharray="5,2" d="M717.02,-124.79C717.02,-124.79 717.02,-94.95 717.02,-94.95"/>
<polygon fill="black" stroke="black" points="720.52,-94.95 717.02,-84.95 713.52,-94.95 720.52,-94.95"/>
</g>
<!-- SupabaseGuard -->
<g id="node17" class="node">
<title>SupabaseGuard</title>
<ellipse fill="#fdb462" stroke="black" cx="273" cy="-142.8" rx="71.78" ry="18"/>
<text text-anchor="middle" x="273" y="-138.6" font-family="Times,serif" font-size="14.00">SupabaseGuard</text>
</g>
<!-- SupabaseGuard&#45;&gt;AuthModule -->
<g id="edge19" class="edge">
<title>SupabaseGuard&#45;&gt;AuthModule</title>
<path fill="none" stroke="black" d="M273,-161C273,-185.16 273,-224.8 273,-224.8 273,-224.8 760.19,-224.8 760.19,-224.8"/>
<polygon fill="black" stroke="black" points="760.19,-228.3 770.19,-224.8 760.19,-221.3 760.19,-228.3"/>
</g>
<!-- SupabaseStrategy -->
<g id="node18" class="node">
<title>SupabaseStrategy</title>
<ellipse fill="#fdb462" stroke="black" cx="104" cy="-142.8" rx="79.88" ry="18"/>
<text text-anchor="middle" x="104" y="-138.6" font-family="Times,serif" font-size="14.00">SupabaseStrategy</text>
</g>
<!-- SupabaseStrategy&#45;&gt;AuthModule -->
<g id="edge20" class="edge">
<title>SupabaseStrategy&#45;&gt;AuthModule</title>
<path fill="none" stroke="black" d="M104,-161.03C104,-186.81 104,-230.8 104,-230.8 104,-230.8 760.39,-230.8 760.39,-230.8"/>
<polygon fill="black" stroke="black" points="760.39,-234.3 770.39,-230.8 760.39,-227.3 760.39,-234.3"/>
</g>
<!-- ContributionService -->
<g id="node20" class="node">
<title>ContributionService</title>
<ellipse fill="#fdb462" stroke="black" cx="1216" cy="-66.8" rx="89.21" ry="18"/>
<text text-anchor="middle" x="1216" y="-62.6" font-family="Times,serif" font-size="14.00">ContributionService</text>
</g>
<!-- ContributionService&#45;&gt;ContributionModule -->
<g id="edge22" class="edge">
<title>ContributionService&#45;&gt;ContributionModule</title>
<path fill="none" stroke="black" d="M1137.32,-75.54C1137.32,-85.02 1137.32,-98.8 1137.32,-98.8 1137.32,-98.8 992.52,-98.8 992.52,-98.8 992.52,-98.8 992.52,-114.65 992.52,-114.65"/>
<polygon fill="black" stroke="black" points="989.02,-114.65 992.52,-124.65 996.02,-114.65 989.02,-114.65"/>
</g>
<!-- RepoService -->
<g id="node21" class="node">
<title>RepoService</title>
<ellipse fill="#fdb462" stroke="black" cx="1384" cy="-66.8" rx="60.26" ry="18"/>
<text text-anchor="middle" x="1384" y="-62.6" font-family="Times,serif" font-size="14.00">RepoService</text>
</g>
<!-- RepoService&#45;&gt;ContributionModule -->
<g id="edge23" class="edge">
<title>RepoService&#45;&gt;ContributionModule</title>
<path fill="none" stroke="black" d="M1341.27,-79.57C1341.27,-92.88 1341.27,-111.8 1341.27,-111.8 1341.27,-111.8 1004.04,-111.8 1004.04,-111.8 1004.04,-111.8 1004.04,-114.77 1004.04,-114.77"/>
<polygon fill="black" stroke="black" points="1000.54,-114.77 1004.04,-124.77 1007.54,-114.77 1000.54,-114.77"/>
</g>
<!-- RepoService&#45;&gt;RepoModule -->
<g id="edge31" class="edge">
<title>RepoService&#45;&gt;RepoModule</title>
<path fill="none" stroke="black" d="M1358.91,-83.29C1358.91,-83.29 1358.91,-114.75 1358.91,-114.75"/>
<polygon fill="black" stroke="black" points="1355.41,-114.75 1358.91,-124.75 1362.41,-114.75 1355.41,-114.75"/>
</g>
<!-- RepoService&#45;&gt;StarModule -->
<g id="edge36" class="edge">
<title>RepoService&#45;&gt;StarModule</title>
<path fill="none" stroke="black" d="M1419.66,-81.45C1419.66,-81.45 1419.66,-114.7 1419.66,-114.7"/>
<polygon fill="black" stroke="black" points="1416.16,-114.7 1419.66,-124.7 1423.16,-114.7 1416.16,-114.7"/>
</g>
<!-- RepoService&#45;&gt;StargazeModule -->
<g id="edge33" class="edge">
<title>RepoService&#45;&gt;StargazeModule</title>
<path fill="none" stroke="black" d="M1436.66,-75.8C1484.95,-75.8 1549,-75.8 1549,-75.8 1549,-75.8 1549,-114.49 1549,-114.49"/>
<polygon fill="black" stroke="black" points="1545.5,-114.49 1549,-124.49 1552.5,-114.49 1545.5,-114.49"/>
</g>
<!-- RepoService&#45;&gt;SubmitModule -->
<g id="edge41" class="edge">
<title>RepoService&#45;&gt;SubmitModule</title>
<path fill="none" stroke="black" d="M1444.51,-66.8C1528.72,-66.8 1671,-66.8 1671,-66.8 1671,-66.8 1671,-114.79 1671,-114.79"/>
<polygon fill="black" stroke="black" points="1667.5,-114.79 1671,-124.79 1674.5,-114.79 1667.5,-114.79"/>
</g>
<!-- RepoService&#45;&gt;VoteModule -->
<g id="edge48" class="edge">
<title>RepoService&#45;&gt;VoteModule</title>
<path fill="none" stroke="black" d="M1436.46,-57.8C1589.55,-57.8 2025,-57.8 2025,-57.8 2025,-57.8 2025,-114.77 2025,-114.77"/>
<polygon fill="black" stroke="black" points="2021.5,-114.77 2025,-124.77 2028.5,-114.77 2021.5,-114.77"/>
</g>
<!-- CustomerService -->
<g id="node23" class="node">
<title>CustomerService</title>
<ellipse fill="#fdb462" stroke="black" cx="2278" cy="-218.8" rx="77.59" ry="18"/>
<text text-anchor="middle" x="2278" y="-214.6" font-family="Times,serif" font-size="14.00">CustomerService</text>
</g>
<!-- CustomerService&#45;&gt;CustomerModule -->
<g id="edge25" class="edge">
<title>CustomerService&#45;&gt;CustomerModule</title>
<path fill="none" stroke="black" d="M2278,-200.65C2278,-199.5 2278,-198.8 2278,-198.8 2278,-198.8 1079.6,-198.8 1079.6,-198.8 1079.6,-198.8 1079.6,-170.83 1079.6,-170.83"/>
<polygon fill="black" stroke="black" points="1083.1,-170.83 1079.6,-160.83 1076.1,-170.83 1083.1,-170.83"/>
</g>
<!-- InsightRepoService -->
<g id="node26" class="node">
<title>InsightRepoService</title>
<ellipse fill="#fdb462" stroke="black" cx="2623" cy="-218.8" rx="87.41" ry="18"/>
<text text-anchor="middle" x="2623" y="-214.6" font-family="Times,serif" font-size="14.00">InsightRepoService</text>
</g>
<!-- InsightRepoService&#45;&gt;InsightsModule -->
<g id="edge28" class="edge">
<title>InsightRepoService&#45;&gt;InsightsModule</title>
<path fill="none" stroke="black" d="M2623,-200.61C2623,-197.26 2623,-194.8 2623,-194.8 2623,-194.8 1218,-194.8 1218,-194.8 1218,-194.8 1218,-170.99 1218,-170.99"/>
<polygon fill="black" stroke="black" points="1221.5,-170.99 1218,-160.99 1214.5,-170.99 1221.5,-170.99"/>
</g>
<!-- InsightsService -->
<g id="node27" class="node">
<title>InsightsService</title>
<ellipse fill="#fdb462" stroke="black" cx="2799" cy="-218.8" rx="70.65" ry="18"/>
<text text-anchor="middle" x="2799" y="-214.6" font-family="Times,serif" font-size="14.00">InsightsService</text>
</g>
<!-- InsightsService&#45;&gt;InsightsModule -->
<g id="edge29" class="edge">
<title>InsightsService&#45;&gt;InsightsModule</title>
<path fill="none" stroke="black" d="M2799,-200.74C2799,-196.31 2799,-192.8 2799,-192.8 2799,-192.8 1235.31,-192.8 1235.31,-192.8 1235.31,-192.8 1235.31,-170.85 1235.31,-170.85"/>
<polygon fill="black" stroke="black" points="1238.82,-170.85 1235.31,-160.85 1231.82,-170.85 1238.82,-170.85"/>
</g>
<!-- StargazeService -->
<g id="node30" class="node">
<title>StargazeService</title>
<ellipse fill="#fdb462" stroke="black" cx="3653" cy="-218.8" rx="73.47" ry="18"/>
<text text-anchor="middle" x="3653" y="-214.6" font-family="Times,serif" font-size="14.00">StargazeService</text>
</g>
<!-- StargazeService&#45;&gt;StargazeModule -->
<g id="edge34" class="edge">
<title>StargazeService&#45;&gt;StargazeModule</title>
<path fill="none" stroke="black" d="M3653,-200.67C3653,-190.09 3653,-178.8 3653,-178.8 3653,-178.8 1549,-178.8 1549,-178.8 1549,-178.8 1549,-171.22 1549,-171.22"/>
<polygon fill="black" stroke="black" points="1552.5,-171.22 1549,-161.22 1545.5,-171.22 1552.5,-171.22"/>
</g>
<!-- StarService -->
<g id="node32" class="node">
<title>StarService</title>
<ellipse fill="#fdb462" stroke="black" cx="3376" cy="-218.8" rx="55.6" ry="18"/>
<text text-anchor="middle" x="3376" y="-214.6" font-family="Times,serif" font-size="14.00">StarService</text>
</g>
<!-- StarService&#45;&gt;StarModule -->
<g id="edge37" class="edge">
<title>StarService&#45;&gt;StarModule</title>
<path fill="none" stroke="black" d="M3376,-200.48C3376,-192.01 3376,-183.8 3376,-183.8 3376,-183.8 1436,-183.8 1436,-183.8 1436,-183.8 1436,-170.9 1436,-170.9"/>
<polygon fill="black" stroke="black" points="1439.5,-170.9 1436,-160.9 1432.5,-170.9 1439.5,-170.9"/>
</g>
<!-- StripeService -->
<g id="node34" class="node">
<title>StripeService</title>
<ellipse fill="#fdb462" stroke="black" cx="617" cy="-66.8" rx="63.12" ry="18"/>
<text text-anchor="middle" x="617" y="-62.6" font-family="Times,serif" font-size="14.00">StripeService</text>
</g>
<!-- StripeService&#45;&gt;StripeModule -->
<g id="edge39" class="edge">
<title>StripeService&#45;&gt;StripeModule</title>
<path fill="none" stroke="black" d="M658.78,-80.39C658.78,-80.39 658.78,-114.76 658.78,-114.76"/>
<polygon fill="black" stroke="black" points="655.28,-114.76 658.78,-124.76 662.28,-114.76 655.28,-114.76"/>
</g>
<!-- SubmitService -->
<g id="node36" class="node">
<title>SubmitService</title>
<ellipse fill="#fdb462" stroke="black" cx="3968" cy="-218.8" rx="67.8" ry="18"/>
<text text-anchor="middle" x="3968" y="-214.6" font-family="Times,serif" font-size="14.00">SubmitService</text>
</g>
<!-- SubmitService&#45;&gt;SubmitModule -->
<g id="edge42" class="edge">
<title>SubmitService&#45;&gt;SubmitModule</title>
<path fill="none" stroke="black" d="M3968,-200.65C3968,-188.53 3968,-174.8 3968,-174.8 3968,-174.8 1671,-174.8 1671,-174.8 1671,-174.8 1671,-171.04 1671,-171.04"/>
<polygon fill="black" stroke="black" points="1674.5,-171.04 1671,-161.04 1667.5,-171.04 1674.5,-171.04"/>
</g>
<!-- UserService -->
<g id="node38" class="node">
<title>UserService</title>
<ellipse fill="#fdb462" stroke="black" cx="4260" cy="-218.8" rx="58.46" ry="18"/>
<text text-anchor="middle" x="4260" y="-214.6" font-family="Times,serif" font-size="14.00">UserService</text>
</g>
<!-- UserService&#45;&gt;UserModule -->
<g id="edge44" class="edge">
<title>UserService&#45;&gt;UserModule</title>
<path fill="none" stroke="black" d="M4260,-200.55C4260,-186.62 4260,-169.8 4260,-169.8 4260,-169.8 1773.4,-169.8 1773.4,-169.8 1773.4,-169.8 1773.4,-168.92 1773.4,-168.92"/>
<polygon fill="black" stroke="black" points="1776.9,-170.96 1773.4,-160.96 1769.9,-170.96 1776.9,-170.96"/>
</g>
<!-- UserReposService -->
<g id="node40" class="node">
<title>UserReposService</title>
<ellipse fill="#fdb462" stroke="black" cx="4552" cy="-218.8" rx="82.24" ry="18"/>
<text text-anchor="middle" x="4552" y="-214.6" font-family="Times,serif" font-size="14.00">UserReposService</text>
</g>
<!-- UserReposService&#45;&gt;UserReposModule -->
<g id="edge46" class="edge">
<title>UserReposService&#45;&gt;UserReposModule</title>
<path fill="none" stroke="black" d="M4552,-200.56C4552,-185.23 4552,-165.8 4552,-165.8 4552,-165.8 1890.9,-165.8 1890.9,-165.8 1890.9,-165.8 1890.9,-165.31 1890.9,-165.31"/>
<polygon fill="black" stroke="black" points="1894.4,-170.92 1890.9,-160.92 1887.4,-170.92 1894.4,-170.92"/>
</g>
<!-- VoteService -->
<g id="node42" class="node">
<title>VoteService</title>
<ellipse fill="#fdb462" stroke="black" cx="4879" cy="-218.8" rx="58.53" ry="18"/>
<text text-anchor="middle" x="4879" y="-214.6" font-family="Times,serif" font-size="14.00">VoteService</text>
</g>
<!-- VoteService&#45;&gt;VoteModule -->
<g id="edge49" class="edge">
<title>VoteService&#45;&gt;VoteModule</title>
<path fill="none" stroke="black" d="M4879,-200.79C4879,-178.31 4879,-142.8 4879,-142.8 4879,-142.8 2078.4,-142.8 2078.4,-142.8"/>
<polygon fill="black" stroke="black" points="2078.4,-139.3 2068.4,-142.8 2078.4,-146.3 2078.4,-139.3"/>
</g>
</g>
</svg>
