<?xml version="1.0" encoding="UTF-8" standalone="no"?>
<!DOCTYPE svg PUBLIC "-//W3C//DTD SVG 1.1//EN"
 "http://www.w3.org/Graphics/SVG/1.1/DTD/svg11.dtd">
<!-- Generated by graphviz version 3.0.0 (20220226.1711)
 -->
<!-- Title: dependencies Pages: 1 -->
<svg width="282pt" height="247pt"
 viewBox="0.00 0.00 282.00 246.80" xmlns="http://www.w3.org/2000/svg" xmlns:xlink="http://www.w3.org/1999/xlink">
<g id="graph0" class="graph" transform="scale(1 1) rotate(0) translate(4 242.8)">
<title>dependencies</title>
<polygon fill="white" stroke="transparent" points="-4,4 -4,-242.8 278,-242.8 278,4 -4,4"/>
<text text-anchor="middle" x="137" y="-8.2" font-family="sans-serif" font-size="14.00">dependencies</text>
<g id="clust1" class="cluster">
<title>cluster_StarModule</title>
<polygon fill="none" stroke="black" stroke-dasharray="1,5" points="8,-32.8 8,-230.8 266,-230.8 266,-32.8 8,-32.8"/>
</g>
<g id="clust6" class="cluster">
<title>cluster_StarModule_providers</title>
<polygon fill="none" stroke="black" points="130,-40.8 130,-92.8 258,-92.8 258,-40.8 130,-40.8"/>
</g>
<g id="clust3" class="cluster">
<title>cluster_StarModule_imports</title>
<polygon fill="none" stroke="black" points="16,-40.8 16,-92.8 122,-92.8 122,-40.8 16,-40.8"/>
</g>
<g id="clust4" class="cluster">
<title>cluster_StarModule_exports</title>
<polygon fill="none" stroke="black" points="81,-170.8 81,-222.8 181,-222.8 181,-170.8 81,-170.8"/>
</g>
<!-- RepoModule -->
<g id="node1" class="node">
<title>RepoModule</title>
<polygon fill="#8dd3c7" stroke="black" points="113.6,-84.8 110.6,-88.8 89.6,-88.8 86.6,-84.8 24.4,-84.8 24.4,-48.8 113.6,-48.8 113.6,-84.8"/>
<text text-anchor="middle" x="69" y="-62.6" font-family="Times,serif" font-size="14.00">RepoModule</text>
</g>
<!-- StarModule -->
<g id="node2" class="node">
<title>StarModule</title>
<polygon fill="#8dd3c7" stroke="black" points="172.1,-149.8 169.1,-153.8 148.1,-153.8 145.1,-149.8 89.9,-149.8 89.9,-113.8 172.1,-113.8 172.1,-149.8"/>
<text text-anchor="middle" x="131" y="-127.6" font-family="Times,serif" font-size="14.00">StarModule</text>
</g>
<!-- RepoModule&#45;&gt;StarModule -->
<g id="edge1" class="edge">
<title>RepoModule&#45;&gt;StarModule</title>
<path fill="none" stroke="black" d="M101.75,-84.91C101.75,-84.91 101.75,-103.79 101.75,-103.79"/>
<polygon fill="black" stroke="black" points="98.25,-103.79 101.75,-113.79 105.25,-103.79 98.25,-103.79"/>
</g>
<!-- StarService  -->
<g id="node3" class="node">
<title>StarService </title>
<polygon fill="#fb8072" stroke="black" points="173.03,-214.8 88.97,-214.8 88.97,-178.8 173.03,-178.8 173.03,-214.8"/>
<text text-anchor="middle" x="131" y="-192.6" font-family="Times,serif" font-size="14.00">StarService </text>
</g>
<!-- StarModule&#45;&gt;StarService  -->
<g id="edge2" class="edge">
<title>StarModule&#45;&gt;StarService </title>
<path fill="none" stroke="black" stroke-dasharray="5,2" d="M131,-149.91C131,-149.91 131,-168.79 131,-168.79"/>
<polygon fill="black" stroke="black" points="127.5,-168.79 131,-178.79 134.5,-168.79 127.5,-168.79"/>
</g>
<!-- StarService -->
<g id="node4" class="node">
<title>StarService</title>
<ellipse fill="#fdb462" stroke="black" cx="194" cy="-66.8" rx="55.6" ry="18"/>
<text text-anchor="middle" x="194" y="-62.6" font-family="Times,serif" font-size="14.00">StarService</text>
</g>
<!-- StarService&#45;&gt;StarModule -->
<g id="edge3" class="edge">
<title>StarService&#45;&gt;StarModule</title>
<path fill="none" stroke="black" d="M155.25,-79.95C155.25,-79.95 155.25,-103.49 155.25,-103.49"/>
<polygon fill="black" stroke="black" points="151.75,-103.49 155.25,-113.49 158.75,-103.49 151.75,-103.49"/>
</g>
</g>
</svg>
