<?xml version="1.0" encoding="UTF-8" standalone="no"?>
<!DOCTYPE svg PUBLIC "-//W3C//DTD SVG 1.1//EN"
 "http://www.w3.org/Graphics/SVG/1.1/DTD/svg11.dtd">
<!-- Generated by graphviz version 3.0.0 (20220226.1711)
 -->
<!-- Title: dependencies Pages: 1 -->
<svg width="282pt" height="247pt"
 viewBox="0.00 0.00 282.00 246.80" xmlns="http://www.w3.org/2000/svg" xmlns:xlink="http://www.w3.org/1999/xlink">
<g id="graph0" class="graph" transform="scale(1 1) rotate(0) translate(4 242.8)">
<title>dependencies</title>
<polygon fill="white" stroke="transparent" points="-4,4 -4,-242.8 278,-242.8 278,4 -4,4"/>
<text text-anchor="middle" x="137" y="-8.2" font-family="sans-serif" font-size="14.00">dependencies</text>
<g id="clust1" class="cluster">
<title>cluster_StarModule</title>
<polygon fill="none" stroke="black" stroke-dasharray="1,5" points="8,-32.8 8,-230.8 266,-230.8 266,-32.8 8,-32.8"/>
</g>
<g id="clust3" class="cluster">
<title>cluster_StarModule_imports</title>
<polygon fill="none" stroke="black" points="152,-40.8 152,-92.8 258,-92.8 258,-40.8 152,-40.8"/>
</g>
<g id="clust4" class="cluster">
<title>cluster_StarModule_exports</title>
<polygon fill="none" stroke="black" points="92,-170.8 92,-222.8 192,-222.8 192,-170.8 92,-170.8"/>
</g>
<g id="clust6" class="cluster">
<title>cluster_StarModule_providers</title>
<polygon fill="none" stroke="black" points="16,-40.8 16,-92.8 144,-92.8 144,-40.8 16,-40.8"/>
</g>
<!-- RepoModule -->
<g id="node1" class="node">
<title>RepoModule</title>
<polygon fill="#8dd3c7" stroke="black" points="249.6,-84.8 246.6,-88.8 225.6,-88.8 222.6,-84.8 160.4,-84.8 160.4,-48.8 249.6,-48.8 249.6,-84.8"/>
<text text-anchor="middle" x="205" y="-62.6" font-family="Times,serif" font-size="14.00">RepoModule</text>
</g>
<!-- StarModule -->
<g id="node2" class="node">
<title>StarModule</title>
<polygon fill="#8dd3c7" stroke="black" points="183.1,-149.8 180.1,-153.8 159.1,-153.8 156.1,-149.8 100.9,-149.8 100.9,-113.8 183.1,-113.8 183.1,-149.8"/>
<text text-anchor="middle" x="142" y="-127.6" font-family="Times,serif" font-size="14.00">StarModule</text>
</g>
<!-- RepoModule&#45;&gt;StarModule -->
<g id="edge1" class="edge">
<title>RepoModule&#45;&gt;StarModule</title>
<path fill="none" stroke="black" d="M171.75,-84.91C171.75,-84.91 171.75,-103.79 171.75,-103.79"/>
<polygon fill="black" stroke="black" points="168.25,-103.79 171.75,-113.79 175.25,-103.79 168.25,-103.79"/>
</g>
<!-- StarService  -->
<g id="node3" class="node">
<title>StarService </title>
<polygon fill="#fb8072" stroke="black" points="184.03,-214.8 99.97,-214.8 99.97,-178.8 184.03,-178.8 184.03,-214.8"/>
<text text-anchor="middle" x="142" y="-192.6" font-family="Times,serif" font-size="14.00">StarService </text>
</g>
<!-- StarModule&#45;&gt;StarService  -->
<g id="edge2" class="edge">
<title>StarModule&#45;&gt;StarService </title>
<path fill="none" stroke="black" stroke-dasharray="5,2" d="M142,-149.91C142,-149.91 142,-168.79 142,-168.79"/>
<polygon fill="black" stroke="black" points="138.5,-168.79 142,-178.79 145.5,-168.79 138.5,-168.79"/>
</g>
<!-- StarService -->
<g id="node4" class="node">
<title>StarService</title>
<ellipse fill="#fdb462" stroke="black" cx="80" cy="-66.8" rx="55.6" ry="18"/>
<text text-anchor="middle" x="80" y="-62.6" font-family="Times,serif" font-size="14.00">StarService</text>
</g>
<!-- StarService&#45;&gt;StarModule -->
<g id="edge3" class="edge">
<title>StarService&#45;&gt;StarModule</title>
<path fill="none" stroke="black" d="M118.25,-79.95C118.25,-79.95 118.25,-103.49 118.25,-103.49"/>
<polygon fill="black" stroke="black" points="114.75,-103.49 118.25,-113.49 121.75,-103.49 114.75,-103.49"/>
</g>
</g>
</svg>
