<?xml version="1.0" encoding="UTF-8" standalone="no"?>
<!DOCTYPE svg PUBLIC "-//W3C//DTD SVG 1.1//EN"
 "http://www.w3.org/Graphics/SVG/1.1/DTD/svg11.dtd">
<!-- Generated by graphviz version 3.0.0 (20220226.1711)
 -->
<!-- Title: dependencies Pages: 1 -->
<svg width="306pt" height="247pt"
 viewBox="0.00 0.00 306.00 246.80" xmlns="http://www.w3.org/2000/svg" xmlns:xlink="http://www.w3.org/1999/xlink">
<g id="graph0" class="graph" transform="scale(1 1) rotate(0) translate(4 242.8)">
<title>dependencies</title>
<polygon fill="white" stroke="transparent" points="-4,4 -4,-242.8 302,-242.8 302,4 -4,4"/>
<text text-anchor="middle" x="149" y="-8.2" font-family="sans-serif" font-size="14.00">dependencies</text>
<g id="clust1" class="cluster">
<title>cluster_StarModule</title>
<polygon fill="none" stroke="black" stroke-dasharray="1,5" points="8,-32.8 8,-230.8 290,-230.8 290,-32.8 8,-32.8"/>
</g>
<g id="clust4" class="cluster">
<title>cluster_StarModule_exports</title>
<polygon fill="none" stroke="black" points="97,-170.8 97,-222.8 197,-222.8 197,-170.8 97,-170.8"/>
</g>
<g id="clust6" class="cluster">
<title>cluster_StarModule_providers</title>
<polygon fill="none" stroke="black" points="16,-40.8 16,-92.8 282,-92.8 282,-40.8 16,-40.8"/>
</g>
<!-- StarService  -->
<g id="node1" class="node">
<title>StarService </title>
<polygon fill="#fb8072" stroke="black" points="189.03,-214.8 104.97,-214.8 104.97,-178.8 189.03,-178.8 189.03,-214.8"/>
<text text-anchor="middle" x="147" y="-192.6" font-family="Times,serif" font-size="14.00">StarService </text>
</g>
<!-- StarModule -->
<g id="node2" class="node">
<title>StarModule</title>
<polygon fill="#8dd3c7" stroke="black" points="188.1,-149.8 185.1,-153.8 164.1,-153.8 161.1,-149.8 105.9,-149.8 105.9,-113.8 188.1,-113.8 188.1,-149.8"/>
<text text-anchor="middle" x="147" y="-127.6" font-family="Times,serif" font-size="14.00">StarModule</text>
</g>
<!-- StarModule&#45;&gt;StarService  -->
<g id="edge1" class="edge">
<title>StarModule&#45;&gt;StarService </title>
<path fill="none" stroke="black" stroke-dasharray="5,2" d="M147,-149.91C147,-149.91 147,-168.79 147,-168.79"/>
<polygon fill="black" stroke="black" points="143.5,-168.79 147,-178.79 150.5,-168.79 143.5,-168.79"/>
</g>
<!-- RepoService -->
<g id="node3" class="node">
<title>RepoService</title>
<ellipse fill="#fdb462" stroke="black" cx="214" cy="-66.8" rx="60.26" ry="18"/>
<text text-anchor="middle" x="214" y="-62.6" font-family="Times,serif" font-size="14.00">RepoService</text>
</g>
<!-- RepoService&#45;&gt;StarModule -->
<g id="edge2" class="edge">
<title>RepoService&#45;&gt;StarModule</title>
<path fill="none" stroke="black" d="M170.84,-79.64C170.84,-79.64 170.84,-103.32 170.84,-103.32"/>
<polygon fill="black" stroke="black" points="167.34,-103.32 170.84,-113.32 174.34,-103.32 167.34,-103.32"/>
</g>
<!-- StarService -->
<g id="node4" class="node">
<title>StarService</title>
<ellipse fill="#fdb462" stroke="black" cx="80" cy="-66.8" rx="55.6" ry="18"/>
<text text-anchor="middle" x="80" y="-62.6" font-family="Times,serif" font-size="14.00">StarService</text>
</g>
<!-- StarService&#45;&gt;StarModule -->
<g id="edge3" class="edge">
<title>StarService&#45;&gt;StarModule</title>
<path fill="none" stroke="black" d="M120.75,-79.33C120.75,-79.33 120.75,-103.65 120.75,-103.65"/>
<polygon fill="black" stroke="black" points="117.25,-103.65 120.75,-113.65 124.25,-103.65 117.25,-103.65"/>
</g>
</g>
</svg>
