<?xml version="1.0" encoding="UTF-8" standalone="no"?>
<!DOCTYPE svg PUBLIC "-//W3C//DTD SVG 1.1//EN"
 "http://www.w3.org/Graphics/SVG/1.1/DTD/svg11.dtd">
<!-- Generated by graphviz version 3.0.0 (20220226.1711)
 -->
<!-- Title: dependencies Pages: 1 -->
<svg width="324pt" height="247pt"
 viewBox="0.00 0.00 324.00 246.80" xmlns="http://www.w3.org/2000/svg" xmlns:xlink="http://www.w3.org/1999/xlink">
<g id="graph0" class="graph" transform="scale(1 1) rotate(0) translate(4 242.8)">
<title>dependencies</title>
<polygon fill="white" stroke="transparent" points="-4,4 -4,-242.8 320,-242.8 320,4 -4,4"/>
<text text-anchor="middle" x="158" y="-8.2" font-family="sans-serif" font-size="14.00">dependencies</text>
<g id="clust1" class="cluster">
<title>cluster_LogModule</title>
<polygon fill="none" stroke="black" stroke-dasharray="1,5" points="8,-32.8 8,-230.8 308,-230.8 308,-32.8 8,-32.8"/>
</g>
<g id="clust6" class="cluster">
<title>cluster_LogModule_providers</title>
<polygon fill="none" stroke="black" points="16,-40.8 16,-92.8 300,-92.8 300,-40.8 16,-40.8"/>
</g>
<g id="clust4" class="cluster">
<title>cluster_LogModule_exports</title>
<polygon fill="none" stroke="black" points="91,-170.8 91,-222.8 211,-222.8 211,-170.8 91,-170.8"/>
</g>
<!-- CustomLogger  -->
<g id="node1" class="node">
<title>CustomLogger </title>
<polygon fill="#fb8072" stroke="black" points="202.99,-214.8 99.01,-214.8 99.01,-178.8 202.99,-178.8 202.99,-214.8"/>
<text text-anchor="middle" x="151" y="-192.6" font-family="Times,serif" font-size="14.00">CustomLogger </text>
</g>
<!-- LogModule -->
<g id="node2" class="node">
<title>LogModule</title>
<polygon fill="#8dd3c7" stroke="black" points="192.1,-149.8 189.1,-153.8 168.1,-153.8 165.1,-149.8 109.9,-149.8 109.9,-113.8 192.1,-113.8 192.1,-149.8"/>
<text text-anchor="middle" x="151" y="-127.6" font-family="Times,serif" font-size="14.00">LogModule</text>
</g>
<!-- LogModule&#45;&gt;CustomLogger  -->
<g id="edge1" class="edge">
<title>LogModule&#45;&gt;CustomLogger </title>
<path fill="none" stroke="black" stroke-dasharray="5,2" d="M151,-149.91C151,-149.91 151,-168.79 151,-168.79"/>
<polygon fill="black" stroke="black" points="147.5,-168.79 151,-178.79 154.5,-168.79 147.5,-168.79"/>
</g>
<!-- CustomLogger -->
<g id="node3" class="node">
<title>CustomLogger</title>
<ellipse fill="#fdb462" stroke="black" cx="223" cy="-66.8" rx="68.95" ry="18"/>
<text text-anchor="middle" x="223" y="-62.6" font-family="Times,serif" font-size="14.00">CustomLogger</text>
</g>
<!-- CustomLogger&#45;&gt;LogModule -->
<g id="edge2" class="edge">
<title>CustomLogger&#45;&gt;LogModule</title>
<path fill="none" stroke="black" d="M173.04,-79.33C173.04,-79.33 173.04,-103.65 173.04,-103.65"/>
<polygon fill="black" stroke="black" points="169.54,-103.65 173.04,-113.65 176.54,-103.65 169.54,-103.65"/>
</g>
<!-- LogService -->
<g id="node4" class="node">
<title>LogService</title>
<ellipse fill="#fdb462" stroke="black" cx="80" cy="-66.8" rx="55.6" ry="18"/>
<text text-anchor="middle" x="80" y="-62.6" font-family="Times,serif" font-size="14.00">LogService</text>
</g>
<!-- LogService&#45;&gt;LogModule -->
<g id="edge3" class="edge">
<title>LogService&#45;&gt;LogModule</title>
<path fill="none" stroke="black" d="M122.75,-78.42C122.75,-78.42 122.75,-103.65 122.75,-103.65"/>
<polygon fill="black" stroke="black" points="119.25,-103.65 122.75,-113.65 126.25,-103.65 119.25,-103.65"/>
</g>
</g>
</svg>
