<?xml version="1.0" encoding="UTF-8" standalone="no"?>
<!DOCTYPE svg PUBLIC "-//W3C//DTD SVG 1.1//EN"
 "http://www.w3.org/Graphics/SVG/1.1/DTD/svg11.dtd">
<!-- Generated by graphviz version 3.0.0 (20220226.1711)
 -->
<!-- Title: dependencies Pages: 1 -->
<svg width="2231pt" height="247pt"
 viewBox="0.00 0.00 2231.00 246.80" xmlns="http://www.w3.org/2000/svg" xmlns:xlink="http://www.w3.org/1999/xlink">
<g id="graph0" class="graph" transform="scale(1 1) rotate(0) translate(4 242.8)">
<title>dependencies</title>
<polygon fill="white" stroke="transparent" points="-4,4 -4,-242.8 2227,-242.8 2227,4 -4,4"/>
<text text-anchor="middle" x="1111.5" y="-8.2" font-family="sans-serif" font-size="14.00">dependencies</text>
<g id="clust1" class="cluster">
<title>cluster_TimescaleModule</title>
<polygon fill="none" stroke="black" stroke-dasharray="1,5" points="8,-32.8 8,-230.8 2215,-230.8 2215,-32.8 8,-32.8"/>
</g>
<g id="clust6" class="cluster">
<title>cluster_TimescaleModule_providers</title>
<polygon fill="none" stroke="black" points="255,-40.8 255,-92.8 2207,-92.8 2207,-40.8 255,-40.8"/>
</g>
<g id="clust3" class="cluster">
<title>cluster_TimescaleModule_imports</title>
<polygon fill="none" stroke="black" points="16,-40.8 16,-92.8 247,-92.8 247,-40.8 16,-40.8"/>
</g>
<g id="clust4" class="cluster">
<title>cluster_TimescaleModule_exports</title>
<polygon fill="none" stroke="black" points="173,-170.8 173,-222.8 1648,-222.8 1648,-170.8 173,-170.8"/>
</g>
<!-- RepoModule -->
<g id="node1" class="node">
<title>RepoModule</title>
<polygon fill="#8dd3c7" stroke="black" points="238.6,-84.8 235.6,-88.8 214.6,-88.8 211.6,-84.8 149.4,-84.8 149.4,-48.8 238.6,-48.8 238.6,-84.8"/>
<text text-anchor="middle" x="194" y="-62.6" font-family="Times,serif" font-size="14.00">RepoModule</text>
</g>
<!-- TimescaleModule -->
<g id="node3" class="node">
<title>TimescaleModule</title>
<polygon fill="#8dd3c7" stroke="black" points="986.58,-149.8 983.58,-153.8 962.58,-153.8 959.58,-149.8 869.42,-149.8 869.42,-113.8 986.58,-113.8 986.58,-149.8"/>
<text text-anchor="middle" x="928" y="-127.6" font-family="Times,serif" font-size="14.00">TimescaleModule</text>
</g>
<!-- RepoModule&#45;&gt;TimescaleModule -->
<g id="edge1" class="edge">
<title>RepoModule&#45;&gt;TimescaleModule</title>
<path fill="none" stroke="black" d="M210.02,-85.1C210.02,-103.07 210.02,-127.8 210.02,-127.8 210.02,-127.8 859.25,-127.8 859.25,-127.8"/>
<polygon fill="black" stroke="black" points="859.25,-131.3 869.25,-127.8 859.25,-124.3 859.25,-131.3"/>
</g>
<!-- UserListModule -->
<g id="node2" class="node">
<title>UserListModule</title>
<polygon fill="#8dd3c7" stroke="black" points="131.77,-84.8 128.77,-88.8 107.77,-88.8 104.77,-84.8 24.23,-84.8 24.23,-48.8 131.77,-48.8 131.77,-84.8"/>
<text text-anchor="middle" x="78" y="-62.6" font-family="Times,serif" font-size="14.00">UserListModule</text>
</g>
<!-- UserListModule&#45;&gt;TimescaleModule -->
<g id="edge2" class="edge">
<title>UserListModule&#45;&gt;TimescaleModule</title>
<path fill="none" stroke="black" d="M78,-84.91C78,-104.14 78,-131.8 78,-131.8 78,-131.8 859.24,-131.8 859.24,-131.8"/>
<polygon fill="black" stroke="black" points="859.24,-135.3 869.24,-131.8 859.24,-128.3 859.24,-135.3"/>
</g>
<!-- ForkGithubEventsService  -->
<g id="node4" class="node">
<title>ForkGithubEventsService </title>
<polygon fill="#fb8072" stroke="black" points="1640.42,-214.8 1475.58,-214.8 1475.58,-178.8 1640.42,-178.8 1640.42,-214.8"/>
<text text-anchor="middle" x="1558" y="-192.6" font-family="Times,serif" font-size="14.00">ForkGithubEventsService </text>
</g>
<!-- TimescaleModule&#45;&gt;ForkGithubEventsService  -->
<g id="edge3" class="edge">
<title>TimescaleModule&#45;&gt;ForkGithubEventsService </title>
<path fill="none" stroke="black" stroke-dasharray="5,2" d="M986.63,-136.8C1142.84,-136.8 1557.24,-136.8 1557.24,-136.8 1557.24,-136.8 1557.24,-168.8 1557.24,-168.8"/>
<polygon fill="black" stroke="black" points="1553.74,-168.8 1557.24,-178.8 1560.74,-168.8 1553.74,-168.8"/>
</g>
<!-- IssueCommentGithubEventsService  -->
<g id="node5" class="node">
<title>IssueCommentGithubEventsService </title>
<polygon fill="#fb8072" stroke="black" points="1457.47,-214.8 1234.53,-214.8 1234.53,-178.8 1457.47,-178.8 1457.47,-214.8"/>
<text text-anchor="middle" x="1346" y="-192.6" font-family="Times,serif" font-size="14.00">IssueCommentGithubEventsService </text>
</g>
<!-- TimescaleModule&#45;&gt;IssueCommentGithubEventsService  -->
<g id="edge4" class="edge">
<title>TimescaleModule&#45;&gt;IssueCommentGithubEventsService </title>
<path fill="none" stroke="black" stroke-dasharray="5,2" d="M986.74,-140.8C1094.94,-140.8 1314.77,-140.8 1314.77,-140.8 1314.77,-140.8 1314.77,-168.77 1314.77,-168.77"/>
<polygon fill="black" stroke="black" points="1311.27,-168.77 1314.77,-178.77 1318.27,-168.77 1311.27,-168.77"/>
</g>
<!-- IssueGithubEventsService  -->
<g id="node6" class="node">
<title>IssueGithubEventsService </title>
<polygon fill="#fb8072" stroke="black" points="1216.75,-214.8 1049.25,-214.8 1049.25,-178.8 1216.75,-178.8 1216.75,-214.8"/>
<text text-anchor="middle" x="1133" y="-192.6" font-family="Times,serif" font-size="14.00">IssueGithubEventsService </text>
</g>
<!-- TimescaleModule&#45;&gt;IssueGithubEventsService  -->
<g id="edge5" class="edge">
<title>TimescaleModule&#45;&gt;IssueGithubEventsService </title>
<path fill="none" stroke="black" stroke-dasharray="5,2" d="M986.69,-145.8C1027.03,-145.8 1073.33,-145.8 1073.33,-145.8 1073.33,-145.8 1073.33,-168.68 1073.33,-168.68"/>
<polygon fill="black" stroke="black" points="1069.83,-168.68 1073.33,-178.68 1076.83,-168.68 1069.83,-168.68"/>
</g>
<!-- PullRequestGithubEventsService  -->
<g id="node7" class="node">
<title>PullRequestGithubEventsService </title>
<polygon fill="#fb8072" stroke="black" points="1031.14,-214.8 824.86,-214.8 824.86,-178.8 1031.14,-178.8 1031.14,-214.8"/>
<text text-anchor="middle" x="928" y="-192.6" font-family="Times,serif" font-size="14.00">PullRequestGithubEventsService </text>
</g>
<!-- TimescaleModule&#45;&gt;PullRequestGithubEventsService  -->
<g id="edge6" class="edge">
<title>TimescaleModule&#45;&gt;PullRequestGithubEventsService </title>
<path fill="none" stroke="black" stroke-dasharray="5,2" d="M928,-149.91C928,-149.91 928,-168.79 928,-168.79"/>
<polygon fill="black" stroke="black" points="924.5,-168.79 928,-178.79 931.5,-168.79 924.5,-168.79"/>
</g>
<!-- PullRequestReviewGithubEventsService  -->
<g id="node8" class="node">
<title>PullRequestReviewGithubEventsService </title>
<polygon fill="#fb8072" stroke="black" points="806.41,-214.8 557.59,-214.8 557.59,-178.8 806.41,-178.8 806.41,-214.8"/>
<text text-anchor="middle" x="682" y="-192.6" font-family="Times,serif" font-size="14.00">PullRequestReviewGithubEventsService </text>
</g>
<!-- TimescaleModule&#45;&gt;PullRequestReviewGithubEventsService  -->
<g id="edge7" class="edge">
<title>TimescaleModule&#45;&gt;PullRequestReviewGithubEventsService </title>
<path fill="none" stroke="black" stroke-dasharray="5,2" d="M869.27,-145.8C828.92,-145.8 782.59,-145.8 782.59,-145.8 782.59,-145.8 782.59,-168.68 782.59,-168.68"/>
<polygon fill="black" stroke="black" points="779.09,-168.68 782.59,-178.68 786.09,-168.68 779.09,-168.68"/>
</g>
<!-- PushGithubEventsService  -->
<g id="node9" class="node">
<title>PushGithubEventsService </title>
<polygon fill="#fb8072" stroke="black" points="539.71,-214.8 374.29,-214.8 374.29,-178.8 539.71,-178.8 539.71,-214.8"/>
<text text-anchor="middle" x="457" y="-192.6" font-family="Times,serif" font-size="14.00">PushGithubEventsService </text>
</g>
<!-- TimescaleModule&#45;&gt;PushGithubEventsService  -->
<g id="edge8" class="edge">
<title>TimescaleModule&#45;&gt;PushGithubEventsService </title>
<path fill="none" stroke="black" stroke-dasharray="5,2" d="M869.05,-140.8C757.92,-140.8 528.48,-140.8 528.48,-140.8 528.48,-140.8 528.48,-168.77 528.48,-168.77"/>
<polygon fill="black" stroke="black" points="524.98,-168.77 528.48,-178.77 531.98,-168.77 524.98,-168.77"/>
</g>
<!-- WatchGithubEventsService  -->
<g id="node10" class="node">
<title>WatchGithubEventsService </title>
<polygon fill="#fb8072" stroke="black" points="356.5,-214.8 181.5,-214.8 181.5,-178.8 356.5,-178.8 356.5,-214.8"/>
<text text-anchor="middle" x="269" y="-192.6" font-family="Times,serif" font-size="14.00">WatchGithubEventsService </text>
</g>
<!-- TimescaleModule&#45;&gt;WatchGithubEventsService  -->
<g id="edge9" class="edge">
<title>TimescaleModule&#45;&gt;WatchGithubEventsService </title>
<path fill="none" stroke="black" stroke-dasharray="5,2" d="M869.26,-136.8C714.9,-136.8 309.6,-136.8 309.6,-136.8 309.6,-136.8 309.6,-168.8 309.6,-168.8"/>
<polygon fill="black" stroke="black" points="306.1,-168.8 309.6,-178.8 313.1,-168.8 306.1,-168.8"/>
</g>
<!-- ForkGithubEventsService -->
<g id="node11" class="node">
<title>ForkGithubEventsService</title>
<ellipse fill="#fdb462" stroke="black" cx="2088" cy="-66.8" rx="111.19" ry="18"/>
<text text-anchor="middle" x="2088" y="-62.6" font-family="Times,serif" font-size="14.00">ForkGithubEventsService</text>
</g>
<!-- ForkGithubEventsService&#45;&gt;TimescaleModule -->
<g id="edge10" class="edge">
<title>ForkGithubEventsService&#45;&gt;TimescaleModule</title>
<path fill="none" stroke="black" d="M2088,-84.91C2088,-104.14 2088,-131.8 2088,-131.8 2088,-131.8 996.72,-131.8 996.72,-131.8"/>
<polygon fill="black" stroke="black" points="996.72,-128.3 986.72,-131.8 996.72,-135.3 996.72,-128.3"/>
</g>
<!-- IssueCommentGithubEventsService -->
<g id="node12" class="node">
<title>IssueCommentGithubEventsService</title>
<ellipse fill="#fdb462" stroke="black" cx="1808" cy="-66.8" rx="151.08" ry="18"/>
<text text-anchor="middle" x="1808" y="-62.6" font-family="Times,serif" font-size="14.00">IssueCommentGithubEventsService</text>
</g>
<!-- IssueCommentGithubEventsService&#45;&gt;TimescaleModule -->
<g id="edge11" class="edge">
<title>IssueCommentGithubEventsService&#45;&gt;TimescaleModule</title>
<path fill="none" stroke="black" d="M1808,-85.1C1808,-103.07 1808,-127.8 1808,-127.8 1808,-127.8 996.76,-127.8 996.76,-127.8"/>
<polygon fill="black" stroke="black" points="996.76,-124.3 986.76,-127.8 996.76,-131.3 996.76,-124.3"/>
</g>
<!-- IssueGithubEventsService -->
<g id="node13" class="node">
<title>IssueGithubEventsService</title>
<ellipse fill="#fdb462" stroke="black" cx="1526" cy="-66.8" rx="112.9" ry="18"/>
<text text-anchor="middle" x="1526" y="-62.6" font-family="Times,serif" font-size="14.00">IssueGithubEventsService</text>
</g>
<!-- IssueGithubEventsService&#45;&gt;TimescaleModule -->
<g id="edge12" class="edge">
<title>IssueGithubEventsService&#45;&gt;TimescaleModule</title>
<path fill="none" stroke="black" d="M1435.14,-77.6C1435.14,-93.87 1435.14,-122.8 1435.14,-122.8 1435.14,-122.8 996.67,-122.8 996.67,-122.8"/>
<polygon fill="black" stroke="black" points="996.67,-119.3 986.67,-122.8 996.67,-126.3 996.67,-119.3"/>
</g>
<!-- PullRequestGithubEventsService -->
<g id="node14" class="node">
<title>PullRequestGithubEventsService</title>
<ellipse fill="#fdb462" stroke="black" cx="1255" cy="-66.8" rx="139.56" ry="18"/>
<text text-anchor="middle" x="1255" y="-62.6" font-family="Times,serif" font-size="14.00">PullRequestGithubEventsService</text>
</g>
<!-- PullRequestGithubEventsService&#45;&gt;TimescaleModule -->
<g id="edge13" class="edge">
<title>PullRequestGithubEventsService&#45;&gt;TimescaleModule</title>
<path fill="none" stroke="black" d="M1165.92,-80.74C1165.92,-96.14 1165.92,-118.8 1165.92,-118.8 1165.92,-118.8 996.81,-118.8 996.81,-118.8"/>
<polygon fill="black" stroke="black" points="996.81,-115.3 986.81,-118.8 996.81,-122.3 996.81,-115.3"/>
</g>
<!-- PullRequestReviewGithubEventsService -->
<g id="node15" class="node">
<title>PullRequestReviewGithubEventsService</title>
<ellipse fill="#fdb462" stroke="black" cx="928" cy="-66.8" rx="169.06" ry="18"/>
<text text-anchor="middle" x="928" y="-62.6" font-family="Times,serif" font-size="14.00">PullRequestReviewGithubEventsService</text>
</g>
<!-- PullRequestReviewGithubEventsService&#45;&gt;TimescaleModule -->
<g id="edge14" class="edge">
<title>PullRequestReviewGithubEventsService&#45;&gt;TimescaleModule</title>
<path fill="none" stroke="black" d="M928,-84.91C928,-84.91 928,-103.79 928,-103.79"/>
<polygon fill="black" stroke="black" points="924.5,-103.79 928,-113.79 931.5,-103.79 924.5,-103.79"/>
</g>
<!-- PushGithubEventsService -->
<g id="node16" class="node">
<title>PushGithubEventsService</title>
<ellipse fill="#fdb462" stroke="black" cx="629" cy="-66.8" rx="111.78" ry="18"/>
<text text-anchor="middle" x="629" y="-62.6" font-family="Times,serif" font-size="14.00">PushGithubEventsService</text>
</g>
<!-- PushGithubEventsService&#45;&gt;TimescaleModule -->
<g id="edge15" class="edge">
<title>PushGithubEventsService&#45;&gt;TimescaleModule</title>
<path fill="none" stroke="black" d="M649.22,-84.7C649.22,-99.74 649.22,-118.8 649.22,-118.8 649.22,-118.8 859.22,-118.8 859.22,-118.8"/>
<polygon fill="black" stroke="black" points="859.22,-122.3 869.22,-118.8 859.22,-115.3 859.22,-122.3"/>
</g>
<!-- WatchGithubEventsService -->
<g id="node17" class="node">
<title>WatchGithubEventsService</title>
<ellipse fill="#fdb462" stroke="black" cx="381" cy="-66.8" rx="118.1" ry="18"/>
<text text-anchor="middle" x="381" y="-62.6" font-family="Times,serif" font-size="14.00">WatchGithubEventsService</text>
</g>
<!-- WatchGithubEventsService&#45;&gt;TimescaleModule -->
<g id="edge16" class="edge">
<title>WatchGithubEventsService&#45;&gt;TimescaleModule</title>
<path fill="none" stroke="black" d="M436.72,-82.7C436.72,-99.25 436.72,-122.8 436.72,-122.8 436.72,-122.8 859.23,-122.8 859.23,-122.8"/>
<polygon fill="black" stroke="black" points="859.23,-126.3 869.23,-122.8 859.23,-119.3 859.23,-126.3"/>
</g>
</g>
</svg>
