<?xml version="1.0" encoding="UTF-8" standalone="no"?>
<!DOCTYPE svg PUBLIC "-//W3C//DTD SVG 1.1//EN"
 "http://www.w3.org/Graphics/SVG/1.1/DTD/svg11.dtd">
<!-- Generated by graphviz version 3.0.0 (20220226.1711)
 -->
<!-- Title: dependencies Pages: 1 -->
<svg width="2337pt" height="247pt"
 viewBox="0.00 0.00 2337.00 246.80" xmlns="http://www.w3.org/2000/svg" xmlns:xlink="http://www.w3.org/1999/xlink">
<g id="graph0" class="graph" transform="scale(1 1) rotate(0) translate(4 242.8)">
<title>dependencies</title>
<polygon fill="white" stroke="transparent" points="-4,4 -4,-242.8 2333,-242.8 2333,4 -4,4"/>
<text text-anchor="middle" x="1164.5" y="-8.2" font-family="sans-serif" font-size="14.00">dependencies</text>
<g id="clust1" class="cluster">
<title>cluster_TimescaleModule</title>
<polygon fill="none" stroke="black" stroke-dasharray="1,5" points="8,-32.8 8,-230.8 2321,-230.8 2321,-32.8 8,-32.8"/>
</g>
<g id="clust3" class="cluster">
<title>cluster_TimescaleModule_imports</title>
<polygon fill="none" stroke="black" points="2189,-40.8 2189,-92.8 2313,-92.8 2313,-40.8 2189,-40.8"/>
</g>
<g id="clust6" class="cluster">
<title>cluster_TimescaleModule_providers</title>
<polygon fill="none" stroke="black" points="16,-40.8 16,-92.8 2181,-92.8 2181,-40.8 16,-40.8"/>
</g>
<g id="clust4" class="cluster">
<title>cluster_TimescaleModule_exports</title>
<polygon fill="none" stroke="black" points="433,-170.8 433,-222.8 2070,-222.8 2070,-170.8 433,-170.8"/>
</g>
<!-- UserListModule -->
<g id="node1" class="node">
<title>UserListModule</title>
<polygon fill="#8dd3c7" stroke="black" points="2304.77,-84.8 2301.77,-88.8 2280.77,-88.8 2277.77,-84.8 2197.23,-84.8 2197.23,-48.8 2304.77,-48.8 2304.77,-84.8"/>
<text text-anchor="middle" x="2251" y="-62.6" font-family="Times,serif" font-size="14.00">UserListModule</text>
</g>
<!-- TimescaleModule -->
<g id="node2" class="node">
<title>TimescaleModule</title>
<polygon fill="#8dd3c7" stroke="black" points="1280.58,-149.8 1277.58,-153.8 1256.58,-153.8 1253.58,-149.8 1163.42,-149.8 1163.42,-113.8 1280.58,-113.8 1280.58,-149.8"/>
<text text-anchor="middle" x="1222" y="-127.6" font-family="Times,serif" font-size="14.00">TimescaleModule</text>
</g>
<!-- UserListModule&#45;&gt;TimescaleModule -->
<g id="edge1" class="edge">
<title>UserListModule&#45;&gt;TimescaleModule</title>
<path fill="none" stroke="black" d="M2251,-84.91C2251,-104.14 2251,-131.8 2251,-131.8 2251,-131.8 1290.65,-131.8 1290.65,-131.8"/>
<polygon fill="black" stroke="black" points="1290.65,-128.3 1280.65,-131.8 1290.65,-135.3 1290.65,-128.3"/>
</g>
<!-- ForkGithubEventsService  -->
<g id="node3" class="node">
<title>ForkGithubEventsService </title>
<polygon fill="#fb8072" stroke="black" points="2062.42,-214.8 1897.58,-214.8 1897.58,-178.8 2062.42,-178.8 2062.42,-214.8"/>
<text text-anchor="middle" x="1980" y="-192.6" font-family="Times,serif" font-size="14.00">ForkGithubEventsService </text>
</g>
<!-- TimescaleModule&#45;&gt;ForkGithubEventsService  -->
<g id="edge2" class="edge">
<title>TimescaleModule&#45;&gt;ForkGithubEventsService </title>
<path fill="none" stroke="black" stroke-dasharray="5,2" d="M1280.81,-136.8C1448.21,-136.8 1915.29,-136.8 1915.29,-136.8 1915.29,-136.8 1915.29,-168.8 1915.29,-168.8"/>
<polygon fill="black" stroke="black" points="1911.79,-168.8 1915.29,-178.8 1918.79,-168.8 1911.79,-168.8"/>
</g>
<!-- IssueCommentGithubEventsService  -->
<g id="node4" class="node">
<title>IssueCommentGithubEventsService </title>
<polygon fill="#fb8072" stroke="black" points="1879.47,-214.8 1656.53,-214.8 1656.53,-178.8 1879.47,-178.8 1879.47,-214.8"/>
<text text-anchor="middle" x="1768" y="-192.6" font-family="Times,serif" font-size="14.00">IssueCommentGithubEventsService </text>
</g>
<!-- TimescaleModule&#45;&gt;IssueCommentGithubEventsService  -->
<g id="edge3" class="edge">
<title>TimescaleModule&#45;&gt;IssueCommentGithubEventsService </title>
<path fill="none" stroke="black" stroke-dasharray="5,2" d="M1280.69,-140.8C1421.71,-140.8 1768,-140.8 1768,-140.8 1768,-140.8 1768,-168.77 1768,-168.77"/>
<polygon fill="black" stroke="black" points="1764.5,-168.77 1768,-178.77 1771.5,-168.77 1764.5,-168.77"/>
</g>
<!-- IssuesGithubEventsService  -->
<g id="node5" class="node">
<title>IssuesGithubEventsService </title>
<polygon fill="#fb8072" stroke="black" points="1638.19,-214.8 1465.81,-214.8 1465.81,-178.8 1638.19,-178.8 1638.19,-214.8"/>
<text text-anchor="middle" x="1552" y="-192.6" font-family="Times,serif" font-size="14.00">IssuesGithubEventsService </text>
</g>
<!-- TimescaleModule&#45;&gt;IssuesGithubEventsService  -->
<g id="edge4" class="edge">
<title>TimescaleModule&#45;&gt;IssuesGithubEventsService </title>
<path fill="none" stroke="black" stroke-dasharray="5,2" d="M1280.55,-145.8C1372.19,-145.8 1539.18,-145.8 1539.18,-145.8 1539.18,-145.8 1539.18,-168.68 1539.18,-168.68"/>
<polygon fill="black" stroke="black" points="1535.68,-168.68 1539.18,-178.68 1542.68,-168.68 1535.68,-168.68"/>
</g>
<!-- PullRequestGithubEventsService  -->
<g id="node6" class="node">
<title>PullRequestGithubEventsService </title>
<polygon fill="#fb8072" stroke="black" points="1448.14,-214.8 1241.86,-214.8 1241.86,-178.8 1448.14,-178.8 1448.14,-214.8"/>
<text text-anchor="middle" x="1345" y="-192.6" font-family="Times,serif" font-size="14.00">PullRequestGithubEventsService </text>
</g>
<!-- TimescaleModule&#45;&gt;PullRequestGithubEventsService  -->
<g id="edge5" class="edge">
<title>TimescaleModule&#45;&gt;PullRequestGithubEventsService </title>
<path fill="none" stroke="black" stroke-dasharray="5,2" d="M1261.23,-149.91C1261.23,-149.91 1261.23,-168.79 1261.23,-168.79"/>
<polygon fill="black" stroke="black" points="1257.73,-168.79 1261.23,-178.79 1264.73,-168.79 1257.73,-168.79"/>
</g>
<!-- PullRequestReviewGithubEventsService  -->
<g id="node7" class="node">
<title>PullRequestReviewGithubEventsService </title>
<polygon fill="#fb8072" stroke="black" points="1223.41,-214.8 974.59,-214.8 974.59,-178.8 1223.41,-178.8 1223.41,-214.8"/>
<text text-anchor="middle" x="1099" y="-192.6" font-family="Times,serif" font-size="14.00">PullRequestReviewGithubEventsService </text>
</g>
<!-- TimescaleModule&#45;&gt;PullRequestReviewGithubEventsService  -->
<g id="edge6" class="edge">
<title>TimescaleModule&#45;&gt;PullRequestReviewGithubEventsService </title>
<path fill="none" stroke="black" stroke-dasharray="5,2" d="M1193.46,-149.91C1193.46,-149.91 1193.46,-168.79 1193.46,-168.79"/>
<polygon fill="black" stroke="black" points="1189.96,-168.79 1193.46,-178.79 1196.96,-168.79 1189.96,-168.79"/>
</g>
<!-- PushGithubEventsService  -->
<g id="node8" class="node">
<title>PushGithubEventsService </title>
<polygon fill="#fb8072" stroke="black" points="956.71,-214.8 791.29,-214.8 791.29,-178.8 956.71,-178.8 956.71,-214.8"/>
<text text-anchor="middle" x="874" y="-192.6" font-family="Times,serif" font-size="14.00">PushGithubEventsService </text>
</g>
<!-- TimescaleModule&#45;&gt;PushGithubEventsService  -->
<g id="edge7" class="edge">
<title>TimescaleModule&#45;&gt;PushGithubEventsService </title>
<path fill="none" stroke="black" stroke-dasharray="5,2" d="M1163.36,-145.8C1064.18,-145.8 874,-145.8 874,-145.8 874,-145.8 874,-168.68 874,-168.68"/>
<polygon fill="black" stroke="black" points="870.5,-168.68 874,-178.68 877.5,-168.68 870.5,-168.68"/>
</g>
<!-- RepoDevstatsService  -->
<g id="node9" class="node">
<title>RepoDevstatsService </title>
<polygon fill="#fb8072" stroke="black" points="773.75,-214.8 634.25,-214.8 634.25,-178.8 773.75,-178.8 773.75,-214.8"/>
<text text-anchor="middle" x="704" y="-192.6" font-family="Times,serif" font-size="14.00">RepoDevstatsService </text>
</g>
<!-- TimescaleModule&#45;&gt;RepoDevstatsService  -->
<g id="edge8" class="edge">
<title>TimescaleModule&#45;&gt;RepoDevstatsService </title>
<path fill="none" stroke="black" stroke-dasharray="5,2" d="M1163.13,-140.8C1036.52,-140.8 749.67,-140.8 749.67,-140.8 749.67,-140.8 749.67,-168.77 749.67,-168.77"/>
<polygon fill="black" stroke="black" points="746.17,-168.77 749.67,-178.77 753.17,-168.77 746.17,-168.77"/>
</g>
<!-- WatchGithubEventsService  -->
<g id="node10" class="node">
<title>WatchGithubEventsService </title>
<polygon fill="#fb8072" stroke="black" points="616.5,-214.8 441.5,-214.8 441.5,-178.8 616.5,-178.8 616.5,-214.8"/>
<text text-anchor="middle" x="529" y="-192.6" font-family="Times,serif" font-size="14.00">WatchGithubEventsService </text>
</g>
<!-- TimescaleModule&#45;&gt;WatchGithubEventsService  -->
<g id="edge9" class="edge">
<title>TimescaleModule&#45;&gt;WatchGithubEventsService </title>
<path fill="none" stroke="black" stroke-dasharray="5,2" d="M1163.27,-136.8C999.61,-136.8 550.31,-136.8 550.31,-136.8 550.31,-136.8 550.31,-168.8 550.31,-168.8"/>
<polygon fill="black" stroke="black" points="546.81,-168.8 550.31,-178.8 553.81,-168.8 546.81,-168.8"/>
</g>
<!-- ForkGithubEventsService -->
<g id="node11" class="node">
<title>ForkGithubEventsService</title>
<ellipse fill="#fdb462" stroke="black" cx="2062" cy="-66.8" rx="111.19" ry="18"/>
<text text-anchor="middle" x="2062" y="-62.6" font-family="Times,serif" font-size="14.00">ForkGithubEventsService</text>
</g>
<!-- ForkGithubEventsService&#45;&gt;TimescaleModule -->
<g id="edge10" class="edge">
<title>ForkGithubEventsService&#45;&gt;TimescaleModule</title>
<path fill="none" stroke="black" d="M2006.56,-82.51C2006.56,-100.58 2006.56,-127.8 2006.56,-127.8 2006.56,-127.8 1290.65,-127.8 1290.65,-127.8"/>
<polygon fill="black" stroke="black" points="1290.65,-124.3 1280.65,-127.8 1290.65,-131.3 1290.65,-124.3"/>
</g>
<!-- IssueCommentGithubEventsService -->
<g id="node12" class="node">
<title>IssueCommentGithubEventsService</title>
<ellipse fill="#fdb462" stroke="black" cx="1782" cy="-66.8" rx="151.08" ry="18"/>
<text text-anchor="middle" x="1782" y="-62.6" font-family="Times,serif" font-size="14.00">IssueCommentGithubEventsService</text>
</g>
<!-- IssueCommentGithubEventsService&#45;&gt;TimescaleModule -->
<g id="edge11" class="edge">
<title>IssueCommentGithubEventsService&#45;&gt;TimescaleModule</title>
<path fill="none" stroke="black" d="M1634.65,-70.83C1634.65,-83.67 1634.65,-122.8 1634.65,-122.8 1634.65,-122.8 1290.69,-122.8 1290.69,-122.8"/>
<polygon fill="black" stroke="black" points="1290.69,-119.3 1280.69,-122.8 1290.68,-126.3 1290.69,-119.3"/>
</g>
<!-- IssuesGithubEventsService -->
<g id="node13" class="node">
<title>IssuesGithubEventsService</title>
<ellipse fill="#fdb462" stroke="black" cx="1496" cy="-66.8" rx="116.91" ry="18"/>
<text text-anchor="middle" x="1496" y="-62.6" font-family="Times,serif" font-size="14.00">IssuesGithubEventsService</text>
</g>
<!-- IssuesGithubEventsService&#45;&gt;TimescaleModule -->
<g id="edge12" class="edge">
<title>IssuesGithubEventsService&#45;&gt;TimescaleModule</title>
<path fill="none" stroke="black" d="M1413.68,-79.65C1413.68,-95.05 1413.68,-118.8 1413.68,-118.8 1413.68,-118.8 1290.55,-118.8 1290.55,-118.8"/>
<polygon fill="black" stroke="black" points="1290.55,-115.3 1280.55,-118.8 1290.55,-122.3 1290.55,-115.3"/>
</g>
<!-- PullRequestGithubEventsService -->
<g id="node14" class="node">
<title>PullRequestGithubEventsService</title>
<ellipse fill="#fdb462" stroke="black" cx="1222" cy="-66.8" rx="139.56" ry="18"/>
<text text-anchor="middle" x="1222" y="-62.6" font-family="Times,serif" font-size="14.00">PullRequestGithubEventsService</text>
</g>
<!-- PullRequestGithubEventsService&#45;&gt;TimescaleModule -->
<g id="edge13" class="edge">
<title>PullRequestGithubEventsService&#45;&gt;TimescaleModule</title>
<path fill="none" stroke="black" d="M1222,-84.91C1222,-84.91 1222,-103.79 1222,-103.79"/>
<polygon fill="black" stroke="black" points="1218.5,-103.79 1222,-113.79 1225.5,-103.79 1218.5,-103.79"/>
</g>
<!-- PullRequestReviewGithubEventsService -->
<g id="node15" class="node">
<title>PullRequestReviewGithubEventsService</title>
<ellipse fill="#fdb462" stroke="black" cx="895" cy="-66.8" rx="169.06" ry="18"/>
<text text-anchor="middle" x="895" y="-62.6" font-family="Times,serif" font-size="14.00">PullRequestReviewGithubEventsService</text>
</g>
<!-- PullRequestReviewGithubEventsService&#45;&gt;TimescaleModule -->
<g id="edge14" class="edge">
<title>PullRequestReviewGithubEventsService&#45;&gt;TimescaleModule</title>
<path fill="none" stroke="black" d="M1019.41,-79.12C1019.41,-94.5 1019.41,-118.8 1019.41,-118.8 1019.41,-118.8 1153.4,-118.8 1153.4,-118.8"/>
<polygon fill="black" stroke="black" points="1153.4,-122.3 1163.4,-118.8 1153.4,-115.3 1153.4,-122.3"/>
</g>
<!-- PushGithubEventsService -->
<g id="node16" class="node">
<title>PushGithubEventsService</title>
<ellipse fill="#fdb462" stroke="black" cx="596" cy="-66.8" rx="111.78" ry="18"/>
<text text-anchor="middle" x="596" y="-62.6" font-family="Times,serif" font-size="14.00">PushGithubEventsService</text>
</g>
<!-- PushGithubEventsService&#45;&gt;TimescaleModule -->
<g id="edge15" class="edge">
<title>PushGithubEventsService&#45;&gt;TimescaleModule</title>
<path fill="none" stroke="black" d="M671.13,-80.36C671.13,-96.93 671.13,-122.8 671.13,-122.8 671.13,-122.8 1153.31,-122.8 1153.31,-122.8"/>
<polygon fill="black" stroke="black" points="1153.31,-126.3 1163.31,-122.8 1153.31,-119.3 1153.31,-126.3"/>
</g>
<!-- RepoDevstatsService -->
<g id="node17" class="node">
<title>RepoDevstatsService</title>
<ellipse fill="#fdb462" stroke="black" cx="372" cy="-66.8" rx="93.77" ry="18"/>
<text text-anchor="middle" x="372" y="-62.6" font-family="Times,serif" font-size="14.00">RepoDevstatsService</text>
</g>
<!-- RepoDevstatsService&#45;&gt;TimescaleModule -->
<g id="edge16" class="edge">
<title>RepoDevstatsService&#45;&gt;TimescaleModule</title>
<path fill="none" stroke="black" d="M453.57,-75.8C453.57,-92.77 453.57,-127.8 453.57,-127.8 453.57,-127.8 1153.3,-127.8 1153.3,-127.8"/>
<polygon fill="black" stroke="black" points="1153.3,-131.3 1163.3,-127.8 1153.3,-124.3 1153.3,-131.3"/>
</g>
<!-- WatchGithubEventsService -->
<g id="node18" class="node">
<title>WatchGithubEventsService</title>
<ellipse fill="#fdb462" stroke="black" cx="142" cy="-66.8" rx="118.1" ry="18"/>
<text text-anchor="middle" x="142" y="-62.6" font-family="Times,serif" font-size="14.00">WatchGithubEventsService</text>
</g>
<!-- WatchGithubEventsService&#45;&gt;TimescaleModule -->
<g id="edge17" class="edge">
<title>WatchGithubEventsService&#45;&gt;TimescaleModule</title>
<path fill="none" stroke="black" d="M142,-84.91C142,-104.14 142,-131.8 142,-131.8 142,-131.8 1153.17,-131.8 1153.17,-131.8"/>
<polygon fill="black" stroke="black" points="1153.17,-135.3 1163.17,-131.8 1153.17,-128.3 1153.17,-135.3"/>
</g>
</g>
</svg>
