<?xml version="1.0" encoding="UTF-8" standalone="no"?>
<!DOCTYPE svg PUBLIC "-//W3C//DTD SVG 1.1//EN"
 "http://www.w3.org/Graphics/SVG/1.1/DTD/svg11.dtd">
<!-- Generated by graphviz version 3.0.0 (20220226.1711)
 -->
<!-- Title: dependencies Pages: 1 -->
<svg width="2205pt" height="247pt"
 viewBox="0.00 0.00 2205.00 246.80" xmlns="http://www.w3.org/2000/svg" xmlns:xlink="http://www.w3.org/1999/xlink">
<g id="graph0" class="graph" transform="scale(1 1) rotate(0) translate(4 242.8)">
<title>dependencies</title>
<polygon fill="white" stroke="transparent" points="-4,4 -4,-242.8 2201,-242.8 2201,4 -4,4"/>
<text text-anchor="middle" x="1098.5" y="-8.2" font-family="sans-serif" font-size="14.00">dependencies</text>
<g id="clust1" class="cluster">
<title>cluster_TimescaleModule</title>
<polygon fill="none" stroke="black" stroke-dasharray="1,5" points="8,-32.8 8,-230.8 2189,-230.8 2189,-32.8 8,-32.8"/>
</g>
<g id="clust4" class="cluster">
<title>cluster_TimescaleModule_exports</title>
<polygon fill="none" stroke="black" points="263,-170.8 263,-222.8 1900,-222.8 1900,-170.8 263,-170.8"/>
</g>
<g id="clust6" class="cluster">
<title>cluster_TimescaleModule_providers</title>
<polygon fill="none" stroke="black" points="16,-40.8 16,-92.8 2181,-92.8 2181,-40.8 16,-40.8"/>
</g>
<!-- ForkGithubEventsService  -->
<g id="node1" class="node">
<title>ForkGithubEventsService </title>
<polygon fill="#fb8072" stroke="black" points="1892.42,-214.8 1727.58,-214.8 1727.58,-178.8 1892.42,-178.8 1892.42,-214.8"/>
<text text-anchor="middle" x="1810" y="-192.6" font-family="Times,serif" font-size="14.00">ForkGithubEventsService </text>
</g>
<!-- IssueCommentGithubEventsService  -->
<g id="node2" class="node">
<title>IssueCommentGithubEventsService </title>
<polygon fill="#fb8072" stroke="black" points="1709.47,-214.8 1486.53,-214.8 1486.53,-178.8 1709.47,-178.8 1709.47,-214.8"/>
<text text-anchor="middle" x="1598" y="-192.6" font-family="Times,serif" font-size="14.00">IssueCommentGithubEventsService </text>
</g>
<!-- IssuesGithubEventsService  -->
<g id="node3" class="node">
<title>IssuesGithubEventsService </title>
<polygon fill="#fb8072" stroke="black" points="1468.19,-214.8 1295.81,-214.8 1295.81,-178.8 1468.19,-178.8 1468.19,-214.8"/>
<text text-anchor="middle" x="1382" y="-192.6" font-family="Times,serif" font-size="14.00">IssuesGithubEventsService </text>
</g>
<!-- PullRequestGithubEventsService  -->
<g id="node4" class="node">
<title>PullRequestGithubEventsService </title>
<polygon fill="#fb8072" stroke="black" points="1278.14,-214.8 1071.86,-214.8 1071.86,-178.8 1278.14,-178.8 1278.14,-214.8"/>
<text text-anchor="middle" x="1175" y="-192.6" font-family="Times,serif" font-size="14.00">PullRequestGithubEventsService </text>
</g>
<!-- PullRequestReviewGithubEventsService  -->
<g id="node5" class="node">
<title>PullRequestReviewGithubEventsService </title>
<polygon fill="#fb8072" stroke="black" points="1053.41,-214.8 804.59,-214.8 804.59,-178.8 1053.41,-178.8 1053.41,-214.8"/>
<text text-anchor="middle" x="929" y="-192.6" font-family="Times,serif" font-size="14.00">PullRequestReviewGithubEventsService </text>
</g>
<!-- PushGithubEventsService  -->
<g id="node6" class="node">
<title>PushGithubEventsService </title>
<polygon fill="#fb8072" stroke="black" points="786.71,-214.8 621.29,-214.8 621.29,-178.8 786.71,-178.8 786.71,-214.8"/>
<text text-anchor="middle" x="704" y="-192.6" font-family="Times,serif" font-size="14.00">PushGithubEventsService </text>
</g>
<!-- RepoDevstatsService  -->
<g id="node7" class="node">
<title>RepoDevstatsService </title>
<polygon fill="#fb8072" stroke="black" points="603.75,-214.8 464.25,-214.8 464.25,-178.8 603.75,-178.8 603.75,-214.8"/>
<text text-anchor="middle" x="534" y="-192.6" font-family="Times,serif" font-size="14.00">RepoDevstatsService </text>
</g>
<!-- WatchGithubEventsService  -->
<g id="node8" class="node">
<title>WatchGithubEventsService </title>
<polygon fill="#fb8072" stroke="black" points="446.5,-214.8 271.5,-214.8 271.5,-178.8 446.5,-178.8 446.5,-214.8"/>
<text text-anchor="middle" x="359" y="-192.6" font-family="Times,serif" font-size="14.00">WatchGithubEventsService </text>
</g>
<!-- TimescaleModule -->
<g id="node9" class="node">
<title>TimescaleModule</title>
<polygon fill="#8dd3c7" stroke="black" points="1110.58,-149.8 1107.58,-153.8 1086.58,-153.8 1083.58,-149.8 993.42,-149.8 993.42,-113.8 1110.58,-113.8 1110.58,-149.8"/>
<text text-anchor="middle" x="1052" y="-127.6" font-family="Times,serif" font-size="14.00">TimescaleModule</text>
</g>
<!-- TimescaleModule&#45;&gt;ForkGithubEventsService  -->
<g id="edge1" class="edge">
<title>TimescaleModule&#45;&gt;ForkGithubEventsService </title>
<path fill="none" stroke="black" stroke-dasharray="5,2" d="M1110.85,-134.8C1288.94,-134.8 1810,-134.8 1810,-134.8 1810,-134.8 1810,-168.53 1810,-168.53"/>
<polygon fill="black" stroke="black" points="1806.5,-168.53 1810,-178.53 1813.5,-168.53 1806.5,-168.53"/>
</g>
<!-- TimescaleModule&#45;&gt;IssueCommentGithubEventsService  -->
<g id="edge2" class="edge">
<title>TimescaleModule&#45;&gt;IssueCommentGithubEventsService </title>
<path fill="none" stroke="black" stroke-dasharray="5,2" d="M1110.56,-139.8C1242.13,-139.8 1549.74,-139.8 1549.74,-139.8 1549.74,-139.8 1549.74,-168.76 1549.74,-168.76"/>
<polygon fill="black" stroke="black" points="1546.24,-168.76 1549.74,-178.76 1553.24,-168.76 1546.24,-168.76"/>
</g>
<!-- TimescaleModule&#45;&gt;IssuesGithubEventsService  -->
<g id="edge3" class="edge">
<title>TimescaleModule&#45;&gt;IssuesGithubEventsService </title>
<path fill="none" stroke="black" stroke-dasharray="5,2" d="M1110.68,-144.8C1191.91,-144.8 1328.72,-144.8 1328.72,-144.8 1328.72,-144.8 1328.72,-168.61 1328.72,-168.61"/>
<polygon fill="black" stroke="black" points="1325.22,-168.61 1328.72,-178.61 1332.22,-168.61 1325.22,-168.61"/>
</g>
<!-- TimescaleModule&#45;&gt;PullRequestGithubEventsService  -->
<g id="edge4" class="edge">
<title>TimescaleModule&#45;&gt;PullRequestGithubEventsService </title>
<path fill="none" stroke="black" stroke-dasharray="5,2" d="M1091.23,-149.91C1091.23,-149.91 1091.23,-168.79 1091.23,-168.79"/>
<polygon fill="black" stroke="black" points="1087.73,-168.79 1091.23,-178.79 1094.73,-168.79 1087.73,-168.79"/>
</g>
<!-- TimescaleModule&#45;&gt;PullRequestReviewGithubEventsService  -->
<g id="edge5" class="edge">
<title>TimescaleModule&#45;&gt;PullRequestReviewGithubEventsService </title>
<path fill="none" stroke="black" stroke-dasharray="5,2" d="M1023.46,-149.91C1023.46,-149.91 1023.46,-168.79 1023.46,-168.79"/>
<polygon fill="black" stroke="black" points="1019.96,-168.79 1023.46,-178.79 1026.96,-168.79 1019.96,-168.79"/>
</g>
<!-- TimescaleModule&#45;&gt;PushGithubEventsService  -->
<g id="edge6" class="edge">
<title>TimescaleModule&#45;&gt;PushGithubEventsService </title>
<path fill="none" stroke="black" stroke-dasharray="5,2" d="M993.22,-144.8C906.98,-144.8 756.29,-144.8 756.29,-144.8 756.29,-144.8 756.29,-168.61 756.29,-168.61"/>
<polygon fill="black" stroke="black" points="752.79,-168.61 756.29,-178.61 759.79,-168.61 752.79,-168.61"/>
</g>
<!-- TimescaleModule&#45;&gt;RepoDevstatsService  -->
<g id="edge7" class="edge">
<title>TimescaleModule&#45;&gt;RepoDevstatsService </title>
<path fill="none" stroke="black" stroke-dasharray="5,2" d="M993.21,-139.8C859.46,-139.8 543.87,-139.8 543.87,-139.8 543.87,-139.8 543.87,-168.76 543.87,-168.76"/>
<polygon fill="black" stroke="black" points="540.37,-168.76 543.87,-178.76 547.37,-168.76 540.37,-168.76"/>
</g>
<!-- TimescaleModule&#45;&gt;WatchGithubEventsService  -->
<g id="edge8" class="edge">
<title>TimescaleModule&#45;&gt;WatchGithubEventsService </title>
<path fill="none" stroke="black" stroke-dasharray="5,2" d="M993.21,-134.8C826.45,-134.8 362.43,-134.8 362.43,-134.8 362.43,-134.8 362.43,-168.53 362.43,-168.53"/>
<polygon fill="black" stroke="black" points="358.93,-168.53 362.43,-178.53 365.93,-168.53 358.93,-168.53"/>
</g>
<!-- ForkGithubEventsService -->
<g id="node10" class="node">
<title>ForkGithubEventsService</title>
<ellipse fill="#fdb462" stroke="black" cx="2062" cy="-66.8" rx="111.19" ry="18"/>
<text text-anchor="middle" x="2062" y="-62.6" font-family="Times,serif" font-size="14.00">ForkGithubEventsService</text>
</g>
<!-- ForkGithubEventsService&#45;&gt;TimescaleModule -->
<g id="edge9" class="edge">
<title>ForkGithubEventsService&#45;&gt;TimescaleModule</title>
<path fill="none" stroke="black" d="M2062,-85.02C2062,-103.63 2062,-129.8 2062,-129.8 2062,-129.8 1120.67,-129.8 1120.67,-129.8"/>
<polygon fill="black" stroke="black" points="1120.67,-126.3 1110.67,-129.8 1120.67,-133.3 1120.67,-126.3"/>
</g>
<!-- IssueCommentGithubEventsService -->
<g id="node11" class="node">
<title>IssueCommentGithubEventsService</title>
<ellipse fill="#fdb462" stroke="black" cx="1782" cy="-66.8" rx="151.08" ry="18"/>
<text text-anchor="middle" x="1782" y="-62.6" font-family="Times,serif" font-size="14.00">IssueCommentGithubEventsService</text>
</g>
<!-- IssueCommentGithubEventsService&#45;&gt;TimescaleModule -->
<g id="edge10" class="edge">
<title>IssueCommentGithubEventsService&#45;&gt;TimescaleModule</title>
<path fill="none" stroke="black" d="M1670.1,-79.1C1670.1,-96.13 1670.1,-124.8 1670.1,-124.8 1670.1,-124.8 1120.71,-124.8 1120.71,-124.8"/>
<polygon fill="black" stroke="black" points="1120.71,-121.3 1110.71,-124.8 1120.71,-128.3 1120.71,-121.3"/>
</g>
<!-- IssuesGithubEventsService -->
<g id="node12" class="node">
<title>IssuesGithubEventsService</title>
<ellipse fill="#fdb462" stroke="black" cx="1496" cy="-66.8" rx="116.91" ry="18"/>
<text text-anchor="middle" x="1496" y="-62.6" font-family="Times,serif" font-size="14.00">IssuesGithubEventsService</text>
</g>
<!-- IssuesGithubEventsService&#45;&gt;TimescaleModule -->
<g id="edge11" class="edge">
<title>IssuesGithubEventsService&#45;&gt;TimescaleModule</title>
<path fill="none" stroke="black" d="M1423.82,-81C1423.82,-96.7 1423.82,-119.8 1423.82,-119.8 1423.82,-119.8 1120.92,-119.8 1120.92,-119.8"/>
<polygon fill="black" stroke="black" points="1120.92,-116.3 1110.92,-119.8 1120.92,-123.3 1120.92,-116.3"/>
</g>
<!-- PullRequestGithubEventsService -->
<g id="node13" class="node">
<title>PullRequestGithubEventsService</title>
<ellipse fill="#fdb462" stroke="black" cx="1222" cy="-66.8" rx="139.56" ry="18"/>
<text text-anchor="middle" x="1222" y="-62.6" font-family="Times,serif" font-size="14.00">PullRequestGithubEventsService</text>
</g>
<!-- PullRequestGithubEventsService&#45;&gt;TimescaleModule -->
<g id="edge12" class="edge">
<title>PullRequestGithubEventsService&#45;&gt;TimescaleModule</title>
<path fill="none" stroke="black" d="M1096.38,-74.77C1096.38,-74.77 1096.38,-103.67 1096.38,-103.67"/>
<polygon fill="black" stroke="black" points="1092.88,-103.67 1096.38,-113.67 1099.88,-103.67 1092.88,-103.67"/>
</g>
<!-- PullRequestReviewGithubEventsService -->
<g id="node14" class="node">
<title>PullRequestReviewGithubEventsService</title>
<ellipse fill="#fdb462" stroke="black" cx="895" cy="-66.8" rx="169.06" ry="18"/>
<text text-anchor="middle" x="895" y="-62.6" font-family="Times,serif" font-size="14.00">PullRequestReviewGithubEventsService</text>
</g>
<!-- PullRequestReviewGithubEventsService&#45;&gt;TimescaleModule -->
<g id="edge13" class="edge">
<title>PullRequestReviewGithubEventsService&#45;&gt;TimescaleModule</title>
<path fill="none" stroke="black" d="M1028.87,-77.83C1028.87,-77.83 1028.87,-103.58 1028.87,-103.58"/>
<polygon fill="black" stroke="black" points="1025.37,-103.58 1028.87,-113.58 1032.37,-103.58 1025.37,-103.58"/>
</g>
<!-- PushGithubEventsService -->
<g id="node15" class="node">
<title>PushGithubEventsService</title>
<ellipse fill="#fdb462" stroke="black" cx="596" cy="-66.8" rx="111.78" ry="18"/>
<text text-anchor="middle" x="596" y="-62.6" font-family="Times,serif" font-size="14.00">PushGithubEventsService</text>
</g>
<!-- PushGithubEventsService&#45;&gt;TimescaleModule -->
<g id="edge14" class="edge">
<title>PushGithubEventsService&#45;&gt;TimescaleModule</title>
<path fill="none" stroke="black" d="M664.52,-81.28C664.52,-96.97 664.52,-119.8 664.52,-119.8 664.52,-119.8 983.15,-119.8 983.15,-119.8"/>
<polygon fill="black" stroke="black" points="983.15,-123.3 993.15,-119.8 983.15,-116.3 983.15,-123.3"/>
</g>
<!-- RepoDevstatsService -->
<g id="node16" class="node">
<title>RepoDevstatsService</title>
<ellipse fill="#fdb462" stroke="black" cx="372" cy="-66.8" rx="93.77" ry="18"/>
<text text-anchor="middle" x="372" y="-62.6" font-family="Times,serif" font-size="14.00">RepoDevstatsService</text>
</g>
<!-- RepoDevstatsService&#45;&gt;TimescaleModule -->
<g id="edge15" class="edge">
<title>RepoDevstatsService&#45;&gt;TimescaleModule</title>
<path fill="none" stroke="black" d="M455.44,-75.36C455.44,-91.49 455.44,-124.8 455.44,-124.8 455.44,-124.8 983.44,-124.8 983.44,-124.8"/>
<polygon fill="black" stroke="black" points="983.44,-128.3 993.44,-124.8 983.44,-121.3 983.44,-128.3"/>
</g>
<!-- WatchGithubEventsService -->
<g id="node17" class="node">
<title>WatchGithubEventsService</title>
<ellipse fill="#fdb462" stroke="black" cx="142" cy="-66.8" rx="118.1" ry="18"/>
<text text-anchor="middle" x="142" y="-62.6" font-family="Times,serif" font-size="14.00">WatchGithubEventsService</text>
</g>
<!-- WatchGithubEventsService&#45;&gt;TimescaleModule -->
<g id="edge16" class="edge">
<title>WatchGithubEventsService&#45;&gt;TimescaleModule</title>
<path fill="none" stroke="black" d="M142,-85.02C142,-103.63 142,-129.8 142,-129.8 142,-129.8 983.34,-129.8 983.34,-129.8"/>
<polygon fill="black" stroke="black" points="983.34,-133.3 993.34,-129.8 983.34,-126.3 983.34,-133.3"/>
</g>
</g>
</svg>
