<?xml version="1.0" encoding="UTF-8" standalone="no"?>
<!DOCTYPE svg PUBLIC "-//W3C//DTD SVG 1.1//EN"
 "http://www.w3.org/Graphics/SVG/1.1/DTD/svg11.dtd">
<!-- Generated by graphviz version 3.0.0 (20220226.1711)
 -->
<!-- Title: dependencies Pages: 1 -->
<svg width="931pt" height="247pt"
 viewBox="0.00 0.00 931.00 246.80" xmlns="http://www.w3.org/2000/svg" xmlns:xlink="http://www.w3.org/1999/xlink">
<g id="graph0" class="graph" transform="scale(1 1) rotate(0) translate(4 242.8)">
<title>dependencies</title>
<polygon fill="white" stroke="transparent" points="-4,4 -4,-242.8 927,-242.8 927,4 -4,4"/>
<text text-anchor="middle" x="461.5" y="-8.2" font-family="sans-serif" font-size="14.00">dependencies</text>
<g id="clust1" class="cluster">
<title>cluster_TimescaleModule</title>
<polygon fill="none" stroke="black" stroke-dasharray="1,5" points="8,-32.8 8,-230.8 915,-230.8 915,-32.8 8,-32.8"/>
</g>
<g id="clust4" class="cluster">
<title>cluster_TimescaleModule_exports</title>
<polygon fill="none" stroke="black" points="99,-170.8 99,-222.8 588,-222.8 588,-170.8 99,-170.8"/>
</g>
<g id="clust6" class="cluster">
<title>cluster_TimescaleModule_providers</title>
<polygon fill="none" stroke="black" points="255,-40.8 255,-92.8 907,-92.8 907,-40.8 255,-40.8"/>
</g>
<g id="clust3" class="cluster">
<title>cluster_TimescaleModule_imports</title>
<polygon fill="none" stroke="black" points="16,-40.8 16,-92.8 247,-92.8 247,-40.8 16,-40.8"/>
</g>
<!-- RepoModule -->
<g id="node1" class="node">
<title>RepoModule</title>
<polygon fill="#8dd3c7" stroke="black" points="238.6,-84.8 235.6,-88.8 214.6,-88.8 211.6,-84.8 149.4,-84.8 149.4,-48.8 238.6,-48.8 238.6,-84.8"/>
<text text-anchor="middle" x="194" y="-62.6" font-family="Times,serif" font-size="14.00">RepoModule</text>
</g>
<!-- TimescaleModule -->
<g id="node3" class="node">
<title>TimescaleModule</title>
<polygon fill="#8dd3c7" stroke="black" points="371.58,-149.8 368.58,-153.8 347.58,-153.8 344.58,-149.8 254.42,-149.8 254.42,-113.8 371.58,-113.8 371.58,-149.8"/>
<text text-anchor="middle" x="313" y="-127.6" font-family="Times,serif" font-size="14.00">TimescaleModule</text>
</g>
<!-- RepoModule&#45;&gt;TimescaleModule -->
<g id="edge1" class="edge">
<title>RepoModule&#45;&gt;TimescaleModule</title>
<path fill="none" stroke="black" d="M238.86,-66.8C249.88,-66.8 258.59,-66.8 258.59,-66.8 258.59,-66.8 258.59,-103.69 258.59,-103.69"/>
<polygon fill="black" stroke="black" points="255.09,-103.69 258.59,-113.69 262.09,-103.69 255.09,-103.69"/>
</g>
<!-- UserListModule -->
<g id="node2" class="node">
<title>UserListModule</title>
<polygon fill="#8dd3c7" stroke="black" points="131.77,-84.8 128.77,-88.8 107.77,-88.8 104.77,-84.8 24.23,-84.8 24.23,-48.8 131.77,-48.8 131.77,-84.8"/>
<text text-anchor="middle" x="78" y="-62.6" font-family="Times,serif" font-size="14.00">UserListModule</text>
</g>
<!-- UserListModule&#45;&gt;TimescaleModule -->
<g id="edge2" class="edge">
<title>UserListModule&#45;&gt;TimescaleModule</title>
<path fill="none" stroke="black" d="M119.21,-84.91C119.21,-104.14 119.21,-131.8 119.21,-131.8 119.21,-131.8 244.33,-131.8 244.33,-131.8"/>
<polygon fill="black" stroke="black" points="244.33,-135.3 254.33,-131.8 244.33,-128.3 244.33,-135.3"/>
</g>
<!-- PullRequestGithubEventsService  -->
<g id="node4" class="node">
<title>PullRequestGithubEventsService </title>
<polygon fill="#fb8072" stroke="black" points="580.14,-214.8 373.86,-214.8 373.86,-178.8 580.14,-178.8 580.14,-214.8"/>
<text text-anchor="middle" x="477" y="-192.6" font-family="Times,serif" font-size="14.00">PullRequestGithubEventsService </text>
</g>
<!-- TimescaleModule&#45;&gt;PullRequestGithubEventsService  -->
<g id="edge3" class="edge">
<title>TimescaleModule&#45;&gt;PullRequestGithubEventsService </title>
<path fill="none" stroke="black" stroke-dasharray="5,2" d="M363.5,-149.91C363.5,-169.14 363.5,-196.8 363.5,-196.8 363.5,-196.8 364.5,-196.8 364.5,-196.8"/>
<polygon fill="black" stroke="black" points="363.57,-200.3 373.57,-196.8 363.57,-193.3 363.57,-200.3"/>
</g>
<!-- PullRequestReviewGithubEventsService  -->
<g id="node5" class="node">
<title>PullRequestReviewGithubEventsService </title>
<polygon fill="#fb8072" stroke="black" points="355.41,-214.8 106.59,-214.8 106.59,-178.8 355.41,-178.8 355.41,-214.8"/>
<text text-anchor="middle" x="231" y="-192.6" font-family="Times,serif" font-size="14.00">PullRequestReviewGithubEventsService </text>
</g>
<!-- TimescaleModule&#45;&gt;PullRequestReviewGithubEventsService  -->
<g id="edge4" class="edge">
<title>TimescaleModule&#45;&gt;PullRequestReviewGithubEventsService </title>
<path fill="none" stroke="black" stroke-dasharray="5,2" d="M304.96,-149.91C304.96,-149.91 304.96,-168.79 304.96,-168.79"/>
<polygon fill="black" stroke="black" points="301.46,-168.79 304.96,-178.79 308.46,-168.79 301.46,-168.79"/>
</g>
<!-- PullRequestGithubEventsService -->
<g id="node6" class="node">
<title>PullRequestGithubEventsService</title>
<ellipse fill="#fdb462" stroke="black" cx="759" cy="-66.8" rx="139.56" ry="18"/>
<text text-anchor="middle" x="759" y="-62.6" font-family="Times,serif" font-size="14.00">PullRequestGithubEventsService</text>
</g>
<!-- PullRequestGithubEventsService&#45;&gt;TimescaleModule -->
<g id="edge5" class="edge">
<title>PullRequestGithubEventsService&#45;&gt;TimescaleModule</title>
<path fill="none" stroke="black" d="M759,-84.91C759,-104.14 759,-131.8 759,-131.8 759,-131.8 381.77,-131.8 381.77,-131.8"/>
<polygon fill="black" stroke="black" points="381.77,-128.3 371.77,-131.8 381.77,-135.3 381.77,-128.3"/>
</g>
<!-- PullRequestReviewGithubEventsService -->
<g id="node7" class="node">
<title>PullRequestReviewGithubEventsService</title>
<ellipse fill="#fdb462" stroke="black" cx="432" cy="-66.8" rx="169.06" ry="18"/>
<text text-anchor="middle" x="432" y="-62.6" font-family="Times,serif" font-size="14.00">PullRequestReviewGithubEventsService</text>
</g>
<!-- PullRequestReviewGithubEventsService&#45;&gt;TimescaleModule -->
<g id="edge6" class="edge">
<title>PullRequestReviewGithubEventsService&#45;&gt;TimescaleModule</title>
<path fill="none" stroke="black" d="M317.13,-80.27C317.13,-80.27 317.13,-103.66 317.13,-103.66"/>
<polygon fill="black" stroke="black" points="313.63,-103.66 317.13,-113.66 320.63,-103.66 313.63,-103.66"/>
</g>
</g>
</svg>
