<?xml version="1.0" encoding="UTF-8" standalone="no"?>
<!DOCTYPE svg PUBLIC "-//W3C//DTD SVG 1.1//EN"
 "http://www.w3.org/Graphics/SVG/1.1/DTD/svg11.dtd">
<!-- Generated by graphviz version 3.0.0 (20220226.1711)
 -->
<!-- Title: dependencies Pages: 1 -->
<svg width="4546pt" height="247pt"
 viewBox="0.00 0.00 4546.00 246.80" xmlns="http://www.w3.org/2000/svg" xmlns:xlink="http://www.w3.org/1999/xlink">
<g id="graph0" class="graph" transform="scale(1 1) rotate(0) translate(4 242.8)">
<title>dependencies</title>
<polygon fill="white" stroke="transparent" points="-4,4 -4,-242.8 4542,-242.8 4542,4 -4,4"/>
<text text-anchor="middle" x="2269" y="-8.2" font-family="sans-serif" font-size="14.00">dependencies</text>
<g id="clust1" class="cluster">
<title>cluster_TimescaleModule</title>
<polygon fill="none" stroke="black" stroke-dasharray="1,5" points="8,-32.8 8,-230.8 4530,-230.8 4530,-32.8 8,-32.8"/>
</g>
<g id="clust4" class="cluster">
<title>cluster_TimescaleModule_exports</title>
<polygon fill="none" stroke="black" points="586,-170.8 586,-222.8 3986,-222.8 3986,-170.8 586,-170.8"/>
</g>
<g id="clust6" class="cluster">
<title>cluster_TimescaleModule_providers</title>
<polygon fill="none" stroke="black" points="16,-40.8 16,-92.8 4522,-92.8 4522,-40.8 16,-40.8"/>
</g>
<!-- CommitCommentGithubEventsService  -->
<g id="node1" class="node">
<title>CommitCommentGithubEventsService </title>
<polygon fill="#fb8072" stroke="black" points="3977.59,-214.8 3738.41,-214.8 3738.41,-178.8 3977.59,-178.8 3977.59,-214.8"/>
<text text-anchor="middle" x="3858" y="-192.6" font-family="Times,serif" font-size="14.00">CommitCommentGithubEventsService </text>
</g>
<!-- ContributorDevstatsService  -->
<g id="node2" class="node">
<title>ContributorDevstatsService </title>
<polygon fill="#fb8072" stroke="black" points="3720.52,-214.8 3545.48,-214.8 3545.48,-178.8 3720.52,-178.8 3720.52,-214.8"/>
<text text-anchor="middle" x="3633" y="-192.6" font-family="Times,serif" font-size="14.00">ContributorDevstatsService </text>
</g>
<!-- CreateGithubEventsService  -->
<g id="node3" class="node">
<title>CreateGithubEventsService </title>
<polygon fill="#fb8072" stroke="black" points="3527.5,-214.8 3352.5,-214.8 3352.5,-178.8 3527.5,-178.8 3527.5,-214.8"/>
<text text-anchor="middle" x="3440" y="-192.6" font-family="Times,serif" font-size="14.00">CreateGithubEventsService </text>
</g>
<!-- DeleteGithubEventsService  -->
<g id="node4" class="node">
<title>DeleteGithubEventsService </title>
<polygon fill="#fb8072" stroke="black" points="3334.5,-214.8 3159.5,-214.8 3159.5,-178.8 3334.5,-178.8 3334.5,-214.8"/>
<text text-anchor="middle" x="3247" y="-192.6" font-family="Times,serif" font-size="14.00">DeleteGithubEventsService </text>
</g>
<!-- ForkGithubEventsService  -->
<g id="node5" class="node">
<title>ForkGithubEventsService </title>
<polygon fill="#fb8072" stroke="black" points="3141.42,-214.8 2976.58,-214.8 2976.58,-178.8 3141.42,-178.8 3141.42,-214.8"/>
<text text-anchor="middle" x="3059" y="-192.6" font-family="Times,serif" font-size="14.00">ForkGithubEventsService </text>
</g>
<!-- GollumGithubEventsService  -->
<g id="node6" class="node">
<title>GollumGithubEventsService </title>
<polygon fill="#fb8072" stroke="black" points="2958.75,-214.8 2777.25,-214.8 2777.25,-178.8 2958.75,-178.8 2958.75,-214.8"/>
<text text-anchor="middle" x="2868" y="-192.6" font-family="Times,serif" font-size="14.00">GollumGithubEventsService </text>
</g>
<!-- IssueCommentGithubEventsService  -->
<g id="node7" class="node">
<title>IssueCommentGithubEventsService </title>
<polygon fill="#fb8072" stroke="black" points="2759.47,-214.8 2536.53,-214.8 2536.53,-178.8 2759.47,-178.8 2759.47,-214.8"/>
<text text-anchor="middle" x="2648" y="-192.6" font-family="Times,serif" font-size="14.00">IssueCommentGithubEventsService </text>
</g>
<!-- IssuesGithubEventsService  -->
<g id="node8" class="node">
<title>IssuesGithubEventsService </title>
<polygon fill="#fb8072" stroke="black" points="2518.19,-214.8 2345.81,-214.8 2345.81,-178.8 2518.19,-178.8 2518.19,-214.8"/>
<text text-anchor="middle" x="2432" y="-192.6" font-family="Times,serif" font-size="14.00">IssuesGithubEventsService </text>
</g>
<!-- MemberGithubEventsService  -->
<g id="node9" class="node">
<title>MemberGithubEventsService </title>
<polygon fill="#fb8072" stroke="black" points="2327.9,-214.8 2142.1,-214.8 2142.1,-178.8 2327.9,-178.8 2327.9,-214.8"/>
<text text-anchor="middle" x="2235" y="-192.6" font-family="Times,serif" font-size="14.00">MemberGithubEventsService </text>
</g>
<!-- PullRequestGithubEventsService  -->
<g id="node10" class="node">
<title>PullRequestGithubEventsService </title>
<polygon fill="#fb8072" stroke="black" points="2124.14,-214.8 1917.86,-214.8 1917.86,-178.8 2124.14,-178.8 2124.14,-214.8"/>
<text text-anchor="middle" x="2021" y="-192.6" font-family="Times,serif" font-size="14.00">PullRequestGithubEventsService </text>
</g>
<!-- PullRequestReviewCommentGithubEventsService  -->
<g id="node11" class="node">
<title>PullRequestReviewCommentGithubEventsService </title>
<polygon fill="#fb8072" stroke="black" points="1900.13,-214.8 1595.87,-214.8 1595.87,-178.8 1900.13,-178.8 1900.13,-214.8"/>
<text text-anchor="middle" x="1748" y="-192.6" font-family="Times,serif" font-size="14.00">PullRequestReviewCommentGithubEventsService </text>
</g>
<!-- PullRequestReviewGithubEventsService  -->
<g id="node12" class="node">
<title>PullRequestReviewGithubEventsService </title>
<polygon fill="#fb8072" stroke="black" points="1577.41,-214.8 1328.59,-214.8 1328.59,-178.8 1577.41,-178.8 1577.41,-214.8"/>
<text text-anchor="middle" x="1453" y="-192.6" font-family="Times,serif" font-size="14.00">PullRequestReviewGithubEventsService </text>
</g>
<!-- PushGithubEventsService  -->
<g id="node13" class="node">
<title>PushGithubEventsService </title>
<polygon fill="#fb8072" stroke="black" points="1310.71,-214.8 1145.29,-214.8 1145.29,-178.8 1310.71,-178.8 1310.71,-214.8"/>
<text text-anchor="middle" x="1228" y="-192.6" font-family="Times,serif" font-size="14.00">PushGithubEventsService </text>
</g>
<!-- ReleaseGithubEventsService  -->
<g id="node14" class="node">
<title>ReleaseGithubEventsService </title>
<polygon fill="#fb8072" stroke="black" points="1127,-214.8 945,-214.8 945,-178.8 1127,-178.8 1127,-214.8"/>
<text text-anchor="middle" x="1036" y="-192.6" font-family="Times,serif" font-size="14.00">ReleaseGithubEventsService </text>
</g>
<!-- RepoDevstatsService  -->
<g id="node15" class="node">
<title>RepoDevstatsService </title>
<polygon fill="#fb8072" stroke="black" points="926.75,-214.8 787.25,-214.8 787.25,-178.8 926.75,-178.8 926.75,-214.8"/>
<text text-anchor="middle" x="857" y="-192.6" font-family="Times,serif" font-size="14.00">RepoDevstatsService </text>
</g>
<!-- WatchGithubEventsService  -->
<g id="node16" class="node">
<title>WatchGithubEventsService </title>
<polygon fill="#fb8072" stroke="black" points="769.5,-214.8 594.5,-214.8 594.5,-178.8 769.5,-178.8 769.5,-214.8"/>
<text text-anchor="middle" x="682" y="-192.6" font-family="Times,serif" font-size="14.00">WatchGithubEventsService </text>
</g>
<!-- TimescaleModule -->
<g id="node17" class="node">
<title>TimescaleModule</title>
<polygon fill="#8dd3c7" stroke="black" points="2391.58,-149.8 2388.58,-153.8 2367.58,-153.8 2364.58,-149.8 2274.42,-149.8 2274.42,-113.8 2391.58,-113.8 2391.58,-149.8"/>
<text text-anchor="middle" x="2333" y="-127.6" font-family="Times,serif" font-size="14.00">TimescaleModule</text>
</g>
<!-- TimescaleModule&#45;&gt;CommitCommentGithubEventsService  -->
<g id="edge1" class="edge">
<title>TimescaleModule&#45;&gt;CommitCommentGithubEventsService </title>
<path fill="none" stroke="black" stroke-dasharray="5,2" d="M2391.56,-133.8C2667.73,-133.8 3826.75,-133.8 3826.75,-133.8 3826.75,-133.8 3826.75,-168.58 3826.75,-168.58"/>
<polygon fill="black" stroke="black" points="3823.25,-168.58 3826.75,-178.58 3830.25,-168.58 3823.25,-168.58"/>
</g>
<!-- TimescaleModule&#45;&gt;ContributorDevstatsService  -->
<g id="edge2" class="edge">
<title>TimescaleModule&#45;&gt;ContributorDevstatsService </title>
<path fill="none" stroke="black" stroke-dasharray="5,2" d="M2391.7,-135.8C2641.45,-135.8 3602.89,-135.8 3602.89,-135.8 3602.89,-135.8 3602.89,-168.5 3602.89,-168.5"/>
<polygon fill="black" stroke="black" points="3599.39,-168.5 3602.89,-178.5 3606.39,-168.5 3599.39,-168.5"/>
</g>
<!-- TimescaleModule&#45;&gt;CreateGithubEventsService  -->
<g id="edge3" class="edge">
<title>TimescaleModule&#45;&gt;CreateGithubEventsService </title>
<path fill="none" stroke="black" stroke-dasharray="5,2" d="M2391.85,-137.8C2612.61,-137.8 3378.92,-137.8 3378.92,-137.8 3378.92,-137.8 3378.92,-168.78 3378.92,-168.78"/>
<polygon fill="black" stroke="black" points="3375.42,-168.78 3378.92,-178.78 3382.42,-168.78 3375.42,-168.78"/>
</g>
<!-- TimescaleModule&#45;&gt;DeleteGithubEventsService  -->
<g id="edge4" class="edge">
<title>TimescaleModule&#45;&gt;DeleteGithubEventsService </title>
<path fill="none" stroke="black" stroke-dasharray="5,2" d="M2391.78,-140.8C2582.77,-140.8 3173.63,-140.8 3173.63,-140.8 3173.63,-140.8 3173.63,-168.77 3173.63,-168.77"/>
<polygon fill="black" stroke="black" points="3170.13,-168.77 3173.63,-178.77 3177.13,-168.77 3170.13,-168.77"/>
</g>
<!-- TimescaleModule&#45;&gt;ForkGithubEventsService  -->
<g id="edge5" class="edge">
<title>TimescaleModule&#45;&gt;ForkGithubEventsService </title>
<path fill="none" stroke="black" stroke-dasharray="5,2" d="M2391.8,-142.8C2564.63,-142.8 3059,-142.8 3059,-142.8 3059,-142.8 3059,-168.52 3059,-168.52"/>
<polygon fill="black" stroke="black" points="3055.5,-168.52 3059,-178.52 3062.5,-168.52 3055.5,-168.52"/>
</g>
<!-- TimescaleModule&#45;&gt;GollumGithubEventsService  -->
<g id="edge6" class="edge">
<title>TimescaleModule&#45;&gt;GollumGithubEventsService </title>
<path fill="none" stroke="black" stroke-dasharray="5,2" d="M2391.56,-145.8C2524.81,-145.8 2839.21,-145.8 2839.21,-145.8 2839.21,-145.8 2839.21,-168.68 2839.21,-168.68"/>
<polygon fill="black" stroke="black" points="2835.71,-168.68 2839.21,-178.68 2842.71,-168.68 2835.71,-168.68"/>
</g>
<!-- TimescaleModule&#45;&gt;IssueCommentGithubEventsService  -->
<g id="edge7" class="edge">
<title>TimescaleModule&#45;&gt;IssueCommentGithubEventsService </title>
<path fill="none" stroke="black" stroke-dasharray="5,2" d="M2391.72,-147.8C2458.61,-147.8 2558.74,-147.8 2558.74,-147.8 2558.74,-147.8 2558.74,-168.55 2558.74,-168.55"/>
<polygon fill="black" stroke="black" points="2555.24,-168.55 2558.74,-178.55 2562.24,-168.55 2555.24,-168.55"/>
</g>
<!-- TimescaleModule&#45;&gt;IssuesGithubEventsService  -->
<g id="edge8" class="edge">
<title>TimescaleModule&#45;&gt;IssuesGithubEventsService </title>
<path fill="none" stroke="black" stroke-dasharray="5,2" d="M2368.6,-149.91C2368.6,-149.91 2368.6,-168.79 2368.6,-168.79"/>
<polygon fill="black" stroke="black" points="2365.1,-168.79 2368.6,-178.79 2372.1,-168.79 2365.1,-168.79"/>
</g>
<!-- TimescaleModule&#45;&gt;MemberGithubEventsService  -->
<g id="edge9" class="edge">
<title>TimescaleModule&#45;&gt;MemberGithubEventsService </title>
<path fill="none" stroke="black" stroke-dasharray="5,2" d="M2301.21,-149.91C2301.21,-149.91 2301.21,-168.79 2301.21,-168.79"/>
<polygon fill="black" stroke="black" points="2297.71,-168.79 2301.21,-178.79 2304.71,-168.79 2297.71,-168.79"/>
</g>
<!-- TimescaleModule&#45;&gt;PullRequestGithubEventsService  -->
<g id="edge10" class="edge">
<title>TimescaleModule&#45;&gt;PullRequestGithubEventsService </title>
<path fill="none" stroke="black" stroke-dasharray="5,2" d="M2274.36,-147.8C2205.52,-147.8 2100.63,-147.8 2100.63,-147.8 2100.63,-147.8 2100.63,-168.55 2100.63,-168.55"/>
<polygon fill="black" stroke="black" points="2097.13,-168.55 2100.63,-178.55 2104.13,-168.55 2097.13,-168.55"/>
</g>
<!-- TimescaleModule&#45;&gt;PullRequestReviewCommentGithubEventsService  -->
<g id="edge11" class="edge">
<title>TimescaleModule&#45;&gt;PullRequestReviewCommentGithubEventsService </title>
<path fill="none" stroke="black" stroke-dasharray="5,2" d="M2273.98,-145.8C2143.03,-145.8 1839.64,-145.8 1839.64,-145.8 1839.64,-145.8 1839.64,-168.68 1839.64,-168.68"/>
<polygon fill="black" stroke="black" points="1836.14,-168.68 1839.64,-178.68 1843.14,-168.68 1836.14,-168.68"/>
</g>
<!-- TimescaleModule&#45;&gt;PullRequestReviewGithubEventsService  -->
<g id="edge12" class="edge">
<title>TimescaleModule&#45;&gt;PullRequestReviewGithubEventsService </title>
<path fill="none" stroke="black" stroke-dasharray="5,2" d="M2274.16,-142.8C2078.51,-142.8 1462.04,-142.8 1462.04,-142.8 1462.04,-142.8 1462.04,-168.52 1462.04,-168.52"/>
<polygon fill="black" stroke="black" points="1458.54,-168.52 1462.04,-178.52 1465.54,-168.52 1458.54,-168.52"/>
</g>
<!-- TimescaleModule&#45;&gt;PushGithubEventsService  -->
<g id="edge13" class="edge">
<title>TimescaleModule&#45;&gt;PushGithubEventsService </title>
<path fill="none" stroke="black" stroke-dasharray="5,2" d="M2274.37,-140.8C2045.93,-140.8 1228,-140.8 1228,-140.8 1228,-140.8 1228,-168.77 1228,-168.77"/>
<polygon fill="black" stroke="black" points="1224.5,-168.77 1228,-178.77 1231.5,-168.77 1224.5,-168.77"/>
</g>
<!-- TimescaleModule&#45;&gt;ReleaseGithubEventsService  -->
<g id="edge14" class="edge">
<title>TimescaleModule&#45;&gt;ReleaseGithubEventsService </title>
<path fill="none" stroke="black" stroke-dasharray="5,2" d="M2274.08,-137.8C2023.4,-137.8 1058.36,-137.8 1058.36,-137.8 1058.36,-137.8 1058.36,-168.78 1058.36,-168.78"/>
<polygon fill="black" stroke="black" points="1054.86,-168.78 1058.36,-178.78 1061.86,-168.78 1054.86,-168.78"/>
</g>
<!-- TimescaleModule&#45;&gt;RepoDevstatsService  -->
<g id="edge15" class="edge">
<title>TimescaleModule&#45;&gt;RepoDevstatsService </title>
<path fill="none" stroke="black" stroke-dasharray="5,2" d="M2274.23,-135.8C1999.71,-135.8 857,-135.8 857,-135.8 857,-135.8 857,-168.5 857,-168.5"/>
<polygon fill="black" stroke="black" points="853.5,-168.5 857,-178.5 860.5,-168.5 853.5,-168.5"/>
</g>
<!-- TimescaleModule&#45;&gt;WatchGithubEventsService  -->
<g id="edge16" class="edge">
<title>TimescaleModule&#45;&gt;WatchGithubEventsService </title>
<path fill="none" stroke="black" stroke-dasharray="5,2" d="M2274.16,-133.8C1988.38,-133.8 758.81,-133.8 758.81,-133.8 758.81,-133.8 758.81,-168.58 758.81,-168.58"/>
<polygon fill="black" stroke="black" points="755.31,-168.58 758.81,-178.58 762.31,-168.58 755.31,-168.58"/>
</g>
<!-- CommitCommentGithubEventsService -->
<g id="node18" class="node">
<title>CommitCommentGithubEventsService</title>
<ellipse fill="#fdb462" stroke="black" cx="4351" cy="-66.8" rx="162.7" ry="18"/>
<text text-anchor="middle" x="4351" y="-62.6" font-family="Times,serif" font-size="14.00">CommitCommentGithubEventsService</text>
</g>
<!-- CommitCommentGithubEventsService&#45;&gt;TimescaleModule -->
<g id="edge17" class="edge">
<title>CommitCommentGithubEventsService&#45;&gt;TimescaleModule</title>
<path fill="none" stroke="black" d="M4351,-84.97C4351,-103.89 4351,-130.8 4351,-130.8 4351,-130.8 2401.76,-130.8 2401.76,-130.8"/>
<polygon fill="black" stroke="black" points="2401.76,-127.3 2391.76,-130.8 2401.76,-134.3 2401.76,-127.3"/>
</g>
<!-- ContributorDevstatsService -->
<g id="node19" class="node">
<title>ContributorDevstatsService</title>
<ellipse fill="#fdb462" stroke="black" cx="4052" cy="-66.8" rx="118.13" ry="18"/>
<text text-anchor="middle" x="4052" y="-62.6" font-family="Times,serif" font-size="14.00">ContributorDevstatsService</text>
</g>
<!-- ContributorDevstatsService&#45;&gt;TimescaleModule -->
<g id="edge18" class="edge">
<title>ContributorDevstatsService&#45;&gt;TimescaleModule</title>
<path fill="none" stroke="black" d="M3955.74,-77.32C3955.74,-95.01 3955.74,-128.8 3955.74,-128.8 3955.74,-128.8 2401.71,-128.8 2401.71,-128.8"/>
<polygon fill="black" stroke="black" points="2401.71,-125.3 2391.71,-128.8 2401.71,-132.3 2401.71,-125.3"/>
</g>
<!-- CreateGithubEventsService -->
<g id="node20" class="node">
<title>CreateGithubEventsService</title>
<ellipse fill="#fdb462" stroke="black" cx="3797" cy="-66.8" rx="118.1" ry="18"/>
<text text-anchor="middle" x="3797" y="-62.6" font-family="Times,serif" font-size="14.00">CreateGithubEventsService</text>
</g>
<!-- CreateGithubEventsService&#45;&gt;TimescaleModule -->
<g id="edge19" class="edge">
<title>CreateGithubEventsService&#45;&gt;TimescaleModule</title>
<path fill="none" stroke="black" d="M3699.61,-77.08C3699.61,-93.98 3699.61,-125.8 3699.61,-125.8 3699.61,-125.8 2401.72,-125.8 2401.72,-125.8"/>
<polygon fill="black" stroke="black" points="2401.72,-122.3 2391.72,-125.8 2401.72,-129.3 2401.72,-122.3"/>
</g>
<!-- DeleteGithubEventsService -->
<g id="node21" class="node">
<title>DeleteGithubEventsService</title>
<ellipse fill="#fdb462" stroke="black" cx="3542" cy="-66.8" rx="118.1" ry="18"/>
<text text-anchor="middle" x="3542" y="-62.6" font-family="Times,serif" font-size="14.00">DeleteGithubEventsService</text>
</g>
<!-- DeleteGithubEventsService&#45;&gt;TimescaleModule -->
<g id="edge20" class="edge">
<title>DeleteGithubEventsService&#45;&gt;TimescaleModule</title>
<path fill="none" stroke="black" d="M3475.6,-81.78C3475.6,-98.66 3475.6,-123.8 3475.6,-123.8 3475.6,-123.8 2401.63,-123.8 2401.63,-123.8"/>
<polygon fill="black" stroke="black" points="2401.63,-120.3 2391.63,-123.8 2401.63,-127.3 2401.63,-120.3"/>
</g>
<!-- ForkGithubEventsService -->
<g id="node22" class="node">
<title>ForkGithubEventsService</title>
<ellipse fill="#fdb462" stroke="black" cx="3294" cy="-66.8" rx="111.19" ry="18"/>
<text text-anchor="middle" x="3294" y="-62.6" font-family="Times,serif" font-size="14.00">ForkGithubEventsService</text>
</g>
<!-- ForkGithubEventsService&#45;&gt;TimescaleModule -->
<g id="edge21" class="edge">
<title>ForkGithubEventsService&#45;&gt;TimescaleModule</title>
<path fill="none" stroke="black" d="M3258.58,-83.9C3258.58,-100.05 3258.58,-121.8 3258.58,-121.8 3258.58,-121.8 2401.6,-121.8 2401.6,-121.8"/>
<polygon fill="black" stroke="black" points="2401.6,-118.3 2391.6,-121.8 2401.6,-125.3 2401.6,-118.3"/>
</g>
<!-- GollumGithubEventsService -->
<g id="node23" class="node">
<title>GollumGithubEventsService</title>
<ellipse fill="#fdb462" stroke="black" cx="3042" cy="-66.8" rx="122.72" ry="18"/>
<text text-anchor="middle" x="3042" y="-62.6" font-family="Times,serif" font-size="14.00">GollumGithubEventsService</text>
</g>
<!-- GollumGithubEventsService&#45;&gt;TimescaleModule -->
<g id="edge22" class="edge">
<title>GollumGithubEventsService&#45;&gt;TimescaleModule</title>
<path fill="none" stroke="black" d="M2939.01,-76.83C2939.01,-91.94 2939.01,-118.8 2939.01,-118.8 2939.01,-118.8 2401.66,-118.8 2401.66,-118.8"/>
<polygon fill="black" stroke="black" points="2401.66,-115.3 2391.66,-118.8 2401.66,-122.3 2401.66,-115.3"/>
</g>
<!-- IssueCommentGithubEventsService -->
<g id="node24" class="node">
<title>IssueCommentGithubEventsService</title>
<ellipse fill="#fdb462" stroke="black" cx="2750" cy="-66.8" rx="151.08" ry="18"/>
<text text-anchor="middle" x="2750" y="-62.6" font-family="Times,serif" font-size="14.00">IssueCommentGithubEventsService</text>
</g>
<!-- IssueCommentGithubEventsService&#45;&gt;TimescaleModule -->
<g id="edge23" class="edge">
<title>IssueCommentGithubEventsService&#45;&gt;TimescaleModule</title>
<path fill="none" stroke="black" d="M2679.1,-82.9C2679.1,-97.51 2679.1,-116.8 2679.1,-116.8 2679.1,-116.8 2401.71,-116.8 2401.71,-116.8"/>
<polygon fill="black" stroke="black" points="2401.71,-113.3 2391.71,-116.8 2401.71,-120.3 2401.71,-113.3"/>
</g>
<!-- IssuesGithubEventsService -->
<g id="node25" class="node">
<title>IssuesGithubEventsService</title>
<ellipse fill="#fdb462" stroke="black" cx="2464" cy="-66.8" rx="116.91" ry="18"/>
<text text-anchor="middle" x="2464" y="-62.6" font-family="Times,serif" font-size="14.00">IssuesGithubEventsService</text>
</g>
<!-- IssuesGithubEventsService&#45;&gt;TimescaleModule -->
<g id="edge24" class="edge">
<title>IssuesGithubEventsService&#45;&gt;TimescaleModule</title>
<path fill="none" stroke="black" d="M2369.42,-77.53C2369.42,-77.53 2369.42,-103.67 2369.42,-103.67"/>
<polygon fill="black" stroke="black" points="2365.92,-103.67 2369.42,-113.67 2372.92,-103.67 2365.92,-103.67"/>
</g>
<!-- MemberGithubEventsService -->
<g id="node26" class="node">
<title>MemberGithubEventsService</title>
<ellipse fill="#fdb462" stroke="black" cx="2203" cy="-66.8" rx="125.63" ry="18"/>
<text text-anchor="middle" x="2203" y="-62.6" font-family="Times,serif" font-size="14.00">MemberGithubEventsService</text>
</g>
<!-- MemberGithubEventsService&#45;&gt;TimescaleModule -->
<g id="edge25" class="edge">
<title>MemberGithubEventsService&#45;&gt;TimescaleModule</title>
<path fill="none" stroke="black" d="M2301.64,-78.12C2301.64,-78.12 2301.64,-103.74 2301.64,-103.74"/>
<polygon fill="black" stroke="black" points="2298.14,-103.74 2301.64,-113.74 2305.14,-103.74 2298.14,-103.74"/>
</g>
<!-- PullRequestGithubEventsService -->
<g id="node27" class="node">
<title>PullRequestGithubEventsService</title>
<ellipse fill="#fdb462" stroke="black" cx="1919" cy="-66.8" rx="139.56" ry="18"/>
<text text-anchor="middle" x="1919" y="-62.6" font-family="Times,serif" font-size="14.00">PullRequestGithubEventsService</text>
</g>
<!-- PullRequestGithubEventsService&#45;&gt;TimescaleModule -->
<g id="edge26" class="edge">
<title>PullRequestGithubEventsService&#45;&gt;TimescaleModule</title>
<path fill="none" stroke="black" d="M1988.35,-82.62C1988.35,-97.27 1988.35,-116.8 1988.35,-116.8 1988.35,-116.8 2264.14,-116.8 2264.14,-116.8"/>
<polygon fill="black" stroke="black" points="2264.14,-120.3 2274.14,-116.8 2264.14,-113.3 2264.14,-120.3"/>
</g>
<!-- PullRequestReviewCommentGithubEventsService -->
<g id="node28" class="node">
<title>PullRequestReviewCommentGithubEventsService</title>
<ellipse fill="#fdb462" stroke="black" cx="1554" cy="-66.8" rx="207.24" ry="18"/>
<text text-anchor="middle" x="1554" y="-62.6" font-family="Times,serif" font-size="14.00">PullRequestReviewCommentGithubEventsService</text>
</g>
<!-- PullRequestReviewCommentGithubEventsService&#45;&gt;TimescaleModule -->
<g id="edge27" class="edge">
<title>PullRequestReviewCommentGithubEventsService&#45;&gt;TimescaleModule</title>
<path fill="none" stroke="black" d="M1678.65,-81.28C1678.65,-96.67 1678.65,-118.8 1678.65,-118.8 1678.65,-118.8 2264.36,-118.8 2264.36,-118.8"/>
<polygon fill="black" stroke="black" points="2264.36,-122.3 2274.36,-118.8 2264.36,-115.3 2264.36,-122.3"/>
</g>
<!-- PullRequestReviewGithubEventsService -->
<g id="node29" class="node">
<title>PullRequestReviewGithubEventsService</title>
<ellipse fill="#fdb462" stroke="black" cx="1159" cy="-66.8" rx="169.06" ry="18"/>
<text text-anchor="middle" x="1159" y="-62.6" font-family="Times,serif" font-size="14.00">PullRequestReviewGithubEventsService</text>
</g>
<!-- PullRequestReviewGithubEventsService&#45;&gt;TimescaleModule -->
<g id="edge28" class="edge">
<title>PullRequestReviewGithubEventsService&#45;&gt;TimescaleModule</title>
<path fill="none" stroke="black" d="M1319.57,-72.69C1319.57,-86.87 1319.57,-121.8 1319.57,-121.8 1319.57,-121.8 2264.13,-121.8 2264.13,-121.8"/>
<polygon fill="black" stroke="black" points="2264.13,-125.3 2274.13,-121.8 2264.13,-118.3 2264.13,-125.3"/>
</g>
<!-- PushGithubEventsService -->
<g id="node30" class="node">
<title>PushGithubEventsService</title>
<ellipse fill="#fdb462" stroke="black" cx="860" cy="-66.8" rx="111.78" ry="18"/>
<text text-anchor="middle" x="860" y="-62.6" font-family="Times,serif" font-size="14.00">PushGithubEventsService</text>
</g>
<!-- PushGithubEventsService&#45;&gt;TimescaleModule -->
<g id="edge29" class="edge">
<title>PushGithubEventsService&#45;&gt;TimescaleModule</title>
<path fill="none" stroke="black" d="M958.44,-75.71C958.44,-91.74 958.44,-123.8 958.44,-123.8 958.44,-123.8 2264.38,-123.8 2264.38,-123.8"/>
<polygon fill="black" stroke="black" points="2264.38,-127.3 2274.38,-123.8 2264.38,-120.3 2264.38,-127.3"/>
</g>
<!-- ReleaseGithubEventsService -->
<g id="node31" class="node">
<title>ReleaseGithubEventsService</title>
<ellipse fill="#fdb462" stroke="black" cx="607" cy="-66.8" rx="123.26" ry="18"/>
<text text-anchor="middle" x="607" y="-62.6" font-family="Times,serif" font-size="14.00">ReleaseGithubEventsService</text>
</g>
<!-- ReleaseGithubEventsService&#45;&gt;TimescaleModule -->
<g id="edge30" class="edge">
<title>ReleaseGithubEventsService&#45;&gt;TimescaleModule</title>
<path fill="none" stroke="black" d="M662.31,-82.92C662.31,-100.39 662.31,-125.8 662.31,-125.8 662.31,-125.8 2264.03,-125.8 2264.03,-125.8"/>
<polygon fill="black" stroke="black" points="2264.03,-129.3 2274.03,-125.8 2264.03,-122.3 2264.03,-129.3"/>
</g>
<!-- RepoDevstatsService -->
<g id="node32" class="node">
<title>RepoDevstatsService</title>
<ellipse fill="#fdb462" stroke="black" cx="372" cy="-66.8" rx="93.77" ry="18"/>
<text text-anchor="middle" x="372" y="-62.6" font-family="Times,serif" font-size="14.00">RepoDevstatsService</text>
</g>
<!-- RepoDevstatsService&#45;&gt;TimescaleModule -->
<g id="edge31" class="edge">
<title>RepoDevstatsService&#45;&gt;TimescaleModule</title>
<path fill="none" stroke="black" d="M372,-85.07C372,-103.36 372,-128.8 372,-128.8 372,-128.8 2264.31,-128.8 2264.31,-128.8"/>
<polygon fill="black" stroke="black" points="2264.31,-132.3 2274.31,-128.8 2264.31,-125.3 2264.31,-132.3"/>
</g>
<!-- WatchGithubEventsService -->
<g id="node33" class="node">
<title>WatchGithubEventsService</title>
<ellipse fill="#fdb462" stroke="black" cx="142" cy="-66.8" rx="118.1" ry="18"/>
<text text-anchor="middle" x="142" y="-62.6" font-family="Times,serif" font-size="14.00">WatchGithubEventsService</text>
</g>
<!-- WatchGithubEventsService&#45;&gt;TimescaleModule -->
<g id="edge32" class="edge">
<title>WatchGithubEventsService&#45;&gt;TimescaleModule</title>
<path fill="none" stroke="black" d="M142,-84.97C142,-103.89 142,-130.8 142,-130.8 142,-130.8 2264.4,-130.8 2264.4,-130.8"/>
<polygon fill="black" stroke="black" points="2264.4,-134.3 2274.4,-130.8 2264.4,-127.3 2264.4,-134.3"/>
</g>
</g>
</svg>
