<?xml version="1.0" encoding="UTF-8" standalone="no"?>
<!DOCTYPE svg PUBLIC "-//W3C//DTD SVG 1.1//EN"
 "http://www.w3.org/Graphics/SVG/1.1/DTD/svg11.dtd">
<!-- Generated by graphviz version 3.0.0 (20220226.1711)
 -->
<!-- Title: dependencies Pages: 1 -->
<svg width="2460pt" height="247pt"
 viewBox="0.00 0.00 2460.00 246.80" xmlns="http://www.w3.org/2000/svg" xmlns:xlink="http://www.w3.org/1999/xlink">
<g id="graph0" class="graph" transform="scale(1 1) rotate(0) translate(4 242.8)">
<title>dependencies</title>
<polygon fill="white" stroke="transparent" points="-4,4 -4,-242.8 2456,-242.8 2456,4 -4,4"/>
<text text-anchor="middle" x="1226" y="-8.2" font-family="sans-serif" font-size="14.00">dependencies</text>
<g id="clust1" class="cluster">
<title>cluster_TimescaleModule</title>
<polygon fill="none" stroke="black" stroke-dasharray="1,5" points="8,-32.8 8,-230.8 2444,-230.8 2444,-32.8 8,-32.8"/>
</g>
<g id="clust6" class="cluster">
<title>cluster_TimescaleModule_providers</title>
<polygon fill="none" stroke="black" points="16,-40.8 16,-92.8 2436,-92.8 2436,-40.8 16,-40.8"/>
</g>
<g id="clust4" class="cluster">
<title>cluster_TimescaleModule_exports</title>
<polygon fill="none" stroke="black" points="310,-170.8 310,-222.8 2141,-222.8 2141,-170.8 310,-170.8"/>
</g>
<!-- ContributorDevstatsService  -->
<g id="node1" class="node">
<title>ContributorDevstatsService </title>
<polygon fill="#fb8072" stroke="black" points="2132.52,-214.8 1957.48,-214.8 1957.48,-178.8 2132.52,-178.8 2132.52,-214.8"/>
<text text-anchor="middle" x="2045" y="-192.6" font-family="Times,serif" font-size="14.00">ContributorDevstatsService </text>
</g>
<!-- ForkGithubEventsService  -->
<g id="node2" class="node">
<title>ForkGithubEventsService </title>
<polygon fill="#fb8072" stroke="black" points="1939.42,-214.8 1774.58,-214.8 1774.58,-178.8 1939.42,-178.8 1939.42,-214.8"/>
<text text-anchor="middle" x="1857" y="-192.6" font-family="Times,serif" font-size="14.00">ForkGithubEventsService </text>
</g>
<!-- IssueCommentGithubEventsService  -->
<g id="node3" class="node">
<title>IssueCommentGithubEventsService </title>
<polygon fill="#fb8072" stroke="black" points="1756.47,-214.8 1533.53,-214.8 1533.53,-178.8 1756.47,-178.8 1756.47,-214.8"/>
<text text-anchor="middle" x="1645" y="-192.6" font-family="Times,serif" font-size="14.00">IssueCommentGithubEventsService </text>
</g>
<!-- IssuesGithubEventsService  -->
<g id="node4" class="node">
<title>IssuesGithubEventsService </title>
<polygon fill="#fb8072" stroke="black" points="1515.19,-214.8 1342.81,-214.8 1342.81,-178.8 1515.19,-178.8 1515.19,-214.8"/>
<text text-anchor="middle" x="1429" y="-192.6" font-family="Times,serif" font-size="14.00">IssuesGithubEventsService </text>
</g>
<!-- PullRequestGithubEventsService  -->
<g id="node5" class="node">
<title>PullRequestGithubEventsService </title>
<polygon fill="#fb8072" stroke="black" points="1325.14,-214.8 1118.86,-214.8 1118.86,-178.8 1325.14,-178.8 1325.14,-214.8"/>
<text text-anchor="middle" x="1222" y="-192.6" font-family="Times,serif" font-size="14.00">PullRequestGithubEventsService </text>
</g>
<!-- PullRequestReviewGithubEventsService  -->
<g id="node6" class="node">
<title>PullRequestReviewGithubEventsService </title>
<polygon fill="#fb8072" stroke="black" points="1100.41,-214.8 851.59,-214.8 851.59,-178.8 1100.41,-178.8 1100.41,-214.8"/>
<text text-anchor="middle" x="976" y="-192.6" font-family="Times,serif" font-size="14.00">PullRequestReviewGithubEventsService </text>
</g>
<!-- PushGithubEventsService  -->
<g id="node7" class="node">
<title>PushGithubEventsService </title>
<polygon fill="#fb8072" stroke="black" points="833.71,-214.8 668.29,-214.8 668.29,-178.8 833.71,-178.8 833.71,-214.8"/>
<text text-anchor="middle" x="751" y="-192.6" font-family="Times,serif" font-size="14.00">PushGithubEventsService </text>
</g>
<!-- RepoDevstatsService  -->
<g id="node8" class="node">
<title>RepoDevstatsService </title>
<polygon fill="#fb8072" stroke="black" points="650.75,-214.8 511.25,-214.8 511.25,-178.8 650.75,-178.8 650.75,-214.8"/>
<text text-anchor="middle" x="581" y="-192.6" font-family="Times,serif" font-size="14.00">RepoDevstatsService </text>
</g>
<!-- WatchGithubEventsService  -->
<g id="node9" class="node">
<title>WatchGithubEventsService </title>
<polygon fill="#fb8072" stroke="black" points="493.5,-214.8 318.5,-214.8 318.5,-178.8 493.5,-178.8 493.5,-214.8"/>
<text text-anchor="middle" x="406" y="-192.6" font-family="Times,serif" font-size="14.00">WatchGithubEventsService </text>
</g>
<!-- TimescaleModule -->
<g id="node10" class="node">
<title>TimescaleModule</title>
<polygon fill="#8dd3c7" stroke="black" points="1280.58,-149.8 1277.58,-153.8 1256.58,-153.8 1253.58,-149.8 1163.42,-149.8 1163.42,-113.8 1280.58,-113.8 1280.58,-149.8"/>
<text text-anchor="middle" x="1222" y="-127.6" font-family="Times,serif" font-size="14.00">TimescaleModule</text>
</g>
<!-- TimescaleModule&#45;&gt;ContributorDevstatsService  -->
<g id="edge1" class="edge">
<title>TimescaleModule&#45;&gt;ContributorDevstatsService </title>
<path fill="none" stroke="black" stroke-dasharray="5,2" d="M1280.57,-133.8C1473.1,-133.8 2074.17,-133.8 2074.17,-133.8 2074.17,-133.8 2074.17,-168.58 2074.17,-168.58"/>
<polygon fill="black" stroke="black" points="2070.67,-168.58 2074.17,-178.58 2077.67,-168.58 2070.67,-168.58"/>
</g>
<!-- TimescaleModule&#45;&gt;ForkGithubEventsService  -->
<g id="edge2" class="edge">
<title>TimescaleModule&#45;&gt;ForkGithubEventsService </title>
<path fill="none" stroke="black" stroke-dasharray="5,2" d="M1280.59,-137.8C1437.21,-137.8 1853.79,-137.8 1853.79,-137.8 1853.79,-137.8 1853.79,-168.78 1853.79,-168.78"/>
<polygon fill="black" stroke="black" points="1850.29,-168.78 1853.79,-178.78 1857.29,-168.78 1850.29,-168.78"/>
</g>
<!-- TimescaleModule&#45;&gt;IssueCommentGithubEventsService  -->
<g id="edge3" class="edge">
<title>TimescaleModule&#45;&gt;IssueCommentGithubEventsService </title>
<path fill="none" stroke="black" stroke-dasharray="5,2" d="M1280.79,-141.8C1380.78,-141.8 1573.24,-141.8 1573.24,-141.8 1573.24,-141.8 1573.24,-168.79 1573.24,-168.79"/>
<polygon fill="black" stroke="black" points="1569.74,-168.79 1573.24,-178.79 1576.74,-168.79 1569.74,-168.79"/>
</g>
<!-- TimescaleModule&#45;&gt;IssuesGithubEventsService  -->
<g id="edge4" class="edge">
<title>TimescaleModule&#45;&gt;IssuesGithubEventsService </title>
<path fill="none" stroke="black" stroke-dasharray="5,2" d="M1280.63,-145.8C1315.19,-145.8 1352.22,-145.8 1352.22,-145.8 1352.22,-145.8 1352.22,-168.68 1352.22,-168.68"/>
<polygon fill="black" stroke="black" points="1348.72,-168.68 1352.22,-178.68 1355.72,-168.68 1348.72,-168.68"/>
</g>
<!-- TimescaleModule&#45;&gt;PullRequestGithubEventsService  -->
<g id="edge5" class="edge">
<title>TimescaleModule&#45;&gt;PullRequestGithubEventsService </title>
<path fill="none" stroke="black" stroke-dasharray="5,2" d="M1222,-149.91C1222,-149.91 1222,-168.79 1222,-168.79"/>
<polygon fill="black" stroke="black" points="1218.5,-168.79 1222,-178.79 1225.5,-168.79 1218.5,-168.79"/>
</g>
<!-- TimescaleModule&#45;&gt;PullRequestReviewGithubEventsService  -->
<g id="edge6" class="edge">
<title>TimescaleModule&#45;&gt;PullRequestReviewGithubEventsService </title>
<path fill="none" stroke="black" stroke-dasharray="5,2" d="M1163.17,-145.8C1128.49,-145.8 1091.34,-145.8 1091.34,-145.8 1091.34,-145.8 1091.34,-168.68 1091.34,-168.68"/>
<polygon fill="black" stroke="black" points="1087.84,-168.68 1091.34,-178.68 1094.84,-168.68 1087.84,-168.68"/>
</g>
<!-- TimescaleModule&#45;&gt;PushGithubEventsService  -->
<g id="edge7" class="edge">
<title>TimescaleModule&#45;&gt;PushGithubEventsService </title>
<path fill="none" stroke="black" stroke-dasharray="5,2" d="M1163.28,-141.8C1042.99,-141.8 779.79,-141.8 779.79,-141.8 779.79,-141.8 779.79,-168.79 779.79,-168.79"/>
<polygon fill="black" stroke="black" points="776.29,-168.79 779.79,-178.79 783.29,-168.79 776.29,-168.79"/>
</g>
<!-- TimescaleModule&#45;&gt;RepoDevstatsService  -->
<g id="edge8" class="edge">
<title>TimescaleModule&#45;&gt;RepoDevstatsService </title>
<path fill="none" stroke="black" stroke-dasharray="5,2" d="M1163.42,-137.8C1005.18,-137.8 581,-137.8 581,-137.8 581,-137.8 581,-168.78 581,-168.78"/>
<polygon fill="black" stroke="black" points="577.5,-168.78 581,-178.78 584.5,-168.78 577.5,-168.78"/>
</g>
<!-- TimescaleModule&#45;&gt;WatchGithubEventsService  -->
<g id="edge9" class="edge">
<title>TimescaleModule&#45;&gt;WatchGithubEventsService </title>
<path fill="none" stroke="black" stroke-dasharray="5,2" d="M1163.24,-133.8C989.26,-133.8 488.81,-133.8 488.81,-133.8 488.81,-133.8 488.81,-168.58 488.81,-168.58"/>
<polygon fill="black" stroke="black" points="485.31,-168.58 488.81,-178.58 492.31,-168.58 485.31,-168.58"/>
</g>
<!-- ContributorDevstatsService -->
<g id="node11" class="node">
<title>ContributorDevstatsService</title>
<ellipse fill="#fdb462" stroke="black" cx="2310" cy="-66.8" rx="118.13" ry="18"/>
<text text-anchor="middle" x="2310" y="-62.6" font-family="Times,serif" font-size="14.00">ContributorDevstatsService</text>
</g>
<!-- ContributorDevstatsService&#45;&gt;TimescaleModule -->
<g id="edge10" class="edge">
<title>ContributorDevstatsService&#45;&gt;TimescaleModule</title>
<path fill="none" stroke="black" d="M2310,-85.02C2310,-103.63 2310,-129.8 2310,-129.8 2310,-129.8 1290.88,-129.8 1290.88,-129.8"/>
<polygon fill="black" stroke="black" points="1290.88,-126.3 1280.88,-129.8 1290.88,-133.3 1290.88,-126.3"/>
</g>
<!-- ForkGithubEventsService -->
<g id="node12" class="node">
<title>ForkGithubEventsService</title>
<ellipse fill="#fdb462" stroke="black" cx="2062" cy="-66.8" rx="111.19" ry="18"/>
<text text-anchor="middle" x="2062" y="-62.6" font-family="Times,serif" font-size="14.00">ForkGithubEventsService</text>
</g>
<!-- ForkGithubEventsService&#45;&gt;TimescaleModule -->
<g id="edge11" class="edge">
<title>ForkGithubEventsService&#45;&gt;TimescaleModule</title>
<path fill="none" stroke="black" d="M2015.83,-83.23C2015.83,-100.69 2015.83,-125.8 2015.83,-125.8 2015.83,-125.8 1290.69,-125.8 1290.69,-125.8"/>
<polygon fill="black" stroke="black" points="1290.69,-122.3 1280.69,-125.8 1290.69,-129.3 1290.69,-122.3"/>
</g>
<!-- IssueCommentGithubEventsService -->
<g id="node13" class="node">
<title>IssueCommentGithubEventsService</title>
<ellipse fill="#fdb462" stroke="black" cx="1782" cy="-66.8" rx="151.08" ry="18"/>
<text text-anchor="middle" x="1782" y="-62.6" font-family="Times,serif" font-size="14.00">IssueCommentGithubEventsService</text>
</g>
<!-- IssueCommentGithubEventsService&#45;&gt;TimescaleModule -->
<g id="edge12" class="edge">
<title>IssueCommentGithubEventsService&#45;&gt;TimescaleModule</title>
<path fill="none" stroke="black" d="M1693.6,-81.54C1693.6,-97.83 1693.6,-121.8 1693.6,-121.8 1693.6,-121.8 1290.77,-121.8 1290.77,-121.8"/>
<polygon fill="black" stroke="black" points="1290.77,-118.3 1280.77,-121.8 1290.77,-125.3 1290.77,-118.3"/>
</g>
<!-- IssuesGithubEventsService -->
<g id="node14" class="node">
<title>IssuesGithubEventsService</title>
<ellipse fill="#fdb462" stroke="black" cx="1496" cy="-66.8" rx="116.91" ry="18"/>
<text text-anchor="middle" x="1496" y="-62.6" font-family="Times,serif" font-size="14.00">IssuesGithubEventsService</text>
</g>
<!-- IssuesGithubEventsService&#45;&gt;TimescaleModule -->
<g id="edge13" class="edge">
<title>IssuesGithubEventsService&#45;&gt;TimescaleModule</title>
<path fill="none" stroke="black" d="M1447.32,-83.22C1447.32,-98.13 1447.32,-117.8 1447.32,-117.8 1447.32,-117.8 1290.61,-117.8 1290.61,-117.8"/>
<polygon fill="black" stroke="black" points="1290.61,-114.3 1280.61,-117.8 1290.61,-121.3 1290.61,-114.3"/>
</g>
<!-- PullRequestGithubEventsService -->
<g id="node15" class="node">
<title>PullRequestGithubEventsService</title>
<ellipse fill="#fdb462" stroke="black" cx="1222" cy="-66.8" rx="139.56" ry="18"/>
<text text-anchor="middle" x="1222" y="-62.6" font-family="Times,serif" font-size="14.00">PullRequestGithubEventsService</text>
</g>
<!-- PullRequestGithubEventsService&#45;&gt;TimescaleModule -->
<g id="edge14" class="edge">
<title>PullRequestGithubEventsService&#45;&gt;TimescaleModule</title>
<path fill="none" stroke="black" d="M1222,-84.91C1222,-84.91 1222,-103.79 1222,-103.79"/>
<polygon fill="black" stroke="black" points="1218.5,-103.79 1222,-113.79 1225.5,-103.79 1218.5,-103.79"/>
</g>
<!-- PullRequestReviewGithubEventsService -->
<g id="node16" class="node">
<title>PullRequestReviewGithubEventsService</title>
<ellipse fill="#fdb462" stroke="black" cx="895" cy="-66.8" rx="169.06" ry="18"/>
<text text-anchor="middle" x="895" y="-62.6" font-family="Times,serif" font-size="14.00">PullRequestReviewGithubEventsService</text>
</g>
<!-- PullRequestReviewGithubEventsService&#45;&gt;TimescaleModule -->
<g id="edge15" class="edge">
<title>PullRequestReviewGithubEventsService&#45;&gt;TimescaleModule</title>
<path fill="none" stroke="black" d="M957.91,-83.78C957.91,-98.62 957.91,-117.8 957.91,-117.8 957.91,-117.8 1153.39,-117.8 1153.39,-117.8"/>
<polygon fill="black" stroke="black" points="1153.39,-121.3 1163.39,-117.8 1153.39,-114.3 1153.39,-121.3"/>
</g>
<!-- PushGithubEventsService -->
<g id="node17" class="node">
<title>PushGithubEventsService</title>
<ellipse fill="#fdb462" stroke="black" cx="596" cy="-66.8" rx="111.78" ry="18"/>
<text text-anchor="middle" x="596" y="-62.6" font-family="Times,serif" font-size="14.00">PushGithubEventsService</text>
</g>
<!-- PushGithubEventsService&#45;&gt;TimescaleModule -->
<g id="edge16" class="edge">
<title>PushGithubEventsService&#45;&gt;TimescaleModule</title>
<path fill="none" stroke="black" d="M688.02,-77.15C688.02,-93.08 688.02,-121.8 688.02,-121.8 688.02,-121.8 1153.33,-121.8 1153.33,-121.8"/>
<polygon fill="black" stroke="black" points="1153.33,-125.3 1163.33,-121.8 1153.33,-118.3 1153.33,-125.3"/>
</g>
<!-- RepoDevstatsService -->
<g id="node18" class="node">
<title>RepoDevstatsService</title>
<ellipse fill="#fdb462" stroke="black" cx="372" cy="-66.8" rx="93.77" ry="18"/>
<text text-anchor="middle" x="372" y="-62.6" font-family="Times,serif" font-size="14.00">RepoDevstatsService</text>
</g>
<!-- RepoDevstatsService&#45;&gt;TimescaleModule -->
<g id="edge17" class="edge">
<title>RepoDevstatsService&#45;&gt;TimescaleModule</title>
<path fill="none" stroke="black" d="M392.07,-84.5C392.07,-101.88 392.07,-125.8 392.07,-125.8 392.07,-125.8 1153.31,-125.8 1153.31,-125.8"/>
<polygon fill="black" stroke="black" points="1153.31,-129.3 1163.31,-125.8 1153.31,-122.3 1153.31,-129.3"/>
</g>
<!-- WatchGithubEventsService -->
<g id="node19" class="node">
<title>WatchGithubEventsService</title>
<ellipse fill="#fdb462" stroke="black" cx="142" cy="-66.8" rx="118.1" ry="18"/>
<text text-anchor="middle" x="142" y="-62.6" font-family="Times,serif" font-size="14.00">WatchGithubEventsService</text>
</g>
<!-- WatchGithubEventsService&#45;&gt;TimescaleModule -->
<g id="edge18" class="edge">
<title>WatchGithubEventsService&#45;&gt;TimescaleModule</title>
<path fill="none" stroke="black" d="M142,-85.02C142,-103.63 142,-129.8 142,-129.8 142,-129.8 1153.17,-129.8 1153.17,-129.8"/>
<polygon fill="black" stroke="black" points="1153.17,-133.3 1163.17,-129.8 1153.17,-126.3 1153.17,-133.3"/>
</g>
</g>
</svg>
