<?xml version="1.0" encoding="UTF-8" standalone="no"?>
<!DOCTYPE svg PUBLIC "-//W3C//DTD SVG 1.1//EN"
 "http://www.w3.org/Graphics/SVG/1.1/DTD/svg11.dtd">
<!-- Generated by graphviz version 3.0.0 (20220226.1711)
 -->
<!-- Title: dependencies Pages: 1 -->
<svg width="1186pt" height="247pt"
 viewBox="0.00 0.00 1186.00 246.80" xmlns="http://www.w3.org/2000/svg" xmlns:xlink="http://www.w3.org/1999/xlink">
<g id="graph0" class="graph" transform="scale(1 1) rotate(0) translate(4 242.8)">
<title>dependencies</title>
<polygon fill="white" stroke="transparent" points="-4,4 -4,-242.8 1182,-242.8 1182,4 -4,4"/>
<text text-anchor="middle" x="589" y="-8.2" font-family="sans-serif" font-size="14.00">dependencies</text>
<g id="clust1" class="cluster">
<title>cluster_TimescaleModule</title>
<polygon fill="none" stroke="black" stroke-dasharray="1,5" points="8,-32.8 8,-230.8 1170,-230.8 1170,-32.8 8,-32.8"/>
</g>
<g id="clust6" class="cluster">
<title>cluster_TimescaleModule_providers</title>
<polygon fill="none" stroke="black" points="255,-40.8 255,-92.8 1162,-92.8 1162,-40.8 255,-40.8"/>
</g>
<g id="clust4" class="cluster">
<title>cluster_TimescaleModule_exports</title>
<polygon fill="none" stroke="black" points="55,-170.8 55,-222.8 738,-222.8 738,-170.8 55,-170.8"/>
</g>
<g id="clust3" class="cluster">
<title>cluster_TimescaleModule_imports</title>
<polygon fill="none" stroke="black" points="16,-40.8 16,-92.8 247,-92.8 247,-40.8 16,-40.8"/>
</g>
<!-- RepoModule -->
<g id="node1" class="node">
<title>RepoModule</title>
<polygon fill="#8dd3c7" stroke="black" points="238.6,-84.8 235.6,-88.8 214.6,-88.8 211.6,-84.8 149.4,-84.8 149.4,-48.8 238.6,-48.8 238.6,-84.8"/>
<text text-anchor="middle" x="194" y="-62.6" font-family="Times,serif" font-size="14.00">RepoModule</text>
</g>
<!-- TimescaleModule -->
<g id="node3" class="node">
<title>TimescaleModule</title>
<polygon fill="#8dd3c7" stroke="black" points="439.58,-149.8 436.58,-153.8 415.58,-153.8 412.58,-149.8 322.42,-149.8 322.42,-113.8 439.58,-113.8 439.58,-149.8"/>
<text text-anchor="middle" x="381" y="-127.6" font-family="Times,serif" font-size="14.00">TimescaleModule</text>
</g>
<!-- RepoModule&#45;&gt;TimescaleModule -->
<g id="edge1" class="edge">
<title>RepoModule&#45;&gt;TimescaleModule</title>
<path fill="none" stroke="black" d="M208.82,-84.83C208.82,-101.2 208.82,-122.8 208.82,-122.8 208.82,-122.8 312.23,-122.8 312.23,-122.8"/>
<polygon fill="black" stroke="black" points="312.23,-126.3 322.23,-122.8 312.23,-119.3 312.23,-126.3"/>
</g>
<!-- UserListModule -->
<g id="node2" class="node">
<title>UserListModule</title>
<polygon fill="#8dd3c7" stroke="black" points="131.77,-84.8 128.77,-88.8 107.77,-88.8 104.77,-84.8 24.23,-84.8 24.23,-48.8 131.77,-48.8 131.77,-84.8"/>
<text text-anchor="middle" x="78" y="-62.6" font-family="Times,serif" font-size="14.00">UserListModule</text>
</g>
<!-- UserListModule&#45;&gt;TimescaleModule -->
<g id="edge2" class="edge">
<title>UserListModule&#45;&gt;TimescaleModule</title>
<path fill="none" stroke="black" d="M97.69,-84.91C97.69,-104.14 97.69,-131.8 97.69,-131.8 97.69,-131.8 312.3,-131.8 312.3,-131.8"/>
<polygon fill="black" stroke="black" points="312.3,-135.3 322.3,-131.8 312.3,-128.3 312.3,-135.3"/>
</g>
<!-- PullRequestGithubEventsService  -->
<g id="node4" class="node">
<title>PullRequestGithubEventsService </title>
<polygon fill="#fb8072" stroke="black" points="730.14,-214.8 523.86,-214.8 523.86,-178.8 730.14,-178.8 730.14,-214.8"/>
<text text-anchor="middle" x="627" y="-192.6" font-family="Times,serif" font-size="14.00">PullRequestGithubEventsService </text>
</g>
<!-- TimescaleModule&#45;&gt;PullRequestGithubEventsService  -->
<g id="edge3" class="edge">
<title>TimescaleModule&#45;&gt;PullRequestGithubEventsService </title>
<path fill="none" stroke="black" stroke-dasharray="5,2" d="M439.77,-140.8C521.98,-140.8 661.36,-140.8 661.36,-140.8 661.36,-140.8 661.36,-168.77 661.36,-168.77"/>
<polygon fill="black" stroke="black" points="657.86,-168.77 661.36,-178.77 664.86,-168.77 657.86,-168.77"/>
</g>
<!-- PullRequestReviewGithubEventsService  -->
<g id="node5" class="node">
<title>PullRequestReviewGithubEventsService </title>
<polygon fill="#fb8072" stroke="black" points="505.41,-214.8 256.59,-214.8 256.59,-178.8 505.41,-178.8 505.41,-214.8"/>
<text text-anchor="middle" x="381" y="-192.6" font-family="Times,serif" font-size="14.00">PullRequestReviewGithubEventsService </text>
</g>
<!-- TimescaleModule&#45;&gt;PullRequestReviewGithubEventsService  -->
<g id="edge4" class="edge">
<title>TimescaleModule&#45;&gt;PullRequestReviewGithubEventsService </title>
<path fill="none" stroke="black" stroke-dasharray="5,2" d="M381,-149.91C381,-149.91 381,-168.79 381,-168.79"/>
<polygon fill="black" stroke="black" points="377.5,-168.79 381,-178.79 384.5,-168.79 377.5,-168.79"/>
</g>
<!-- WatchGithubEventsService  -->
<g id="node6" class="node">
<title>WatchGithubEventsService </title>
<polygon fill="#fb8072" stroke="black" points="238.5,-214.8 63.5,-214.8 63.5,-178.8 238.5,-178.8 238.5,-214.8"/>
<text text-anchor="middle" x="151" y="-192.6" font-family="Times,serif" font-size="14.00">WatchGithubEventsService </text>
</g>
<!-- TimescaleModule&#45;&gt;WatchGithubEventsService  -->
<g id="edge5" class="edge">
<title>TimescaleModule&#45;&gt;WatchGithubEventsService </title>
<path fill="none" stroke="black" stroke-dasharray="5,2" d="M322.34,-140.8C262.74,-140.8 179.13,-140.8 179.13,-140.8 179.13,-140.8 179.13,-168.77 179.13,-168.77"/>
<polygon fill="black" stroke="black" points="175.63,-168.77 179.13,-178.77 182.63,-168.77 175.63,-168.77"/>
</g>
<!-- PullRequestGithubEventsService -->
<g id="node7" class="node">
<title>PullRequestGithubEventsService</title>
<ellipse fill="#fdb462" stroke="black" cx="1014" cy="-66.8" rx="139.56" ry="18"/>
<text text-anchor="middle" x="1014" y="-62.6" font-family="Times,serif" font-size="14.00">PullRequestGithubEventsService</text>
</g>
<!-- PullRequestGithubEventsService&#45;&gt;TimescaleModule -->
<g id="edge6" class="edge">
<title>PullRequestGithubEventsService&#45;&gt;TimescaleModule</title>
<path fill="none" stroke="black" d="M1014,-84.91C1014,-104.14 1014,-131.8 1014,-131.8 1014,-131.8 449.7,-131.8 449.7,-131.8"/>
<polygon fill="black" stroke="black" points="449.7,-128.3 439.7,-131.8 449.7,-135.3 449.7,-128.3"/>
</g>
<!-- PullRequestReviewGithubEventsService -->
<g id="node8" class="node">
<title>PullRequestReviewGithubEventsService</title>
<ellipse fill="#fdb462" stroke="black" cx="687" cy="-66.8" rx="169.06" ry="18"/>
<text text-anchor="middle" x="687" y="-62.6" font-family="Times,serif" font-size="14.00">PullRequestReviewGithubEventsService</text>
</g>
<!-- PullRequestReviewGithubEventsService&#45;&gt;TimescaleModule -->
<g id="edge7" class="edge">
<title>PullRequestReviewGithubEventsService&#45;&gt;TimescaleModule</title>
<path fill="none" stroke="black" d="M592.64,-81.81C592.64,-98.39 592.64,-122.8 592.64,-122.8 592.64,-122.8 449.67,-122.8 449.67,-122.8"/>
<polygon fill="black" stroke="black" points="449.67,-119.3 439.67,-122.8 449.67,-126.3 449.67,-119.3"/>
</g>
<!-- WatchGithubEventsService -->
<g id="node9" class="node">
<title>WatchGithubEventsService</title>
<ellipse fill="#fdb462" stroke="black" cx="381" cy="-66.8" rx="118.1" ry="18"/>
<text text-anchor="middle" x="381" y="-62.6" font-family="Times,serif" font-size="14.00">WatchGithubEventsService</text>
</g>
<!-- WatchGithubEventsService&#45;&gt;TimescaleModule -->
<g id="edge8" class="edge">
<title>WatchGithubEventsService&#45;&gt;TimescaleModule</title>
<path fill="none" stroke="black" d="M381,-84.91C381,-84.91 381,-103.79 381,-103.79"/>
<polygon fill="black" stroke="black" points="377.5,-103.79 381,-113.79 384.5,-103.79 377.5,-103.79"/>
</g>
</g>
</svg>
