<?xml version="1.0" encoding="UTF-8" standalone="no"?>
<!DOCTYPE svg PUBLIC "-//W3C//DTD SVG 1.1//EN"
 "http://www.w3.org/Graphics/SVG/1.1/DTD/svg11.dtd">
<!-- Generated by graphviz version 3.0.0 (20220226.1711)
 -->
<!-- Title: dependencies Pages: 1 -->
<svg width="2231pt" height="247pt"
 viewBox="0.00 0.00 2231.00 246.80" xmlns="http://www.w3.org/2000/svg" xmlns:xlink="http://www.w3.org/1999/xlink">
<g id="graph0" class="graph" transform="scale(1 1) rotate(0) translate(4 242.8)">
<title>dependencies</title>
<polygon fill="white" stroke="transparent" points="-4,4 -4,-242.8 2227,-242.8 2227,4 -4,4"/>
<text text-anchor="middle" x="1111.5" y="-8.2" font-family="sans-serif" font-size="14.00">dependencies</text>
<g id="clust1" class="cluster">
<title>cluster_TimescaleModule</title>
<polygon fill="none" stroke="black" stroke-dasharray="1,5" points="8,-32.8 8,-230.8 2215,-230.8 2215,-32.8 8,-32.8"/>
</g>
<g id="clust3" class="cluster">
<title>cluster_TimescaleModule_imports</title>
<polygon fill="none" stroke="black" points="1976,-40.8 1976,-92.8 2207,-92.8 2207,-40.8 1976,-40.8"/>
</g>
<g id="clust4" class="cluster">
<title>cluster_TimescaleModule_exports</title>
<polygon fill="none" stroke="black" points="532,-170.8 532,-222.8 2007,-222.8 2007,-170.8 532,-170.8"/>
</g>
<g id="clust6" class="cluster">
<title>cluster_TimescaleModule_providers</title>
<polygon fill="none" stroke="black" points="16,-40.8 16,-92.8 1968,-92.8 1968,-40.8 16,-40.8"/>
</g>
<!-- RepoModule -->
<g id="node1" class="node">
<title>RepoModule</title>
<polygon fill="#8dd3c7" stroke="black" points="2198.6,-84.8 2195.6,-88.8 2174.6,-88.8 2171.6,-84.8 2109.4,-84.8 2109.4,-48.8 2198.6,-48.8 2198.6,-84.8"/>
<text text-anchor="middle" x="2154" y="-62.6" font-family="Times,serif" font-size="14.00">RepoModule</text>
</g>
<!-- TimescaleModule -->
<g id="node3" class="node">
<title>TimescaleModule</title>
<polygon fill="#8dd3c7" stroke="black" points="1345.58,-149.8 1342.58,-153.8 1321.58,-153.8 1318.58,-149.8 1228.42,-149.8 1228.42,-113.8 1345.58,-113.8 1345.58,-149.8"/>
<text text-anchor="middle" x="1287" y="-127.6" font-family="Times,serif" font-size="14.00">TimescaleModule</text>
</g>
<!-- RepoModule&#45;&gt;TimescaleModule -->
<g id="edge1" class="edge">
<title>RepoModule&#45;&gt;TimescaleModule</title>
<path fill="none" stroke="black" d="M2154,-84.91C2154,-104.14 2154,-131.8 2154,-131.8 2154,-131.8 1355.57,-131.8 1355.57,-131.8"/>
<polygon fill="black" stroke="black" points="1355.57,-128.3 1345.57,-131.8 1355.57,-135.3 1355.57,-128.3"/>
</g>
<!-- UserListModule -->
<g id="node2" class="node">
<title>UserListModule</title>
<polygon fill="#8dd3c7" stroke="black" points="2091.77,-84.8 2088.77,-88.8 2067.77,-88.8 2064.77,-84.8 1984.23,-84.8 1984.23,-48.8 2091.77,-48.8 2091.77,-84.8"/>
<text text-anchor="middle" x="2038" y="-62.6" font-family="Times,serif" font-size="14.00">UserListModule</text>
</g>
<!-- UserListModule&#45;&gt;TimescaleModule -->
<g id="edge2" class="edge">
<title>UserListModule&#45;&gt;TimescaleModule</title>
<path fill="none" stroke="black" d="M1991.79,-85.1C1991.79,-103.07 1991.79,-127.8 1991.79,-127.8 1991.79,-127.8 1355.58,-127.8 1355.58,-127.8"/>
<polygon fill="black" stroke="black" points="1355.58,-124.3 1345.58,-127.8 1355.58,-131.3 1355.58,-124.3"/>
</g>
<!-- ForkGithubEventsService  -->
<g id="node4" class="node">
<title>ForkGithubEventsService </title>
<polygon fill="#fb8072" stroke="black" points="1999.42,-214.8 1834.58,-214.8 1834.58,-178.8 1999.42,-178.8 1999.42,-214.8"/>
<text text-anchor="middle" x="1917" y="-192.6" font-family="Times,serif" font-size="14.00">ForkGithubEventsService </text>
</g>
<!-- TimescaleModule&#45;&gt;ForkGithubEventsService  -->
<g id="edge3" class="edge">
<title>TimescaleModule&#45;&gt;ForkGithubEventsService </title>
<path fill="none" stroke="black" stroke-dasharray="5,2" d="M1345.81,-136.8C1498.8,-136.8 1897.44,-136.8 1897.44,-136.8 1897.44,-136.8 1897.44,-168.8 1897.44,-168.8"/>
<polygon fill="black" stroke="black" points="1893.94,-168.8 1897.44,-178.8 1900.94,-168.8 1893.94,-168.8"/>
</g>
<!-- IssueCommentGithubEventsService  -->
<g id="node5" class="node">
<title>IssueCommentGithubEventsService </title>
<polygon fill="#fb8072" stroke="black" points="1816.47,-214.8 1593.53,-214.8 1593.53,-178.8 1816.47,-178.8 1816.47,-214.8"/>
<text text-anchor="middle" x="1705" y="-192.6" font-family="Times,serif" font-size="14.00">IssueCommentGithubEventsService </text>
</g>
<!-- TimescaleModule&#45;&gt;IssueCommentGithubEventsService  -->
<g id="edge4" class="edge">
<title>TimescaleModule&#45;&gt;IssueCommentGithubEventsService </title>
<path fill="none" stroke="black" stroke-dasharray="5,2" d="M1345.61,-140.8C1449.91,-140.8 1656.9,-140.8 1656.9,-140.8 1656.9,-140.8 1656.9,-168.77 1656.9,-168.77"/>
<polygon fill="black" stroke="black" points="1653.4,-168.77 1656.9,-178.77 1660.4,-168.77 1653.4,-168.77"/>
</g>
<!-- IssueGithubEventsService  -->
<g id="node6" class="node">
<title>IssueGithubEventsService </title>
<polygon fill="#fb8072" stroke="black" points="1575.75,-214.8 1408.25,-214.8 1408.25,-178.8 1575.75,-178.8 1575.75,-214.8"/>
<text text-anchor="middle" x="1492" y="-192.6" font-family="Times,serif" font-size="14.00">IssueGithubEventsService </text>
</g>
<!-- TimescaleModule&#45;&gt;IssueGithubEventsService  -->
<g id="edge5" class="edge">
<title>TimescaleModule&#45;&gt;IssueGithubEventsService </title>
<path fill="none" stroke="black" stroke-dasharray="5,2" d="M1345.65,-145.8C1378.6,-145.8 1413.17,-145.8 1413.17,-145.8 1413.17,-145.8 1413.17,-168.68 1413.17,-168.68"/>
<polygon fill="black" stroke="black" points="1409.67,-168.68 1413.17,-178.68 1416.67,-168.68 1409.67,-168.68"/>
</g>
<!-- PullRequestGithubEventsService  -->
<g id="node7" class="node">
<title>PullRequestGithubEventsService </title>
<polygon fill="#fb8072" stroke="black" points="1390.14,-214.8 1183.86,-214.8 1183.86,-178.8 1390.14,-178.8 1390.14,-214.8"/>
<text text-anchor="middle" x="1287" y="-192.6" font-family="Times,serif" font-size="14.00">PullRequestGithubEventsService </text>
</g>
<!-- TimescaleModule&#45;&gt;PullRequestGithubEventsService  -->
<g id="edge6" class="edge">
<title>TimescaleModule&#45;&gt;PullRequestGithubEventsService </title>
<path fill="none" stroke="black" stroke-dasharray="5,2" d="M1287,-149.91C1287,-149.91 1287,-168.79 1287,-168.79"/>
<polygon fill="black" stroke="black" points="1283.5,-168.79 1287,-178.79 1290.5,-168.79 1283.5,-168.79"/>
</g>
<!-- PullRequestReviewGithubEventsService  -->
<g id="node8" class="node">
<title>PullRequestReviewGithubEventsService </title>
<polygon fill="#fb8072" stroke="black" points="1165.41,-214.8 916.59,-214.8 916.59,-178.8 1165.41,-178.8 1165.41,-214.8"/>
<text text-anchor="middle" x="1041" y="-192.6" font-family="Times,serif" font-size="14.00">PullRequestReviewGithubEventsService </text>
</g>
<!-- TimescaleModule&#45;&gt;PullRequestReviewGithubEventsService  -->
<g id="edge7" class="edge">
<title>TimescaleModule&#45;&gt;PullRequestReviewGithubEventsService </title>
<path fill="none" stroke="black" stroke-dasharray="5,2" d="M1228.25,-145.8C1195.24,-145.8 1160.62,-145.8 1160.62,-145.8 1160.62,-145.8 1160.62,-168.68 1160.62,-168.68"/>
<polygon fill="black" stroke="black" points="1157.12,-168.68 1160.62,-178.68 1164.12,-168.68 1157.12,-168.68"/>
</g>
<!-- PushGithubEventsService  -->
<g id="node9" class="node">
<title>PushGithubEventsService </title>
<polygon fill="#fb8072" stroke="black" points="898.71,-214.8 733.29,-214.8 733.29,-178.8 898.71,-178.8 898.71,-214.8"/>
<text text-anchor="middle" x="816" y="-192.6" font-family="Times,serif" font-size="14.00">PushGithubEventsService </text>
</g>
<!-- TimescaleModule&#45;&gt;PushGithubEventsService  -->
<g id="edge8" class="edge">
<title>TimescaleModule&#45;&gt;PushGithubEventsService </title>
<path fill="none" stroke="black" stroke-dasharray="5,2" d="M1228.06,-140.8C1116.94,-140.8 887.54,-140.8 887.54,-140.8 887.54,-140.8 887.54,-168.77 887.54,-168.77"/>
<polygon fill="black" stroke="black" points="884.04,-168.77 887.54,-178.77 891.04,-168.77 884.04,-168.77"/>
</g>
<!-- WatchGithubEventsService  -->
<g id="node10" class="node">
<title>WatchGithubEventsService </title>
<polygon fill="#fb8072" stroke="black" points="715.5,-214.8 540.5,-214.8 540.5,-178.8 715.5,-178.8 715.5,-214.8"/>
<text text-anchor="middle" x="628" y="-192.6" font-family="Times,serif" font-size="14.00">WatchGithubEventsService </text>
</g>
<!-- TimescaleModule&#45;&gt;WatchGithubEventsService  -->
<g id="edge9" class="edge">
<title>TimescaleModule&#45;&gt;WatchGithubEventsService </title>
<path fill="none" stroke="black" stroke-dasharray="5,2" d="M1228.23,-136.8C1066.71,-136.8 628,-136.8 628,-136.8 628,-136.8 628,-168.8 628,-168.8"/>
<polygon fill="black" stroke="black" points="624.5,-168.8 628,-178.8 631.5,-168.8 624.5,-168.8"/>
</g>
<!-- ForkGithubEventsService -->
<g id="node11" class="node">
<title>ForkGithubEventsService</title>
<ellipse fill="#fdb462" stroke="black" cx="1849" cy="-66.8" rx="111.19" ry="18"/>
<text text-anchor="middle" x="1849" y="-62.6" font-family="Times,serif" font-size="14.00">ForkGithubEventsService</text>
</g>
<!-- ForkGithubEventsService&#45;&gt;TimescaleModule -->
<g id="edge10" class="edge">
<title>ForkGithubEventsService&#45;&gt;TimescaleModule</title>
<path fill="none" stroke="black" d="M1776.94,-80.64C1776.94,-97.23 1776.94,-122.8 1776.94,-122.8 1776.94,-122.8 1355.61,-122.8 1355.61,-122.8"/>
<polygon fill="black" stroke="black" points="1355.61,-119.3 1345.61,-122.8 1355.61,-126.3 1355.61,-119.3"/>
</g>
<!-- IssueCommentGithubEventsService -->
<g id="node12" class="node">
<title>IssueCommentGithubEventsService</title>
<ellipse fill="#fdb462" stroke="black" cx="1569" cy="-66.8" rx="151.08" ry="18"/>
<text text-anchor="middle" x="1569" y="-62.6" font-family="Times,serif" font-size="14.00">IssueCommentGithubEventsService</text>
</g>
<!-- IssueCommentGithubEventsService&#45;&gt;TimescaleModule -->
<g id="edge11" class="edge">
<title>IssueCommentGithubEventsService&#45;&gt;TimescaleModule</title>
<path fill="none" stroke="black" d="M1496.79,-82.68C1496.79,-97.98 1496.79,-118.8 1496.79,-118.8 1496.79,-118.8 1355.72,-118.8 1355.72,-118.8"/>
<polygon fill="black" stroke="black" points="1355.72,-115.3 1345.72,-118.8 1355.72,-122.3 1355.72,-115.3"/>
</g>
<!-- IssueGithubEventsService -->
<g id="node13" class="node">
<title>IssueGithubEventsService</title>
<ellipse fill="#fdb462" stroke="black" cx="1287" cy="-66.8" rx="112.9" ry="18"/>
<text text-anchor="middle" x="1287" y="-62.6" font-family="Times,serif" font-size="14.00">IssueGithubEventsService</text>
</g>
<!-- IssueGithubEventsService&#45;&gt;TimescaleModule -->
<g id="edge12" class="edge">
<title>IssueGithubEventsService&#45;&gt;TimescaleModule</title>
<path fill="none" stroke="black" d="M1287,-84.91C1287,-84.91 1287,-103.79 1287,-103.79"/>
<polygon fill="black" stroke="black" points="1283.5,-103.79 1287,-113.79 1290.5,-103.79 1283.5,-103.79"/>
</g>
<!-- PullRequestGithubEventsService -->
<g id="node14" class="node">
<title>PullRequestGithubEventsService</title>
<ellipse fill="#fdb462" stroke="black" cx="1016" cy="-66.8" rx="139.56" ry="18"/>
<text text-anchor="middle" x="1016" y="-62.6" font-family="Times,serif" font-size="14.00">PullRequestGithubEventsService</text>
</g>
<!-- PullRequestGithubEventsService&#45;&gt;TimescaleModule -->
<g id="edge13" class="edge">
<title>PullRequestGithubEventsService&#45;&gt;TimescaleModule</title>
<path fill="none" stroke="black" d="M1036.16,-84.7C1036.16,-99.74 1036.16,-118.8 1036.16,-118.8 1036.16,-118.8 1218.19,-118.8 1218.19,-118.8"/>
<polygon fill="black" stroke="black" points="1218.19,-122.3 1228.19,-118.8 1218.19,-115.3 1218.19,-122.3"/>
</g>
<!-- PullRequestReviewGithubEventsService -->
<g id="node15" class="node">
<title>PullRequestReviewGithubEventsService</title>
<ellipse fill="#fdb462" stroke="black" cx="689" cy="-66.8" rx="169.06" ry="18"/>
<text text-anchor="middle" x="689" y="-62.6" font-family="Times,serif" font-size="14.00">PullRequestReviewGithubEventsService</text>
</g>
<!-- PullRequestReviewGithubEventsService&#45;&gt;TimescaleModule -->
<g id="edge14" class="edge">
<title>PullRequestReviewGithubEventsService&#45;&gt;TimescaleModule</title>
<path fill="none" stroke="black" d="M795.71,-80.93C795.71,-97.52 795.71,-122.8 795.71,-122.8 795.71,-122.8 1218.23,-122.8 1218.23,-122.8"/>
<polygon fill="black" stroke="black" points="1218.23,-126.3 1228.23,-122.8 1218.23,-119.3 1218.23,-126.3"/>
</g>
<!-- PushGithubEventsService -->
<g id="node16" class="node">
<title>PushGithubEventsService</title>
<ellipse fill="#fdb462" stroke="black" cx="390" cy="-66.8" rx="111.78" ry="18"/>
<text text-anchor="middle" x="390" y="-62.6" font-family="Times,serif" font-size="14.00">PushGithubEventsService</text>
</g>
<!-- PushGithubEventsService&#45;&gt;TimescaleModule -->
<g id="edge15" class="edge">
<title>PushGithubEventsService&#45;&gt;TimescaleModule</title>
<path fill="none" stroke="black" d="M390,-85.1C390,-103.07 390,-127.8 390,-127.8 390,-127.8 1218.15,-127.8 1218.15,-127.8"/>
<polygon fill="black" stroke="black" points="1218.15,-131.3 1228.15,-127.8 1218.15,-124.3 1218.15,-131.3"/>
</g>
<!-- WatchGithubEventsService -->
<g id="node17" class="node">
<title>WatchGithubEventsService</title>
<ellipse fill="#fdb462" stroke="black" cx="142" cy="-66.8" rx="118.1" ry="18"/>
<text text-anchor="middle" x="142" y="-62.6" font-family="Times,serif" font-size="14.00">WatchGithubEventsService</text>
</g>
<!-- WatchGithubEventsService&#45;&gt;TimescaleModule -->
<g id="edge16" class="edge">
<title>WatchGithubEventsService&#45;&gt;TimescaleModule</title>
<path fill="none" stroke="black" d="M142,-84.91C142,-104.14 142,-131.8 142,-131.8 142,-131.8 1218.25,-131.8 1218.25,-131.8"/>
<polygon fill="black" stroke="black" points="1218.25,-135.3 1228.25,-131.8 1218.25,-128.3 1218.25,-135.3"/>
</g>
</g>
</svg>
