<?xml version="1.0" encoding="UTF-8" standalone="no"?>
<!DOCTYPE svg PUBLIC "-//W3C//DTD SVG 1.1//EN"
 "http://www.w3.org/Graphics/SVG/1.1/DTD/svg11.dtd">
<!-- Generated by graphviz version 3.0.0 (20220226.1711)
 -->
<!-- Title: dependencies Pages: 1 -->
<svg width="2124pt" height="247pt"
 viewBox="0.00 0.00 2124.00 246.80" xmlns="http://www.w3.org/2000/svg" xmlns:xlink="http://www.w3.org/1999/xlink">
<g id="graph0" class="graph" transform="scale(1 1) rotate(0) translate(4 242.8)">
<title>dependencies</title>
<polygon fill="white" stroke="transparent" points="-4,4 -4,-242.8 2120,-242.8 2120,4 -4,4"/>
<text text-anchor="middle" x="1058" y="-8.2" font-family="sans-serif" font-size="14.00">dependencies</text>
<g id="clust1" class="cluster">
<title>cluster_TimescaleModule</title>
<polygon fill="none" stroke="black" stroke-dasharray="1,5" points="8,-32.8 8,-230.8 2108,-230.8 2108,-32.8 8,-32.8"/>
</g>
<g id="clust6" class="cluster">
<title>cluster_TimescaleModule_providers</title>
<polygon fill="none" stroke="black" points="148,-40.8 148,-92.8 2100,-92.8 2100,-40.8 148,-40.8"/>
</g>
<g id="clust3" class="cluster">
<title>cluster_TimescaleModule_imports</title>
<polygon fill="none" stroke="black" points="16,-40.8 16,-92.8 140,-92.8 140,-40.8 16,-40.8"/>
</g>
<g id="clust4" class="cluster">
<title>cluster_TimescaleModule_exports</title>
<polygon fill="none" stroke="black" points="229,-170.8 229,-222.8 1704,-222.8 1704,-170.8 229,-170.8"/>
</g>
<!-- UserListModule -->
<g id="node1" class="node">
<title>UserListModule</title>
<polygon fill="#8dd3c7" stroke="black" points="131.77,-84.8 128.77,-88.8 107.77,-88.8 104.77,-84.8 24.23,-84.8 24.23,-48.8 131.77,-48.8 131.77,-84.8"/>
<text text-anchor="middle" x="78" y="-62.6" font-family="Times,serif" font-size="14.00">UserListModule</text>
</g>
<!-- TimescaleModule -->
<g id="node2" class="node">
<title>TimescaleModule</title>
<polygon fill="#8dd3c7" stroke="black" points="1042.58,-149.8 1039.58,-153.8 1018.58,-153.8 1015.58,-149.8 925.42,-149.8 925.42,-113.8 1042.58,-113.8 1042.58,-149.8"/>
<text text-anchor="middle" x="984" y="-127.6" font-family="Times,serif" font-size="14.00">TimescaleModule</text>
</g>
<!-- UserListModule&#45;&gt;TimescaleModule -->
<g id="edge1" class="edge">
<title>UserListModule&#45;&gt;TimescaleModule</title>
<path fill="none" stroke="black" d="M78,-85.02C78,-103.63 78,-129.8 78,-129.8 78,-129.8 915.25,-129.8 915.25,-129.8"/>
<polygon fill="black" stroke="black" points="915.25,-133.3 925.25,-129.8 915.25,-126.3 915.25,-133.3"/>
</g>
<!-- ForkGithubEventsService  -->
<g id="node3" class="node">
<title>ForkGithubEventsService </title>
<polygon fill="#fb8072" stroke="black" points="1696.42,-214.8 1531.58,-214.8 1531.58,-178.8 1696.42,-178.8 1696.42,-214.8"/>
<text text-anchor="middle" x="1614" y="-192.6" font-family="Times,serif" font-size="14.00">ForkGithubEventsService </text>
</g>
<!-- TimescaleModule&#45;&gt;ForkGithubEventsService  -->
<g id="edge2" class="edge">
<title>TimescaleModule&#45;&gt;ForkGithubEventsService </title>
<path fill="none" stroke="black" stroke-dasharray="5,2" d="M1042.55,-134.8C1185.55,-134.8 1540.95,-134.8 1540.95,-134.8 1540.95,-134.8 1540.95,-168.53 1540.95,-168.53"/>
<polygon fill="black" stroke="black" points="1537.45,-168.53 1540.95,-178.53 1544.45,-168.53 1537.45,-168.53"/>
</g>
<!-- IssueCommentGithubEventsService  -->
<g id="node4" class="node">
<title>IssueCommentGithubEventsService </title>
<polygon fill="#fb8072" stroke="black" points="1513.47,-214.8 1290.53,-214.8 1290.53,-178.8 1513.47,-178.8 1513.47,-214.8"/>
<text text-anchor="middle" x="1402" y="-192.6" font-family="Times,serif" font-size="14.00">IssueCommentGithubEventsService </text>
</g>
<!-- TimescaleModule&#45;&gt;IssueCommentGithubEventsService  -->
<g id="edge3" class="edge">
<title>TimescaleModule&#45;&gt;IssueCommentGithubEventsService </title>
<path fill="none" stroke="black" stroke-dasharray="5,2" d="M1042.77,-139.8C1133.77,-139.8 1298.41,-139.8 1298.41,-139.8 1298.41,-139.8 1298.41,-168.76 1298.41,-168.76"/>
<polygon fill="black" stroke="black" points="1294.91,-168.76 1298.41,-178.76 1301.91,-168.76 1294.91,-168.76"/>
</g>
<!-- IssueGithubEventsService  -->
<g id="node5" class="node">
<title>IssueGithubEventsService </title>
<polygon fill="#fb8072" stroke="black" points="1272.75,-214.8 1105.25,-214.8 1105.25,-178.8 1272.75,-178.8 1272.75,-214.8"/>
<text text-anchor="middle" x="1189" y="-192.6" font-family="Times,serif" font-size="14.00">IssueGithubEventsService </text>
</g>
<!-- TimescaleModule&#45;&gt;IssueGithubEventsService  -->
<g id="edge4" class="edge">
<title>TimescaleModule&#45;&gt;IssueGithubEventsService </title>
<path fill="none" stroke="black" stroke-dasharray="5,2" d="M1042.74,-144.8C1103.32,-144.8 1189,-144.8 1189,-144.8 1189,-144.8 1189,-168.61 1189,-168.61"/>
<polygon fill="black" stroke="black" points="1185.5,-168.61 1189,-178.61 1192.5,-168.61 1185.5,-168.61"/>
</g>
<!-- PullRequestGithubEventsService  -->
<g id="node6" class="node">
<title>PullRequestGithubEventsService </title>
<polygon fill="#fb8072" stroke="black" points="1087.14,-214.8 880.86,-214.8 880.86,-178.8 1087.14,-178.8 1087.14,-214.8"/>
<text text-anchor="middle" x="984" y="-192.6" font-family="Times,serif" font-size="14.00">PullRequestGithubEventsService </text>
</g>
<!-- TimescaleModule&#45;&gt;PullRequestGithubEventsService  -->
<g id="edge5" class="edge">
<title>TimescaleModule&#45;&gt;PullRequestGithubEventsService </title>
<path fill="none" stroke="black" stroke-dasharray="5,2" d="M984,-149.91C984,-149.91 984,-168.79 984,-168.79"/>
<polygon fill="black" stroke="black" points="980.5,-168.79 984,-178.79 987.5,-168.79 980.5,-168.79"/>
</g>
<!-- PullRequestReviewGithubEventsService  -->
<g id="node7" class="node">
<title>PullRequestReviewGithubEventsService </title>
<polygon fill="#fb8072" stroke="black" points="862.41,-214.8 613.59,-214.8 613.59,-178.8 862.41,-178.8 862.41,-214.8"/>
<text text-anchor="middle" x="738" y="-192.6" font-family="Times,serif" font-size="14.00">PullRequestReviewGithubEventsService </text>
</g>
<!-- TimescaleModule&#45;&gt;PullRequestReviewGithubEventsService  -->
<g id="edge6" class="edge">
<title>TimescaleModule&#45;&gt;PullRequestReviewGithubEventsService </title>
<path fill="none" stroke="black" stroke-dasharray="5,2" d="M925.27,-144.8C858.04,-144.8 757.09,-144.8 757.09,-144.8 757.09,-144.8 757.09,-168.61 757.09,-168.61"/>
<polygon fill="black" stroke="black" points="753.59,-168.61 757.09,-178.61 760.59,-168.61 753.59,-168.61"/>
</g>
<!-- PushGithubEventsService  -->
<g id="node8" class="node">
<title>PushGithubEventsService </title>
<polygon fill="#fb8072" stroke="black" points="595.71,-214.8 430.29,-214.8 430.29,-178.8 595.71,-178.8 595.71,-214.8"/>
<text text-anchor="middle" x="513" y="-192.6" font-family="Times,serif" font-size="14.00">PushGithubEventsService </text>
</g>
<!-- TimescaleModule&#45;&gt;PushGithubEventsService  -->
<g id="edge7" class="edge">
<title>TimescaleModule&#45;&gt;PushGithubEventsService </title>
<path fill="none" stroke="black" stroke-dasharray="5,2" d="M925.3,-139.8C799.04,-139.8 513,-139.8 513,-139.8 513,-139.8 513,-168.76 513,-168.76"/>
<polygon fill="black" stroke="black" points="509.5,-168.76 513,-178.76 516.5,-168.76 509.5,-168.76"/>
</g>
<!-- WatchGithubEventsService  -->
<g id="node9" class="node">
<title>WatchGithubEventsService </title>
<polygon fill="#fb8072" stroke="black" points="412.5,-214.8 237.5,-214.8 237.5,-178.8 412.5,-178.8 412.5,-214.8"/>
<text text-anchor="middle" x="325" y="-192.6" font-family="Times,serif" font-size="14.00">WatchGithubEventsService </text>
</g>
<!-- TimescaleModule&#45;&gt;WatchGithubEventsService  -->
<g id="edge8" class="edge">
<title>TimescaleModule&#45;&gt;WatchGithubEventsService </title>
<path fill="none" stroke="black" stroke-dasharray="5,2" d="M925.45,-134.8C777.66,-134.8 401.21,-134.8 401.21,-134.8 401.21,-134.8 401.21,-168.53 401.21,-168.53"/>
<polygon fill="black" stroke="black" points="397.71,-168.53 401.21,-178.53 404.71,-168.53 397.71,-168.53"/>
</g>
<!-- ForkGithubEventsService -->
<g id="node10" class="node">
<title>ForkGithubEventsService</title>
<ellipse fill="#fdb462" stroke="black" cx="1981" cy="-66.8" rx="111.19" ry="18"/>
<text text-anchor="middle" x="1981" y="-62.6" font-family="Times,serif" font-size="14.00">ForkGithubEventsService</text>
</g>
<!-- ForkGithubEventsService&#45;&gt;TimescaleModule -->
<g id="edge9" class="edge">
<title>ForkGithubEventsService&#45;&gt;TimescaleModule</title>
<path fill="none" stroke="black" d="M1981,-85.02C1981,-103.63 1981,-129.8 1981,-129.8 1981,-129.8 1052.64,-129.8 1052.64,-129.8"/>
<polygon fill="black" stroke="black" points="1052.64,-126.3 1042.64,-129.8 1052.64,-133.3 1052.64,-126.3"/>
</g>
<!-- IssueCommentGithubEventsService -->
<g id="node11" class="node">
<title>IssueCommentGithubEventsService</title>
<ellipse fill="#fdb462" stroke="black" cx="1701" cy="-66.8" rx="151.08" ry="18"/>
<text text-anchor="middle" x="1701" y="-62.6" font-family="Times,serif" font-size="14.00">IssueCommentGithubEventsService</text>
</g>
<!-- IssueCommentGithubEventsService&#45;&gt;TimescaleModule -->
<g id="edge10" class="edge">
<title>IssueCommentGithubEventsService&#45;&gt;TimescaleModule</title>
<path fill="none" stroke="black" d="M1623.21,-82.34C1623.21,-99.52 1623.21,-124.8 1623.21,-124.8 1623.21,-124.8 1052.7,-124.8 1052.7,-124.8"/>
<polygon fill="black" stroke="black" points="1052.7,-121.3 1042.7,-124.8 1052.7,-128.3 1052.7,-121.3"/>
</g>
<!-- IssueGithubEventsService -->
<g id="node12" class="node">
<title>IssueGithubEventsService</title>
<ellipse fill="#fdb462" stroke="black" cx="1419" cy="-66.8" rx="112.9" ry="18"/>
<text text-anchor="middle" x="1419" y="-62.6" font-family="Times,serif" font-size="14.00">IssueGithubEventsService</text>
</g>
<!-- IssueGithubEventsService&#45;&gt;TimescaleModule -->
<g id="edge11" class="edge">
<title>IssueGithubEventsService&#45;&gt;TimescaleModule</title>
<path fill="none" stroke="black" d="M1409.64,-84.74C1409.64,-100.12 1409.64,-119.8 1409.64,-119.8 1409.64,-119.8 1052.74,-119.8 1052.74,-119.8"/>
<polygon fill="black" stroke="black" points="1052.74,-116.3 1042.74,-119.8 1052.74,-123.3 1052.74,-116.3"/>
</g>
<!-- PullRequestGithubEventsService -->
<g id="node13" class="node">
<title>PullRequestGithubEventsService</title>
<ellipse fill="#fdb462" stroke="black" cx="1148" cy="-66.8" rx="139.56" ry="18"/>
<text text-anchor="middle" x="1148" y="-62.6" font-family="Times,serif" font-size="14.00">PullRequestGithubEventsService</text>
</g>
<!-- PullRequestGithubEventsService&#45;&gt;TimescaleModule -->
<g id="edge12" class="edge">
<title>PullRequestGithubEventsService&#45;&gt;TimescaleModule</title>
<path fill="none" stroke="black" d="M1025.38,-75.57C1025.38,-75.57 1025.38,-103.6 1025.38,-103.6"/>
<polygon fill="black" stroke="black" points="1021.88,-103.6 1025.38,-113.6 1028.88,-103.6 1021.88,-103.6"/>
</g>
<!-- PullRequestReviewGithubEventsService -->
<g id="node14" class="node">
<title>PullRequestReviewGithubEventsService</title>
<ellipse fill="#fdb462" stroke="black" cx="821" cy="-66.8" rx="169.06" ry="18"/>
<text text-anchor="middle" x="821" y="-62.6" font-family="Times,serif" font-size="14.00">PullRequestReviewGithubEventsService</text>
</g>
<!-- PullRequestReviewGithubEventsService&#45;&gt;TimescaleModule -->
<g id="edge13" class="edge">
<title>PullRequestReviewGithubEventsService&#45;&gt;TimescaleModule</title>
<path fill="none" stroke="black" d="M957.87,-77.53C957.87,-77.53 957.87,-103.67 957.87,-103.67"/>
<polygon fill="black" stroke="black" points="954.37,-103.67 957.87,-113.67 961.37,-103.67 954.37,-103.67"/>
</g>
<!-- PushGithubEventsService -->
<g id="node15" class="node">
<title>PushGithubEventsService</title>
<ellipse fill="#fdb462" stroke="black" cx="522" cy="-66.8" rx="111.78" ry="18"/>
<text text-anchor="middle" x="522" y="-62.6" font-family="Times,serif" font-size="14.00">PushGithubEventsService</text>
</g>
<!-- PushGithubEventsService&#45;&gt;TimescaleModule -->
<g id="edge14" class="edge">
<title>PushGithubEventsService&#45;&gt;TimescaleModule</title>
<path fill="none" stroke="black" d="M623.72,-74.62C623.72,-89.36 623.72,-119.8 623.72,-119.8 623.72,-119.8 915.31,-119.8 915.31,-119.8"/>
<polygon fill="black" stroke="black" points="915.31,-123.3 925.31,-119.8 915.31,-116.3 915.31,-123.3"/>
</g>
<!-- WatchGithubEventsService -->
<g id="node16" class="node">
<title>WatchGithubEventsService</title>
<ellipse fill="#fdb462" stroke="black" cx="274" cy="-66.8" rx="118.1" ry="18"/>
<text text-anchor="middle" x="274" y="-62.6" font-family="Times,serif" font-size="14.00">WatchGithubEventsService</text>
</g>
<!-- WatchGithubEventsService&#45;&gt;TimescaleModule -->
<g id="edge15" class="edge">
<title>WatchGithubEventsService&#45;&gt;TimescaleModule</title>
<path fill="none" stroke="black" d="M314.9,-83.89C314.9,-101 314.9,-124.8 314.9,-124.8 314.9,-124.8 915.21,-124.8 915.21,-124.8"/>
<polygon fill="black" stroke="black" points="915.21,-128.3 925.21,-124.8 915.21,-121.3 915.21,-128.3"/>
</g>
</g>
</svg>
