<?xml version="1.0" encoding="UTF-8" standalone="no"?>
<!DOCTYPE svg PUBLIC "-//W3C//DTD SVG 1.1//EN"
 "http://www.w3.org/Graphics/SVG/1.1/DTD/svg11.dtd">
<!-- Generated by graphviz version 3.0.0 (20220226.1711)
 -->
<!-- Title: dependencies Pages: 1 -->
<svg width="575pt" height="247pt"
 viewBox="0.00 0.00 575.00 246.80" xmlns="http://www.w3.org/2000/svg" xmlns:xlink="http://www.w3.org/1999/xlink">
<g id="graph0" class="graph" transform="scale(1 1) rotate(0) translate(4 242.8)">
<title>dependencies</title>
<polygon fill="white" stroke="transparent" points="-4,4 -4,-242.8 571,-242.8 571,4 -4,4"/>
<text text-anchor="middle" x="283.5" y="-8.2" font-family="sans-serif" font-size="14.00">dependencies</text>
<g id="clust1" class="cluster">
<title>cluster_TimescaleModule</title>
<polygon fill="none" stroke="black" stroke-dasharray="1,5" points="8,-32.8 8,-230.8 559,-230.8 559,-32.8 8,-32.8"/>
</g>
<g id="clust6" class="cluster">
<title>cluster_TimescaleModule_providers</title>
<polygon fill="none" stroke="black" points="255,-40.8 255,-92.8 551,-92.8 551,-40.8 255,-40.8"/>
</g>
<g id="clust3" class="cluster">
<title>cluster_TimescaleModule_imports</title>
<polygon fill="none" stroke="black" points="16,-40.8 16,-92.8 247,-92.8 247,-40.8 16,-40.8"/>
</g>
<g id="clust4" class="cluster">
<title>cluster_TimescaleModule_exports</title>
<polygon fill="none" stroke="black" points="83,-170.8 83,-222.8 305,-222.8 305,-170.8 83,-170.8"/>
</g>
<!-- RepoModule -->
<g id="node1" class="node">
<title>RepoModule</title>
<polygon fill="#8dd3c7" stroke="black" points="238.6,-84.8 235.6,-88.8 214.6,-88.8 211.6,-84.8 149.4,-84.8 149.4,-48.8 238.6,-48.8 238.6,-84.8"/>
<text text-anchor="middle" x="194" y="-62.6" font-family="Times,serif" font-size="14.00">RepoModule</text>
</g>
<!-- TimescaleModule -->
<g id="node3" class="node">
<title>TimescaleModule</title>
<polygon fill="#8dd3c7" stroke="black" points="252.58,-149.8 249.58,-153.8 228.58,-153.8 225.58,-149.8 135.42,-149.8 135.42,-113.8 252.58,-113.8 252.58,-149.8"/>
<text text-anchor="middle" x="194" y="-127.6" font-family="Times,serif" font-size="14.00">TimescaleModule</text>
</g>
<!-- RepoModule&#45;&gt;TimescaleModule -->
<g id="edge1" class="edge">
<title>RepoModule&#45;&gt;TimescaleModule</title>
<path fill="none" stroke="black" d="M194,-84.91C194,-84.91 194,-103.79 194,-103.79"/>
<polygon fill="black" stroke="black" points="190.5,-103.79 194,-113.79 197.5,-103.79 190.5,-103.79"/>
</g>
<!-- UserListModule -->
<g id="node2" class="node">
<title>UserListModule</title>
<polygon fill="#8dd3c7" stroke="black" points="131.77,-84.8 128.77,-88.8 107.77,-88.8 104.77,-84.8 24.23,-84.8 24.23,-48.8 131.77,-48.8 131.77,-84.8"/>
<text text-anchor="middle" x="78" y="-62.6" font-family="Times,serif" font-size="14.00">UserListModule</text>
</g>
<!-- UserListModule&#45;&gt;TimescaleModule -->
<g id="edge2" class="edge">
<title>UserListModule&#45;&gt;TimescaleModule</title>
<path fill="none" stroke="black" d="M131.81,-66.8C138.17,-66.8 142.46,-66.8 142.46,-66.8 142.46,-66.8 142.46,-103.69 142.46,-103.69"/>
<polygon fill="black" stroke="black" points="138.96,-103.69 142.46,-113.69 145.96,-103.69 138.96,-103.69"/>
</g>
<!-- PullRequestGithubEventsService  -->
<g id="node4" class="node">
<title>PullRequestGithubEventsService </title>
<polygon fill="#fb8072" stroke="black" points="297.14,-214.8 90.86,-214.8 90.86,-178.8 297.14,-178.8 297.14,-214.8"/>
<text text-anchor="middle" x="194" y="-192.6" font-family="Times,serif" font-size="14.00">PullRequestGithubEventsService </text>
</g>
<!-- TimescaleModule&#45;&gt;PullRequestGithubEventsService  -->
<g id="edge3" class="edge">
<title>TimescaleModule&#45;&gt;PullRequestGithubEventsService </title>
<path fill="none" stroke="black" stroke-dasharray="5,2" d="M194,-149.91C194,-149.91 194,-168.79 194,-168.79"/>
<polygon fill="black" stroke="black" points="190.5,-168.79 194,-178.79 197.5,-168.79 190.5,-168.79"/>
</g>
<!-- PullRequestGithubEventsService -->
<g id="node5" class="node">
<title>PullRequestGithubEventsService</title>
<ellipse fill="#fdb462" stroke="black" cx="403" cy="-66.8" rx="139.56" ry="18"/>
<text text-anchor="middle" x="403" y="-62.6" font-family="Times,serif" font-size="14.00">PullRequestGithubEventsService</text>
</g>
<!-- PullRequestGithubEventsService&#45;&gt;TimescaleModule -->
<g id="edge4" class="edge">
<title>PullRequestGithubEventsService&#45;&gt;TimescaleModule</title>
<path fill="none" stroke="black" d="M263,-66.8C252.29,-66.8 245.54,-66.8 245.54,-66.8 245.54,-66.8 245.54,-103.69 245.54,-103.69"/>
<polygon fill="black" stroke="black" points="242.05,-103.69 245.54,-113.69 249.05,-103.69 242.05,-103.69"/>
</g>
</g>
</svg>
