<?xml version="1.0" encoding="UTF-8" standalone="no"?>
<!DOCTYPE svg PUBLIC "-//W3C//DTD SVG 1.1//EN"
 "http://www.w3.org/Graphics/SVG/1.1/DTD/svg11.dtd">
<!-- Generated by graphviz version 3.0.0 (20220226.1711)
 -->
<!-- Title: dependencies Pages: 1 -->
<svg width="1474pt" height="247pt"
 viewBox="0.00 0.00 1474.00 246.80" xmlns="http://www.w3.org/2000/svg" xmlns:xlink="http://www.w3.org/1999/xlink">
<g id="graph0" class="graph" transform="scale(1 1) rotate(0) translate(4 242.8)">
<title>dependencies</title>
<polygon fill="white" stroke="transparent" points="-4,4 -4,-242.8 1470,-242.8 1470,4 -4,4"/>
<text text-anchor="middle" x="733" y="-8.2" font-family="sans-serif" font-size="14.00">dependencies</text>
<g id="clust1" class="cluster">
<title>cluster_WorkspaceModule</title>
<polygon fill="none" stroke="black" stroke-dasharray="1,5" points="8,-32.8 8,-230.8 1458,-230.8 1458,-32.8 8,-32.8"/>
</g>
<g id="clust3" class="cluster">
<title>cluster_WorkspaceModule_imports</title>
<polygon fill="none" stroke="black" points="1202,-40.8 1202,-92.8 1450,-92.8 1450,-40.8 1202,-40.8"/>
</g>
<g id="clust4" class="cluster">
<title>cluster_WorkspaceModule_exports</title>
<polygon fill="none" stroke="black" points="380,-170.8 380,-222.8 1276,-222.8 1276,-170.8 380,-170.8"/>
</g>
<g id="clust6" class="cluster">
<title>cluster_WorkspaceModule_providers</title>
<polygon fill="none" stroke="black" points="16,-40.8 16,-92.8 1194,-92.8 1194,-40.8 16,-40.8"/>
</g>
<!-- ApiServicesModule -->
<g id="node1" class="node">
<title>ApiServicesModule</title>
<polygon fill="#8dd3c7" stroke="black" points="1441.98,-84.8 1438.98,-88.8 1417.98,-88.8 1414.98,-84.8 1314.02,-84.8 1314.02,-48.8 1441.98,-48.8 1441.98,-84.8"/>
<text text-anchor="middle" x="1378" y="-62.6" font-family="Times,serif" font-size="14.00">ApiServicesModule</text>
</g>
<!-- WorkspaceModule -->
<g id="node3" class="node">
<title>WorkspaceModule</title>
<polygon fill="#8dd3c7" stroke="black" points="845.02,-149.8 842.02,-153.8 821.02,-153.8 818.02,-149.8 722.98,-149.8 722.98,-113.8 845.02,-113.8 845.02,-149.8"/>
<text text-anchor="middle" x="784" y="-127.6" font-family="Times,serif" font-size="14.00">WorkspaceModule</text>
</g>
<!-- ApiServicesModule&#45;&gt;WorkspaceModule -->
<g id="edge1" class="edge">
<title>ApiServicesModule&#45;&gt;WorkspaceModule</title>
<path fill="none" stroke="black" d="M1378,-84.91C1378,-104.14 1378,-131.8 1378,-131.8 1378,-131.8 855.05,-131.8 855.05,-131.8"/>
<polygon fill="black" stroke="black" points="855.05,-128.3 845.05,-131.8 855.05,-135.3 855.05,-128.3"/>
</g>
<!-- UserModule -->
<g id="node2" class="node">
<title>UserModule</title>
<polygon fill="#8dd3c7" stroke="black" points="1295.99,-84.8 1292.99,-88.8 1271.99,-88.8 1268.99,-84.8 1210.01,-84.8 1210.01,-48.8 1295.99,-48.8 1295.99,-84.8"/>
<text text-anchor="middle" x="1253" y="-62.6" font-family="Times,serif" font-size="14.00">UserModule</text>
</g>
<!-- UserModule&#45;&gt;WorkspaceModule -->
<g id="edge2" class="edge">
<title>UserModule&#45;&gt;WorkspaceModule</title>
<path fill="none" stroke="black" d="M1238.81,-84.82C1238.81,-102.17 1238.81,-125.8 1238.81,-125.8 1238.81,-125.8 855.34,-125.8 855.34,-125.8"/>
<polygon fill="black" stroke="black" points="855.34,-122.3 845.34,-125.8 855.34,-129.3 855.34,-122.3"/>
</g>
<!-- WorkspaceContributorsService  -->
<g id="node4" class="node">
<title>WorkspaceContributorsService </title>
<polygon fill="#fb8072" stroke="black" points="1267.72,-214.8 1072.28,-214.8 1072.28,-178.8 1267.72,-178.8 1267.72,-214.8"/>
<text text-anchor="middle" x="1170" y="-192.6" font-family="Times,serif" font-size="14.00">WorkspaceContributorsService </text>
</g>
<!-- WorkspaceModule&#45;&gt;WorkspaceContributorsService  -->
<g id="edge3" class="edge">
<title>WorkspaceModule&#45;&gt;WorkspaceContributorsService </title>
<path fill="none" stroke="black" stroke-dasharray="5,2" d="M845.34,-137.8C944.57,-137.8 1129.32,-137.8 1129.32,-137.8 1129.32,-137.8 1129.32,-168.78 1129.32,-168.78"/>
<polygon fill="black" stroke="black" points="1125.82,-168.78 1129.32,-178.78 1132.82,-168.78 1125.82,-168.78"/>
</g>
<!-- WorkspaceMembersService  -->
<g id="node5" class="node">
<title>WorkspaceMembersService </title>
<polygon fill="#fb8072" stroke="black" points="1054.82,-214.8 877.18,-214.8 877.18,-178.8 1054.82,-178.8 1054.82,-214.8"/>
<text text-anchor="middle" x="966" y="-192.6" font-family="Times,serif" font-size="14.00">WorkspaceMembersService </text>
</g>
<!-- WorkspaceModule&#45;&gt;WorkspaceMembersService  -->
<g id="edge4" class="edge">
<title>WorkspaceModule&#45;&gt;WorkspaceMembersService </title>
<path fill="none" stroke="black" stroke-dasharray="5,2" d="M845.09,-143.8C868.92,-143.8 890.62,-143.8 890.62,-143.8 890.62,-143.8 890.62,-168.56 890.62,-168.56"/>
<polygon fill="black" stroke="black" points="887.12,-168.56 890.62,-178.56 894.12,-168.56 887.12,-168.56"/>
</g>
<!-- WorkspaceOrgsService  -->
<g id="node6" class="node">
<title>WorkspaceOrgsService </title>
<polygon fill="#fb8072" stroke="black" points="859.67,-214.8 708.33,-214.8 708.33,-178.8 859.67,-178.8 859.67,-214.8"/>
<text text-anchor="middle" x="784" y="-192.6" font-family="Times,serif" font-size="14.00">WorkspaceOrgsService </text>
</g>
<!-- WorkspaceModule&#45;&gt;WorkspaceOrgsService  -->
<g id="edge5" class="edge">
<title>WorkspaceModule&#45;&gt;WorkspaceOrgsService </title>
<path fill="none" stroke="black" stroke-dasharray="5,2" d="M784,-149.91C784,-149.91 784,-168.79 784,-168.79"/>
<polygon fill="black" stroke="black" points="780.5,-168.79 784,-178.79 787.5,-168.79 780.5,-168.79"/>
</g>
<!-- WorkspaceReposService  -->
<g id="node7" class="node">
<title>WorkspaceReposService </title>
<polygon fill="#fb8072" stroke="black" points="689.95,-214.8 530.05,-214.8 530.05,-178.8 689.95,-178.8 689.95,-214.8"/>
<text text-anchor="middle" x="610" y="-192.6" font-family="Times,serif" font-size="14.00">WorkspaceReposService </text>
</g>
<!-- WorkspaceModule&#45;&gt;WorkspaceReposService  -->
<g id="edge6" class="edge">
<title>WorkspaceModule&#45;&gt;WorkspaceReposService </title>
<path fill="none" stroke="black" stroke-dasharray="5,2" d="M722.95,-143.8C698.9,-143.8 676.91,-143.8 676.91,-143.8 676.91,-143.8 676.91,-168.56 676.91,-168.56"/>
<polygon fill="black" stroke="black" points="673.41,-168.56 676.91,-178.56 680.41,-168.56 673.41,-168.56"/>
</g>
<!-- WorkspaceService  -->
<g id="node8" class="node">
<title>WorkspaceService </title>
<polygon fill="#fb8072" stroke="black" points="512.45,-214.8 387.55,-214.8 387.55,-178.8 512.45,-178.8 512.45,-214.8"/>
<text text-anchor="middle" x="450" y="-192.6" font-family="Times,serif" font-size="14.00">WorkspaceService </text>
</g>
<!-- WorkspaceModule&#45;&gt;WorkspaceService  -->
<g id="edge7" class="edge">
<title>WorkspaceModule&#45;&gt;WorkspaceService </title>
<path fill="none" stroke="black" stroke-dasharray="5,2" d="M722.61,-137.8C633.03,-137.8 477.01,-137.8 477.01,-137.8 477.01,-137.8 477.01,-168.78 477.01,-168.78"/>
<polygon fill="black" stroke="black" points="473.51,-168.78 477.01,-178.78 480.51,-168.78 473.51,-168.78"/>
</g>
<!-- WorkspaceContributorsService -->
<g id="node9" class="node">
<title>WorkspaceContributorsService</title>
<ellipse fill="#fdb462" stroke="black" cx="1054" cy="-66.8" rx="132.5" ry="18"/>
<text text-anchor="middle" x="1054" y="-62.6" font-family="Times,serif" font-size="14.00">WorkspaceContributorsService</text>
</g>
<!-- WorkspaceContributorsService&#45;&gt;WorkspaceModule -->
<g id="edge8" class="edge">
<title>WorkspaceContributorsService&#45;&gt;WorkspaceModule</title>
<path fill="none" stroke="black" d="M988.21,-82.42C988.21,-98.05 988.21,-119.8 988.21,-119.8 988.21,-119.8 855.27,-119.8 855.27,-119.8"/>
<polygon fill="black" stroke="black" points="855.27,-116.3 845.27,-119.8 855.27,-123.3 855.27,-116.3"/>
</g>
<!-- WorkspaceMembersService -->
<g id="node10" class="node">
<title>WorkspaceMembersService</title>
<ellipse fill="#fdb462" stroke="black" cx="784" cy="-66.8" rx="119.8" ry="18"/>
<text text-anchor="middle" x="784" y="-62.6" font-family="Times,serif" font-size="14.00">WorkspaceMembersService</text>
</g>
<!-- WorkspaceMembersService&#45;&gt;WorkspaceModule -->
<g id="edge9" class="edge">
<title>WorkspaceMembersService&#45;&gt;WorkspaceModule</title>
<path fill="none" stroke="black" d="M784,-84.91C784,-84.91 784,-103.79 784,-103.79"/>
<polygon fill="black" stroke="black" points="780.5,-103.79 784,-113.79 787.5,-103.79 780.5,-103.79"/>
</g>
<!-- WorkspaceOrgsService -->
<g id="node11" class="node">
<title>WorkspaceOrgsService</title>
<ellipse fill="#fdb462" stroke="black" cx="544" cy="-66.8" rx="102.4" ry="18"/>
<text text-anchor="middle" x="544" y="-62.6" font-family="Times,serif" font-size="14.00">WorkspaceOrgsService</text>
</g>
<!-- WorkspaceOrgsService&#45;&gt;WorkspaceModule -->
<g id="edge10" class="edge">
<title>WorkspaceOrgsService&#45;&gt;WorkspaceModule</title>
<path fill="none" stroke="black" d="M588.24,-83.28C588.24,-98.84 588.24,-119.8 588.24,-119.8 588.24,-119.8 712.87,-119.8 712.87,-119.8"/>
<polygon fill="black" stroke="black" points="712.87,-123.3 722.87,-119.8 712.87,-116.3 712.87,-123.3"/>
</g>
<!-- WorkspaceReposService -->
<g id="node12" class="node">
<title>WorkspaceReposService</title>
<ellipse fill="#fdb462" stroke="black" cx="316" cy="-66.8" rx="107.64" ry="18"/>
<text text-anchor="middle" x="316" y="-62.6" font-family="Times,serif" font-size="14.00">WorkspaceReposService</text>
</g>
<!-- WorkspaceReposService&#45;&gt;WorkspaceModule -->
<g id="edge11" class="edge">
<title>WorkspaceReposService&#45;&gt;WorkspaceModule</title>
<path fill="none" stroke="black" d="M405.67,-76.81C405.67,-93.64 405.67,-125.8 405.67,-125.8 405.67,-125.8 712.79,-125.8 712.79,-125.8"/>
<polygon fill="black" stroke="black" points="712.79,-129.3 722.79,-125.8 712.79,-122.3 712.79,-129.3"/>
</g>
<!-- WorkspaceService -->
<g id="node13" class="node">
<title>WorkspaceService</title>
<ellipse fill="#fdb462" stroke="black" cx="107" cy="-66.8" rx="83.35" ry="18"/>
<text text-anchor="middle" x="107" y="-62.6" font-family="Times,serif" font-size="14.00">WorkspaceService</text>
</g>
<!-- WorkspaceService&#45;&gt;WorkspaceModule -->
<g id="edge12" class="edge">
<title>WorkspaceService&#45;&gt;WorkspaceModule</title>
<path fill="none" stroke="black" d="M107,-84.91C107,-104.14 107,-131.8 107,-131.8 107,-131.8 712.73,-131.8 712.73,-131.8"/>
<polygon fill="black" stroke="black" points="712.73,-135.3 722.73,-131.8 712.73,-128.3 712.73,-135.3"/>
</g>
</g>
</svg>
