<?xml version="1.0" encoding="UTF-8" standalone="no"?>
<!DOCTYPE svg PUBLIC "-//W3C//DTD SVG 1.1//EN"
 "http://www.w3.org/Graphics/SVG/1.1/DTD/svg11.dtd">
<!-- Generated by graphviz version 3.0.0 (20220226.1711)
 -->
<!-- Title: dependencies Pages: 1 -->
<svg width="2098pt" height="247pt"
 viewBox="0.00 0.00 2098.00 246.80" xmlns="http://www.w3.org/2000/svg" xmlns:xlink="http://www.w3.org/1999/xlink">
<g id="graph0" class="graph" transform="scale(1 1) rotate(0) translate(4 242.8)">
<title>dependencies</title>
<polygon fill="white" stroke="transparent" points="-4,4 -4,-242.8 2094,-242.8 2094,4 -4,4"/>
<text text-anchor="middle" x="1045" y="-8.2" font-family="sans-serif" font-size="14.00">dependencies</text>
<g id="clust1" class="cluster">
<title>cluster_WorkspaceModule</title>
<polygon fill="none" stroke="black" stroke-dasharray="1,5" points="8,-32.8 8,-230.8 2082,-230.8 2082,-32.8 8,-32.8"/>
</g>
<g id="clust6" class="cluster">
<title>cluster_WorkspaceModule_providers</title>
<polygon fill="none" stroke="black" points="168,-40.8 168,-92.8 2074,-92.8 2074,-40.8 168,-40.8"/>
</g>
<g id="clust3" class="cluster">
<title>cluster_WorkspaceModule_imports</title>
<polygon fill="none" stroke="black" points="16,-40.8 16,-92.8 160,-92.8 160,-40.8 16,-40.8"/>
</g>
<g id="clust4" class="cluster">
<title>cluster_WorkspaceModule_exports</title>
<polygon fill="none" stroke="black" points="267,-170.8 267,-222.8 1716,-222.8 1716,-170.8 267,-170.8"/>
</g>
<!-- ApiServicesModule -->
<g id="node1" class="node">
<title>ApiServicesModule</title>
<polygon fill="#8dd3c7" stroke="black" points="151.98,-84.8 148.98,-88.8 127.98,-88.8 124.98,-84.8 24.02,-84.8 24.02,-48.8 151.98,-48.8 151.98,-84.8"/>
<text text-anchor="middle" x="88" y="-62.6" font-family="Times,serif" font-size="14.00">ApiServicesModule</text>
</g>
<!-- WorkspaceModule -->
<g id="node2" class="node">
<title>WorkspaceModule</title>
<polygon fill="#8dd3c7" stroke="black" points="1011.02,-149.8 1008.02,-153.8 987.02,-153.8 984.02,-149.8 888.98,-149.8 888.98,-113.8 1011.02,-113.8 1011.02,-149.8"/>
<text text-anchor="middle" x="950" y="-127.6" font-family="Times,serif" font-size="14.00">WorkspaceModule</text>
</g>
<!-- ApiServicesModule&#45;&gt;WorkspaceModule -->
<g id="edge1" class="edge">
<title>ApiServicesModule&#45;&gt;WorkspaceModule</title>
<path fill="none" stroke="black" d="M88,-84.91C88,-104.14 88,-131.8 88,-131.8 88,-131.8 878.7,-131.8 878.7,-131.8"/>
<polygon fill="black" stroke="black" points="878.7,-135.3 888.7,-131.8 878.7,-128.3 878.7,-135.3"/>
</g>
<!-- WorkspaceContributorsService  -->
<g id="node3" class="node">
<title>WorkspaceContributorsService </title>
<polygon fill="#fb8072" stroke="black" points="1707.72,-214.8 1512.28,-214.8 1512.28,-178.8 1707.72,-178.8 1707.72,-214.8"/>
<text text-anchor="middle" x="1610" y="-192.6" font-family="Times,serif" font-size="14.00">WorkspaceContributorsService </text>
</g>
<!-- WorkspaceModule&#45;&gt;WorkspaceContributorsService  -->
<g id="edge2" class="edge">
<title>WorkspaceModule&#45;&gt;WorkspaceContributorsService </title>
<path fill="none" stroke="black" stroke-dasharray="5,2" d="M1011.28,-136.8C1159.47,-136.8 1525.14,-136.8 1525.14,-136.8 1525.14,-136.8 1525.14,-168.8 1525.14,-168.8"/>
<polygon fill="black" stroke="black" points="1521.64,-168.8 1525.14,-178.8 1528.64,-168.8 1521.64,-168.8"/>
</g>
<!-- WorkspaceInsightsService  -->
<g id="node4" class="node">
<title>WorkspaceInsightsService </title>
<polygon fill="#fb8072" stroke="black" points="1494.28,-214.8 1325.72,-214.8 1325.72,-178.8 1494.28,-178.8 1494.28,-214.8"/>
<text text-anchor="middle" x="1410" y="-192.6" font-family="Times,serif" font-size="14.00">WorkspaceInsightsService </text>
</g>
<!-- WorkspaceModule&#45;&gt;WorkspaceInsightsService  -->
<g id="edge3" class="edge">
<title>WorkspaceModule&#45;&gt;WorkspaceInsightsService </title>
<path fill="none" stroke="black" stroke-dasharray="5,2" d="M1011.08,-140.8C1136.21,-140.8 1410,-140.8 1410,-140.8 1410,-140.8 1410,-168.77 1410,-168.77"/>
<polygon fill="black" stroke="black" points="1406.5,-168.77 1410,-178.77 1413.5,-168.77 1406.5,-168.77"/>
</g>
<!-- WorkspaceMembersService  -->
<g id="node5" class="node">
<title>WorkspaceMembersService </title>
<polygon fill="#fb8072" stroke="black" points="1307.82,-214.8 1130.18,-214.8 1130.18,-178.8 1307.82,-178.8 1307.82,-214.8"/>
<text text-anchor="middle" x="1219" y="-192.6" font-family="Times,serif" font-size="14.00">WorkspaceMembersService </text>
</g>
<!-- WorkspaceModule&#45;&gt;WorkspaceMembersService  -->
<g id="edge4" class="edge">
<title>WorkspaceModule&#45;&gt;WorkspaceMembersService </title>
<path fill="none" stroke="black" stroke-dasharray="5,2" d="M1011.14,-145.8C1086.66,-145.8 1205.27,-145.8 1205.27,-145.8 1205.27,-145.8 1205.27,-168.68 1205.27,-168.68"/>
<polygon fill="black" stroke="black" points="1201.77,-168.68 1205.27,-178.68 1208.77,-168.68 1201.77,-168.68"/>
</g>
<!-- WorkspaceOrgsService  -->
<g id="node6" class="node">
<title>WorkspaceOrgsService </title>
<polygon fill="#fb8072" stroke="black" points="1112.67,-214.8 961.33,-214.8 961.33,-178.8 1112.67,-178.8 1112.67,-214.8"/>
<text text-anchor="middle" x="1037" y="-192.6" font-family="Times,serif" font-size="14.00">WorkspaceOrgsService </text>
</g>
<!-- WorkspaceModule&#45;&gt;WorkspaceOrgsService  -->
<g id="edge5" class="edge">
<title>WorkspaceModule&#45;&gt;WorkspaceOrgsService </title>
<path fill="none" stroke="black" stroke-dasharray="5,2" d="M986.21,-149.91C986.21,-149.91 986.21,-168.79 986.21,-168.79"/>
<polygon fill="black" stroke="black" points="982.71,-168.79 986.21,-178.79 989.71,-168.79 982.71,-168.79"/>
</g>
<!-- WorkspaceReposService  -->
<g id="node7" class="node">
<title>WorkspaceReposService </title>
<polygon fill="#fb8072" stroke="black" points="942.95,-214.8 783.05,-214.8 783.05,-178.8 942.95,-178.8 942.95,-214.8"/>
<text text-anchor="middle" x="863" y="-192.6" font-family="Times,serif" font-size="14.00">WorkspaceReposService </text>
</g>
<!-- WorkspaceModule&#45;&gt;WorkspaceReposService  -->
<g id="edge6" class="edge">
<title>WorkspaceModule&#45;&gt;WorkspaceReposService </title>
<path fill="none" stroke="black" stroke-dasharray="5,2" d="M915.73,-149.91C915.73,-149.91 915.73,-168.79 915.73,-168.79"/>
<polygon fill="black" stroke="black" points="912.23,-168.79 915.73,-178.79 919.23,-168.79 912.23,-168.79"/>
</g>
<!-- WorkspaceService  -->
<g id="node8" class="node">
<title>WorkspaceService </title>
<polygon fill="#fb8072" stroke="black" points="765.45,-214.8 640.55,-214.8 640.55,-178.8 765.45,-178.8 765.45,-214.8"/>
<text text-anchor="middle" x="703" y="-192.6" font-family="Times,serif" font-size="14.00">WorkspaceService </text>
</g>
<!-- WorkspaceModule&#45;&gt;WorkspaceService  -->
<g id="edge7" class="edge">
<title>WorkspaceModule&#45;&gt;WorkspaceService </title>
<path fill="none" stroke="black" stroke-dasharray="5,2" d="M888.86,-145.8C818.17,-145.8 711.4,-145.8 711.4,-145.8 711.4,-145.8 711.4,-168.68 711.4,-168.68"/>
<polygon fill="black" stroke="black" points="707.9,-168.68 711.4,-178.68 714.9,-168.68 707.9,-168.68"/>
</g>
<!-- WorkspaceStatsService  -->
<g id="node9" class="node">
<title>WorkspaceStatsService </title>
<polygon fill="#fb8072" stroke="black" points="622.67,-214.8 471.33,-214.8 471.33,-178.8 622.67,-178.8 622.67,-214.8"/>
<text text-anchor="middle" x="547" y="-192.6" font-family="Times,serif" font-size="14.00">WorkspaceStatsService </text>
</g>
<!-- WorkspaceModule&#45;&gt;WorkspaceStatsService  -->
<g id="edge8" class="edge">
<title>WorkspaceModule&#45;&gt;WorkspaceStatsService </title>
<path fill="none" stroke="black" stroke-dasharray="5,2" d="M888.79,-140.8C776.05,-140.8 547,-140.8 547,-140.8 547,-140.8 547,-168.77 547,-168.77"/>
<polygon fill="black" stroke="black" points="543.5,-168.77 547,-178.77 550.5,-168.77 543.5,-168.77"/>
</g>
<!-- WorkspaceUserListsService  -->
<g id="node10" class="node">
<title>WorkspaceUserListsService </title>
<polygon fill="#fb8072" stroke="black" points="453.11,-214.8 274.89,-214.8 274.89,-178.8 453.11,-178.8 453.11,-214.8"/>
<text text-anchor="middle" x="364" y="-192.6" font-family="Times,serif" font-size="14.00">WorkspaceUserListsService </text>
</g>
<!-- WorkspaceModule&#45;&gt;WorkspaceUserListsService  -->
<g id="edge9" class="edge">
<title>WorkspaceModule&#45;&gt;WorkspaceUserListsService </title>
<path fill="none" stroke="black" stroke-dasharray="5,2" d="M888.96,-136.8C754.35,-136.8 443.92,-136.8 443.92,-136.8 443.92,-136.8 443.92,-168.8 443.92,-168.8"/>
<polygon fill="black" stroke="black" points="440.42,-168.8 443.92,-178.8 447.42,-168.8 440.42,-168.8"/>
</g>
<!-- WorkspaceContributorsService -->
<g id="node11" class="node">
<title>WorkspaceContributorsService</title>
<ellipse fill="#fdb462" stroke="black" cx="1934" cy="-66.8" rx="132.5" ry="18"/>
<text text-anchor="middle" x="1934" y="-62.6" font-family="Times,serif" font-size="14.00">WorkspaceContributorsService</text>
</g>
<!-- WorkspaceContributorsService&#45;&gt;WorkspaceModule -->
<g id="edge10" class="edge">
<title>WorkspaceContributorsService&#45;&gt;WorkspaceModule</title>
<path fill="none" stroke="black" d="M1934,-84.91C1934,-104.14 1934,-131.8 1934,-131.8 1934,-131.8 1021.18,-131.8 1021.18,-131.8"/>
<polygon fill="black" stroke="black" points="1021.18,-128.3 1011.18,-131.8 1021.18,-135.3 1021.18,-128.3"/>
</g>
<!-- WorkspaceInsightsService -->
<g id="node12" class="node">
<title>WorkspaceInsightsService</title>
<ellipse fill="#fdb462" stroke="black" cx="1670" cy="-66.8" rx="114.02" ry="18"/>
<text text-anchor="middle" x="1670" y="-62.6" font-family="Times,serif" font-size="14.00">WorkspaceInsightsService</text>
</g>
<!-- WorkspaceInsightsService&#45;&gt;WorkspaceModule -->
<g id="edge11" class="edge">
<title>WorkspaceInsightsService&#45;&gt;WorkspaceModule</title>
<path fill="none" stroke="black" d="M1631.8,-83.79C1631.8,-101.84 1631.8,-127.8 1631.8,-127.8 1631.8,-127.8 1021.11,-127.8 1021.11,-127.8"/>
<polygon fill="black" stroke="black" points="1021.11,-124.3 1011.11,-127.8 1021.11,-131.3 1021.11,-124.3"/>
</g>
<!-- WorkspaceMembersService -->
<g id="node13" class="node">
<title>WorkspaceMembersService</title>
<ellipse fill="#fdb462" stroke="black" cx="1418" cy="-66.8" rx="119.8" ry="18"/>
<text text-anchor="middle" x="1418" y="-62.6" font-family="Times,serif" font-size="14.00">WorkspaceMembersService</text>
</g>
<!-- WorkspaceMembersService&#45;&gt;WorkspaceModule -->
<g id="edge12" class="edge">
<title>WorkspaceMembersService&#45;&gt;WorkspaceModule</title>
<path fill="none" stroke="black" d="M1302.88,-71.97C1302.88,-85.83 1302.88,-122.8 1302.88,-122.8 1302.88,-122.8 1021.06,-122.8 1021.06,-122.8"/>
<polygon fill="black" stroke="black" points="1021.06,-119.3 1011.06,-122.8 1021.06,-126.3 1021.06,-119.3"/>
</g>
<!-- WorkspaceOrgsService -->
<g id="node14" class="node">
<title>WorkspaceOrgsService</title>
<ellipse fill="#fdb462" stroke="black" cx="1178" cy="-66.8" rx="102.4" ry="18"/>
<text text-anchor="middle" x="1178" y="-62.6" font-family="Times,serif" font-size="14.00">WorkspaceOrgsService</text>
</g>
<!-- WorkspaceOrgsService&#45;&gt;WorkspaceModule -->
<g id="edge13" class="edge">
<title>WorkspaceOrgsService&#45;&gt;WorkspaceModule</title>
<path fill="none" stroke="black" d="M1094.32,-77.32C1094.32,-92.52 1094.32,-118.8 1094.32,-118.8 1094.32,-118.8 1021.2,-118.8 1021.2,-118.8"/>
<polygon fill="black" stroke="black" points="1021.2,-115.3 1011.2,-118.8 1021.2,-122.3 1021.2,-115.3"/>
</g>
<!-- WorkspaceReposService -->
<g id="node15" class="node">
<title>WorkspaceReposService</title>
<ellipse fill="#fdb462" stroke="black" cx="950" cy="-66.8" rx="107.64" ry="18"/>
<text text-anchor="middle" x="950" y="-62.6" font-family="Times,serif" font-size="14.00">WorkspaceReposService</text>
</g>
<!-- WorkspaceReposService&#45;&gt;WorkspaceModule -->
<g id="edge14" class="edge">
<title>WorkspaceReposService&#45;&gt;WorkspaceModule</title>
<path fill="none" stroke="black" d="M950,-84.91C950,-84.91 950,-103.79 950,-103.79"/>
<polygon fill="black" stroke="black" points="946.5,-103.79 950,-113.79 953.5,-103.79 946.5,-103.79"/>
</g>
<!-- WorkspaceService -->
<g id="node16" class="node">
<title>WorkspaceService</title>
<ellipse fill="#fdb462" stroke="black" cx="741" cy="-66.8" rx="83.35" ry="18"/>
<text text-anchor="middle" x="741" y="-62.6" font-family="Times,serif" font-size="14.00">WorkspaceService</text>
</g>
<!-- WorkspaceService&#45;&gt;WorkspaceModule -->
<g id="edge15" class="edge">
<title>WorkspaceService&#45;&gt;WorkspaceModule</title>
<path fill="none" stroke="black" d="M803.85,-78.86C803.85,-94.22 803.85,-118.8 803.85,-118.8 803.85,-118.8 878.87,-118.8 878.87,-118.8"/>
<polygon fill="black" stroke="black" points="878.87,-122.3 888.87,-118.8 878.87,-115.3 878.87,-122.3"/>
</g>
<!-- WorkspaceStatsService -->
<g id="node17" class="node">
<title>WorkspaceStatsService</title>
<ellipse fill="#fdb462" stroke="black" cx="537" cy="-66.8" rx="102.41" ry="18"/>
<text text-anchor="middle" x="537" y="-62.6" font-family="Times,serif" font-size="14.00">WorkspaceStatsService</text>
</g>
<!-- WorkspaceStatsService&#45;&gt;WorkspaceModule -->
<g id="edge16" class="edge">
<title>WorkspaceStatsService&#45;&gt;WorkspaceModule</title>
<path fill="none" stroke="black" d="M631.02,-74.12C631.02,-89.3 631.02,-122.8 631.02,-122.8 631.02,-122.8 878.88,-122.8 878.88,-122.8"/>
<polygon fill="black" stroke="black" points="878.88,-126.3 888.88,-122.8 878.88,-119.3 878.88,-126.3"/>
</g>
<!-- WorkspaceUserListsService -->
<g id="node18" class="node">
<title>WorkspaceUserListsService</title>
<ellipse fill="#fdb462" stroke="black" cx="296" cy="-66.8" rx="120.38" ry="18"/>
<text text-anchor="middle" x="296" y="-62.6" font-family="Times,serif" font-size="14.00">WorkspaceUserListsService</text>
</g>
<!-- WorkspaceUserListsService&#45;&gt;WorkspaceModule -->
<g id="edge17" class="edge">
<title>WorkspaceUserListsService&#45;&gt;WorkspaceModule</title>
<path fill="none" stroke="black" d="M345.69,-83.47C345.69,-101.53 345.69,-127.8 345.69,-127.8 345.69,-127.8 878.73,-127.8 878.73,-127.8"/>
<polygon fill="black" stroke="black" points="878.73,-131.3 888.73,-127.8 878.73,-124.3 878.73,-131.3"/>
</g>
</g>
</svg>
