<?xml version="1.0" encoding="UTF-8" standalone="no"?>
<!DOCTYPE svg PUBLIC "-//W3C//DTD SVG 1.1//EN"
 "http://www.w3.org/Graphics/SVG/1.1/DTD/svg11.dtd">
<!-- Generated by graphviz version 3.0.0 (20220226.1711)
 -->
<!-- Title: dependencies Pages: 1 -->
<svg width="1192pt" height="247pt"
 viewBox="0.00 0.00 1192.00 246.80" xmlns="http://www.w3.org/2000/svg" xmlns:xlink="http://www.w3.org/1999/xlink">
<g id="graph0" class="graph" transform="scale(1 1) rotate(0) translate(4 242.8)">
<title>dependencies</title>
<polygon fill="white" stroke="transparent" points="-4,4 -4,-242.8 1188,-242.8 1188,4 -4,4"/>
<text text-anchor="middle" x="592" y="-8.2" font-family="sans-serif" font-size="14.00">dependencies</text>
<g id="clust1" class="cluster">
<title>cluster_WorkspaceModule</title>
<polygon fill="none" stroke="black" stroke-dasharray="1,5" points="8,-32.8 8,-230.8 1176,-230.8 1176,-32.8 8,-32.8"/>
</g>
<g id="clust4" class="cluster">
<title>cluster_WorkspaceModule_exports</title>
<polygon fill="none" stroke="black" points="312,-170.8 312,-222.8 995,-222.8 995,-170.8 312,-170.8"/>
</g>
<g id="clust3" class="cluster">
<title>cluster_WorkspaceModule_imports</title>
<polygon fill="none" stroke="black" points="920,-40.8 920,-92.8 1168,-92.8 1168,-40.8 920,-40.8"/>
</g>
<g id="clust6" class="cluster">
<title>cluster_WorkspaceModule_providers</title>
<polygon fill="none" stroke="black" points="16,-40.8 16,-92.8 912,-92.8 912,-40.8 16,-40.8"/>
</g>
<!-- ApiServicesModule -->
<g id="node1" class="node">
<title>ApiServicesModule</title>
<polygon fill="#8dd3c7" stroke="black" points="1159.98,-84.8 1156.98,-88.8 1135.98,-88.8 1132.98,-84.8 1032.02,-84.8 1032.02,-48.8 1159.98,-48.8 1159.98,-84.8"/>
<text text-anchor="middle" x="1096" y="-62.6" font-family="Times,serif" font-size="14.00">ApiServicesModule</text>
</g>
<!-- WorkspaceModule -->
<g id="node3" class="node">
<title>WorkspaceModule</title>
<polygon fill="#8dd3c7" stroke="black" points="690.02,-149.8 687.02,-153.8 666.02,-153.8 663.02,-149.8 567.98,-149.8 567.98,-113.8 690.02,-113.8 690.02,-149.8"/>
<text text-anchor="middle" x="629" y="-127.6" font-family="Times,serif" font-size="14.00">WorkspaceModule</text>
</g>
<!-- ApiServicesModule&#45;&gt;WorkspaceModule -->
<g id="edge1" class="edge">
<title>ApiServicesModule&#45;&gt;WorkspaceModule</title>
<path fill="none" stroke="black" d="M1096,-84.91C1096,-104.14 1096,-131.8 1096,-131.8 1096,-131.8 700.05,-131.8 700.05,-131.8"/>
<polygon fill="black" stroke="black" points="700.05,-128.3 690.05,-131.8 700.05,-135.3 700.05,-128.3"/>
</g>
<!-- UserModule -->
<g id="node2" class="node">
<title>UserModule</title>
<polygon fill="#8dd3c7" stroke="black" points="1013.99,-84.8 1010.99,-88.8 989.99,-88.8 986.99,-84.8 928.01,-84.8 928.01,-48.8 1013.99,-48.8 1013.99,-84.8"/>
<text text-anchor="middle" x="971" y="-62.6" font-family="Times,serif" font-size="14.00">UserModule</text>
</g>
<!-- UserModule&#45;&gt;WorkspaceModule -->
<g id="edge2" class="edge">
<title>UserModule&#45;&gt;WorkspaceModule</title>
<path fill="none" stroke="black" d="M957.33,-84.83C957.33,-101.2 957.33,-122.8 957.33,-122.8 957.33,-122.8 700.37,-122.8 700.37,-122.8"/>
<polygon fill="black" stroke="black" points="700.37,-119.3 690.37,-122.8 700.37,-126.3 700.37,-119.3"/>
</g>
<!-- WorkspaceMembersService  -->
<g id="node4" class="node">
<title>WorkspaceMembersService </title>
<polygon fill="#fb8072" stroke="black" points="986.82,-214.8 809.18,-214.8 809.18,-178.8 986.82,-178.8 986.82,-214.8"/>
<text text-anchor="middle" x="898" y="-192.6" font-family="Times,serif" font-size="14.00">WorkspaceMembersService </text>
</g>
<!-- WorkspaceModule&#45;&gt;WorkspaceMembersService  -->
<g id="edge3" class="edge">
<title>WorkspaceModule&#45;&gt;WorkspaceMembersService </title>
<path fill="none" stroke="black" stroke-dasharray="5,2" d="M690.3,-140.8C757.71,-140.8 856.62,-140.8 856.62,-140.8 856.62,-140.8 856.62,-168.77 856.62,-168.77"/>
<polygon fill="black" stroke="black" points="853.12,-168.77 856.62,-178.77 860.12,-168.77 853.12,-168.77"/>
</g>
<!-- WorkspaceOrgsService  -->
<g id="node5" class="node">
<title>WorkspaceOrgsService </title>
<polygon fill="#fb8072" stroke="black" points="791.67,-214.8 640.33,-214.8 640.33,-178.8 791.67,-178.8 791.67,-214.8"/>
<text text-anchor="middle" x="716" y="-192.6" font-family="Times,serif" font-size="14.00">WorkspaceOrgsService </text>
</g>
<!-- WorkspaceModule&#45;&gt;WorkspaceOrgsService  -->
<g id="edge4" class="edge">
<title>WorkspaceModule&#45;&gt;WorkspaceOrgsService </title>
<path fill="none" stroke="black" stroke-dasharray="5,2" d="M665.21,-149.91C665.21,-149.91 665.21,-168.79 665.21,-168.79"/>
<polygon fill="black" stroke="black" points="661.71,-168.79 665.21,-178.79 668.71,-168.79 661.71,-168.79"/>
</g>
<!-- WorkspaceReposService  -->
<g id="node6" class="node">
<title>WorkspaceReposService </title>
<polygon fill="#fb8072" stroke="black" points="621.95,-214.8 462.05,-214.8 462.05,-178.8 621.95,-178.8 621.95,-214.8"/>
<text text-anchor="middle" x="542" y="-192.6" font-family="Times,serif" font-size="14.00">WorkspaceReposService </text>
</g>
<!-- WorkspaceModule&#45;&gt;WorkspaceReposService  -->
<g id="edge5" class="edge">
<title>WorkspaceModule&#45;&gt;WorkspaceReposService </title>
<path fill="none" stroke="black" stroke-dasharray="5,2" d="M594.73,-149.91C594.73,-149.91 594.73,-168.79 594.73,-168.79"/>
<polygon fill="black" stroke="black" points="591.23,-168.79 594.73,-178.79 598.23,-168.79 591.23,-168.79"/>
</g>
<!-- WorkspaceService  -->
<g id="node7" class="node">
<title>WorkspaceService </title>
<polygon fill="#fb8072" stroke="black" points="444.45,-214.8 319.55,-214.8 319.55,-178.8 444.45,-178.8 444.45,-214.8"/>
<text text-anchor="middle" x="382" y="-192.6" font-family="Times,serif" font-size="14.00">WorkspaceService </text>
</g>
<!-- WorkspaceModule&#45;&gt;WorkspaceService  -->
<g id="edge6" class="edge">
<title>WorkspaceModule&#45;&gt;WorkspaceService </title>
<path fill="none" stroke="black" stroke-dasharray="5,2" d="M567.96,-140.8C510.33,-140.8 432.68,-140.8 432.68,-140.8 432.68,-140.8 432.68,-168.77 432.68,-168.77"/>
<polygon fill="black" stroke="black" points="429.18,-168.77 432.68,-178.77 436.18,-168.77 429.18,-168.77"/>
</g>
<!-- WorkspaceMembersService -->
<g id="node8" class="node">
<title>WorkspaceMembersService</title>
<ellipse fill="#fdb462" stroke="black" cx="784" cy="-66.8" rx="119.8" ry="18"/>
<text text-anchor="middle" x="784" y="-62.6" font-family="Times,serif" font-size="14.00">WorkspaceMembersService</text>
</g>
<!-- WorkspaceMembersService&#45;&gt;WorkspaceModule -->
<g id="edge7" class="edge">
<title>WorkspaceMembersService&#45;&gt;WorkspaceModule</title>
<path fill="none" stroke="black" d="M677.18,-75.03C677.18,-75.03 677.18,-103.56 677.18,-103.56"/>
<polygon fill="black" stroke="black" points="673.68,-103.56 677.18,-113.56 680.68,-103.56 673.68,-103.56"/>
</g>
<!-- WorkspaceOrgsService -->
<g id="node9" class="node">
<title>WorkspaceOrgsService</title>
<ellipse fill="#fdb462" stroke="black" cx="544" cy="-66.8" rx="102.4" ry="18"/>
<text text-anchor="middle" x="544" y="-62.6" font-family="Times,serif" font-size="14.00">WorkspaceOrgsService</text>
</g>
<!-- WorkspaceOrgsService&#45;&gt;WorkspaceModule -->
<g id="edge8" class="edge">
<title>WorkspaceOrgsService&#45;&gt;WorkspaceModule</title>
<path fill="none" stroke="black" d="M606.97,-81.23C606.97,-81.23 606.97,-103.69 606.97,-103.69"/>
<polygon fill="black" stroke="black" points="603.47,-103.69 606.97,-113.69 610.47,-103.69 603.47,-103.69"/>
</g>
<!-- WorkspaceReposService -->
<g id="node10" class="node">
<title>WorkspaceReposService</title>
<ellipse fill="#fdb462" stroke="black" cx="316" cy="-66.8" rx="107.64" ry="18"/>
<text text-anchor="middle" x="316" y="-62.6" font-family="Times,serif" font-size="14.00">WorkspaceReposService</text>
</g>
<!-- WorkspaceReposService&#45;&gt;WorkspaceModule -->
<g id="edge9" class="edge">
<title>WorkspaceReposService&#45;&gt;WorkspaceModule</title>
<path fill="none" stroke="black" d="M371.67,-82.4C371.67,-98.97 371.67,-122.8 371.67,-122.8 371.67,-122.8 557.69,-122.8 557.69,-122.8"/>
<polygon fill="black" stroke="black" points="557.69,-126.3 567.69,-122.8 557.69,-119.3 557.69,-126.3"/>
</g>
<!-- WorkspaceService -->
<g id="node11" class="node">
<title>WorkspaceService</title>
<ellipse fill="#fdb462" stroke="black" cx="107" cy="-66.8" rx="83.35" ry="18"/>
<text text-anchor="middle" x="107" y="-62.6" font-family="Times,serif" font-size="14.00">WorkspaceService</text>
</g>
<!-- WorkspaceService&#45;&gt;WorkspaceModule -->
<g id="edge10" class="edge">
<title>WorkspaceService&#45;&gt;WorkspaceModule</title>
<path fill="none" stroke="black" d="M107,-84.91C107,-104.14 107,-131.8 107,-131.8 107,-131.8 557.84,-131.8 557.84,-131.8"/>
<polygon fill="black" stroke="black" points="557.84,-135.3 567.84,-131.8 557.84,-128.3 557.84,-135.3"/>
</g>
</g>
</svg>
