<?xml version="1.0" encoding="UTF-8" standalone="no"?>
<!DOCTYPE svg PUBLIC "-//W3C//DTD SVG 1.1//EN"
 "http://www.w3.org/Graphics/SVG/1.1/DTD/svg11.dtd">
<!-- Generated by graphviz version 3.0.0 (20220226.1711)
 -->
<!-- Title: dependencies Pages: 1 -->
<svg width="1474pt" height="247pt"
 viewBox="0.00 0.00 1474.00 246.80" xmlns="http://www.w3.org/2000/svg" xmlns:xlink="http://www.w3.org/1999/xlink">
<g id="graph0" class="graph" transform="scale(1 1) rotate(0) translate(4 242.8)">
<title>dependencies</title>
<polygon fill="white" stroke="transparent" points="-4,4 -4,-242.8 1470,-242.8 1470,4 -4,4"/>
<text text-anchor="middle" x="733" y="-8.2" font-family="sans-serif" font-size="14.00">dependencies</text>
<g id="clust1" class="cluster">
<title>cluster_WorkspaceModule</title>
<polygon fill="none" stroke="black" stroke-dasharray="1,5" points="8,-32.8 8,-230.8 1458,-230.8 1458,-32.8 8,-32.8"/>
</g>
<g id="clust6" class="cluster">
<title>cluster_WorkspaceModule_providers</title>
<polygon fill="none" stroke="black" points="272,-40.8 272,-92.8 1450,-92.8 1450,-40.8 272,-40.8"/>
</g>
<g id="clust4" class="cluster">
<title>cluster_WorkspaceModule_exports</title>
<polygon fill="none" stroke="black" points="168,-170.8 168,-222.8 1064,-222.8 1064,-170.8 168,-170.8"/>
</g>
<g id="clust3" class="cluster">
<title>cluster_WorkspaceModule_imports</title>
<polygon fill="none" stroke="black" points="16,-40.8 16,-92.8 264,-92.8 264,-40.8 16,-40.8"/>
</g>
<!-- ApiServicesModule -->
<g id="node1" class="node">
<title>ApiServicesModule</title>
<polygon fill="#8dd3c7" stroke="black" points="255.98,-84.8 252.98,-88.8 231.98,-88.8 228.98,-84.8 128.02,-84.8 128.02,-48.8 255.98,-48.8 255.98,-84.8"/>
<text text-anchor="middle" x="192" y="-62.6" font-family="Times,serif" font-size="14.00">ApiServicesModule</text>
</g>
<!-- WorkspaceModule -->
<g id="node3" class="node">
<title>WorkspaceModule</title>
<polygon fill="#8dd3c7" stroke="black" points="633.02,-149.8 630.02,-153.8 609.02,-153.8 606.02,-149.8 510.98,-149.8 510.98,-113.8 633.02,-113.8 633.02,-149.8"/>
<text text-anchor="middle" x="572" y="-127.6" font-family="Times,serif" font-size="14.00">WorkspaceModule</text>
</g>
<!-- ApiServicesModule&#45;&gt;WorkspaceModule -->
<g id="edge1" class="edge">
<title>ApiServicesModule&#45;&gt;WorkspaceModule</title>
<path fill="none" stroke="black" d="M215.88,-84.82C215.88,-102.17 215.88,-125.8 215.88,-125.8 215.88,-125.8 500.78,-125.8 500.78,-125.8"/>
<polygon fill="black" stroke="black" points="500.78,-129.3 510.78,-125.8 500.78,-122.3 500.78,-129.3"/>
</g>
<!-- UserModule -->
<g id="node2" class="node">
<title>UserModule</title>
<polygon fill="#8dd3c7" stroke="black" points="109.99,-84.8 106.99,-88.8 85.99,-88.8 82.99,-84.8 24.01,-84.8 24.01,-48.8 109.99,-48.8 109.99,-84.8"/>
<text text-anchor="middle" x="67" y="-62.6" font-family="Times,serif" font-size="14.00">UserModule</text>
</g>
<!-- UserModule&#45;&gt;WorkspaceModule -->
<g id="edge2" class="edge">
<title>UserModule&#45;&gt;WorkspaceModule</title>
<path fill="none" stroke="black" d="M67,-84.91C67,-104.14 67,-131.8 67,-131.8 67,-131.8 500.83,-131.8 500.83,-131.8"/>
<polygon fill="black" stroke="black" points="500.83,-135.3 510.83,-131.8 500.83,-128.3 500.83,-135.3"/>
</g>
<!-- WorkspaceContributorsService  -->
<g id="node4" class="node">
<title>WorkspaceContributorsService </title>
<polygon fill="#fb8072" stroke="black" points="1055.72,-214.8 860.28,-214.8 860.28,-178.8 1055.72,-178.8 1055.72,-214.8"/>
<text text-anchor="middle" x="958" y="-192.6" font-family="Times,serif" font-size="14.00">WorkspaceContributorsService </text>
</g>
<!-- WorkspaceModule&#45;&gt;WorkspaceContributorsService  -->
<g id="edge3" class="edge">
<title>WorkspaceModule&#45;&gt;WorkspaceContributorsService </title>
<path fill="none" stroke="black" stroke-dasharray="5,2" d="M633.11,-137.8C723.24,-137.8 881.29,-137.8 881.29,-137.8 881.29,-137.8 881.29,-168.78 881.29,-168.78"/>
<polygon fill="black" stroke="black" points="877.8,-168.78 881.29,-178.78 884.8,-168.78 877.8,-168.78"/>
</g>
<!-- WorkspaceMembersService  -->
<g id="node5" class="node">
<title>WorkspaceMembersService </title>
<polygon fill="#fb8072" stroke="black" points="842.82,-214.8 665.18,-214.8 665.18,-178.8 842.82,-178.8 842.82,-214.8"/>
<text text-anchor="middle" x="754" y="-192.6" font-family="Times,serif" font-size="14.00">WorkspaceMembersService </text>
</g>
<!-- WorkspaceModule&#45;&gt;WorkspaceMembersService  -->
<g id="edge4" class="edge">
<title>WorkspaceModule&#45;&gt;WorkspaceMembersService </title>
<path fill="none" stroke="black" stroke-dasharray="5,2" d="M633.04,-143.8C654.08,-143.8 672.45,-143.8 672.45,-143.8 672.45,-143.8 672.45,-168.56 672.45,-168.56"/>
<polygon fill="black" stroke="black" points="668.95,-168.56 672.45,-178.56 675.95,-168.56 668.95,-168.56"/>
</g>
<!-- WorkspaceOrgsService  -->
<g id="node6" class="node">
<title>WorkspaceOrgsService </title>
<polygon fill="#fb8072" stroke="black" points="647.67,-214.8 496.33,-214.8 496.33,-178.8 647.67,-178.8 647.67,-214.8"/>
<text text-anchor="middle" x="572" y="-192.6" font-family="Times,serif" font-size="14.00">WorkspaceOrgsService </text>
</g>
<!-- WorkspaceModule&#45;&gt;WorkspaceOrgsService  -->
<g id="edge5" class="edge">
<title>WorkspaceModule&#45;&gt;WorkspaceOrgsService </title>
<path fill="none" stroke="black" stroke-dasharray="5,2" d="M572,-149.91C572,-149.91 572,-168.79 572,-168.79"/>
<polygon fill="black" stroke="black" points="568.5,-168.79 572,-178.79 575.5,-168.79 568.5,-168.79"/>
</g>
<!-- WorkspaceReposService  -->
<g id="node7" class="node">
<title>WorkspaceReposService </title>
<polygon fill="#fb8072" stroke="black" points="477.95,-214.8 318.05,-214.8 318.05,-178.8 477.95,-178.8 477.95,-214.8"/>
<text text-anchor="middle" x="398" y="-192.6" font-family="Times,serif" font-size="14.00">WorkspaceReposService </text>
</g>
<!-- WorkspaceModule&#45;&gt;WorkspaceReposService  -->
<g id="edge6" class="edge">
<title>WorkspaceModule&#45;&gt;WorkspaceReposService </title>
<path fill="none" stroke="black" stroke-dasharray="5,2" d="M510.96,-143.8C489.71,-143.8 471.08,-143.8 471.08,-143.8 471.08,-143.8 471.08,-168.56 471.08,-168.56"/>
<polygon fill="black" stroke="black" points="467.58,-168.56 471.08,-178.56 474.58,-168.56 467.58,-168.56"/>
</g>
<!-- WorkspaceService  -->
<g id="node8" class="node">
<title>WorkspaceService </title>
<polygon fill="#fb8072" stroke="black" points="300.45,-214.8 175.55,-214.8 175.55,-178.8 300.45,-178.8 300.45,-214.8"/>
<text text-anchor="middle" x="238" y="-192.6" font-family="Times,serif" font-size="14.00">WorkspaceService </text>
</g>
<!-- WorkspaceModule&#45;&gt;WorkspaceService  -->
<g id="edge7" class="edge">
<title>WorkspaceModule&#45;&gt;WorkspaceService </title>
<path fill="none" stroke="black" stroke-dasharray="5,2" d="M510.79,-137.8C427.82,-137.8 289.9,-137.8 289.9,-137.8 289.9,-137.8 289.9,-168.78 289.9,-168.78"/>
<polygon fill="black" stroke="black" points="286.4,-168.78 289.9,-178.78 293.4,-168.78 286.4,-168.78"/>
</g>
<!-- WorkspaceContributorsService -->
<g id="node9" class="node">
<title>WorkspaceContributorsService</title>
<ellipse fill="#fdb462" stroke="black" cx="1310" cy="-66.8" rx="132.5" ry="18"/>
<text text-anchor="middle" x="1310" y="-62.6" font-family="Times,serif" font-size="14.00">WorkspaceContributorsService</text>
</g>
<!-- WorkspaceContributorsService&#45;&gt;WorkspaceModule -->
<g id="edge8" class="edge">
<title>WorkspaceContributorsService&#45;&gt;WorkspaceModule</title>
<path fill="none" stroke="black" d="M1310,-84.91C1310,-104.14 1310,-131.8 1310,-131.8 1310,-131.8 643.02,-131.8 643.02,-131.8"/>
<polygon fill="black" stroke="black" points="643.02,-128.3 633.02,-131.8 643.02,-135.3 643.02,-128.3"/>
</g>
<!-- WorkspaceMembersService -->
<g id="node10" class="node">
<title>WorkspaceMembersService</title>
<ellipse fill="#fdb462" stroke="black" cx="1040" cy="-66.8" rx="119.8" ry="18"/>
<text text-anchor="middle" x="1040" y="-62.6" font-family="Times,serif" font-size="14.00">WorkspaceMembersService</text>
</g>
<!-- WorkspaceMembersService&#45;&gt;WorkspaceModule -->
<g id="edge9" class="edge">
<title>WorkspaceMembersService&#45;&gt;WorkspaceModule</title>
<path fill="none" stroke="black" d="M987.86,-83.23C987.86,-100.69 987.86,-125.8 987.86,-125.8 987.86,-125.8 643.36,-125.8 643.36,-125.8"/>
<polygon fill="black" stroke="black" points="643.36,-122.3 633.36,-125.8 643.36,-129.3 643.36,-122.3"/>
</g>
<!-- WorkspaceOrgsService -->
<g id="node11" class="node">
<title>WorkspaceOrgsService</title>
<ellipse fill="#fdb462" stroke="black" cx="800" cy="-66.8" rx="102.4" ry="18"/>
<text text-anchor="middle" x="800" y="-62.6" font-family="Times,serif" font-size="14.00">WorkspaceOrgsService</text>
</g>
<!-- WorkspaceOrgsService&#45;&gt;WorkspaceModule -->
<g id="edge10" class="edge">
<title>WorkspaceOrgsService&#45;&gt;WorkspaceModule</title>
<path fill="none" stroke="black" d="M770.23,-84.15C770.23,-99.61 770.23,-119.8 770.23,-119.8 770.23,-119.8 643.09,-119.8 643.09,-119.8"/>
<polygon fill="black" stroke="black" points="643.09,-116.3 633.09,-119.8 643.09,-123.3 643.09,-116.3"/>
</g>
<!-- WorkspaceReposService -->
<g id="node12" class="node">
<title>WorkspaceReposService</title>
<ellipse fill="#fdb462" stroke="black" cx="572" cy="-66.8" rx="107.64" ry="18"/>
<text text-anchor="middle" x="572" y="-62.6" font-family="Times,serif" font-size="14.00">WorkspaceReposService</text>
</g>
<!-- WorkspaceReposService&#45;&gt;WorkspaceModule -->
<g id="edge11" class="edge">
<title>WorkspaceReposService&#45;&gt;WorkspaceModule</title>
<path fill="none" stroke="black" d="M572,-84.91C572,-84.91 572,-103.79 572,-103.79"/>
<polygon fill="black" stroke="black" points="568.5,-103.79 572,-113.79 575.5,-103.79 568.5,-103.79"/>
</g>
<!-- WorkspaceService -->
<g id="node13" class="node">
<title>WorkspaceService</title>
<ellipse fill="#fdb462" stroke="black" cx="363" cy="-66.8" rx="83.35" ry="18"/>
<text text-anchor="middle" x="363" y="-62.6" font-family="Times,serif" font-size="14.00">WorkspaceService</text>
</g>
<!-- WorkspaceService&#45;&gt;WorkspaceModule -->
<g id="edge12" class="edge">
<title>WorkspaceService&#45;&gt;WorkspaceModule</title>
<path fill="none" stroke="black" d="M382.35,-84.45C382.35,-99.87 382.35,-119.8 382.35,-119.8 382.35,-119.8 500.95,-119.8 500.95,-119.8"/>
<polygon fill="black" stroke="black" points="500.95,-123.3 510.95,-119.8 500.95,-116.3 500.95,-123.3"/>
</g>
</g>
</svg>
