<?xml version="1.0" encoding="UTF-8" standalone="no"?>
<!DOCTYPE svg PUBLIC "-//W3C//DTD SVG 1.1//EN"
 "http://www.w3.org/Graphics/SVG/1.1/DTD/svg11.dtd">
<!-- Generated by graphviz version 3.0.0 (20220226.1711)
 -->
<!-- Title: dependencies Pages: 1 -->
<svg width="2329pt" height="247pt"
 viewBox="0.00 0.00 2329.00 246.80" xmlns="http://www.w3.org/2000/svg" xmlns:xlink="http://www.w3.org/1999/xlink">
<g id="graph0" class="graph" transform="scale(1 1) rotate(0) translate(4 242.8)">
<title>dependencies</title>
<polygon fill="white" stroke="transparent" points="-4,4 -4,-242.8 2325,-242.8 2325,4 -4,4"/>
<text text-anchor="middle" x="1160.5" y="-8.2" font-family="sans-serif" font-size="14.00">dependencies</text>
<g id="clust1" class="cluster">
<title>cluster_WorkspaceModule</title>
<polygon fill="none" stroke="black" stroke-dasharray="1,5" points="8,-32.8 8,-230.8 2313,-230.8 2313,-32.8 8,-32.8"/>
</g>
<g id="clust6" class="cluster">
<title>cluster_WorkspaceModule_providers</title>
<polygon fill="none" stroke="black" points="168,-40.8 168,-92.8 2305,-92.8 2305,-40.8 168,-40.8"/>
</g>
<g id="clust3" class="cluster">
<title>cluster_WorkspaceModule_imports</title>
<polygon fill="none" stroke="black" points="16,-40.8 16,-92.8 160,-92.8 160,-40.8 16,-40.8"/>
</g>
<g id="clust4" class="cluster">
<title>cluster_WorkspaceModule_exports</title>
<polygon fill="none" stroke="black" points="293,-170.8 293,-222.8 1918,-222.8 1918,-170.8 293,-170.8"/>
</g>
<!-- ApiServicesModule -->
<g id="node1" class="node">
<title>ApiServicesModule</title>
<polygon fill="#8dd3c7" stroke="black" points="151.98,-84.8 148.98,-88.8 127.98,-88.8 124.98,-84.8 24.02,-84.8 24.02,-48.8 151.98,-48.8 151.98,-84.8"/>
<text text-anchor="middle" x="88" y="-62.6" font-family="Times,serif" font-size="14.00">ApiServicesModule</text>
</g>
<!-- WorkspaceModule -->
<g id="node2" class="node">
<title>WorkspaceModule</title>
<polygon fill="#8dd3c7" stroke="black" points="1127.02,-149.8 1124.02,-153.8 1103.02,-153.8 1100.02,-149.8 1004.98,-149.8 1004.98,-113.8 1127.02,-113.8 1127.02,-149.8"/>
<text text-anchor="middle" x="1066" y="-127.6" font-family="Times,serif" font-size="14.00">WorkspaceModule</text>
</g>
<!-- ApiServicesModule&#45;&gt;WorkspaceModule -->
<g id="edge1" class="edge">
<title>ApiServicesModule&#45;&gt;WorkspaceModule</title>
<path fill="none" stroke="black" d="M88,-85.02C88,-103.63 88,-129.8 88,-129.8 88,-129.8 994.82,-129.8 994.82,-129.8"/>
<polygon fill="black" stroke="black" points="994.82,-133.3 1004.82,-129.8 994.82,-126.3 994.82,-133.3"/>
</g>
<!-- WorkspaceContributorsService  -->
<g id="node3" class="node">
<title>WorkspaceContributorsService </title>
<polygon fill="#fb8072" stroke="black" points="1909.72,-214.8 1714.28,-214.8 1714.28,-178.8 1909.72,-178.8 1909.72,-214.8"/>
<text text-anchor="middle" x="1812" y="-192.6" font-family="Times,serif" font-size="14.00">WorkspaceContributorsService </text>
</g>
<!-- WorkspaceModule&#45;&gt;WorkspaceContributorsService  -->
<g id="edge2" class="edge">
<title>WorkspaceModule&#45;&gt;WorkspaceContributorsService </title>
<path fill="none" stroke="black" stroke-dasharray="5,2" d="M1127.15,-133.8C1293.47,-133.8 1741.64,-133.8 1741.64,-133.8 1741.64,-133.8 1741.64,-168.58 1741.64,-168.58"/>
<polygon fill="black" stroke="black" points="1738.14,-168.58 1741.64,-178.58 1745.14,-168.58 1738.14,-168.58"/>
</g>
<!-- WorkspaceInsightsService  -->
<g id="node4" class="node">
<title>WorkspaceInsightsService </title>
<polygon fill="#fb8072" stroke="black" points="1696.28,-214.8 1527.72,-214.8 1527.72,-178.8 1696.28,-178.8 1696.28,-214.8"/>
<text text-anchor="middle" x="1612" y="-192.6" font-family="Times,serif" font-size="14.00">WorkspaceInsightsService </text>
</g>
<!-- WorkspaceModule&#45;&gt;WorkspaceInsightsService  -->
<g id="edge3" class="edge">
<title>WorkspaceModule&#45;&gt;WorkspaceInsightsService </title>
<path fill="none" stroke="black" stroke-dasharray="5,2" d="M1127.22,-137.8C1275.29,-137.8 1640.63,-137.8 1640.63,-137.8 1640.63,-137.8 1640.63,-168.78 1640.63,-168.78"/>
<polygon fill="black" stroke="black" points="1637.13,-168.78 1640.63,-178.78 1644.13,-168.78 1637.13,-168.78"/>
</g>
<!-- WorkspaceMembersService  -->
<g id="node5" class="node">
<title>WorkspaceMembersService </title>
<polygon fill="#fb8072" stroke="black" points="1509.82,-214.8 1332.18,-214.8 1332.18,-178.8 1509.82,-178.8 1509.82,-214.8"/>
<text text-anchor="middle" x="1421" y="-192.6" font-family="Times,serif" font-size="14.00">WorkspaceMembersService </text>
</g>
<!-- WorkspaceModule&#45;&gt;WorkspaceMembersService  -->
<g id="edge4" class="edge">
<title>WorkspaceModule&#45;&gt;WorkspaceMembersService </title>
<path fill="none" stroke="black" stroke-dasharray="5,2" d="M1127.03,-141.8C1228.53,-141.8 1421,-141.8 1421,-141.8 1421,-141.8 1421,-168.79 1421,-168.79"/>
<polygon fill="black" stroke="black" points="1417.5,-168.79 1421,-178.79 1424.5,-168.79 1417.5,-168.79"/>
</g>
<!-- WorkspaceOrgsService  -->
<g id="node6" class="node">
<title>WorkspaceOrgsService </title>
<polygon fill="#fb8072" stroke="black" points="1314.67,-214.8 1163.33,-214.8 1163.33,-178.8 1314.67,-178.8 1314.67,-214.8"/>
<text text-anchor="middle" x="1239" y="-192.6" font-family="Times,serif" font-size="14.00">WorkspaceOrgsService </text>
</g>
<!-- WorkspaceModule&#45;&gt;WorkspaceOrgsService  -->
<g id="edge5" class="edge">
<title>WorkspaceModule&#45;&gt;WorkspaceOrgsService </title>
<path fill="none" stroke="black" stroke-dasharray="5,2" d="M1127.34,-145.8C1172.41,-145.8 1225.83,-145.8 1225.83,-145.8 1225.83,-145.8 1225.83,-168.68 1225.83,-168.68"/>
<polygon fill="black" stroke="black" points="1222.33,-168.68 1225.83,-178.68 1229.33,-168.68 1222.33,-168.68"/>
</g>
<!-- WorkspacePayeeService  -->
<g id="node7" class="node">
<title>WorkspacePayeeService </title>
<polygon fill="#fb8072" stroke="black" points="1144.87,-214.8 987.13,-214.8 987.13,-178.8 1144.87,-178.8 1144.87,-214.8"/>
<text text-anchor="middle" x="1066" y="-192.6" font-family="Times,serif" font-size="14.00">WorkspacePayeeService </text>
</g>
<!-- WorkspaceModule&#45;&gt;WorkspacePayeeService  -->
<g id="edge6" class="edge">
<title>WorkspaceModule&#45;&gt;WorkspacePayeeService </title>
<path fill="none" stroke="black" stroke-dasharray="5,2" d="M1066,-149.91C1066,-149.91 1066,-168.79 1066,-168.79"/>
<polygon fill="black" stroke="black" points="1062.5,-168.79 1066,-178.79 1069.5,-168.79 1062.5,-168.79"/>
</g>
<!-- WorkspaceReposService  -->
<g id="node8" class="node">
<title>WorkspaceReposService </title>
<polygon fill="#fb8072" stroke="black" points="968.95,-214.8 809.05,-214.8 809.05,-178.8 968.95,-178.8 968.95,-214.8"/>
<text text-anchor="middle" x="889" y="-192.6" font-family="Times,serif" font-size="14.00">WorkspaceReposService </text>
</g>
<!-- WorkspaceModule&#45;&gt;WorkspaceReposService  -->
<g id="edge7" class="edge">
<title>WorkspaceModule&#45;&gt;WorkspaceReposService </title>
<path fill="none" stroke="black" stroke-dasharray="5,2" d="M1004.89,-145.8C959.56,-145.8 905.58,-145.8 905.58,-145.8 905.58,-145.8 905.58,-168.68 905.58,-168.68"/>
<polygon fill="black" stroke="black" points="902.08,-168.68 905.58,-178.68 909.08,-168.68 902.08,-168.68"/>
</g>
<!-- WorkspaceService  -->
<g id="node9" class="node">
<title>WorkspaceService </title>
<polygon fill="#fb8072" stroke="black" points="791.45,-214.8 666.55,-214.8 666.55,-178.8 791.45,-178.8 791.45,-214.8"/>
<text text-anchor="middle" x="729" y="-192.6" font-family="Times,serif" font-size="14.00">WorkspaceService </text>
</g>
<!-- WorkspaceModule&#45;&gt;WorkspaceService  -->
<g id="edge8" class="edge">
<title>WorkspaceModule&#45;&gt;WorkspaceService </title>
<path fill="none" stroke="black" stroke-dasharray="5,2" d="M1004.97,-141.8C907.86,-141.8 729,-141.8 729,-141.8 729,-141.8 729,-168.79 729,-168.79"/>
<polygon fill="black" stroke="black" points="725.5,-168.79 729,-178.79 732.5,-168.79 725.5,-168.79"/>
</g>
<!-- WorkspaceStatsService  -->
<g id="node10" class="node">
<title>WorkspaceStatsService </title>
<polygon fill="#fb8072" stroke="black" points="648.67,-214.8 497.33,-214.8 497.33,-178.8 648.67,-178.8 648.67,-214.8"/>
<text text-anchor="middle" x="573" y="-192.6" font-family="Times,serif" font-size="14.00">WorkspaceStatsService </text>
</g>
<!-- WorkspaceModule&#45;&gt;WorkspaceStatsService  -->
<g id="edge9" class="edge">
<title>WorkspaceModule&#45;&gt;WorkspaceStatsService </title>
<path fill="none" stroke="black" stroke-dasharray="5,2" d="M1004.64,-137.8C887.61,-137.8 644.02,-137.8 644.02,-137.8 644.02,-137.8 644.02,-168.78 644.02,-168.78"/>
<polygon fill="black" stroke="black" points="640.52,-168.78 644.02,-178.78 647.52,-168.78 640.52,-168.78"/>
</g>
<!-- WorkspaceUserListsService  -->
<g id="node11" class="node">
<title>WorkspaceUserListsService </title>
<polygon fill="#fb8072" stroke="black" points="479.11,-214.8 300.89,-214.8 300.89,-178.8 479.11,-178.8 479.11,-214.8"/>
<text text-anchor="middle" x="390" y="-192.6" font-family="Times,serif" font-size="14.00">WorkspaceUserListsService </text>
</g>
<!-- WorkspaceModule&#45;&gt;WorkspaceUserListsService  -->
<g id="edge10" class="edge">
<title>WorkspaceModule&#45;&gt;WorkspaceUserListsService </title>
<path fill="none" stroke="black" stroke-dasharray="5,2" d="M1004.81,-133.8C850.36,-133.8 456.92,-133.8 456.92,-133.8 456.92,-133.8 456.92,-168.58 456.92,-168.58"/>
<polygon fill="black" stroke="black" points="453.42,-168.58 456.92,-178.58 460.42,-168.58 453.42,-168.58"/>
</g>
<!-- WorkspaceContributorsService -->
<g id="node12" class="node">
<title>WorkspaceContributorsService</title>
<ellipse fill="#fdb462" stroke="black" cx="2165" cy="-66.8" rx="132.5" ry="18"/>
<text text-anchor="middle" x="2165" y="-62.6" font-family="Times,serif" font-size="14.00">WorkspaceContributorsService</text>
</g>
<!-- WorkspaceContributorsService&#45;&gt;WorkspaceModule -->
<g id="edge11" class="edge">
<title>WorkspaceContributorsService&#45;&gt;WorkspaceModule</title>
<path fill="none" stroke="black" d="M2165,-85.02C2165,-103.63 2165,-129.8 2165,-129.8 2165,-129.8 1137.05,-129.8 1137.05,-129.8"/>
<polygon fill="black" stroke="black" points="1137.05,-126.3 1127.05,-129.8 1137.05,-133.3 1137.05,-126.3"/>
</g>
<!-- WorkspaceInsightsService -->
<g id="node13" class="node">
<title>WorkspaceInsightsService</title>
<ellipse fill="#fdb462" stroke="black" cx="1901" cy="-66.8" rx="114.02" ry="18"/>
<text text-anchor="middle" x="1901" y="-62.6" font-family="Times,serif" font-size="14.00">WorkspaceInsightsService</text>
</g>
<!-- WorkspaceInsightsService&#45;&gt;WorkspaceModule -->
<g id="edge12" class="edge">
<title>WorkspaceInsightsService&#45;&gt;WorkspaceModule</title>
<path fill="none" stroke="black" d="M1848.3,-82.92C1848.3,-100.39 1848.3,-125.8 1848.3,-125.8 1848.3,-125.8 1137.06,-125.8 1137.06,-125.8"/>
<polygon fill="black" stroke="black" points="1137.06,-122.3 1127.06,-125.8 1137.06,-129.3 1137.06,-122.3"/>
</g>
<!-- WorkspaceMembersService -->
<g id="node14" class="node">
<title>WorkspaceMembersService</title>
<ellipse fill="#fdb462" stroke="black" cx="1649" cy="-66.8" rx="119.8" ry="18"/>
<text text-anchor="middle" x="1649" y="-62.6" font-family="Times,serif" font-size="14.00">WorkspaceMembersService</text>
</g>
<!-- WorkspaceMembersService&#45;&gt;WorkspaceModule -->
<g id="edge13" class="edge">
<title>WorkspaceMembersService&#45;&gt;WorkspaceModule</title>
<path fill="none" stroke="black" d="M1584.86,-82.12C1584.86,-98.39 1584.86,-121.8 1584.86,-121.8 1584.86,-121.8 1137.05,-121.8 1137.05,-121.8"/>
<polygon fill="black" stroke="black" points="1137.05,-118.3 1127.05,-121.8 1137.05,-125.3 1137.05,-118.3"/>
</g>
<!-- WorkspaceOrgsService -->
<g id="node15" class="node">
<title>WorkspaceOrgsService</title>
<ellipse fill="#fdb462" stroke="black" cx="1409" cy="-66.8" rx="102.4" ry="18"/>
<text text-anchor="middle" x="1409" y="-62.6" font-family="Times,serif" font-size="14.00">WorkspaceOrgsService</text>
</g>
<!-- WorkspaceOrgsService&#45;&gt;WorkspaceModule -->
<g id="edge14" class="edge">
<title>WorkspaceOrgsService&#45;&gt;WorkspaceModule</title>
<path fill="none" stroke="black" d="M1310.82,-71.88C1310.82,-84.78 1310.82,-117.8 1310.82,-117.8 1310.82,-117.8 1137.15,-117.8 1137.15,-117.8"/>
<polygon fill="black" stroke="black" points="1137.15,-114.3 1127.15,-117.8 1137.15,-121.3 1137.15,-114.3"/>
</g>
<!-- WorkspacePayeeService -->
<g id="node16" class="node">
<title>WorkspacePayeeService</title>
<ellipse fill="#fdb462" stroke="black" cx="1182" cy="-66.8" rx="106.47" ry="18"/>
<text text-anchor="middle" x="1182" y="-62.6" font-family="Times,serif" font-size="14.00">WorkspacePayeeService</text>
</g>
<!-- WorkspacePayeeService&#45;&gt;WorkspaceModule -->
<g id="edge15" class="edge">
<title>WorkspacePayeeService&#45;&gt;WorkspaceModule</title>
<path fill="none" stroke="black" d="M1101.39,-78.72C1101.39,-78.72 1101.39,-103.57 1101.39,-103.57"/>
<polygon fill="black" stroke="black" points="1097.89,-103.57 1101.39,-113.57 1104.89,-103.57 1097.89,-103.57"/>
</g>
<!-- WorkspaceReposService -->
<g id="node17" class="node">
<title>WorkspaceReposService</title>
<ellipse fill="#fdb462" stroke="black" cx="950" cy="-66.8" rx="107.64" ry="18"/>
<text text-anchor="middle" x="950" y="-62.6" font-family="Times,serif" font-size="14.00">WorkspaceReposService</text>
</g>
<!-- WorkspaceReposService&#45;&gt;WorkspaceModule -->
<g id="edge16" class="edge">
<title>WorkspaceReposService&#45;&gt;WorkspaceModule</title>
<path fill="none" stroke="black" d="M1031.15,-78.72C1031.15,-78.72 1031.15,-103.57 1031.15,-103.57"/>
<polygon fill="black" stroke="black" points="1027.65,-103.57 1031.15,-113.57 1034.65,-103.57 1027.65,-103.57"/>
</g>
<!-- WorkspaceService -->
<g id="node18" class="node">
<title>WorkspaceService</title>
<ellipse fill="#fdb462" stroke="black" cx="741" cy="-66.8" rx="83.35" ry="18"/>
<text text-anchor="middle" x="741" y="-62.6" font-family="Times,serif" font-size="14.00">WorkspaceService</text>
</g>
<!-- WorkspaceService&#45;&gt;WorkspaceModule -->
<g id="edge17" class="edge">
<title>WorkspaceService&#45;&gt;WorkspaceModule</title>
<path fill="none" stroke="black" d="M816.85,-74.33C816.85,-88.51 816.85,-117.8 816.85,-117.8 816.85,-117.8 994.73,-117.8 994.73,-117.8"/>
<polygon fill="black" stroke="black" points="994.73,-121.3 1004.73,-117.8 994.73,-114.3 994.73,-121.3"/>
</g>
<!-- WorkspaceStatsService -->
<g id="node19" class="node">
<title>WorkspaceStatsService</title>
<ellipse fill="#fdb462" stroke="black" cx="537" cy="-66.8" rx="102.41" ry="18"/>
<text text-anchor="middle" x="537" y="-62.6" font-family="Times,serif" font-size="14.00">WorkspaceStatsService</text>
</g>
<!-- WorkspaceStatsService&#45;&gt;WorkspaceModule -->
<g id="edge18" class="edge">
<title>WorkspaceStatsService&#45;&gt;WorkspaceModule</title>
<path fill="none" stroke="black" d="M568.19,-84.2C568.19,-100.32 568.19,-121.8 568.19,-121.8 568.19,-121.8 994.96,-121.8 994.96,-121.8"/>
<polygon fill="black" stroke="black" points="994.96,-125.3 1004.96,-121.8 994.96,-118.3 994.96,-125.3"/>
</g>
<!-- WorkspaceUserListsService -->
<g id="node20" class="node">
<title>WorkspaceUserListsService</title>
<ellipse fill="#fdb462" stroke="black" cx="296" cy="-66.8" rx="120.38" ry="18"/>
<text text-anchor="middle" x="296" y="-62.6" font-family="Times,serif" font-size="14.00">WorkspaceUserListsService</text>
</g>
<!-- WorkspaceUserListsService&#45;&gt;WorkspaceModule -->
<g id="edge19" class="edge">
<title>WorkspaceUserListsService&#45;&gt;WorkspaceModule</title>
<path fill="none" stroke="black" d="M358.69,-82.3C358.69,-99.78 358.69,-125.8 358.69,-125.8 358.69,-125.8 994.78,-125.8 994.78,-125.8"/>
<polygon fill="black" stroke="black" points="994.78,-129.3 1004.78,-125.8 994.78,-122.3 994.78,-129.3"/>
</g>
</g>
</svg>
