<?xml version="1.0" encoding="UTF-8" standalone="no"?>
<!DOCTYPE svg PUBLIC "-//W3C//DTD SVG 1.1//EN"
 "http://www.w3.org/Graphics/SVG/1.1/DTD/svg11.dtd">
<!-- Generated by graphviz version 3.0.0 (20220226.1711)
 -->
<!-- Title: dependencies Pages: 1 -->
<svg width="374pt" height="247pt"
 viewBox="0.00 0.00 374.00 246.80" xmlns="http://www.w3.org/2000/svg" xmlns:xlink="http://www.w3.org/1999/xlink">
<g id="graph0" class="graph" transform="scale(1 1) rotate(0) translate(4 242.8)">
<title>dependencies</title>
<polygon fill="white" stroke="transparent" points="-4,4 -4,-242.8 370,-242.8 370,4 -4,4"/>
<text text-anchor="middle" x="183" y="-8.2" font-family="sans-serif" font-size="14.00">dependencies</text>
<g id="clust1" class="cluster">
<title>cluster_WorkspaceModule</title>
<polygon fill="none" stroke="black" stroke-dasharray="1,5" points="8,-32.8 8,-230.8 358,-230.8 358,-32.8 8,-32.8"/>
</g>
<g id="clust4" class="cluster">
<title>cluster_WorkspaceModule_exports</title>
<polygon fill="none" stroke="black" points="122,-170.8 122,-222.8 262,-222.8 262,-170.8 122,-170.8"/>
</g>
<g id="clust3" class="cluster">
<title>cluster_WorkspaceModule_imports</title>
<polygon fill="none" stroke="black" points="206,-40.8 206,-92.8 350,-92.8 350,-40.8 206,-40.8"/>
</g>
<g id="clust6" class="cluster">
<title>cluster_WorkspaceModule_providers</title>
<polygon fill="none" stroke="black" points="16,-40.8 16,-92.8 198,-92.8 198,-40.8 16,-40.8"/>
</g>
<!-- ApiServicesModule -->
<g id="node1" class="node">
<title>ApiServicesModule</title>
<polygon fill="#8dd3c7" stroke="black" points="341.98,-84.8 338.98,-88.8 317.98,-88.8 314.98,-84.8 214.02,-84.8 214.02,-48.8 341.98,-48.8 341.98,-84.8"/>
<text text-anchor="middle" x="278" y="-62.6" font-family="Times,serif" font-size="14.00">ApiServicesModule</text>
</g>
<!-- WorkspaceModule -->
<g id="node2" class="node">
<title>WorkspaceModule</title>
<polygon fill="#8dd3c7" stroke="black" points="253.02,-149.8 250.02,-153.8 229.02,-153.8 226.02,-149.8 130.98,-149.8 130.98,-113.8 253.02,-113.8 253.02,-149.8"/>
<text text-anchor="middle" x="192" y="-127.6" font-family="Times,serif" font-size="14.00">WorkspaceModule</text>
</g>
<!-- ApiServicesModule&#45;&gt;WorkspaceModule -->
<g id="edge1" class="edge">
<title>ApiServicesModule&#45;&gt;WorkspaceModule</title>
<path fill="none" stroke="black" d="M233.63,-84.91C233.63,-84.91 233.63,-103.79 233.63,-103.79"/>
<polygon fill="black" stroke="black" points="230.13,-103.79 233.63,-113.79 237.13,-103.79 230.13,-103.79"/>
</g>
<!-- WorkspaceService  -->
<g id="node3" class="node">
<title>WorkspaceService </title>
<polygon fill="#fb8072" stroke="black" points="254.45,-214.8 129.55,-214.8 129.55,-178.8 254.45,-178.8 254.45,-214.8"/>
<text text-anchor="middle" x="192" y="-192.6" font-family="Times,serif" font-size="14.00">WorkspaceService </text>
</g>
<!-- WorkspaceModule&#45;&gt;WorkspaceService  -->
<g id="edge2" class="edge">
<title>WorkspaceModule&#45;&gt;WorkspaceService </title>
<path fill="none" stroke="black" stroke-dasharray="5,2" d="M192,-149.91C192,-149.91 192,-168.79 192,-168.79"/>
<polygon fill="black" stroke="black" points="188.5,-168.79 192,-178.79 195.5,-168.79 188.5,-168.79"/>
</g>
<!-- WorkspaceService -->
<g id="node4" class="node">
<title>WorkspaceService</title>
<ellipse fill="#fdb462" stroke="black" cx="107" cy="-66.8" rx="83.35" ry="18"/>
<text text-anchor="middle" x="107" y="-62.6" font-family="Times,serif" font-size="14.00">WorkspaceService</text>
</g>
<!-- WorkspaceService&#45;&gt;WorkspaceModule -->
<g id="edge3" class="edge">
<title>WorkspaceService&#45;&gt;WorkspaceModule</title>
<path fill="none" stroke="black" d="M160.58,-80.9C160.58,-80.9 160.58,-103.52 160.58,-103.52"/>
<polygon fill="black" stroke="black" points="157.08,-103.52 160.58,-113.52 164.08,-103.52 157.08,-103.52"/>
</g>
</g>
</svg>
