<?xml version="1.0" encoding="UTF-8" standalone="no"?>
<!DOCTYPE svg PUBLIC "-//W3C//DTD SVG 1.1//EN"
 "http://www.w3.org/Graphics/SVG/1.1/DTD/svg11.dtd">
<!-- Generated by graphviz version 3.0.0 (20220226.1711)
 -->
<!-- Title: dependencies Pages: 1 -->
<svg width="2329pt" height="247pt"
 viewBox="0.00 0.00 2329.00 246.80" xmlns="http://www.w3.org/2000/svg" xmlns:xlink="http://www.w3.org/1999/xlink">
<g id="graph0" class="graph" transform="scale(1 1) rotate(0) translate(4 242.8)">
<title>dependencies</title>
<polygon fill="white" stroke="transparent" points="-4,4 -4,-242.8 2325,-242.8 2325,4 -4,4"/>
<text text-anchor="middle" x="1160.5" y="-8.2" font-family="sans-serif" font-size="14.00">dependencies</text>
<g id="clust1" class="cluster">
<title>cluster_WorkspaceModule</title>
<polygon fill="none" stroke="black" stroke-dasharray="1,5" points="8,-32.8 8,-230.8 2313,-230.8 2313,-32.8 8,-32.8"/>
</g>
<g id="clust3" class="cluster">
<title>cluster_WorkspaceModule_imports</title>
<polygon fill="none" stroke="black" points="2161,-40.8 2161,-92.8 2305,-92.8 2305,-40.8 2161,-40.8"/>
</g>
<g id="clust6" class="cluster">
<title>cluster_WorkspaceModule_providers</title>
<polygon fill="none" stroke="black" points="16,-40.8 16,-92.8 2153,-92.8 2153,-40.8 16,-40.8"/>
</g>
<g id="clust4" class="cluster">
<title>cluster_WorkspaceModule_exports</title>
<polygon fill="none" stroke="black" points="370,-170.8 370,-222.8 1995,-222.8 1995,-170.8 370,-170.8"/>
</g>
<!-- ApiServicesModule -->
<g id="node1" class="node">
<title>ApiServicesModule</title>
<polygon fill="#8dd3c7" stroke="black" points="2296.98,-84.8 2293.98,-88.8 2272.98,-88.8 2269.98,-84.8 2169.02,-84.8 2169.02,-48.8 2296.98,-48.8 2296.98,-84.8"/>
<text text-anchor="middle" x="2233" y="-62.6" font-family="Times,serif" font-size="14.00">ApiServicesModule</text>
</g>
<!-- WorkspaceModule -->
<g id="node2" class="node">
<title>WorkspaceModule</title>
<polygon fill="#8dd3c7" stroke="black" points="1204.02,-149.8 1201.02,-153.8 1180.02,-153.8 1177.02,-149.8 1081.98,-149.8 1081.98,-113.8 1204.02,-113.8 1204.02,-149.8"/>
<text text-anchor="middle" x="1143" y="-127.6" font-family="Times,serif" font-size="14.00">WorkspaceModule</text>
</g>
<!-- ApiServicesModule&#45;&gt;WorkspaceModule -->
<g id="edge1" class="edge">
<title>ApiServicesModule&#45;&gt;WorkspaceModule</title>
<path fill="none" stroke="black" d="M2233,-85.02C2233,-103.63 2233,-129.8 2233,-129.8 2233,-129.8 1214.33,-129.8 1214.33,-129.8"/>
<polygon fill="black" stroke="black" points="1214.33,-126.3 1204.33,-129.8 1214.33,-133.3 1214.33,-126.3"/>
</g>
<!-- WorkspaceContributorsService  -->
<g id="node3" class="node">
<title>WorkspaceContributorsService </title>
<polygon fill="#fb8072" stroke="black" points="1986.72,-214.8 1791.28,-214.8 1791.28,-178.8 1986.72,-178.8 1986.72,-214.8"/>
<text text-anchor="middle" x="1889" y="-192.6" font-family="Times,serif" font-size="14.00">WorkspaceContributorsService </text>
</g>
<!-- WorkspaceModule&#45;&gt;WorkspaceContributorsService  -->
<g id="edge2" class="edge">
<title>WorkspaceModule&#45;&gt;WorkspaceContributorsService </title>
<path fill="none" stroke="black" stroke-dasharray="5,2" d="M1204.02,-133.8C1371.71,-133.8 1827.2,-133.8 1827.2,-133.8 1827.2,-133.8 1827.2,-168.58 1827.2,-168.58"/>
<polygon fill="black" stroke="black" points="1823.7,-168.58 1827.2,-178.58 1830.7,-168.58 1823.7,-168.58"/>
</g>
<!-- WorkspaceInsightsService  -->
<g id="node4" class="node">
<title>WorkspaceInsightsService </title>
<polygon fill="#fb8072" stroke="black" points="1773.28,-214.8 1604.72,-214.8 1604.72,-178.8 1773.28,-178.8 1773.28,-214.8"/>
<text text-anchor="middle" x="1689" y="-192.6" font-family="Times,serif" font-size="14.00">WorkspaceInsightsService </text>
</g>
<!-- WorkspaceModule&#45;&gt;WorkspaceInsightsService  -->
<g id="edge3" class="edge">
<title>WorkspaceModule&#45;&gt;WorkspaceInsightsService </title>
<path fill="none" stroke="black" stroke-dasharray="5,2" d="M1204.15,-137.8C1330.94,-137.8 1610.75,-137.8 1610.75,-137.8 1610.75,-137.8 1610.75,-168.78 1610.75,-168.78"/>
<polygon fill="black" stroke="black" points="1607.25,-168.78 1610.75,-178.78 1614.25,-168.78 1607.25,-168.78"/>
</g>
<!-- WorkspaceMembersService  -->
<g id="node5" class="node">
<title>WorkspaceMembersService </title>
<polygon fill="#fb8072" stroke="black" points="1586.82,-214.8 1409.18,-214.8 1409.18,-178.8 1586.82,-178.8 1586.82,-214.8"/>
<text text-anchor="middle" x="1498" y="-192.6" font-family="Times,serif" font-size="14.00">WorkspaceMembersService </text>
</g>
<!-- WorkspaceModule&#45;&gt;WorkspaceMembersService  -->
<g id="edge4" class="edge">
<title>WorkspaceModule&#45;&gt;WorkspaceMembersService </title>
<path fill="none" stroke="black" stroke-dasharray="5,2" d="M1204.03,-141.8C1305.53,-141.8 1498,-141.8 1498,-141.8 1498,-141.8 1498,-168.79 1498,-168.79"/>
<polygon fill="black" stroke="black" points="1494.5,-168.79 1498,-178.79 1501.5,-168.79 1494.5,-168.79"/>
</g>
<!-- WorkspaceOrgsService  -->
<g id="node6" class="node">
<title>WorkspaceOrgsService </title>
<polygon fill="#fb8072" stroke="black" points="1391.67,-214.8 1240.33,-214.8 1240.33,-178.8 1391.67,-178.8 1391.67,-214.8"/>
<text text-anchor="middle" x="1316" y="-192.6" font-family="Times,serif" font-size="14.00">WorkspaceOrgsService </text>
</g>
<!-- WorkspaceModule&#45;&gt;WorkspaceOrgsService  -->
<g id="edge5" class="edge">
<title>WorkspaceModule&#45;&gt;WorkspaceOrgsService </title>
<path fill="none" stroke="black" stroke-dasharray="5,2" d="M1204.03,-145.8C1248.02,-145.8 1299.68,-145.8 1299.68,-145.8 1299.68,-145.8 1299.68,-168.68 1299.68,-168.68"/>
<polygon fill="black" stroke="black" points="1296.18,-168.68 1299.68,-178.68 1303.18,-168.68 1296.18,-168.68"/>
</g>
<!-- WorkspacePayeeService  -->
<g id="node7" class="node">
<title>WorkspacePayeeService </title>
<polygon fill="#fb8072" stroke="black" points="1221.87,-214.8 1064.13,-214.8 1064.13,-178.8 1221.87,-178.8 1221.87,-214.8"/>
<text text-anchor="middle" x="1143" y="-192.6" font-family="Times,serif" font-size="14.00">WorkspacePayeeService </text>
</g>
<!-- WorkspaceModule&#45;&gt;WorkspacePayeeService  -->
<g id="edge6" class="edge">
<title>WorkspaceModule&#45;&gt;WorkspacePayeeService </title>
<path fill="none" stroke="black" stroke-dasharray="5,2" d="M1143,-149.91C1143,-149.91 1143,-168.79 1143,-168.79"/>
<polygon fill="black" stroke="black" points="1139.5,-168.79 1143,-178.79 1146.5,-168.79 1139.5,-168.79"/>
</g>
<!-- WorkspaceReposService  -->
<g id="node8" class="node">
<title>WorkspaceReposService </title>
<polygon fill="#fb8072" stroke="black" points="1045.95,-214.8 886.05,-214.8 886.05,-178.8 1045.95,-178.8 1045.95,-214.8"/>
<text text-anchor="middle" x="966" y="-192.6" font-family="Times,serif" font-size="14.00">WorkspaceReposService </text>
</g>
<!-- WorkspaceModule&#45;&gt;WorkspaceReposService  -->
<g id="edge7" class="edge">
<title>WorkspaceModule&#45;&gt;WorkspaceReposService </title>
<path fill="none" stroke="black" stroke-dasharray="5,2" d="M1081.77,-145.8C1037.2,-145.8 984.62,-145.8 984.62,-145.8 984.62,-145.8 984.62,-168.68 984.62,-168.68"/>
<polygon fill="black" stroke="black" points="981.12,-168.68 984.62,-178.68 988.12,-168.68 981.12,-168.68"/>
</g>
<!-- WorkspaceService  -->
<g id="node9" class="node">
<title>WorkspaceService </title>
<polygon fill="#fb8072" stroke="black" points="868.45,-214.8 743.55,-214.8 743.55,-178.8 868.45,-178.8 868.45,-214.8"/>
<text text-anchor="middle" x="806" y="-192.6" font-family="Times,serif" font-size="14.00">WorkspaceService </text>
</g>
<!-- WorkspaceModule&#45;&gt;WorkspaceService  -->
<g id="edge8" class="edge">
<title>WorkspaceModule&#45;&gt;WorkspaceService </title>
<path fill="none" stroke="black" stroke-dasharray="5,2" d="M1081.97,-141.8C984.86,-141.8 806,-141.8 806,-141.8 806,-141.8 806,-168.79 806,-168.79"/>
<polygon fill="black" stroke="black" points="802.5,-168.79 806,-178.79 809.5,-168.79 802.5,-168.79"/>
</g>
<!-- WorkspaceStatsService  -->
<g id="node10" class="node">
<title>WorkspaceStatsService </title>
<polygon fill="#fb8072" stroke="black" points="725.67,-214.8 574.33,-214.8 574.33,-178.8 725.67,-178.8 725.67,-214.8"/>
<text text-anchor="middle" x="650" y="-192.6" font-family="Times,serif" font-size="14.00">WorkspaceStatsService </text>
</g>
<!-- WorkspaceModule&#45;&gt;WorkspaceStatsService  -->
<g id="edge9" class="edge">
<title>WorkspaceModule&#45;&gt;WorkspaceStatsService </title>
<path fill="none" stroke="black" stroke-dasharray="5,2" d="M1081.62,-137.8C961.75,-137.8 708.13,-137.8 708.13,-137.8 708.13,-137.8 708.13,-168.78 708.13,-168.78"/>
<polygon fill="black" stroke="black" points="704.63,-168.78 708.13,-178.78 711.63,-168.78 704.63,-168.78"/>
</g>
<!-- WorkspaceUserListsService  -->
<g id="node11" class="node">
<title>WorkspaceUserListsService </title>
<polygon fill="#fb8072" stroke="black" points="556.11,-214.8 377.89,-214.8 377.89,-178.8 556.11,-178.8 556.11,-214.8"/>
<text text-anchor="middle" x="467" y="-192.6" font-family="Times,serif" font-size="14.00">WorkspaceUserListsService </text>
</g>
<!-- WorkspaceModule&#45;&gt;WorkspaceUserListsService  -->
<g id="edge10" class="edge">
<title>WorkspaceModule&#45;&gt;WorkspaceUserListsService </title>
<path fill="none" stroke="black" stroke-dasharray="5,2" d="M1081.78,-133.8C926.74,-133.8 530.81,-133.8 530.81,-133.8 530.81,-133.8 530.81,-168.58 530.81,-168.58"/>
<polygon fill="black" stroke="black" points="527.31,-168.58 530.81,-178.58 534.31,-168.58 527.31,-168.58"/>
</g>
<!-- WorkspaceContributorsService -->
<g id="node12" class="node">
<title>WorkspaceContributorsService</title>
<ellipse fill="#fdb462" stroke="black" cx="2013" cy="-66.8" rx="132.5" ry="18"/>
<text text-anchor="middle" x="2013" y="-62.6" font-family="Times,serif" font-size="14.00">WorkspaceContributorsService</text>
</g>
<!-- WorkspaceContributorsService&#45;&gt;WorkspaceModule -->
<g id="edge11" class="edge">
<title>WorkspaceContributorsService&#45;&gt;WorkspaceModule</title>
<path fill="none" stroke="black" d="M1933.68,-81.38C1933.68,-98.86 1933.68,-125.8 1933.68,-125.8 1933.68,-125.8 1214.06,-125.8 1214.06,-125.8"/>
<polygon fill="black" stroke="black" points="1214.06,-122.3 1204.06,-125.8 1214.06,-129.3 1214.06,-122.3"/>
</g>
<!-- WorkspaceInsightsService -->
<g id="node13" class="node">
<title>WorkspaceInsightsService</title>
<ellipse fill="#fdb462" stroke="black" cx="1749" cy="-66.8" rx="114.02" ry="18"/>
<text text-anchor="middle" x="1749" y="-62.6" font-family="Times,serif" font-size="14.00">WorkspaceInsightsService</text>
</g>
<!-- WorkspaceInsightsService&#45;&gt;WorkspaceModule -->
<g id="edge12" class="edge">
<title>WorkspaceInsightsService&#45;&gt;WorkspaceModule</title>
<path fill="none" stroke="black" d="M1704.19,-83.6C1704.19,-99.78 1704.19,-121.8 1704.19,-121.8 1704.19,-121.8 1214.13,-121.8 1214.13,-121.8"/>
<polygon fill="black" stroke="black" points="1214.13,-118.3 1204.13,-121.8 1214.13,-125.3 1214.13,-118.3"/>
</g>
<!-- WorkspaceMembersService -->
<g id="node14" class="node">
<title>WorkspaceMembersService</title>
<ellipse fill="#fdb462" stroke="black" cx="1497" cy="-66.8" rx="119.8" ry="18"/>
<text text-anchor="middle" x="1497" y="-62.6" font-family="Times,serif" font-size="14.00">WorkspaceMembersService</text>
</g>
<!-- WorkspaceMembersService&#45;&gt;WorkspaceModule -->
<g id="edge13" class="edge">
<title>WorkspaceMembersService&#45;&gt;WorkspaceModule</title>
<path fill="none" stroke="black" d="M1384.47,-73.05C1384.47,-86.67 1384.47,-117.8 1384.47,-117.8 1384.47,-117.8 1214.24,-117.8 1214.24,-117.8"/>
<polygon fill="black" stroke="black" points="1214.24,-114.3 1204.24,-117.8 1214.24,-121.3 1214.24,-114.3"/>
</g>
<!-- WorkspaceOrgsService -->
<g id="node15" class="node">
<title>WorkspaceOrgsService</title>
<ellipse fill="#fdb462" stroke="black" cx="1257" cy="-66.8" rx="102.4" ry="18"/>
<text text-anchor="middle" x="1257" y="-62.6" font-family="Times,serif" font-size="14.00">WorkspaceOrgsService</text>
</g>
<!-- WorkspaceOrgsService&#45;&gt;WorkspaceModule -->
<g id="edge14" class="edge">
<title>WorkspaceOrgsService&#45;&gt;WorkspaceModule</title>
<path fill="none" stroke="black" d="M1179.53,-78.72C1179.53,-78.72 1179.53,-103.57 1179.53,-103.57"/>
<polygon fill="black" stroke="black" points="1176.03,-103.57 1179.53,-113.57 1183.03,-103.57 1176.03,-103.57"/>
</g>
<!-- WorkspacePayeeService -->
<g id="node16" class="node">
<title>WorkspacePayeeService</title>
<ellipse fill="#fdb462" stroke="black" cx="1030" cy="-66.8" rx="106.47" ry="18"/>
<text text-anchor="middle" x="1030" y="-62.6" font-family="Times,serif" font-size="14.00">WorkspacePayeeService</text>
</g>
<!-- WorkspacePayeeService&#45;&gt;WorkspaceModule -->
<g id="edge15" class="edge">
<title>WorkspacePayeeService&#45;&gt;WorkspaceModule</title>
<path fill="none" stroke="black" d="M1109.11,-79.03C1109.11,-79.03 1109.11,-103.48 1109.11,-103.48"/>
<polygon fill="black" stroke="black" points="1105.61,-103.48 1109.11,-113.48 1112.61,-103.48 1105.61,-103.48"/>
</g>
<!-- WorkspaceReposService -->
<g id="node17" class="node">
<title>WorkspaceReposService</title>
<ellipse fill="#fdb462" stroke="black" cx="798" cy="-66.8" rx="107.64" ry="18"/>
<text text-anchor="middle" x="798" y="-62.6" font-family="Times,serif" font-size="14.00">WorkspaceReposService</text>
</g>
<!-- WorkspaceReposService&#45;&gt;WorkspaceModule -->
<g id="edge16" class="edge">
<title>WorkspaceReposService&#45;&gt;WorkspaceModule</title>
<path fill="none" stroke="black" d="M895.92,-74.33C895.92,-88.51 895.92,-117.8 895.92,-117.8 895.92,-117.8 1071.92,-117.8 1071.92,-117.8"/>
<polygon fill="black" stroke="black" points="1071.92,-121.3 1081.92,-117.8 1071.92,-114.3 1071.92,-121.3"/>
</g>
<!-- WorkspaceService -->
<g id="node18" class="node">
<title>WorkspaceService</title>
<ellipse fill="#fdb462" stroke="black" cx="589" cy="-66.8" rx="83.35" ry="18"/>
<text text-anchor="middle" x="589" y="-62.6" font-family="Times,serif" font-size="14.00">WorkspaceService</text>
</g>
<!-- WorkspaceService&#45;&gt;WorkspaceModule -->
<g id="edge17" class="edge">
<title>WorkspaceService&#45;&gt;WorkspaceModule</title>
<path fill="none" stroke="black" d="M623.29,-83.3C623.29,-99.5 623.29,-121.8 623.29,-121.8 623.29,-121.8 1071.85,-121.8 1071.85,-121.8"/>
<polygon fill="black" stroke="black" points="1071.85,-125.3 1081.85,-121.8 1071.85,-118.3 1071.85,-125.3"/>
</g>
<!-- WorkspaceStatsService -->
<g id="node19" class="node">
<title>WorkspaceStatsService</title>
<ellipse fill="#fdb462" stroke="black" cx="385" cy="-66.8" rx="102.41" ry="18"/>
<text text-anchor="middle" x="385" y="-62.6" font-family="Times,serif" font-size="14.00">WorkspaceStatsService</text>
</g>
<!-- WorkspaceStatsService&#45;&gt;WorkspaceModule -->
<g id="edge18" class="edge">
<title>WorkspaceStatsService&#45;&gt;WorkspaceModule</title>
<path fill="none" stroke="black" d="M432.58,-82.92C432.58,-100.39 432.58,-125.8 432.58,-125.8 432.58,-125.8 1071.81,-125.8 1071.81,-125.8"/>
<polygon fill="black" stroke="black" points="1071.81,-129.3 1081.81,-125.8 1071.81,-122.3 1071.81,-129.3"/>
</g>
<!-- WorkspaceUserListsService -->
<g id="node20" class="node">
<title>WorkspaceUserListsService</title>
<ellipse fill="#fdb462" stroke="black" cx="144" cy="-66.8" rx="120.38" ry="18"/>
<text text-anchor="middle" x="144" y="-62.6" font-family="Times,serif" font-size="14.00">WorkspaceUserListsService</text>
</g>
<!-- WorkspaceUserListsService&#45;&gt;WorkspaceModule -->
<g id="edge19" class="edge">
<title>WorkspaceUserListsService&#45;&gt;WorkspaceModule</title>
<path fill="none" stroke="black" d="M144,-85.02C144,-103.63 144,-129.8 144,-129.8 144,-129.8 1071.64,-129.8 1071.64,-129.8"/>
<polygon fill="black" stroke="black" points="1071.64,-133.3 1081.64,-129.8 1071.64,-126.3 1071.64,-133.3"/>
</g>
</g>
</svg>
