<?xml version="1.0" encoding="UTF-8" standalone="no"?>
<!DOCTYPE svg PUBLIC "-//W3C//DTD SVG 1.1//EN"
 "http://www.w3.org/Graphics/SVG/1.1/DTD/svg11.dtd">
<!-- Generated by graphviz version 3.0.0 (20220226.1711)
 -->
<!-- Title: dependencies Pages: 1 -->
<svg width="2098pt" height="247pt"
 viewBox="0.00 0.00 2098.00 246.80" xmlns="http://www.w3.org/2000/svg" xmlns:xlink="http://www.w3.org/1999/xlink">
<g id="graph0" class="graph" transform="scale(1 1) rotate(0) translate(4 242.8)">
<title>dependencies</title>
<polygon fill="white" stroke="transparent" points="-4,4 -4,-242.8 2094,-242.8 2094,4 -4,4"/>
<text text-anchor="middle" x="1045" y="-8.2" font-family="sans-serif" font-size="14.00">dependencies</text>
<g id="clust1" class="cluster">
<title>cluster_WorkspaceModule</title>
<polygon fill="none" stroke="black" stroke-dasharray="1,5" points="8,-32.8 8,-230.8 2082,-230.8 2082,-32.8 8,-32.8"/>
</g>
<g id="clust3" class="cluster">
<title>cluster_WorkspaceModule_imports</title>
<polygon fill="none" stroke="black" points="1930,-40.8 1930,-92.8 2074,-92.8 2074,-40.8 1930,-40.8"/>
</g>
<g id="clust4" class="cluster">
<title>cluster_WorkspaceModule_exports</title>
<polygon fill="none" stroke="black" points="343,-170.8 343,-222.8 1792,-222.8 1792,-170.8 343,-170.8"/>
</g>
<g id="clust6" class="cluster">
<title>cluster_WorkspaceModule_providers</title>
<polygon fill="none" stroke="black" points="16,-40.8 16,-92.8 1922,-92.8 1922,-40.8 16,-40.8"/>
</g>
<!-- ApiServicesModule -->
<g id="node1" class="node">
<title>ApiServicesModule</title>
<polygon fill="#8dd3c7" stroke="black" points="2065.98,-84.8 2062.98,-88.8 2041.98,-88.8 2038.98,-84.8 1938.02,-84.8 1938.02,-48.8 2065.98,-48.8 2065.98,-84.8"/>
<text text-anchor="middle" x="2002" y="-62.6" font-family="Times,serif" font-size="14.00">ApiServicesModule</text>
</g>
<!-- WorkspaceModule -->
<g id="node2" class="node">
<title>WorkspaceModule</title>
<polygon fill="#8dd3c7" stroke="black" points="1087.02,-149.8 1084.02,-153.8 1063.02,-153.8 1060.02,-149.8 964.98,-149.8 964.98,-113.8 1087.02,-113.8 1087.02,-149.8"/>
<text text-anchor="middle" x="1026" y="-127.6" font-family="Times,serif" font-size="14.00">WorkspaceModule</text>
</g>
<!-- ApiServicesModule&#45;&gt;WorkspaceModule -->
<g id="edge1" class="edge">
<title>ApiServicesModule&#45;&gt;WorkspaceModule</title>
<path fill="none" stroke="black" d="M2002,-84.91C2002,-104.14 2002,-131.8 2002,-131.8 2002,-131.8 1097.05,-131.8 1097.05,-131.8"/>
<polygon fill="black" stroke="black" points="1097.05,-128.3 1087.05,-131.8 1097.05,-135.3 1097.05,-128.3"/>
</g>
<!-- WorkspaceContributorsService  -->
<g id="node3" class="node">
<title>WorkspaceContributorsService </title>
<polygon fill="#fb8072" stroke="black" points="1783.72,-214.8 1588.28,-214.8 1588.28,-178.8 1783.72,-178.8 1783.72,-214.8"/>
<text text-anchor="middle" x="1686" y="-192.6" font-family="Times,serif" font-size="14.00">WorkspaceContributorsService </text>
</g>
<!-- WorkspaceModule&#45;&gt;WorkspaceContributorsService  -->
<g id="edge2" class="edge">
<title>WorkspaceModule&#45;&gt;WorkspaceContributorsService </title>
<path fill="none" stroke="black" stroke-dasharray="5,2" d="M1087.14,-136.8C1236.95,-136.8 1610.2,-136.8 1610.2,-136.8 1610.2,-136.8 1610.2,-168.8 1610.2,-168.8"/>
<polygon fill="black" stroke="black" points="1606.7,-168.8 1610.2,-178.8 1613.7,-168.8 1606.7,-168.8"/>
</g>
<!-- WorkspaceInsightsService  -->
<g id="node4" class="node">
<title>WorkspaceInsightsService </title>
<polygon fill="#fb8072" stroke="black" points="1570.28,-214.8 1401.72,-214.8 1401.72,-178.8 1570.28,-178.8 1570.28,-214.8"/>
<text text-anchor="middle" x="1486" y="-192.6" font-family="Times,serif" font-size="14.00">WorkspaceInsightsService </text>
</g>
<!-- WorkspaceModule&#45;&gt;WorkspaceInsightsService  -->
<g id="edge3" class="edge">
<title>WorkspaceModule&#45;&gt;WorkspaceInsightsService </title>
<path fill="none" stroke="black" stroke-dasharray="5,2" d="M1087.43,-140.8C1218.74,-140.8 1514.92,-140.8 1514.92,-140.8 1514.92,-140.8 1514.92,-168.77 1514.92,-168.77"/>
<polygon fill="black" stroke="black" points="1511.42,-168.77 1514.92,-178.77 1518.42,-168.77 1511.42,-168.77"/>
</g>
<!-- WorkspaceMembersService  -->
<g id="node5" class="node">
<title>WorkspaceMembersService </title>
<polygon fill="#fb8072" stroke="black" points="1383.82,-214.8 1206.18,-214.8 1206.18,-178.8 1383.82,-178.8 1383.82,-214.8"/>
<text text-anchor="middle" x="1295" y="-192.6" font-family="Times,serif" font-size="14.00">WorkspaceMembersService </text>
</g>
<!-- WorkspaceModule&#45;&gt;WorkspaceMembersService  -->
<g id="edge4" class="edge">
<title>WorkspaceModule&#45;&gt;WorkspaceMembersService </title>
<path fill="none" stroke="black" stroke-dasharray="5,2" d="M1087.04,-145.8C1166.41,-145.8 1295,-145.8 1295,-145.8 1295,-145.8 1295,-168.68 1295,-168.68"/>
<polygon fill="black" stroke="black" points="1291.5,-168.68 1295,-178.68 1298.5,-168.68 1291.5,-168.68"/>
</g>
<!-- WorkspaceOrgsService  -->
<g id="node6" class="node">
<title>WorkspaceOrgsService </title>
<polygon fill="#fb8072" stroke="black" points="1188.67,-214.8 1037.33,-214.8 1037.33,-178.8 1188.67,-178.8 1188.67,-214.8"/>
<text text-anchor="middle" x="1113" y="-192.6" font-family="Times,serif" font-size="14.00">WorkspaceOrgsService </text>
</g>
<!-- WorkspaceModule&#45;&gt;WorkspaceOrgsService  -->
<g id="edge5" class="edge">
<title>WorkspaceModule&#45;&gt;WorkspaceOrgsService </title>
<path fill="none" stroke="black" stroke-dasharray="5,2" d="M1062.21,-149.91C1062.21,-149.91 1062.21,-168.79 1062.21,-168.79"/>
<polygon fill="black" stroke="black" points="1058.71,-168.79 1062.21,-178.79 1065.71,-168.79 1058.71,-168.79"/>
</g>
<!-- WorkspaceReposService  -->
<g id="node7" class="node">
<title>WorkspaceReposService </title>
<polygon fill="#fb8072" stroke="black" points="1018.95,-214.8 859.05,-214.8 859.05,-178.8 1018.95,-178.8 1018.95,-214.8"/>
<text text-anchor="middle" x="939" y="-192.6" font-family="Times,serif" font-size="14.00">WorkspaceReposService </text>
</g>
<!-- WorkspaceModule&#45;&gt;WorkspaceReposService  -->
<g id="edge6" class="edge">
<title>WorkspaceModule&#45;&gt;WorkspaceReposService </title>
<path fill="none" stroke="black" stroke-dasharray="5,2" d="M991.73,-149.91C991.73,-149.91 991.73,-168.79 991.73,-168.79"/>
<polygon fill="black" stroke="black" points="988.23,-168.79 991.73,-178.79 995.23,-168.79 988.23,-168.79"/>
</g>
<!-- WorkspaceService  -->
<g id="node8" class="node">
<title>WorkspaceService </title>
<polygon fill="#fb8072" stroke="black" points="841.45,-214.8 716.55,-214.8 716.55,-178.8 841.45,-178.8 841.45,-214.8"/>
<text text-anchor="middle" x="779" y="-192.6" font-family="Times,serif" font-size="14.00">WorkspaceService </text>
</g>
<!-- WorkspaceModule&#45;&gt;WorkspaceService  -->
<g id="edge7" class="edge">
<title>WorkspaceModule&#45;&gt;WorkspaceService </title>
<path fill="none" stroke="black" stroke-dasharray="5,2" d="M964.94,-145.8C891.8,-145.8 779,-145.8 779,-145.8 779,-145.8 779,-168.68 779,-168.68"/>
<polygon fill="black" stroke="black" points="775.5,-168.68 779,-178.68 782.5,-168.68 775.5,-168.68"/>
</g>
<!-- WorkspaceStatsService  -->
<g id="node9" class="node">
<title>WorkspaceStatsService </title>
<polygon fill="#fb8072" stroke="black" points="698.67,-214.8 547.33,-214.8 547.33,-178.8 698.67,-178.8 698.67,-214.8"/>
<text text-anchor="middle" x="623" y="-192.6" font-family="Times,serif" font-size="14.00">WorkspaceStatsService </text>
</g>
<!-- WorkspaceModule&#45;&gt;WorkspaceStatsService  -->
<g id="edge8" class="edge">
<title>WorkspaceModule&#45;&gt;WorkspaceStatsService </title>
<path fill="none" stroke="black" stroke-dasharray="5,2" d="M964.84,-140.8C869.09,-140.8 694.63,-140.8 694.63,-140.8 694.63,-140.8 694.63,-168.77 694.63,-168.77"/>
<polygon fill="black" stroke="black" points="691.13,-168.77 694.63,-178.77 698.13,-168.77 691.13,-168.77"/>
</g>
<!-- WorkspaceUserListsService  -->
<g id="node10" class="node">
<title>WorkspaceUserListsService </title>
<polygon fill="#fb8072" stroke="black" points="529.11,-214.8 350.89,-214.8 350.89,-178.8 529.11,-178.8 529.11,-214.8"/>
<text text-anchor="middle" x="440" y="-192.6" font-family="Times,serif" font-size="14.00">WorkspaceUserListsService </text>
</g>
<!-- WorkspaceModule&#45;&gt;WorkspaceUserListsService  -->
<g id="edge9" class="edge">
<title>WorkspaceModule&#45;&gt;WorkspaceUserListsService </title>
<path fill="none" stroke="black" stroke-dasharray="5,2" d="M964.89,-136.8C829.73,-136.8 517.31,-136.8 517.31,-136.8 517.31,-136.8 517.31,-168.8 517.31,-168.8"/>
<polygon fill="black" stroke="black" points="513.81,-168.8 517.31,-178.8 520.81,-168.8 513.81,-168.8"/>
</g>
<!-- WorkspaceContributorsService -->
<g id="node11" class="node">
<title>WorkspaceContributorsService</title>
<ellipse fill="#fdb462" stroke="black" cx="1782" cy="-66.8" rx="132.5" ry="18"/>
<text text-anchor="middle" x="1782" y="-62.6" font-family="Times,serif" font-size="14.00">WorkspaceContributorsService</text>
</g>
<!-- WorkspaceContributorsService&#45;&gt;WorkspaceModule -->
<g id="edge10" class="edge">
<title>WorkspaceContributorsService&#45;&gt;WorkspaceModule</title>
<path fill="none" stroke="black" d="M1716.68,-82.51C1716.68,-100.58 1716.68,-127.8 1716.68,-127.8 1716.68,-127.8 1097.29,-127.8 1097.29,-127.8"/>
<polygon fill="black" stroke="black" points="1097.29,-124.3 1087.29,-127.8 1097.29,-131.3 1097.29,-124.3"/>
</g>
<!-- WorkspaceInsightsService -->
<g id="node12" class="node">
<title>WorkspaceInsightsService</title>
<ellipse fill="#fdb462" stroke="black" cx="1518" cy="-66.8" rx="114.02" ry="18"/>
<text text-anchor="middle" x="1518" y="-62.6" font-family="Times,serif" font-size="14.00">WorkspaceInsightsService</text>
</g>
<!-- WorkspaceInsightsService&#45;&gt;WorkspaceModule -->
<g id="edge11" class="edge">
<title>WorkspaceInsightsService&#45;&gt;WorkspaceModule</title>
<path fill="none" stroke="black" d="M1459.46,-82.4C1459.46,-98.97 1459.46,-122.8 1459.46,-122.8 1459.46,-122.8 1097.18,-122.8 1097.18,-122.8"/>
<polygon fill="black" stroke="black" points="1097.18,-119.3 1087.18,-122.8 1097.18,-126.3 1097.18,-119.3"/>
</g>
<!-- WorkspaceMembersService -->
<g id="node13" class="node">
<title>WorkspaceMembersService</title>
<ellipse fill="#fdb462" stroke="black" cx="1266" cy="-66.8" rx="119.8" ry="18"/>
<text text-anchor="middle" x="1266" y="-62.6" font-family="Times,serif" font-size="14.00">WorkspaceMembersService</text>
</g>
<!-- WorkspaceMembersService&#45;&gt;WorkspaceModule -->
<g id="edge12" class="edge">
<title>WorkspaceMembersService&#45;&gt;WorkspaceModule</title>
<path fill="none" stroke="black" d="M1167.47,-77.07C1167.47,-92.23 1167.47,-118.8 1167.47,-118.8 1167.47,-118.8 1097.23,-118.8 1097.23,-118.8"/>
<polygon fill="black" stroke="black" points="1097.23,-115.3 1087.23,-118.8 1097.23,-122.3 1097.23,-115.3"/>
</g>
<!-- WorkspaceOrgsService -->
<g id="node14" class="node">
<title>WorkspaceOrgsService</title>
<ellipse fill="#fdb462" stroke="black" cx="1026" cy="-66.8" rx="102.4" ry="18"/>
<text text-anchor="middle" x="1026" y="-62.6" font-family="Times,serif" font-size="14.00">WorkspaceOrgsService</text>
</g>
<!-- WorkspaceOrgsService&#45;&gt;WorkspaceModule -->
<g id="edge13" class="edge">
<title>WorkspaceOrgsService&#45;&gt;WorkspaceModule</title>
<path fill="none" stroke="black" d="M1026,-84.91C1026,-84.91 1026,-103.79 1026,-103.79"/>
<polygon fill="black" stroke="black" points="1022.5,-103.79 1026,-113.79 1029.5,-103.79 1022.5,-103.79"/>
</g>
<!-- WorkspaceReposService -->
<g id="node15" class="node">
<title>WorkspaceReposService</title>
<ellipse fill="#fdb462" stroke="black" cx="798" cy="-66.8" rx="107.64" ry="18"/>
<text text-anchor="middle" x="798" y="-62.6" font-family="Times,serif" font-size="14.00">WorkspaceReposService</text>
</g>
<!-- WorkspaceReposService&#45;&gt;WorkspaceModule -->
<g id="edge14" class="edge">
<title>WorkspaceReposService&#45;&gt;WorkspaceModule</title>
<path fill="none" stroke="black" d="M882.42,-78.08C882.42,-93.38 882.42,-118.8 882.42,-118.8 882.42,-118.8 954.69,-118.8 954.69,-118.8"/>
<polygon fill="black" stroke="black" points="954.69,-122.3 964.69,-118.8 954.69,-115.3 954.69,-122.3"/>
</g>
<!-- WorkspaceService -->
<g id="node16" class="node">
<title>WorkspaceService</title>
<ellipse fill="#fdb462" stroke="black" cx="589" cy="-66.8" rx="83.35" ry="18"/>
<text text-anchor="middle" x="589" y="-62.6" font-family="Times,serif" font-size="14.00">WorkspaceService</text>
</g>
<!-- WorkspaceService&#45;&gt;WorkspaceModule -->
<g id="edge15" class="edge">
<title>WorkspaceService&#45;&gt;WorkspaceModule</title>
<path fill="none" stroke="black" d="M609.79,-84.52C609.79,-100.93 609.79,-122.8 609.79,-122.8 609.79,-122.8 954.59,-122.8 954.59,-122.8"/>
<polygon fill="black" stroke="black" points="954.59,-126.3 964.59,-122.8 954.59,-119.3 954.59,-126.3"/>
</g>
<!-- WorkspaceStatsService -->
<g id="node17" class="node">
<title>WorkspaceStatsService</title>
<ellipse fill="#fdb462" stroke="black" cx="385" cy="-66.8" rx="102.41" ry="18"/>
<text text-anchor="middle" x="385" y="-62.6" font-family="Times,serif" font-size="14.00">WorkspaceStatsService</text>
</g>
<!-- WorkspaceStatsService&#45;&gt;WorkspaceModule -->
<g id="edge16" class="edge">
<title>WorkspaceStatsService&#45;&gt;WorkspaceModule</title>
<path fill="none" stroke="black" d="M419.08,-83.79C419.08,-101.84 419.08,-127.8 419.08,-127.8 419.08,-127.8 954.75,-127.8 954.75,-127.8"/>
<polygon fill="black" stroke="black" points="954.75,-131.3 964.75,-127.8 954.75,-124.3 954.75,-131.3"/>
</g>
<!-- WorkspaceUserListsService -->
<g id="node18" class="node">
<title>WorkspaceUserListsService</title>
<ellipse fill="#fdb462" stroke="black" cx="144" cy="-66.8" rx="120.38" ry="18"/>
<text text-anchor="middle" x="144" y="-62.6" font-family="Times,serif" font-size="14.00">WorkspaceUserListsService</text>
</g>
<!-- WorkspaceUserListsService&#45;&gt;WorkspaceModule -->
<g id="edge17" class="edge">
<title>WorkspaceUserListsService&#45;&gt;WorkspaceModule</title>
<path fill="none" stroke="black" d="M144,-84.91C144,-104.14 144,-131.8 144,-131.8 144,-131.8 954.68,-131.8 954.68,-131.8"/>
<polygon fill="black" stroke="black" points="954.68,-135.3 964.68,-131.8 954.68,-128.3 954.68,-135.3"/>
</g>
</g>
</svg>
