<?xml version="1.0" encoding="UTF-8" standalone="no"?>
<!DOCTYPE svg PUBLIC "-//W3C//DTD SVG 1.1//EN"
 "http://www.w3.org/Graphics/SVG/1.1/DTD/svg11.dtd">
<!-- Generated by graphviz version 3.0.0 (20220226.1711)
 -->
<!-- Title: dependencies Pages: 1 -->
<svg width="1833pt" height="247pt"
 viewBox="0.00 0.00 1833.00 246.80" xmlns="http://www.w3.org/2000/svg" xmlns:xlink="http://www.w3.org/1999/xlink">
<g id="graph0" class="graph" transform="scale(1 1) rotate(0) translate(4 242.8)">
<title>dependencies</title>
<polygon fill="white" stroke="transparent" points="-4,4 -4,-242.8 1829,-242.8 1829,4 -4,4"/>
<text text-anchor="middle" x="912.5" y="-8.2" font-family="sans-serif" font-size="14.00">dependencies</text>
<g id="clust1" class="cluster">
<title>cluster_WorkspaceModule</title>
<polygon fill="none" stroke="black" stroke-dasharray="1,5" points="8,-32.8 8,-230.8 1817,-230.8 1817,-32.8 8,-32.8"/>
</g>
<g id="clust6" class="cluster">
<title>cluster_WorkspaceModule_providers</title>
<polygon fill="none" stroke="black" points="408,-40.8 408,-92.8 1809,-92.8 1809,-40.8 408,-40.8"/>
</g>
<g id="clust3" class="cluster">
<title>cluster_WorkspaceModule_imports</title>
<polygon fill="none" stroke="black" points="16,-40.8 16,-92.8 400,-92.8 400,-40.8 16,-40.8"/>
</g>
<g id="clust4" class="cluster">
<title>cluster_WorkspaceModule_exports</title>
<polygon fill="none" stroke="black" points="235,-170.8 235,-222.8 1301,-222.8 1301,-170.8 235,-170.8"/>
</g>
<!-- ApiServicesModule -->
<g id="node1" class="node">
<title>ApiServicesModule</title>
<polygon fill="#8dd3c7" stroke="black" points="391.98,-84.8 388.98,-88.8 367.98,-88.8 364.98,-84.8 264.02,-84.8 264.02,-48.8 391.98,-48.8 391.98,-84.8"/>
<text text-anchor="middle" x="328" y="-62.6" font-family="Times,serif" font-size="14.00">ApiServicesModule</text>
</g>
<!-- WorkspaceModule -->
<g id="node4" class="node">
<title>WorkspaceModule</title>
<polygon fill="#8dd3c7" stroke="black" points="783.02,-149.8 780.02,-153.8 759.02,-153.8 756.02,-149.8 660.98,-149.8 660.98,-113.8 783.02,-113.8 783.02,-149.8"/>
<text text-anchor="middle" x="722" y="-127.6" font-family="Times,serif" font-size="14.00">WorkspaceModule</text>
</g>
<!-- ApiServicesModule&#45;&gt;WorkspaceModule -->
<g id="edge1" class="edge">
<title>ApiServicesModule&#45;&gt;WorkspaceModule</title>
<path fill="none" stroke="black" d="M349.33,-84.83C349.33,-101.86 349.33,-124.8 349.33,-124.8 349.33,-124.8 650.88,-124.8 650.88,-124.8"/>
<polygon fill="black" stroke="black" points="650.88,-128.3 660.88,-124.8 650.88,-121.3 650.88,-128.3"/>
</g>
<!-- TimescaleModule -->
<g id="node2" class="node">
<title>TimescaleModule</title>
<polygon fill="#8dd3c7" stroke="black" points="245.58,-84.8 242.58,-88.8 221.58,-88.8 218.58,-84.8 128.42,-84.8 128.42,-48.8 245.58,-48.8 245.58,-84.8"/>
<text text-anchor="middle" x="187" y="-62.6" font-family="Times,serif" font-size="14.00">TimescaleModule</text>
</g>
<!-- TimescaleModule&#45;&gt;WorkspaceModule -->
<g id="edge2" class="edge">
<title>TimescaleModule&#45;&gt;WorkspaceModule</title>
<path fill="none" stroke="black" d="M185.81,-85.02C185.81,-103.63 185.81,-129.8 185.81,-129.8 185.81,-129.8 650.75,-129.8 650.75,-129.8"/>
<polygon fill="black" stroke="black" points="650.75,-133.3 660.75,-129.8 650.75,-126.3 650.75,-133.3"/>
</g>
<!-- UserModule -->
<g id="node3" class="node">
<title>UserModule</title>
<polygon fill="#8dd3c7" stroke="black" points="109.99,-84.8 106.99,-88.8 85.99,-88.8 82.99,-84.8 24.01,-84.8 24.01,-48.8 109.99,-48.8 109.99,-84.8"/>
<text text-anchor="middle" x="67" y="-62.6" font-family="Times,serif" font-size="14.00">UserModule</text>
</g>
<!-- UserModule&#45;&gt;WorkspaceModule -->
<g id="edge3" class="edge">
<title>UserModule&#45;&gt;WorkspaceModule</title>
<path fill="none" stroke="black" d="M67,-85.02C67,-105.17 67,-134.8 67,-134.8 67,-134.8 650.97,-134.8 650.97,-134.8"/>
<polygon fill="black" stroke="black" points="650.97,-138.3 660.97,-134.8 650.97,-131.3 650.97,-138.3"/>
</g>
<!-- WorkspaceContributorsService  -->
<g id="node5" class="node">
<title>WorkspaceContributorsService </title>
<polygon fill="#fb8072" stroke="black" points="1292.72,-214.8 1097.28,-214.8 1097.28,-178.8 1292.72,-178.8 1292.72,-214.8"/>
<text text-anchor="middle" x="1195" y="-192.6" font-family="Times,serif" font-size="14.00">WorkspaceContributorsService </text>
</g>
<!-- WorkspaceModule&#45;&gt;WorkspaceContributorsService  -->
<g id="edge4" class="edge">
<title>WorkspaceModule&#45;&gt;WorkspaceContributorsService </title>
<path fill="none" stroke="black" stroke-dasharray="5,2" d="M783.2,-139.8C907.81,-139.8 1179.29,-139.8 1179.29,-139.8 1179.29,-139.8 1179.29,-168.76 1179.29,-168.76"/>
<polygon fill="black" stroke="black" points="1175.8,-168.76 1179.29,-178.76 1182.8,-168.76 1175.8,-168.76"/>
</g>
<!-- WorkspaceMembersService  -->
<g id="node6" class="node">
<title>WorkspaceMembersService </title>
<polygon fill="#fb8072" stroke="black" points="1079.82,-214.8 902.18,-214.8 902.18,-178.8 1079.82,-178.8 1079.82,-214.8"/>
<text text-anchor="middle" x="991" y="-192.6" font-family="Times,serif" font-size="14.00">WorkspaceMembersService </text>
</g>
<!-- WorkspaceModule&#45;&gt;WorkspaceMembersService  -->
<g id="edge5" class="edge">
<title>WorkspaceModule&#45;&gt;WorkspaceMembersService </title>
<path fill="none" stroke="black" stroke-dasharray="5,2" d="M783.1,-144.8C856.66,-144.8 970.45,-144.8 970.45,-144.8 970.45,-144.8 970.45,-168.61 970.45,-168.61"/>
<polygon fill="black" stroke="black" points="966.95,-168.61 970.45,-178.61 973.95,-168.61 966.95,-168.61"/>
</g>
<!-- WorkspaceOrgsService  -->
<g id="node7" class="node">
<title>WorkspaceOrgsService </title>
<polygon fill="#fb8072" stroke="black" points="884.67,-214.8 733.33,-214.8 733.33,-178.8 884.67,-178.8 884.67,-214.8"/>
<text text-anchor="middle" x="809" y="-192.6" font-family="Times,serif" font-size="14.00">WorkspaceOrgsService </text>
</g>
<!-- WorkspaceModule&#45;&gt;WorkspaceOrgsService  -->
<g id="edge6" class="edge">
<title>WorkspaceModule&#45;&gt;WorkspaceOrgsService </title>
<path fill="none" stroke="black" stroke-dasharray="5,2" d="M758.21,-149.91C758.21,-149.91 758.21,-168.79 758.21,-168.79"/>
<polygon fill="black" stroke="black" points="754.71,-168.79 758.21,-178.79 761.71,-168.79 754.71,-168.79"/>
</g>
<!-- WorkspaceReposService  -->
<g id="node8" class="node">
<title>WorkspaceReposService </title>
<polygon fill="#fb8072" stroke="black" points="714.95,-214.8 555.05,-214.8 555.05,-178.8 714.95,-178.8 714.95,-214.8"/>
<text text-anchor="middle" x="635" y="-192.6" font-family="Times,serif" font-size="14.00">WorkspaceReposService </text>
</g>
<!-- WorkspaceModule&#45;&gt;WorkspaceReposService  -->
<g id="edge7" class="edge">
<title>WorkspaceModule&#45;&gt;WorkspaceReposService </title>
<path fill="none" stroke="black" stroke-dasharray="5,2" d="M687.73,-149.91C687.73,-149.91 687.73,-168.79 687.73,-168.79"/>
<polygon fill="black" stroke="black" points="684.23,-168.79 687.73,-178.79 691.23,-168.79 684.23,-168.79"/>
</g>
<!-- WorkspaceService  -->
<g id="node9" class="node">
<title>WorkspaceService </title>
<polygon fill="#fb8072" stroke="black" points="537.45,-214.8 412.55,-214.8 412.55,-178.8 537.45,-178.8 537.45,-214.8"/>
<text text-anchor="middle" x="475" y="-192.6" font-family="Times,serif" font-size="14.00">WorkspaceService </text>
</g>
<!-- WorkspaceModule&#45;&gt;WorkspaceService  -->
<g id="edge8" class="edge">
<title>WorkspaceModule&#45;&gt;WorkspaceService </title>
<path fill="none" stroke="black" stroke-dasharray="5,2" d="M660.69,-144.8C587.97,-144.8 476.51,-144.8 476.51,-144.8 476.51,-144.8 476.51,-168.61 476.51,-168.61"/>
<polygon fill="black" stroke="black" points="473.01,-168.61 476.51,-178.61 480.01,-168.61 473.01,-168.61"/>
</g>
<!-- WorkspaceStatsService  -->
<g id="node10" class="node">
<title>WorkspaceStatsService </title>
<polygon fill="#fb8072" stroke="black" points="394.67,-214.8 243.33,-214.8 243.33,-178.8 394.67,-178.8 394.67,-214.8"/>
<text text-anchor="middle" x="319" y="-192.6" font-family="Times,serif" font-size="14.00">WorkspaceStatsService </text>
</g>
<!-- WorkspaceModule&#45;&gt;WorkspaceStatsService  -->
<g id="edge9" class="edge">
<title>WorkspaceModule&#45;&gt;WorkspaceStatsService </title>
<path fill="none" stroke="black" stroke-dasharray="5,2" d="M660.72,-139.8C545.19,-139.8 306.67,-139.8 306.67,-139.8 306.67,-139.8 306.67,-168.76 306.67,-168.76"/>
<polygon fill="black" stroke="black" points="303.17,-168.76 306.67,-178.76 310.17,-168.76 303.17,-168.76"/>
</g>
<!-- WorkspaceContributorsService -->
<g id="node11" class="node">
<title>WorkspaceContributorsService</title>
<ellipse fill="#fdb462" stroke="black" cx="1669" cy="-66.8" rx="132.5" ry="18"/>
<text text-anchor="middle" x="1669" y="-62.6" font-family="Times,serif" font-size="14.00">WorkspaceContributorsService</text>
</g>
<!-- WorkspaceContributorsService&#45;&gt;WorkspaceModule -->
<g id="edge10" class="edge">
<title>WorkspaceContributorsService&#45;&gt;WorkspaceModule</title>
<path fill="none" stroke="black" d="M1669,-85.02C1669,-105.17 1669,-134.8 1669,-134.8 1669,-134.8 793.04,-134.8 793.04,-134.8"/>
<polygon fill="black" stroke="black" points="793.04,-131.3 783.04,-134.8 793.04,-138.3 793.04,-131.3"/>
</g>
<!-- WorkspaceMembersService -->
<g id="node12" class="node">
<title>WorkspaceMembersService</title>
<ellipse fill="#fdb462" stroke="black" cx="1399" cy="-66.8" rx="119.8" ry="18"/>
<text text-anchor="middle" x="1399" y="-62.6" font-family="Times,serif" font-size="14.00">WorkspaceMembersService</text>
</g>
<!-- WorkspaceMembersService&#45;&gt;WorkspaceModule -->
<g id="edge11" class="edge">
<title>WorkspaceMembersService&#45;&gt;WorkspaceModule</title>
<path fill="none" stroke="black" d="M1285.86,-73.07C1285.86,-89.01 1285.86,-129.8 1285.86,-129.8 1285.86,-129.8 793.15,-129.8 793.15,-129.8"/>
<polygon fill="black" stroke="black" points="793.15,-126.3 783.15,-129.8 793.15,-133.3 793.15,-126.3"/>
</g>
<!-- WorkspaceOrgsService -->
<g id="node13" class="node">
<title>WorkspaceOrgsService</title>
<ellipse fill="#fdb462" stroke="black" cx="1159" cy="-66.8" rx="102.4" ry="18"/>
<text text-anchor="middle" x="1159" y="-62.6" font-family="Times,serif" font-size="14.00">WorkspaceOrgsService</text>
</g>
<!-- WorkspaceOrgsService&#45;&gt;WorkspaceModule -->
<g id="edge12" class="edge">
<title>WorkspaceOrgsService&#45;&gt;WorkspaceModule</title>
<path fill="none" stroke="black" d="M1068.23,-75.36C1068.23,-91.49 1068.23,-124.8 1068.23,-124.8 1068.23,-124.8 793.1,-124.8 793.1,-124.8"/>
<polygon fill="black" stroke="black" points="793.1,-121.3 783.1,-124.8 793.1,-128.3 793.1,-121.3"/>
</g>
<!-- WorkspaceReposService -->
<g id="node14" class="node">
<title>WorkspaceReposService</title>
<ellipse fill="#fdb462" stroke="black" cx="931" cy="-66.8" rx="107.64" ry="18"/>
<text text-anchor="middle" x="931" y="-62.6" font-family="Times,serif" font-size="14.00">WorkspaceReposService</text>
</g>
<!-- WorkspaceReposService&#45;&gt;WorkspaceModule -->
<g id="edge13" class="edge">
<title>WorkspaceReposService&#45;&gt;WorkspaceModule</title>
<path fill="none" stroke="black" d="M854.13,-79.63C854.13,-95.32 854.13,-119.8 854.13,-119.8 854.13,-119.8 793.04,-119.8 793.04,-119.8"/>
<polygon fill="black" stroke="black" points="793.04,-116.3 783.04,-119.8 793.04,-123.3 793.04,-116.3"/>
</g>
<!-- WorkspaceService -->
<g id="node15" class="node">
<title>WorkspaceService</title>
<ellipse fill="#fdb462" stroke="black" cx="722" cy="-66.8" rx="83.35" ry="18"/>
<text text-anchor="middle" x="722" y="-62.6" font-family="Times,serif" font-size="14.00">WorkspaceService</text>
</g>
<!-- WorkspaceService&#45;&gt;WorkspaceModule -->
<g id="edge14" class="edge">
<title>WorkspaceService&#45;&gt;WorkspaceModule</title>
<path fill="none" stroke="black" d="M722,-84.91C722,-84.91 722,-103.79 722,-103.79"/>
<polygon fill="black" stroke="black" points="718.5,-103.79 722,-113.79 725.5,-103.79 718.5,-103.79"/>
</g>
<!-- WorkspaceStatsService -->
<g id="node16" class="node">
<title>WorkspaceStatsService</title>
<ellipse fill="#fdb462" stroke="black" cx="518" cy="-66.8" rx="102.41" ry="18"/>
<text text-anchor="middle" x="518" y="-62.6" font-family="Times,serif" font-size="14.00">WorkspaceStatsService</text>
</g>
<!-- WorkspaceStatsService&#45;&gt;WorkspaceModule -->
<g id="edge15" class="edge">
<title>WorkspaceStatsService&#45;&gt;WorkspaceModule</title>
<path fill="none" stroke="black" d="M587.74,-80.17C587.74,-95.87 587.74,-119.8 587.74,-119.8 587.74,-119.8 650.76,-119.8 650.76,-119.8"/>
<polygon fill="black" stroke="black" points="650.76,-123.3 660.76,-119.8 650.76,-116.3 650.76,-123.3"/>
</g>
</g>
</svg>
