<?xml version="1.0" encoding="UTF-8" standalone="no"?>
<!DOCTYPE svg PUBLIC "-//W3C//DTD SVG 1.1//EN"
 "http://www.w3.org/Graphics/SVG/1.1/DTD/svg11.dtd">
<!-- Generated by graphviz version 3.0.0 (20220226.1711)
 -->
<!-- Title: dependencies Pages: 1 -->
<svg width="764pt" height="247pt"
 viewBox="0.00 0.00 764.00 246.80" xmlns="http://www.w3.org/2000/svg" xmlns:xlink="http://www.w3.org/1999/xlink">
<g id="graph0" class="graph" transform="scale(1 1) rotate(0) translate(4 242.8)">
<title>dependencies</title>
<polygon fill="white" stroke="transparent" points="-4,4 -4,-242.8 760,-242.8 760,4 -4,4"/>
<text text-anchor="middle" x="378" y="-8.2" font-family="sans-serif" font-size="14.00">dependencies</text>
<g id="clust1" class="cluster">
<title>cluster_PizzaOvenModule</title>
<polygon fill="none" stroke="black" stroke-dasharray="1,5" points="8,-32.8 8,-230.8 748,-230.8 748,-32.8 8,-32.8"/>
</g>
<g id="clust3" class="cluster">
<title>cluster_PizzaOvenModule_imports</title>
<polygon fill="none" stroke="black" points="596,-40.8 596,-92.8 740,-92.8 740,-40.8 596,-40.8"/>
</g>
<g id="clust4" class="cluster">
<title>cluster_PizzaOvenModule_exports</title>
<polygon fill="none" stroke="black" points="175,-170.8 175,-222.8 614,-222.8 614,-170.8 175,-170.8"/>
</g>
<g id="clust6" class="cluster">
<title>cluster_PizzaOvenModule_providers</title>
<polygon fill="none" stroke="black" points="16,-40.8 16,-92.8 588,-92.8 588,-40.8 16,-40.8"/>
</g>
<!-- ApiServicesModule -->
<g id="node1" class="node">
<title>ApiServicesModule</title>
<polygon fill="#8dd3c7" stroke="black" points="731.98,-84.8 728.98,-88.8 707.98,-88.8 704.98,-84.8 604.02,-84.8 604.02,-48.8 731.98,-48.8 731.98,-84.8"/>
<text text-anchor="middle" x="668" y="-62.6" font-family="Times,serif" font-size="14.00">ApiServicesModule</text>
</g>
<!-- PizzaOvenModule -->
<g id="node2" class="node">
<title>PizzaOvenModule</title>
<polygon fill="#8dd3c7" stroke="black" points="439.19,-149.8 436.19,-153.8 415.19,-153.8 412.19,-149.8 318.81,-149.8 318.81,-113.8 439.19,-113.8 439.19,-149.8"/>
<text text-anchor="middle" x="379" y="-127.6" font-family="Times,serif" font-size="14.00">PizzaOvenModule</text>
</g>
<!-- ApiServicesModule&#45;&gt;PizzaOvenModule -->
<g id="edge1" class="edge">
<title>ApiServicesModule&#45;&gt;PizzaOvenModule</title>
<path fill="none" stroke="black" d="M669.12,-84.82C669.12,-102.17 669.12,-125.8 669.12,-125.8 669.12,-125.8 449.11,-125.8 449.11,-125.8"/>
<polygon fill="black" stroke="black" points="449.11,-122.3 439.11,-125.8 449.11,-129.3 449.11,-122.3"/>
</g>
<!-- CommitAuthorsService  -->
<g id="node3" class="node">
<title>CommitAuthorsService </title>
<polygon fill="#fb8072" stroke="black" points="606.49,-214.8 453.51,-214.8 453.51,-178.8 606.49,-178.8 606.49,-214.8"/>
<text text-anchor="middle" x="530" y="-192.6" font-family="Times,serif" font-size="14.00">CommitAuthorsService </text>
</g>
<!-- PizzaOvenModule&#45;&gt;CommitAuthorsService  -->
<g id="edge2" class="edge">
<title>PizzaOvenModule&#45;&gt;CommitAuthorsService </title>
<path fill="none" stroke="black" stroke-dasharray="5,2" d="M439.42,-137.8C476.44,-137.8 516.76,-137.8 516.76,-137.8 516.76,-137.8 516.76,-168.78 516.76,-168.78"/>
<polygon fill="black" stroke="black" points="513.26,-168.78 516.76,-178.78 520.26,-168.78 513.26,-168.78"/>
</g>
<!-- CommitsService  -->
<g id="node4" class="node">
<title>CommitsService </title>
<polygon fill="#fb8072" stroke="black" points="435.32,-214.8 322.68,-214.8 322.68,-178.8 435.32,-178.8 435.32,-214.8"/>
<text text-anchor="middle" x="379" y="-192.6" font-family="Times,serif" font-size="14.00">CommitsService </text>
</g>
<!-- PizzaOvenModule&#45;&gt;CommitsService  -->
<g id="edge3" class="edge">
<title>PizzaOvenModule&#45;&gt;CommitsService </title>
<path fill="none" stroke="black" stroke-dasharray="5,2" d="M379,-149.91C379,-149.91 379,-168.79 379,-168.79"/>
<polygon fill="black" stroke="black" points="375.5,-168.79 379,-178.79 382.5,-168.79 375.5,-168.79"/>
</g>
<!-- PizzaOvenService  -->
<g id="node5" class="node">
<title>PizzaOvenService </title>
<polygon fill="#fb8072" stroke="black" points="305.12,-214.8 182.88,-214.8 182.88,-178.8 305.12,-178.8 305.12,-214.8"/>
<text text-anchor="middle" x="244" y="-192.6" font-family="Times,serif" font-size="14.00">PizzaOvenService </text>
</g>
<!-- PizzaOvenModule&#45;&gt;PizzaOvenService  -->
<g id="edge4" class="edge">
<title>PizzaOvenModule&#45;&gt;PizzaOvenService </title>
<path fill="none" stroke="black" stroke-dasharray="5,2" d="M318.61,-137.8C287.22,-137.8 255.33,-137.8 255.33,-137.8 255.33,-137.8 255.33,-168.78 255.33,-168.78"/>
<polygon fill="black" stroke="black" points="251.83,-168.78 255.33,-178.78 258.83,-168.78 251.83,-168.78"/>
</g>
<!-- CommitAuthorsService -->
<g id="node6" class="node">
<title>CommitAuthorsService</title>
<ellipse fill="#fdb462" stroke="black" cx="477" cy="-66.8" rx="102.54" ry="18"/>
<text text-anchor="middle" x="477" y="-62.6" font-family="Times,serif" font-size="14.00">CommitAuthorsService</text>
</g>
<!-- CommitAuthorsService&#45;&gt;PizzaOvenModule -->
<g id="edge5" class="edge">
<title>CommitAuthorsService&#45;&gt;PizzaOvenModule</title>
<path fill="none" stroke="black" d="M406.66,-79.95C406.66,-79.95 406.66,-103.49 406.66,-103.49"/>
<polygon fill="black" stroke="black" points="403.16,-103.49 406.66,-113.49 410.16,-103.49 403.16,-103.49"/>
</g>
<!-- CommitsService -->
<g id="node7" class="node">
<title>CommitsService</title>
<ellipse fill="#fdb462" stroke="black" cx="281" cy="-66.8" rx="75.32" ry="18"/>
<text text-anchor="middle" x="281" y="-62.6" font-family="Times,serif" font-size="14.00">CommitsService</text>
</g>
<!-- CommitsService&#45;&gt;PizzaOvenModule -->
<g id="edge6" class="edge">
<title>CommitsService&#45;&gt;PizzaOvenModule</title>
<path fill="none" stroke="black" d="M337.66,-78.72C337.66,-78.72 337.66,-103.57 337.66,-103.57"/>
<polygon fill="black" stroke="black" points="334.16,-103.57 337.66,-113.57 341.16,-103.57 334.16,-103.57"/>
</g>
<!-- PizzaOvenService -->
<g id="node8" class="node">
<title>PizzaOvenService</title>
<ellipse fill="#fdb462" stroke="black" cx="106" cy="-66.8" rx="81.65" ry="18"/>
<text text-anchor="middle" x="106" y="-62.6" font-family="Times,serif" font-size="14.00">PizzaOvenService</text>
</g>
<!-- PizzaOvenService&#45;&gt;PizzaOvenModule -->
<g id="edge7" class="edge">
<title>PizzaOvenService&#45;&gt;PizzaOvenModule</title>
<path fill="none" stroke="black" d="M103.56,-84.82C103.56,-102.17 103.56,-125.8 103.56,-125.8 103.56,-125.8 308.89,-125.8 308.89,-125.8"/>
<polygon fill="black" stroke="black" points="308.89,-129.3 318.89,-125.8 308.89,-122.3 308.89,-129.3"/>
</g>
</g>
</svg>
