<?xml version="1.0" encoding="UTF-8" standalone="no"?>
<!DOCTYPE svg PUBLIC "-//W3C//DTD SVG 1.1//EN"
 "http://www.w3.org/Graphics/SVG/1.1/DTD/svg11.dtd">
<!-- Generated by graphviz version 3.0.0 (20220226.1711)
 -->
<!-- Title: dependencies Pages: 1 -->
<svg width="764pt" height="247pt"
 viewBox="0.00 0.00 764.00 246.80" xmlns="http://www.w3.org/2000/svg" xmlns:xlink="http://www.w3.org/1999/xlink">
<g id="graph0" class="graph" transform="scale(1 1) rotate(0) translate(4 242.8)">
<title>dependencies</title>
<polygon fill="white" stroke="transparent" points="-4,4 -4,-242.8 760,-242.8 760,4 -4,4"/>
<text text-anchor="middle" x="378" y="-8.2" font-family="sans-serif" font-size="14.00">dependencies</text>
<g id="clust1" class="cluster">
<title>cluster_PizzaOvenModule</title>
<polygon fill="none" stroke="black" stroke-dasharray="1,5" points="8,-32.8 8,-230.8 748,-230.8 748,-32.8 8,-32.8"/>
</g>
<g id="clust6" class="cluster">
<title>cluster_PizzaOvenModule_providers</title>
<polygon fill="none" stroke="black" points="168,-40.8 168,-92.8 740,-92.8 740,-40.8 168,-40.8"/>
</g>
<g id="clust4" class="cluster">
<title>cluster_PizzaOvenModule_exports</title>
<polygon fill="none" stroke="black" points="141,-170.8 141,-222.8 580,-222.8 580,-170.8 141,-170.8"/>
</g>
<g id="clust3" class="cluster">
<title>cluster_PizzaOvenModule_imports</title>
<polygon fill="none" stroke="black" points="16,-40.8 16,-92.8 160,-92.8 160,-40.8 16,-40.8"/>
</g>
<!-- ApiServicesModule -->
<g id="node1" class="node">
<title>ApiServicesModule</title>
<polygon fill="#8dd3c7" stroke="black" points="151.98,-84.8 148.98,-88.8 127.98,-88.8 124.98,-84.8 24.02,-84.8 24.02,-48.8 151.98,-48.8 151.98,-84.8"/>
<text text-anchor="middle" x="88" y="-62.6" font-family="Times,serif" font-size="14.00">ApiServicesModule</text>
</g>
<!-- PizzaOvenModule -->
<g id="node2" class="node">
<title>PizzaOvenModule</title>
<polygon fill="#8dd3c7" stroke="black" points="405.19,-149.8 402.19,-153.8 381.19,-153.8 378.19,-149.8 284.81,-149.8 284.81,-113.8 405.19,-113.8 405.19,-149.8"/>
<text text-anchor="middle" x="345" y="-127.6" font-family="Times,serif" font-size="14.00">PizzaOvenModule</text>
</g>
<!-- ApiServicesModule&#45;&gt;PizzaOvenModule -->
<g id="edge1" class="edge">
<title>ApiServicesModule&#45;&gt;PizzaOvenModule</title>
<path fill="none" stroke="black" d="M86.47,-84.82C86.47,-102.17 86.47,-125.8 86.47,-125.8 86.47,-125.8 274.71,-125.8 274.71,-125.8"/>
<polygon fill="black" stroke="black" points="274.71,-129.3 284.71,-125.8 274.71,-122.3 274.71,-129.3"/>
</g>
<!-- CommitAuthorsService  -->
<g id="node3" class="node">
<title>CommitAuthorsService </title>
<polygon fill="#fb8072" stroke="black" points="572.49,-214.8 419.51,-214.8 419.51,-178.8 572.49,-178.8 572.49,-214.8"/>
<text text-anchor="middle" x="496" y="-192.6" font-family="Times,serif" font-size="14.00">CommitAuthorsService </text>
</g>
<!-- PizzaOvenModule&#45;&gt;CommitAuthorsService  -->
<g id="edge2" class="edge">
<title>PizzaOvenModule&#45;&gt;CommitAuthorsService </title>
<path fill="none" stroke="black" stroke-dasharray="5,2" d="M405.24,-137.8C434.78,-137.8 464.08,-137.8 464.08,-137.8 464.08,-137.8 464.08,-168.78 464.08,-168.78"/>
<polygon fill="black" stroke="black" points="460.58,-168.78 464.08,-178.78 467.58,-168.78 460.58,-168.78"/>
</g>
<!-- CommitsService  -->
<g id="node4" class="node">
<title>CommitsService </title>
<polygon fill="#fb8072" stroke="black" points="401.32,-214.8 288.68,-214.8 288.68,-178.8 401.32,-178.8 401.32,-214.8"/>
<text text-anchor="middle" x="345" y="-192.6" font-family="Times,serif" font-size="14.00">CommitsService </text>
</g>
<!-- PizzaOvenModule&#45;&gt;CommitsService  -->
<g id="edge3" class="edge">
<title>PizzaOvenModule&#45;&gt;CommitsService </title>
<path fill="none" stroke="black" stroke-dasharray="5,2" d="M345,-149.91C345,-149.91 345,-168.79 345,-168.79"/>
<polygon fill="black" stroke="black" points="341.5,-168.79 345,-178.79 348.5,-168.79 341.5,-168.79"/>
</g>
<!-- PizzaOvenService  -->
<g id="node5" class="node">
<title>PizzaOvenService </title>
<polygon fill="#fb8072" stroke="black" points="271.12,-214.8 148.88,-214.8 148.88,-178.8 271.12,-178.8 271.12,-214.8"/>
<text text-anchor="middle" x="210" y="-192.6" font-family="Times,serif" font-size="14.00">PizzaOvenService </text>
</g>
<!-- PizzaOvenModule&#45;&gt;PizzaOvenService  -->
<g id="edge4" class="edge">
<title>PizzaOvenModule&#45;&gt;PizzaOvenService </title>
<path fill="none" stroke="black" stroke-dasharray="5,2" d="M284.67,-137.8C254.2,-137.8 223.62,-137.8 223.62,-137.8 223.62,-137.8 223.62,-168.78 223.62,-168.78"/>
<polygon fill="black" stroke="black" points="220.12,-168.78 223.62,-178.78 227.12,-168.78 220.12,-168.78"/>
</g>
<!-- CommitAuthorsService -->
<g id="node6" class="node">
<title>CommitAuthorsService</title>
<ellipse fill="#fdb462" stroke="black" cx="629" cy="-66.8" rx="102.54" ry="18"/>
<text text-anchor="middle" x="629" y="-62.6" font-family="Times,serif" font-size="14.00">CommitAuthorsService</text>
</g>
<!-- CommitAuthorsService&#45;&gt;PizzaOvenModule -->
<g id="edge5" class="edge">
<title>CommitAuthorsService&#45;&gt;PizzaOvenModule</title>
<path fill="none" stroke="black" d="M549.24,-78.18C549.24,-95.32 549.24,-125.8 549.24,-125.8 549.24,-125.8 415.17,-125.8 415.17,-125.8"/>
<polygon fill="black" stroke="black" points="415.17,-122.3 405.17,-125.8 415.17,-129.3 415.17,-122.3"/>
</g>
<!-- CommitsService -->
<g id="node7" class="node">
<title>CommitsService</title>
<ellipse fill="#fdb462" stroke="black" cx="433" cy="-66.8" rx="75.32" ry="18"/>
<text text-anchor="middle" x="433" y="-62.6" font-family="Times,serif" font-size="14.00">CommitsService</text>
</g>
<!-- CommitsService&#45;&gt;PizzaOvenModule -->
<g id="edge6" class="edge">
<title>CommitsService&#45;&gt;PizzaOvenModule</title>
<path fill="none" stroke="black" d="M381.34,-79.95C381.34,-79.95 381.34,-103.49 381.34,-103.49"/>
<polygon fill="black" stroke="black" points="377.84,-103.49 381.34,-113.49 384.84,-103.49 377.84,-103.49"/>
</g>
<!-- PizzaOvenService -->
<g id="node8" class="node">
<title>PizzaOvenService</title>
<ellipse fill="#fdb462" stroke="black" cx="258" cy="-66.8" rx="81.65" ry="18"/>
<text text-anchor="middle" x="258" y="-62.6" font-family="Times,serif" font-size="14.00">PizzaOvenService</text>
</g>
<!-- PizzaOvenService&#45;&gt;PizzaOvenModule -->
<g id="edge7" class="edge">
<title>PizzaOvenService&#45;&gt;PizzaOvenModule</title>
<path fill="none" stroke="black" d="M312.36,-80.27C312.36,-80.27 312.36,-103.66 312.36,-103.66"/>
<polygon fill="black" stroke="black" points="308.86,-103.66 312.36,-113.66 315.86,-103.66 308.86,-103.66"/>
</g>
</g>
</svg>
