<?xml version="1.0" encoding="UTF-8" standalone="no"?>
<!DOCTYPE svg PUBLIC "-//W3C//DTD SVG 1.1//EN"
 "http://www.w3.org/Graphics/SVG/1.1/DTD/svg11.dtd">
<!-- Generated by graphviz version 3.0.0 (20220226.1711)
 -->
<!-- Title: dependencies Pages: 1 -->
<svg width="154pt" height="174pt"
 viewBox="0.00 0.00 154.00 173.80" xmlns="http://www.w3.org/2000/svg" xmlns:xlink="http://www.w3.org/1999/xlink">
<g id="graph0" class="graph" transform="scale(1 1) rotate(0) translate(4 169.8)">
<title>dependencies</title>
<polygon fill="white" stroke="transparent" points="-4,4 -4,-169.8 150,-169.8 150,4 -4,4"/>
<text text-anchor="middle" x="73" y="-8.2" font-family="sans-serif" font-size="14.00">dependencies</text>
<g id="clust1" class="cluster">
<title>cluster_HighlightModule</title>
<polygon fill="none" stroke="black" stroke-dasharray="1,5" points="8,-32.8 8,-157.8 138,-157.8 138,-32.8 8,-32.8"/>
</g>
<g id="clust3" class="cluster">
<title>cluster_HighlightModule_imports</title>
<polygon fill="none" stroke="black" points="22,-40.8 22,-92.8 124,-92.8 124,-40.8 22,-40.8"/>
</g>
<!-- UserModule -->
<g id="node1" class="node">
<title>UserModule</title>
<polygon fill="#8dd3c7" stroke="black" points="115.99,-84.8 112.99,-88.8 91.99,-88.8 88.99,-84.8 30.01,-84.8 30.01,-48.8 115.99,-48.8 115.99,-84.8"/>
<text text-anchor="middle" x="73" y="-62.6" font-family="Times,serif" font-size="14.00">UserModule</text>
</g>
<!-- HighlightModule -->
<g id="node2" class="node">
<title>HighlightModule</title>
<polygon fill="#8dd3c7" stroke="black" points="129.72,-149.8 126.72,-153.8 105.72,-153.8 102.72,-149.8 16.28,-149.8 16.28,-113.8 129.72,-113.8 129.72,-149.8"/>
<text text-anchor="middle" x="73" y="-127.6" font-family="Times,serif" font-size="14.00">HighlightModule</text>
</g>
<!-- UserModule&#45;&gt;HighlightModule -->
<g id="edge1" class="edge">
<title>UserModule&#45;&gt;HighlightModule</title>
<path fill="none" stroke="black" d="M73,-84.91C73,-84.91 73,-103.79 73,-103.79"/>
<polygon fill="black" stroke="black" points="69.5,-103.79 73,-113.79 76.5,-103.79 69.5,-103.79"/>
</g>
</g>
</svg>
