<?xml version="1.0" encoding="UTF-8" standalone="no"?>
<!DOCTYPE svg PUBLIC "-//W3C//DTD SVG 1.1//EN"
 "http://www.w3.org/Graphics/SVG/1.1/DTD/svg11.dtd">
<!-- Generated by graphviz version 3.0.0 (20220226.1711)
 -->
<!-- Title: dependencies Pages: 1 -->
<svg width="1188pt" height="174pt"
 viewBox="0.00 0.00 1188.00 173.80" xmlns="http://www.w3.org/2000/svg" xmlns:xlink="http://www.w3.org/1999/xlink">
<g id="graph0" class="graph" transform="scale(1 1) rotate(0) translate(4 169.8)">
<title>dependencies</title>
<polygon fill="white" stroke="transparent" points="-4,4 -4,-169.8 1184,-169.8 1184,4 -4,4"/>
<text text-anchor="middle" x="590" y="-8.2" font-family="sans-serif" font-size="14.00">dependencies</text>
<g id="clust1" class="cluster">
<title>cluster_AppModule</title>
<polygon fill="none" stroke="black" stroke-dasharray="1,5" points="8,-32.8 8,-157.8 1172,-157.8 1172,-32.8 8,-32.8"/>
</g>
<g id="clust3" class="cluster">
<title>cluster_AppModule_imports</title>
<polygon fill="none" stroke="black" points="16,-40.8 16,-92.8 1164,-92.8 1164,-40.8 16,-40.8"/>
</g>
<!-- AuthModule -->
<g id="node1" class="node">
<title>AuthModule</title>
<polygon fill="#8dd3c7" stroke="black" points="1155.55,-84.8 1152.55,-88.8 1131.55,-88.8 1128.55,-84.8 1068.45,-84.8 1068.45,-48.8 1155.55,-48.8 1155.55,-84.8"/>
<text text-anchor="middle" x="1112" y="-62.6" font-family="Times,serif" font-size="14.00">AuthModule</text>
</g>
<!-- AppModule -->
<g id="node11" class="node">
<title>AppModule</title>
<polygon fill="#8dd3c7" stroke="black" points="610.66,-149.8 607.66,-153.8 586.66,-153.8 583.66,-149.8 527.34,-149.8 527.34,-113.8 610.66,-113.8 610.66,-149.8"/>
<text text-anchor="middle" x="569" y="-127.6" font-family="Times,serif" font-size="14.00">AppModule</text>
</g>
<!-- AuthModule&#45;&gt;AppModule -->
<g id="edge1" class="edge">
<title>AuthModule&#45;&gt;AppModule</title>
<path fill="none" stroke="black" d="M1112,-84.81C1112,-107.29 1112,-142.8 1112,-142.8 1112,-142.8 620.71,-142.8 620.71,-142.8"/>
<polygon fill="black" stroke="black" points="620.71,-139.3 610.71,-142.8 620.71,-146.3 620.71,-139.3"/>
</g>
<!-- ContributionModule -->
<g id="node2" class="node">
<title>ContributionModule</title>
<polygon fill="#8dd3c7" stroke="black" points="1050.61,-84.8 1047.61,-88.8 1026.61,-88.8 1023.61,-84.8 919.39,-84.8 919.39,-48.8 1050.61,-48.8 1050.61,-84.8"/>
<text text-anchor="middle" x="985" y="-62.6" font-family="Times,serif" font-size="14.00">ContributionModule</text>
</g>
<!-- ContributionModule&#45;&gt;AppModule -->
<g id="edge2" class="edge">
<title>ContributionModule&#45;&gt;AppModule</title>
<path fill="none" stroke="black" d="M985,-84.93C985,-105.37 985,-135.8 985,-135.8 985,-135.8 620.79,-135.8 620.79,-135.8"/>
<polygon fill="black" stroke="black" points="620.79,-132.3 610.79,-135.8 620.79,-139.3 620.79,-132.3"/>
</g>
<!-- HealthModule -->
<g id="node3" class="node">
<title>HealthModule</title>
<polygon fill="#8dd3c7" stroke="black" points="901.37,-84.8 898.37,-88.8 877.37,-88.8 874.37,-84.8 804.63,-84.8 804.63,-48.8 901.37,-48.8 901.37,-84.8"/>
<text text-anchor="middle" x="853" y="-62.6" font-family="Times,serif" font-size="14.00">HealthModule</text>
</g>
<!-- HealthModule&#45;&gt;AppModule -->
<g id="edge3" class="edge">
<title>HealthModule&#45;&gt;AppModule</title>
<path fill="none" stroke="black" d="M853,-85.07C853,-103.36 853,-128.8 853,-128.8 853,-128.8 620.91,-128.8 620.91,-128.8"/>
<polygon fill="black" stroke="black" points="620.91,-125.3 610.91,-128.8 620.91,-132.3 620.91,-125.3"/>
</g>
<!-- InsightsModule -->
<g id="node4" class="node">
<title>InsightsModule</title>
<polygon fill="#8dd3c7" stroke="black" points="786.89,-84.8 783.89,-88.8 762.89,-88.8 759.89,-84.8 683.11,-84.8 683.11,-48.8 786.89,-48.8 786.89,-84.8"/>
<text text-anchor="middle" x="735" y="-62.6" font-family="Times,serif" font-size="14.00">InsightsModule</text>
</g>
<!-- InsightsModule&#45;&gt;AppModule -->
<g id="edge4" class="edge">
<title>InsightsModule&#45;&gt;AppModule</title>
<path fill="none" stroke="black" d="M735,-84.81C735,-100.85 735,-121.8 735,-121.8 735,-121.8 620.89,-121.8 620.89,-121.8"/>
<polygon fill="black" stroke="black" points="620.89,-118.3 610.89,-121.8 620.89,-125.3 620.89,-118.3"/>
</g>
<!-- RepoModule -->
<g id="node5" class="node">
<title>RepoModule</title>
<polygon fill="#8dd3c7" stroke="black" points="665.6,-84.8 662.6,-88.8 641.6,-88.8 638.6,-84.8 576.4,-84.8 576.4,-48.8 665.6,-48.8 665.6,-84.8"/>
<text text-anchor="middle" x="621" y="-62.6" font-family="Times,serif" font-size="14.00">RepoModule</text>
</g>
<!-- RepoModule&#45;&gt;AppModule -->
<g id="edge5" class="edge">
<title>RepoModule&#45;&gt;AppModule</title>
<path fill="none" stroke="black" d="M593.64,-84.91C593.64,-84.91 593.64,-103.79 593.64,-103.79"/>
<polygon fill="black" stroke="black" points="590.14,-103.79 593.64,-113.79 597.14,-103.79 590.14,-103.79"/>
</g>
<!-- StarModule -->
<g id="node6" class="node">
<title>StarModule</title>
<polygon fill="#8dd3c7" stroke="black" points="558.1,-84.8 555.1,-88.8 534.1,-88.8 531.1,-84.8 475.9,-84.8 475.9,-48.8 558.1,-48.8 558.1,-84.8"/>
<text text-anchor="middle" x="517" y="-62.6" font-family="Times,serif" font-size="14.00">StarModule</text>
</g>
<!-- StarModule&#45;&gt;AppModule -->
<g id="edge6" class="edge">
<title>StarModule&#45;&gt;AppModule</title>
<path fill="none" stroke="black" d="M542.61,-84.91C542.61,-84.91 542.61,-103.79 542.61,-103.79"/>
<polygon fill="black" stroke="black" points="539.11,-103.79 542.61,-113.79 546.11,-103.79 539.11,-103.79"/>
</g>
<!-- StargazeModule -->
<g id="node7" class="node">
<title>StargazeModule</title>
<polygon fill="#8dd3c7" stroke="black" points="457.75,-84.8 454.75,-88.8 433.75,-88.8 430.75,-84.8 350.25,-84.8 350.25,-48.8 457.75,-48.8 457.75,-84.8"/>
<text text-anchor="middle" x="404" y="-62.6" font-family="Times,serif" font-size="14.00">StargazeModule</text>
</g>
<!-- StargazeModule&#45;&gt;AppModule -->
<g id="edge7" class="edge">
<title>StargazeModule&#45;&gt;AppModule</title>
<path fill="none" stroke="black" d="M404,-84.81C404,-100.85 404,-121.8 404,-121.8 404,-121.8 516.94,-121.8 516.94,-121.8"/>
<polygon fill="black" stroke="black" points="516.94,-125.3 526.94,-121.8 516.94,-118.3 516.94,-125.3"/>
</g>
<!-- SubmitModule -->
<g id="node8" class="node">
<title>SubmitModule</title>
<polygon fill="#8dd3c7" stroke="black" points="332.01,-84.8 329.01,-88.8 308.01,-88.8 305.01,-84.8 231.99,-84.8 231.99,-48.8 332.01,-48.8 332.01,-84.8"/>
<text text-anchor="middle" x="282" y="-62.6" font-family="Times,serif" font-size="14.00">SubmitModule</text>
</g>
<!-- SubmitModule&#45;&gt;AppModule -->
<g id="edge8" class="edge">
<title>SubmitModule&#45;&gt;AppModule</title>
<path fill="none" stroke="black" d="M282,-85.07C282,-103.36 282,-128.8 282,-128.8 282,-128.8 517.27,-128.8 517.27,-128.8"/>
<polygon fill="black" stroke="black" points="517.27,-132.3 527.27,-128.8 517.27,-125.3 517.27,-132.3"/>
</g>
<!-- UserModule -->
<g id="node9" class="node">
<title>UserModule</title>
<polygon fill="#8dd3c7" stroke="black" points="213.99,-84.8 210.99,-88.8 189.99,-88.8 186.99,-84.8 128.01,-84.8 128.01,-48.8 213.99,-48.8 213.99,-84.8"/>
<text text-anchor="middle" x="171" y="-62.6" font-family="Times,serif" font-size="14.00">UserModule</text>
</g>
<!-- UserModule&#45;&gt;AppModule -->
<g id="edge9" class="edge">
<title>UserModule&#45;&gt;AppModule</title>
<path fill="none" stroke="black" d="M171,-84.93C171,-105.37 171,-135.8 171,-135.8 171,-135.8 517.16,-135.8 517.16,-135.8"/>
<polygon fill="black" stroke="black" points="517.16,-139.3 527.16,-135.8 517.16,-132.3 517.16,-139.3"/>
</g>
<!-- VoteModule -->
<g id="node10" class="node">
<title>VoteModule</title>
<polygon fill="#8dd3c7" stroke="black" points="110.27,-84.8 107.27,-88.8 86.27,-88.8 83.27,-84.8 23.73,-84.8 23.73,-48.8 110.27,-48.8 110.27,-84.8"/>
<text text-anchor="middle" x="67" y="-62.6" font-family="Times,serif" font-size="14.00">VoteModule</text>
</g>
<!-- VoteModule&#45;&gt;AppModule -->
<g id="edge10" class="edge">
<title>VoteModule&#45;&gt;AppModule</title>
<path fill="none" stroke="black" d="M67,-84.81C67,-107.29 67,-142.8 67,-142.8 67,-142.8 517.06,-142.8 517.06,-142.8"/>
<polygon fill="black" stroke="black" points="517.06,-146.3 527.06,-142.8 517.06,-139.3 517.06,-146.3"/>
</g>
</g>
</svg>
