<?xml version="1.0" encoding="UTF-8" standalone="no"?>
<!DOCTYPE svg PUBLIC "-//W3C//DTD SVG 1.1//EN"
 "http://www.w3.org/Graphics/SVG/1.1/DTD/svg11.dtd">
<!-- Generated by graphviz version 3.0.0 (20220226.1711)
 -->
<!-- Title: dependencies Pages: 1 -->
<svg width="2775pt" height="174pt"
 viewBox="0.00 0.00 2775.00 173.80" xmlns="http://www.w3.org/2000/svg" xmlns:xlink="http://www.w3.org/1999/xlink">
<g id="graph0" class="graph" transform="scale(1 1) rotate(0) translate(4 169.8)">
<title>dependencies</title>
<polygon fill="white" stroke="transparent" points="-4,4 -4,-169.8 2771,-169.8 2771,4 -4,4"/>
<text text-anchor="middle" x="1383.5" y="-8.2" font-family="sans-serif" font-size="14.00">dependencies</text>
<g id="clust1" class="cluster">
<title>cluster_AppModule</title>
<polygon fill="none" stroke="black" stroke-dasharray="1,5" points="8,-32.8 8,-157.8 2759,-157.8 2759,-32.8 8,-32.8"/>
</g>
<g id="clust3" class="cluster">
<title>cluster_AppModule_imports</title>
<polygon fill="none" stroke="black" points="16,-40.8 16,-92.8 2751,-92.8 2751,-40.8 16,-40.8"/>
</g>
<!-- AuthModule -->
<g id="node1" class="node">
<title>AuthModule</title>
<polygon fill="#8dd3c7" stroke="black" points="2742.55,-84.8 2739.55,-88.8 2718.55,-88.8 2715.55,-84.8 2655.45,-84.8 2655.45,-48.8 2742.55,-48.8 2742.55,-84.8"/>
<text text-anchor="middle" x="2699" y="-62.6" font-family="Times,serif" font-size="14.00">AuthModule</text>
</g>
<!-- AppModule -->
<g id="node22" class="node">
<title>AppModule</title>
<polygon fill="#8dd3c7" stroke="black" points="1411.66,-149.8 1408.66,-153.8 1387.66,-153.8 1384.66,-149.8 1328.34,-149.8 1328.34,-113.8 1411.66,-113.8 1411.66,-149.8"/>
<text text-anchor="middle" x="1370" y="-127.6" font-family="Times,serif" font-size="14.00">AppModule</text>
</g>
<!-- AuthModule&#45;&gt;AppModule -->
<g id="edge1" class="edge">
<title>AuthModule&#45;&gt;AppModule</title>
<path fill="none" stroke="black" d="M2699,-84.95C2699,-108.56 2699,-146.8 2699,-146.8 2699,-146.8 1421.97,-146.8 1421.97,-146.8"/>
<polygon fill="black" stroke="black" points="1421.97,-143.3 1411.97,-146.8 1421.97,-150.3 1421.97,-143.3"/>
</g>
<!-- ContributionModule -->
<g id="node2" class="node">
<title>ContributionModule</title>
<polygon fill="#8dd3c7" stroke="black" points="2637.61,-84.8 2634.61,-88.8 2613.61,-88.8 2610.61,-84.8 2506.39,-84.8 2506.39,-48.8 2637.61,-48.8 2637.61,-84.8"/>
<text text-anchor="middle" x="2572" y="-62.6" font-family="Times,serif" font-size="14.00">ContributionModule</text>
</g>
<!-- ContributionModule&#45;&gt;AppModule -->
<g id="edge2" class="edge">
<title>ContributionModule&#45;&gt;AppModule</title>
<path fill="none" stroke="black" d="M2572,-85.05C2572,-107.82 2572,-143.8 2572,-143.8 2572,-143.8 1421.72,-143.8 1421.72,-143.8"/>
<polygon fill="black" stroke="black" points="1421.72,-140.3 1411.72,-143.8 1421.72,-147.3 1421.72,-140.3"/>
</g>
<!-- ContributorModule -->
<g id="node3" class="node">
<title>ContributorModule</title>
<polygon fill="#8dd3c7" stroke="black" points="2488.38,-84.8 2485.38,-88.8 2464.38,-88.8 2461.38,-84.8 2363.62,-84.8 2363.62,-48.8 2488.38,-48.8 2488.38,-84.8"/>
<text text-anchor="middle" x="2426" y="-62.6" font-family="Times,serif" font-size="14.00">ContributorModule</text>
</g>
<!-- ContributorModule&#45;&gt;AppModule -->
<g id="edge3" class="edge">
<title>ContributorModule&#45;&gt;AppModule</title>
<path fill="none" stroke="black" d="M2426,-85.09C2426,-107.01 2426,-140.8 2426,-140.8 2426,-140.8 1421.72,-140.8 1421.72,-140.8"/>
<polygon fill="black" stroke="black" points="1421.72,-137.3 1411.72,-140.8 1421.72,-144.3 1421.72,-137.3"/>
</g>
<!-- CustomerModule -->
<g id="node4" class="node">
<title>CustomerModule</title>
<polygon fill="#8dd3c7" stroke="black" points="2345.99,-84.8 2342.99,-88.8 2321.99,-88.8 2318.99,-84.8 2232.01,-84.8 2232.01,-48.8 2345.99,-48.8 2345.99,-84.8"/>
<text text-anchor="middle" x="2289" y="-62.6" font-family="Times,serif" font-size="14.00">CustomerModule</text>
</g>
<!-- CustomerModule&#45;&gt;AppModule -->
<g id="edge4" class="edge">
<title>CustomerModule&#45;&gt;AppModule</title>
<path fill="none" stroke="black" d="M2289,-84.83C2289,-105.57 2289,-136.8 2289,-136.8 2289,-136.8 1421.88,-136.8 1421.88,-136.8"/>
<polygon fill="black" stroke="black" points="1421.88,-133.3 1411.88,-136.8 1421.88,-140.3 1421.88,-133.3"/>
</g>
<!-- EmojiModule -->
<g id="node5" class="node">
<title>EmojiModule</title>
<polygon fill="#8dd3c7" stroke="black" points="2213.77,-84.8 2210.77,-88.8 2189.77,-88.8 2186.77,-84.8 2120.23,-84.8 2120.23,-48.8 2213.77,-48.8 2213.77,-84.8"/>
<text text-anchor="middle" x="2167" y="-62.6" font-family="Times,serif" font-size="14.00">EmojiModule</text>
</g>
<!-- EmojiModule&#45;&gt;AppModule -->
<g id="edge5" class="edge">
<title>EmojiModule&#45;&gt;AppModule</title>
<path fill="none" stroke="black" d="M2167,-85.11C2167,-104.95 2167,-133.8 2167,-133.8 2167,-133.8 1421.73,-133.8 1421.73,-133.8"/>
<polygon fill="black" stroke="black" points="1421.73,-130.3 1411.73,-133.8 1421.73,-137.3 1421.73,-130.3"/>
</g>
<!-- EndorsementModule -->
<g id="node6" class="node">
<title>EndorsementModule</title>
<polygon fill="#8dd3c7" stroke="black" points="2101.92,-84.8 2098.92,-88.8 2077.92,-88.8 2074.92,-84.8 1968.08,-84.8 1968.08,-48.8 2101.92,-48.8 2101.92,-84.8"/>
<text text-anchor="middle" x="2035" y="-62.6" font-family="Times,serif" font-size="14.00">EndorsementModule</text>
</g>
<!-- EndorsementModule&#45;&gt;AppModule -->
<g id="edge6" class="edge">
<title>EndorsementModule&#45;&gt;AppModule</title>
<path fill="none" stroke="black" d="M2035,-84.97C2035,-103.89 2035,-130.8 2035,-130.8 2035,-130.8 1421.85,-130.8 1421.85,-130.8"/>
<polygon fill="black" stroke="black" points="1421.85,-127.3 1411.85,-130.8 1421.85,-134.3 1421.85,-127.3"/>
</g>
<!-- HealthModule -->
<g id="node7" class="node">
<title>HealthModule</title>
<polygon fill="#8dd3c7" stroke="black" points="1950.37,-84.8 1947.37,-88.8 1926.37,-88.8 1923.37,-84.8 1853.63,-84.8 1853.63,-48.8 1950.37,-48.8 1950.37,-84.8"/>
<text text-anchor="middle" x="1902" y="-62.6" font-family="Times,serif" font-size="14.00">HealthModule</text>
</g>
<!-- HealthModule&#45;&gt;AppModule -->
<g id="edge7" class="edge">
<title>HealthModule&#45;&gt;AppModule</title>
<path fill="none" stroke="black" d="M1902,-85.1C1902,-103.07 1902,-127.8 1902,-127.8 1902,-127.8 1421.75,-127.8 1421.75,-127.8"/>
<polygon fill="black" stroke="black" points="1421.75,-124.3 1411.75,-127.8 1421.75,-131.3 1421.75,-124.3"/>
</g>
<!-- HighlightModule -->
<g id="node8" class="node">
<title>HighlightModule</title>
<polygon fill="#8dd3c7" stroke="black" points="1835.72,-84.8 1832.72,-88.8 1811.72,-88.8 1808.72,-84.8 1722.28,-84.8 1722.28,-48.8 1835.72,-48.8 1835.72,-84.8"/>
<text text-anchor="middle" x="1779" y="-62.6" font-family="Times,serif" font-size="14.00">HighlightModule</text>
</g>
<!-- HighlightModule&#45;&gt;AppModule -->
<g id="edge8" class="edge">
<title>HighlightModule&#45;&gt;AppModule</title>
<path fill="none" stroke="black" d="M1779,-84.84C1779,-101.53 1779,-123.8 1779,-123.8 1779,-123.8 1421.85,-123.8 1421.85,-123.8"/>
<polygon fill="black" stroke="black" points="1421.85,-120.3 1411.85,-123.8 1421.85,-127.3 1421.85,-120.3"/>
</g>
<!-- InsightsModule -->
<g id="node9" class="node">
<title>InsightsModule</title>
<polygon fill="#8dd3c7" stroke="black" points="1703.89,-84.8 1700.89,-88.8 1679.89,-88.8 1676.89,-84.8 1600.11,-84.8 1600.11,-48.8 1703.89,-48.8 1703.89,-84.8"/>
<text text-anchor="middle" x="1652" y="-62.6" font-family="Times,serif" font-size="14.00">InsightsModule</text>
</g>
<!-- InsightsModule&#45;&gt;AppModule -->
<g id="edge9" class="edge">
<title>InsightsModule&#45;&gt;AppModule</title>
<path fill="none" stroke="black" d="M1652,-85.08C1652,-100.75 1652,-120.8 1652,-120.8 1652,-120.8 1421.91,-120.8 1421.91,-120.8"/>
<polygon fill="black" stroke="black" points="1421.91,-117.3 1411.91,-120.8 1421.91,-124.3 1421.91,-117.3"/>
</g>
<!-- IssueSummaryModule -->
<g id="node10" class="node">
<title>IssueSummaryModule</title>
<polygon fill="#8dd3c7" stroke="black" points="1582.27,-84.8 1579.27,-88.8 1558.27,-88.8 1555.27,-84.8 1439.73,-84.8 1439.73,-48.8 1582.27,-48.8 1582.27,-84.8"/>
<text text-anchor="middle" x="1511" y="-62.6" font-family="Times,serif" font-size="14.00">IssueSummaryModule</text>
</g>
<!-- IssueSummaryModule&#45;&gt;AppModule -->
<g id="edge10" class="edge">
<title>IssueSummaryModule&#45;&gt;AppModule</title>
<path fill="none" stroke="black" d="M1511,-84.92C1511,-99.58 1511,-117.8 1511,-117.8 1511,-117.8 1421.92,-117.8 1421.92,-117.8"/>
<polygon fill="black" stroke="black" points="1421.92,-114.3 1411.92,-117.8 1421.92,-121.3 1421.92,-114.3"/>
</g>
<!-- OpenAiModule -->
<g id="node11" class="node">
<title>OpenAiModule</title>
<polygon fill="#8dd3c7" stroke="black" points="1421.88,-84.8 1418.88,-88.8 1397.88,-88.8 1394.88,-84.8 1318.12,-84.8 1318.12,-48.8 1421.88,-48.8 1421.88,-84.8"/>
<text text-anchor="middle" x="1370" y="-62.6" font-family="Times,serif" font-size="14.00">OpenAiModule</text>
</g>
<!-- OpenAiModule&#45;&gt;AppModule -->
<g id="edge11" class="edge">
<title>OpenAiModule&#45;&gt;AppModule</title>
<path fill="none" stroke="black" d="M1370,-84.91C1370,-84.91 1370,-103.79 1370,-103.79"/>
<polygon fill="black" stroke="black" points="1366.5,-103.79 1370,-113.79 1373.5,-103.79 1366.5,-103.79"/>
</g>
<!-- PullRequestModule -->
<g id="node12" class="node">
<title>PullRequestModule</title>
<polygon fill="#8dd3c7" stroke="black" points="1299.72,-84.8 1296.72,-88.8 1275.72,-88.8 1272.72,-84.8 1172.28,-84.8 1172.28,-48.8 1299.72,-48.8 1299.72,-84.8"/>
<text text-anchor="middle" x="1236" y="-62.6" font-family="Times,serif" font-size="14.00">PullRequestModule</text>
</g>
<!-- PullRequestModule&#45;&gt;AppModule -->
<g id="edge12" class="edge">
<title>PullRequestModule&#45;&gt;AppModule</title>
<path fill="none" stroke="black" d="M1236,-84.92C1236,-99.58 1236,-117.8 1236,-117.8 1236,-117.8 1318.34,-117.8 1318.34,-117.8"/>
<polygon fill="black" stroke="black" points="1318.34,-121.3 1328.34,-117.8 1318.34,-114.3 1318.34,-121.3"/>
</g>
<!-- RepoModule -->
<g id="node13" class="node">
<title>RepoModule</title>
<polygon fill="#8dd3c7" stroke="black" points="1154.6,-84.8 1151.6,-88.8 1130.6,-88.8 1127.6,-84.8 1065.4,-84.8 1065.4,-48.8 1154.6,-48.8 1154.6,-84.8"/>
<text text-anchor="middle" x="1110" y="-62.6" font-family="Times,serif" font-size="14.00">RepoModule</text>
</g>
<!-- RepoModule&#45;&gt;AppModule -->
<g id="edge13" class="edge">
<title>RepoModule&#45;&gt;AppModule</title>
<path fill="none" stroke="black" d="M1110,-85.08C1110,-100.75 1110,-120.8 1110,-120.8 1110,-120.8 1318.23,-120.8 1318.23,-120.8"/>
<polygon fill="black" stroke="black" points="1318.23,-124.3 1328.23,-120.8 1318.23,-117.3 1318.23,-124.3"/>
</g>
<!-- StarModule -->
<g id="node14" class="node">
<title>StarModule</title>
<polygon fill="#8dd3c7" stroke="black" points="1047.1,-84.8 1044.1,-88.8 1023.1,-88.8 1020.1,-84.8 964.9,-84.8 964.9,-48.8 1047.1,-48.8 1047.1,-84.8"/>
<text text-anchor="middle" x="1006" y="-62.6" font-family="Times,serif" font-size="14.00">StarModule</text>
</g>
<!-- StarModule&#45;&gt;AppModule -->
<g id="edge14" class="edge">
<title>StarModule&#45;&gt;AppModule</title>
<path fill="none" stroke="black" d="M1006,-84.84C1006,-101.53 1006,-123.8 1006,-123.8 1006,-123.8 1318.24,-123.8 1318.24,-123.8"/>
<polygon fill="black" stroke="black" points="1318.24,-127.3 1328.24,-123.8 1318.24,-120.3 1318.24,-127.3"/>
</g>
<!-- StargazeModule -->
<g id="node15" class="node">
<title>StargazeModule</title>
<polygon fill="#8dd3c7" stroke="black" points="946.75,-84.8 943.75,-88.8 922.75,-88.8 919.75,-84.8 839.25,-84.8 839.25,-48.8 946.75,-48.8 946.75,-84.8"/>
<text text-anchor="middle" x="893" y="-62.6" font-family="Times,serif" font-size="14.00">StargazeModule</text>
</g>
<!-- StargazeModule&#45;&gt;AppModule -->
<g id="edge15" class="edge">
<title>StargazeModule&#45;&gt;AppModule</title>
<path fill="none" stroke="black" d="M893,-85.1C893,-103.07 893,-127.8 893,-127.8 893,-127.8 1318.09,-127.8 1318.09,-127.8"/>
<polygon fill="black" stroke="black" points="1318.09,-131.3 1328.09,-127.8 1318.09,-124.3 1318.09,-131.3"/>
</g>
<!-- StripeSubscriptionModule -->
<g id="node16" class="node">
<title>StripeSubscriptionModule</title>
<polygon fill="#8dd3c7" stroke="black" points="820.77,-84.8 817.77,-88.8 796.77,-88.8 793.77,-84.8 657.23,-84.8 657.23,-48.8 820.77,-48.8 820.77,-84.8"/>
<text text-anchor="middle" x="739" y="-62.6" font-family="Times,serif" font-size="14.00">StripeSubscriptionModule</text>
</g>
<!-- StripeSubscriptionModule&#45;&gt;AppModule -->
<g id="edge16" class="edge">
<title>StripeSubscriptionModule&#45;&gt;AppModule</title>
<path fill="none" stroke="black" d="M739,-84.97C739,-103.89 739,-130.8 739,-130.8 739,-130.8 1318.11,-130.8 1318.11,-130.8"/>
<polygon fill="black" stroke="black" points="1318.11,-134.3 1328.11,-130.8 1318.11,-127.3 1318.11,-134.3"/>
</g>
<!-- StripeWebHookModule -->
<g id="node17" class="node">
<title>StripeWebHookModule</title>
<polygon fill="#8dd3c7" stroke="black" points="639.03,-84.8 636.03,-88.8 615.03,-88.8 612.03,-84.8 488.97,-84.8 488.97,-48.8 639.03,-48.8 639.03,-84.8"/>
<text text-anchor="middle" x="564" y="-62.6" font-family="Times,serif" font-size="14.00">StripeWebHookModule</text>
</g>
<!-- StripeWebHookModule&#45;&gt;AppModule -->
<g id="edge17" class="edge">
<title>StripeWebHookModule&#45;&gt;AppModule</title>
<path fill="none" stroke="black" d="M564,-85.11C564,-104.95 564,-133.8 564,-133.8 564,-133.8 1318.08,-133.8 1318.08,-133.8"/>
<polygon fill="black" stroke="black" points="1318.08,-137.3 1328.08,-133.8 1318.08,-130.3 1318.08,-137.3"/>
</g>
<!-- SubmitModule -->
<g id="node18" class="node">
<title>SubmitModule</title>
<polygon fill="#8dd3c7" stroke="black" points="471.01,-84.8 468.01,-88.8 447.01,-88.8 444.01,-84.8 370.99,-84.8 370.99,-48.8 471.01,-48.8 471.01,-84.8"/>
<text text-anchor="middle" x="421" y="-62.6" font-family="Times,serif" font-size="14.00">SubmitModule</text>
</g>
<!-- SubmitModule&#45;&gt;AppModule -->
<g id="edge18" class="edge">
<title>SubmitModule&#45;&gt;AppModule</title>
<path fill="none" stroke="black" d="M421,-84.83C421,-105.57 421,-136.8 421,-136.8 421,-136.8 1318.31,-136.8 1318.31,-136.8"/>
<polygon fill="black" stroke="black" points="1318.31,-140.3 1328.31,-136.8 1318.31,-133.3 1318.31,-140.3"/>
</g>
<!-- UserModule -->
<g id="node19" class="node">
<title>UserModule</title>
<polygon fill="#8dd3c7" stroke="black" points="352.99,-84.8 349.99,-88.8 328.99,-88.8 325.99,-84.8 267.01,-84.8 267.01,-48.8 352.99,-48.8 352.99,-84.8"/>
<text text-anchor="middle" x="310" y="-62.6" font-family="Times,serif" font-size="14.00">UserModule</text>
</g>
<!-- UserModule&#45;&gt;AppModule -->
<g id="edge19" class="edge">
<title>UserModule&#45;&gt;AppModule</title>
<path fill="none" stroke="black" d="M310,-85.09C310,-107.01 310,-140.8 310,-140.8 310,-140.8 1318.12,-140.8 1318.12,-140.8"/>
<polygon fill="black" stroke="black" points="1318.12,-144.3 1328.12,-140.8 1318.12,-137.3 1318.12,-144.3"/>
</g>
<!-- UserReposModule -->
<g id="node20" class="node">
<title>UserReposModule</title>
<polygon fill="#8dd3c7" stroke="black" points="249.49,-84.8 246.49,-88.8 225.49,-88.8 222.49,-84.8 128.51,-84.8 128.51,-48.8 249.49,-48.8 249.49,-84.8"/>
<text text-anchor="middle" x="189" y="-62.6" font-family="Times,serif" font-size="14.00">UserReposModule</text>
</g>
<!-- UserReposModule&#45;&gt;AppModule -->
<g id="edge20" class="edge">
<title>UserReposModule&#45;&gt;AppModule</title>
<path fill="none" stroke="black" d="M189,-85.05C189,-107.82 189,-143.8 189,-143.8 189,-143.8 1318.31,-143.8 1318.31,-143.8"/>
<polygon fill="black" stroke="black" points="1318.31,-147.3 1328.31,-143.8 1318.31,-140.3 1318.31,-147.3"/>
</g>
<!-- VoteModule -->
<g id="node21" class="node">
<title>VoteModule</title>
<polygon fill="#8dd3c7" stroke="black" points="110.27,-84.8 107.27,-88.8 86.27,-88.8 83.27,-84.8 23.73,-84.8 23.73,-48.8 110.27,-48.8 110.27,-84.8"/>
<text text-anchor="middle" x="67" y="-62.6" font-family="Times,serif" font-size="14.00">VoteModule</text>
</g>
<!-- VoteModule&#45;&gt;AppModule -->
<g id="edge21" class="edge">
<title>VoteModule&#45;&gt;AppModule</title>
<path fill="none" stroke="black" d="M67,-84.95C67,-108.56 67,-146.8 67,-146.8 67,-146.8 1318.12,-146.8 1318.12,-146.8"/>
<polygon fill="black" stroke="black" points="1318.12,-150.3 1328.12,-146.8 1318.12,-143.3 1318.12,-150.3"/>
</g>
</g>
</svg>
