<?xml version="1.0" encoding="UTF-8" standalone="no"?>
<!DOCTYPE svg PUBLIC "-//W3C//DTD SVG 1.1//EN"
 "http://www.w3.org/Graphics/SVG/1.1/DTD/svg11.dtd">
<!-- Generated by graphviz version 3.0.0 (20220226.1711)
 -->
<!-- Title: dependencies Pages: 1 -->
<svg width="814pt" height="174pt"
 viewBox="0.00 0.00 814.00 173.80" xmlns="http://www.w3.org/2000/svg" xmlns:xlink="http://www.w3.org/1999/xlink">
<g id="graph0" class="graph" transform="scale(1 1) rotate(0) translate(4 169.8)">
<title>dependencies</title>
<polygon fill="white" stroke="transparent" points="-4,4 -4,-169.8 810,-169.8 810,4 -4,4"/>
<text text-anchor="middle" x="403" y="-8.2" font-family="sans-serif" font-size="14.00">dependencies</text>
<g id="clust1" class="cluster">
<title>cluster_AppModule</title>
<polygon fill="none" stroke="black" stroke-dasharray="1,5" points="8,-32.8 8,-157.8 798,-157.8 798,-32.8 8,-32.8"/>
</g>
<g id="clust3" class="cluster">
<title>cluster_AppModule_imports</title>
<polygon fill="none" stroke="black" points="16,-40.8 16,-92.8 790,-92.8 790,-40.8 16,-40.8"/>
</g>
<!-- AuthModule -->
<g id="node1" class="node">
<title>AuthModule</title>
<polygon fill="#8dd3c7" stroke="black" points="781.55,-84.8 778.55,-88.8 757.55,-88.8 754.55,-84.8 694.45,-84.8 694.45,-48.8 781.55,-48.8 781.55,-84.8"/>
<text text-anchor="middle" x="738" y="-62.6" font-family="Times,serif" font-size="14.00">AuthModule</text>
</g>
<!-- AppModule -->
<g id="node8" class="node">
<title>AppModule</title>
<polygon fill="#8dd3c7" stroke="black" points="454.66,-149.8 451.66,-153.8 430.66,-153.8 427.66,-149.8 371.34,-149.8 371.34,-113.8 454.66,-113.8 454.66,-149.8"/>
<text text-anchor="middle" x="413" y="-127.6" font-family="Times,serif" font-size="14.00">AppModule</text>
</g>
<!-- AuthModule&#45;&gt;AppModule -->
<g id="edge1" class="edge">
<title>AuthModule&#45;&gt;AppModule</title>
<path fill="none" stroke="black" d="M738,-85.09C738,-107.01 738,-140.8 738,-140.8 738,-140.8 464.82,-140.8 464.82,-140.8"/>
<polygon fill="black" stroke="black" points="464.82,-137.3 454.82,-140.8 464.82,-144.3 464.82,-137.3"/>
</g>
<!-- HealthModule -->
<g id="node2" class="node">
<title>HealthModule</title>
<polygon fill="#8dd3c7" stroke="black" points="676.37,-84.8 673.37,-88.8 652.37,-88.8 649.37,-84.8 579.63,-84.8 579.63,-48.8 676.37,-48.8 676.37,-84.8"/>
<text text-anchor="middle" x="628" y="-62.6" font-family="Times,serif" font-size="14.00">HealthModule</text>
</g>
<!-- HealthModule&#45;&gt;AppModule -->
<g id="edge2" class="edge">
<title>HealthModule&#45;&gt;AppModule</title>
<path fill="none" stroke="black" d="M628,-84.91C628,-104.14 628,-131.8 628,-131.8 628,-131.8 464.71,-131.8 464.71,-131.8"/>
<polygon fill="black" stroke="black" points="464.71,-128.3 454.71,-131.8 464.71,-135.3 464.71,-128.3"/>
</g>
<!-- RepoModule -->
<g id="node3" class="node">
<title>RepoModule</title>
<polygon fill="#8dd3c7" stroke="black" points="561.6,-84.8 558.6,-88.8 537.6,-88.8 534.6,-84.8 472.4,-84.8 472.4,-48.8 561.6,-48.8 561.6,-84.8"/>
<text text-anchor="middle" x="517" y="-62.6" font-family="Times,serif" font-size="14.00">RepoModule</text>
</g>
<!-- RepoModule&#45;&gt;AppModule -->
<g id="edge3" class="edge">
<title>RepoModule&#45;&gt;AppModule</title>
<path fill="none" stroke="black" d="M517,-84.83C517,-101.2 517,-122.8 517,-122.8 517,-122.8 464.7,-122.8 464.7,-122.8"/>
<polygon fill="black" stroke="black" points="464.7,-119.3 454.7,-122.8 464.7,-126.3 464.7,-119.3"/>
</g>
<!-- StarModule -->
<g id="node4" class="node">
<title>StarModule</title>
<polygon fill="#8dd3c7" stroke="black" points="454.1,-84.8 451.1,-88.8 430.1,-88.8 427.1,-84.8 371.9,-84.8 371.9,-48.8 454.1,-48.8 454.1,-84.8"/>
<text text-anchor="middle" x="413" y="-62.6" font-family="Times,serif" font-size="14.00">StarModule</text>
</g>
<!-- StarModule&#45;&gt;AppModule -->
<g id="edge4" class="edge">
<title>StarModule&#45;&gt;AppModule</title>
<path fill="none" stroke="black" d="M413,-84.91C413,-84.91 413,-103.79 413,-103.79"/>
<polygon fill="black" stroke="black" points="409.5,-103.79 413,-113.79 416.5,-103.79 409.5,-103.79"/>
</g>
<!-- StargazeModule -->
<g id="node5" class="node">
<title>StargazeModule</title>
<polygon fill="#8dd3c7" stroke="black" points="353.75,-84.8 350.75,-88.8 329.75,-88.8 326.75,-84.8 246.25,-84.8 246.25,-48.8 353.75,-48.8 353.75,-84.8"/>
<text text-anchor="middle" x="300" y="-62.6" font-family="Times,serif" font-size="14.00">StargazeModule</text>
</g>
<!-- StargazeModule&#45;&gt;AppModule -->
<g id="edge5" class="edge">
<title>StargazeModule&#45;&gt;AppModule</title>
<path fill="none" stroke="black" d="M300,-84.83C300,-101.2 300,-122.8 300,-122.8 300,-122.8 361.24,-122.8 361.24,-122.8"/>
<polygon fill="black" stroke="black" points="361.24,-126.3 371.24,-122.8 361.24,-119.3 361.24,-126.3"/>
</g>
<!-- SubmitModule -->
<g id="node6" class="node">
<title>SubmitModule</title>
<polygon fill="#8dd3c7" stroke="black" points="228.01,-84.8 225.01,-88.8 204.01,-88.8 201.01,-84.8 127.99,-84.8 127.99,-48.8 228.01,-48.8 228.01,-84.8"/>
<text text-anchor="middle" x="178" y="-62.6" font-family="Times,serif" font-size="14.00">SubmitModule</text>
</g>
<!-- SubmitModule&#45;&gt;AppModule -->
<g id="edge6" class="edge">
<title>SubmitModule&#45;&gt;AppModule</title>
<path fill="none" stroke="black" d="M178,-84.91C178,-104.14 178,-131.8 178,-131.8 178,-131.8 361.26,-131.8 361.26,-131.8"/>
<polygon fill="black" stroke="black" points="361.26,-135.3 371.26,-131.8 361.26,-128.3 361.26,-135.3"/>
</g>
<!-- VoteModule -->
<g id="node7" class="node">
<title>VoteModule</title>
<polygon fill="#8dd3c7" stroke="black" points="110.27,-84.8 107.27,-88.8 86.27,-88.8 83.27,-84.8 23.73,-84.8 23.73,-48.8 110.27,-48.8 110.27,-84.8"/>
<text text-anchor="middle" x="67" y="-62.6" font-family="Times,serif" font-size="14.00">VoteModule</text>
</g>
<!-- VoteModule&#45;&gt;AppModule -->
<g id="edge7" class="edge">
<title>VoteModule&#45;&gt;AppModule</title>
<path fill="none" stroke="black" d="M67,-85.09C67,-107.01 67,-140.8 67,-140.8 67,-140.8 361.26,-140.8 361.26,-140.8"/>
<polygon fill="black" stroke="black" points="361.26,-144.3 371.26,-140.8 361.26,-137.3 361.26,-144.3"/>
</g>
</g>
</svg>
