<?xml version="1.0" encoding="UTF-8" standalone="no"?>
<!DOCTYPE svg PUBLIC "-//W3C//DTD SVG 1.1//EN"
 "http://www.w3.org/Graphics/SVG/1.1/DTD/svg11.dtd">
<!-- Generated by graphviz version 3.0.0 (20220226.1711)
 -->
<!-- Title: dependencies Pages: 1 -->
<svg width="1809pt" height="174pt"
 viewBox="0.00 0.00 1809.00 173.80" xmlns="http://www.w3.org/2000/svg" xmlns:xlink="http://www.w3.org/1999/xlink">
<g id="graph0" class="graph" transform="scale(1 1) rotate(0) translate(4 169.8)">
<title>dependencies</title>
<polygon fill="white" stroke="transparent" points="-4,4 -4,-169.8 1805,-169.8 1805,4 -4,4"/>
<text text-anchor="middle" x="900.5" y="-8.2" font-family="sans-serif" font-size="14.00">dependencies</text>
<g id="clust1" class="cluster">
<title>cluster_AppModule</title>
<polygon fill="none" stroke="black" stroke-dasharray="1,5" points="8,-32.8 8,-157.8 1793,-157.8 1793,-32.8 8,-32.8"/>
</g>
<g id="clust3" class="cluster">
<title>cluster_AppModule_imports</title>
<polygon fill="none" stroke="black" points="16,-40.8 16,-92.8 1785,-92.8 1785,-40.8 16,-40.8"/>
</g>
<!-- AuthModule -->
<g id="node1" class="node">
<title>AuthModule</title>
<polygon fill="#8dd3c7" stroke="black" points="1776.55,-84.8 1773.55,-88.8 1752.55,-88.8 1749.55,-84.8 1689.45,-84.8 1689.45,-48.8 1776.55,-48.8 1776.55,-84.8"/>
<text text-anchor="middle" x="1733" y="-62.6" font-family="Times,serif" font-size="14.00">AuthModule</text>
</g>
<!-- AppModule -->
<g id="node15" class="node">
<title>AppModule</title>
<polygon fill="#8dd3c7" stroke="black" points="990.66,-149.8 987.66,-153.8 966.66,-153.8 963.66,-149.8 907.34,-149.8 907.34,-113.8 990.66,-113.8 990.66,-149.8"/>
<text text-anchor="middle" x="949" y="-127.6" font-family="Times,serif" font-size="14.00">AppModule</text>
</g>
<!-- AuthModule&#45;&gt;AppModule -->
<g id="edge1" class="edge">
<title>AuthModule&#45;&gt;AppModule</title>
<path fill="none" stroke="black" d="M1733,-84.89C1733,-107.93 1733,-144.8 1733,-144.8 1733,-144.8 1000.87,-144.8 1000.87,-144.8"/>
<polygon fill="black" stroke="black" points="1000.87,-141.3 990.87,-144.8 1000.87,-148.3 1000.87,-141.3"/>
</g>
<!-- ContributionModule -->
<g id="node2" class="node">
<title>ContributionModule</title>
<polygon fill="#8dd3c7" stroke="black" points="1671.61,-84.8 1668.61,-88.8 1647.61,-88.8 1644.61,-84.8 1540.39,-84.8 1540.39,-48.8 1671.61,-48.8 1671.61,-84.8"/>
<text text-anchor="middle" x="1606" y="-62.6" font-family="Times,serif" font-size="14.00">ContributionModule</text>
</g>
<!-- ContributionModule&#45;&gt;AppModule -->
<g id="edge2" class="edge">
<title>ContributionModule&#45;&gt;AppModule</title>
<path fill="none" stroke="black" d="M1606,-84.84C1606,-106.46 1606,-139.8 1606,-139.8 1606,-139.8 1000.85,-139.8 1000.85,-139.8"/>
<polygon fill="black" stroke="black" points="1000.85,-136.3 990.85,-139.8 1000.85,-143.3 1000.85,-136.3"/>
</g>
<!-- CustomerModule -->
<g id="node3" class="node">
<title>CustomerModule</title>
<polygon fill="#8dd3c7" stroke="black" points="1521.99,-84.8 1518.99,-88.8 1497.99,-88.8 1494.99,-84.8 1408.01,-84.8 1408.01,-48.8 1521.99,-48.8 1521.99,-84.8"/>
<text text-anchor="middle" x="1465" y="-62.6" font-family="Times,serif" font-size="14.00">CustomerModule</text>
</g>
<!-- CustomerModule&#45;&gt;AppModule -->
<g id="edge3" class="edge">
<title>CustomerModule&#45;&gt;AppModule</title>
<path fill="none" stroke="black" d="M1465,-85.02C1465,-105.17 1465,-134.8 1465,-134.8 1465,-134.8 1000.79,-134.8 1000.79,-134.8"/>
<polygon fill="black" stroke="black" points="1000.79,-131.3 990.79,-134.8 1000.79,-138.3 1000.79,-131.3"/>
</g>
<!-- HealthModule -->
<g id="node4" class="node">
<title>HealthModule</title>
<polygon fill="#8dd3c7" stroke="black" points="1390.37,-84.8 1387.37,-88.8 1366.37,-88.8 1363.37,-84.8 1293.63,-84.8 1293.63,-48.8 1390.37,-48.8 1390.37,-84.8"/>
<text text-anchor="middle" x="1342" y="-62.6" font-family="Times,serif" font-size="14.00">HealthModule</text>
</g>
<!-- HealthModule&#45;&gt;AppModule -->
<g id="edge4" class="edge">
<title>HealthModule&#45;&gt;AppModule</title>
<path fill="none" stroke="black" d="M1342,-85.02C1342,-103.63 1342,-129.8 1342,-129.8 1342,-129.8 1000.69,-129.8 1000.69,-129.8"/>
<polygon fill="black" stroke="black" points="1000.69,-126.3 990.69,-129.8 1000.69,-133.3 1000.69,-126.3"/>
</g>
<!-- InsightsModule -->
<g id="node5" class="node">
<title>InsightsModule</title>
<polygon fill="#8dd3c7" stroke="black" points="1275.89,-84.8 1272.89,-88.8 1251.89,-88.8 1248.89,-84.8 1172.11,-84.8 1172.11,-48.8 1275.89,-48.8 1275.89,-84.8"/>
<text text-anchor="middle" x="1224" y="-62.6" font-family="Times,serif" font-size="14.00">InsightsModule</text>
</g>
<!-- InsightsModule&#45;&gt;AppModule -->
<g id="edge5" class="edge">
<title>InsightsModule&#45;&gt;AppModule</title>
<path fill="none" stroke="black" d="M1224,-84.83C1224,-101.86 1224,-124.8 1224,-124.8 1224,-124.8 1000.77,-124.8 1000.77,-124.8"/>
<polygon fill="black" stroke="black" points="1000.77,-121.3 990.77,-124.8 1000.77,-128.3 1000.77,-121.3"/>
</g>
<!-- RepoModule -->
<g id="node6" class="node">
<title>RepoModule</title>
<polygon fill="#8dd3c7" stroke="black" points="1154.6,-84.8 1151.6,-88.8 1130.6,-88.8 1127.6,-84.8 1065.4,-84.8 1065.4,-48.8 1154.6,-48.8 1154.6,-84.8"/>
<text text-anchor="middle" x="1110" y="-62.6" font-family="Times,serif" font-size="14.00">RepoModule</text>
</g>
<!-- RepoModule&#45;&gt;AppModule -->
<g id="edge6" class="edge">
<title>RepoModule&#45;&gt;AppModule</title>
<path fill="none" stroke="black" d="M1110,-85.04C1110,-100.37 1110,-119.8 1110,-119.8 1110,-119.8 1000.88,-119.8 1000.88,-119.8"/>
<polygon fill="black" stroke="black" points="1000.88,-116.3 990.88,-119.8 1000.88,-123.3 1000.88,-116.3"/>
</g>
<!-- StarModule -->
<g id="node7" class="node">
<title>StarModule</title>
<polygon fill="#8dd3c7" stroke="black" points="1047.1,-84.8 1044.1,-88.8 1023.1,-88.8 1020.1,-84.8 964.9,-84.8 964.9,-48.8 1047.1,-48.8 1047.1,-84.8"/>
<text text-anchor="middle" x="1006" y="-62.6" font-family="Times,serif" font-size="14.00">StarModule</text>
</g>
<!-- StarModule&#45;&gt;AppModule -->
<g id="edge7" class="edge">
<title>StarModule&#45;&gt;AppModule</title>
<path fill="none" stroke="black" d="M977.89,-84.91C977.89,-84.91 977.89,-103.79 977.89,-103.79"/>
<polygon fill="black" stroke="black" points="974.39,-103.79 977.89,-113.79 981.39,-103.79 974.39,-103.79"/>
</g>
<!-- StargazeModule -->
<g id="node8" class="node">
<title>StargazeModule</title>
<polygon fill="#8dd3c7" stroke="black" points="946.75,-84.8 943.75,-88.8 922.75,-88.8 919.75,-84.8 839.25,-84.8 839.25,-48.8 946.75,-48.8 946.75,-84.8"/>
<text text-anchor="middle" x="893" y="-62.6" font-family="Times,serif" font-size="14.00">StargazeModule</text>
</g>
<!-- StargazeModule&#45;&gt;AppModule -->
<g id="edge8" class="edge">
<title>StargazeModule&#45;&gt;AppModule</title>
<path fill="none" stroke="black" d="M927.02,-84.91C927.02,-84.91 927.02,-103.79 927.02,-103.79"/>
<polygon fill="black" stroke="black" points="923.52,-103.79 927.02,-113.79 930.52,-103.79 923.52,-103.79"/>
</g>
<!-- StripeSubscriptionModule -->
<g id="node9" class="node">
<title>StripeSubscriptionModule</title>
<polygon fill="#8dd3c7" stroke="black" points="820.77,-84.8 817.77,-88.8 796.77,-88.8 793.77,-84.8 657.23,-84.8 657.23,-48.8 820.77,-48.8 820.77,-84.8"/>
<text text-anchor="middle" x="739" y="-62.6" font-family="Times,serif" font-size="14.00">StripeSubscriptionModule</text>
</g>
<!-- StripeSubscriptionModule&#45;&gt;AppModule -->
<g id="edge9" class="edge">
<title>StripeSubscriptionModule&#45;&gt;AppModule</title>
<path fill="none" stroke="black" d="M739,-85.04C739,-100.37 739,-119.8 739,-119.8 739,-119.8 897.26,-119.8 897.26,-119.8"/>
<polygon fill="black" stroke="black" points="897.26,-123.3 907.26,-119.8 897.26,-116.3 897.26,-123.3"/>
</g>
<!-- StripeWebHookModule -->
<g id="node10" class="node">
<title>StripeWebHookModule</title>
<polygon fill="#8dd3c7" stroke="black" points="639.03,-84.8 636.03,-88.8 615.03,-88.8 612.03,-84.8 488.97,-84.8 488.97,-48.8 639.03,-48.8 639.03,-84.8"/>
<text text-anchor="middle" x="564" y="-62.6" font-family="Times,serif" font-size="14.00">StripeWebHookModule</text>
</g>
<!-- StripeWebHookModule&#45;&gt;AppModule -->
<g id="edge10" class="edge">
<title>StripeWebHookModule&#45;&gt;AppModule</title>
<path fill="none" stroke="black" d="M564,-84.83C564,-101.86 564,-124.8 564,-124.8 564,-124.8 897.07,-124.8 897.07,-124.8"/>
<polygon fill="black" stroke="black" points="897.07,-128.3 907.07,-124.8 897.07,-121.3 897.07,-128.3"/>
</g>
<!-- SubmitModule -->
<g id="node11" class="node">
<title>SubmitModule</title>
<polygon fill="#8dd3c7" stroke="black" points="471.01,-84.8 468.01,-88.8 447.01,-88.8 444.01,-84.8 370.99,-84.8 370.99,-48.8 471.01,-48.8 471.01,-84.8"/>
<text text-anchor="middle" x="421" y="-62.6" font-family="Times,serif" font-size="14.00">SubmitModule</text>
</g>
<!-- SubmitModule&#45;&gt;AppModule -->
<g id="edge11" class="edge">
<title>SubmitModule&#45;&gt;AppModule</title>
<path fill="none" stroke="black" d="M421,-85.02C421,-103.63 421,-129.8 421,-129.8 421,-129.8 897.13,-129.8 897.13,-129.8"/>
<polygon fill="black" stroke="black" points="897.13,-133.3 907.13,-129.8 897.13,-126.3 897.13,-133.3"/>
</g>
<!-- UserModule -->
<g id="node12" class="node">
<title>UserModule</title>
<polygon fill="#8dd3c7" stroke="black" points="352.99,-84.8 349.99,-88.8 328.99,-88.8 325.99,-84.8 267.01,-84.8 267.01,-48.8 352.99,-48.8 352.99,-84.8"/>
<text text-anchor="middle" x="310" y="-62.6" font-family="Times,serif" font-size="14.00">UserModule</text>
</g>
<!-- UserModule&#45;&gt;AppModule -->
<g id="edge12" class="edge">
<title>UserModule&#45;&gt;AppModule</title>
<path fill="none" stroke="black" d="M310,-85.02C310,-105.17 310,-134.8 310,-134.8 310,-134.8 897.07,-134.8 897.07,-134.8"/>
<polygon fill="black" stroke="black" points="897.07,-138.3 907.07,-134.8 897.07,-131.3 897.07,-138.3"/>
</g>
<!-- UserReposModule -->
<g id="node13" class="node">
<title>UserReposModule</title>
<polygon fill="#8dd3c7" stroke="black" points="249.49,-84.8 246.49,-88.8 225.49,-88.8 222.49,-84.8 128.51,-84.8 128.51,-48.8 249.49,-48.8 249.49,-84.8"/>
<text text-anchor="middle" x="189" y="-62.6" font-family="Times,serif" font-size="14.00">UserReposModule</text>
</g>
<!-- UserReposModule&#45;&gt;AppModule -->
<g id="edge13" class="edge">
<title>UserReposModule&#45;&gt;AppModule</title>
<path fill="none" stroke="black" d="M189,-84.84C189,-106.46 189,-139.8 189,-139.8 189,-139.8 897.33,-139.8 897.33,-139.8"/>
<polygon fill="black" stroke="black" points="897.33,-143.3 907.33,-139.8 897.33,-136.3 897.33,-143.3"/>
</g>
<!-- VoteModule -->
<g id="node14" class="node">
<title>VoteModule</title>
<polygon fill="#8dd3c7" stroke="black" points="110.27,-84.8 107.27,-88.8 86.27,-88.8 83.27,-84.8 23.73,-84.8 23.73,-48.8 110.27,-48.8 110.27,-84.8"/>
<text text-anchor="middle" x="67" y="-62.6" font-family="Times,serif" font-size="14.00">VoteModule</text>
</g>
<!-- VoteModule&#45;&gt;AppModule -->
<g id="edge14" class="edge">
<title>VoteModule&#45;&gt;AppModule</title>
<path fill="none" stroke="black" d="M67,-84.89C67,-107.93 67,-144.8 67,-144.8 67,-144.8 897.05,-144.8 897.05,-144.8"/>
<polygon fill="black" stroke="black" points="897.05,-148.3 907.05,-144.8 897.05,-141.3 897.05,-148.3"/>
</g>
</g>
</svg>
