<?xml version="1.0" encoding="UTF-8" standalone="no"?>
<!DOCTYPE svg PUBLIC "-//W3C//DTD SVG 1.1//EN"
 "http://www.w3.org/Graphics/SVG/1.1/DTD/svg11.dtd">
<!-- Generated by graphviz version 3.0.0 (20220226.1711)
 -->
<!-- Title: dependencies Pages: 1 -->
<svg width="3072pt" height="174pt"
 viewBox="0.00 0.00 3072.00 173.80" xmlns="http://www.w3.org/2000/svg" xmlns:xlink="http://www.w3.org/1999/xlink">
<g id="graph0" class="graph" transform="scale(1 1) rotate(0) translate(4 169.8)">
<title>dependencies</title>
<polygon fill="white" stroke="transparent" points="-4,4 -4,-169.8 3068,-169.8 3068,4 -4,4"/>
<text text-anchor="middle" x="1532" y="-8.2" font-family="sans-serif" font-size="14.00">dependencies</text>
<g id="clust1" class="cluster">
<title>cluster_AppModule</title>
<polygon fill="none" stroke="black" stroke-dasharray="1,5" points="8,-32.8 8,-157.8 3056,-157.8 3056,-32.8 8,-32.8"/>
</g>
<g id="clust3" class="cluster">
<title>cluster_AppModule_imports</title>
<polygon fill="none" stroke="black" points="16,-40.8 16,-92.8 3048,-92.8 3048,-40.8 16,-40.8"/>
</g>
<!-- AuthModule -->
<g id="node1" class="node">
<title>AuthModule</title>
<polygon fill="#8dd3c7" stroke="black" points="3039.55,-84.8 3036.55,-88.8 3015.55,-88.8 3012.55,-84.8 2952.45,-84.8 2952.45,-48.8 3039.55,-48.8 3039.55,-84.8"/>
<text text-anchor="middle" x="2996" y="-62.6" font-family="Times,serif" font-size="14.00">AuthModule</text>
</g>
<!-- AppModule -->
<g id="node24" class="node">
<title>AppModule</title>
<polygon fill="#8dd3c7" stroke="black" points="1549.66,-149.8 1546.66,-153.8 1525.66,-153.8 1522.66,-149.8 1466.34,-149.8 1466.34,-113.8 1549.66,-113.8 1549.66,-149.8"/>
<text text-anchor="middle" x="1508" y="-127.6" font-family="Times,serif" font-size="14.00">AppModule</text>
</g>
<!-- AuthModule&#45;&gt;AppModule -->
<g id="edge1" class="edge">
<title>AuthModule&#45;&gt;AppModule</title>
<path fill="none" stroke="black" d="M2996,-84.95C2996,-108.56 2996,-146.8 2996,-146.8 2996,-146.8 1559.74,-146.8 1559.74,-146.8"/>
<polygon fill="black" stroke="black" points="1559.74,-143.3 1549.74,-146.8 1559.74,-150.3 1559.74,-143.3"/>
</g>
<!-- BlogSummaryModule -->
<g id="node2" class="node">
<title>BlogSummaryModule</title>
<polygon fill="#8dd3c7" stroke="black" points="2934.72,-84.8 2931.72,-88.8 2910.72,-88.8 2907.72,-84.8 2793.28,-84.8 2793.28,-48.8 2934.72,-48.8 2934.72,-84.8"/>
<text text-anchor="middle" x="2864" y="-62.6" font-family="Times,serif" font-size="14.00">BlogSummaryModule</text>
</g>
<!-- BlogSummaryModule&#45;&gt;AppModule -->
<g id="edge2" class="edge">
<title>BlogSummaryModule&#45;&gt;AppModule</title>
<path fill="none" stroke="black" d="M2864,-84.89C2864,-107.93 2864,-144.8 2864,-144.8 2864,-144.8 1559.7,-144.8 1559.7,-144.8"/>
<polygon fill="black" stroke="black" points="1559.7,-141.3 1549.7,-144.8 1559.7,-148.3 1559.7,-141.3"/>
</g>
<!-- ContributionModule -->
<g id="node3" class="node">
<title>ContributionModule</title>
<polygon fill="#8dd3c7" stroke="black" points="2775.61,-84.8 2772.61,-88.8 2751.61,-88.8 2748.61,-84.8 2644.39,-84.8 2644.39,-48.8 2775.61,-48.8 2775.61,-84.8"/>
<text text-anchor="middle" x="2710" y="-62.6" font-family="Times,serif" font-size="14.00">ContributionModule</text>
</g>
<!-- ContributionModule&#45;&gt;AppModule -->
<g id="edge3" class="edge">
<title>ContributionModule&#45;&gt;AppModule</title>
<path fill="none" stroke="black" d="M2710,-85.09C2710,-107.01 2710,-140.8 2710,-140.8 2710,-140.8 1559.72,-140.8 1559.72,-140.8"/>
<polygon fill="black" stroke="black" points="1559.72,-137.3 1549.72,-140.8 1559.72,-144.3 1559.72,-137.3"/>
</g>
<!-- ContributorModule -->
<g id="node4" class="node">
<title>ContributorModule</title>
<polygon fill="#8dd3c7" stroke="black" points="2626.38,-84.8 2623.38,-88.8 2602.38,-88.8 2599.38,-84.8 2501.62,-84.8 2501.62,-48.8 2626.38,-48.8 2626.38,-84.8"/>
<text text-anchor="middle" x="2564" y="-62.6" font-family="Times,serif" font-size="14.00">ContributorModule</text>
</g>
<!-- ContributorModule&#45;&gt;AppModule -->
<g id="edge4" class="edge">
<title>ContributorModule&#45;&gt;AppModule</title>
<path fill="none" stroke="black" d="M2564,-85.08C2564,-106.12 2564,-137.8 2564,-137.8 2564,-137.8 1559.72,-137.8 1559.72,-137.8"/>
<polygon fill="black" stroke="black" points="1559.72,-134.3 1549.72,-137.8 1559.72,-141.3 1559.72,-134.3"/>
</g>
<!-- CustomerModule -->
<g id="node5" class="node">
<title>CustomerModule</title>
<polygon fill="#8dd3c7" stroke="black" points="2483.99,-84.8 2480.99,-88.8 2459.99,-88.8 2456.99,-84.8 2370.01,-84.8 2370.01,-48.8 2483.99,-48.8 2483.99,-84.8"/>
<text text-anchor="middle" x="2427" y="-62.6" font-family="Times,serif" font-size="14.00">CustomerModule</text>
</g>
<!-- CustomerModule&#45;&gt;AppModule -->
<g id="edge5" class="edge">
<title>CustomerModule&#45;&gt;AppModule</title>
<path fill="none" stroke="black" d="M2427,-85.02C2427,-105.17 2427,-134.8 2427,-134.8 2427,-134.8 1559.88,-134.8 1559.88,-134.8"/>
<polygon fill="black" stroke="black" points="1559.88,-131.3 1549.88,-134.8 1559.88,-138.3 1559.88,-131.3"/>
</g>
<!-- EmojiModule -->
<g id="node6" class="node">
<title>EmojiModule</title>
<polygon fill="#8dd3c7" stroke="black" points="2351.77,-84.8 2348.77,-88.8 2327.77,-88.8 2324.77,-84.8 2258.23,-84.8 2258.23,-48.8 2351.77,-48.8 2351.77,-84.8"/>
<text text-anchor="middle" x="2305" y="-62.6" font-family="Times,serif" font-size="14.00">EmojiModule</text>
</g>
<!-- EmojiModule&#45;&gt;AppModule -->
<g id="edge6" class="edge">
<title>EmojiModule&#45;&gt;AppModule</title>
<path fill="none" stroke="black" d="M2305,-84.91C2305,-104.14 2305,-131.8 2305,-131.8 2305,-131.8 1559.73,-131.8 1559.73,-131.8"/>
<polygon fill="black" stroke="black" points="1559.73,-128.3 1549.73,-131.8 1559.73,-135.3 1559.73,-128.3"/>
</g>
<!-- EndorsementModule -->
<g id="node7" class="node">
<title>EndorsementModule</title>
<polygon fill="#8dd3c7" stroke="black" points="2239.92,-84.8 2236.92,-88.8 2215.92,-88.8 2212.92,-84.8 2106.08,-84.8 2106.08,-48.8 2239.92,-48.8 2239.92,-84.8"/>
<text text-anchor="middle" x="2173" y="-62.6" font-family="Times,serif" font-size="14.00">EndorsementModule</text>
</g>
<!-- EndorsementModule&#45;&gt;AppModule -->
<g id="edge7" class="edge">
<title>EndorsementModule&#45;&gt;AppModule</title>
<path fill="none" stroke="black" d="M2173,-85.02C2173,-103.63 2173,-129.8 2173,-129.8 2173,-129.8 1559.85,-129.8 1559.85,-129.8"/>
<polygon fill="black" stroke="black" points="1559.85,-126.3 1549.85,-129.8 1559.85,-133.3 1559.85,-126.3"/>
</g>
<!-- HealthModule -->
<g id="node8" class="node">
<title>HealthModule</title>
<polygon fill="#8dd3c7" stroke="black" points="2088.37,-84.8 2085.37,-88.8 2064.37,-88.8 2061.37,-84.8 1991.63,-84.8 1991.63,-48.8 2088.37,-48.8 2088.37,-84.8"/>
<text text-anchor="middle" x="2040" y="-62.6" font-family="Times,serif" font-size="14.00">HealthModule</text>
</g>
<!-- HealthModule&#45;&gt;AppModule -->
<g id="edge8" class="edge">
<title>HealthModule&#45;&gt;AppModule</title>
<path fill="none" stroke="black" d="M2040,-84.82C2040,-102.17 2040,-125.8 2040,-125.8 2040,-125.8 1559.75,-125.8 1559.75,-125.8"/>
<polygon fill="black" stroke="black" points="1559.75,-122.3 1549.75,-125.8 1559.75,-129.3 1559.75,-122.3"/>
</g>
<!-- HighlightModule -->
<g id="node9" class="node">
<title>HighlightModule</title>
<polygon fill="#8dd3c7" stroke="black" points="1973.72,-84.8 1970.72,-88.8 1949.72,-88.8 1946.72,-84.8 1860.28,-84.8 1860.28,-48.8 1973.72,-48.8 1973.72,-84.8"/>
<text text-anchor="middle" x="1917" y="-62.6" font-family="Times,serif" font-size="14.00">HighlightModule</text>
</g>
<!-- HighlightModule&#45;&gt;AppModule -->
<g id="edge9" class="edge">
<title>HighlightModule&#45;&gt;AppModule</title>
<path fill="none" stroke="black" d="M1917,-84.83C1917,-101.2 1917,-122.8 1917,-122.8 1917,-122.8 1559.85,-122.8 1559.85,-122.8"/>
<polygon fill="black" stroke="black" points="1559.85,-119.3 1549.85,-122.8 1559.85,-126.3 1559.85,-119.3"/>
</g>
<!-- InsightsModule -->
<g id="node10" class="node">
<title>InsightsModule</title>
<polygon fill="#8dd3c7" stroke="black" points="1841.89,-84.8 1838.89,-88.8 1817.89,-88.8 1814.89,-84.8 1738.11,-84.8 1738.11,-48.8 1841.89,-48.8 1841.89,-84.8"/>
<text text-anchor="middle" x="1790" y="-62.6" font-family="Times,serif" font-size="14.00">InsightsModule</text>
</g>
<!-- InsightsModule&#45;&gt;AppModule -->
<g id="edge10" class="edge">
<title>InsightsModule&#45;&gt;AppModule</title>
<path fill="none" stroke="black" d="M1790,-85.04C1790,-100.37 1790,-119.8 1790,-119.8 1790,-119.8 1559.91,-119.8 1559.91,-119.8"/>
<polygon fill="black" stroke="black" points="1559.91,-116.3 1549.91,-119.8 1559.91,-123.3 1559.91,-116.3"/>
</g>
<!-- IssueSummaryModule -->
<g id="node11" class="node">
<title>IssueSummaryModule</title>
<polygon fill="#8dd3c7" stroke="black" points="1720.27,-84.8 1717.27,-88.8 1696.27,-88.8 1693.27,-84.8 1577.73,-84.8 1577.73,-48.8 1720.27,-48.8 1720.27,-84.8"/>
<text text-anchor="middle" x="1649" y="-62.6" font-family="Times,serif" font-size="14.00">IssueSummaryModule</text>
</g>
<!-- IssueSummaryModule&#45;&gt;AppModule -->
<g id="edge11" class="edge">
<title>IssueSummaryModule&#45;&gt;AppModule</title>
<path fill="none" stroke="black" d="M1649,-84.85C1649,-99.17 1649,-116.8 1649,-116.8 1649,-116.8 1559.92,-116.8 1559.92,-116.8"/>
<polygon fill="black" stroke="black" points="1559.92,-113.3 1549.92,-116.8 1559.92,-120.3 1559.92,-113.3"/>
</g>
<!-- OpenAiModule -->
<g id="node12" class="node">
<title>OpenAiModule</title>
<polygon fill="#8dd3c7" stroke="black" points="1559.88,-84.8 1556.88,-88.8 1535.88,-88.8 1532.88,-84.8 1456.12,-84.8 1456.12,-48.8 1559.88,-48.8 1559.88,-84.8"/>
<text text-anchor="middle" x="1508" y="-62.6" font-family="Times,serif" font-size="14.00">OpenAiModule</text>
</g>
<!-- OpenAiModule&#45;&gt;AppModule -->
<g id="edge12" class="edge">
<title>OpenAiModule&#45;&gt;AppModule</title>
<path fill="none" stroke="black" d="M1508,-84.91C1508,-84.91 1508,-103.79 1508,-103.79"/>
<polygon fill="black" stroke="black" points="1504.5,-103.79 1508,-113.79 1511.5,-103.79 1504.5,-103.79"/>
</g>
<!-- PizzaOvenModule -->
<g id="node13" class="node">
<title>PizzaOvenModule</title>
<polygon fill="#8dd3c7" stroke="black" points="1438.19,-84.8 1435.19,-88.8 1414.19,-88.8 1411.19,-84.8 1317.81,-84.8 1317.81,-48.8 1438.19,-48.8 1438.19,-84.8"/>
<text text-anchor="middle" x="1378" y="-62.6" font-family="Times,serif" font-size="14.00">PizzaOvenModule</text>
</g>
<!-- PizzaOvenModule&#45;&gt;AppModule -->
<g id="edge13" class="edge">
<title>PizzaOvenModule&#45;&gt;AppModule</title>
<path fill="none" stroke="black" d="M1378,-84.85C1378,-99.17 1378,-116.8 1378,-116.8 1378,-116.8 1456.15,-116.8 1456.15,-116.8"/>
<polygon fill="black" stroke="black" points="1456.15,-120.3 1466.15,-116.8 1456.15,-113.3 1456.15,-120.3"/>
</g>
<!-- PullRequestModule -->
<g id="node14" class="node">
<title>PullRequestModule</title>
<polygon fill="#8dd3c7" stroke="black" points="1299.72,-84.8 1296.72,-88.8 1275.72,-88.8 1272.72,-84.8 1172.28,-84.8 1172.28,-48.8 1299.72,-48.8 1299.72,-84.8"/>
<text text-anchor="middle" x="1236" y="-62.6" font-family="Times,serif" font-size="14.00">PullRequestModule</text>
</g>
<!-- PullRequestModule&#45;&gt;AppModule -->
<g id="edge14" class="edge">
<title>PullRequestModule&#45;&gt;AppModule</title>
<path fill="none" stroke="black" d="M1236,-85.04C1236,-100.37 1236,-119.8 1236,-119.8 1236,-119.8 1456.1,-119.8 1456.1,-119.8"/>
<polygon fill="black" stroke="black" points="1456.1,-123.3 1466.1,-119.8 1456.1,-116.3 1456.1,-123.3"/>
</g>
<!-- RepoModule -->
<g id="node15" class="node">
<title>RepoModule</title>
<polygon fill="#8dd3c7" stroke="black" points="1154.6,-84.8 1151.6,-88.8 1130.6,-88.8 1127.6,-84.8 1065.4,-84.8 1065.4,-48.8 1154.6,-48.8 1154.6,-84.8"/>
<text text-anchor="middle" x="1110" y="-62.6" font-family="Times,serif" font-size="14.00">RepoModule</text>
</g>
<!-- RepoModule&#45;&gt;AppModule -->
<g id="edge15" class="edge">
<title>RepoModule&#45;&gt;AppModule</title>
<path fill="none" stroke="black" d="M1110,-84.83C1110,-101.2 1110,-122.8 1110,-122.8 1110,-122.8 1456.16,-122.8 1456.16,-122.8"/>
<polygon fill="black" stroke="black" points="1456.16,-126.3 1466.16,-122.8 1456.16,-119.3 1456.16,-126.3"/>
</g>
<!-- StarModule -->
<g id="node16" class="node">
<title>StarModule</title>
<polygon fill="#8dd3c7" stroke="black" points="1047.1,-84.8 1044.1,-88.8 1023.1,-88.8 1020.1,-84.8 964.9,-84.8 964.9,-48.8 1047.1,-48.8 1047.1,-84.8"/>
<text text-anchor="middle" x="1006" y="-62.6" font-family="Times,serif" font-size="14.00">StarModule</text>
</g>
<!-- StarModule&#45;&gt;AppModule -->
<g id="edge16" class="edge">
<title>StarModule&#45;&gt;AppModule</title>
<path fill="none" stroke="black" d="M1006,-84.82C1006,-102.17 1006,-125.8 1006,-125.8 1006,-125.8 1456.06,-125.8 1456.06,-125.8"/>
<polygon fill="black" stroke="black" points="1456.06,-129.3 1466.06,-125.8 1456.06,-122.3 1456.06,-129.3"/>
</g>
<!-- StargazeModule -->
<g id="node17" class="node">
<title>StargazeModule</title>
<polygon fill="#8dd3c7" stroke="black" points="946.75,-84.8 943.75,-88.8 922.75,-88.8 919.75,-84.8 839.25,-84.8 839.25,-48.8 946.75,-48.8 946.75,-84.8"/>
<text text-anchor="middle" x="893" y="-62.6" font-family="Times,serif" font-size="14.00">StargazeModule</text>
</g>
<!-- StargazeModule&#45;&gt;AppModule -->
<g id="edge17" class="edge">
<title>StargazeModule&#45;&gt;AppModule</title>
<path fill="none" stroke="black" d="M893,-85.02C893,-103.63 893,-129.8 893,-129.8 893,-129.8 1456.21,-129.8 1456.21,-129.8"/>
<polygon fill="black" stroke="black" points="1456.21,-133.3 1466.21,-129.8 1456.21,-126.3 1456.21,-133.3"/>
</g>
<!-- StripeSubscriptionModule -->
<g id="node18" class="node">
<title>StripeSubscriptionModule</title>
<polygon fill="#8dd3c7" stroke="black" points="820.77,-84.8 817.77,-88.8 796.77,-88.8 793.77,-84.8 657.23,-84.8 657.23,-48.8 820.77,-48.8 820.77,-84.8"/>
<text text-anchor="middle" x="739" y="-62.6" font-family="Times,serif" font-size="14.00">StripeSubscriptionModule</text>
</g>
<!-- StripeSubscriptionModule&#45;&gt;AppModule -->
<g id="edge18" class="edge">
<title>StripeSubscriptionModule&#45;&gt;AppModule</title>
<path fill="none" stroke="black" d="M739,-84.91C739,-104.14 739,-131.8 739,-131.8 739,-131.8 1456.11,-131.8 1456.11,-131.8"/>
<polygon fill="black" stroke="black" points="1456.11,-135.3 1466.11,-131.8 1456.11,-128.3 1456.11,-135.3"/>
</g>
<!-- StripeWebHookModule -->
<g id="node19" class="node">
<title>StripeWebHookModule</title>
<polygon fill="#8dd3c7" stroke="black" points="639.03,-84.8 636.03,-88.8 615.03,-88.8 612.03,-84.8 488.97,-84.8 488.97,-48.8 639.03,-48.8 639.03,-84.8"/>
<text text-anchor="middle" x="564" y="-62.6" font-family="Times,serif" font-size="14.00">StripeWebHookModule</text>
</g>
<!-- StripeWebHookModule&#45;&gt;AppModule -->
<g id="edge19" class="edge">
<title>StripeWebHookModule&#45;&gt;AppModule</title>
<path fill="none" stroke="black" d="M564,-85.02C564,-105.17 564,-134.8 564,-134.8 564,-134.8 1456.22,-134.8 1456.22,-134.8"/>
<polygon fill="black" stroke="black" points="1456.22,-138.3 1466.22,-134.8 1456.22,-131.3 1456.22,-138.3"/>
</g>
<!-- SubmitModule -->
<g id="node20" class="node">
<title>SubmitModule</title>
<polygon fill="#8dd3c7" stroke="black" points="471.01,-84.8 468.01,-88.8 447.01,-88.8 444.01,-84.8 370.99,-84.8 370.99,-48.8 471.01,-48.8 471.01,-84.8"/>
<text text-anchor="middle" x="421" y="-62.6" font-family="Times,serif" font-size="14.00">SubmitModule</text>
</g>
<!-- SubmitModule&#45;&gt;AppModule -->
<g id="edge20" class="edge">
<title>SubmitModule&#45;&gt;AppModule</title>
<path fill="none" stroke="black" d="M421,-85.08C421,-106.12 421,-137.8 421,-137.8 421,-137.8 1456.05,-137.8 1456.05,-137.8"/>
<polygon fill="black" stroke="black" points="1456.05,-141.3 1466.05,-137.8 1456.05,-134.3 1456.05,-141.3"/>
</g>
<!-- UserModule -->
<g id="node21" class="node">
<title>UserModule</title>
<polygon fill="#8dd3c7" stroke="black" points="352.99,-84.8 349.99,-88.8 328.99,-88.8 325.99,-84.8 267.01,-84.8 267.01,-48.8 352.99,-48.8 352.99,-84.8"/>
<text text-anchor="middle" x="310" y="-62.6" font-family="Times,serif" font-size="14.00">UserModule</text>
</g>
<!-- UserModule&#45;&gt;AppModule -->
<g id="edge21" class="edge">
<title>UserModule&#45;&gt;AppModule</title>
<path fill="none" stroke="black" d="M310,-85.09C310,-107.01 310,-140.8 310,-140.8 310,-140.8 1456.06,-140.8 1456.06,-140.8"/>
<polygon fill="black" stroke="black" points="1456.07,-144.3 1466.06,-140.8 1456.06,-137.3 1456.07,-144.3"/>
</g>
<!-- UserReposModule -->
<g id="node22" class="node">
<title>UserReposModule</title>
<polygon fill="#8dd3c7" stroke="black" points="249.49,-84.8 246.49,-88.8 225.49,-88.8 222.49,-84.8 128.51,-84.8 128.51,-48.8 249.49,-48.8 249.49,-84.8"/>
<text text-anchor="middle" x="189" y="-62.6" font-family="Times,serif" font-size="14.00">UserReposModule</text>
</g>
<!-- UserReposModule&#45;&gt;AppModule -->
<g id="edge22" class="edge">
<title>UserReposModule&#45;&gt;AppModule</title>
<path fill="none" stroke="black" d="M189,-84.89C189,-107.93 189,-144.8 189,-144.8 189,-144.8 1455.98,-144.8 1455.98,-144.8"/>
<polygon fill="black" stroke="black" points="1455.98,-148.3 1465.98,-144.8 1455.98,-141.3 1455.98,-148.3"/>
</g>
<!-- VoteModule -->
<g id="node23" class="node">
<title>VoteModule</title>
<polygon fill="#8dd3c7" stroke="black" points="110.27,-84.8 107.27,-88.8 86.27,-88.8 83.27,-84.8 23.73,-84.8 23.73,-48.8 110.27,-48.8 110.27,-84.8"/>
<text text-anchor="middle" x="67" y="-62.6" font-family="Times,serif" font-size="14.00">VoteModule</text>
</g>
<!-- VoteModule&#45;&gt;AppModule -->
<g id="edge23" class="edge">
<title>VoteModule&#45;&gt;AppModule</title>
<path fill="none" stroke="black" d="M67,-84.95C67,-108.56 67,-146.8 67,-146.8 67,-146.8 1456.04,-146.8 1456.04,-146.8"/>
<polygon fill="black" stroke="black" points="1456.04,-150.3 1466.04,-146.8 1456.04,-143.3 1456.04,-150.3"/>
</g>
</g>
</svg>
