<?xml version="1.0" encoding="UTF-8" standalone="no"?>
<!DOCTYPE svg PUBLIC "-//W3C//DTD SVG 1.1//EN"
 "http://www.w3.org/Graphics/SVG/1.1/DTD/svg11.dtd">
<!-- Generated by graphviz version 3.0.0 (20220226.1711)
 -->
<!-- Title: dependencies Pages: 1 -->
<svg width="3696pt" height="174pt"
 viewBox="0.00 0.00 3696.00 173.80" xmlns="http://www.w3.org/2000/svg" xmlns:xlink="http://www.w3.org/1999/xlink">
<g id="graph0" class="graph" transform="scale(1 1) rotate(0) translate(4 169.8)">
<title>dependencies</title>
<polygon fill="white" stroke="transparent" points="-4,4 -4,-169.8 3692,-169.8 3692,4 -4,4"/>
<text text-anchor="middle" x="1844" y="-8.2" font-family="sans-serif" font-size="14.00">dependencies</text>
<g id="clust1" class="cluster">
<title>cluster_AppModule</title>
<polygon fill="none" stroke="black" stroke-dasharray="1,5" points="8,-32.8 8,-157.8 3680,-157.8 3680,-32.8 8,-32.8"/>
</g>
<g id="clust3" class="cluster">
<title>cluster_AppModule_imports</title>
<polygon fill="none" stroke="black" points="16,-40.8 16,-92.8 3672,-92.8 3672,-40.8 16,-40.8"/>
</g>
<!-- AuthModule -->
<g id="node1" class="node">
<title>AuthModule</title>
<polygon fill="#8dd3c7" stroke="black" points="3663.55,-84.8 3660.55,-88.8 3639.55,-88.8 3636.55,-84.8 3576.45,-84.8 3576.45,-48.8 3663.55,-48.8 3663.55,-84.8"/>
<text text-anchor="middle" x="3620" y="-62.6" font-family="Times,serif" font-size="14.00">AuthModule</text>
</g>
<!-- AppModule -->
<g id="node29" class="node">
<title>AppModule</title>
<polygon fill="#8dd3c7" stroke="black" points="1886.66,-149.8 1883.66,-153.8 1862.66,-153.8 1859.66,-149.8 1803.34,-149.8 1803.34,-113.8 1886.66,-113.8 1886.66,-149.8"/>
<text text-anchor="middle" x="1845" y="-127.6" font-family="Times,serif" font-size="14.00">AppModule</text>
</g>
<!-- AuthModule&#45;&gt;AppModule -->
<g id="edge1" class="edge">
<title>AuthModule&#45;&gt;AppModule</title>
<path fill="none" stroke="black" d="M3620,-85.18C3620,-109.08 3620,-147.8 3620,-147.8 3620,-147.8 1896.69,-147.8 1896.69,-147.8"/>
<polygon fill="black" stroke="black" points="1896.69,-144.3 1886.69,-147.8 1896.69,-151.3 1896.69,-144.3"/>
</g>
<!-- BlogSummaryModule -->
<g id="node2" class="node">
<title>BlogSummaryModule</title>
<polygon fill="#8dd3c7" stroke="black" points="3558.72,-84.8 3555.72,-88.8 3534.72,-88.8 3531.72,-84.8 3417.28,-84.8 3417.28,-48.8 3558.72,-48.8 3558.72,-84.8"/>
<text text-anchor="middle" x="3488" y="-62.6" font-family="Times,serif" font-size="14.00">BlogSummaryModule</text>
</g>
<!-- BlogSummaryModule&#45;&gt;AppModule -->
<g id="edge2" class="edge">
<title>BlogSummaryModule&#45;&gt;AppModule</title>
<path fill="none" stroke="black" d="M3488,-84.89C3488,-107.93 3488,-144.8 3488,-144.8 3488,-144.8 1896.85,-144.8 1896.85,-144.8"/>
<polygon fill="black" stroke="black" points="1896.85,-141.3 1886.85,-144.8 1896.85,-148.3 1896.85,-141.3"/>
</g>
<!-- ContributionModule -->
<g id="node3" class="node">
<title>ContributionModule</title>
<polygon fill="#8dd3c7" stroke="black" points="3399.61,-84.8 3396.61,-88.8 3375.61,-88.8 3372.61,-84.8 3268.39,-84.8 3268.39,-48.8 3399.61,-48.8 3399.61,-84.8"/>
<text text-anchor="middle" x="3334" y="-62.6" font-family="Times,serif" font-size="14.00">ContributionModule</text>
</g>
<!-- ContributionModule&#45;&gt;AppModule -->
<g id="edge3" class="edge">
<title>ContributionModule&#45;&gt;AppModule</title>
<path fill="none" stroke="black" d="M3334,-84.81C3334,-107.29 3334,-142.8 3334,-142.8 3334,-142.8 1896.77,-142.8 1896.77,-142.8"/>
<polygon fill="black" stroke="black" points="1896.77,-139.3 1886.77,-142.8 1896.77,-146.3 1896.77,-139.3"/>
</g>
<!-- ContributorModule -->
<g id="node4" class="node">
<title>ContributorModule</title>
<polygon fill="#8dd3c7" stroke="black" points="3250.38,-84.8 3247.38,-88.8 3226.38,-88.8 3223.38,-84.8 3125.62,-84.8 3125.62,-48.8 3250.38,-48.8 3250.38,-84.8"/>
<text text-anchor="middle" x="3188" y="-62.6" font-family="Times,serif" font-size="14.00">ContributorModule</text>
</g>
<!-- ContributorModule&#45;&gt;AppModule -->
<g id="edge4" class="edge">
<title>ContributorModule&#45;&gt;AppModule</title>
<path fill="none" stroke="black" d="M3188,-84.84C3188,-106.46 3188,-139.8 3188,-139.8 3188,-139.8 1896.67,-139.8 1896.67,-139.8"/>
<polygon fill="black" stroke="black" points="1896.67,-136.3 1886.67,-139.8 1896.67,-143.3 1896.67,-136.3"/>
</g>
<!-- CouponModule -->
<g id="node5" class="node">
<title>CouponModule</title>
<polygon fill="#8dd3c7" stroke="black" points="3107.89,-84.8 3104.89,-88.8 3083.89,-88.8 3080.89,-84.8 3004.11,-84.8 3004.11,-48.8 3107.89,-48.8 3107.89,-84.8"/>
<text text-anchor="middle" x="3056" y="-62.6" font-family="Times,serif" font-size="14.00">CouponModule</text>
</g>
<!-- CouponModule&#45;&gt;AppModule -->
<g id="edge5" class="edge">
<title>CouponModule&#45;&gt;AppModule</title>
<path fill="none" stroke="black" d="M3056,-85.08C3056,-106.12 3056,-137.8 3056,-137.8 3056,-137.8 1896.69,-137.8 1896.69,-137.8"/>
<polygon fill="black" stroke="black" points="1896.69,-134.3 1886.69,-137.8 1896.69,-141.3 1896.69,-134.3"/>
</g>
<!-- CustomerModule -->
<g id="node6" class="node">
<title>CustomerModule</title>
<polygon fill="#8dd3c7" stroke="black" points="2985.99,-84.8 2982.99,-88.8 2961.99,-88.8 2958.99,-84.8 2872.01,-84.8 2872.01,-48.8 2985.99,-48.8 2985.99,-84.8"/>
<text text-anchor="middle" x="2929" y="-62.6" font-family="Times,serif" font-size="14.00">CustomerModule</text>
</g>
<!-- CustomerModule&#45;&gt;AppModule -->
<g id="edge6" class="edge">
<title>CustomerModule&#45;&gt;AppModule</title>
<path fill="none" stroke="black" d="M2929,-85.02C2929,-105.17 2929,-134.8 2929,-134.8 2929,-134.8 1896.83,-134.8 1896.83,-134.8"/>
<polygon fill="black" stroke="black" points="1896.83,-131.3 1886.83,-134.8 1896.83,-138.3 1896.83,-131.3"/>
</g>
<!-- EmojiModule -->
<g id="node7" class="node">
<title>EmojiModule</title>
<polygon fill="#8dd3c7" stroke="black" points="2853.77,-84.8 2850.77,-88.8 2829.77,-88.8 2826.77,-84.8 2760.23,-84.8 2760.23,-48.8 2853.77,-48.8 2853.77,-84.8"/>
<text text-anchor="middle" x="2807" y="-62.6" font-family="Times,serif" font-size="14.00">EmojiModule</text>
</g>
<!-- EmojiModule&#45;&gt;AppModule -->
<g id="edge7" class="edge">
<title>EmojiModule&#45;&gt;AppModule</title>
<path fill="none" stroke="black" d="M2807,-84.91C2807,-104.14 2807,-131.8 2807,-131.8 2807,-131.8 1896.95,-131.8 1896.95,-131.8"/>
<polygon fill="black" stroke="black" points="1896.95,-128.3 1886.95,-131.8 1896.95,-135.3 1896.95,-128.3"/>
</g>
<!-- EndorsementModule -->
<g id="node8" class="node">
<title>EndorsementModule</title>
<polygon fill="#8dd3c7" stroke="black" points="2741.92,-84.8 2738.92,-88.8 2717.92,-88.8 2714.92,-84.8 2608.08,-84.8 2608.08,-48.8 2741.92,-48.8 2741.92,-84.8"/>
<text text-anchor="middle" x="2675" y="-62.6" font-family="Times,serif" font-size="14.00">EndorsementModule</text>
</g>
<!-- EndorsementModule&#45;&gt;AppModule -->
<g id="edge8" class="edge">
<title>EndorsementModule&#45;&gt;AppModule</title>
<path fill="none" stroke="black" d="M2675,-85.02C2675,-103.63 2675,-129.8 2675,-129.8 2675,-129.8 1896.73,-129.8 1896.73,-129.8"/>
<polygon fill="black" stroke="black" points="1896.73,-126.3 1886.73,-129.8 1896.73,-133.3 1896.73,-126.3"/>
</g>
<!-- HealthModule -->
<g id="node9" class="node">
<title>HealthModule</title>
<polygon fill="#8dd3c7" stroke="black" points="2590.37,-84.8 2587.37,-88.8 2566.37,-88.8 2563.37,-84.8 2493.63,-84.8 2493.63,-48.8 2590.37,-48.8 2590.37,-84.8"/>
<text text-anchor="middle" x="2542" y="-62.6" font-family="Times,serif" font-size="14.00">HealthModule</text>
</g>
<!-- HealthModule&#45;&gt;AppModule -->
<g id="edge9" class="edge">
<title>HealthModule&#45;&gt;AppModule</title>
<path fill="none" stroke="black" d="M2542,-84.8C2542,-102.48 2542,-126.8 2542,-126.8 2542,-126.8 1896.77,-126.8 1896.77,-126.8"/>
<polygon fill="black" stroke="black" points="1896.77,-123.3 1886.77,-126.8 1896.77,-130.3 1896.77,-123.3"/>
</g>
<!-- HighlightModule -->
<g id="node10" class="node">
<title>HighlightModule</title>
<polygon fill="#8dd3c7" stroke="black" points="2475.72,-84.8 2472.72,-88.8 2451.72,-88.8 2448.72,-84.8 2362.28,-84.8 2362.28,-48.8 2475.72,-48.8 2475.72,-84.8"/>
<text text-anchor="middle" x="2419" y="-62.6" font-family="Times,serif" font-size="14.00">HighlightModule</text>
</g>
<!-- HighlightModule&#45;&gt;AppModule -->
<g id="edge10" class="edge">
<title>HighlightModule&#45;&gt;AppModule</title>
<path fill="none" stroke="black" d="M2419,-84.83C2419,-101.86 2419,-124.8 2419,-124.8 2419,-124.8 1896.74,-124.8 1896.74,-124.8"/>
<polygon fill="black" stroke="black" points="1896.74,-121.3 1886.74,-124.8 1896.74,-128.3 1896.74,-121.3"/>
</g>
<!-- InsightsModule -->
<g id="node11" class="node">
<title>InsightsModule</title>
<polygon fill="#8dd3c7" stroke="black" points="2343.89,-84.8 2340.89,-88.8 2319.89,-88.8 2316.89,-84.8 2240.11,-84.8 2240.11,-48.8 2343.89,-48.8 2343.89,-84.8"/>
<text text-anchor="middle" x="2292" y="-62.6" font-family="Times,serif" font-size="14.00">InsightsModule</text>
</g>
<!-- InsightsModule&#45;&gt;AppModule -->
<g id="edge11" class="edge">
<title>InsightsModule&#45;&gt;AppModule</title>
<path fill="none" stroke="black" d="M2292,-84.81C2292,-100.85 2292,-121.8 2292,-121.8 2292,-121.8 1897.05,-121.8 1897.05,-121.8"/>
<polygon fill="black" stroke="black" points="1897.05,-118.3 1887.05,-121.8 1897.05,-125.3 1897.05,-118.3"/>
</g>
<!-- IssueSummaryModule -->
<g id="node12" class="node">
<title>IssueSummaryModule</title>
<polygon fill="#8dd3c7" stroke="black" points="2222.27,-84.8 2219.27,-88.8 2198.27,-88.8 2195.27,-84.8 2079.73,-84.8 2079.73,-48.8 2222.27,-48.8 2222.27,-84.8"/>
<text text-anchor="middle" x="2151" y="-62.6" font-family="Times,serif" font-size="14.00">IssueSummaryModule</text>
</g>
<!-- IssueSummaryModule&#45;&gt;AppModule -->
<g id="edge12" class="edge">
<title>IssueSummaryModule&#45;&gt;AppModule</title>
<path fill="none" stroke="black" d="M2151,-85.04C2151,-100.37 2151,-119.8 2151,-119.8 2151,-119.8 1896.91,-119.8 1896.91,-119.8"/>
<polygon fill="black" stroke="black" points="1896.91,-116.3 1886.91,-119.8 1896.91,-123.3 1896.91,-116.3"/>
</g>
<!-- LogModule -->
<g id="node13" class="node">
<title>LogModule</title>
<polygon fill="#8dd3c7" stroke="black" points="2062.1,-84.8 2059.1,-88.8 2038.1,-88.8 2035.1,-84.8 1979.9,-84.8 1979.9,-48.8 2062.1,-48.8 2062.1,-84.8"/>
<text text-anchor="middle" x="2021" y="-62.6" font-family="Times,serif" font-size="14.00">LogModule</text>
</g>
<!-- LogModule&#45;&gt;AppModule -->
<g id="edge13" class="edge">
<title>LogModule&#45;&gt;AppModule</title>
<path fill="none" stroke="black" d="M2021,-84.85C2021,-99.17 2021,-116.8 2021,-116.8 2021,-116.8 1896.71,-116.8 1896.71,-116.8"/>
<polygon fill="black" stroke="black" points="1896.71,-113.3 1886.71,-116.8 1896.71,-120.3 1896.71,-113.3"/>
</g>
<!-- OpenAiModule -->
<g id="node14" class="node">
<title>OpenAiModule</title>
<polygon fill="#8dd3c7" stroke="black" points="1961.88,-84.8 1958.88,-88.8 1937.88,-88.8 1934.88,-84.8 1858.12,-84.8 1858.12,-48.8 1961.88,-48.8 1961.88,-84.8"/>
<text text-anchor="middle" x="1910" y="-62.6" font-family="Times,serif" font-size="14.00">OpenAiModule</text>
</g>
<!-- OpenAiModule&#45;&gt;AppModule -->
<g id="edge14" class="edge">
<title>OpenAiModule&#45;&gt;AppModule</title>
<path fill="none" stroke="black" d="M1872.45,-84.91C1872.45,-84.91 1872.45,-103.79 1872.45,-103.79"/>
<polygon fill="black" stroke="black" points="1868.95,-103.79 1872.45,-113.79 1875.95,-103.79 1868.95,-103.79"/>
</g>
<!-- PizzaOvenModule -->
<g id="node15" class="node">
<title>PizzaOvenModule</title>
<polygon fill="#8dd3c7" stroke="black" points="1840.19,-84.8 1837.19,-88.8 1816.19,-88.8 1813.19,-84.8 1719.81,-84.8 1719.81,-48.8 1840.19,-48.8 1840.19,-84.8"/>
<text text-anchor="middle" x="1780" y="-62.6" font-family="Times,serif" font-size="14.00">PizzaOvenModule</text>
</g>
<!-- PizzaOvenModule&#45;&gt;AppModule -->
<g id="edge15" class="edge">
<title>PizzaOvenModule&#45;&gt;AppModule</title>
<path fill="none" stroke="black" d="M1821.63,-84.91C1821.63,-84.91 1821.63,-103.79 1821.63,-103.79"/>
<polygon fill="black" stroke="black" points="1818.13,-103.79 1821.63,-113.79 1825.13,-103.79 1818.13,-103.79"/>
</g>
<!-- PullRequestModule -->
<g id="node16" class="node">
<title>PullRequestModule</title>
<polygon fill="#8dd3c7" stroke="black" points="1701.72,-84.8 1698.72,-88.8 1677.72,-88.8 1674.72,-84.8 1574.28,-84.8 1574.28,-48.8 1701.72,-48.8 1701.72,-84.8"/>
<text text-anchor="middle" x="1638" y="-62.6" font-family="Times,serif" font-size="14.00">PullRequestModule</text>
</g>
<!-- PullRequestModule&#45;&gt;AppModule -->
<g id="edge16" class="edge">
<title>PullRequestModule&#45;&gt;AppModule</title>
<path fill="none" stroke="black" d="M1638,-84.85C1638,-99.17 1638,-116.8 1638,-116.8 1638,-116.8 1793.11,-116.8 1793.11,-116.8"/>
<polygon fill="black" stroke="black" points="1793.11,-120.3 1803.11,-116.8 1793.11,-113.3 1793.11,-120.3"/>
</g>
<!-- RepoModule -->
<g id="node17" class="node">
<title>RepoModule</title>
<polygon fill="#8dd3c7" stroke="black" points="1556.6,-84.8 1553.6,-88.8 1532.6,-88.8 1529.6,-84.8 1467.4,-84.8 1467.4,-48.8 1556.6,-48.8 1556.6,-84.8"/>
<text text-anchor="middle" x="1512" y="-62.6" font-family="Times,serif" font-size="14.00">RepoModule</text>
</g>
<!-- RepoModule&#45;&gt;AppModule -->
<g id="edge17" class="edge">
<title>RepoModule&#45;&gt;AppModule</title>
<path fill="none" stroke="black" d="M1512,-85.04C1512,-100.37 1512,-119.8 1512,-119.8 1512,-119.8 1793.16,-119.8 1793.16,-119.8"/>
<polygon fill="black" stroke="black" points="1793.16,-123.3 1803.16,-119.8 1793.16,-116.3 1793.16,-123.3"/>
</g>
<!-- StarModule -->
<g id="node18" class="node">
<title>StarModule</title>
<polygon fill="#8dd3c7" stroke="black" points="1449.1,-84.8 1446.1,-88.8 1425.1,-88.8 1422.1,-84.8 1366.9,-84.8 1366.9,-48.8 1449.1,-48.8 1449.1,-84.8"/>
<text text-anchor="middle" x="1408" y="-62.6" font-family="Times,serif" font-size="14.00">StarModule</text>
</g>
<!-- StarModule&#45;&gt;AppModule -->
<g id="edge18" class="edge">
<title>StarModule&#45;&gt;AppModule</title>
<path fill="none" stroke="black" d="M1408,-84.81C1408,-100.85 1408,-121.8 1408,-121.8 1408,-121.8 1793.1,-121.8 1793.1,-121.8"/>
<polygon fill="black" stroke="black" points="1793.1,-125.3 1803.1,-121.8 1793.1,-118.3 1793.1,-125.3"/>
</g>
<!-- StargazeModule -->
<g id="node19" class="node">
<title>StargazeModule</title>
<polygon fill="#8dd3c7" stroke="black" points="1348.75,-84.8 1345.75,-88.8 1324.75,-88.8 1321.75,-84.8 1241.25,-84.8 1241.25,-48.8 1348.75,-48.8 1348.75,-84.8"/>
<text text-anchor="middle" x="1295" y="-62.6" font-family="Times,serif" font-size="14.00">StargazeModule</text>
</g>
<!-- StargazeModule&#45;&gt;AppModule -->
<g id="edge19" class="edge">
<title>StargazeModule&#45;&gt;AppModule</title>
<path fill="none" stroke="black" d="M1295,-84.83C1295,-101.86 1295,-124.8 1295,-124.8 1295,-124.8 1793.21,-124.8 1793.21,-124.8"/>
<polygon fill="black" stroke="black" points="1793.21,-128.3 1803.21,-124.8 1793.21,-121.3 1793.21,-128.3"/>
</g>
<!-- StripeSubscriptionModule -->
<g id="node20" class="node">
<title>StripeSubscriptionModule</title>
<polygon fill="#8dd3c7" stroke="black" points="1222.77,-84.8 1219.77,-88.8 1198.77,-88.8 1195.77,-84.8 1059.23,-84.8 1059.23,-48.8 1222.77,-48.8 1222.77,-84.8"/>
<text text-anchor="middle" x="1141" y="-62.6" font-family="Times,serif" font-size="14.00">StripeSubscriptionModule</text>
</g>
<!-- StripeSubscriptionModule&#45;&gt;AppModule -->
<g id="edge20" class="edge">
<title>StripeSubscriptionModule&#45;&gt;AppModule</title>
<path fill="none" stroke="black" d="M1141,-84.8C1141,-102.48 1141,-126.8 1141,-126.8 1141,-126.8 1793.33,-126.8 1793.33,-126.8"/>
<polygon fill="black" stroke="black" points="1793.33,-130.3 1803.33,-126.8 1793.33,-123.3 1793.33,-130.3"/>
</g>
<!-- StripeWebHookModule -->
<g id="node21" class="node">
<title>StripeWebHookModule</title>
<polygon fill="#8dd3c7" stroke="black" points="1041.03,-84.8 1038.03,-88.8 1017.03,-88.8 1014.03,-84.8 890.97,-84.8 890.97,-48.8 1041.03,-48.8 1041.03,-84.8"/>
<text text-anchor="middle" x="966" y="-62.6" font-family="Times,serif" font-size="14.00">StripeWebHookModule</text>
</g>
<!-- StripeWebHookModule&#45;&gt;AppModule -->
<g id="edge21" class="edge">
<title>StripeWebHookModule&#45;&gt;AppModule</title>
<path fill="none" stroke="black" d="M966,-85.02C966,-103.63 966,-129.8 966,-129.8 966,-129.8 1793.2,-129.8 1793.2,-129.8"/>
<polygon fill="black" stroke="black" points="1793.2,-133.3 1803.2,-129.8 1793.2,-126.3 1793.2,-133.3"/>
</g>
<!-- SubmitModule -->
<g id="node22" class="node">
<title>SubmitModule</title>
<polygon fill="#8dd3c7" stroke="black" points="873.01,-84.8 870.01,-88.8 849.01,-88.8 846.01,-84.8 772.99,-84.8 772.99,-48.8 873.01,-48.8 873.01,-84.8"/>
<text text-anchor="middle" x="823" y="-62.6" font-family="Times,serif" font-size="14.00">SubmitModule</text>
</g>
<!-- SubmitModule&#45;&gt;AppModule -->
<g id="edge22" class="edge">
<title>SubmitModule&#45;&gt;AppModule</title>
<path fill="none" stroke="black" d="M823,-84.91C823,-104.14 823,-131.8 823,-131.8 823,-131.8 1793.03,-131.8 1793.03,-131.8"/>
<polygon fill="black" stroke="black" points="1793.03,-135.3 1803.03,-131.8 1793.03,-128.3 1793.03,-135.3"/>
</g>
<!-- TimescaleModule -->
<g id="node23" class="node">
<title>TimescaleModule</title>
<polygon fill="#8dd3c7" stroke="black" points="754.58,-84.8 751.58,-88.8 730.58,-88.8 727.58,-84.8 637.42,-84.8 637.42,-48.8 754.58,-48.8 754.58,-84.8"/>
<text text-anchor="middle" x="696" y="-62.6" font-family="Times,serif" font-size="14.00">TimescaleModule</text>
</g>
<!-- TimescaleModule&#45;&gt;AppModule -->
<g id="edge23" class="edge">
<title>TimescaleModule&#45;&gt;AppModule</title>
<path fill="none" stroke="black" d="M696,-85.02C696,-105.17 696,-134.8 696,-134.8 696,-134.8 1793.09,-134.8 1793.09,-134.8"/>
<polygon fill="black" stroke="black" points="1793.09,-138.3 1803.09,-134.8 1793.09,-131.3 1793.09,-138.3"/>
</g>
<!-- UserListModule -->
<g id="node24" class="node">
<title>UserListModule</title>
<polygon fill="#8dd3c7" stroke="black" points="619.77,-84.8 616.77,-88.8 595.77,-88.8 592.77,-84.8 512.23,-84.8 512.23,-48.8 619.77,-48.8 619.77,-84.8"/>
<text text-anchor="middle" x="566" y="-62.6" font-family="Times,serif" font-size="14.00">UserListModule</text>
</g>
<!-- UserListModule&#45;&gt;AppModule -->
<g id="edge24" class="edge">
<title>UserListModule&#45;&gt;AppModule</title>
<path fill="none" stroke="black" d="M566,-85.08C566,-106.12 566,-137.8 566,-137.8 566,-137.8 1793.17,-137.8 1793.17,-137.8"/>
<polygon fill="black" stroke="black" points="1793.17,-141.3 1803.17,-137.8 1793.17,-134.3 1793.17,-141.3"/>
</g>
<!-- UserModule -->
<g id="node25" class="node">
<title>UserModule</title>
<polygon fill="#8dd3c7" stroke="black" points="493.99,-84.8 490.99,-88.8 469.99,-88.8 466.99,-84.8 408.01,-84.8 408.01,-48.8 493.99,-48.8 493.99,-84.8"/>
<text text-anchor="middle" x="451" y="-62.6" font-family="Times,serif" font-size="14.00">UserModule</text>
</g>
<!-- UserModule&#45;&gt;AppModule -->
<g id="edge25" class="edge">
<title>UserModule&#45;&gt;AppModule</title>
<path fill="none" stroke="black" d="M451,-84.84C451,-106.46 451,-139.8 451,-139.8 451,-139.8 1793.28,-139.8 1793.28,-139.8"/>
<polygon fill="black" stroke="black" points="1793.28,-143.3 1803.28,-139.8 1793.28,-136.3 1793.28,-143.3"/>
</g>
<!-- UserReposModule -->
<g id="node26" class="node">
<title>UserReposModule</title>
<polygon fill="#8dd3c7" stroke="black" points="390.49,-84.8 387.49,-88.8 366.49,-88.8 363.49,-84.8 269.51,-84.8 269.51,-48.8 390.49,-48.8 390.49,-84.8"/>
<text text-anchor="middle" x="330" y="-62.6" font-family="Times,serif" font-size="14.00">UserReposModule</text>
</g>
<!-- UserReposModule&#45;&gt;AppModule -->
<g id="edge26" class="edge">
<title>UserReposModule&#45;&gt;AppModule</title>
<path fill="none" stroke="black" d="M330,-84.81C330,-107.29 330,-142.8 330,-142.8 330,-142.8 1793.3,-142.8 1793.3,-142.8"/>
<polygon fill="black" stroke="black" points="1793.3,-146.3 1803.3,-142.8 1793.3,-139.3 1793.3,-146.3"/>
</g>
<!-- VoteModule -->
<g id="node27" class="node">
<title>VoteModule</title>
<polygon fill="#8dd3c7" stroke="black" points="251.27,-84.8 248.27,-88.8 227.27,-88.8 224.27,-84.8 164.73,-84.8 164.73,-48.8 251.27,-48.8 251.27,-84.8"/>
<text text-anchor="middle" x="208" y="-62.6" font-family="Times,serif" font-size="14.00">VoteModule</text>
</g>
<!-- VoteModule&#45;&gt;AppModule -->
<g id="edge27" class="edge">
<title>VoteModule&#45;&gt;AppModule</title>
<path fill="none" stroke="black" d="M208,-84.89C208,-107.93 208,-144.8 208,-144.8 208,-144.8 1793.3,-144.8 1793.3,-144.8"/>
<polygon fill="black" stroke="black" points="1793.3,-148.3 1803.3,-144.8 1793.3,-141.3 1793.3,-148.3"/>
</g>
<!-- WorkspaceModule -->
<g id="node28" class="node">
<title>WorkspaceModule</title>
<polygon fill="#8dd3c7" stroke="black" points="146.02,-84.8 143.02,-88.8 122.02,-88.8 119.02,-84.8 23.98,-84.8 23.98,-48.8 146.02,-48.8 146.02,-84.8"/>
<text text-anchor="middle" x="85" y="-62.6" font-family="Times,serif" font-size="14.00">WorkspaceModule</text>
</g>
<!-- WorkspaceModule&#45;&gt;AppModule -->
<g id="edge28" class="edge">
<title>WorkspaceModule&#45;&gt;AppModule</title>
<path fill="none" stroke="black" d="M85,-85.18C85,-109.08 85,-147.8 85,-147.8 85,-147.8 1793.23,-147.8 1793.23,-147.8"/>
<polygon fill="black" stroke="black" points="1793.23,-151.3 1803.23,-147.8 1793.23,-144.3 1793.23,-151.3"/>
</g>
</g>
</svg>
