<?xml version="1.0" encoding="UTF-8" standalone="no"?>
<!DOCTYPE svg PUBLIC "-//W3C//DTD SVG 1.1//EN"
 "http://www.w3.org/Graphics/SVG/1.1/DTD/svg11.dtd">
<!-- Generated by graphviz version 3.0.0 (20220226.1711)
 -->
<!-- Title: dependencies Pages: 1 -->
<svg width="470pt" height="174pt"
 viewBox="0.00 0.00 470.00 173.80" xmlns="http://www.w3.org/2000/svg" xmlns:xlink="http://www.w3.org/1999/xlink">
<g id="graph0" class="graph" transform="scale(1 1) rotate(0) translate(4 169.8)">
<title>dependencies</title>
<polygon fill="white" stroke="transparent" points="-4,4 -4,-169.8 466,-169.8 466,4 -4,4"/>
<text text-anchor="middle" x="231" y="-8.2" font-family="sans-serif" font-size="14.00">dependencies</text>
<g id="clust1" class="cluster">
<title>cluster_AppModule</title>
<polygon fill="none" stroke="black" stroke-dasharray="1,5" points="8,-32.8 8,-157.8 454,-157.8 454,-32.8 8,-32.8"/>
</g>
<g id="clust3" class="cluster">
<title>cluster_AppModule_imports</title>
<polygon fill="none" stroke="black" points="16,-40.8 16,-92.8 446,-92.8 446,-40.8 16,-40.8"/>
</g>
<!-- AuthModule -->
<g id="node1" class="node">
<title>AuthModule</title>
<polygon fill="#8dd3c7" stroke="black" points="437.55,-84.8 434.55,-88.8 413.55,-88.8 410.55,-84.8 350.45,-84.8 350.45,-48.8 437.55,-48.8 437.55,-84.8"/>
<text text-anchor="middle" x="394" y="-62.6" font-family="Times,serif" font-size="14.00">AuthModule</text>
</g>
<!-- AppModule -->
<g id="node5" class="node">
<title>AppModule</title>
<polygon fill="#8dd3c7" stroke="black" points="269.66,-149.8 266.66,-153.8 245.66,-153.8 242.66,-149.8 186.34,-149.8 186.34,-113.8 269.66,-113.8 269.66,-149.8"/>
<text text-anchor="middle" x="228" y="-127.6" font-family="Times,serif" font-size="14.00">AppModule</text>
</g>
<!-- AuthModule&#45;&gt;AppModule -->
<g id="edge1" class="edge">
<title>AuthModule&#45;&gt;AppModule</title>
<path fill="none" stroke="black" d="M394,-84.91C394,-104.14 394,-131.8 394,-131.8 394,-131.8 279.89,-131.8 279.89,-131.8"/>
<polygon fill="black" stroke="black" points="279.89,-128.3 269.89,-131.8 279.89,-135.3 279.89,-128.3"/>
</g>
<!-- HealthModule -->
<g id="node2" class="node">
<title>HealthModule</title>
<polygon fill="#8dd3c7" stroke="black" points="332.37,-84.8 329.37,-88.8 308.37,-88.8 305.37,-84.8 235.63,-84.8 235.63,-48.8 332.37,-48.8 332.37,-84.8"/>
<text text-anchor="middle" x="284" y="-62.6" font-family="Times,serif" font-size="14.00">HealthModule</text>
</g>
<!-- HealthModule&#45;&gt;AppModule -->
<g id="edge2" class="edge">
<title>HealthModule&#45;&gt;AppModule</title>
<path fill="none" stroke="black" d="M252.7,-84.91C252.7,-84.91 252.7,-103.79 252.7,-103.79"/>
<polygon fill="black" stroke="black" points="249.2,-103.79 252.7,-113.79 256.2,-103.79 249.2,-103.79"/>
</g>
<!-- RepoModule -->
<g id="node3" class="node">
<title>RepoModule</title>
<polygon fill="#8dd3c7" stroke="black" points="217.6,-84.8 214.6,-88.8 193.6,-88.8 190.6,-84.8 128.4,-84.8 128.4,-48.8 217.6,-48.8 217.6,-84.8"/>
<text text-anchor="middle" x="173" y="-62.6" font-family="Times,serif" font-size="14.00">RepoModule</text>
</g>
<!-- RepoModule&#45;&gt;AppModule -->
<g id="edge3" class="edge">
<title>RepoModule&#45;&gt;AppModule</title>
<path fill="none" stroke="black" d="M201.86,-84.91C201.86,-84.91 201.86,-103.79 201.86,-103.79"/>
<polygon fill="black" stroke="black" points="198.36,-103.79 201.86,-113.79 205.36,-103.79 198.36,-103.79"/>
</g>
<!-- VoteModule -->
<g id="node4" class="node">
<title>VoteModule</title>
<polygon fill="#8dd3c7" stroke="black" points="110.27,-84.8 107.27,-88.8 86.27,-88.8 83.27,-84.8 23.73,-84.8 23.73,-48.8 110.27,-48.8 110.27,-84.8"/>
<text text-anchor="middle" x="67" y="-62.6" font-family="Times,serif" font-size="14.00">VoteModule</text>
</g>
<!-- VoteModule&#45;&gt;AppModule -->
<g id="edge4" class="edge">
<title>VoteModule&#45;&gt;AppModule</title>
<path fill="none" stroke="black" d="M67,-84.91C67,-104.14 67,-131.8 67,-131.8 67,-131.8 176.12,-131.8 176.12,-131.8"/>
<polygon fill="black" stroke="black" points="176.12,-135.3 186.12,-131.8 176.12,-128.3 176.12,-135.3"/>
</g>
</g>
</svg>
