<?xml version="1.0" encoding="UTF-8" standalone="no"?>
<!DOCTYPE svg PUBLIC "-//W3C//DTD SVG 1.1//EN"
 "http://www.w3.org/Graphics/SVG/1.1/DTD/svg11.dtd">
<!-- Generated by graphviz version 3.0.0 (20220226.1711)
 -->
<!-- Title: dependencies Pages: 1 -->
<svg width="696pt" height="174pt"
 viewBox="0.00 0.00 696.00 173.80" xmlns="http://www.w3.org/2000/svg" xmlns:xlink="http://www.w3.org/1999/xlink">
<g id="graph0" class="graph" transform="scale(1 1) rotate(0) translate(4 169.8)">
<title>dependencies</title>
<polygon fill="white" stroke="transparent" points="-4,4 -4,-169.8 692,-169.8 692,4 -4,4"/>
<text text-anchor="middle" x="344" y="-8.2" font-family="sans-serif" font-size="14.00">dependencies</text>
<g id="clust1" class="cluster">
<title>cluster_AppModule</title>
<polygon fill="none" stroke="black" stroke-dasharray="1,5" points="8,-32.8 8,-157.8 680,-157.8 680,-32.8 8,-32.8"/>
</g>
<g id="clust3" class="cluster">
<title>cluster_AppModule_imports</title>
<polygon fill="none" stroke="black" points="16,-40.8 16,-92.8 672,-92.8 672,-40.8 16,-40.8"/>
</g>
<!-- AuthModule -->
<g id="node1" class="node">
<title>AuthModule</title>
<polygon fill="#8dd3c7" stroke="black" points="663.55,-84.8 660.55,-88.8 639.55,-88.8 636.55,-84.8 576.45,-84.8 576.45,-48.8 663.55,-48.8 663.55,-84.8"/>
<text text-anchor="middle" x="620" y="-62.6" font-family="Times,serif" font-size="14.00">AuthModule</text>
</g>
<!-- AppModule -->
<g id="node7" class="node">
<title>AppModule</title>
<polygon fill="#8dd3c7" stroke="black" points="388.66,-149.8 385.66,-153.8 364.66,-153.8 361.66,-149.8 305.34,-149.8 305.34,-113.8 388.66,-113.8 388.66,-149.8"/>
<text text-anchor="middle" x="347" y="-127.6" font-family="Times,serif" font-size="14.00">AppModule</text>
</g>
<!-- AuthModule&#45;&gt;AppModule -->
<g id="edge1" class="edge">
<title>AuthModule&#45;&gt;AppModule</title>
<path fill="none" stroke="black" d="M620,-85.08C620,-106.12 620,-137.8 620,-137.8 620,-137.8 398.76,-137.8 398.76,-137.8"/>
<polygon fill="black" stroke="black" points="398.76,-134.3 388.76,-137.8 398.76,-141.3 398.76,-134.3"/>
</g>
<!-- HealthModule -->
<g id="node2" class="node">
<title>HealthModule</title>
<polygon fill="#8dd3c7" stroke="black" points="558.37,-84.8 555.37,-88.8 534.37,-88.8 531.37,-84.8 461.63,-84.8 461.63,-48.8 558.37,-48.8 558.37,-84.8"/>
<text text-anchor="middle" x="510" y="-62.6" font-family="Times,serif" font-size="14.00">HealthModule</text>
</g>
<!-- HealthModule&#45;&gt;AppModule -->
<g id="edge2" class="edge">
<title>HealthModule&#45;&gt;AppModule</title>
<path fill="none" stroke="black" d="M510,-84.82C510,-102.17 510,-125.8 510,-125.8 510,-125.8 398.98,-125.8 398.98,-125.8"/>
<polygon fill="black" stroke="black" points="398.98,-122.3 388.98,-125.8 398.98,-129.3 398.98,-122.3"/>
</g>
<!-- RepoModule -->
<g id="node3" class="node">
<title>RepoModule</title>
<polygon fill="#8dd3c7" stroke="black" points="443.6,-84.8 440.6,-88.8 419.6,-88.8 416.6,-84.8 354.4,-84.8 354.4,-48.8 443.6,-48.8 443.6,-84.8"/>
<text text-anchor="middle" x="399" y="-62.6" font-family="Times,serif" font-size="14.00">RepoModule</text>
</g>
<!-- RepoModule&#45;&gt;AppModule -->
<g id="edge3" class="edge">
<title>RepoModule&#45;&gt;AppModule</title>
<path fill="none" stroke="black" d="M371.64,-84.91C371.64,-84.91 371.64,-103.79 371.64,-103.79"/>
<polygon fill="black" stroke="black" points="368.14,-103.79 371.64,-113.79 375.14,-103.79 368.14,-103.79"/>
</g>
<!-- StarModule -->
<g id="node4" class="node">
<title>StarModule</title>
<polygon fill="#8dd3c7" stroke="black" points="336.1,-84.8 333.1,-88.8 312.1,-88.8 309.1,-84.8 253.9,-84.8 253.9,-48.8 336.1,-48.8 336.1,-84.8"/>
<text text-anchor="middle" x="295" y="-62.6" font-family="Times,serif" font-size="14.00">StarModule</text>
</g>
<!-- StarModule&#45;&gt;AppModule -->
<g id="edge4" class="edge">
<title>StarModule&#45;&gt;AppModule</title>
<path fill="none" stroke="black" d="M320.61,-84.91C320.61,-84.91 320.61,-103.79 320.61,-103.79"/>
<polygon fill="black" stroke="black" points="317.11,-103.79 320.61,-113.79 324.11,-103.79 317.11,-103.79"/>
</g>
<!-- StargazeModule -->
<g id="node5" class="node">
<title>StargazeModule</title>
<polygon fill="#8dd3c7" stroke="black" points="235.75,-84.8 232.75,-88.8 211.75,-88.8 208.75,-84.8 128.25,-84.8 128.25,-48.8 235.75,-48.8 235.75,-84.8"/>
<text text-anchor="middle" x="182" y="-62.6" font-family="Times,serif" font-size="14.00">StargazeModule</text>
</g>
<!-- StargazeModule&#45;&gt;AppModule -->
<g id="edge5" class="edge">
<title>StargazeModule&#45;&gt;AppModule</title>
<path fill="none" stroke="black" d="M182,-84.82C182,-102.17 182,-125.8 182,-125.8 182,-125.8 294.94,-125.8 294.94,-125.8"/>
<polygon fill="black" stroke="black" points="294.94,-129.3 304.94,-125.8 294.94,-122.3 294.94,-129.3"/>
</g>
<!-- VoteModule -->
<g id="node6" class="node">
<title>VoteModule</title>
<polygon fill="#8dd3c7" stroke="black" points="110.27,-84.8 107.27,-88.8 86.27,-88.8 83.27,-84.8 23.73,-84.8 23.73,-48.8 110.27,-48.8 110.27,-84.8"/>
<text text-anchor="middle" x="67" y="-62.6" font-family="Times,serif" font-size="14.00">VoteModule</text>
</g>
<!-- VoteModule&#45;&gt;AppModule -->
<g id="edge6" class="edge">
<title>VoteModule&#45;&gt;AppModule</title>
<path fill="none" stroke="black" d="M67,-85.08C67,-106.12 67,-137.8 67,-137.8 67,-137.8 295.08,-137.8 295.08,-137.8"/>
<polygon fill="black" stroke="black" points="295.08,-141.3 305.08,-137.8 295.08,-134.3 295.08,-141.3"/>
</g>
</g>
</svg>
