<?xml version="1.0" encoding="UTF-8" standalone="no"?>
<!DOCTYPE svg PUBLIC "-//W3C//DTD SVG 1.1//EN"
 "http://www.w3.org/Graphics/SVG/1.1/DTD/svg11.dtd">
<!-- Generated by graphviz version 3.0.0 (20220226.1711)
 -->
<!-- Title: dependencies Pages: 1 -->
<svg width="2199pt" height="174pt"
 viewBox="0.00 0.00 2199.00 173.80" xmlns="http://www.w3.org/2000/svg" xmlns:xlink="http://www.w3.org/1999/xlink">
<g id="graph0" class="graph" transform="scale(1 1) rotate(0) translate(4 169.8)">
<title>dependencies</title>
<polygon fill="white" stroke="transparent" points="-4,4 -4,-169.8 2195,-169.8 2195,4 -4,4"/>
<text text-anchor="middle" x="1095.5" y="-8.2" font-family="sans-serif" font-size="14.00">dependencies</text>
<g id="clust1" class="cluster">
<title>cluster_AppModule</title>
<polygon fill="none" stroke="black" stroke-dasharray="1,5" points="8,-32.8 8,-157.8 2183,-157.8 2183,-32.8 8,-32.8"/>
</g>
<g id="clust3" class="cluster">
<title>cluster_AppModule_imports</title>
<polygon fill="none" stroke="black" points="16,-40.8 16,-92.8 2175,-92.8 2175,-40.8 16,-40.8"/>
</g>
<!-- AuthModule -->
<g id="node1" class="node">
<title>AuthModule</title>
<polygon fill="#8dd3c7" stroke="black" points="2166.55,-84.8 2163.55,-88.8 2142.55,-88.8 2139.55,-84.8 2079.45,-84.8 2079.45,-48.8 2166.55,-48.8 2166.55,-84.8"/>
<text text-anchor="middle" x="2123" y="-62.6" font-family="Times,serif" font-size="14.00">AuthModule</text>
</g>
<!-- AppModule -->
<g id="node18" class="node">
<title>AppModule</title>
<polygon fill="#8dd3c7" stroke="black" points="1151.66,-149.8 1148.66,-153.8 1127.66,-153.8 1124.66,-149.8 1068.34,-149.8 1068.34,-113.8 1151.66,-113.8 1151.66,-149.8"/>
<text text-anchor="middle" x="1110" y="-127.6" font-family="Times,serif" font-size="14.00">AppModule</text>
</g>
<!-- AuthModule&#45;&gt;AppModule -->
<g id="edge1" class="edge">
<title>AuthModule&#45;&gt;AppModule</title>
<path fill="none" stroke="black" d="M2123,-85.12C2123,-108.46 2123,-145.8 2123,-145.8 2123,-145.8 1161.92,-145.8 1161.92,-145.8"/>
<polygon fill="black" stroke="black" points="1161.92,-142.3 1151.92,-145.8 1161.92,-149.3 1161.92,-142.3"/>
</g>
<!-- ContributionModule -->
<g id="node2" class="node">
<title>ContributionModule</title>
<polygon fill="#8dd3c7" stroke="black" points="2061.61,-84.8 2058.61,-88.8 2037.61,-88.8 2034.61,-84.8 1930.39,-84.8 1930.39,-48.8 2061.61,-48.8 2061.61,-84.8"/>
<text text-anchor="middle" x="1996" y="-62.6" font-family="Times,serif" font-size="14.00">ContributionModule</text>
</g>
<!-- ContributionModule&#45;&gt;AppModule -->
<g id="edge2" class="edge">
<title>ContributionModule&#45;&gt;AppModule</title>
<path fill="none" stroke="black" d="M1996,-84.96C1996,-107.15 1996,-141.8 1996,-141.8 1996,-141.8 1161.84,-141.8 1161.84,-141.8"/>
<polygon fill="black" stroke="black" points="1161.84,-138.3 1151.84,-141.8 1161.84,-145.3 1161.84,-138.3"/>
</g>
<!-- CustomerModule -->
<g id="node3" class="node">
<title>CustomerModule</title>
<polygon fill="#8dd3c7" stroke="black" points="1911.99,-84.8 1908.99,-88.8 1887.99,-88.8 1884.99,-84.8 1798.01,-84.8 1798.01,-48.8 1911.99,-48.8 1911.99,-84.8"/>
<text text-anchor="middle" x="1855" y="-62.6" font-family="Times,serif" font-size="14.00">CustomerModule</text>
</g>
<!-- CustomerModule&#45;&gt;AppModule -->
<g id="edge3" class="edge">
<title>CustomerModule&#45;&gt;AppModule</title>
<path fill="none" stroke="black" d="M1855,-85.08C1855,-106.12 1855,-137.8 1855,-137.8 1855,-137.8 1161.92,-137.8 1161.92,-137.8"/>
<polygon fill="black" stroke="black" points="1161.92,-134.3 1151.92,-137.8 1161.92,-141.3 1161.92,-134.3"/>
</g>
<!-- EmojiModule -->
<g id="node4" class="node">
<title>EmojiModule</title>
<polygon fill="#8dd3c7" stroke="black" points="1779.77,-84.8 1776.77,-88.8 1755.77,-88.8 1752.77,-84.8 1686.23,-84.8 1686.23,-48.8 1779.77,-48.8 1779.77,-84.8"/>
<text text-anchor="middle" x="1733" y="-62.6" font-family="Times,serif" font-size="14.00">EmojiModule</text>
</g>
<!-- EmojiModule&#45;&gt;AppModule -->
<g id="edge4" class="edge">
<title>EmojiModule&#45;&gt;AppModule</title>
<path fill="none" stroke="black" d="M1733,-85.11C1733,-104.95 1733,-133.8 1733,-133.8 1733,-133.8 1161.84,-133.8 1161.84,-133.8"/>
<polygon fill="black" stroke="black" points="1161.84,-130.3 1151.84,-133.8 1161.84,-137.3 1161.84,-130.3"/>
</g>
<!-- HealthModule -->
<g id="node5" class="node">
<title>HealthModule</title>
<polygon fill="#8dd3c7" stroke="black" points="1668.37,-84.8 1665.37,-88.8 1644.37,-88.8 1641.37,-84.8 1571.63,-84.8 1571.63,-48.8 1668.37,-48.8 1668.37,-84.8"/>
<text text-anchor="middle" x="1620" y="-62.6" font-family="Times,serif" font-size="14.00">HealthModule</text>
</g>
<!-- HealthModule&#45;&gt;AppModule -->
<g id="edge5" class="edge">
<title>HealthModule&#45;&gt;AppModule</title>
<path fill="none" stroke="black" d="M1620,-85.02C1620,-103.63 1620,-129.8 1620,-129.8 1620,-129.8 1161.74,-129.8 1161.74,-129.8"/>
<polygon fill="black" stroke="black" points="1161.74,-126.3 1151.74,-129.8 1161.74,-133.3 1161.74,-126.3"/>
</g>
<!-- HighlightModule -->
<g id="node6" class="node">
<title>HighlightModule</title>
<polygon fill="#8dd3c7" stroke="black" points="1553.72,-84.8 1550.72,-88.8 1529.72,-88.8 1526.72,-84.8 1440.28,-84.8 1440.28,-48.8 1553.72,-48.8 1553.72,-84.8"/>
<text text-anchor="middle" x="1497" y="-62.6" font-family="Times,serif" font-size="14.00">HighlightModule</text>
</g>
<!-- HighlightModule&#45;&gt;AppModule -->
<g id="edge6" class="edge">
<title>HighlightModule&#45;&gt;AppModule</title>
<path fill="none" stroke="black" d="M1497,-84.82C1497,-102.17 1497,-125.8 1497,-125.8 1497,-125.8 1161.78,-125.8 1161.78,-125.8"/>
<polygon fill="black" stroke="black" points="1161.78,-122.3 1151.78,-125.8 1161.78,-129.3 1161.78,-122.3"/>
</g>
<!-- InsightsModule -->
<g id="node7" class="node">
<title>InsightsModule</title>
<polygon fill="#8dd3c7" stroke="black" points="1421.89,-84.8 1418.89,-88.8 1397.89,-88.8 1394.89,-84.8 1318.11,-84.8 1318.11,-48.8 1421.89,-48.8 1421.89,-84.8"/>
<text text-anchor="middle" x="1370" y="-62.6" font-family="Times,serif" font-size="14.00">InsightsModule</text>
</g>
<!-- InsightsModule&#45;&gt;AppModule -->
<g id="edge7" class="edge">
<title>InsightsModule&#45;&gt;AppModule</title>
<path fill="none" stroke="black" d="M1370,-84.81C1370,-100.85 1370,-121.8 1370,-121.8 1370,-121.8 1161.77,-121.8 1161.77,-121.8"/>
<polygon fill="black" stroke="black" points="1161.77,-118.3 1151.77,-121.8 1161.77,-125.3 1161.77,-118.3"/>
</g>
<!-- PullRequestModule -->
<g id="node8" class="node">
<title>PullRequestModule</title>
<polygon fill="#8dd3c7" stroke="black" points="1299.72,-84.8 1296.72,-88.8 1275.72,-88.8 1272.72,-84.8 1172.28,-84.8 1172.28,-48.8 1299.72,-48.8 1299.72,-84.8"/>
<text text-anchor="middle" x="1236" y="-62.6" font-family="Times,serif" font-size="14.00">PullRequestModule</text>
</g>
<!-- PullRequestModule&#45;&gt;AppModule -->
<g id="edge8" class="edge">
<title>PullRequestModule&#45;&gt;AppModule</title>
<path fill="none" stroke="black" d="M1236,-84.92C1236,-99.58 1236,-117.8 1236,-117.8 1236,-117.8 1161.96,-117.8 1161.96,-117.8"/>
<polygon fill="black" stroke="black" points="1161.96,-114.3 1151.96,-117.8 1161.96,-121.3 1161.96,-114.3"/>
</g>
<!-- RepoModule -->
<g id="node9" class="node">
<title>RepoModule</title>
<polygon fill="#8dd3c7" stroke="black" points="1154.6,-84.8 1151.6,-88.8 1130.6,-88.8 1127.6,-84.8 1065.4,-84.8 1065.4,-48.8 1154.6,-48.8 1154.6,-84.8"/>
<text text-anchor="middle" x="1110" y="-62.6" font-family="Times,serif" font-size="14.00">RepoModule</text>
</g>
<!-- RepoModule&#45;&gt;AppModule -->
<g id="edge9" class="edge">
<title>RepoModule&#45;&gt;AppModule</title>
<path fill="none" stroke="black" d="M1110,-84.91C1110,-84.91 1110,-103.79 1110,-103.79"/>
<polygon fill="black" stroke="black" points="1106.5,-103.79 1110,-113.79 1113.5,-103.79 1106.5,-103.79"/>
</g>
<!-- StarModule -->
<g id="node10" class="node">
<title>StarModule</title>
<polygon fill="#8dd3c7" stroke="black" points="1047.1,-84.8 1044.1,-88.8 1023.1,-88.8 1020.1,-84.8 964.9,-84.8 964.9,-48.8 1047.1,-48.8 1047.1,-84.8"/>
<text text-anchor="middle" x="1006" y="-62.6" font-family="Times,serif" font-size="14.00">StarModule</text>
</g>
<!-- StarModule&#45;&gt;AppModule -->
<g id="edge10" class="edge">
<title>StarModule&#45;&gt;AppModule</title>
<path fill="none" stroke="black" d="M1006,-84.92C1006,-99.58 1006,-117.8 1006,-117.8 1006,-117.8 1058.3,-117.8 1058.3,-117.8"/>
<polygon fill="black" stroke="black" points="1058.3,-121.3 1068.3,-117.8 1058.3,-114.3 1058.3,-121.3"/>
</g>
<!-- StargazeModule -->
<g id="node11" class="node">
<title>StargazeModule</title>
<polygon fill="#8dd3c7" stroke="black" points="946.75,-84.8 943.75,-88.8 922.75,-88.8 919.75,-84.8 839.25,-84.8 839.25,-48.8 946.75,-48.8 946.75,-84.8"/>
<text text-anchor="middle" x="893" y="-62.6" font-family="Times,serif" font-size="14.00">StargazeModule</text>
</g>
<!-- StargazeModule&#45;&gt;AppModule -->
<g id="edge11" class="edge">
<title>StargazeModule&#45;&gt;AppModule</title>
<path fill="none" stroke="black" d="M893,-84.81C893,-100.85 893,-121.8 893,-121.8 893,-121.8 1058.16,-121.8 1058.16,-121.8"/>
<polygon fill="black" stroke="black" points="1058.16,-125.3 1068.16,-121.8 1058.16,-118.3 1058.16,-125.3"/>
</g>
<!-- StripeSubscriptionModule -->
<g id="node12" class="node">
<title>StripeSubscriptionModule</title>
<polygon fill="#8dd3c7" stroke="black" points="820.77,-84.8 817.77,-88.8 796.77,-88.8 793.77,-84.8 657.23,-84.8 657.23,-48.8 820.77,-48.8 820.77,-84.8"/>
<text text-anchor="middle" x="739" y="-62.6" font-family="Times,serif" font-size="14.00">StripeSubscriptionModule</text>
</g>
<!-- StripeSubscriptionModule&#45;&gt;AppModule -->
<g id="edge12" class="edge">
<title>StripeSubscriptionModule&#45;&gt;AppModule</title>
<path fill="none" stroke="black" d="M739,-84.82C739,-102.17 739,-125.8 739,-125.8 739,-125.8 1058.16,-125.8 1058.16,-125.8"/>
<polygon fill="black" stroke="black" points="1058.16,-129.3 1068.16,-125.8 1058.16,-122.3 1058.16,-129.3"/>
</g>
<!-- StripeWebHookModule -->
<g id="node13" class="node">
<title>StripeWebHookModule</title>
<polygon fill="#8dd3c7" stroke="black" points="639.03,-84.8 636.03,-88.8 615.03,-88.8 612.03,-84.8 488.97,-84.8 488.97,-48.8 639.03,-48.8 639.03,-84.8"/>
<text text-anchor="middle" x="564" y="-62.6" font-family="Times,serif" font-size="14.00">StripeWebHookModule</text>
</g>
<!-- StripeWebHookModule&#45;&gt;AppModule -->
<g id="edge13" class="edge">
<title>StripeWebHookModule&#45;&gt;AppModule</title>
<path fill="none" stroke="black" d="M564,-85.02C564,-103.63 564,-129.8 564,-129.8 564,-129.8 1058.06,-129.8 1058.06,-129.8"/>
<polygon fill="black" stroke="black" points="1058.06,-133.3 1068.06,-129.8 1058.06,-126.3 1058.06,-133.3"/>
</g>
<!-- SubmitModule -->
<g id="node14" class="node">
<title>SubmitModule</title>
<polygon fill="#8dd3c7" stroke="black" points="471.01,-84.8 468.01,-88.8 447.01,-88.8 444.01,-84.8 370.99,-84.8 370.99,-48.8 471.01,-48.8 471.01,-84.8"/>
<text text-anchor="middle" x="421" y="-62.6" font-family="Times,serif" font-size="14.00">SubmitModule</text>
</g>
<!-- SubmitModule&#45;&gt;AppModule -->
<g id="edge14" class="edge">
<title>SubmitModule&#45;&gt;AppModule</title>
<path fill="none" stroke="black" d="M421,-85.11C421,-104.95 421,-133.8 421,-133.8 421,-133.8 1058.19,-133.8 1058.19,-133.8"/>
<polygon fill="black" stroke="black" points="1058.19,-137.3 1068.19,-133.8 1058.19,-130.3 1058.19,-137.3"/>
</g>
<!-- UserModule -->
<g id="node15" class="node">
<title>UserModule</title>
<polygon fill="#8dd3c7" stroke="black" points="352.99,-84.8 349.99,-88.8 328.99,-88.8 325.99,-84.8 267.01,-84.8 267.01,-48.8 352.99,-48.8 352.99,-84.8"/>
<text text-anchor="middle" x="310" y="-62.6" font-family="Times,serif" font-size="14.00">UserModule</text>
</g>
<!-- UserModule&#45;&gt;AppModule -->
<g id="edge15" class="edge">
<title>UserModule&#45;&gt;AppModule</title>
<path fill="none" stroke="black" d="M310,-85.08C310,-106.12 310,-137.8 310,-137.8 310,-137.8 1058.11,-137.8 1058.11,-137.8"/>
<polygon fill="black" stroke="black" points="1058.11,-141.3 1068.11,-137.8 1058.11,-134.3 1058.11,-141.3"/>
</g>
<!-- UserReposModule -->
<g id="node16" class="node">
<title>UserReposModule</title>
<polygon fill="#8dd3c7" stroke="black" points="249.49,-84.8 246.49,-88.8 225.49,-88.8 222.49,-84.8 128.51,-84.8 128.51,-48.8 249.49,-48.8 249.49,-84.8"/>
<text text-anchor="middle" x="189" y="-62.6" font-family="Times,serif" font-size="14.00">UserReposModule</text>
</g>
<!-- UserReposModule&#45;&gt;AppModule -->
<g id="edge16" class="edge">
<title>UserReposModule&#45;&gt;AppModule</title>
<path fill="none" stroke="black" d="M189,-84.96C189,-107.15 189,-141.8 189,-141.8 189,-141.8 1058.34,-141.8 1058.34,-141.8"/>
<polygon fill="black" stroke="black" points="1058.34,-145.3 1068.34,-141.8 1058.34,-138.3 1058.34,-145.3"/>
</g>
<!-- VoteModule -->
<g id="node17" class="node">
<title>VoteModule</title>
<polygon fill="#8dd3c7" stroke="black" points="110.27,-84.8 107.27,-88.8 86.27,-88.8 83.27,-84.8 23.73,-84.8 23.73,-48.8 110.27,-48.8 110.27,-84.8"/>
<text text-anchor="middle" x="67" y="-62.6" font-family="Times,serif" font-size="14.00">VoteModule</text>
</g>
<!-- VoteModule&#45;&gt;AppModule -->
<g id="edge17" class="edge">
<title>VoteModule&#45;&gt;AppModule</title>
<path fill="none" stroke="black" d="M67,-85.12C67,-108.46 67,-145.8 67,-145.8 67,-145.8 1058.15,-145.8 1058.15,-145.8"/>
<polygon fill="black" stroke="black" points="1058.15,-149.3 1068.15,-145.8 1058.15,-142.3 1058.15,-149.3"/>
</g>
</g>
</svg>
