<?xml version="1.0" encoding="UTF-8" standalone="no"?>
<!DOCTYPE svg PUBLIC "-//W3C//DTD SVG 1.1//EN"
 "http://www.w3.org/Graphics/SVG/1.1/DTD/svg11.dtd">
<!-- Generated by graphviz version 3.0.0 (20220226.1711)
 -->
<!-- Title: dependencies Pages: 1 -->
<svg width="3420pt" height="174pt"
 viewBox="0.00 0.00 3420.00 173.80" xmlns="http://www.w3.org/2000/svg" xmlns:xlink="http://www.w3.org/1999/xlink">
<g id="graph0" class="graph" transform="scale(1 1) rotate(0) translate(4 169.8)">
<title>dependencies</title>
<polygon fill="white" stroke="transparent" points="-4,4 -4,-169.8 3416,-169.8 3416,4 -4,4"/>
<text text-anchor="middle" x="1706" y="-8.2" font-family="sans-serif" font-size="14.00">dependencies</text>
<g id="clust1" class="cluster">
<title>cluster_AppModule</title>
<polygon fill="none" stroke="black" stroke-dasharray="1,5" points="8,-32.8 8,-157.8 3404,-157.8 3404,-32.8 8,-32.8"/>
</g>
<g id="clust3" class="cluster">
<title>cluster_AppModule_imports</title>
<polygon fill="none" stroke="black" points="16,-40.8 16,-92.8 3396,-92.8 3396,-40.8 16,-40.8"/>
</g>
<!-- AuthModule -->
<g id="node1" class="node">
<title>AuthModule</title>
<polygon fill="#8dd3c7" stroke="black" points="3387.55,-84.8 3384.55,-88.8 3363.55,-88.8 3360.55,-84.8 3300.45,-84.8 3300.45,-48.8 3387.55,-48.8 3387.55,-84.8"/>
<text text-anchor="middle" x="3344" y="-62.6" font-family="Times,serif" font-size="14.00">AuthModule</text>
</g>
<!-- AppModule -->
<g id="node27" class="node">
<title>AppModule</title>
<polygon fill="#8dd3c7" stroke="black" points="1730.66,-149.8 1727.66,-153.8 1706.66,-153.8 1703.66,-149.8 1647.34,-149.8 1647.34,-113.8 1730.66,-113.8 1730.66,-149.8"/>
<text text-anchor="middle" x="1689" y="-127.6" font-family="Times,serif" font-size="14.00">AppModule</text>
</g>
<!-- AuthModule&#45;&gt;AppModule -->
<g id="edge1" class="edge">
<title>AuthModule&#45;&gt;AppModule</title>
<path fill="none" stroke="black" d="M3344,-85.18C3344,-109.08 3344,-147.8 3344,-147.8 3344,-147.8 1740.74,-147.8 1740.74,-147.8"/>
<polygon fill="black" stroke="black" points="1740.74,-144.3 1730.74,-147.8 1740.74,-151.3 1740.74,-144.3"/>
</g>
<!-- BlogSummaryModule -->
<g id="node2" class="node">
<title>BlogSummaryModule</title>
<polygon fill="#8dd3c7" stroke="black" points="3282.72,-84.8 3279.72,-88.8 3258.72,-88.8 3255.72,-84.8 3141.28,-84.8 3141.28,-48.8 3282.72,-48.8 3282.72,-84.8"/>
<text text-anchor="middle" x="3212" y="-62.6" font-family="Times,serif" font-size="14.00">BlogSummaryModule</text>
</g>
<!-- BlogSummaryModule&#45;&gt;AppModule -->
<g id="edge2" class="edge">
<title>BlogSummaryModule&#45;&gt;AppModule</title>
<path fill="none" stroke="black" d="M3212,-84.89C3212,-107.93 3212,-144.8 3212,-144.8 3212,-144.8 1740.92,-144.8 1740.92,-144.8"/>
<polygon fill="black" stroke="black" points="1740.92,-141.3 1730.92,-144.8 1740.92,-148.3 1740.92,-141.3"/>
</g>
<!-- ContributionModule -->
<g id="node3" class="node">
<title>ContributionModule</title>
<polygon fill="#8dd3c7" stroke="black" points="3123.61,-84.8 3120.61,-88.8 3099.61,-88.8 3096.61,-84.8 2992.39,-84.8 2992.39,-48.8 3123.61,-48.8 3123.61,-84.8"/>
<text text-anchor="middle" x="3058" y="-62.6" font-family="Times,serif" font-size="14.00">ContributionModule</text>
</g>
<!-- ContributionModule&#45;&gt;AppModule -->
<g id="edge3" class="edge">
<title>ContributionModule&#45;&gt;AppModule</title>
<path fill="none" stroke="black" d="M3058,-84.96C3058,-107.15 3058,-141.8 3058,-141.8 3058,-141.8 1740.72,-141.8 1740.72,-141.8"/>
<polygon fill="black" stroke="black" points="1740.72,-138.3 1730.72,-141.8 1740.72,-145.3 1740.72,-138.3"/>
</g>
<!-- ContributorModule -->
<g id="node4" class="node">
<title>ContributorModule</title>
<polygon fill="#8dd3c7" stroke="black" points="2974.38,-84.8 2971.38,-88.8 2950.38,-88.8 2947.38,-84.8 2849.62,-84.8 2849.62,-48.8 2974.38,-48.8 2974.38,-84.8"/>
<text text-anchor="middle" x="2912" y="-62.6" font-family="Times,serif" font-size="14.00">ContributorModule</text>
</g>
<!-- ContributorModule&#45;&gt;AppModule -->
<g id="edge4" class="edge">
<title>ContributorModule&#45;&gt;AppModule</title>
<path fill="none" stroke="black" d="M2912,-84.97C2912,-106.3 2912,-138.8 2912,-138.8 2912,-138.8 1740.74,-138.8 1740.74,-138.8"/>
<polygon fill="black" stroke="black" points="1740.74,-135.3 1730.74,-138.8 1740.74,-142.3 1740.74,-135.3"/>
</g>
<!-- CouponModule -->
<g id="node5" class="node">
<title>CouponModule</title>
<polygon fill="#8dd3c7" stroke="black" points="2831.89,-84.8 2828.89,-88.8 2807.89,-88.8 2804.89,-84.8 2728.11,-84.8 2728.11,-48.8 2831.89,-48.8 2831.89,-84.8"/>
<text text-anchor="middle" x="2780" y="-62.6" font-family="Times,serif" font-size="14.00">CouponModule</text>
</g>
<!-- CouponModule&#45;&gt;AppModule -->
<g id="edge5" class="edge">
<title>CouponModule&#45;&gt;AppModule</title>
<path fill="none" stroke="black" d="M2780,-84.83C2780,-105.57 2780,-136.8 2780,-136.8 2780,-136.8 1740.77,-136.8 1740.77,-136.8"/>
<polygon fill="black" stroke="black" points="1740.77,-133.3 1730.77,-136.8 1740.77,-140.3 1740.77,-133.3"/>
</g>
<!-- CustomerModule -->
<g id="node6" class="node">
<title>CustomerModule</title>
<polygon fill="#8dd3c7" stroke="black" points="2709.99,-84.8 2706.99,-88.8 2685.99,-88.8 2682.99,-84.8 2596.01,-84.8 2596.01,-48.8 2709.99,-48.8 2709.99,-84.8"/>
<text text-anchor="middle" x="2653" y="-62.6" font-family="Times,serif" font-size="14.00">CustomerModule</text>
</g>
<!-- CustomerModule&#45;&gt;AppModule -->
<g id="edge6" class="edge">
<title>CustomerModule&#45;&gt;AppModule</title>
<path fill="none" stroke="black" d="M2653,-85.11C2653,-104.95 2653,-133.8 2653,-133.8 2653,-133.8 1740.73,-133.8 1740.73,-133.8"/>
<polygon fill="black" stroke="black" points="1740.73,-130.3 1730.73,-133.8 1740.73,-137.3 1740.73,-130.3"/>
</g>
<!-- EmojiModule -->
<g id="node7" class="node">
<title>EmojiModule</title>
<polygon fill="#8dd3c7" stroke="black" points="2577.77,-84.8 2574.77,-88.8 2553.77,-88.8 2550.77,-84.8 2484.23,-84.8 2484.23,-48.8 2577.77,-48.8 2577.77,-84.8"/>
<text text-anchor="middle" x="2531" y="-62.6" font-family="Times,serif" font-size="14.00">EmojiModule</text>
</g>
<!-- EmojiModule&#45;&gt;AppModule -->
<g id="edge7" class="edge">
<title>EmojiModule&#45;&gt;AppModule</title>
<path fill="none" stroke="black" d="M2531,-84.97C2531,-103.89 2531,-130.8 2531,-130.8 2531,-130.8 1740.75,-130.8 1740.75,-130.8"/>
<polygon fill="black" stroke="black" points="1740.75,-127.3 1730.75,-130.8 1740.75,-134.3 1740.75,-127.3"/>
</g>
<!-- EndorsementModule -->
<g id="node8" class="node">
<title>EndorsementModule</title>
<polygon fill="#8dd3c7" stroke="black" points="2465.92,-84.8 2462.92,-88.8 2441.92,-88.8 2438.92,-84.8 2332.08,-84.8 2332.08,-48.8 2465.92,-48.8 2465.92,-84.8"/>
<text text-anchor="middle" x="2399" y="-62.6" font-family="Times,serif" font-size="14.00">EndorsementModule</text>
</g>
<!-- EndorsementModule&#45;&gt;AppModule -->
<g id="edge8" class="edge">
<title>EndorsementModule&#45;&gt;AppModule</title>
<path fill="none" stroke="black" d="M2399,-85.1C2399,-103.07 2399,-127.8 2399,-127.8 2399,-127.8 1740.76,-127.8 1740.76,-127.8"/>
<polygon fill="black" stroke="black" points="1740.76,-124.3 1730.76,-127.8 1740.76,-131.3 1740.76,-124.3"/>
</g>
<!-- HealthModule -->
<g id="node9" class="node">
<title>HealthModule</title>
<polygon fill="#8dd3c7" stroke="black" points="2314.37,-84.8 2311.37,-88.8 2290.37,-88.8 2287.37,-84.8 2217.63,-84.8 2217.63,-48.8 2314.37,-48.8 2314.37,-84.8"/>
<text text-anchor="middle" x="2266" y="-62.6" font-family="Times,serif" font-size="14.00">HealthModule</text>
</g>
<!-- HealthModule&#45;&gt;AppModule -->
<g id="edge9" class="edge">
<title>HealthModule&#45;&gt;AppModule</title>
<path fill="none" stroke="black" d="M2266,-84.82C2266,-102.17 2266,-125.8 2266,-125.8 2266,-125.8 1740.96,-125.8 1740.96,-125.8"/>
<polygon fill="black" stroke="black" points="1740.96,-122.3 1730.96,-125.8 1740.96,-129.3 1740.96,-122.3"/>
</g>
<!-- HighlightModule -->
<g id="node10" class="node">
<title>HighlightModule</title>
<polygon fill="#8dd3c7" stroke="black" points="2199.72,-84.8 2196.72,-88.8 2175.72,-88.8 2172.72,-84.8 2086.28,-84.8 2086.28,-48.8 2199.72,-48.8 2199.72,-84.8"/>
<text text-anchor="middle" x="2143" y="-62.6" font-family="Times,serif" font-size="14.00">HighlightModule</text>
</g>
<!-- HighlightModule&#45;&gt;AppModule -->
<g id="edge10" class="edge">
<title>HighlightModule&#45;&gt;AppModule</title>
<path fill="none" stroke="black" d="M2143,-84.83C2143,-101.2 2143,-122.8 2143,-122.8 2143,-122.8 1740.9,-122.8 1740.9,-122.8"/>
<polygon fill="black" stroke="black" points="1740.9,-119.3 1730.9,-122.8 1740.9,-126.3 1740.9,-119.3"/>
</g>
<!-- InsightsModule -->
<g id="node11" class="node">
<title>InsightsModule</title>
<polygon fill="#8dd3c7" stroke="black" points="2067.89,-84.8 2064.89,-88.8 2043.89,-88.8 2040.89,-84.8 1964.11,-84.8 1964.11,-48.8 2067.89,-48.8 2067.89,-84.8"/>
<text text-anchor="middle" x="2016" y="-62.6" font-family="Times,serif" font-size="14.00">InsightsModule</text>
</g>
<!-- InsightsModule&#45;&gt;AppModule -->
<g id="edge11" class="edge">
<title>InsightsModule&#45;&gt;AppModule</title>
<path fill="none" stroke="black" d="M2016,-85.04C2016,-100.37 2016,-119.8 2016,-119.8 2016,-119.8 1740.75,-119.8 1740.75,-119.8"/>
<polygon fill="black" stroke="black" points="1740.75,-116.3 1730.75,-119.8 1740.75,-123.3 1740.75,-116.3"/>
</g>
<!-- IssueSummaryModule -->
<g id="node12" class="node">
<title>IssueSummaryModule</title>
<polygon fill="#8dd3c7" stroke="black" points="1946.27,-84.8 1943.27,-88.8 1922.27,-88.8 1919.27,-84.8 1803.73,-84.8 1803.73,-48.8 1946.27,-48.8 1946.27,-84.8"/>
<text text-anchor="middle" x="1875" y="-62.6" font-family="Times,serif" font-size="14.00">IssueSummaryModule</text>
</g>
<!-- IssueSummaryModule&#45;&gt;AppModule -->
<g id="edge12" class="edge">
<title>IssueSummaryModule&#45;&gt;AppModule</title>
<path fill="none" stroke="black" d="M1875,-84.85C1875,-99.17 1875,-116.8 1875,-116.8 1875,-116.8 1740.74,-116.8 1740.74,-116.8"/>
<polygon fill="black" stroke="black" points="1740.74,-113.3 1730.74,-116.8 1740.74,-120.3 1740.74,-113.3"/>
</g>
<!-- LogModule -->
<g id="node13" class="node">
<title>LogModule</title>
<polygon fill="#8dd3c7" stroke="black" points="1786.1,-84.8 1783.1,-88.8 1762.1,-88.8 1759.1,-84.8 1703.9,-84.8 1703.9,-48.8 1786.1,-48.8 1786.1,-84.8"/>
<text text-anchor="middle" x="1745" y="-62.6" font-family="Times,serif" font-size="14.00">LogModule</text>
</g>
<!-- LogModule&#45;&gt;AppModule -->
<g id="edge13" class="edge">
<title>LogModule&#45;&gt;AppModule</title>
<path fill="none" stroke="black" d="M1717.39,-84.91C1717.39,-84.91 1717.39,-103.79 1717.39,-103.79"/>
<polygon fill="black" stroke="black" points="1713.89,-103.79 1717.39,-113.79 1720.89,-103.79 1713.89,-103.79"/>
</g>
<!-- OpenAiModule -->
<g id="node14" class="node">
<title>OpenAiModule</title>
<polygon fill="#8dd3c7" stroke="black" points="1685.88,-84.8 1682.88,-88.8 1661.88,-88.8 1658.88,-84.8 1582.12,-84.8 1582.12,-48.8 1685.88,-48.8 1685.88,-84.8"/>
<text text-anchor="middle" x="1634" y="-62.6" font-family="Times,serif" font-size="14.00">OpenAiModule</text>
</g>
<!-- OpenAiModule&#45;&gt;AppModule -->
<g id="edge14" class="edge">
<title>OpenAiModule&#45;&gt;AppModule</title>
<path fill="none" stroke="black" d="M1666.55,-84.91C1666.55,-84.91 1666.55,-103.79 1666.55,-103.79"/>
<polygon fill="black" stroke="black" points="1663.05,-103.79 1666.55,-113.79 1670.05,-103.79 1663.05,-103.79"/>
</g>
<!-- PizzaOvenModule -->
<g id="node15" class="node">
<title>PizzaOvenModule</title>
<polygon fill="#8dd3c7" stroke="black" points="1564.19,-84.8 1561.19,-88.8 1540.19,-88.8 1537.19,-84.8 1443.81,-84.8 1443.81,-48.8 1564.19,-48.8 1564.19,-84.8"/>
<text text-anchor="middle" x="1504" y="-62.6" font-family="Times,serif" font-size="14.00">PizzaOvenModule</text>
</g>
<!-- PizzaOvenModule&#45;&gt;AppModule -->
<g id="edge15" class="edge">
<title>PizzaOvenModule&#45;&gt;AppModule</title>
<path fill="none" stroke="black" d="M1504,-84.85C1504,-99.17 1504,-116.8 1504,-116.8 1504,-116.8 1637.02,-116.8 1637.02,-116.8"/>
<polygon fill="black" stroke="black" points="1637.02,-120.3 1647.02,-116.8 1637.02,-113.3 1637.02,-120.3"/>
</g>
<!-- PullRequestModule -->
<g id="node16" class="node">
<title>PullRequestModule</title>
<polygon fill="#8dd3c7" stroke="black" points="1425.72,-84.8 1422.72,-88.8 1401.72,-88.8 1398.72,-84.8 1298.28,-84.8 1298.28,-48.8 1425.72,-48.8 1425.72,-84.8"/>
<text text-anchor="middle" x="1362" y="-62.6" font-family="Times,serif" font-size="14.00">PullRequestModule</text>
</g>
<!-- PullRequestModule&#45;&gt;AppModule -->
<g id="edge16" class="edge">
<title>PullRequestModule&#45;&gt;AppModule</title>
<path fill="none" stroke="black" d="M1362,-85.04C1362,-100.37 1362,-119.8 1362,-119.8 1362,-119.8 1637.25,-119.8 1637.25,-119.8"/>
<polygon fill="black" stroke="black" points="1637.25,-123.3 1647.25,-119.8 1637.25,-116.3 1637.25,-123.3"/>
</g>
<!-- RepoModule -->
<g id="node17" class="node">
<title>RepoModule</title>
<polygon fill="#8dd3c7" stroke="black" points="1280.6,-84.8 1277.6,-88.8 1256.6,-88.8 1253.6,-84.8 1191.4,-84.8 1191.4,-48.8 1280.6,-48.8 1280.6,-84.8"/>
<text text-anchor="middle" x="1236" y="-62.6" font-family="Times,serif" font-size="14.00">RepoModule</text>
</g>
<!-- RepoModule&#45;&gt;AppModule -->
<g id="edge17" class="edge">
<title>RepoModule&#45;&gt;AppModule</title>
<path fill="none" stroke="black" d="M1236,-84.83C1236,-101.2 1236,-122.8 1236,-122.8 1236,-122.8 1637.19,-122.8 1637.19,-122.8"/>
<polygon fill="black" stroke="black" points="1637.19,-126.3 1647.19,-122.8 1637.19,-119.3 1637.19,-126.3"/>
</g>
<!-- StarModule -->
<g id="node18" class="node">
<title>StarModule</title>
<polygon fill="#8dd3c7" stroke="black" points="1173.1,-84.8 1170.1,-88.8 1149.1,-88.8 1146.1,-84.8 1090.9,-84.8 1090.9,-48.8 1173.1,-48.8 1173.1,-84.8"/>
<text text-anchor="middle" x="1132" y="-62.6" font-family="Times,serif" font-size="14.00">StarModule</text>
</g>
<!-- StarModule&#45;&gt;AppModule -->
<g id="edge18" class="edge">
<title>StarModule&#45;&gt;AppModule</title>
<path fill="none" stroke="black" d="M1132,-84.82C1132,-102.17 1132,-125.8 1132,-125.8 1132,-125.8 1637.13,-125.8 1637.13,-125.8"/>
<polygon fill="black" stroke="black" points="1637.13,-129.3 1647.13,-125.8 1637.13,-122.3 1637.13,-129.3"/>
</g>
<!-- StargazeModule -->
<g id="node19" class="node">
<title>StargazeModule</title>
<polygon fill="#8dd3c7" stroke="black" points="1072.75,-84.8 1069.75,-88.8 1048.75,-88.8 1045.75,-84.8 965.25,-84.8 965.25,-48.8 1072.75,-48.8 1072.75,-84.8"/>
<text text-anchor="middle" x="1019" y="-62.6" font-family="Times,serif" font-size="14.00">StargazeModule</text>
</g>
<!-- StargazeModule&#45;&gt;AppModule -->
<g id="edge19" class="edge">
<title>StargazeModule&#45;&gt;AppModule</title>
<path fill="none" stroke="black" d="M1019,-85.1C1019,-103.07 1019,-127.8 1019,-127.8 1019,-127.8 1637.09,-127.8 1637.09,-127.8"/>
<polygon fill="black" stroke="black" points="1637.09,-131.3 1647.09,-127.8 1637.09,-124.3 1637.09,-131.3"/>
</g>
<!-- StripeSubscriptionModule -->
<g id="node20" class="node">
<title>StripeSubscriptionModule</title>
<polygon fill="#8dd3c7" stroke="black" points="946.77,-84.8 943.77,-88.8 922.77,-88.8 919.77,-84.8 783.23,-84.8 783.23,-48.8 946.77,-48.8 946.77,-84.8"/>
<text text-anchor="middle" x="865" y="-62.6" font-family="Times,serif" font-size="14.00">StripeSubscriptionModule</text>
</g>
<!-- StripeSubscriptionModule&#45;&gt;AppModule -->
<g id="edge20" class="edge">
<title>StripeSubscriptionModule&#45;&gt;AppModule</title>
<path fill="none" stroke="black" d="M865,-84.97C865,-103.89 865,-130.8 865,-130.8 865,-130.8 1637.29,-130.8 1637.29,-130.8"/>
<polygon fill="black" stroke="black" points="1637.29,-134.3 1647.29,-130.8 1637.29,-127.3 1637.29,-134.3"/>
</g>
<!-- StripeWebHookModule -->
<g id="node21" class="node">
<title>StripeWebHookModule</title>
<polygon fill="#8dd3c7" stroke="black" points="765.03,-84.8 762.03,-88.8 741.03,-88.8 738.03,-84.8 614.97,-84.8 614.97,-48.8 765.03,-48.8 765.03,-84.8"/>
<text text-anchor="middle" x="690" y="-62.6" font-family="Times,serif" font-size="14.00">StripeWebHookModule</text>
</g>
<!-- StripeWebHookModule&#45;&gt;AppModule -->
<g id="edge21" class="edge">
<title>StripeWebHookModule&#45;&gt;AppModule</title>
<path fill="none" stroke="black" d="M690,-85.11C690,-104.95 690,-133.8 690,-133.8 690,-133.8 1637.03,-133.8 1637.03,-133.8"/>
<polygon fill="black" stroke="black" points="1637.03,-137.3 1647.03,-133.8 1637.03,-130.3 1637.03,-137.3"/>
</g>
<!-- SubmitModule -->
<g id="node22" class="node">
<title>SubmitModule</title>
<polygon fill="#8dd3c7" stroke="black" points="597.01,-84.8 594.01,-88.8 573.01,-88.8 570.01,-84.8 496.99,-84.8 496.99,-48.8 597.01,-48.8 597.01,-84.8"/>
<text text-anchor="middle" x="547" y="-62.6" font-family="Times,serif" font-size="14.00">SubmitModule</text>
</g>
<!-- SubmitModule&#45;&gt;AppModule -->
<g id="edge22" class="edge">
<title>SubmitModule&#45;&gt;AppModule</title>
<path fill="none" stroke="black" d="M547,-84.83C547,-105.57 547,-136.8 547,-136.8 547,-136.8 1637,-136.8 1637,-136.8"/>
<polygon fill="black" stroke="black" points="1637,-140.3 1647,-136.8 1637,-133.3 1637,-140.3"/>
</g>
<!-- UserListModule -->
<g id="node23" class="node">
<title>UserListModule</title>
<polygon fill="#8dd3c7" stroke="black" points="478.77,-84.8 475.77,-88.8 454.77,-88.8 451.77,-84.8 371.23,-84.8 371.23,-48.8 478.77,-48.8 478.77,-84.8"/>
<text text-anchor="middle" x="425" y="-62.6" font-family="Times,serif" font-size="14.00">UserListModule</text>
</g>
<!-- UserListModule&#45;&gt;AppModule -->
<g id="edge23" class="edge">
<title>UserListModule&#45;&gt;AppModule</title>
<path fill="none" stroke="black" d="M425,-84.97C425,-106.3 425,-138.8 425,-138.8 425,-138.8 1637.3,-138.8 1637.3,-138.8"/>
<polygon fill="black" stroke="black" points="1637.3,-142.3 1647.3,-138.8 1637.3,-135.3 1637.3,-142.3"/>
</g>
<!-- UserModule -->
<g id="node24" class="node">
<title>UserModule</title>
<polygon fill="#8dd3c7" stroke="black" points="352.99,-84.8 349.99,-88.8 328.99,-88.8 325.99,-84.8 267.01,-84.8 267.01,-48.8 352.99,-48.8 352.99,-84.8"/>
<text text-anchor="middle" x="310" y="-62.6" font-family="Times,serif" font-size="14.00">UserModule</text>
</g>
<!-- UserModule&#45;&gt;AppModule -->
<g id="edge24" class="edge">
<title>UserModule&#45;&gt;AppModule</title>
<path fill="none" stroke="black" d="M310,-84.96C310,-107.15 310,-141.8 310,-141.8 310,-141.8 1636.98,-141.8 1636.98,-141.8"/>
<polygon fill="black" stroke="black" points="1636.98,-145.3 1646.98,-141.8 1636.98,-138.3 1636.98,-145.3"/>
</g>
<!-- UserReposModule -->
<g id="node25" class="node">
<title>UserReposModule</title>
<polygon fill="#8dd3c7" stroke="black" points="249.49,-84.8 246.49,-88.8 225.49,-88.8 222.49,-84.8 128.51,-84.8 128.51,-48.8 249.49,-48.8 249.49,-84.8"/>
<text text-anchor="middle" x="189" y="-62.6" font-family="Times,serif" font-size="14.00">UserReposModule</text>
</g>
<!-- UserReposModule&#45;&gt;AppModule -->
<g id="edge25" class="edge">
<title>UserReposModule&#45;&gt;AppModule</title>
<path fill="none" stroke="black" d="M189,-84.89C189,-107.93 189,-144.8 189,-144.8 189,-144.8 1637.32,-144.8 1637.32,-144.8"/>
<polygon fill="black" stroke="black" points="1637.32,-148.3 1647.32,-144.8 1637.32,-141.3 1637.32,-148.3"/>
</g>
<!-- VoteModule -->
<g id="node26" class="node">
<title>VoteModule</title>
<polygon fill="#8dd3c7" stroke="black" points="110.27,-84.8 107.27,-88.8 86.27,-88.8 83.27,-84.8 23.73,-84.8 23.73,-48.8 110.27,-48.8 110.27,-84.8"/>
<text text-anchor="middle" x="67" y="-62.6" font-family="Times,serif" font-size="14.00">VoteModule</text>
</g>
<!-- VoteModule&#45;&gt;AppModule -->
<g id="edge26" class="edge">
<title>VoteModule&#45;&gt;AppModule</title>
<path fill="none" stroke="black" d="M67,-85.18C67,-109.08 67,-147.8 67,-147.8 67,-147.8 1637.28,-147.8 1637.28,-147.8"/>
<polygon fill="black" stroke="black" points="1637.28,-151.3 1647.28,-147.8 1637.28,-144.3 1637.28,-151.3"/>
</g>
</g>
</svg>
