<?xml version="1.0" encoding="UTF-8" standalone="no"?>
<!DOCTYPE svg PUBLIC "-//W3C//DTD SVG 1.1//EN"
 "http://www.w3.org/Graphics/SVG/1.1/DTD/svg11.dtd">
<!-- Generated by graphviz version 3.0.0 (20220226.1711)
 -->
<!-- Title: dependencies Pages: 1 -->
<svg width="1327pt" height="174pt"
 viewBox="0.00 0.00 1327.00 173.80" xmlns="http://www.w3.org/2000/svg" xmlns:xlink="http://www.w3.org/1999/xlink">
<g id="graph0" class="graph" transform="scale(1 1) rotate(0) translate(4 169.8)">
<title>dependencies</title>
<polygon fill="white" stroke="transparent" points="-4,4 -4,-169.8 1323,-169.8 1323,4 -4,4"/>
<text text-anchor="middle" x="659.5" y="-8.2" font-family="sans-serif" font-size="14.00">dependencies</text>
<g id="clust1" class="cluster">
<title>cluster_AppModule</title>
<polygon fill="none" stroke="black" stroke-dasharray="1,5" points="8,-32.8 8,-157.8 1311,-157.8 1311,-32.8 8,-32.8"/>
</g>
<g id="clust3" class="cluster">
<title>cluster_AppModule_imports</title>
<polygon fill="none" stroke="black" points="16,-40.8 16,-92.8 1303,-92.8 1303,-40.8 16,-40.8"/>
</g>
<!-- AuthModule -->
<g id="node1" class="node">
<title>AuthModule</title>
<polygon fill="#8dd3c7" stroke="black" points="1294.55,-84.8 1291.55,-88.8 1270.55,-88.8 1267.55,-84.8 1207.45,-84.8 1207.45,-48.8 1294.55,-48.8 1294.55,-84.8"/>
<text text-anchor="middle" x="1251" y="-62.6" font-family="Times,serif" font-size="14.00">AuthModule</text>
</g>
<!-- AppModule -->
<g id="node12" class="node">
<title>AppModule</title>
<polygon fill="#8dd3c7" stroke="black" points="697.66,-149.8 694.66,-153.8 673.66,-153.8 670.66,-149.8 614.34,-149.8 614.34,-113.8 697.66,-113.8 697.66,-149.8"/>
<text text-anchor="middle" x="656" y="-127.6" font-family="Times,serif" font-size="14.00">AppModule</text>
</g>
<!-- AuthModule&#45;&gt;AppModule -->
<g id="edge1" class="edge">
<title>AuthModule&#45;&gt;AppModule</title>
<path fill="none" stroke="black" d="M1251,-84.89C1251,-107.93 1251,-144.8 1251,-144.8 1251,-144.8 707.84,-144.8 707.84,-144.8"/>
<polygon fill="black" stroke="black" points="707.84,-141.3 697.84,-144.8 707.84,-148.3 707.84,-141.3"/>
</g>
<!-- ContributionModule -->
<g id="node2" class="node">
<title>ContributionModule</title>
<polygon fill="#8dd3c7" stroke="black" points="1189.61,-84.8 1186.61,-88.8 1165.61,-88.8 1162.61,-84.8 1058.39,-84.8 1058.39,-48.8 1189.61,-48.8 1189.61,-84.8"/>
<text text-anchor="middle" x="1124" y="-62.6" font-family="Times,serif" font-size="14.00">ContributionModule</text>
</g>
<!-- ContributionModule&#45;&gt;AppModule -->
<g id="edge2" class="edge">
<title>ContributionModule&#45;&gt;AppModule</title>
<path fill="none" stroke="black" d="M1124,-85.08C1124,-106.12 1124,-137.8 1124,-137.8 1124,-137.8 707.94,-137.8 707.94,-137.8"/>
<polygon fill="black" stroke="black" points="707.94,-134.3 697.94,-137.8 707.94,-141.3 707.94,-134.3"/>
</g>
<!-- HealthModule -->
<g id="node3" class="node">
<title>HealthModule</title>
<polygon fill="#8dd3c7" stroke="black" points="1040.37,-84.8 1037.37,-88.8 1016.37,-88.8 1013.37,-84.8 943.63,-84.8 943.63,-48.8 1040.37,-48.8 1040.37,-84.8"/>
<text text-anchor="middle" x="992" y="-62.6" font-family="Times,serif" font-size="14.00">HealthModule</text>
</g>
<!-- HealthModule&#45;&gt;AppModule -->
<g id="edge3" class="edge">
<title>HealthModule&#45;&gt;AppModule</title>
<path fill="none" stroke="black" d="M992,-84.91C992,-104.14 992,-131.8 992,-131.8 992,-131.8 707.88,-131.8 707.88,-131.8"/>
<polygon fill="black" stroke="black" points="707.88,-128.3 697.88,-131.8 707.88,-135.3 707.88,-128.3"/>
</g>
<!-- InsightsModule -->
<g id="node4" class="node">
<title>InsightsModule</title>
<polygon fill="#8dd3c7" stroke="black" points="925.89,-84.8 922.89,-88.8 901.89,-88.8 898.89,-84.8 822.11,-84.8 822.11,-48.8 925.89,-48.8 925.89,-84.8"/>
<text text-anchor="middle" x="874" y="-62.6" font-family="Times,serif" font-size="14.00">InsightsModule</text>
</g>
<!-- InsightsModule&#45;&gt;AppModule -->
<g id="edge4" class="edge">
<title>InsightsModule&#45;&gt;AppModule</title>
<path fill="none" stroke="black" d="M874,-84.82C874,-102.17 874,-125.8 874,-125.8 874,-125.8 707.77,-125.8 707.77,-125.8"/>
<polygon fill="black" stroke="black" points="707.77,-122.3 697.77,-125.8 707.77,-129.3 707.77,-122.3"/>
</g>
<!-- RepoModule -->
<g id="node5" class="node">
<title>RepoModule</title>
<polygon fill="#8dd3c7" stroke="black" points="804.6,-84.8 801.6,-88.8 780.6,-88.8 777.6,-84.8 715.4,-84.8 715.4,-48.8 804.6,-48.8 804.6,-84.8"/>
<text text-anchor="middle" x="760" y="-62.6" font-family="Times,serif" font-size="14.00">RepoModule</text>
</g>
<!-- RepoModule&#45;&gt;AppModule -->
<g id="edge5" class="edge">
<title>RepoModule&#45;&gt;AppModule</title>
<path fill="none" stroke="black" d="M760,-85.04C760,-100.37 760,-119.8 760,-119.8 760,-119.8 707.7,-119.8 707.7,-119.8"/>
<polygon fill="black" stroke="black" points="707.7,-116.3 697.7,-119.8 707.7,-123.3 707.7,-116.3"/>
</g>
<!-- StarModule -->
<g id="node6" class="node">
<title>StarModule</title>
<polygon fill="#8dd3c7" stroke="black" points="697.1,-84.8 694.1,-88.8 673.1,-88.8 670.1,-84.8 614.9,-84.8 614.9,-48.8 697.1,-48.8 697.1,-84.8"/>
<text text-anchor="middle" x="656" y="-62.6" font-family="Times,serif" font-size="14.00">StarModule</text>
</g>
<!-- StarModule&#45;&gt;AppModule -->
<g id="edge6" class="edge">
<title>StarModule&#45;&gt;AppModule</title>
<path fill="none" stroke="black" d="M656,-84.91C656,-84.91 656,-103.79 656,-103.79"/>
<polygon fill="black" stroke="black" points="652.5,-103.79 656,-113.79 659.5,-103.79 652.5,-103.79"/>
</g>
<!-- StargazeModule -->
<g id="node7" class="node">
<title>StargazeModule</title>
<polygon fill="#8dd3c7" stroke="black" points="596.75,-84.8 593.75,-88.8 572.75,-88.8 569.75,-84.8 489.25,-84.8 489.25,-48.8 596.75,-48.8 596.75,-84.8"/>
<text text-anchor="middle" x="543" y="-62.6" font-family="Times,serif" font-size="14.00">StargazeModule</text>
</g>
<!-- StargazeModule&#45;&gt;AppModule -->
<g id="edge7" class="edge">
<title>StargazeModule&#45;&gt;AppModule</title>
<path fill="none" stroke="black" d="M543,-85.04C543,-100.37 543,-119.8 543,-119.8 543,-119.8 604.24,-119.8 604.24,-119.8"/>
<polygon fill="black" stroke="black" points="604.24,-123.3 614.24,-119.8 604.24,-116.3 604.24,-123.3"/>
</g>
<!-- SubmitModule -->
<g id="node8" class="node">
<title>SubmitModule</title>
<polygon fill="#8dd3c7" stroke="black" points="471.01,-84.8 468.01,-88.8 447.01,-88.8 444.01,-84.8 370.99,-84.8 370.99,-48.8 471.01,-48.8 471.01,-84.8"/>
<text text-anchor="middle" x="421" y="-62.6" font-family="Times,serif" font-size="14.00">SubmitModule</text>
</g>
<!-- SubmitModule&#45;&gt;AppModule -->
<g id="edge8" class="edge">
<title>SubmitModule&#45;&gt;AppModule</title>
<path fill="none" stroke="black" d="M421,-84.82C421,-102.17 421,-125.8 421,-125.8 421,-125.8 604.26,-125.8 604.26,-125.8"/>
<polygon fill="black" stroke="black" points="604.26,-129.3 614.26,-125.8 604.26,-122.3 604.26,-129.3"/>
</g>
<!-- UserModule -->
<g id="node9" class="node">
<title>UserModule</title>
<polygon fill="#8dd3c7" stroke="black" points="352.99,-84.8 349.99,-88.8 328.99,-88.8 325.99,-84.8 267.01,-84.8 267.01,-48.8 352.99,-48.8 352.99,-84.8"/>
<text text-anchor="middle" x="310" y="-62.6" font-family="Times,serif" font-size="14.00">UserModule</text>
</g>
<!-- UserModule&#45;&gt;AppModule -->
<g id="edge9" class="edge">
<title>UserModule&#45;&gt;AppModule</title>
<path fill="none" stroke="black" d="M310,-84.91C310,-104.14 310,-131.8 310,-131.8 310,-131.8 604.26,-131.8 604.26,-131.8"/>
<polygon fill="black" stroke="black" points="604.26,-135.3 614.26,-131.8 604.26,-128.3 604.26,-135.3"/>
</g>
<!-- UserReposModule -->
<g id="node10" class="node">
<title>UserReposModule</title>
<polygon fill="#8dd3c7" stroke="black" points="249.49,-84.8 246.49,-88.8 225.49,-88.8 222.49,-84.8 128.51,-84.8 128.51,-48.8 249.49,-48.8 249.49,-84.8"/>
<text text-anchor="middle" x="189" y="-62.6" font-family="Times,serif" font-size="14.00">UserReposModule</text>
</g>
<!-- UserReposModule&#45;&gt;AppModule -->
<g id="edge10" class="edge">
<title>UserReposModule&#45;&gt;AppModule</title>
<path fill="none" stroke="black" d="M189,-85.08C189,-106.12 189,-137.8 189,-137.8 189,-137.8 604.15,-137.8 604.15,-137.8"/>
<polygon fill="black" stroke="black" points="604.15,-141.3 614.15,-137.8 604.15,-134.3 604.15,-141.3"/>
</g>
<!-- VoteModule -->
<g id="node11" class="node">
<title>VoteModule</title>
<polygon fill="#8dd3c7" stroke="black" points="110.27,-84.8 107.27,-88.8 86.27,-88.8 83.27,-84.8 23.73,-84.8 23.73,-48.8 110.27,-48.8 110.27,-84.8"/>
<text text-anchor="middle" x="67" y="-62.6" font-family="Times,serif" font-size="14.00">VoteModule</text>
</g>
<!-- VoteModule&#45;&gt;AppModule -->
<g id="edge11" class="edge">
<title>VoteModule&#45;&gt;AppModule</title>
<path fill="none" stroke="black" d="M67,-84.89C67,-107.93 67,-144.8 67,-144.8 67,-144.8 604.11,-144.8 604.11,-144.8"/>
<polygon fill="black" stroke="black" points="604.11,-148.3 614.11,-144.8 604.11,-141.3 604.11,-148.3"/>
</g>
</g>
</svg>
