<?xml version="1.0" encoding="UTF-8" standalone="no"?>
<!DOCTYPE svg PUBLIC "-//W3C//DTD SVG 1.1//EN"
 "http://www.w3.org/Graphics/SVG/1.1/DTD/svg11.dtd">
<!-- Generated by graphviz version 3.0.0 (20220226.1711)
 -->
<!-- Title: dependencies Pages: 1 -->
<svg width="2493pt" height="174pt"
 viewBox="0.00 0.00 2493.00 173.80" xmlns="http://www.w3.org/2000/svg" xmlns:xlink="http://www.w3.org/1999/xlink">
<g id="graph0" class="graph" transform="scale(1 1) rotate(0) translate(4 169.8)">
<title>dependencies</title>
<polygon fill="white" stroke="transparent" points="-4,4 -4,-169.8 2489,-169.8 2489,4 -4,4"/>
<text text-anchor="middle" x="1242.5" y="-8.2" font-family="sans-serif" font-size="14.00">dependencies</text>
<g id="clust1" class="cluster">
<title>cluster_AppModule</title>
<polygon fill="none" stroke="black" stroke-dasharray="1,5" points="8,-32.8 8,-157.8 2477,-157.8 2477,-32.8 8,-32.8"/>
</g>
<g id="clust3" class="cluster">
<title>cluster_AppModule_imports</title>
<polygon fill="none" stroke="black" points="16,-40.8 16,-92.8 2469,-92.8 2469,-40.8 16,-40.8"/>
</g>
<!-- AuthModule -->
<g id="node1" class="node">
<title>AuthModule</title>
<polygon fill="#8dd3c7" stroke="black" points="2460.55,-84.8 2457.55,-88.8 2436.55,-88.8 2433.55,-84.8 2373.45,-84.8 2373.45,-48.8 2460.55,-48.8 2460.55,-84.8"/>
<text text-anchor="middle" x="2417" y="-62.6" font-family="Times,serif" font-size="14.00">AuthModule</text>
</g>
<!-- AppModule -->
<g id="node20" class="node">
<title>AppModule</title>
<polygon fill="#8dd3c7" stroke="black" points="1277.66,-149.8 1274.66,-153.8 1253.66,-153.8 1250.66,-149.8 1194.34,-149.8 1194.34,-113.8 1277.66,-113.8 1277.66,-149.8"/>
<text text-anchor="middle" x="1236" y="-127.6" font-family="Times,serif" font-size="14.00">AppModule</text>
</g>
<!-- AuthModule&#45;&gt;AppModule -->
<g id="edge1" class="edge">
<title>AuthModule&#45;&gt;AppModule</title>
<path fill="none" stroke="black" d="M2417,-84.95C2417,-108.56 2417,-146.8 2417,-146.8 2417,-146.8 1287.69,-146.8 1287.69,-146.8"/>
<polygon fill="black" stroke="black" points="1287.69,-143.3 1277.69,-146.8 1287.69,-150.3 1287.69,-143.3"/>
</g>
<!-- ContributionModule -->
<g id="node2" class="node">
<title>ContributionModule</title>
<polygon fill="#8dd3c7" stroke="black" points="2355.61,-84.8 2352.61,-88.8 2331.61,-88.8 2328.61,-84.8 2224.39,-84.8 2224.39,-48.8 2355.61,-48.8 2355.61,-84.8"/>
<text text-anchor="middle" x="2290" y="-62.6" font-family="Times,serif" font-size="14.00">ContributionModule</text>
</g>
<!-- ContributionModule&#45;&gt;AppModule -->
<g id="edge2" class="edge">
<title>ContributionModule&#45;&gt;AppModule</title>
<path fill="none" stroke="black" d="M2290,-84.81C2290,-107.29 2290,-142.8 2290,-142.8 2290,-142.8 1287.97,-142.8 1287.97,-142.8"/>
<polygon fill="black" stroke="black" points="1287.97,-139.3 1277.97,-142.8 1287.97,-146.3 1287.97,-139.3"/>
</g>
<!-- ContributorModule -->
<g id="node3" class="node">
<title>ContributorModule</title>
<polygon fill="#8dd3c7" stroke="black" points="2206.38,-84.8 2203.38,-88.8 2182.38,-88.8 2179.38,-84.8 2081.62,-84.8 2081.62,-48.8 2206.38,-48.8 2206.38,-84.8"/>
<text text-anchor="middle" x="2144" y="-62.6" font-family="Times,serif" font-size="14.00">ContributorModule</text>
</g>
<!-- ContributorModule&#45;&gt;AppModule -->
<g id="edge3" class="edge">
<title>ContributorModule&#45;&gt;AppModule</title>
<path fill="none" stroke="black" d="M2144,-84.84C2144,-106.46 2144,-139.8 2144,-139.8 2144,-139.8 1287.67,-139.8 1287.67,-139.8"/>
<polygon fill="black" stroke="black" points="1287.67,-136.3 1277.67,-139.8 1287.67,-143.3 1287.67,-136.3"/>
</g>
<!-- CustomerModule -->
<g id="node4" class="node">
<title>CustomerModule</title>
<polygon fill="#8dd3c7" stroke="black" points="2063.99,-84.8 2060.99,-88.8 2039.99,-88.8 2036.99,-84.8 1950.01,-84.8 1950.01,-48.8 2063.99,-48.8 2063.99,-84.8"/>
<text text-anchor="middle" x="2007" y="-62.6" font-family="Times,serif" font-size="14.00">CustomerModule</text>
</g>
<!-- CustomerModule&#45;&gt;AppModule -->
<g id="edge4" class="edge">
<title>CustomerModule&#45;&gt;AppModule</title>
<path fill="none" stroke="black" d="M2007,-84.93C2007,-105.37 2007,-135.8 2007,-135.8 2007,-135.8 1287.73,-135.8 1287.73,-135.8"/>
<polygon fill="black" stroke="black" points="1287.73,-132.3 1277.73,-135.8 1287.73,-139.3 1287.73,-132.3"/>
</g>
<!-- EmojiModule -->
<g id="node5" class="node">
<title>EmojiModule</title>
<polygon fill="#8dd3c7" stroke="black" points="1931.77,-84.8 1928.77,-88.8 1907.77,-88.8 1904.77,-84.8 1838.23,-84.8 1838.23,-48.8 1931.77,-48.8 1931.77,-84.8"/>
<text text-anchor="middle" x="1885" y="-62.6" font-family="Times,serif" font-size="14.00">EmojiModule</text>
</g>
<!-- EmojiModule&#45;&gt;AppModule -->
<g id="edge5" class="edge">
<title>EmojiModule&#45;&gt;AppModule</title>
<path fill="none" stroke="black" d="M1885,-84.91C1885,-104.14 1885,-131.8 1885,-131.8 1885,-131.8 1288.08,-131.8 1288.08,-131.8"/>
<polygon fill="black" stroke="black" points="1288.08,-128.3 1278.08,-131.8 1288.08,-135.3 1288.08,-128.3"/>
</g>
<!-- EndorsementModule -->
<g id="node6" class="node">
<title>EndorsementModule</title>
<polygon fill="#8dd3c7" stroke="black" points="1819.92,-84.8 1816.92,-88.8 1795.92,-88.8 1792.92,-84.8 1686.08,-84.8 1686.08,-48.8 1819.92,-48.8 1819.92,-84.8"/>
<text text-anchor="middle" x="1753" y="-62.6" font-family="Times,serif" font-size="14.00">EndorsementModule</text>
</g>
<!-- EndorsementModule&#45;&gt;AppModule -->
<g id="edge6" class="edge">
<title>EndorsementModule&#45;&gt;AppModule</title>
<path fill="none" stroke="black" d="M1753,-85.07C1753,-103.36 1753,-128.8 1753,-128.8 1753,-128.8 1287.87,-128.8 1287.87,-128.8"/>
<polygon fill="black" stroke="black" points="1287.87,-125.3 1277.87,-128.8 1287.87,-132.3 1287.87,-125.3"/>
</g>
<!-- HealthModule -->
<g id="node7" class="node">
<title>HealthModule</title>
<polygon fill="#8dd3c7" stroke="black" points="1668.37,-84.8 1665.37,-88.8 1644.37,-88.8 1641.37,-84.8 1571.63,-84.8 1571.63,-48.8 1668.37,-48.8 1668.37,-84.8"/>
<text text-anchor="middle" x="1620" y="-62.6" font-family="Times,serif" font-size="14.00">HealthModule</text>
</g>
<!-- HealthModule&#45;&gt;AppModule -->
<g id="edge7" class="edge">
<title>HealthModule&#45;&gt;AppModule</title>
<path fill="none" stroke="black" d="M1620,-84.83C1620,-101.86 1620,-124.8 1620,-124.8 1620,-124.8 1287.83,-124.8 1287.83,-124.8"/>
<polygon fill="black" stroke="black" points="1287.83,-121.3 1277.83,-124.8 1287.83,-128.3 1287.83,-121.3"/>
</g>
<!-- HighlightModule -->
<g id="node8" class="node">
<title>HighlightModule</title>
<polygon fill="#8dd3c7" stroke="black" points="1553.72,-84.8 1550.72,-88.8 1529.72,-88.8 1526.72,-84.8 1440.28,-84.8 1440.28,-48.8 1553.72,-48.8 1553.72,-84.8"/>
<text text-anchor="middle" x="1497" y="-62.6" font-family="Times,serif" font-size="14.00">HighlightModule</text>
</g>
<!-- HighlightModule&#45;&gt;AppModule -->
<g id="edge8" class="edge">
<title>HighlightModule&#45;&gt;AppModule</title>
<path fill="none" stroke="black" d="M1497,-84.81C1497,-100.85 1497,-121.8 1497,-121.8 1497,-121.8 1287.93,-121.8 1287.93,-121.8"/>
<polygon fill="black" stroke="black" points="1287.93,-118.3 1277.93,-121.8 1287.93,-125.3 1287.93,-118.3"/>
</g>
<!-- InsightsModule -->
<g id="node9" class="node">
<title>InsightsModule</title>
<polygon fill="#8dd3c7" stroke="black" points="1421.89,-84.8 1418.89,-88.8 1397.89,-88.8 1394.89,-84.8 1318.11,-84.8 1318.11,-48.8 1421.89,-48.8 1421.89,-84.8"/>
<text text-anchor="middle" x="1370" y="-62.6" font-family="Times,serif" font-size="14.00">InsightsModule</text>
</g>
<!-- InsightsModule&#45;&gt;AppModule -->
<g id="edge9" class="edge">
<title>InsightsModule&#45;&gt;AppModule</title>
<path fill="none" stroke="black" d="M1370,-84.92C1370,-99.58 1370,-117.8 1370,-117.8 1370,-117.8 1287.66,-117.8 1287.66,-117.8"/>
<polygon fill="black" stroke="black" points="1287.66,-114.3 1277.66,-117.8 1287.66,-121.3 1287.66,-114.3"/>
</g>
<!-- PullRequestModule -->
<g id="node10" class="node">
<title>PullRequestModule</title>
<polygon fill="#8dd3c7" stroke="black" points="1299.72,-84.8 1296.72,-88.8 1275.72,-88.8 1272.72,-84.8 1172.28,-84.8 1172.28,-48.8 1299.72,-48.8 1299.72,-84.8"/>
<text text-anchor="middle" x="1236" y="-62.6" font-family="Times,serif" font-size="14.00">PullRequestModule</text>
</g>
<!-- PullRequestModule&#45;&gt;AppModule -->
<g id="edge10" class="edge">
<title>PullRequestModule&#45;&gt;AppModule</title>
<path fill="none" stroke="black" d="M1236,-84.91C1236,-84.91 1236,-103.79 1236,-103.79"/>
<polygon fill="black" stroke="black" points="1232.5,-103.79 1236,-113.79 1239.5,-103.79 1232.5,-103.79"/>
</g>
<!-- RepoModule -->
<g id="node11" class="node">
<title>RepoModule</title>
<polygon fill="#8dd3c7" stroke="black" points="1154.6,-84.8 1151.6,-88.8 1130.6,-88.8 1127.6,-84.8 1065.4,-84.8 1065.4,-48.8 1154.6,-48.8 1154.6,-84.8"/>
<text text-anchor="middle" x="1110" y="-62.6" font-family="Times,serif" font-size="14.00">RepoModule</text>
</g>
<!-- RepoModule&#45;&gt;AppModule -->
<g id="edge11" class="edge">
<title>RepoModule&#45;&gt;AppModule</title>
<path fill="none" stroke="black" d="M1110,-84.92C1110,-99.58 1110,-117.8 1110,-117.8 1110,-117.8 1184.04,-117.8 1184.04,-117.8"/>
<polygon fill="black" stroke="black" points="1184.04,-121.3 1194.04,-117.8 1184.04,-114.3 1184.04,-121.3"/>
</g>
<!-- StarModule -->
<g id="node12" class="node">
<title>StarModule</title>
<polygon fill="#8dd3c7" stroke="black" points="1047.1,-84.8 1044.1,-88.8 1023.1,-88.8 1020.1,-84.8 964.9,-84.8 964.9,-48.8 1047.1,-48.8 1047.1,-84.8"/>
<text text-anchor="middle" x="1006" y="-62.6" font-family="Times,serif" font-size="14.00">StarModule</text>
</g>
<!-- StarModule&#45;&gt;AppModule -->
<g id="edge12" class="edge">
<title>StarModule&#45;&gt;AppModule</title>
<path fill="none" stroke="black" d="M1006,-84.81C1006,-100.85 1006,-121.8 1006,-121.8 1006,-121.8 1184.08,-121.8 1184.08,-121.8"/>
<polygon fill="black" stroke="black" points="1184.08,-125.3 1194.08,-121.8 1184.08,-118.3 1184.08,-125.3"/>
</g>
<!-- StargazeModule -->
<g id="node13" class="node">
<title>StargazeModule</title>
<polygon fill="#8dd3c7" stroke="black" points="946.75,-84.8 943.75,-88.8 922.75,-88.8 919.75,-84.8 839.25,-84.8 839.25,-48.8 946.75,-48.8 946.75,-84.8"/>
<text text-anchor="middle" x="893" y="-62.6" font-family="Times,serif" font-size="14.00">StargazeModule</text>
</g>
<!-- StargazeModule&#45;&gt;AppModule -->
<g id="edge13" class="edge">
<title>StargazeModule&#45;&gt;AppModule</title>
<path fill="none" stroke="black" d="M893,-84.83C893,-101.86 893,-124.8 893,-124.8 893,-124.8 1184.28,-124.8 1184.28,-124.8"/>
<polygon fill="black" stroke="black" points="1184.28,-128.3 1194.28,-124.8 1184.28,-121.3 1184.28,-128.3"/>
</g>
<!-- StripeSubscriptionModule -->
<g id="node14" class="node">
<title>StripeSubscriptionModule</title>
<polygon fill="#8dd3c7" stroke="black" points="820.77,-84.8 817.77,-88.8 796.77,-88.8 793.77,-84.8 657.23,-84.8 657.23,-48.8 820.77,-48.8 820.77,-84.8"/>
<text text-anchor="middle" x="739" y="-62.6" font-family="Times,serif" font-size="14.00">StripeSubscriptionModule</text>
</g>
<!-- StripeSubscriptionModule&#45;&gt;AppModule -->
<g id="edge14" class="edge">
<title>StripeSubscriptionModule&#45;&gt;AppModule</title>
<path fill="none" stroke="black" d="M739,-85.07C739,-103.36 739,-128.8 739,-128.8 739,-128.8 1184.05,-128.8 1184.05,-128.8"/>
<polygon fill="black" stroke="black" points="1184.05,-132.3 1194.05,-128.8 1184.05,-125.3 1184.05,-132.3"/>
</g>
<!-- StripeWebHookModule -->
<g id="node15" class="node">
<title>StripeWebHookModule</title>
<polygon fill="#8dd3c7" stroke="black" points="639.03,-84.8 636.03,-88.8 615.03,-88.8 612.03,-84.8 488.97,-84.8 488.97,-48.8 639.03,-48.8 639.03,-84.8"/>
<text text-anchor="middle" x="564" y="-62.6" font-family="Times,serif" font-size="14.00">StripeWebHookModule</text>
</g>
<!-- StripeWebHookModule&#45;&gt;AppModule -->
<g id="edge15" class="edge">
<title>StripeWebHookModule&#45;&gt;AppModule</title>
<path fill="none" stroke="black" d="M564,-84.91C564,-104.14 564,-131.8 564,-131.8 564,-131.8 1184.22,-131.8 1184.22,-131.8"/>
<polygon fill="black" stroke="black" points="1184.22,-135.3 1194.22,-131.8 1184.22,-128.3 1184.22,-135.3"/>
</g>
<!-- SubmitModule -->
<g id="node16" class="node">
<title>SubmitModule</title>
<polygon fill="#8dd3c7" stroke="black" points="471.01,-84.8 468.01,-88.8 447.01,-88.8 444.01,-84.8 370.99,-84.8 370.99,-48.8 471.01,-48.8 471.01,-84.8"/>
<text text-anchor="middle" x="421" y="-62.6" font-family="Times,serif" font-size="14.00">SubmitModule</text>
</g>
<!-- SubmitModule&#45;&gt;AppModule -->
<g id="edge16" class="edge">
<title>SubmitModule&#45;&gt;AppModule</title>
<path fill="none" stroke="black" d="M421,-84.93C421,-105.37 421,-135.8 421,-135.8 421,-135.8 1184.18,-135.8 1184.18,-135.8"/>
<polygon fill="black" stroke="black" points="1184.18,-139.3 1194.18,-135.8 1184.18,-132.3 1184.18,-139.3"/>
</g>
<!-- UserModule -->
<g id="node17" class="node">
<title>UserModule</title>
<polygon fill="#8dd3c7" stroke="black" points="352.99,-84.8 349.99,-88.8 328.99,-88.8 325.99,-84.8 267.01,-84.8 267.01,-48.8 352.99,-48.8 352.99,-84.8"/>
<text text-anchor="middle" x="310" y="-62.6" font-family="Times,serif" font-size="14.00">UserModule</text>
</g>
<!-- UserModule&#45;&gt;AppModule -->
<g id="edge17" class="edge">
<title>UserModule&#45;&gt;AppModule</title>
<path fill="none" stroke="black" d="M310,-84.84C310,-106.46 310,-139.8 310,-139.8 310,-139.8 1184.11,-139.8 1184.11,-139.8"/>
<polygon fill="black" stroke="black" points="1184.11,-143.3 1194.11,-139.8 1184.11,-136.3 1184.11,-143.3"/>
</g>
<!-- UserReposModule -->
<g id="node18" class="node">
<title>UserReposModule</title>
<polygon fill="#8dd3c7" stroke="black" points="249.49,-84.8 246.49,-88.8 225.49,-88.8 222.49,-84.8 128.51,-84.8 128.51,-48.8 249.49,-48.8 249.49,-84.8"/>
<text text-anchor="middle" x="189" y="-62.6" font-family="Times,serif" font-size="14.00">UserReposModule</text>
</g>
<!-- UserReposModule&#45;&gt;AppModule -->
<g id="edge18" class="edge">
<title>UserReposModule&#45;&gt;AppModule</title>
<path fill="none" stroke="black" d="M189,-84.81C189,-107.29 189,-142.8 189,-142.8 189,-142.8 1184.31,-142.8 1184.31,-142.8"/>
<polygon fill="black" stroke="black" points="1184.31,-146.3 1194.31,-142.8 1184.31,-139.3 1184.31,-146.3"/>
</g>
<!-- VoteModule -->
<g id="node19" class="node">
<title>VoteModule</title>
<polygon fill="#8dd3c7" stroke="black" points="110.27,-84.8 107.27,-88.8 86.27,-88.8 83.27,-84.8 23.73,-84.8 23.73,-48.8 110.27,-48.8 110.27,-84.8"/>
<text text-anchor="middle" x="67" y="-62.6" font-family="Times,serif" font-size="14.00">VoteModule</text>
</g>
<!-- VoteModule&#45;&gt;AppModule -->
<g id="edge19" class="edge">
<title>VoteModule&#45;&gt;AppModule</title>
<path fill="none" stroke="black" d="M67,-84.95C67,-108.56 67,-146.8 67,-146.8 67,-146.8 1184.05,-146.8 1184.05,-146.8"/>
<polygon fill="black" stroke="black" points="1184.05,-150.3 1194.05,-146.8 1184.05,-143.3 1184.05,-150.3"/>
</g>
</g>
</svg>
