<?xml version="1.0" encoding="UTF-8" standalone="no"?>
<!DOCTYPE svg PUBLIC "-//W3C//DTD SVG 1.1//EN"
 "http://www.w3.org/Graphics/SVG/1.1/DTD/svg11.dtd">
<!-- Generated by graphviz version 3.0.0 (20220226.1711)
 -->
<!-- Title: dependencies Pages: 1 -->
<svg width="3198pt" height="174pt"
 viewBox="0.00 0.00 3198.00 173.80" xmlns="http://www.w3.org/2000/svg" xmlns:xlink="http://www.w3.org/1999/xlink">
<g id="graph0" class="graph" transform="scale(1 1) rotate(0) translate(4 169.8)">
<title>dependencies</title>
<polygon fill="white" stroke="transparent" points="-4,4 -4,-169.8 3194,-169.8 3194,4 -4,4"/>
<text text-anchor="middle" x="1595" y="-8.2" font-family="sans-serif" font-size="14.00">dependencies</text>
<g id="clust1" class="cluster">
<title>cluster_AppModule</title>
<polygon fill="none" stroke="black" stroke-dasharray="1,5" points="8,-32.8 8,-157.8 3182,-157.8 3182,-32.8 8,-32.8"/>
</g>
<g id="clust3" class="cluster">
<title>cluster_AppModule_imports</title>
<polygon fill="none" stroke="black" points="16,-40.8 16,-92.8 3174,-92.8 3174,-40.8 16,-40.8"/>
</g>
<!-- AuthModule -->
<g id="node1" class="node">
<title>AuthModule</title>
<polygon fill="#8dd3c7" stroke="black" points="3165.55,-84.8 3162.55,-88.8 3141.55,-88.8 3138.55,-84.8 3078.45,-84.8 3078.45,-48.8 3165.55,-48.8 3165.55,-84.8"/>
<text text-anchor="middle" x="3122" y="-62.6" font-family="Times,serif" font-size="14.00">AuthModule</text>
</g>
<!-- AppModule -->
<g id="node25" class="node">
<title>AppModule</title>
<polygon fill="#8dd3c7" stroke="black" points="1610.66,-149.8 1607.66,-153.8 1586.66,-153.8 1583.66,-149.8 1527.34,-149.8 1527.34,-113.8 1610.66,-113.8 1610.66,-149.8"/>
<text text-anchor="middle" x="1569" y="-127.6" font-family="Times,serif" font-size="14.00">AppModule</text>
</g>
<!-- AuthModule&#45;&gt;AppModule -->
<g id="edge1" class="edge">
<title>AuthModule&#45;&gt;AppModule</title>
<path fill="none" stroke="black" d="M3122,-84.95C3122,-108.56 3122,-146.8 3122,-146.8 3122,-146.8 1620.94,-146.8 1620.94,-146.8"/>
<polygon fill="black" stroke="black" points="1620.94,-143.3 1610.94,-146.8 1620.94,-150.3 1620.94,-143.3"/>
</g>
<!-- BlogSummaryModule -->
<g id="node2" class="node">
<title>BlogSummaryModule</title>
<polygon fill="#8dd3c7" stroke="black" points="3060.72,-84.8 3057.72,-88.8 3036.72,-88.8 3033.72,-84.8 2919.28,-84.8 2919.28,-48.8 3060.72,-48.8 3060.72,-84.8"/>
<text text-anchor="middle" x="2990" y="-62.6" font-family="Times,serif" font-size="14.00">BlogSummaryModule</text>
</g>
<!-- BlogSummaryModule&#45;&gt;AppModule -->
<g id="edge2" class="edge">
<title>BlogSummaryModule&#45;&gt;AppModule</title>
<path fill="none" stroke="black" d="M2990,-84.89C2990,-107.93 2990,-144.8 2990,-144.8 2990,-144.8 1620.76,-144.8 1620.76,-144.8"/>
<polygon fill="black" stroke="black" points="1620.76,-141.3 1610.76,-144.8 1620.76,-148.3 1620.76,-141.3"/>
</g>
<!-- ContributionModule -->
<g id="node3" class="node">
<title>ContributionModule</title>
<polygon fill="#8dd3c7" stroke="black" points="2901.61,-84.8 2898.61,-88.8 2877.61,-88.8 2874.61,-84.8 2770.39,-84.8 2770.39,-48.8 2901.61,-48.8 2901.61,-84.8"/>
<text text-anchor="middle" x="2836" y="-62.6" font-family="Times,serif" font-size="14.00">ContributionModule</text>
</g>
<!-- ContributionModule&#45;&gt;AppModule -->
<g id="edge3" class="edge">
<title>ContributionModule&#45;&gt;AppModule</title>
<path fill="none" stroke="black" d="M2836,-85.09C2836,-107.01 2836,-140.8 2836,-140.8 2836,-140.8 1620.79,-140.8 1620.79,-140.8"/>
<polygon fill="black" stroke="black" points="1620.79,-137.3 1610.79,-140.8 1620.79,-144.3 1620.79,-137.3"/>
</g>
<!-- ContributorModule -->
<g id="node4" class="node">
<title>ContributorModule</title>
<polygon fill="#8dd3c7" stroke="black" points="2752.38,-84.8 2749.38,-88.8 2728.38,-88.8 2725.38,-84.8 2627.62,-84.8 2627.62,-48.8 2752.38,-48.8 2752.38,-84.8"/>
<text text-anchor="middle" x="2690" y="-62.6" font-family="Times,serif" font-size="14.00">ContributorModule</text>
</g>
<!-- ContributorModule&#45;&gt;AppModule -->
<g id="edge4" class="edge">
<title>ContributorModule&#45;&gt;AppModule</title>
<path fill="none" stroke="black" d="M2690,-85.08C2690,-106.12 2690,-137.8 2690,-137.8 2690,-137.8 1620.9,-137.8 1620.9,-137.8"/>
<polygon fill="black" stroke="black" points="1620.9,-134.3 1610.9,-137.8 1620.9,-141.3 1620.9,-134.3"/>
</g>
<!-- CustomerModule -->
<g id="node5" class="node">
<title>CustomerModule</title>
<polygon fill="#8dd3c7" stroke="black" points="2609.99,-84.8 2606.99,-88.8 2585.99,-88.8 2582.99,-84.8 2496.01,-84.8 2496.01,-48.8 2609.99,-48.8 2609.99,-84.8"/>
<text text-anchor="middle" x="2553" y="-62.6" font-family="Times,serif" font-size="14.00">CustomerModule</text>
</g>
<!-- CustomerModule&#45;&gt;AppModule -->
<g id="edge5" class="edge">
<title>CustomerModule&#45;&gt;AppModule</title>
<path fill="none" stroke="black" d="M2553,-85.02C2553,-105.17 2553,-134.8 2553,-134.8 2553,-134.8 1620.97,-134.8 1620.97,-134.8"/>
<polygon fill="black" stroke="black" points="1620.97,-131.3 1610.97,-134.8 1620.97,-138.3 1620.97,-131.3"/>
</g>
<!-- EmojiModule -->
<g id="node6" class="node">
<title>EmojiModule</title>
<polygon fill="#8dd3c7" stroke="black" points="2477.77,-84.8 2474.77,-88.8 2453.77,-88.8 2450.77,-84.8 2384.23,-84.8 2384.23,-48.8 2477.77,-48.8 2477.77,-84.8"/>
<text text-anchor="middle" x="2431" y="-62.6" font-family="Times,serif" font-size="14.00">EmojiModule</text>
</g>
<!-- EmojiModule&#45;&gt;AppModule -->
<g id="edge6" class="edge">
<title>EmojiModule&#45;&gt;AppModule</title>
<path fill="none" stroke="black" d="M2431,-84.91C2431,-104.14 2431,-131.8 2431,-131.8 2431,-131.8 1620.87,-131.8 1620.87,-131.8"/>
<polygon fill="black" stroke="black" points="1620.87,-128.3 1610.87,-131.8 1620.87,-135.3 1620.87,-128.3"/>
</g>
<!-- EndorsementModule -->
<g id="node7" class="node">
<title>EndorsementModule</title>
<polygon fill="#8dd3c7" stroke="black" points="2365.92,-84.8 2362.92,-88.8 2341.92,-88.8 2338.92,-84.8 2232.08,-84.8 2232.08,-48.8 2365.92,-48.8 2365.92,-84.8"/>
<text text-anchor="middle" x="2299" y="-62.6" font-family="Times,serif" font-size="14.00">EndorsementModule</text>
</g>
<!-- EndorsementModule&#45;&gt;AppModule -->
<g id="edge7" class="edge">
<title>EndorsementModule&#45;&gt;AppModule</title>
<path fill="none" stroke="black" d="M2299,-85.02C2299,-103.63 2299,-129.8 2299,-129.8 2299,-129.8 1620.87,-129.8 1620.87,-129.8"/>
<polygon fill="black" stroke="black" points="1620.87,-126.3 1610.87,-129.8 1620.87,-133.3 1620.87,-126.3"/>
</g>
<!-- HealthModule -->
<g id="node8" class="node">
<title>HealthModule</title>
<polygon fill="#8dd3c7" stroke="black" points="2214.37,-84.8 2211.37,-88.8 2190.37,-88.8 2187.37,-84.8 2117.63,-84.8 2117.63,-48.8 2214.37,-48.8 2214.37,-84.8"/>
<text text-anchor="middle" x="2166" y="-62.6" font-family="Times,serif" font-size="14.00">HealthModule</text>
</g>
<!-- HealthModule&#45;&gt;AppModule -->
<g id="edge8" class="edge">
<title>HealthModule&#45;&gt;AppModule</title>
<path fill="none" stroke="black" d="M2166,-84.82C2166,-102.17 2166,-125.8 2166,-125.8 2166,-125.8 1620.98,-125.8 1620.98,-125.8"/>
<polygon fill="black" stroke="black" points="1620.98,-122.3 1610.98,-125.8 1620.98,-129.3 1620.98,-122.3"/>
</g>
<!-- HighlightModule -->
<g id="node9" class="node">
<title>HighlightModule</title>
<polygon fill="#8dd3c7" stroke="black" points="2099.72,-84.8 2096.72,-88.8 2075.72,-88.8 2072.72,-84.8 1986.28,-84.8 1986.28,-48.8 2099.72,-48.8 2099.72,-84.8"/>
<text text-anchor="middle" x="2043" y="-62.6" font-family="Times,serif" font-size="14.00">HighlightModule</text>
</g>
<!-- HighlightModule&#45;&gt;AppModule -->
<g id="edge9" class="edge">
<title>HighlightModule&#45;&gt;AppModule</title>
<path fill="none" stroke="black" d="M2043,-84.83C2043,-101.2 2043,-122.8 2043,-122.8 2043,-122.8 1621.06,-122.8 1621.06,-122.8"/>
<polygon fill="black" stroke="black" points="1621.06,-119.3 1611.06,-122.8 1621.06,-126.3 1621.06,-119.3"/>
</g>
<!-- InsightsModule -->
<g id="node10" class="node">
<title>InsightsModule</title>
<polygon fill="#8dd3c7" stroke="black" points="1967.89,-84.8 1964.89,-88.8 1943.89,-88.8 1940.89,-84.8 1864.11,-84.8 1864.11,-48.8 1967.89,-48.8 1967.89,-84.8"/>
<text text-anchor="middle" x="1916" y="-62.6" font-family="Times,serif" font-size="14.00">InsightsModule</text>
</g>
<!-- InsightsModule&#45;&gt;AppModule -->
<g id="edge10" class="edge">
<title>InsightsModule&#45;&gt;AppModule</title>
<path fill="none" stroke="black" d="M1916,-85.04C1916,-100.37 1916,-119.8 1916,-119.8 1916,-119.8 1620.86,-119.8 1620.86,-119.8"/>
<polygon fill="black" stroke="black" points="1620.86,-116.3 1610.86,-119.8 1620.86,-123.3 1620.86,-116.3"/>
</g>
<!-- IssueSummaryModule -->
<g id="node11" class="node">
<title>IssueSummaryModule</title>
<polygon fill="#8dd3c7" stroke="black" points="1846.27,-84.8 1843.27,-88.8 1822.27,-88.8 1819.27,-84.8 1703.73,-84.8 1703.73,-48.8 1846.27,-48.8 1846.27,-84.8"/>
<text text-anchor="middle" x="1775" y="-62.6" font-family="Times,serif" font-size="14.00">IssueSummaryModule</text>
</g>
<!-- IssueSummaryModule&#45;&gt;AppModule -->
<g id="edge11" class="edge">
<title>IssueSummaryModule&#45;&gt;AppModule</title>
<path fill="none" stroke="black" d="M1775,-84.85C1775,-99.17 1775,-116.8 1775,-116.8 1775,-116.8 1620.69,-116.8 1620.69,-116.8"/>
<polygon fill="black" stroke="black" points="1620.69,-113.3 1610.69,-116.8 1620.69,-120.3 1620.69,-113.3"/>
</g>
<!-- OpenAiModule -->
<g id="node12" class="node">
<title>OpenAiModule</title>
<polygon fill="#8dd3c7" stroke="black" points="1685.88,-84.8 1682.88,-88.8 1661.88,-88.8 1658.88,-84.8 1582.12,-84.8 1582.12,-48.8 1685.88,-48.8 1685.88,-84.8"/>
<text text-anchor="middle" x="1634" y="-62.6" font-family="Times,serif" font-size="14.00">OpenAiModule</text>
</g>
<!-- OpenAiModule&#45;&gt;AppModule -->
<g id="edge12" class="edge">
<title>OpenAiModule&#45;&gt;AppModule</title>
<path fill="none" stroke="black" d="M1596.45,-84.91C1596.45,-84.91 1596.45,-103.79 1596.45,-103.79"/>
<polygon fill="black" stroke="black" points="1592.95,-103.79 1596.45,-113.79 1599.95,-103.79 1592.95,-103.79"/>
</g>
<!-- PizzaOvenModule -->
<g id="node13" class="node">
<title>PizzaOvenModule</title>
<polygon fill="#8dd3c7" stroke="black" points="1564.19,-84.8 1561.19,-88.8 1540.19,-88.8 1537.19,-84.8 1443.81,-84.8 1443.81,-48.8 1564.19,-48.8 1564.19,-84.8"/>
<text text-anchor="middle" x="1504" y="-62.6" font-family="Times,serif" font-size="14.00">PizzaOvenModule</text>
</g>
<!-- PizzaOvenModule&#45;&gt;AppModule -->
<g id="edge13" class="edge">
<title>PizzaOvenModule&#45;&gt;AppModule</title>
<path fill="none" stroke="black" d="M1545.63,-84.91C1545.63,-84.91 1545.63,-103.79 1545.63,-103.79"/>
<polygon fill="black" stroke="black" points="1542.13,-103.79 1545.63,-113.79 1549.13,-103.79 1542.13,-103.79"/>
</g>
<!-- PullRequestModule -->
<g id="node14" class="node">
<title>PullRequestModule</title>
<polygon fill="#8dd3c7" stroke="black" points="1425.72,-84.8 1422.72,-88.8 1401.72,-88.8 1398.72,-84.8 1298.28,-84.8 1298.28,-48.8 1425.72,-48.8 1425.72,-84.8"/>
<text text-anchor="middle" x="1362" y="-62.6" font-family="Times,serif" font-size="14.00">PullRequestModule</text>
</g>
<!-- PullRequestModule&#45;&gt;AppModule -->
<g id="edge14" class="edge">
<title>PullRequestModule&#45;&gt;AppModule</title>
<path fill="none" stroke="black" d="M1362,-84.85C1362,-99.17 1362,-116.8 1362,-116.8 1362,-116.8 1517.11,-116.8 1517.11,-116.8"/>
<polygon fill="black" stroke="black" points="1517.11,-120.3 1527.11,-116.8 1517.11,-113.3 1517.11,-120.3"/>
</g>
<!-- RepoModule -->
<g id="node15" class="node">
<title>RepoModule</title>
<polygon fill="#8dd3c7" stroke="black" points="1280.6,-84.8 1277.6,-88.8 1256.6,-88.8 1253.6,-84.8 1191.4,-84.8 1191.4,-48.8 1280.6,-48.8 1280.6,-84.8"/>
<text text-anchor="middle" x="1236" y="-62.6" font-family="Times,serif" font-size="14.00">RepoModule</text>
</g>
<!-- RepoModule&#45;&gt;AppModule -->
<g id="edge15" class="edge">
<title>RepoModule&#45;&gt;AppModule</title>
<path fill="none" stroke="black" d="M1236,-85.04C1236,-100.37 1236,-119.8 1236,-119.8 1236,-119.8 1517.16,-119.8 1517.16,-119.8"/>
<polygon fill="black" stroke="black" points="1517.16,-123.3 1527.16,-119.8 1517.16,-116.3 1517.16,-123.3"/>
</g>
<!-- StarModule -->
<g id="node16" class="node">
<title>StarModule</title>
<polygon fill="#8dd3c7" stroke="black" points="1173.1,-84.8 1170.1,-88.8 1149.1,-88.8 1146.1,-84.8 1090.9,-84.8 1090.9,-48.8 1173.1,-48.8 1173.1,-84.8"/>
<text text-anchor="middle" x="1132" y="-62.6" font-family="Times,serif" font-size="14.00">StarModule</text>
</g>
<!-- StarModule&#45;&gt;AppModule -->
<g id="edge16" class="edge">
<title>StarModule&#45;&gt;AppModule</title>
<path fill="none" stroke="black" d="M1132,-84.83C1132,-101.2 1132,-122.8 1132,-122.8 1132,-122.8 1517.1,-122.8 1517.1,-122.8"/>
<polygon fill="black" stroke="black" points="1517.1,-126.3 1527.1,-122.8 1517.1,-119.3 1517.1,-126.3"/>
</g>
<!-- StargazeModule -->
<g id="node17" class="node">
<title>StargazeModule</title>
<polygon fill="#8dd3c7" stroke="black" points="1072.75,-84.8 1069.75,-88.8 1048.75,-88.8 1045.75,-84.8 965.25,-84.8 965.25,-48.8 1072.75,-48.8 1072.75,-84.8"/>
<text text-anchor="middle" x="1019" y="-62.6" font-family="Times,serif" font-size="14.00">StargazeModule</text>
</g>
<!-- StargazeModule&#45;&gt;AppModule -->
<g id="edge17" class="edge">
<title>StargazeModule&#45;&gt;AppModule</title>
<path fill="none" stroke="black" d="M1019,-84.82C1019,-102.17 1019,-125.8 1019,-125.8 1019,-125.8 1517.21,-125.8 1517.21,-125.8"/>
<polygon fill="black" stroke="black" points="1517.21,-129.3 1527.21,-125.8 1517.21,-122.3 1517.21,-129.3"/>
</g>
<!-- StripeSubscriptionModule -->
<g id="node18" class="node">
<title>StripeSubscriptionModule</title>
<polygon fill="#8dd3c7" stroke="black" points="946.77,-84.8 943.77,-88.8 922.77,-88.8 919.77,-84.8 783.23,-84.8 783.23,-48.8 946.77,-48.8 946.77,-84.8"/>
<text text-anchor="middle" x="865" y="-62.6" font-family="Times,serif" font-size="14.00">StripeSubscriptionModule</text>
</g>
<!-- StripeSubscriptionModule&#45;&gt;AppModule -->
<g id="edge18" class="edge">
<title>StripeSubscriptionModule&#45;&gt;AppModule</title>
<path fill="none" stroke="black" d="M865,-85.02C865,-103.63 865,-129.8 865,-129.8 865,-129.8 1517.33,-129.8 1517.33,-129.8"/>
<polygon fill="black" stroke="black" points="1517.33,-133.3 1527.33,-129.8 1517.33,-126.3 1517.33,-133.3"/>
</g>
<!-- StripeWebHookModule -->
<g id="node19" class="node">
<title>StripeWebHookModule</title>
<polygon fill="#8dd3c7" stroke="black" points="765.03,-84.8 762.03,-88.8 741.03,-88.8 738.03,-84.8 614.97,-84.8 614.97,-48.8 765.03,-48.8 765.03,-84.8"/>
<text text-anchor="middle" x="690" y="-62.6" font-family="Times,serif" font-size="14.00">StripeWebHookModule</text>
</g>
<!-- StripeWebHookModule&#45;&gt;AppModule -->
<g id="edge19" class="edge">
<title>StripeWebHookModule&#45;&gt;AppModule</title>
<path fill="none" stroke="black" d="M690,-84.91C690,-104.14 690,-131.8 690,-131.8 690,-131.8 1517.2,-131.8 1517.2,-131.8"/>
<polygon fill="black" stroke="black" points="1517.2,-135.3 1527.2,-131.8 1517.2,-128.3 1517.2,-135.3"/>
</g>
<!-- SubmitModule -->
<g id="node20" class="node">
<title>SubmitModule</title>
<polygon fill="#8dd3c7" stroke="black" points="597.01,-84.8 594.01,-88.8 573.01,-88.8 570.01,-84.8 496.99,-84.8 496.99,-48.8 597.01,-48.8 597.01,-84.8"/>
<text text-anchor="middle" x="547" y="-62.6" font-family="Times,serif" font-size="14.00">SubmitModule</text>
</g>
<!-- SubmitModule&#45;&gt;AppModule -->
<g id="edge20" class="edge">
<title>SubmitModule&#45;&gt;AppModule</title>
<path fill="none" stroke="black" d="M547,-85.02C547,-105.17 547,-134.8 547,-134.8 547,-134.8 1517.03,-134.8 1517.03,-134.8"/>
<polygon fill="black" stroke="black" points="1517.03,-138.3 1527.03,-134.8 1517.03,-131.3 1517.03,-138.3"/>
</g>
<!-- UserListModule -->
<g id="node21" class="node">
<title>UserListModule</title>
<polygon fill="#8dd3c7" stroke="black" points="478.77,-84.8 475.77,-88.8 454.77,-88.8 451.77,-84.8 371.23,-84.8 371.23,-48.8 478.77,-48.8 478.77,-84.8"/>
<text text-anchor="middle" x="425" y="-62.6" font-family="Times,serif" font-size="14.00">UserListModule</text>
</g>
<!-- UserListModule&#45;&gt;AppModule -->
<g id="edge21" class="edge">
<title>UserListModule&#45;&gt;AppModule</title>
<path fill="none" stroke="black" d="M425,-85.08C425,-106.12 425,-137.8 425,-137.8 425,-137.8 1517.27,-137.8 1517.27,-137.8"/>
<polygon fill="black" stroke="black" points="1517.27,-141.3 1527.27,-137.8 1517.27,-134.3 1517.27,-141.3"/>
</g>
<!-- UserModule -->
<g id="node22" class="node">
<title>UserModule</title>
<polygon fill="#8dd3c7" stroke="black" points="352.99,-84.8 349.99,-88.8 328.99,-88.8 325.99,-84.8 267.01,-84.8 267.01,-48.8 352.99,-48.8 352.99,-84.8"/>
<text text-anchor="middle" x="310" y="-62.6" font-family="Times,serif" font-size="14.00">UserModule</text>
</g>
<!-- UserModule&#45;&gt;AppModule -->
<g id="edge22" class="edge">
<title>UserModule&#45;&gt;AppModule</title>
<path fill="none" stroke="black" d="M310,-85.09C310,-107.01 310,-140.8 310,-140.8 310,-140.8 1517.11,-140.8 1517.11,-140.8"/>
<polygon fill="black" stroke="black" points="1517.11,-144.3 1527.11,-140.8 1517.11,-137.3 1517.11,-144.3"/>
</g>
<!-- UserReposModule -->
<g id="node23" class="node">
<title>UserReposModule</title>
<polygon fill="#8dd3c7" stroke="black" points="249.49,-84.8 246.49,-88.8 225.49,-88.8 222.49,-84.8 128.51,-84.8 128.51,-48.8 249.49,-48.8 249.49,-84.8"/>
<text text-anchor="middle" x="189" y="-62.6" font-family="Times,serif" font-size="14.00">UserReposModule</text>
</g>
<!-- UserReposModule&#45;&gt;AppModule -->
<g id="edge23" class="edge">
<title>UserReposModule&#45;&gt;AppModule</title>
<path fill="none" stroke="black" d="M189,-84.89C189,-107.93 189,-144.8 189,-144.8 189,-144.8 1517.32,-144.8 1517.32,-144.8"/>
<polygon fill="black" stroke="black" points="1517.32,-148.3 1527.32,-144.8 1517.32,-141.3 1517.32,-148.3"/>
</g>
<!-- VoteModule -->
<g id="node24" class="node">
<title>VoteModule</title>
<polygon fill="#8dd3c7" stroke="black" points="110.27,-84.8 107.27,-88.8 86.27,-88.8 83.27,-84.8 23.73,-84.8 23.73,-48.8 110.27,-48.8 110.27,-84.8"/>
<text text-anchor="middle" x="67" y="-62.6" font-family="Times,serif" font-size="14.00">VoteModule</text>
</g>
<!-- VoteModule&#45;&gt;AppModule -->
<g id="edge24" class="edge">
<title>VoteModule&#45;&gt;AppModule</title>
<path fill="none" stroke="black" d="M67,-84.95C67,-108.56 67,-146.8 67,-146.8 67,-146.8 1517.26,-146.8 1517.26,-146.8"/>
<polygon fill="black" stroke="black" points="1517.26,-150.3 1527.26,-146.8 1517.26,-143.3 1517.26,-150.3"/>
</g>
</g>
</svg>
