<?xml version="1.0" encoding="UTF-8" standalone="no"?>
<!DOCTYPE svg PUBLIC "-//W3C//DTD SVG 1.1//EN"
 "http://www.w3.org/Graphics/SVG/1.1/DTD/svg11.dtd">
<!-- Generated by graphviz version 3.0.0 (20220226.1711)
 -->
<!-- Title: dependencies Pages: 1 -->
<svg width="963pt" height="174pt"
 viewBox="0.00 0.00 963.00 173.80" xmlns="http://www.w3.org/2000/svg" xmlns:xlink="http://www.w3.org/1999/xlink">
<g id="graph0" class="graph" transform="scale(1 1) rotate(0) translate(4 169.8)">
<title>dependencies</title>
<polygon fill="white" stroke="transparent" points="-4,4 -4,-169.8 959,-169.8 959,4 -4,4"/>
<text text-anchor="middle" x="477.5" y="-8.2" font-family="sans-serif" font-size="14.00">dependencies</text>
<g id="clust1" class="cluster">
<title>cluster_AppModule</title>
<polygon fill="none" stroke="black" stroke-dasharray="1,5" points="8,-32.8 8,-157.8 947,-157.8 947,-32.8 8,-32.8"/>
</g>
<g id="clust3" class="cluster">
<title>cluster_AppModule_imports</title>
<polygon fill="none" stroke="black" points="16,-40.8 16,-92.8 939,-92.8 939,-40.8 16,-40.8"/>
</g>
<!-- AuthModule -->
<g id="node1" class="node">
<title>AuthModule</title>
<polygon fill="#8dd3c7" stroke="black" points="930.55,-84.8 927.55,-88.8 906.55,-88.8 903.55,-84.8 843.45,-84.8 843.45,-48.8 930.55,-48.8 930.55,-84.8"/>
<text text-anchor="middle" x="887" y="-62.6" font-family="Times,serif" font-size="14.00">AuthModule</text>
</g>
<!-- AppModule -->
<g id="node9" class="node">
<title>AppModule</title>
<polygon fill="#8dd3c7" stroke="black" points="506.66,-149.8 503.66,-153.8 482.66,-153.8 479.66,-149.8 423.34,-149.8 423.34,-113.8 506.66,-113.8 506.66,-149.8"/>
<text text-anchor="middle" x="465" y="-127.6" font-family="Times,serif" font-size="14.00">AppModule</text>
</g>
<!-- AuthModule&#45;&gt;AppModule -->
<g id="edge1" class="edge">
<title>AuthModule&#45;&gt;AppModule</title>
<path fill="none" stroke="black" d="M887,-85.09C887,-107.01 887,-140.8 887,-140.8 887,-140.8 517.01,-140.8 517.01,-140.8"/>
<polygon fill="black" stroke="black" points="517.01,-137.3 507.01,-140.8 517.01,-144.3 517.01,-137.3"/>
</g>
<!-- ContributionModule -->
<g id="node2" class="node">
<title>ContributionModule</title>
<polygon fill="#8dd3c7" stroke="black" points="825.61,-84.8 822.61,-88.8 801.61,-88.8 798.61,-84.8 694.39,-84.8 694.39,-48.8 825.61,-48.8 825.61,-84.8"/>
<text text-anchor="middle" x="760" y="-62.6" font-family="Times,serif" font-size="14.00">ContributionModule</text>
</g>
<!-- ContributionModule&#45;&gt;AppModule -->
<g id="edge2" class="edge">
<title>ContributionModule&#45;&gt;AppModule</title>
<path fill="none" stroke="black" d="M760,-84.91C760,-104.14 760,-131.8 760,-131.8 760,-131.8 516.95,-131.8 516.95,-131.8"/>
<polygon fill="black" stroke="black" points="516.95,-128.3 506.95,-131.8 516.95,-135.3 516.95,-128.3"/>
</g>
<!-- HealthModule -->
<g id="node3" class="node">
<title>HealthModule</title>
<polygon fill="#8dd3c7" stroke="black" points="676.37,-84.8 673.37,-88.8 652.37,-88.8 649.37,-84.8 579.63,-84.8 579.63,-48.8 676.37,-48.8 676.37,-84.8"/>
<text text-anchor="middle" x="628" y="-62.6" font-family="Times,serif" font-size="14.00">HealthModule</text>
</g>
<!-- HealthModule&#45;&gt;AppModule -->
<g id="edge3" class="edge">
<title>HealthModule&#45;&gt;AppModule</title>
<path fill="none" stroke="black" d="M628,-84.83C628,-101.2 628,-122.8 628,-122.8 628,-122.8 516.98,-122.8 516.98,-122.8"/>
<polygon fill="black" stroke="black" points="516.98,-119.3 506.98,-122.8 516.98,-126.3 516.98,-119.3"/>
</g>
<!-- RepoModule -->
<g id="node4" class="node">
<title>RepoModule</title>
<polygon fill="#8dd3c7" stroke="black" points="561.6,-84.8 558.6,-88.8 537.6,-88.8 534.6,-84.8 472.4,-84.8 472.4,-48.8 561.6,-48.8 561.6,-84.8"/>
<text text-anchor="middle" x="517" y="-62.6" font-family="Times,serif" font-size="14.00">RepoModule</text>
</g>
<!-- RepoModule&#45;&gt;AppModule -->
<g id="edge4" class="edge">
<title>RepoModule&#45;&gt;AppModule</title>
<path fill="none" stroke="black" d="M489.64,-84.91C489.64,-84.91 489.64,-103.79 489.64,-103.79"/>
<polygon fill="black" stroke="black" points="486.14,-103.79 489.64,-113.79 493.14,-103.79 486.14,-103.79"/>
</g>
<!-- StarModule -->
<g id="node5" class="node">
<title>StarModule</title>
<polygon fill="#8dd3c7" stroke="black" points="454.1,-84.8 451.1,-88.8 430.1,-88.8 427.1,-84.8 371.9,-84.8 371.9,-48.8 454.1,-48.8 454.1,-84.8"/>
<text text-anchor="middle" x="413" y="-62.6" font-family="Times,serif" font-size="14.00">StarModule</text>
</g>
<!-- StarModule&#45;&gt;AppModule -->
<g id="edge5" class="edge">
<title>StarModule&#45;&gt;AppModule</title>
<path fill="none" stroke="black" d="M438.61,-84.91C438.61,-84.91 438.61,-103.79 438.61,-103.79"/>
<polygon fill="black" stroke="black" points="435.11,-103.79 438.61,-113.79 442.11,-103.79 435.11,-103.79"/>
</g>
<!-- StargazeModule -->
<g id="node6" class="node">
<title>StargazeModule</title>
<polygon fill="#8dd3c7" stroke="black" points="353.75,-84.8 350.75,-88.8 329.75,-88.8 326.75,-84.8 246.25,-84.8 246.25,-48.8 353.75,-48.8 353.75,-84.8"/>
<text text-anchor="middle" x="300" y="-62.6" font-family="Times,serif" font-size="14.00">StargazeModule</text>
</g>
<!-- StargazeModule&#45;&gt;AppModule -->
<g id="edge6" class="edge">
<title>StargazeModule&#45;&gt;AppModule</title>
<path fill="none" stroke="black" d="M300,-84.83C300,-101.2 300,-122.8 300,-122.8 300,-122.8 412.94,-122.8 412.94,-122.8"/>
<polygon fill="black" stroke="black" points="412.94,-126.3 422.94,-122.8 412.94,-119.3 412.94,-126.3"/>
</g>
<!-- SubmitModule -->
<g id="node7" class="node">
<title>SubmitModule</title>
<polygon fill="#8dd3c7" stroke="black" points="228.01,-84.8 225.01,-88.8 204.01,-88.8 201.01,-84.8 127.99,-84.8 127.99,-48.8 228.01,-48.8 228.01,-84.8"/>
<text text-anchor="middle" x="178" y="-62.6" font-family="Times,serif" font-size="14.00">SubmitModule</text>
</g>
<!-- SubmitModule&#45;&gt;AppModule -->
<g id="edge7" class="edge">
<title>SubmitModule&#45;&gt;AppModule</title>
<path fill="none" stroke="black" d="M178,-84.91C178,-104.14 178,-131.8 178,-131.8 178,-131.8 413.27,-131.8 413.27,-131.8"/>
<polygon fill="black" stroke="black" points="413.27,-135.3 423.27,-131.8 413.27,-128.3 413.27,-135.3"/>
</g>
<!-- VoteModule -->
<g id="node8" class="node">
<title>VoteModule</title>
<polygon fill="#8dd3c7" stroke="black" points="110.27,-84.8 107.27,-88.8 86.27,-88.8 83.27,-84.8 23.73,-84.8 23.73,-48.8 110.27,-48.8 110.27,-84.8"/>
<text text-anchor="middle" x="67" y="-62.6" font-family="Times,serif" font-size="14.00">VoteModule</text>
</g>
<!-- VoteModule&#45;&gt;AppModule -->
<g id="edge8" class="edge">
<title>VoteModule&#45;&gt;AppModule</title>
<path fill="none" stroke="black" d="M67,-85.09C67,-107.01 67,-140.8 67,-140.8 67,-140.8 413.16,-140.8 413.16,-140.8"/>
<polygon fill="black" stroke="black" points="413.16,-144.3 423.16,-140.8 413.16,-137.3 413.16,-144.3"/>
</g>
</g>
</svg>
