<?xml version="1.0" encoding="UTF-8" standalone="no"?>
<!DOCTYPE svg PUBLIC "-//W3C//DTD SVG 1.1//EN"
 "http://www.w3.org/Graphics/SVG/1.1/DTD/svg11.dtd">
<!-- Generated by graphviz version 3.0.0 (20220226.1711)
 -->
<!-- Title: dependencies Pages: 1 -->
<svg width="3320pt" height="174pt"
 viewBox="0.00 0.00 3320.00 173.80" xmlns="http://www.w3.org/2000/svg" xmlns:xlink="http://www.w3.org/1999/xlink">
<g id="graph0" class="graph" transform="scale(1 1) rotate(0) translate(4 169.8)">
<title>dependencies</title>
<polygon fill="white" stroke="transparent" points="-4,4 -4,-169.8 3316,-169.8 3316,4 -4,4"/>
<text text-anchor="middle" x="1656" y="-8.2" font-family="sans-serif" font-size="14.00">dependencies</text>
<g id="clust1" class="cluster">
<title>cluster_AppModule</title>
<polygon fill="none" stroke="black" stroke-dasharray="1,5" points="8,-32.8 8,-157.8 3304,-157.8 3304,-32.8 8,-32.8"/>
</g>
<g id="clust3" class="cluster">
<title>cluster_AppModule_imports</title>
<polygon fill="none" stroke="black" points="16,-40.8 16,-92.8 3296,-92.8 3296,-40.8 16,-40.8"/>
</g>
<!-- AuthModule -->
<g id="node1" class="node">
<title>AuthModule</title>
<polygon fill="#8dd3c7" stroke="black" points="3287.55,-84.8 3284.55,-88.8 3263.55,-88.8 3260.55,-84.8 3200.45,-84.8 3200.45,-48.8 3287.55,-48.8 3287.55,-84.8"/>
<text text-anchor="middle" x="3244" y="-62.6" font-family="Times,serif" font-size="14.00">AuthModule</text>
</g>
<!-- AppModule -->
<g id="node26" class="node">
<title>AppModule</title>
<polygon fill="#8dd3c7" stroke="black" points="1675.66,-149.8 1672.66,-153.8 1651.66,-153.8 1648.66,-149.8 1592.34,-149.8 1592.34,-113.8 1675.66,-113.8 1675.66,-149.8"/>
<text text-anchor="middle" x="1634" y="-127.6" font-family="Times,serif" font-size="14.00">AppModule</text>
</g>
<!-- AuthModule&#45;&gt;AppModule -->
<g id="edge1" class="edge">
<title>AuthModule&#45;&gt;AppModule</title>
<path fill="none" stroke="black" d="M3244,-85.18C3244,-109.08 3244,-147.8 3244,-147.8 3244,-147.8 1685.83,-147.8 1685.83,-147.8"/>
<polygon fill="black" stroke="black" points="1685.83,-144.3 1675.83,-147.8 1685.83,-151.3 1685.83,-144.3"/>
</g>
<!-- BlogSummaryModule -->
<g id="node2" class="node">
<title>BlogSummaryModule</title>
<polygon fill="#8dd3c7" stroke="black" points="3182.72,-84.8 3179.72,-88.8 3158.72,-88.8 3155.72,-84.8 3041.28,-84.8 3041.28,-48.8 3182.72,-48.8 3182.72,-84.8"/>
<text text-anchor="middle" x="3112" y="-62.6" font-family="Times,serif" font-size="14.00">BlogSummaryModule</text>
</g>
<!-- BlogSummaryModule&#45;&gt;AppModule -->
<g id="edge2" class="edge">
<title>BlogSummaryModule&#45;&gt;AppModule</title>
<path fill="none" stroke="black" d="M3112,-84.89C3112,-107.93 3112,-144.8 3112,-144.8 3112,-144.8 1685.85,-144.8 1685.85,-144.8"/>
<polygon fill="black" stroke="black" points="1685.85,-141.3 1675.85,-144.8 1685.85,-148.3 1685.85,-141.3"/>
</g>
<!-- ContributionModule -->
<g id="node3" class="node">
<title>ContributionModule</title>
<polygon fill="#8dd3c7" stroke="black" points="3023.61,-84.8 3020.61,-88.8 2999.61,-88.8 2996.61,-84.8 2892.39,-84.8 2892.39,-48.8 3023.61,-48.8 3023.61,-84.8"/>
<text text-anchor="middle" x="2958" y="-62.6" font-family="Times,serif" font-size="14.00">ContributionModule</text>
</g>
<!-- ContributionModule&#45;&gt;AppModule -->
<g id="edge3" class="edge">
<title>ContributionModule&#45;&gt;AppModule</title>
<path fill="none" stroke="black" d="M2958,-84.96C2958,-107.15 2958,-141.8 2958,-141.8 2958,-141.8 1685.81,-141.8 1685.81,-141.8"/>
<polygon fill="black" stroke="black" points="1685.81,-138.3 1675.81,-141.8 1685.81,-145.3 1685.81,-138.3"/>
</g>
<!-- ContributorModule -->
<g id="node4" class="node">
<title>ContributorModule</title>
<polygon fill="#8dd3c7" stroke="black" points="2874.38,-84.8 2871.38,-88.8 2850.38,-88.8 2847.38,-84.8 2749.62,-84.8 2749.62,-48.8 2874.38,-48.8 2874.38,-84.8"/>
<text text-anchor="middle" x="2812" y="-62.6" font-family="Times,serif" font-size="14.00">ContributorModule</text>
</g>
<!-- ContributorModule&#45;&gt;AppModule -->
<g id="edge4" class="edge">
<title>ContributorModule&#45;&gt;AppModule</title>
<path fill="none" stroke="black" d="M2812,-84.97C2812,-106.3 2812,-138.8 2812,-138.8 2812,-138.8 1685.93,-138.8 1685.93,-138.8"/>
<polygon fill="black" stroke="black" points="1685.93,-135.3 1675.93,-138.8 1685.93,-142.3 1685.93,-135.3"/>
</g>
<!-- CouponModule -->
<g id="node5" class="node">
<title>CouponModule</title>
<polygon fill="#8dd3c7" stroke="black" points="2731.89,-84.8 2728.89,-88.8 2707.89,-88.8 2704.89,-84.8 2628.11,-84.8 2628.11,-48.8 2731.89,-48.8 2731.89,-84.8"/>
<text text-anchor="middle" x="2680" y="-62.6" font-family="Times,serif" font-size="14.00">CouponModule</text>
</g>
<!-- CouponModule&#45;&gt;AppModule -->
<g id="edge5" class="edge">
<title>CouponModule&#45;&gt;AppModule</title>
<path fill="none" stroke="black" d="M2680,-84.83C2680,-105.57 2680,-136.8 2680,-136.8 2680,-136.8 1685.97,-136.8 1685.97,-136.8"/>
<polygon fill="black" stroke="black" points="1685.97,-133.3 1675.97,-136.8 1685.97,-140.3 1685.97,-133.3"/>
</g>
<!-- CustomerModule -->
<g id="node6" class="node">
<title>CustomerModule</title>
<polygon fill="#8dd3c7" stroke="black" points="2609.99,-84.8 2606.99,-88.8 2585.99,-88.8 2582.99,-84.8 2496.01,-84.8 2496.01,-48.8 2609.99,-48.8 2609.99,-84.8"/>
<text text-anchor="middle" x="2553" y="-62.6" font-family="Times,serif" font-size="14.00">CustomerModule</text>
</g>
<!-- CustomerModule&#45;&gt;AppModule -->
<g id="edge6" class="edge">
<title>CustomerModule&#45;&gt;AppModule</title>
<path fill="none" stroke="black" d="M2553,-85.11C2553,-104.95 2553,-133.8 2553,-133.8 2553,-133.8 1685.88,-133.8 1685.88,-133.8"/>
<polygon fill="black" stroke="black" points="1685.88,-130.3 1675.88,-133.8 1685.88,-137.3 1685.88,-130.3"/>
</g>
<!-- EmojiModule -->
<g id="node7" class="node">
<title>EmojiModule</title>
<polygon fill="#8dd3c7" stroke="black" points="2477.77,-84.8 2474.77,-88.8 2453.77,-88.8 2450.77,-84.8 2384.23,-84.8 2384.23,-48.8 2477.77,-48.8 2477.77,-84.8"/>
<text text-anchor="middle" x="2431" y="-62.6" font-family="Times,serif" font-size="14.00">EmojiModule</text>
</g>
<!-- EmojiModule&#45;&gt;AppModule -->
<g id="edge7" class="edge">
<title>EmojiModule&#45;&gt;AppModule</title>
<path fill="none" stroke="black" d="M2431,-84.97C2431,-103.89 2431,-130.8 2431,-130.8 2431,-130.8 1685.73,-130.8 1685.73,-130.8"/>
<polygon fill="black" stroke="black" points="1685.73,-127.3 1675.73,-130.8 1685.73,-134.3 1685.73,-127.3"/>
</g>
<!-- EndorsementModule -->
<g id="node8" class="node">
<title>EndorsementModule</title>
<polygon fill="#8dd3c7" stroke="black" points="2365.92,-84.8 2362.92,-88.8 2341.92,-88.8 2338.92,-84.8 2232.08,-84.8 2232.08,-48.8 2365.92,-48.8 2365.92,-84.8"/>
<text text-anchor="middle" x="2299" y="-62.6" font-family="Times,serif" font-size="14.00">EndorsementModule</text>
</g>
<!-- EndorsementModule&#45;&gt;AppModule -->
<g id="edge8" class="edge">
<title>EndorsementModule&#45;&gt;AppModule</title>
<path fill="none" stroke="black" d="M2299,-85.1C2299,-103.07 2299,-127.8 2299,-127.8 2299,-127.8 1685.85,-127.8 1685.85,-127.8"/>
<polygon fill="black" stroke="black" points="1685.85,-124.3 1675.85,-127.8 1685.85,-131.3 1685.85,-124.3"/>
</g>
<!-- HealthModule -->
<g id="node9" class="node">
<title>HealthModule</title>
<polygon fill="#8dd3c7" stroke="black" points="2214.37,-84.8 2211.37,-88.8 2190.37,-88.8 2187.37,-84.8 2117.63,-84.8 2117.63,-48.8 2214.37,-48.8 2214.37,-84.8"/>
<text text-anchor="middle" x="2166" y="-62.6" font-family="Times,serif" font-size="14.00">HealthModule</text>
</g>
<!-- HealthModule&#45;&gt;AppModule -->
<g id="edge9" class="edge">
<title>HealthModule&#45;&gt;AppModule</title>
<path fill="none" stroke="black" d="M2166,-84.82C2166,-102.17 2166,-125.8 2166,-125.8 2166,-125.8 1685.75,-125.8 1685.75,-125.8"/>
<polygon fill="black" stroke="black" points="1685.75,-122.3 1675.75,-125.8 1685.75,-129.3 1685.75,-122.3"/>
</g>
<!-- HighlightModule -->
<g id="node10" class="node">
<title>HighlightModule</title>
<polygon fill="#8dd3c7" stroke="black" points="2099.72,-84.8 2096.72,-88.8 2075.72,-88.8 2072.72,-84.8 1986.28,-84.8 1986.28,-48.8 2099.72,-48.8 2099.72,-84.8"/>
<text text-anchor="middle" x="2043" y="-62.6" font-family="Times,serif" font-size="14.00">HighlightModule</text>
</g>
<!-- HighlightModule&#45;&gt;AppModule -->
<g id="edge10" class="edge">
<title>HighlightModule&#45;&gt;AppModule</title>
<path fill="none" stroke="black" d="M2043,-84.83C2043,-101.2 2043,-122.8 2043,-122.8 2043,-122.8 1685.85,-122.8 1685.85,-122.8"/>
<polygon fill="black" stroke="black" points="1685.85,-119.3 1675.85,-122.8 1685.85,-126.3 1685.85,-119.3"/>
</g>
<!-- InsightsModule -->
<g id="node11" class="node">
<title>InsightsModule</title>
<polygon fill="#8dd3c7" stroke="black" points="1967.89,-84.8 1964.89,-88.8 1943.89,-88.8 1940.89,-84.8 1864.11,-84.8 1864.11,-48.8 1967.89,-48.8 1967.89,-84.8"/>
<text text-anchor="middle" x="1916" y="-62.6" font-family="Times,serif" font-size="14.00">InsightsModule</text>
</g>
<!-- InsightsModule&#45;&gt;AppModule -->
<g id="edge11" class="edge">
<title>InsightsModule&#45;&gt;AppModule</title>
<path fill="none" stroke="black" d="M1916,-85.04C1916,-100.37 1916,-119.8 1916,-119.8 1916,-119.8 1685.91,-119.8 1685.91,-119.8"/>
<polygon fill="black" stroke="black" points="1685.91,-116.3 1675.91,-119.8 1685.91,-123.3 1685.91,-116.3"/>
</g>
<!-- IssueSummaryModule -->
<g id="node12" class="node">
<title>IssueSummaryModule</title>
<polygon fill="#8dd3c7" stroke="black" points="1846.27,-84.8 1843.27,-88.8 1822.27,-88.8 1819.27,-84.8 1703.73,-84.8 1703.73,-48.8 1846.27,-48.8 1846.27,-84.8"/>
<text text-anchor="middle" x="1775" y="-62.6" font-family="Times,serif" font-size="14.00">IssueSummaryModule</text>
</g>
<!-- IssueSummaryModule&#45;&gt;AppModule -->
<g id="edge12" class="edge">
<title>IssueSummaryModule&#45;&gt;AppModule</title>
<path fill="none" stroke="black" d="M1775,-84.85C1775,-99.17 1775,-116.8 1775,-116.8 1775,-116.8 1685.92,-116.8 1685.92,-116.8"/>
<polygon fill="black" stroke="black" points="1685.92,-113.3 1675.92,-116.8 1685.92,-120.3 1685.92,-113.3"/>
</g>
<!-- OpenAiModule -->
<g id="node13" class="node">
<title>OpenAiModule</title>
<polygon fill="#8dd3c7" stroke="black" points="1685.88,-84.8 1682.88,-88.8 1661.88,-88.8 1658.88,-84.8 1582.12,-84.8 1582.12,-48.8 1685.88,-48.8 1685.88,-84.8"/>
<text text-anchor="middle" x="1634" y="-62.6" font-family="Times,serif" font-size="14.00">OpenAiModule</text>
</g>
<!-- OpenAiModule&#45;&gt;AppModule -->
<g id="edge13" class="edge">
<title>OpenAiModule&#45;&gt;AppModule</title>
<path fill="none" stroke="black" d="M1634,-84.91C1634,-84.91 1634,-103.79 1634,-103.79"/>
<polygon fill="black" stroke="black" points="1630.5,-103.79 1634,-113.79 1637.5,-103.79 1630.5,-103.79"/>
</g>
<!-- PizzaOvenModule -->
<g id="node14" class="node">
<title>PizzaOvenModule</title>
<polygon fill="#8dd3c7" stroke="black" points="1564.19,-84.8 1561.19,-88.8 1540.19,-88.8 1537.19,-84.8 1443.81,-84.8 1443.81,-48.8 1564.19,-48.8 1564.19,-84.8"/>
<text text-anchor="middle" x="1504" y="-62.6" font-family="Times,serif" font-size="14.00">PizzaOvenModule</text>
</g>
<!-- PizzaOvenModule&#45;&gt;AppModule -->
<g id="edge14" class="edge">
<title>PizzaOvenModule&#45;&gt;AppModule</title>
<path fill="none" stroke="black" d="M1504,-84.85C1504,-99.17 1504,-116.8 1504,-116.8 1504,-116.8 1582.15,-116.8 1582.15,-116.8"/>
<polygon fill="black" stroke="black" points="1582.15,-120.3 1592.15,-116.8 1582.15,-113.3 1582.15,-120.3"/>
</g>
<!-- PullRequestModule -->
<g id="node15" class="node">
<title>PullRequestModule</title>
<polygon fill="#8dd3c7" stroke="black" points="1425.72,-84.8 1422.72,-88.8 1401.72,-88.8 1398.72,-84.8 1298.28,-84.8 1298.28,-48.8 1425.72,-48.8 1425.72,-84.8"/>
<text text-anchor="middle" x="1362" y="-62.6" font-family="Times,serif" font-size="14.00">PullRequestModule</text>
</g>
<!-- PullRequestModule&#45;&gt;AppModule -->
<g id="edge15" class="edge">
<title>PullRequestModule&#45;&gt;AppModule</title>
<path fill="none" stroke="black" d="M1362,-85.04C1362,-100.37 1362,-119.8 1362,-119.8 1362,-119.8 1582.1,-119.8 1582.1,-119.8"/>
<polygon fill="black" stroke="black" points="1582.1,-123.3 1592.1,-119.8 1582.1,-116.3 1582.1,-123.3"/>
</g>
<!-- RepoModule -->
<g id="node16" class="node">
<title>RepoModule</title>
<polygon fill="#8dd3c7" stroke="black" points="1280.6,-84.8 1277.6,-88.8 1256.6,-88.8 1253.6,-84.8 1191.4,-84.8 1191.4,-48.8 1280.6,-48.8 1280.6,-84.8"/>
<text text-anchor="middle" x="1236" y="-62.6" font-family="Times,serif" font-size="14.00">RepoModule</text>
</g>
<!-- RepoModule&#45;&gt;AppModule -->
<g id="edge16" class="edge">
<title>RepoModule&#45;&gt;AppModule</title>
<path fill="none" stroke="black" d="M1236,-84.83C1236,-101.2 1236,-122.8 1236,-122.8 1236,-122.8 1582.16,-122.8 1582.16,-122.8"/>
<polygon fill="black" stroke="black" points="1582.16,-126.3 1592.16,-122.8 1582.16,-119.3 1582.16,-126.3"/>
</g>
<!-- StarModule -->
<g id="node17" class="node">
<title>StarModule</title>
<polygon fill="#8dd3c7" stroke="black" points="1173.1,-84.8 1170.1,-88.8 1149.1,-88.8 1146.1,-84.8 1090.9,-84.8 1090.9,-48.8 1173.1,-48.8 1173.1,-84.8"/>
<text text-anchor="middle" x="1132" y="-62.6" font-family="Times,serif" font-size="14.00">StarModule</text>
</g>
<!-- StarModule&#45;&gt;AppModule -->
<g id="edge17" class="edge">
<title>StarModule&#45;&gt;AppModule</title>
<path fill="none" stroke="black" d="M1132,-84.82C1132,-102.17 1132,-125.8 1132,-125.8 1132,-125.8 1582.06,-125.8 1582.06,-125.8"/>
<polygon fill="black" stroke="black" points="1582.06,-129.3 1592.06,-125.8 1582.06,-122.3 1582.06,-129.3"/>
</g>
<!-- StargazeModule -->
<g id="node18" class="node">
<title>StargazeModule</title>
<polygon fill="#8dd3c7" stroke="black" points="1072.75,-84.8 1069.75,-88.8 1048.75,-88.8 1045.75,-84.8 965.25,-84.8 965.25,-48.8 1072.75,-48.8 1072.75,-84.8"/>
<text text-anchor="middle" x="1019" y="-62.6" font-family="Times,serif" font-size="14.00">StargazeModule</text>
</g>
<!-- StargazeModule&#45;&gt;AppModule -->
<g id="edge18" class="edge">
<title>StargazeModule&#45;&gt;AppModule</title>
<path fill="none" stroke="black" d="M1019,-85.1C1019,-103.07 1019,-127.8 1019,-127.8 1019,-127.8 1582.21,-127.8 1582.21,-127.8"/>
<polygon fill="black" stroke="black" points="1582.21,-131.3 1592.21,-127.8 1582.21,-124.3 1582.21,-131.3"/>
</g>
<!-- StripeSubscriptionModule -->
<g id="node19" class="node">
<title>StripeSubscriptionModule</title>
<polygon fill="#8dd3c7" stroke="black" points="946.77,-84.8 943.77,-88.8 922.77,-88.8 919.77,-84.8 783.23,-84.8 783.23,-48.8 946.77,-48.8 946.77,-84.8"/>
<text text-anchor="middle" x="865" y="-62.6" font-family="Times,serif" font-size="14.00">StripeSubscriptionModule</text>
</g>
<!-- StripeSubscriptionModule&#45;&gt;AppModule -->
<g id="edge19" class="edge">
<title>StripeSubscriptionModule&#45;&gt;AppModule</title>
<path fill="none" stroke="black" d="M865,-84.97C865,-103.89 865,-130.8 865,-130.8 865,-130.8 1582.11,-130.8 1582.11,-130.8"/>
<polygon fill="black" stroke="black" points="1582.11,-134.3 1592.11,-130.8 1582.11,-127.3 1582.11,-134.3"/>
</g>
<!-- StripeWebHookModule -->
<g id="node20" class="node">
<title>StripeWebHookModule</title>
<polygon fill="#8dd3c7" stroke="black" points="765.03,-84.8 762.03,-88.8 741.03,-88.8 738.03,-84.8 614.97,-84.8 614.97,-48.8 765.03,-48.8 765.03,-84.8"/>
<text text-anchor="middle" x="690" y="-62.6" font-family="Times,serif" font-size="14.00">StripeWebHookModule</text>
</g>
<!-- StripeWebHookModule&#45;&gt;AppModule -->
<g id="edge20" class="edge">
<title>StripeWebHookModule&#45;&gt;AppModule</title>
<path fill="none" stroke="black" d="M690,-85.11C690,-104.95 690,-133.8 690,-133.8 690,-133.8 1582.22,-133.8 1582.22,-133.8"/>
<polygon fill="black" stroke="black" points="1582.22,-137.3 1592.22,-133.8 1582.22,-130.3 1582.22,-137.3"/>
</g>
<!-- SubmitModule -->
<g id="node21" class="node">
<title>SubmitModule</title>
<polygon fill="#8dd3c7" stroke="black" points="597.01,-84.8 594.01,-88.8 573.01,-88.8 570.01,-84.8 496.99,-84.8 496.99,-48.8 597.01,-48.8 597.01,-84.8"/>
<text text-anchor="middle" x="547" y="-62.6" font-family="Times,serif" font-size="14.00">SubmitModule</text>
</g>
<!-- SubmitModule&#45;&gt;AppModule -->
<g id="edge21" class="edge">
<title>SubmitModule&#45;&gt;AppModule</title>
<path fill="none" stroke="black" d="M547,-84.83C547,-105.57 547,-136.8 547,-136.8 547,-136.8 1582.05,-136.8 1582.05,-136.8"/>
<polygon fill="black" stroke="black" points="1582.05,-140.3 1592.05,-136.8 1582.05,-133.3 1582.05,-140.3"/>
</g>
<!-- UserListModule -->
<g id="node22" class="node">
<title>UserListModule</title>
<polygon fill="#8dd3c7" stroke="black" points="478.77,-84.8 475.77,-88.8 454.77,-88.8 451.77,-84.8 371.23,-84.8 371.23,-48.8 478.77,-48.8 478.77,-84.8"/>
<text text-anchor="middle" x="425" y="-62.6" font-family="Times,serif" font-size="14.00">UserListModule</text>
</g>
<!-- UserListModule&#45;&gt;AppModule -->
<g id="edge22" class="edge">
<title>UserListModule&#45;&gt;AppModule</title>
<path fill="none" stroke="black" d="M425,-84.97C425,-106.3 425,-138.8 425,-138.8 425,-138.8 1582.03,-138.8 1582.03,-138.8"/>
<polygon fill="black" stroke="black" points="1582.03,-142.3 1592.03,-138.8 1582.03,-135.3 1582.03,-142.3"/>
</g>
<!-- UserModule -->
<g id="node23" class="node">
<title>UserModule</title>
<polygon fill="#8dd3c7" stroke="black" points="352.99,-84.8 349.99,-88.8 328.99,-88.8 325.99,-84.8 267.01,-84.8 267.01,-48.8 352.99,-48.8 352.99,-84.8"/>
<text text-anchor="middle" x="310" y="-62.6" font-family="Times,serif" font-size="14.00">UserModule</text>
</g>
<!-- UserModule&#45;&gt;AppModule -->
<g id="edge23" class="edge">
<title>UserModule&#45;&gt;AppModule</title>
<path fill="none" stroke="black" d="M310,-84.96C310,-107.15 310,-141.8 310,-141.8 310,-141.8 1582.19,-141.8 1582.19,-141.8"/>
<polygon fill="black" stroke="black" points="1582.19,-145.3 1592.19,-141.8 1582.19,-138.3 1582.19,-145.3"/>
</g>
<!-- UserReposModule -->
<g id="node24" class="node">
<title>UserReposModule</title>
<polygon fill="#8dd3c7" stroke="black" points="249.49,-84.8 246.49,-88.8 225.49,-88.8 222.49,-84.8 128.51,-84.8 128.51,-48.8 249.49,-48.8 249.49,-84.8"/>
<text text-anchor="middle" x="189" y="-62.6" font-family="Times,serif" font-size="14.00">UserReposModule</text>
</g>
<!-- UserReposModule&#45;&gt;AppModule -->
<g id="edge24" class="edge">
<title>UserReposModule&#45;&gt;AppModule</title>
<path fill="none" stroke="black" d="M189,-84.89C189,-107.93 189,-144.8 189,-144.8 189,-144.8 1582.31,-144.8 1582.31,-144.8"/>
<polygon fill="black" stroke="black" points="1582.31,-148.3 1592.31,-144.8 1582.31,-141.3 1582.31,-148.3"/>
</g>
<!-- VoteModule -->
<g id="node25" class="node">
<title>VoteModule</title>
<polygon fill="#8dd3c7" stroke="black" points="110.27,-84.8 107.27,-88.8 86.27,-88.8 83.27,-84.8 23.73,-84.8 23.73,-48.8 110.27,-48.8 110.27,-84.8"/>
<text text-anchor="middle" x="67" y="-62.6" font-family="Times,serif" font-size="14.00">VoteModule</text>
</g>
<!-- VoteModule&#45;&gt;AppModule -->
<g id="edge25" class="edge">
<title>VoteModule&#45;&gt;AppModule</title>
<path fill="none" stroke="black" d="M67,-85.18C67,-109.08 67,-147.8 67,-147.8 67,-147.8 1582.09,-147.8 1582.09,-147.8"/>
<polygon fill="black" stroke="black" points="1582.09,-151.3 1592.09,-147.8 1582.09,-144.3 1582.09,-151.3"/>
</g>
</g>
</svg>
