<?xml version="1.0" encoding="UTF-8" standalone="no"?>
<!DOCTYPE svg PUBLIC "-//W3C//DTD SVG 1.1//EN"
 "http://www.w3.org/Graphics/SVG/1.1/DTD/svg11.dtd">
<!-- Generated by graphviz version 3.0.0 (20220226.1711)
 -->
<!-- Title: dependencies Pages: 1 -->
<svg width="3555pt" height="174pt"
 viewBox="0.00 0.00 3555.00 173.80" xmlns="http://www.w3.org/2000/svg" xmlns:xlink="http://www.w3.org/1999/xlink">
<g id="graph0" class="graph" transform="scale(1 1) rotate(0) translate(4 169.8)">
<title>dependencies</title>
<polygon fill="white" stroke="transparent" points="-4,4 -4,-169.8 3551,-169.8 3551,4 -4,4"/>
<text text-anchor="middle" x="1773.5" y="-8.2" font-family="sans-serif" font-size="14.00">dependencies</text>
<g id="clust1" class="cluster">
<title>cluster_AppModule</title>
<polygon fill="none" stroke="black" stroke-dasharray="1,5" points="8,-32.8 8,-157.8 3539,-157.8 3539,-32.8 8,-32.8"/>
</g>
<g id="clust3" class="cluster">
<title>cluster_AppModule_imports</title>
<polygon fill="none" stroke="black" points="16,-40.8 16,-92.8 3531,-92.8 3531,-40.8 16,-40.8"/>
</g>
<!-- AuthModule -->
<g id="node1" class="node">
<title>AuthModule</title>
<polygon fill="#8dd3c7" stroke="black" points="3522.55,-84.8 3519.55,-88.8 3498.55,-88.8 3495.55,-84.8 3435.45,-84.8 3435.45,-48.8 3522.55,-48.8 3522.55,-84.8"/>
<text text-anchor="middle" x="3479" y="-62.6" font-family="Times,serif" font-size="14.00">AuthModule</text>
</g>
<!-- AppModule -->
<g id="node28" class="node">
<title>AppModule</title>
<polygon fill="#8dd3c7" stroke="black" points="1810.66,-149.8 1807.66,-153.8 1786.66,-153.8 1783.66,-149.8 1727.34,-149.8 1727.34,-113.8 1810.66,-113.8 1810.66,-149.8"/>
<text text-anchor="middle" x="1769" y="-127.6" font-family="Times,serif" font-size="14.00">AppModule</text>
</g>
<!-- AuthModule&#45;&gt;AppModule -->
<g id="edge1" class="edge">
<title>AuthModule&#45;&gt;AppModule</title>
<path fill="none" stroke="black" d="M3479,-85.18C3479,-109.08 3479,-147.8 3479,-147.8 3479,-147.8 1820.85,-147.8 1820.85,-147.8"/>
<polygon fill="black" stroke="black" points="1820.85,-144.3 1810.85,-147.8 1820.85,-151.3 1820.85,-144.3"/>
</g>
<!-- BlogSummaryModule -->
<g id="node2" class="node">
<title>BlogSummaryModule</title>
<polygon fill="#8dd3c7" stroke="black" points="3417.72,-84.8 3414.72,-88.8 3393.72,-88.8 3390.72,-84.8 3276.28,-84.8 3276.28,-48.8 3417.72,-48.8 3417.72,-84.8"/>
<text text-anchor="middle" x="3347" y="-62.6" font-family="Times,serif" font-size="14.00">BlogSummaryModule</text>
</g>
<!-- BlogSummaryModule&#45;&gt;AppModule -->
<g id="edge2" class="edge">
<title>BlogSummaryModule&#45;&gt;AppModule</title>
<path fill="none" stroke="black" d="M3347,-84.89C3347,-107.93 3347,-144.8 3347,-144.8 3347,-144.8 1820.8,-144.8 1820.8,-144.8"/>
<polygon fill="black" stroke="black" points="1820.8,-141.3 1810.8,-144.8 1820.8,-148.3 1820.8,-141.3"/>
</g>
<!-- ContributionModule -->
<g id="node3" class="node">
<title>ContributionModule</title>
<polygon fill="#8dd3c7" stroke="black" points="3258.61,-84.8 3255.61,-88.8 3234.61,-88.8 3231.61,-84.8 3127.39,-84.8 3127.39,-48.8 3258.61,-48.8 3258.61,-84.8"/>
<text text-anchor="middle" x="3193" y="-62.6" font-family="Times,serif" font-size="14.00">ContributionModule</text>
</g>
<!-- ContributionModule&#45;&gt;AppModule -->
<g id="edge3" class="edge">
<title>ContributionModule&#45;&gt;AppModule</title>
<path fill="none" stroke="black" d="M3193,-84.81C3193,-107.29 3193,-142.8 3193,-142.8 3193,-142.8 1820.85,-142.8 1820.85,-142.8"/>
<polygon fill="black" stroke="black" points="1820.85,-139.3 1810.85,-142.8 1820.85,-146.3 1820.85,-139.3"/>
</g>
<!-- ContributorModule -->
<g id="node4" class="node">
<title>ContributorModule</title>
<polygon fill="#8dd3c7" stroke="black" points="3109.38,-84.8 3106.38,-88.8 3085.38,-88.8 3082.38,-84.8 2984.62,-84.8 2984.62,-48.8 3109.38,-48.8 3109.38,-84.8"/>
<text text-anchor="middle" x="3047" y="-62.6" font-family="Times,serif" font-size="14.00">ContributorModule</text>
</g>
<!-- ContributorModule&#45;&gt;AppModule -->
<g id="edge4" class="edge">
<title>ContributorModule&#45;&gt;AppModule</title>
<path fill="none" stroke="black" d="M3047,-84.84C3047,-106.46 3047,-139.8 3047,-139.8 3047,-139.8 1820.79,-139.8 1820.79,-139.8"/>
<polygon fill="black" stroke="black" points="1820.79,-136.3 1810.79,-139.8 1820.79,-143.3 1820.79,-136.3"/>
</g>
<!-- CouponModule -->
<g id="node5" class="node">
<title>CouponModule</title>
<polygon fill="#8dd3c7" stroke="black" points="2966.89,-84.8 2963.89,-88.8 2942.89,-88.8 2939.89,-84.8 2863.11,-84.8 2863.11,-48.8 2966.89,-48.8 2966.89,-84.8"/>
<text text-anchor="middle" x="2915" y="-62.6" font-family="Times,serif" font-size="14.00">CouponModule</text>
</g>
<!-- CouponModule&#45;&gt;AppModule -->
<g id="edge5" class="edge">
<title>CouponModule&#45;&gt;AppModule</title>
<path fill="none" stroke="black" d="M2915,-85.08C2915,-106.12 2915,-137.8 2915,-137.8 2915,-137.8 1820.8,-137.8 1820.8,-137.8"/>
<polygon fill="black" stroke="black" points="1820.8,-134.3 1810.8,-137.8 1820.8,-141.3 1820.8,-134.3"/>
</g>
<!-- CustomerModule -->
<g id="node6" class="node">
<title>CustomerModule</title>
<polygon fill="#8dd3c7" stroke="black" points="2844.99,-84.8 2841.99,-88.8 2820.99,-88.8 2817.99,-84.8 2731.01,-84.8 2731.01,-48.8 2844.99,-48.8 2844.99,-84.8"/>
<text text-anchor="middle" x="2788" y="-62.6" font-family="Times,serif" font-size="14.00">CustomerModule</text>
</g>
<!-- CustomerModule&#45;&gt;AppModule -->
<g id="edge6" class="edge">
<title>CustomerModule&#45;&gt;AppModule</title>
<path fill="none" stroke="black" d="M2788,-85.02C2788,-105.17 2788,-134.8 2788,-134.8 2788,-134.8 1820.85,-134.8 1820.85,-134.8"/>
<polygon fill="black" stroke="black" points="1820.85,-131.3 1810.85,-134.8 1820.85,-138.3 1820.85,-131.3"/>
</g>
<!-- EmojiModule -->
<g id="node7" class="node">
<title>EmojiModule</title>
<polygon fill="#8dd3c7" stroke="black" points="2712.77,-84.8 2709.77,-88.8 2688.77,-88.8 2685.77,-84.8 2619.23,-84.8 2619.23,-48.8 2712.77,-48.8 2712.77,-84.8"/>
<text text-anchor="middle" x="2666" y="-62.6" font-family="Times,serif" font-size="14.00">EmojiModule</text>
</g>
<!-- EmojiModule&#45;&gt;AppModule -->
<g id="edge7" class="edge">
<title>EmojiModule&#45;&gt;AppModule</title>
<path fill="none" stroke="black" d="M2666,-84.91C2666,-104.14 2666,-131.8 2666,-131.8 2666,-131.8 1820.76,-131.8 1820.76,-131.8"/>
<polygon fill="black" stroke="black" points="1820.76,-128.3 1810.76,-131.8 1820.76,-135.3 1820.76,-128.3"/>
</g>
<!-- EndorsementModule -->
<g id="node8" class="node">
<title>EndorsementModule</title>
<polygon fill="#8dd3c7" stroke="black" points="2600.92,-84.8 2597.92,-88.8 2576.92,-88.8 2573.92,-84.8 2467.08,-84.8 2467.08,-48.8 2600.92,-48.8 2600.92,-84.8"/>
<text text-anchor="middle" x="2534" y="-62.6" font-family="Times,serif" font-size="14.00">EndorsementModule</text>
</g>
<!-- EndorsementModule&#45;&gt;AppModule -->
<g id="edge8" class="edge">
<title>EndorsementModule&#45;&gt;AppModule</title>
<path fill="none" stroke="black" d="M2534,-85.02C2534,-103.63 2534,-129.8 2534,-129.8 2534,-129.8 1820.67,-129.8 1820.67,-129.8"/>
<polygon fill="black" stroke="black" points="1820.67,-126.3 1810.67,-129.8 1820.67,-133.3 1820.67,-126.3"/>
</g>
<!-- HealthModule -->
<g id="node9" class="node">
<title>HealthModule</title>
<polygon fill="#8dd3c7" stroke="black" points="2449.37,-84.8 2446.37,-88.8 2425.37,-88.8 2422.37,-84.8 2352.63,-84.8 2352.63,-48.8 2449.37,-48.8 2449.37,-84.8"/>
<text text-anchor="middle" x="2401" y="-62.6" font-family="Times,serif" font-size="14.00">HealthModule</text>
</g>
<!-- HealthModule&#45;&gt;AppModule -->
<g id="edge9" class="edge">
<title>HealthModule&#45;&gt;AppModule</title>
<path fill="none" stroke="black" d="M2401,-84.8C2401,-102.48 2401,-126.8 2401,-126.8 2401,-126.8 1820.96,-126.8 1820.96,-126.8"/>
<polygon fill="black" stroke="black" points="1820.96,-123.3 1810.96,-126.8 1820.96,-130.3 1820.96,-123.3"/>
</g>
<!-- HighlightModule -->
<g id="node10" class="node">
<title>HighlightModule</title>
<polygon fill="#8dd3c7" stroke="black" points="2334.72,-84.8 2331.72,-88.8 2310.72,-88.8 2307.72,-84.8 2221.28,-84.8 2221.28,-48.8 2334.72,-48.8 2334.72,-84.8"/>
<text text-anchor="middle" x="2278" y="-62.6" font-family="Times,serif" font-size="14.00">HighlightModule</text>
</g>
<!-- HighlightModule&#45;&gt;AppModule -->
<g id="edge10" class="edge">
<title>HighlightModule&#45;&gt;AppModule</title>
<path fill="none" stroke="black" d="M2278,-84.83C2278,-101.86 2278,-124.8 2278,-124.8 2278,-124.8 1821.09,-124.8 1821.09,-124.8"/>
<polygon fill="black" stroke="black" points="1821.09,-121.3 1811.09,-124.8 1821.09,-128.3 1821.09,-121.3"/>
</g>
<!-- InsightsModule -->
<g id="node11" class="node">
<title>InsightsModule</title>
<polygon fill="#8dd3c7" stroke="black" points="2202.89,-84.8 2199.89,-88.8 2178.89,-88.8 2175.89,-84.8 2099.11,-84.8 2099.11,-48.8 2202.89,-48.8 2202.89,-84.8"/>
<text text-anchor="middle" x="2151" y="-62.6" font-family="Times,serif" font-size="14.00">InsightsModule</text>
</g>
<!-- InsightsModule&#45;&gt;AppModule -->
<g id="edge11" class="edge">
<title>InsightsModule&#45;&gt;AppModule</title>
<path fill="none" stroke="black" d="M2151,-84.81C2151,-100.85 2151,-121.8 2151,-121.8 2151,-121.8 1820.97,-121.8 1820.97,-121.8"/>
<polygon fill="black" stroke="black" points="1820.97,-118.3 1810.97,-121.8 1820.97,-125.3 1820.97,-118.3"/>
</g>
<!-- IssueSummaryModule -->
<g id="node12" class="node">
<title>IssueSummaryModule</title>
<polygon fill="#8dd3c7" stroke="black" points="2081.27,-84.8 2078.27,-88.8 2057.27,-88.8 2054.27,-84.8 1938.73,-84.8 1938.73,-48.8 2081.27,-48.8 2081.27,-84.8"/>
<text text-anchor="middle" x="2010" y="-62.6" font-family="Times,serif" font-size="14.00">IssueSummaryModule</text>
</g>
<!-- IssueSummaryModule&#45;&gt;AppModule -->
<g id="edge12" class="edge">
<title>IssueSummaryModule&#45;&gt;AppModule</title>
<path fill="none" stroke="black" d="M2010,-85.04C2010,-100.37 2010,-119.8 2010,-119.8 2010,-119.8 1820.7,-119.8 1820.7,-119.8"/>
<polygon fill="black" stroke="black" points="1820.7,-116.3 1810.7,-119.8 1820.7,-123.3 1820.7,-116.3"/>
</g>
<!-- LogModule -->
<g id="node13" class="node">
<title>LogModule</title>
<polygon fill="#8dd3c7" stroke="black" points="1921.1,-84.8 1918.1,-88.8 1897.1,-88.8 1894.1,-84.8 1838.9,-84.8 1838.9,-48.8 1921.1,-48.8 1921.1,-84.8"/>
<text text-anchor="middle" x="1880" y="-62.6" font-family="Times,serif" font-size="14.00">LogModule</text>
</g>
<!-- LogModule&#45;&gt;AppModule -->
<g id="edge13" class="edge">
<title>LogModule&#45;&gt;AppModule</title>
<path fill="none" stroke="black" d="M1880,-84.85C1880,-99.17 1880,-116.8 1880,-116.8 1880,-116.8 1820.96,-116.8 1820.96,-116.8"/>
<polygon fill="black" stroke="black" points="1820.96,-113.3 1810.96,-116.8 1820.96,-120.3 1820.96,-113.3"/>
</g>
<!-- OpenAiModule -->
<g id="node14" class="node">
<title>OpenAiModule</title>
<polygon fill="#8dd3c7" stroke="black" points="1820.88,-84.8 1817.88,-88.8 1796.88,-88.8 1793.88,-84.8 1717.12,-84.8 1717.12,-48.8 1820.88,-48.8 1820.88,-84.8"/>
<text text-anchor="middle" x="1769" y="-62.6" font-family="Times,serif" font-size="14.00">OpenAiModule</text>
</g>
<!-- OpenAiModule&#45;&gt;AppModule -->
<g id="edge14" class="edge">
<title>OpenAiModule&#45;&gt;AppModule</title>
<path fill="none" stroke="black" d="M1769,-84.91C1769,-84.91 1769,-103.79 1769,-103.79"/>
<polygon fill="black" stroke="black" points="1765.5,-103.79 1769,-113.79 1772.5,-103.79 1765.5,-103.79"/>
</g>
<!-- PizzaOvenModule -->
<g id="node15" class="node">
<title>PizzaOvenModule</title>
<polygon fill="#8dd3c7" stroke="black" points="1699.19,-84.8 1696.19,-88.8 1675.19,-88.8 1672.19,-84.8 1578.81,-84.8 1578.81,-48.8 1699.19,-48.8 1699.19,-84.8"/>
<text text-anchor="middle" x="1639" y="-62.6" font-family="Times,serif" font-size="14.00">PizzaOvenModule</text>
</g>
<!-- PizzaOvenModule&#45;&gt;AppModule -->
<g id="edge15" class="edge">
<title>PizzaOvenModule&#45;&gt;AppModule</title>
<path fill="none" stroke="black" d="M1639,-84.85C1639,-99.17 1639,-116.8 1639,-116.8 1639,-116.8 1717.15,-116.8 1717.15,-116.8"/>
<polygon fill="black" stroke="black" points="1717.15,-120.3 1727.15,-116.8 1717.15,-113.3 1717.15,-120.3"/>
</g>
<!-- PullRequestModule -->
<g id="node16" class="node">
<title>PullRequestModule</title>
<polygon fill="#8dd3c7" stroke="black" points="1560.72,-84.8 1557.72,-88.8 1536.72,-88.8 1533.72,-84.8 1433.28,-84.8 1433.28,-48.8 1560.72,-48.8 1560.72,-84.8"/>
<text text-anchor="middle" x="1497" y="-62.6" font-family="Times,serif" font-size="14.00">PullRequestModule</text>
</g>
<!-- PullRequestModule&#45;&gt;AppModule -->
<g id="edge16" class="edge">
<title>PullRequestModule&#45;&gt;AppModule</title>
<path fill="none" stroke="black" d="M1497,-85.04C1497,-100.37 1497,-119.8 1497,-119.8 1497,-119.8 1717.1,-119.8 1717.1,-119.8"/>
<polygon fill="black" stroke="black" points="1717.1,-123.3 1727.1,-119.8 1717.1,-116.3 1717.1,-123.3"/>
</g>
<!-- RepoModule -->
<g id="node17" class="node">
<title>RepoModule</title>
<polygon fill="#8dd3c7" stroke="black" points="1415.6,-84.8 1412.6,-88.8 1391.6,-88.8 1388.6,-84.8 1326.4,-84.8 1326.4,-48.8 1415.6,-48.8 1415.6,-84.8"/>
<text text-anchor="middle" x="1371" y="-62.6" font-family="Times,serif" font-size="14.00">RepoModule</text>
</g>
<!-- RepoModule&#45;&gt;AppModule -->
<g id="edge17" class="edge">
<title>RepoModule&#45;&gt;AppModule</title>
<path fill="none" stroke="black" d="M1371,-84.81C1371,-100.85 1371,-121.8 1371,-121.8 1371,-121.8 1717.16,-121.8 1717.16,-121.8"/>
<polygon fill="black" stroke="black" points="1717.16,-125.3 1727.16,-121.8 1717.16,-118.3 1717.16,-125.3"/>
</g>
<!-- StarModule -->
<g id="node18" class="node">
<title>StarModule</title>
<polygon fill="#8dd3c7" stroke="black" points="1308.1,-84.8 1305.1,-88.8 1284.1,-88.8 1281.1,-84.8 1225.9,-84.8 1225.9,-48.8 1308.1,-48.8 1308.1,-84.8"/>
<text text-anchor="middle" x="1267" y="-62.6" font-family="Times,serif" font-size="14.00">StarModule</text>
</g>
<!-- StarModule&#45;&gt;AppModule -->
<g id="edge18" class="edge">
<title>StarModule&#45;&gt;AppModule</title>
<path fill="none" stroke="black" d="M1267,-84.83C1267,-101.86 1267,-124.8 1267,-124.8 1267,-124.8 1717.06,-124.8 1717.06,-124.8"/>
<polygon fill="black" stroke="black" points="1717.06,-128.3 1727.06,-124.8 1717.06,-121.3 1717.06,-128.3"/>
</g>
<!-- StargazeModule -->
<g id="node19" class="node">
<title>StargazeModule</title>
<polygon fill="#8dd3c7" stroke="black" points="1207.75,-84.8 1204.75,-88.8 1183.75,-88.8 1180.75,-84.8 1100.25,-84.8 1100.25,-48.8 1207.75,-48.8 1207.75,-84.8"/>
<text text-anchor="middle" x="1154" y="-62.6" font-family="Times,serif" font-size="14.00">StargazeModule</text>
</g>
<!-- StargazeModule&#45;&gt;AppModule -->
<g id="edge19" class="edge">
<title>StargazeModule&#45;&gt;AppModule</title>
<path fill="none" stroke="black" d="M1154,-84.8C1154,-102.48 1154,-126.8 1154,-126.8 1154,-126.8 1717.21,-126.8 1717.21,-126.8"/>
<polygon fill="black" stroke="black" points="1717.21,-130.3 1727.21,-126.8 1717.21,-123.3 1717.21,-130.3"/>
</g>
<!-- StripeSubscriptionModule -->
<g id="node20" class="node">
<title>StripeSubscriptionModule</title>
<polygon fill="#8dd3c7" stroke="black" points="1081.77,-84.8 1078.77,-88.8 1057.77,-88.8 1054.77,-84.8 918.23,-84.8 918.23,-48.8 1081.77,-48.8 1081.77,-84.8"/>
<text text-anchor="middle" x="1000" y="-62.6" font-family="Times,serif" font-size="14.00">StripeSubscriptionModule</text>
</g>
<!-- StripeSubscriptionModule&#45;&gt;AppModule -->
<g id="edge20" class="edge">
<title>StripeSubscriptionModule&#45;&gt;AppModule</title>
<path fill="none" stroke="black" d="M1000,-85.02C1000,-103.63 1000,-129.8 1000,-129.8 1000,-129.8 1717.11,-129.8 1717.11,-129.8"/>
<polygon fill="black" stroke="black" points="1717.11,-133.3 1727.11,-129.8 1717.11,-126.3 1717.11,-133.3"/>
</g>
<!-- StripeWebHookModule -->
<g id="node21" class="node">
<title>StripeWebHookModule</title>
<polygon fill="#8dd3c7" stroke="black" points="900.03,-84.8 897.03,-88.8 876.03,-88.8 873.03,-84.8 749.97,-84.8 749.97,-48.8 900.03,-48.8 900.03,-84.8"/>
<text text-anchor="middle" x="825" y="-62.6" font-family="Times,serif" font-size="14.00">StripeWebHookModule</text>
</g>
<!-- StripeWebHookModule&#45;&gt;AppModule -->
<g id="edge21" class="edge">
<title>StripeWebHookModule&#45;&gt;AppModule</title>
<path fill="none" stroke="black" d="M825,-84.91C825,-104.14 825,-131.8 825,-131.8 825,-131.8 1717.22,-131.8 1717.22,-131.8"/>
<polygon fill="black" stroke="black" points="1717.22,-135.3 1727.22,-131.8 1717.22,-128.3 1717.22,-135.3"/>
</g>
<!-- SubmitModule -->
<g id="node22" class="node">
<title>SubmitModule</title>
<polygon fill="#8dd3c7" stroke="black" points="732.01,-84.8 729.01,-88.8 708.01,-88.8 705.01,-84.8 631.99,-84.8 631.99,-48.8 732.01,-48.8 732.01,-84.8"/>
<text text-anchor="middle" x="682" y="-62.6" font-family="Times,serif" font-size="14.00">SubmitModule</text>
</g>
<!-- SubmitModule&#45;&gt;AppModule -->
<g id="edge22" class="edge">
<title>SubmitModule&#45;&gt;AppModule</title>
<path fill="none" stroke="black" d="M682,-85.02C682,-105.17 682,-134.8 682,-134.8 682,-134.8 1717.05,-134.8 1717.05,-134.8"/>
<polygon fill="black" stroke="black" points="1717.05,-138.3 1727.05,-134.8 1717.05,-131.3 1717.05,-138.3"/>
</g>
<!-- TimescaleModule -->
<g id="node23" class="node">
<title>TimescaleModule</title>
<polygon fill="#8dd3c7" stroke="black" points="613.58,-84.8 610.58,-88.8 589.58,-88.8 586.58,-84.8 496.42,-84.8 496.42,-48.8 613.58,-48.8 613.58,-84.8"/>
<text text-anchor="middle" x="555" y="-62.6" font-family="Times,serif" font-size="14.00">TimescaleModule</text>
</g>
<!-- TimescaleModule&#45;&gt;AppModule -->
<g id="edge23" class="edge">
<title>TimescaleModule&#45;&gt;AppModule</title>
<path fill="none" stroke="black" d="M555,-85.08C555,-106.12 555,-137.8 555,-137.8 555,-137.8 1717.21,-137.8 1717.21,-137.8"/>
<polygon fill="black" stroke="black" points="1717.21,-141.3 1727.21,-137.8 1717.21,-134.3 1717.21,-141.3"/>
</g>
<!-- UserListModule -->
<g id="node24" class="node">
<title>UserListModule</title>
<polygon fill="#8dd3c7" stroke="black" points="478.77,-84.8 475.77,-88.8 454.77,-88.8 451.77,-84.8 371.23,-84.8 371.23,-48.8 478.77,-48.8 478.77,-84.8"/>
<text text-anchor="middle" x="425" y="-62.6" font-family="Times,serif" font-size="14.00">UserListModule</text>
</g>
<!-- UserListModule&#45;&gt;AppModule -->
<g id="edge24" class="edge">
<title>UserListModule&#45;&gt;AppModule</title>
<path fill="none" stroke="black" d="M425,-84.84C425,-106.46 425,-139.8 425,-139.8 425,-139.8 1717.3,-139.8 1717.3,-139.8"/>
<polygon fill="black" stroke="black" points="1717.3,-143.3 1727.3,-139.8 1717.3,-136.3 1717.3,-143.3"/>
</g>
<!-- UserModule -->
<g id="node25" class="node">
<title>UserModule</title>
<polygon fill="#8dd3c7" stroke="black" points="352.99,-84.8 349.99,-88.8 328.99,-88.8 325.99,-84.8 267.01,-84.8 267.01,-48.8 352.99,-48.8 352.99,-84.8"/>
<text text-anchor="middle" x="310" y="-62.6" font-family="Times,serif" font-size="14.00">UserModule</text>
</g>
<!-- UserModule&#45;&gt;AppModule -->
<g id="edge25" class="edge">
<title>UserModule&#45;&gt;AppModule</title>
<path fill="none" stroke="black" d="M310,-84.81C310,-107.29 310,-142.8 310,-142.8 310,-142.8 1717.3,-142.8 1717.3,-142.8"/>
<polygon fill="black" stroke="black" points="1717.3,-146.3 1727.3,-142.8 1717.3,-139.3 1717.3,-146.3"/>
</g>
<!-- UserReposModule -->
<g id="node26" class="node">
<title>UserReposModule</title>
<polygon fill="#8dd3c7" stroke="black" points="249.49,-84.8 246.49,-88.8 225.49,-88.8 222.49,-84.8 128.51,-84.8 128.51,-48.8 249.49,-48.8 249.49,-84.8"/>
<text text-anchor="middle" x="189" y="-62.6" font-family="Times,serif" font-size="14.00">UserReposModule</text>
</g>
<!-- UserReposModule&#45;&gt;AppModule -->
<g id="edge26" class="edge">
<title>UserReposModule&#45;&gt;AppModule</title>
<path fill="none" stroke="black" d="M189,-84.89C189,-107.93 189,-144.8 189,-144.8 189,-144.8 1717.15,-144.8 1717.15,-144.8"/>
<polygon fill="black" stroke="black" points="1717.15,-148.3 1727.15,-144.8 1717.15,-141.3 1717.15,-148.3"/>
</g>
<!-- VoteModule -->
<g id="node27" class="node">
<title>VoteModule</title>
<polygon fill="#8dd3c7" stroke="black" points="110.27,-84.8 107.27,-88.8 86.27,-88.8 83.27,-84.8 23.73,-84.8 23.73,-48.8 110.27,-48.8 110.27,-84.8"/>
<text text-anchor="middle" x="67" y="-62.6" font-family="Times,serif" font-size="14.00">VoteModule</text>
</g>
<!-- VoteModule&#45;&gt;AppModule -->
<g id="edge27" class="edge">
<title>VoteModule&#45;&gt;AppModule</title>
<path fill="none" stroke="black" d="M67,-85.18C67,-109.08 67,-147.8 67,-147.8 67,-147.8 1716.93,-147.8 1716.93,-147.8"/>
<polygon fill="black" stroke="black" points="1716.93,-151.3 1726.93,-147.8 1716.93,-144.3 1716.93,-151.3"/>
</g>
</g>
</svg>
