<?xml version="1.0" encoding="UTF-8" standalone="no"?>
<!DOCTYPE svg PUBLIC "-//W3C//DTD SVG 1.1//EN"
 "http://www.w3.org/Graphics/SVG/1.1/DTD/svg11.dtd">
<!-- Generated by graphviz version 3.0.0 (20220226.1711)
 -->
<!-- Title: dependencies Pages: 1 -->
<svg width="1067pt" height="174pt"
 viewBox="0.00 0.00 1067.00 173.80" xmlns="http://www.w3.org/2000/svg" xmlns:xlink="http://www.w3.org/1999/xlink">
<g id="graph0" class="graph" transform="scale(1 1) rotate(0) translate(4 169.8)">
<title>dependencies</title>
<polygon fill="white" stroke="transparent" points="-4,4 -4,-169.8 1063,-169.8 1063,4 -4,4"/>
<text text-anchor="middle" x="529.5" y="-8.2" font-family="sans-serif" font-size="14.00">dependencies</text>
<g id="clust1" class="cluster">
<title>cluster_AppModule</title>
<polygon fill="none" stroke="black" stroke-dasharray="1,5" points="8,-32.8 8,-157.8 1051,-157.8 1051,-32.8 8,-32.8"/>
</g>
<g id="clust3" class="cluster">
<title>cluster_AppModule_imports</title>
<polygon fill="none" stroke="black" points="16,-40.8 16,-92.8 1043,-92.8 1043,-40.8 16,-40.8"/>
</g>
<!-- AuthModule -->
<g id="node1" class="node">
<title>AuthModule</title>
<polygon fill="#8dd3c7" stroke="black" points="1034.55,-84.8 1031.55,-88.8 1010.55,-88.8 1007.55,-84.8 947.45,-84.8 947.45,-48.8 1034.55,-48.8 1034.55,-84.8"/>
<text text-anchor="middle" x="991" y="-62.6" font-family="Times,serif" font-size="14.00">AuthModule</text>
</g>
<!-- AppModule -->
<g id="node10" class="node">
<title>AppModule</title>
<polygon fill="#8dd3c7" stroke="black" points="558.66,-149.8 555.66,-153.8 534.66,-153.8 531.66,-149.8 475.34,-149.8 475.34,-113.8 558.66,-113.8 558.66,-149.8"/>
<text text-anchor="middle" x="517" y="-127.6" font-family="Times,serif" font-size="14.00">AppModule</text>
</g>
<!-- AuthModule&#45;&gt;AppModule -->
<g id="edge1" class="edge">
<title>AuthModule&#45;&gt;AppModule</title>
<path fill="none" stroke="black" d="M991,-84.81C991,-107.29 991,-142.8 991,-142.8 991,-142.8 569.06,-142.8 569.06,-142.8"/>
<polygon fill="black" stroke="black" points="569.06,-139.3 559.06,-142.8 569.06,-146.3 569.06,-139.3"/>
</g>
<!-- ContributionModule -->
<g id="node2" class="node">
<title>ContributionModule</title>
<polygon fill="#8dd3c7" stroke="black" points="929.61,-84.8 926.61,-88.8 905.61,-88.8 902.61,-84.8 798.39,-84.8 798.39,-48.8 929.61,-48.8 929.61,-84.8"/>
<text text-anchor="middle" x="864" y="-62.6" font-family="Times,serif" font-size="14.00">ContributionModule</text>
</g>
<!-- ContributionModule&#45;&gt;AppModule -->
<g id="edge2" class="edge">
<title>ContributionModule&#45;&gt;AppModule</title>
<path fill="none" stroke="black" d="M864,-84.93C864,-105.37 864,-135.8 864,-135.8 864,-135.8 568.86,-135.8 568.86,-135.8"/>
<polygon fill="black" stroke="black" points="568.86,-132.3 558.86,-135.8 568.86,-139.3 568.86,-132.3"/>
</g>
<!-- HealthModule -->
<g id="node3" class="node">
<title>HealthModule</title>
<polygon fill="#8dd3c7" stroke="black" points="780.37,-84.8 777.37,-88.8 756.37,-88.8 753.37,-84.8 683.63,-84.8 683.63,-48.8 780.37,-48.8 780.37,-84.8"/>
<text text-anchor="middle" x="732" y="-62.6" font-family="Times,serif" font-size="14.00">HealthModule</text>
</g>
<!-- HealthModule&#45;&gt;AppModule -->
<g id="edge3" class="edge">
<title>HealthModule&#45;&gt;AppModule</title>
<path fill="none" stroke="black" d="M732,-85.07C732,-103.36 732,-128.8 732,-128.8 732,-128.8 568.71,-128.8 568.71,-128.8"/>
<polygon fill="black" stroke="black" points="568.71,-125.3 558.71,-128.8 568.71,-132.3 568.71,-125.3"/>
</g>
<!-- RepoModule -->
<g id="node4" class="node">
<title>RepoModule</title>
<polygon fill="#8dd3c7" stroke="black" points="665.6,-84.8 662.6,-88.8 641.6,-88.8 638.6,-84.8 576.4,-84.8 576.4,-48.8 665.6,-48.8 665.6,-84.8"/>
<text text-anchor="middle" x="621" y="-62.6" font-family="Times,serif" font-size="14.00">RepoModule</text>
</g>
<!-- RepoModule&#45;&gt;AppModule -->
<g id="edge4" class="edge">
<title>RepoModule&#45;&gt;AppModule</title>
<path fill="none" stroke="black" d="M621,-84.81C621,-100.85 621,-121.8 621,-121.8 621,-121.8 568.7,-121.8 568.7,-121.8"/>
<polygon fill="black" stroke="black" points="568.7,-118.3 558.7,-121.8 568.7,-125.3 568.7,-118.3"/>
</g>
<!-- StarModule -->
<g id="node5" class="node">
<title>StarModule</title>
<polygon fill="#8dd3c7" stroke="black" points="558.1,-84.8 555.1,-88.8 534.1,-88.8 531.1,-84.8 475.9,-84.8 475.9,-48.8 558.1,-48.8 558.1,-84.8"/>
<text text-anchor="middle" x="517" y="-62.6" font-family="Times,serif" font-size="14.00">StarModule</text>
</g>
<!-- StarModule&#45;&gt;AppModule -->
<g id="edge5" class="edge">
<title>StarModule&#45;&gt;AppModule</title>
<path fill="none" stroke="black" d="M517,-84.91C517,-84.91 517,-103.79 517,-103.79"/>
<polygon fill="black" stroke="black" points="513.5,-103.79 517,-113.79 520.5,-103.79 513.5,-103.79"/>
</g>
<!-- StargazeModule -->
<g id="node6" class="node">
<title>StargazeModule</title>
<polygon fill="#8dd3c7" stroke="black" points="457.75,-84.8 454.75,-88.8 433.75,-88.8 430.75,-84.8 350.25,-84.8 350.25,-48.8 457.75,-48.8 457.75,-84.8"/>
<text text-anchor="middle" x="404" y="-62.6" font-family="Times,serif" font-size="14.00">StargazeModule</text>
</g>
<!-- StargazeModule&#45;&gt;AppModule -->
<g id="edge6" class="edge">
<title>StargazeModule&#45;&gt;AppModule</title>
<path fill="none" stroke="black" d="M404,-84.81C404,-100.85 404,-121.8 404,-121.8 404,-121.8 465.24,-121.8 465.24,-121.8"/>
<polygon fill="black" stroke="black" points="465.24,-125.3 475.24,-121.8 465.24,-118.3 465.24,-125.3"/>
</g>
<!-- SubmitModule -->
<g id="node7" class="node">
<title>SubmitModule</title>
<polygon fill="#8dd3c7" stroke="black" points="332.01,-84.8 329.01,-88.8 308.01,-88.8 305.01,-84.8 231.99,-84.8 231.99,-48.8 332.01,-48.8 332.01,-84.8"/>
<text text-anchor="middle" x="282" y="-62.6" font-family="Times,serif" font-size="14.00">SubmitModule</text>
</g>
<!-- SubmitModule&#45;&gt;AppModule -->
<g id="edge7" class="edge">
<title>SubmitModule&#45;&gt;AppModule</title>
<path fill="none" stroke="black" d="M282,-85.07C282,-103.36 282,-128.8 282,-128.8 282,-128.8 465.26,-128.8 465.26,-128.8"/>
<polygon fill="black" stroke="black" points="465.26,-132.3 475.26,-128.8 465.26,-125.3 465.26,-132.3"/>
</g>
<!-- UserModule -->
<g id="node8" class="node">
<title>UserModule</title>
<polygon fill="#8dd3c7" stroke="black" points="213.99,-84.8 210.99,-88.8 189.99,-88.8 186.99,-84.8 128.01,-84.8 128.01,-48.8 213.99,-48.8 213.99,-84.8"/>
<text text-anchor="middle" x="171" y="-62.6" font-family="Times,serif" font-size="14.00">UserModule</text>
</g>
<!-- UserModule&#45;&gt;AppModule -->
<g id="edge8" class="edge">
<title>UserModule&#45;&gt;AppModule</title>
<path fill="none" stroke="black" d="M171,-84.93C171,-105.37 171,-135.8 171,-135.8 171,-135.8 465.26,-135.8 465.26,-135.8"/>
<polygon fill="black" stroke="black" points="465.26,-139.3 475.26,-135.8 465.26,-132.3 465.26,-139.3"/>
</g>
<!-- VoteModule -->
<g id="node9" class="node">
<title>VoteModule</title>
<polygon fill="#8dd3c7" stroke="black" points="110.27,-84.8 107.27,-88.8 86.27,-88.8 83.27,-84.8 23.73,-84.8 23.73,-48.8 110.27,-48.8 110.27,-84.8"/>
<text text-anchor="middle" x="67" y="-62.6" font-family="Times,serif" font-size="14.00">VoteModule</text>
</g>
<!-- VoteModule&#45;&gt;AppModule -->
<g id="edge9" class="edge">
<title>VoteModule&#45;&gt;AppModule</title>
<path fill="none" stroke="black" d="M67,-84.81C67,-107.29 67,-142.8 67,-142.8 67,-142.8 465.07,-142.8 465.07,-142.8"/>
<polygon fill="black" stroke="black" points="465.07,-146.3 475.07,-142.8 465.07,-139.3 465.07,-146.3"/>
</g>
</g>
</svg>
