<?xml version="1.0" encoding="UTF-8" standalone="no"?>
<!DOCTYPE svg PUBLIC "-//W3C//DTD SVG 1.1//EN"
 "http://www.w3.org/Graphics/SVG/1.1/DTD/svg11.dtd">
<!-- Generated by graphviz version 3.0.0 (20220226.1711)
 -->
<!-- Title: dependencies Pages: 1 -->
<svg width="2087pt" height="174pt"
 viewBox="0.00 0.00 2087.00 173.80" xmlns="http://www.w3.org/2000/svg" xmlns:xlink="http://www.w3.org/1999/xlink">
<g id="graph0" class="graph" transform="scale(1 1) rotate(0) translate(4 169.8)">
<title>dependencies</title>
<polygon fill="white" stroke="transparent" points="-4,4 -4,-169.8 2083,-169.8 2083,4 -4,4"/>
<text text-anchor="middle" x="1039.5" y="-8.2" font-family="sans-serif" font-size="14.00">dependencies</text>
<g id="clust1" class="cluster">
<title>cluster_AppModule</title>
<polygon fill="none" stroke="black" stroke-dasharray="1,5" points="8,-32.8 8,-157.8 2071,-157.8 2071,-32.8 8,-32.8"/>
</g>
<g id="clust3" class="cluster">
<title>cluster_AppModule_imports</title>
<polygon fill="none" stroke="black" points="16,-40.8 16,-92.8 2063,-92.8 2063,-40.8 16,-40.8"/>
</g>
<!-- AuthModule -->
<g id="node1" class="node">
<title>AuthModule</title>
<polygon fill="#8dd3c7" stroke="black" points="2054.55,-84.8 2051.55,-88.8 2030.55,-88.8 2027.55,-84.8 1967.45,-84.8 1967.45,-48.8 2054.55,-48.8 2054.55,-84.8"/>
<text text-anchor="middle" x="2011" y="-62.6" font-family="Times,serif" font-size="14.00">AuthModule</text>
</g>
<!-- AppModule -->
<g id="node17" class="node">
<title>AppModule</title>
<polygon fill="#8dd3c7" stroke="black" points="1099.66,-149.8 1096.66,-153.8 1075.66,-153.8 1072.66,-149.8 1016.34,-149.8 1016.34,-113.8 1099.66,-113.8 1099.66,-149.8"/>
<text text-anchor="middle" x="1058" y="-127.6" font-family="Times,serif" font-size="14.00">AppModule</text>
</g>
<!-- AuthModule&#45;&gt;AppModule -->
<g id="edge1" class="edge">
<title>AuthModule&#45;&gt;AppModule</title>
<path fill="none" stroke="black" d="M2011,-85.12C2011,-108.46 2011,-145.8 2011,-145.8 2011,-145.8 1109.87,-145.8 1109.87,-145.8"/>
<polygon fill="black" stroke="black" points="1109.87,-142.3 1099.87,-145.8 1109.87,-149.3 1109.87,-142.3"/>
</g>
<!-- ContributionModule -->
<g id="node2" class="node">
<title>ContributionModule</title>
<polygon fill="#8dd3c7" stroke="black" points="1949.61,-84.8 1946.61,-88.8 1925.61,-88.8 1922.61,-84.8 1818.39,-84.8 1818.39,-48.8 1949.61,-48.8 1949.61,-84.8"/>
<text text-anchor="middle" x="1884" y="-62.6" font-family="Times,serif" font-size="14.00">ContributionModule</text>
</g>
<!-- ContributionModule&#45;&gt;AppModule -->
<g id="edge2" class="edge">
<title>ContributionModule&#45;&gt;AppModule</title>
<path fill="none" stroke="black" d="M1884,-85.09C1884,-107.01 1884,-140.8 1884,-140.8 1884,-140.8 1109.81,-140.8 1109.81,-140.8"/>
<polygon fill="black" stroke="black" points="1109.81,-137.3 1099.81,-140.8 1109.81,-144.3 1109.81,-137.3"/>
</g>
<!-- CustomerModule -->
<g id="node3" class="node">
<title>CustomerModule</title>
<polygon fill="#8dd3c7" stroke="black" points="1799.99,-84.8 1796.99,-88.8 1775.99,-88.8 1772.99,-84.8 1686.01,-84.8 1686.01,-48.8 1799.99,-48.8 1799.99,-84.8"/>
<text text-anchor="middle" x="1743" y="-62.6" font-family="Times,serif" font-size="14.00">CustomerModule</text>
</g>
<!-- CustomerModule&#45;&gt;AppModule -->
<g id="edge3" class="edge">
<title>CustomerModule&#45;&gt;AppModule</title>
<path fill="none" stroke="black" d="M1743,-84.83C1743,-105.57 1743,-136.8 1743,-136.8 1743,-136.8 1109.82,-136.8 1109.82,-136.8"/>
<polygon fill="black" stroke="black" points="1109.82,-133.3 1099.82,-136.8 1109.82,-140.3 1109.82,-133.3"/>
</g>
<!-- HealthModule -->
<g id="node4" class="node">
<title>HealthModule</title>
<polygon fill="#8dd3c7" stroke="black" points="1668.37,-84.8 1665.37,-88.8 1644.37,-88.8 1641.37,-84.8 1571.63,-84.8 1571.63,-48.8 1668.37,-48.8 1668.37,-84.8"/>
<text text-anchor="middle" x="1620" y="-62.6" font-family="Times,serif" font-size="14.00">HealthModule</text>
</g>
<!-- HealthModule&#45;&gt;AppModule -->
<g id="edge4" class="edge">
<title>HealthModule&#45;&gt;AppModule</title>
<path fill="none" stroke="black" d="M1620,-84.91C1620,-104.14 1620,-131.8 1620,-131.8 1620,-131.8 1109.78,-131.8 1109.78,-131.8"/>
<polygon fill="black" stroke="black" points="1109.78,-128.3 1099.78,-131.8 1109.78,-135.3 1109.78,-128.3"/>
</g>
<!-- HighlightModule -->
<g id="node5" class="node">
<title>HighlightModule</title>
<polygon fill="#8dd3c7" stroke="black" points="1553.72,-84.8 1550.72,-88.8 1529.72,-88.8 1526.72,-84.8 1440.28,-84.8 1440.28,-48.8 1553.72,-48.8 1553.72,-84.8"/>
<text text-anchor="middle" x="1497" y="-62.6" font-family="Times,serif" font-size="14.00">HighlightModule</text>
</g>
<!-- HighlightModule&#45;&gt;AppModule -->
<g id="edge5" class="edge">
<title>HighlightModule&#45;&gt;AppModule</title>
<path fill="none" stroke="black" d="M1497,-85.1C1497,-103.07 1497,-127.8 1497,-127.8 1497,-127.8 1109.7,-127.8 1109.7,-127.8"/>
<polygon fill="black" stroke="black" points="1109.7,-124.3 1099.7,-127.8 1109.7,-131.3 1109.7,-124.3"/>
</g>
<!-- InsightsModule -->
<g id="node6" class="node">
<title>InsightsModule</title>
<polygon fill="#8dd3c7" stroke="black" points="1421.89,-84.8 1418.89,-88.8 1397.89,-88.8 1394.89,-84.8 1318.11,-84.8 1318.11,-48.8 1421.89,-48.8 1421.89,-84.8"/>
<text text-anchor="middle" x="1370" y="-62.6" font-family="Times,serif" font-size="14.00">InsightsModule</text>
</g>
<!-- InsightsModule&#45;&gt;AppModule -->
<g id="edge6" class="edge">
<title>InsightsModule&#45;&gt;AppModule</title>
<path fill="none" stroke="black" d="M1370,-84.83C1370,-101.2 1370,-122.8 1370,-122.8 1370,-122.8 1109.75,-122.8 1109.75,-122.8"/>
<polygon fill="black" stroke="black" points="1109.75,-119.3 1099.75,-122.8 1109.75,-126.3 1109.75,-119.3"/>
</g>
<!-- PullRequestModule -->
<g id="node7" class="node">
<title>PullRequestModule</title>
<polygon fill="#8dd3c7" stroke="black" points="1299.72,-84.8 1296.72,-88.8 1275.72,-88.8 1272.72,-84.8 1172.28,-84.8 1172.28,-48.8 1299.72,-48.8 1299.72,-84.8"/>
<text text-anchor="middle" x="1236" y="-62.6" font-family="Times,serif" font-size="14.00">PullRequestModule</text>
</g>
<!-- PullRequestModule&#45;&gt;AppModule -->
<g id="edge7" class="edge">
<title>PullRequestModule&#45;&gt;AppModule</title>
<path fill="none" stroke="black" d="M1236,-84.99C1236,-99.98 1236,-118.8 1236,-118.8 1236,-118.8 1109.73,-118.8 1109.73,-118.8"/>
<polygon fill="black" stroke="black" points="1109.73,-115.3 1099.73,-118.8 1109.73,-122.3 1109.73,-115.3"/>
</g>
<!-- RepoModule -->
<g id="node8" class="node">
<title>RepoModule</title>
<polygon fill="#8dd3c7" stroke="black" points="1154.6,-84.8 1151.6,-88.8 1130.6,-88.8 1127.6,-84.8 1065.4,-84.8 1065.4,-48.8 1154.6,-48.8 1154.6,-84.8"/>
<text text-anchor="middle" x="1110" y="-62.6" font-family="Times,serif" font-size="14.00">RepoModule</text>
</g>
<!-- RepoModule&#45;&gt;AppModule -->
<g id="edge8" class="edge">
<title>RepoModule&#45;&gt;AppModule</title>
<path fill="none" stroke="black" d="M1082.64,-84.91C1082.64,-84.91 1082.64,-103.79 1082.64,-103.79"/>
<polygon fill="black" stroke="black" points="1079.14,-103.79 1082.64,-113.79 1086.14,-103.79 1079.14,-103.79"/>
</g>
<!-- StarModule -->
<g id="node9" class="node">
<title>StarModule</title>
<polygon fill="#8dd3c7" stroke="black" points="1047.1,-84.8 1044.1,-88.8 1023.1,-88.8 1020.1,-84.8 964.9,-84.8 964.9,-48.8 1047.1,-48.8 1047.1,-84.8"/>
<text text-anchor="middle" x="1006" y="-62.6" font-family="Times,serif" font-size="14.00">StarModule</text>
</g>
<!-- StarModule&#45;&gt;AppModule -->
<g id="edge9" class="edge">
<title>StarModule&#45;&gt;AppModule</title>
<path fill="none" stroke="black" d="M1031.61,-84.91C1031.61,-84.91 1031.61,-103.79 1031.61,-103.79"/>
<polygon fill="black" stroke="black" points="1028.11,-103.79 1031.61,-113.79 1035.11,-103.79 1028.11,-103.79"/>
</g>
<!-- StargazeModule -->
<g id="node10" class="node">
<title>StargazeModule</title>
<polygon fill="#8dd3c7" stroke="black" points="946.75,-84.8 943.75,-88.8 922.75,-88.8 919.75,-84.8 839.25,-84.8 839.25,-48.8 946.75,-48.8 946.75,-84.8"/>
<text text-anchor="middle" x="893" y="-62.6" font-family="Times,serif" font-size="14.00">StargazeModule</text>
</g>
<!-- StargazeModule&#45;&gt;AppModule -->
<g id="edge10" class="edge">
<title>StargazeModule&#45;&gt;AppModule</title>
<path fill="none" stroke="black" d="M893,-84.99C893,-99.98 893,-118.8 893,-118.8 893,-118.8 1005.94,-118.8 1005.94,-118.8"/>
<polygon fill="black" stroke="black" points="1005.94,-122.3 1015.94,-118.8 1005.94,-115.3 1005.94,-122.3"/>
</g>
<!-- StripeSubscriptionModule -->
<g id="node11" class="node">
<title>StripeSubscriptionModule</title>
<polygon fill="#8dd3c7" stroke="black" points="820.77,-84.8 817.77,-88.8 796.77,-88.8 793.77,-84.8 657.23,-84.8 657.23,-48.8 820.77,-48.8 820.77,-84.8"/>
<text text-anchor="middle" x="739" y="-62.6" font-family="Times,serif" font-size="14.00">StripeSubscriptionModule</text>
</g>
<!-- StripeSubscriptionModule&#45;&gt;AppModule -->
<g id="edge11" class="edge">
<title>StripeSubscriptionModule&#45;&gt;AppModule</title>
<path fill="none" stroke="black" d="M739,-84.83C739,-101.2 739,-122.8 739,-122.8 739,-122.8 1006.3,-122.8 1006.3,-122.8"/>
<polygon fill="black" stroke="black" points="1006.3,-126.3 1016.3,-122.8 1006.3,-119.3 1006.3,-126.3"/>
</g>
<!-- StripeWebHookModule -->
<g id="node12" class="node">
<title>StripeWebHookModule</title>
<polygon fill="#8dd3c7" stroke="black" points="639.03,-84.8 636.03,-88.8 615.03,-88.8 612.03,-84.8 488.97,-84.8 488.97,-48.8 639.03,-48.8 639.03,-84.8"/>
<text text-anchor="middle" x="564" y="-62.6" font-family="Times,serif" font-size="14.00">StripeWebHookModule</text>
</g>
<!-- StripeWebHookModule&#45;&gt;AppModule -->
<g id="edge12" class="edge">
<title>StripeWebHookModule&#45;&gt;AppModule</title>
<path fill="none" stroke="black" d="M564,-85.1C564,-103.07 564,-127.8 564,-127.8 564,-127.8 1006.31,-127.8 1006.31,-127.8"/>
<polygon fill="black" stroke="black" points="1006.31,-131.3 1016.31,-127.8 1006.31,-124.3 1006.31,-131.3"/>
</g>
<!-- SubmitModule -->
<g id="node13" class="node">
<title>SubmitModule</title>
<polygon fill="#8dd3c7" stroke="black" points="471.01,-84.8 468.01,-88.8 447.01,-88.8 444.01,-84.8 370.99,-84.8 370.99,-48.8 471.01,-48.8 471.01,-84.8"/>
<text text-anchor="middle" x="421" y="-62.6" font-family="Times,serif" font-size="14.00">SubmitModule</text>
</g>
<!-- SubmitModule&#45;&gt;AppModule -->
<g id="edge13" class="edge">
<title>SubmitModule&#45;&gt;AppModule</title>
<path fill="none" stroke="black" d="M421,-84.91C421,-104.14 421,-131.8 421,-131.8 421,-131.8 1006.2,-131.8 1006.2,-131.8"/>
<polygon fill="black" stroke="black" points="1006.2,-135.3 1016.2,-131.8 1006.2,-128.3 1006.2,-135.3"/>
</g>
<!-- UserModule -->
<g id="node14" class="node">
<title>UserModule</title>
<polygon fill="#8dd3c7" stroke="black" points="352.99,-84.8 349.99,-88.8 328.99,-88.8 325.99,-84.8 267.01,-84.8 267.01,-48.8 352.99,-48.8 352.99,-84.8"/>
<text text-anchor="middle" x="310" y="-62.6" font-family="Times,serif" font-size="14.00">UserModule</text>
</g>
<!-- UserModule&#45;&gt;AppModule -->
<g id="edge14" class="edge">
<title>UserModule&#45;&gt;AppModule</title>
<path fill="none" stroke="black" d="M310,-84.83C310,-105.57 310,-136.8 310,-136.8 310,-136.8 1006.18,-136.8 1006.18,-136.8"/>
<polygon fill="black" stroke="black" points="1006.18,-140.3 1016.18,-136.8 1006.18,-133.3 1006.18,-140.3"/>
</g>
<!-- UserReposModule -->
<g id="node15" class="node">
<title>UserReposModule</title>
<polygon fill="#8dd3c7" stroke="black" points="249.49,-84.8 246.49,-88.8 225.49,-88.8 222.49,-84.8 128.51,-84.8 128.51,-48.8 249.49,-48.8 249.49,-84.8"/>
<text text-anchor="middle" x="189" y="-62.6" font-family="Times,serif" font-size="14.00">UserReposModule</text>
</g>
<!-- UserReposModule&#45;&gt;AppModule -->
<g id="edge15" class="edge">
<title>UserReposModule&#45;&gt;AppModule</title>
<path fill="none" stroke="black" d="M189,-85.09C189,-107.01 189,-140.8 189,-140.8 189,-140.8 1006.09,-140.8 1006.09,-140.8"/>
<polygon fill="black" stroke="black" points="1006.09,-144.3 1016.09,-140.8 1006.09,-137.3 1006.09,-144.3"/>
</g>
<!-- VoteModule -->
<g id="node16" class="node">
<title>VoteModule</title>
<polygon fill="#8dd3c7" stroke="black" points="110.27,-84.8 107.27,-88.8 86.27,-88.8 83.27,-84.8 23.73,-84.8 23.73,-48.8 110.27,-48.8 110.27,-84.8"/>
<text text-anchor="middle" x="67" y="-62.6" font-family="Times,serif" font-size="14.00">VoteModule</text>
</g>
<!-- VoteModule&#45;&gt;AppModule -->
<g id="edge16" class="edge">
<title>VoteModule&#45;&gt;AppModule</title>
<path fill="none" stroke="black" d="M67,-85.12C67,-108.46 67,-145.8 67,-145.8 67,-145.8 1006.05,-145.8 1006.05,-145.8"/>
<polygon fill="black" stroke="black" points="1006.05,-149.3 1016.05,-145.8 1006.05,-142.3 1006.05,-149.3"/>
</g>
</g>
</svg>
