<?xml version="1.0" encoding="UTF-8" standalone="no"?>
<!DOCTYPE svg PUBLIC "-//W3C//DTD SVG 1.1//EN"
 "http://www.w3.org/Graphics/SVG/1.1/DTD/svg11.dtd">
<!-- Generated by graphviz version 3.0.0 (20220226.1711)
 -->
<!-- Title: dependencies Pages: 1 -->
<svg width="3832pt" height="174pt"
 viewBox="0.00 0.00 3832.00 173.80" xmlns="http://www.w3.org/2000/svg" xmlns:xlink="http://www.w3.org/1999/xlink">
<g id="graph0" class="graph" transform="scale(1 1) rotate(0) translate(4 169.8)">
<title>dependencies</title>
<polygon fill="white" stroke="transparent" points="-4,4 -4,-169.8 3828,-169.8 3828,4 -4,4"/>
<text text-anchor="middle" x="1912" y="-8.2" font-family="sans-serif" font-size="14.00">dependencies</text>
<g id="clust1" class="cluster">
<title>cluster_AppModule</title>
<polygon fill="none" stroke="black" stroke-dasharray="1,5" points="8,-32.8 8,-157.8 3816,-157.8 3816,-32.8 8,-32.8"/>
</g>
<g id="clust3" class="cluster">
<title>cluster_AppModule_imports</title>
<polygon fill="none" stroke="black" points="16,-40.8 16,-92.8 3808,-92.8 3808,-40.8 16,-40.8"/>
</g>
<!-- AuthModule -->
<g id="node1" class="node">
<title>AuthModule</title>
<polygon fill="#8dd3c7" stroke="black" points="3799.55,-84.8 3796.55,-88.8 3775.55,-88.8 3772.55,-84.8 3712.45,-84.8 3712.45,-48.8 3799.55,-48.8 3799.55,-84.8"/>
<text text-anchor="middle" x="3756" y="-62.6" font-family="Times,serif" font-size="14.00">AuthModule</text>
</g>
<!-- AppModule -->
<g id="node30" class="node">
<title>AppModule</title>
<polygon fill="#8dd3c7" stroke="black" points="1951.66,-149.8 1948.66,-153.8 1927.66,-153.8 1924.66,-149.8 1868.34,-149.8 1868.34,-113.8 1951.66,-113.8 1951.66,-149.8"/>
<text text-anchor="middle" x="1910" y="-127.6" font-family="Times,serif" font-size="14.00">AppModule</text>
</g>
<!-- AuthModule&#45;&gt;AppModule -->
<g id="edge1" class="edge">
<title>AuthModule&#45;&gt;AppModule</title>
<path fill="none" stroke="black" d="M3756,-85.18C3756,-109.08 3756,-147.8 3756,-147.8 3756,-147.8 1962.02,-147.8 1962.02,-147.8"/>
<polygon fill="black" stroke="black" points="1962.02,-144.3 1952.02,-147.8 1962.02,-151.3 1962.02,-144.3"/>
</g>
<!-- BlogSummaryModule -->
<g id="node2" class="node">
<title>BlogSummaryModule</title>
<polygon fill="#8dd3c7" stroke="black" points="3694.72,-84.8 3691.72,-88.8 3670.72,-88.8 3667.72,-84.8 3553.28,-84.8 3553.28,-48.8 3694.72,-48.8 3694.72,-84.8"/>
<text text-anchor="middle" x="3624" y="-62.6" font-family="Times,serif" font-size="14.00">BlogSummaryModule</text>
</g>
<!-- BlogSummaryModule&#45;&gt;AppModule -->
<g id="edge2" class="edge">
<title>BlogSummaryModule&#45;&gt;AppModule</title>
<path fill="none" stroke="black" d="M3624,-85.12C3624,-108.46 3624,-145.8 3624,-145.8 3624,-145.8 1961.94,-145.8 1961.94,-145.8"/>
<polygon fill="black" stroke="black" points="1961.94,-142.3 1951.94,-145.8 1961.94,-149.3 1961.94,-142.3"/>
</g>
<!-- ContributionModule -->
<g id="node3" class="node">
<title>ContributionModule</title>
<polygon fill="#8dd3c7" stroke="black" points="3535.61,-84.8 3532.61,-88.8 3511.61,-88.8 3508.61,-84.8 3404.39,-84.8 3404.39,-48.8 3535.61,-48.8 3535.61,-84.8"/>
<text text-anchor="middle" x="3470" y="-62.6" font-family="Times,serif" font-size="14.00">ContributionModule</text>
</g>
<!-- ContributionModule&#45;&gt;AppModule -->
<g id="edge3" class="edge">
<title>ContributionModule&#45;&gt;AppModule</title>
<path fill="none" stroke="black" d="M3470,-84.81C3470,-107.29 3470,-142.8 3470,-142.8 3470,-142.8 1961.73,-142.8 1961.73,-142.8"/>
<polygon fill="black" stroke="black" points="1961.73,-139.3 1951.73,-142.8 1961.73,-146.3 1961.73,-139.3"/>
</g>
<!-- ContributorModule -->
<g id="node4" class="node">
<title>ContributorModule</title>
<polygon fill="#8dd3c7" stroke="black" points="3386.38,-84.8 3383.38,-88.8 3362.38,-88.8 3359.38,-84.8 3261.62,-84.8 3261.62,-48.8 3386.38,-48.8 3386.38,-84.8"/>
<text text-anchor="middle" x="3324" y="-62.6" font-family="Times,serif" font-size="14.00">ContributorModule</text>
</g>
<!-- ContributorModule&#45;&gt;AppModule -->
<g id="edge4" class="edge">
<title>ContributorModule&#45;&gt;AppModule</title>
<path fill="none" stroke="black" d="M3324,-85.09C3324,-107.01 3324,-140.8 3324,-140.8 3324,-140.8 1961.93,-140.8 1961.93,-140.8"/>
<polygon fill="black" stroke="black" points="1961.93,-137.3 1951.93,-140.8 1961.93,-144.3 1961.93,-137.3"/>
</g>
<!-- CouponModule -->
<g id="node5" class="node">
<title>CouponModule</title>
<polygon fill="#8dd3c7" stroke="black" points="3243.89,-84.8 3240.89,-88.8 3219.89,-88.8 3216.89,-84.8 3140.11,-84.8 3140.11,-48.8 3243.89,-48.8 3243.89,-84.8"/>
<text text-anchor="middle" x="3192" y="-62.6" font-family="Times,serif" font-size="14.00">CouponModule</text>
</g>
<!-- CouponModule&#45;&gt;AppModule -->
<g id="edge5" class="edge">
<title>CouponModule&#45;&gt;AppModule</title>
<path fill="none" stroke="black" d="M3192,-85.08C3192,-106.12 3192,-137.8 3192,-137.8 3192,-137.8 1961.93,-137.8 1961.93,-137.8"/>
<polygon fill="black" stroke="black" points="1961.93,-134.3 1951.93,-137.8 1961.93,-141.3 1961.93,-134.3"/>
</g>
<!-- CustomerModule -->
<g id="node6" class="node">
<title>CustomerModule</title>
<polygon fill="#8dd3c7" stroke="black" points="3121.99,-84.8 3118.99,-88.8 3097.99,-88.8 3094.99,-84.8 3008.01,-84.8 3008.01,-48.8 3121.99,-48.8 3121.99,-84.8"/>
<text text-anchor="middle" x="3065" y="-62.6" font-family="Times,serif" font-size="14.00">CustomerModule</text>
</g>
<!-- CustomerModule&#45;&gt;AppModule -->
<g id="edge6" class="edge">
<title>CustomerModule&#45;&gt;AppModule</title>
<path fill="none" stroke="black" d="M3065,-84.93C3065,-105.37 3065,-135.8 3065,-135.8 3065,-135.8 1961.79,-135.8 1961.79,-135.8"/>
<polygon fill="black" stroke="black" points="1961.79,-132.3 1951.79,-135.8 1961.79,-139.3 1961.79,-132.3"/>
</g>
<!-- EmojiModule -->
<g id="node7" class="node">
<title>EmojiModule</title>
<polygon fill="#8dd3c7" stroke="black" points="2989.77,-84.8 2986.77,-88.8 2965.77,-88.8 2962.77,-84.8 2896.23,-84.8 2896.23,-48.8 2989.77,-48.8 2989.77,-84.8"/>
<text text-anchor="middle" x="2943" y="-62.6" font-family="Times,serif" font-size="14.00">EmojiModule</text>
</g>
<!-- EmojiModule&#45;&gt;AppModule -->
<g id="edge7" class="edge">
<title>EmojiModule&#45;&gt;AppModule</title>
<path fill="none" stroke="black" d="M2943,-85.11C2943,-104.95 2943,-133.8 2943,-133.8 2943,-133.8 1961.77,-133.8 1961.77,-133.8"/>
<polygon fill="black" stroke="black" points="1961.77,-130.3 1951.77,-133.8 1961.77,-137.3 1961.77,-130.3"/>
</g>
<!-- EndorsementModule -->
<g id="node8" class="node">
<title>EndorsementModule</title>
<polygon fill="#8dd3c7" stroke="black" points="2877.92,-84.8 2874.92,-88.8 2853.92,-88.8 2850.92,-84.8 2744.08,-84.8 2744.08,-48.8 2877.92,-48.8 2877.92,-84.8"/>
<text text-anchor="middle" x="2811" y="-62.6" font-family="Times,serif" font-size="14.00">EndorsementModule</text>
</g>
<!-- EndorsementModule&#45;&gt;AppModule -->
<g id="edge8" class="edge">
<title>EndorsementModule&#45;&gt;AppModule</title>
<path fill="none" stroke="black" d="M2811,-84.97C2811,-103.89 2811,-130.8 2811,-130.8 2811,-130.8 1961.95,-130.8 1961.95,-130.8"/>
<polygon fill="black" stroke="black" points="1961.95,-127.3 1951.95,-130.8 1961.95,-134.3 1961.95,-127.3"/>
</g>
<!-- HealthModule -->
<g id="node9" class="node">
<title>HealthModule</title>
<polygon fill="#8dd3c7" stroke="black" points="2726.37,-84.8 2723.37,-88.8 2702.37,-88.8 2699.37,-84.8 2629.63,-84.8 2629.63,-48.8 2726.37,-48.8 2726.37,-84.8"/>
<text text-anchor="middle" x="2678" y="-62.6" font-family="Times,serif" font-size="14.00">HealthModule</text>
</g>
<!-- HealthModule&#45;&gt;AppModule -->
<g id="edge9" class="edge">
<title>HealthModule&#45;&gt;AppModule</title>
<path fill="none" stroke="black" d="M2678,-85.07C2678,-103.36 2678,-128.8 2678,-128.8 2678,-128.8 1961.84,-128.8 1961.84,-128.8"/>
<polygon fill="black" stroke="black" points="1961.84,-125.3 1951.84,-128.8 1961.84,-132.3 1961.84,-125.3"/>
</g>
<!-- HighlightModule -->
<g id="node10" class="node">
<title>HighlightModule</title>
<polygon fill="#8dd3c7" stroke="black" points="2611.72,-84.8 2608.72,-88.8 2587.72,-88.8 2584.72,-84.8 2498.28,-84.8 2498.28,-48.8 2611.72,-48.8 2611.72,-84.8"/>
<text text-anchor="middle" x="2555" y="-62.6" font-family="Times,serif" font-size="14.00">HighlightModule</text>
</g>
<!-- HighlightModule&#45;&gt;AppModule -->
<g id="edge10" class="edge">
<title>HighlightModule&#45;&gt;AppModule</title>
<path fill="none" stroke="black" d="M2555,-84.82C2555,-102.17 2555,-125.8 2555,-125.8 2555,-125.8 1961.82,-125.8 1961.82,-125.8"/>
<polygon fill="black" stroke="black" points="1961.82,-122.3 1951.82,-125.8 1961.82,-129.3 1961.82,-122.3"/>
</g>
<!-- HistogramModule -->
<g id="node11" class="node">
<title>HistogramModule</title>
<polygon fill="#8dd3c7" stroke="black" points="2480.16,-84.8 2477.16,-88.8 2456.16,-88.8 2453.16,-84.8 2361.84,-84.8 2361.84,-48.8 2480.16,-48.8 2480.16,-84.8"/>
<text text-anchor="middle" x="2421" y="-62.6" font-family="Times,serif" font-size="14.00">HistogramModule</text>
</g>
<!-- HistogramModule&#45;&gt;AppModule -->
<g id="edge11" class="edge">
<title>HistogramModule&#45;&gt;AppModule</title>
<path fill="none" stroke="black" d="M2421,-84.84C2421,-101.53 2421,-123.8 2421,-123.8 2421,-123.8 1961.82,-123.8 1961.82,-123.8"/>
<polygon fill="black" stroke="black" points="1961.82,-120.3 1951.82,-123.8 1961.82,-127.3 1961.82,-120.3"/>
</g>
<!-- InsightsModule -->
<g id="node12" class="node">
<title>InsightsModule</title>
<polygon fill="#8dd3c7" stroke="black" points="2343.89,-84.8 2340.89,-88.8 2319.89,-88.8 2316.89,-84.8 2240.11,-84.8 2240.11,-48.8 2343.89,-48.8 2343.89,-84.8"/>
<text text-anchor="middle" x="2292" y="-62.6" font-family="Times,serif" font-size="14.00">InsightsModule</text>
</g>
<!-- InsightsModule&#45;&gt;AppModule -->
<g id="edge12" class="edge">
<title>InsightsModule&#45;&gt;AppModule</title>
<path fill="none" stroke="black" d="M2292,-84.81C2292,-100.85 2292,-121.8 2292,-121.8 2292,-121.8 1961.97,-121.8 1961.97,-121.8"/>
<polygon fill="black" stroke="black" points="1961.97,-118.3 1951.97,-121.8 1961.97,-125.3 1961.97,-118.3"/>
</g>
<!-- IssueSummaryModule -->
<g id="node13" class="node">
<title>IssueSummaryModule</title>
<polygon fill="#8dd3c7" stroke="black" points="2222.27,-84.8 2219.27,-88.8 2198.27,-88.8 2195.27,-84.8 2079.73,-84.8 2079.73,-48.8 2222.27,-48.8 2222.27,-84.8"/>
<text text-anchor="middle" x="2151" y="-62.6" font-family="Times,serif" font-size="14.00">IssueSummaryModule</text>
</g>
<!-- IssueSummaryModule&#45;&gt;AppModule -->
<g id="edge13" class="edge">
<title>IssueSummaryModule&#45;&gt;AppModule</title>
<path fill="none" stroke="black" d="M2151,-84.99C2151,-99.98 2151,-118.8 2151,-118.8 2151,-118.8 1961.7,-118.8 1961.7,-118.8"/>
<polygon fill="black" stroke="black" points="1961.7,-115.3 1951.7,-118.8 1961.7,-122.3 1961.7,-115.3"/>
</g>
<!-- LogModule -->
<g id="node14" class="node">
<title>LogModule</title>
<polygon fill="#8dd3c7" stroke="black" points="2062.1,-84.8 2059.1,-88.8 2038.1,-88.8 2035.1,-84.8 1979.9,-84.8 1979.9,-48.8 2062.1,-48.8 2062.1,-84.8"/>
<text text-anchor="middle" x="2021" y="-62.6" font-family="Times,serif" font-size="14.00">LogModule</text>
</g>
<!-- LogModule&#45;&gt;AppModule -->
<g id="edge14" class="edge">
<title>LogModule&#45;&gt;AppModule</title>
<path fill="none" stroke="black" d="M2021,-84.85C2021,-99.17 2021,-116.8 2021,-116.8 2021,-116.8 1961.96,-116.8 1961.96,-116.8"/>
<polygon fill="black" stroke="black" points="1961.96,-113.3 1951.96,-116.8 1961.96,-120.3 1961.96,-113.3"/>
</g>
<!-- OpenAiModule -->
<g id="node15" class="node">
<title>OpenAiModule</title>
<polygon fill="#8dd3c7" stroke="black" points="1961.88,-84.8 1958.88,-88.8 1937.88,-88.8 1934.88,-84.8 1858.12,-84.8 1858.12,-48.8 1961.88,-48.8 1961.88,-84.8"/>
<text text-anchor="middle" x="1910" y="-62.6" font-family="Times,serif" font-size="14.00">OpenAiModule</text>
</g>
<!-- OpenAiModule&#45;&gt;AppModule -->
<g id="edge15" class="edge">
<title>OpenAiModule&#45;&gt;AppModule</title>
<path fill="none" stroke="black" d="M1910,-84.91C1910,-84.91 1910,-103.79 1910,-103.79"/>
<polygon fill="black" stroke="black" points="1906.5,-103.79 1910,-113.79 1913.5,-103.79 1906.5,-103.79"/>
</g>
<!-- PizzaOvenModule -->
<g id="node16" class="node">
<title>PizzaOvenModule</title>
<polygon fill="#8dd3c7" stroke="black" points="1840.19,-84.8 1837.19,-88.8 1816.19,-88.8 1813.19,-84.8 1719.81,-84.8 1719.81,-48.8 1840.19,-48.8 1840.19,-84.8"/>
<text text-anchor="middle" x="1780" y="-62.6" font-family="Times,serif" font-size="14.00">PizzaOvenModule</text>
</g>
<!-- PizzaOvenModule&#45;&gt;AppModule -->
<g id="edge16" class="edge">
<title>PizzaOvenModule&#45;&gt;AppModule</title>
<path fill="none" stroke="black" d="M1780,-84.85C1780,-99.17 1780,-116.8 1780,-116.8 1780,-116.8 1858.15,-116.8 1858.15,-116.8"/>
<polygon fill="black" stroke="black" points="1858.15,-120.3 1868.15,-116.8 1858.15,-113.3 1858.15,-120.3"/>
</g>
<!-- PullRequestModule -->
<g id="node17" class="node">
<title>PullRequestModule</title>
<polygon fill="#8dd3c7" stroke="black" points="1701.72,-84.8 1698.72,-88.8 1677.72,-88.8 1674.72,-84.8 1574.28,-84.8 1574.28,-48.8 1701.72,-48.8 1701.72,-84.8"/>
<text text-anchor="middle" x="1638" y="-62.6" font-family="Times,serif" font-size="14.00">PullRequestModule</text>
</g>
<!-- PullRequestModule&#45;&gt;AppModule -->
<g id="edge17" class="edge">
<title>PullRequestModule&#45;&gt;AppModule</title>
<path fill="none" stroke="black" d="M1638,-84.99C1638,-99.98 1638,-118.8 1638,-118.8 1638,-118.8 1858.1,-118.8 1858.1,-118.8"/>
<polygon fill="black" stroke="black" points="1858.1,-122.3 1868.1,-118.8 1858.1,-115.3 1858.1,-122.3"/>
</g>
<!-- RepoModule -->
<g id="node18" class="node">
<title>RepoModule</title>
<polygon fill="#8dd3c7" stroke="black" points="1556.6,-84.8 1553.6,-88.8 1532.6,-88.8 1529.6,-84.8 1467.4,-84.8 1467.4,-48.8 1556.6,-48.8 1556.6,-84.8"/>
<text text-anchor="middle" x="1512" y="-62.6" font-family="Times,serif" font-size="14.00">RepoModule</text>
</g>
<!-- RepoModule&#45;&gt;AppModule -->
<g id="edge18" class="edge">
<title>RepoModule&#45;&gt;AppModule</title>
<path fill="none" stroke="black" d="M1512,-84.81C1512,-100.85 1512,-121.8 1512,-121.8 1512,-121.8 1858.16,-121.8 1858.16,-121.8"/>
<polygon fill="black" stroke="black" points="1858.16,-125.3 1868.16,-121.8 1858.16,-118.3 1858.16,-125.3"/>
</g>
<!-- StarModule -->
<g id="node19" class="node">
<title>StarModule</title>
<polygon fill="#8dd3c7" stroke="black" points="1449.1,-84.8 1446.1,-88.8 1425.1,-88.8 1422.1,-84.8 1366.9,-84.8 1366.9,-48.8 1449.1,-48.8 1449.1,-84.8"/>
<text text-anchor="middle" x="1408" y="-62.6" font-family="Times,serif" font-size="14.00">StarModule</text>
</g>
<!-- StarModule&#45;&gt;AppModule -->
<g id="edge19" class="edge">
<title>StarModule&#45;&gt;AppModule</title>
<path fill="none" stroke="black" d="M1408,-84.84C1408,-101.53 1408,-123.8 1408,-123.8 1408,-123.8 1858.06,-123.8 1858.06,-123.8"/>
<polygon fill="black" stroke="black" points="1858.06,-127.3 1868.06,-123.8 1858.06,-120.3 1858.06,-127.3"/>
</g>
<!-- StargazeModule -->
<g id="node20" class="node">
<title>StargazeModule</title>
<polygon fill="#8dd3c7" stroke="black" points="1348.75,-84.8 1345.75,-88.8 1324.75,-88.8 1321.75,-84.8 1241.25,-84.8 1241.25,-48.8 1348.75,-48.8 1348.75,-84.8"/>
<text text-anchor="middle" x="1295" y="-62.6" font-family="Times,serif" font-size="14.00">StargazeModule</text>
</g>
<!-- StargazeModule&#45;&gt;AppModule -->
<g id="edge20" class="edge">
<title>StargazeModule&#45;&gt;AppModule</title>
<path fill="none" stroke="black" d="M1295,-84.82C1295,-102.17 1295,-125.8 1295,-125.8 1295,-125.8 1858.21,-125.8 1858.21,-125.8"/>
<polygon fill="black" stroke="black" points="1858.21,-129.3 1868.21,-125.8 1858.21,-122.3 1858.21,-129.3"/>
</g>
<!-- StripeSubscriptionModule -->
<g id="node21" class="node">
<title>StripeSubscriptionModule</title>
<polygon fill="#8dd3c7" stroke="black" points="1222.77,-84.8 1219.77,-88.8 1198.77,-88.8 1195.77,-84.8 1059.23,-84.8 1059.23,-48.8 1222.77,-48.8 1222.77,-84.8"/>
<text text-anchor="middle" x="1141" y="-62.6" font-family="Times,serif" font-size="14.00">StripeSubscriptionModule</text>
</g>
<!-- StripeSubscriptionModule&#45;&gt;AppModule -->
<g id="edge21" class="edge">
<title>StripeSubscriptionModule&#45;&gt;AppModule</title>
<path fill="none" stroke="black" d="M1141,-85.07C1141,-103.36 1141,-128.8 1141,-128.8 1141,-128.8 1858.11,-128.8 1858.11,-128.8"/>
<polygon fill="black" stroke="black" points="1858.11,-132.3 1868.11,-128.8 1858.11,-125.3 1858.11,-132.3"/>
</g>
<!-- StripeWebHookModule -->
<g id="node22" class="node">
<title>StripeWebHookModule</title>
<polygon fill="#8dd3c7" stroke="black" points="1041.03,-84.8 1038.03,-88.8 1017.03,-88.8 1014.03,-84.8 890.97,-84.8 890.97,-48.8 1041.03,-48.8 1041.03,-84.8"/>
<text text-anchor="middle" x="966" y="-62.6" font-family="Times,serif" font-size="14.00">StripeWebHookModule</text>
</g>
<!-- StripeWebHookModule&#45;&gt;AppModule -->
<g id="edge22" class="edge">
<title>StripeWebHookModule&#45;&gt;AppModule</title>
<path fill="none" stroke="black" d="M966,-84.97C966,-103.89 966,-130.8 966,-130.8 966,-130.8 1858.22,-130.8 1858.22,-130.8"/>
<polygon fill="black" stroke="black" points="1858.22,-134.3 1868.22,-130.8 1858.22,-127.3 1858.22,-134.3"/>
</g>
<!-- SubmitModule -->
<g id="node23" class="node">
<title>SubmitModule</title>
<polygon fill="#8dd3c7" stroke="black" points="873.01,-84.8 870.01,-88.8 849.01,-88.8 846.01,-84.8 772.99,-84.8 772.99,-48.8 873.01,-48.8 873.01,-84.8"/>
<text text-anchor="middle" x="823" y="-62.6" font-family="Times,serif" font-size="14.00">SubmitModule</text>
</g>
<!-- SubmitModule&#45;&gt;AppModule -->
<g id="edge23" class="edge">
<title>SubmitModule&#45;&gt;AppModule</title>
<path fill="none" stroke="black" d="M823,-85.11C823,-104.95 823,-133.8 823,-133.8 823,-133.8 1858.05,-133.8 1858.05,-133.8"/>
<polygon fill="black" stroke="black" points="1858.05,-137.3 1868.05,-133.8 1858.05,-130.3 1858.05,-137.3"/>
</g>
<!-- TimescaleModule -->
<g id="node24" class="node">
<title>TimescaleModule</title>
<polygon fill="#8dd3c7" stroke="black" points="754.58,-84.8 751.58,-88.8 730.58,-88.8 727.58,-84.8 637.42,-84.8 637.42,-48.8 754.58,-48.8 754.58,-84.8"/>
<text text-anchor="middle" x="696" y="-62.6" font-family="Times,serif" font-size="14.00">TimescaleModule</text>
</g>
<!-- TimescaleModule&#45;&gt;AppModule -->
<g id="edge24" class="edge">
<title>TimescaleModule&#45;&gt;AppModule</title>
<path fill="none" stroke="black" d="M696,-84.93C696,-105.37 696,-135.8 696,-135.8 696,-135.8 1858.21,-135.8 1858.21,-135.8"/>
<polygon fill="black" stroke="black" points="1858.21,-139.3 1868.21,-135.8 1858.21,-132.3 1858.21,-139.3"/>
</g>
<!-- UserListModule -->
<g id="node25" class="node">
<title>UserListModule</title>
<polygon fill="#8dd3c7" stroke="black" points="619.77,-84.8 616.77,-88.8 595.77,-88.8 592.77,-84.8 512.23,-84.8 512.23,-48.8 619.77,-48.8 619.77,-84.8"/>
<text text-anchor="middle" x="566" y="-62.6" font-family="Times,serif" font-size="14.00">UserListModule</text>
</g>
<!-- UserListModule&#45;&gt;AppModule -->
<g id="edge25" class="edge">
<title>UserListModule&#45;&gt;AppModule</title>
<path fill="none" stroke="black" d="M566,-85.08C566,-106.12 566,-137.8 566,-137.8 566,-137.8 1858.3,-137.8 1858.3,-137.8"/>
<polygon fill="black" stroke="black" points="1858.3,-141.3 1868.3,-137.8 1858.3,-134.3 1858.3,-141.3"/>
</g>
<!-- UserModule -->
<g id="node26" class="node">
<title>UserModule</title>
<polygon fill="#8dd3c7" stroke="black" points="493.99,-84.8 490.99,-88.8 469.99,-88.8 466.99,-84.8 408.01,-84.8 408.01,-48.8 493.99,-48.8 493.99,-84.8"/>
<text text-anchor="middle" x="451" y="-62.6" font-family="Times,serif" font-size="14.00">UserModule</text>
</g>
<!-- UserModule&#45;&gt;AppModule -->
<g id="edge26" class="edge">
<title>UserModule&#45;&gt;AppModule</title>
<path fill="none" stroke="black" d="M451,-85.09C451,-107.01 451,-140.8 451,-140.8 451,-140.8 1858.3,-140.8 1858.3,-140.8"/>
<polygon fill="black" stroke="black" points="1858.3,-144.3 1868.3,-140.8 1858.3,-137.3 1858.3,-144.3"/>
</g>
<!-- UserReposModule -->
<g id="node27" class="node">
<title>UserReposModule</title>
<polygon fill="#8dd3c7" stroke="black" points="390.49,-84.8 387.49,-88.8 366.49,-88.8 363.49,-84.8 269.51,-84.8 269.51,-48.8 390.49,-48.8 390.49,-84.8"/>
<text text-anchor="middle" x="330" y="-62.6" font-family="Times,serif" font-size="14.00">UserReposModule</text>
</g>
<!-- UserReposModule&#45;&gt;AppModule -->
<g id="edge27" class="edge">
<title>UserReposModule&#45;&gt;AppModule</title>
<path fill="none" stroke="black" d="M330,-84.81C330,-107.29 330,-142.8 330,-142.8 330,-142.8 1858.15,-142.8 1858.15,-142.8"/>
<polygon fill="black" stroke="black" points="1858.15,-146.3 1868.15,-142.8 1858.15,-139.3 1858.15,-146.3"/>
</g>
<!-- VoteModule -->
<g id="node28" class="node">
<title>VoteModule</title>
<polygon fill="#8dd3c7" stroke="black" points="251.27,-84.8 248.27,-88.8 227.27,-88.8 224.27,-84.8 164.73,-84.8 164.73,-48.8 251.27,-48.8 251.27,-84.8"/>
<text text-anchor="middle" x="208" y="-62.6" font-family="Times,serif" font-size="14.00">VoteModule</text>
</g>
<!-- VoteModule&#45;&gt;AppModule -->
<g id="edge28" class="edge">
<title>VoteModule&#45;&gt;AppModule</title>
<path fill="none" stroke="black" d="M208,-85.12C208,-108.46 208,-145.8 208,-145.8 208,-145.8 1857.93,-145.8 1857.93,-145.8"/>
<polygon fill="black" stroke="black" points="1857.93,-149.3 1867.93,-145.8 1857.93,-142.3 1857.93,-149.3"/>
</g>
<!-- WorkspaceModule -->
<g id="node29" class="node">
<title>WorkspaceModule</title>
<polygon fill="#8dd3c7" stroke="black" points="146.02,-84.8 143.02,-88.8 122.02,-88.8 119.02,-84.8 23.98,-84.8 23.98,-48.8 146.02,-48.8 146.02,-84.8"/>
<text text-anchor="middle" x="85" y="-62.6" font-family="Times,serif" font-size="14.00">WorkspaceModule</text>
</g>
<!-- WorkspaceModule&#45;&gt;AppModule -->
<g id="edge29" class="edge">
<title>WorkspaceModule&#45;&gt;AppModule</title>
<path fill="none" stroke="black" d="M85,-85.18C85,-109.08 85,-147.8 85,-147.8 85,-147.8 1858.02,-147.8 1858.02,-147.8"/>
<polygon fill="black" stroke="black" points="1858.02,-151.3 1868.02,-147.8 1858.02,-144.3 1858.02,-151.3"/>
</g>
</g>
</svg>
