<?xml version="1.0" encoding="UTF-8" standalone="no"?>
<!DOCTYPE svg PUBLIC "-//W3C//DTD SVG 1.1//EN"
 "http://www.w3.org/Graphics/SVG/1.1/DTD/svg11.dtd">
<!-- Generated by graphviz version 3.0.0 (20220226.1711)
 -->
<!-- Title: dependencies Pages: 1 -->
<svg width="2615pt" height="174pt"
 viewBox="0.00 0.00 2615.00 173.80" xmlns="http://www.w3.org/2000/svg" xmlns:xlink="http://www.w3.org/1999/xlink">
<g id="graph0" class="graph" transform="scale(1 1) rotate(0) translate(4 169.8)">
<title>dependencies</title>
<polygon fill="white" stroke="transparent" points="-4,4 -4,-169.8 2611,-169.8 2611,4 -4,4"/>
<text text-anchor="middle" x="1303.5" y="-8.2" font-family="sans-serif" font-size="14.00">dependencies</text>
<g id="clust1" class="cluster">
<title>cluster_AppModule</title>
<polygon fill="none" stroke="black" stroke-dasharray="1,5" points="8,-32.8 8,-157.8 2599,-157.8 2599,-32.8 8,-32.8"/>
</g>
<g id="clust3" class="cluster">
<title>cluster_AppModule_imports</title>
<polygon fill="none" stroke="black" points="16,-40.8 16,-92.8 2591,-92.8 2591,-40.8 16,-40.8"/>
</g>
<!-- AuthModule -->
<g id="node1" class="node">
<title>AuthModule</title>
<polygon fill="#8dd3c7" stroke="black" points="2582.55,-84.8 2579.55,-88.8 2558.55,-88.8 2555.55,-84.8 2495.45,-84.8 2495.45,-48.8 2582.55,-48.8 2582.55,-84.8"/>
<text text-anchor="middle" x="2539" y="-62.6" font-family="Times,serif" font-size="14.00">AuthModule</text>
</g>
<!-- AppModule -->
<g id="node21" class="node">
<title>AppModule</title>
<polygon fill="#8dd3c7" stroke="black" points="1344.66,-149.8 1341.66,-153.8 1320.66,-153.8 1317.66,-149.8 1261.34,-149.8 1261.34,-113.8 1344.66,-113.8 1344.66,-149.8"/>
<text text-anchor="middle" x="1303" y="-127.6" font-family="Times,serif" font-size="14.00">AppModule</text>
</g>
<!-- AuthModule&#45;&gt;AppModule -->
<g id="edge1" class="edge">
<title>AuthModule&#45;&gt;AppModule</title>
<path fill="none" stroke="black" d="M2539,-84.95C2539,-108.56 2539,-146.8 2539,-146.8 2539,-146.8 1354.83,-146.8 1354.83,-146.8"/>
<polygon fill="black" stroke="black" points="1354.83,-143.3 1344.83,-146.8 1354.83,-150.3 1354.83,-143.3"/>
</g>
<!-- ContributionModule -->
<g id="node2" class="node">
<title>ContributionModule</title>
<polygon fill="#8dd3c7" stroke="black" points="2477.61,-84.8 2474.61,-88.8 2453.61,-88.8 2450.61,-84.8 2346.39,-84.8 2346.39,-48.8 2477.61,-48.8 2477.61,-84.8"/>
<text text-anchor="middle" x="2412" y="-62.6" font-family="Times,serif" font-size="14.00">ContributionModule</text>
</g>
<!-- ContributionModule&#45;&gt;AppModule -->
<g id="edge2" class="edge">
<title>ContributionModule&#45;&gt;AppModule</title>
<path fill="none" stroke="black" d="M2412,-84.81C2412,-107.29 2412,-142.8 2412,-142.8 2412,-142.8 1354.78,-142.8 1354.78,-142.8"/>
<polygon fill="black" stroke="black" points="1354.78,-139.3 1344.78,-142.8 1354.78,-146.3 1354.78,-139.3"/>
</g>
<!-- ContributorModule -->
<g id="node3" class="node">
<title>ContributorModule</title>
<polygon fill="#8dd3c7" stroke="black" points="2328.38,-84.8 2325.38,-88.8 2304.38,-88.8 2301.38,-84.8 2203.62,-84.8 2203.62,-48.8 2328.38,-48.8 2328.38,-84.8"/>
<text text-anchor="middle" x="2266" y="-62.6" font-family="Times,serif" font-size="14.00">ContributorModule</text>
</g>
<!-- ContributorModule&#45;&gt;AppModule -->
<g id="edge3" class="edge">
<title>ContributorModule&#45;&gt;AppModule</title>
<path fill="none" stroke="black" d="M2266,-84.84C2266,-106.46 2266,-139.8 2266,-139.8 2266,-139.8 1354.69,-139.8 1354.69,-139.8"/>
<polygon fill="black" stroke="black" points="1354.69,-136.3 1344.69,-139.8 1354.69,-143.3 1354.69,-136.3"/>
</g>
<!-- CustomerModule -->
<g id="node4" class="node">
<title>CustomerModule</title>
<polygon fill="#8dd3c7" stroke="black" points="2185.99,-84.8 2182.99,-88.8 2161.99,-88.8 2158.99,-84.8 2072.01,-84.8 2072.01,-48.8 2185.99,-48.8 2185.99,-84.8"/>
<text text-anchor="middle" x="2129" y="-62.6" font-family="Times,serif" font-size="14.00">CustomerModule</text>
</g>
<!-- CustomerModule&#45;&gt;AppModule -->
<g id="edge4" class="edge">
<title>CustomerModule&#45;&gt;AppModule</title>
<path fill="none" stroke="black" d="M2129,-84.93C2129,-105.37 2129,-135.8 2129,-135.8 2129,-135.8 1354.81,-135.8 1354.81,-135.8"/>
<polygon fill="black" stroke="black" points="1354.81,-132.3 1344.81,-135.8 1354.81,-139.3 1354.81,-132.3"/>
</g>
<!-- EmojiModule -->
<g id="node5" class="node">
<title>EmojiModule</title>
<polygon fill="#8dd3c7" stroke="black" points="2053.77,-84.8 2050.77,-88.8 2029.77,-88.8 2026.77,-84.8 1960.23,-84.8 1960.23,-48.8 2053.77,-48.8 2053.77,-84.8"/>
<text text-anchor="middle" x="2007" y="-62.6" font-family="Times,serif" font-size="14.00">EmojiModule</text>
</g>
<!-- EmojiModule&#45;&gt;AppModule -->
<g id="edge5" class="edge">
<title>EmojiModule&#45;&gt;AppModule</title>
<path fill="none" stroke="black" d="M2007,-84.91C2007,-104.14 2007,-131.8 2007,-131.8 2007,-131.8 1354.67,-131.8 1354.67,-131.8"/>
<polygon fill="black" stroke="black" points="1354.67,-128.3 1344.67,-131.8 1354.67,-135.3 1354.67,-128.3"/>
</g>
<!-- EndorsementModule -->
<g id="node6" class="node">
<title>EndorsementModule</title>
<polygon fill="#8dd3c7" stroke="black" points="1941.92,-84.8 1938.92,-88.8 1917.92,-88.8 1914.92,-84.8 1808.08,-84.8 1808.08,-48.8 1941.92,-48.8 1941.92,-84.8"/>
<text text-anchor="middle" x="1875" y="-62.6" font-family="Times,serif" font-size="14.00">EndorsementModule</text>
</g>
<!-- EndorsementModule&#45;&gt;AppModule -->
<g id="edge6" class="edge">
<title>EndorsementModule&#45;&gt;AppModule</title>
<path fill="none" stroke="black" d="M1875,-85.07C1875,-103.36 1875,-128.8 1875,-128.8 1875,-128.8 1355.06,-128.8 1355.06,-128.8"/>
<polygon fill="black" stroke="black" points="1355.06,-125.3 1345.06,-128.8 1355.06,-132.3 1355.06,-125.3"/>
</g>
<!-- HealthModule -->
<g id="node7" class="node">
<title>HealthModule</title>
<polygon fill="#8dd3c7" stroke="black" points="1790.37,-84.8 1787.37,-88.8 1766.37,-88.8 1763.37,-84.8 1693.63,-84.8 1693.63,-48.8 1790.37,-48.8 1790.37,-84.8"/>
<text text-anchor="middle" x="1742" y="-62.6" font-family="Times,serif" font-size="14.00">HealthModule</text>
</g>
<!-- HealthModule&#45;&gt;AppModule -->
<g id="edge7" class="edge">
<title>HealthModule&#45;&gt;AppModule</title>
<path fill="none" stroke="black" d="M1742,-84.83C1742,-101.86 1742,-124.8 1742,-124.8 1742,-124.8 1354.7,-124.8 1354.7,-124.8"/>
<polygon fill="black" stroke="black" points="1354.7,-121.3 1344.7,-124.8 1354.7,-128.3 1354.7,-121.3"/>
</g>
<!-- HighlightModule -->
<g id="node8" class="node">
<title>HighlightModule</title>
<polygon fill="#8dd3c7" stroke="black" points="1675.72,-84.8 1672.72,-88.8 1651.72,-88.8 1648.72,-84.8 1562.28,-84.8 1562.28,-48.8 1675.72,-48.8 1675.72,-84.8"/>
<text text-anchor="middle" x="1619" y="-62.6" font-family="Times,serif" font-size="14.00">HighlightModule</text>
</g>
<!-- HighlightModule&#45;&gt;AppModule -->
<g id="edge8" class="edge">
<title>HighlightModule&#45;&gt;AppModule</title>
<path fill="none" stroke="black" d="M1619,-84.81C1619,-100.85 1619,-121.8 1619,-121.8 1619,-121.8 1354.96,-121.8 1354.96,-121.8"/>
<polygon fill="black" stroke="black" points="1354.96,-118.3 1344.96,-121.8 1354.96,-125.3 1354.96,-118.3"/>
</g>
<!-- InsightsModule -->
<g id="node9" class="node">
<title>InsightsModule</title>
<polygon fill="#8dd3c7" stroke="black" points="1543.89,-84.8 1540.89,-88.8 1519.89,-88.8 1516.89,-84.8 1440.11,-84.8 1440.11,-48.8 1543.89,-48.8 1543.89,-84.8"/>
<text text-anchor="middle" x="1492" y="-62.6" font-family="Times,serif" font-size="14.00">InsightsModule</text>
</g>
<!-- InsightsModule&#45;&gt;AppModule -->
<g id="edge9" class="edge">
<title>InsightsModule&#45;&gt;AppModule</title>
<path fill="none" stroke="black" d="M1492,-84.92C1492,-99.58 1492,-117.8 1492,-117.8 1492,-117.8 1354.95,-117.8 1354.95,-117.8"/>
<polygon fill="black" stroke="black" points="1354.95,-114.3 1344.95,-117.8 1354.95,-121.3 1354.95,-114.3"/>
</g>
<!-- OpenAiModule -->
<g id="node10" class="node">
<title>OpenAiModule</title>
<polygon fill="#8dd3c7" stroke="black" points="1421.88,-84.8 1418.88,-88.8 1397.88,-88.8 1394.88,-84.8 1318.12,-84.8 1318.12,-48.8 1421.88,-48.8 1421.88,-84.8"/>
<text text-anchor="middle" x="1370" y="-62.6" font-family="Times,serif" font-size="14.00">OpenAiModule</text>
</g>
<!-- OpenAiModule&#45;&gt;AppModule -->
<g id="edge10" class="edge">
<title>OpenAiModule&#45;&gt;AppModule</title>
<path fill="none" stroke="black" d="M1331.45,-84.91C1331.45,-84.91 1331.45,-103.79 1331.45,-103.79"/>
<polygon fill="black" stroke="black" points="1327.95,-103.79 1331.45,-113.79 1334.95,-103.79 1327.95,-103.79"/>
</g>
<!-- PullRequestModule -->
<g id="node11" class="node">
<title>PullRequestModule</title>
<polygon fill="#8dd3c7" stroke="black" points="1299.72,-84.8 1296.72,-88.8 1275.72,-88.8 1272.72,-84.8 1172.28,-84.8 1172.28,-48.8 1299.72,-48.8 1299.72,-84.8"/>
<text text-anchor="middle" x="1236" y="-62.6" font-family="Times,serif" font-size="14.00">PullRequestModule</text>
</g>
<!-- PullRequestModule&#45;&gt;AppModule -->
<g id="edge11" class="edge">
<title>PullRequestModule&#45;&gt;AppModule</title>
<path fill="none" stroke="black" d="M1280.39,-84.91C1280.39,-84.91 1280.39,-103.79 1280.39,-103.79"/>
<polygon fill="black" stroke="black" points="1276.89,-103.79 1280.39,-113.79 1283.89,-103.79 1276.89,-103.79"/>
</g>
<!-- RepoModule -->
<g id="node12" class="node">
<title>RepoModule</title>
<polygon fill="#8dd3c7" stroke="black" points="1154.6,-84.8 1151.6,-88.8 1130.6,-88.8 1127.6,-84.8 1065.4,-84.8 1065.4,-48.8 1154.6,-48.8 1154.6,-84.8"/>
<text text-anchor="middle" x="1110" y="-62.6" font-family="Times,serif" font-size="14.00">RepoModule</text>
</g>
<!-- RepoModule&#45;&gt;AppModule -->
<g id="edge12" class="edge">
<title>RepoModule&#45;&gt;AppModule</title>
<path fill="none" stroke="black" d="M1110,-84.92C1110,-99.58 1110,-117.8 1110,-117.8 1110,-117.8 1251.12,-117.8 1251.12,-117.8"/>
<polygon fill="black" stroke="black" points="1251.12,-121.3 1261.12,-117.8 1251.12,-114.3 1251.12,-121.3"/>
</g>
<!-- StarModule -->
<g id="node13" class="node">
<title>StarModule</title>
<polygon fill="#8dd3c7" stroke="black" points="1047.1,-84.8 1044.1,-88.8 1023.1,-88.8 1020.1,-84.8 964.9,-84.8 964.9,-48.8 1047.1,-48.8 1047.1,-84.8"/>
<text text-anchor="middle" x="1006" y="-62.6" font-family="Times,serif" font-size="14.00">StarModule</text>
</g>
<!-- StarModule&#45;&gt;AppModule -->
<g id="edge13" class="edge">
<title>StarModule&#45;&gt;AppModule</title>
<path fill="none" stroke="black" d="M1006,-84.81C1006,-100.85 1006,-121.8 1006,-121.8 1006,-121.8 1251.08,-121.8 1251.08,-121.8"/>
<polygon fill="black" stroke="black" points="1251.08,-125.3 1261.08,-121.8 1251.08,-118.3 1251.08,-125.3"/>
</g>
<!-- StargazeModule -->
<g id="node14" class="node">
<title>StargazeModule</title>
<polygon fill="#8dd3c7" stroke="black" points="946.75,-84.8 943.75,-88.8 922.75,-88.8 919.75,-84.8 839.25,-84.8 839.25,-48.8 946.75,-48.8 946.75,-84.8"/>
<text text-anchor="middle" x="893" y="-62.6" font-family="Times,serif" font-size="14.00">StargazeModule</text>
</g>
<!-- StargazeModule&#45;&gt;AppModule -->
<g id="edge14" class="edge">
<title>StargazeModule&#45;&gt;AppModule</title>
<path fill="none" stroke="black" d="M893,-84.83C893,-101.86 893,-124.8 893,-124.8 893,-124.8 1251.05,-124.8 1251.05,-124.8"/>
<polygon fill="black" stroke="black" points="1251.05,-128.3 1261.05,-124.8 1251.05,-121.3 1251.05,-128.3"/>
</g>
<!-- StripeSubscriptionModule -->
<g id="node15" class="node">
<title>StripeSubscriptionModule</title>
<polygon fill="#8dd3c7" stroke="black" points="820.77,-84.8 817.77,-88.8 796.77,-88.8 793.77,-84.8 657.23,-84.8 657.23,-48.8 820.77,-48.8 820.77,-84.8"/>
<text text-anchor="middle" x="739" y="-62.6" font-family="Times,serif" font-size="14.00">StripeSubscriptionModule</text>
</g>
<!-- StripeSubscriptionModule&#45;&gt;AppModule -->
<g id="edge15" class="edge">
<title>StripeSubscriptionModule&#45;&gt;AppModule</title>
<path fill="none" stroke="black" d="M739,-85.07C739,-103.36 739,-128.8 739,-128.8 739,-128.8 1251.07,-128.8 1251.07,-128.8"/>
<polygon fill="black" stroke="black" points="1251.07,-132.3 1261.07,-128.8 1251.07,-125.3 1251.07,-132.3"/>
</g>
<!-- StripeWebHookModule -->
<g id="node16" class="node">
<title>StripeWebHookModule</title>
<polygon fill="#8dd3c7" stroke="black" points="639.03,-84.8 636.03,-88.8 615.03,-88.8 612.03,-84.8 488.97,-84.8 488.97,-48.8 639.03,-48.8 639.03,-84.8"/>
<text text-anchor="middle" x="564" y="-62.6" font-family="Times,serif" font-size="14.00">StripeWebHookModule</text>
</g>
<!-- StripeWebHookModule&#45;&gt;AppModule -->
<g id="edge16" class="edge">
<title>StripeWebHookModule&#45;&gt;AppModule</title>
<path fill="none" stroke="black" d="M564,-84.91C564,-104.14 564,-131.8 564,-131.8 564,-131.8 1251.15,-131.8 1251.15,-131.8"/>
<polygon fill="black" stroke="black" points="1251.15,-135.3 1261.15,-131.8 1251.15,-128.3 1251.15,-135.3"/>
</g>
<!-- SubmitModule -->
<g id="node17" class="node">
<title>SubmitModule</title>
<polygon fill="#8dd3c7" stroke="black" points="471.01,-84.8 468.01,-88.8 447.01,-88.8 444.01,-84.8 370.99,-84.8 370.99,-48.8 471.01,-48.8 471.01,-84.8"/>
<text text-anchor="middle" x="421" y="-62.6" font-family="Times,serif" font-size="14.00">SubmitModule</text>
</g>
<!-- SubmitModule&#45;&gt;AppModule -->
<g id="edge17" class="edge">
<title>SubmitModule&#45;&gt;AppModule</title>
<path fill="none" stroke="black" d="M421,-84.93C421,-105.37 421,-135.8 421,-135.8 421,-135.8 1251.05,-135.8 1251.05,-135.8"/>
<polygon fill="black" stroke="black" points="1251.05,-139.3 1261.05,-135.8 1251.05,-132.3 1251.05,-139.3"/>
</g>
<!-- UserModule -->
<g id="node18" class="node">
<title>UserModule</title>
<polygon fill="#8dd3c7" stroke="black" points="352.99,-84.8 349.99,-88.8 328.99,-88.8 325.99,-84.8 267.01,-84.8 267.01,-48.8 352.99,-48.8 352.99,-84.8"/>
<text text-anchor="middle" x="310" y="-62.6" font-family="Times,serif" font-size="14.00">UserModule</text>
</g>
<!-- UserModule&#45;&gt;AppModule -->
<g id="edge18" class="edge">
<title>UserModule&#45;&gt;AppModule</title>
<path fill="none" stroke="black" d="M310,-84.84C310,-106.46 310,-139.8 310,-139.8 310,-139.8 1251.28,-139.8 1251.28,-139.8"/>
<polygon fill="black" stroke="black" points="1251.28,-143.3 1261.28,-139.8 1251.28,-136.3 1251.28,-143.3"/>
</g>
<!-- UserReposModule -->
<g id="node19" class="node">
<title>UserReposModule</title>
<polygon fill="#8dd3c7" stroke="black" points="249.49,-84.8 246.49,-88.8 225.49,-88.8 222.49,-84.8 128.51,-84.8 128.51,-48.8 249.49,-48.8 249.49,-84.8"/>
<text text-anchor="middle" x="189" y="-62.6" font-family="Times,serif" font-size="14.00">UserReposModule</text>
</g>
<!-- UserReposModule&#45;&gt;AppModule -->
<g id="edge19" class="edge">
<title>UserReposModule&#45;&gt;AppModule</title>
<path fill="none" stroke="black" d="M189,-84.81C189,-107.29 189,-142.8 189,-142.8 189,-142.8 1251.03,-142.8 1251.03,-142.8"/>
<polygon fill="black" stroke="black" points="1251.03,-146.3 1261.03,-142.8 1251.03,-139.3 1251.03,-146.3"/>
</g>
<!-- VoteModule -->
<g id="node20" class="node">
<title>VoteModule</title>
<polygon fill="#8dd3c7" stroke="black" points="110.27,-84.8 107.27,-88.8 86.27,-88.8 83.27,-84.8 23.73,-84.8 23.73,-48.8 110.27,-48.8 110.27,-84.8"/>
<text text-anchor="middle" x="67" y="-62.6" font-family="Times,serif" font-size="14.00">VoteModule</text>
</g>
<!-- VoteModule&#45;&gt;AppModule -->
<g id="edge20" class="edge">
<title>VoteModule&#45;&gt;AppModule</title>
<path fill="none" stroke="black" d="M67,-84.95C67,-108.56 67,-146.8 67,-146.8 67,-146.8 1251.17,-146.8 1251.17,-146.8"/>
<polygon fill="black" stroke="black" points="1251.17,-150.3 1261.17,-146.8 1251.17,-143.3 1251.17,-150.3"/>
</g>
</g>
</svg>
