<?xml version="1.0" encoding="UTF-8" standalone="no"?>
<!DOCTYPE svg PUBLIC "-//W3C//DTD SVG 1.1//EN"
 "http://www.w3.org/Graphics/SVG/1.1/DTD/svg11.dtd">
<!-- Generated by graphviz version 3.0.0 (20220226.1711)
 -->
<!-- Title: dependencies Pages: 1 -->
<svg width="3780pt" height="174pt"
 viewBox="0.00 0.00 3780.00 173.80" xmlns="http://www.w3.org/2000/svg" xmlns:xlink="http://www.w3.org/1999/xlink">
<g id="graph0" class="graph" transform="scale(1 1) rotate(0) translate(4 169.8)">
<title>dependencies</title>
<polygon fill="white" stroke="transparent" points="-4,4 -4,-169.8 3776,-169.8 3776,4 -4,4"/>
<text text-anchor="middle" x="1886" y="-8.2" font-family="sans-serif" font-size="14.00">dependencies</text>
<g id="clust1" class="cluster">
<title>cluster_AppModule</title>
<polygon fill="none" stroke="black" stroke-dasharray="1,5" points="8,-32.8 8,-157.8 3764,-157.8 3764,-32.8 8,-32.8"/>
</g>
<g id="clust3" class="cluster">
<title>cluster_AppModule_imports</title>
<polygon fill="none" stroke="black" points="16,-40.8 16,-92.8 3756,-92.8 3756,-40.8 16,-40.8"/>
</g>
<!-- AuthModule -->
<g id="node1" class="node">
<title>AuthModule</title>
<polygon fill="#8dd3c7" stroke="black" points="3747.55,-84.8 3744.55,-88.8 3723.55,-88.8 3720.55,-84.8 3660.45,-84.8 3660.45,-48.8 3747.55,-48.8 3747.55,-84.8"/>
<text text-anchor="middle" x="3704" y="-62.6" font-family="Times,serif" font-size="14.00">AuthModule</text>
</g>
<!-- AppModule -->
<g id="node30" class="node">
<title>AppModule</title>
<polygon fill="#8dd3c7" stroke="black" points="1918.66,-149.8 1915.66,-153.8 1894.66,-153.8 1891.66,-149.8 1835.34,-149.8 1835.34,-113.8 1918.66,-113.8 1918.66,-149.8"/>
<text text-anchor="middle" x="1877" y="-127.6" font-family="Times,serif" font-size="14.00">AppModule</text>
</g>
<!-- AuthModule&#45;&gt;AppModule -->
<g id="edge1" class="edge">
<title>AuthModule&#45;&gt;AppModule</title>
<path fill="none" stroke="black" d="M3704,-85.18C3704,-109.08 3704,-147.8 3704,-147.8 3704,-147.8 1929.03,-147.8 1929.03,-147.8"/>
<polygon fill="black" stroke="black" points="1929.03,-144.3 1919.03,-147.8 1929.03,-151.3 1929.03,-144.3"/>
</g>
<!-- BlogSummaryModule -->
<g id="node2" class="node">
<title>BlogSummaryModule</title>
<polygon fill="#8dd3c7" stroke="black" points="3642.72,-84.8 3639.72,-88.8 3618.72,-88.8 3615.72,-84.8 3501.28,-84.8 3501.28,-48.8 3642.72,-48.8 3642.72,-84.8"/>
<text text-anchor="middle" x="3572" y="-62.6" font-family="Times,serif" font-size="14.00">BlogSummaryModule</text>
</g>
<!-- BlogSummaryModule&#45;&gt;AppModule -->
<g id="edge2" class="edge">
<title>BlogSummaryModule&#45;&gt;AppModule</title>
<path fill="none" stroke="black" d="M3572,-85.12C3572,-108.46 3572,-145.8 3572,-145.8 3572,-145.8 1928.9,-145.8 1928.9,-145.8"/>
<polygon fill="black" stroke="black" points="1928.9,-142.3 1918.9,-145.8 1928.9,-149.3 1928.9,-142.3"/>
</g>
<!-- ContributorModule -->
<g id="node3" class="node">
<title>ContributorModule</title>
<polygon fill="#8dd3c7" stroke="black" points="3483.38,-84.8 3480.38,-88.8 3459.38,-88.8 3456.38,-84.8 3358.62,-84.8 3358.62,-48.8 3483.38,-48.8 3483.38,-84.8"/>
<text text-anchor="middle" x="3421" y="-62.6" font-family="Times,serif" font-size="14.00">ContributorModule</text>
</g>
<!-- ContributorModule&#45;&gt;AppModule -->
<g id="edge3" class="edge">
<title>ContributorModule&#45;&gt;AppModule</title>
<path fill="none" stroke="black" d="M3421,-84.81C3421,-107.29 3421,-142.8 3421,-142.8 3421,-142.8 1928.7,-142.8 1928.7,-142.8"/>
<polygon fill="black" stroke="black" points="1928.7,-139.3 1918.7,-142.8 1928.7,-146.3 1928.7,-139.3"/>
</g>
<!-- CouponModule -->
<g id="node4" class="node">
<title>CouponModule</title>
<polygon fill="#8dd3c7" stroke="black" points="3340.89,-84.8 3337.89,-88.8 3316.89,-88.8 3313.89,-84.8 3237.11,-84.8 3237.11,-48.8 3340.89,-48.8 3340.89,-84.8"/>
<text text-anchor="middle" x="3289" y="-62.6" font-family="Times,serif" font-size="14.00">CouponModule</text>
</g>
<!-- CouponModule&#45;&gt;AppModule -->
<g id="edge4" class="edge">
<title>CouponModule&#45;&gt;AppModule</title>
<path fill="none" stroke="black" d="M3289,-85.09C3289,-107.01 3289,-140.8 3289,-140.8 3289,-140.8 1928.88,-140.8 1928.88,-140.8"/>
<polygon fill="black" stroke="black" points="1928.88,-137.3 1918.88,-140.8 1928.88,-144.3 1928.88,-137.3"/>
</g>
<!-- CustomerModule -->
<g id="node5" class="node">
<title>CustomerModule</title>
<polygon fill="#8dd3c7" stroke="black" points="3218.99,-84.8 3215.99,-88.8 3194.99,-88.8 3191.99,-84.8 3105.01,-84.8 3105.01,-48.8 3218.99,-48.8 3218.99,-84.8"/>
<text text-anchor="middle" x="3162" y="-62.6" font-family="Times,serif" font-size="14.00">CustomerModule</text>
</g>
<!-- CustomerModule&#45;&gt;AppModule -->
<g id="edge5" class="edge">
<title>CustomerModule&#45;&gt;AppModule</title>
<path fill="none" stroke="black" d="M3162,-85.08C3162,-106.12 3162,-137.8 3162,-137.8 3162,-137.8 1929.02,-137.8 1929.02,-137.8"/>
<polygon fill="black" stroke="black" points="1929.02,-134.3 1919.02,-137.8 1929.02,-141.3 1929.02,-134.3"/>
</g>
<!-- EmojiModule -->
<g id="node6" class="node">
<title>EmojiModule</title>
<polygon fill="#8dd3c7" stroke="black" points="3086.77,-84.8 3083.77,-88.8 3062.77,-88.8 3059.77,-84.8 2993.23,-84.8 2993.23,-48.8 3086.77,-48.8 3086.77,-84.8"/>
<text text-anchor="middle" x="3040" y="-62.6" font-family="Times,serif" font-size="14.00">EmojiModule</text>
</g>
<!-- EmojiModule&#45;&gt;AppModule -->
<g id="edge6" class="edge">
<title>EmojiModule&#45;&gt;AppModule</title>
<path fill="none" stroke="black" d="M3040,-84.93C3040,-105.37 3040,-135.8 3040,-135.8 3040,-135.8 1928.73,-135.8 1928.73,-135.8"/>
<polygon fill="black" stroke="black" points="1928.73,-132.3 1918.73,-135.8 1928.73,-139.3 1928.73,-132.3"/>
</g>
<!-- EndorsementModule -->
<g id="node7" class="node">
<title>EndorsementModule</title>
<polygon fill="#8dd3c7" stroke="black" points="2974.92,-84.8 2971.92,-88.8 2950.92,-88.8 2947.92,-84.8 2841.08,-84.8 2841.08,-48.8 2974.92,-48.8 2974.92,-84.8"/>
<text text-anchor="middle" x="2908" y="-62.6" font-family="Times,serif" font-size="14.00">EndorsementModule</text>
</g>
<!-- EndorsementModule&#45;&gt;AppModule -->
<g id="edge7" class="edge">
<title>EndorsementModule&#45;&gt;AppModule</title>
<path fill="none" stroke="black" d="M2908,-85.11C2908,-104.95 2908,-133.8 2908,-133.8 2908,-133.8 1928.69,-133.8 1928.69,-133.8"/>
<polygon fill="black" stroke="black" points="1928.69,-130.3 1918.69,-133.8 1928.69,-137.3 1928.69,-130.3"/>
</g>
<!-- HealthModule -->
<g id="node8" class="node">
<title>HealthModule</title>
<polygon fill="#8dd3c7" stroke="black" points="2823.37,-84.8 2820.37,-88.8 2799.37,-88.8 2796.37,-84.8 2726.63,-84.8 2726.63,-48.8 2823.37,-48.8 2823.37,-84.8"/>
<text text-anchor="middle" x="2775" y="-62.6" font-family="Times,serif" font-size="14.00">HealthModule</text>
</g>
<!-- HealthModule&#45;&gt;AppModule -->
<g id="edge8" class="edge">
<title>HealthModule&#45;&gt;AppModule</title>
<path fill="none" stroke="black" d="M2775,-84.97C2775,-103.89 2775,-130.8 2775,-130.8 2775,-130.8 1928.81,-130.8 1928.81,-130.8"/>
<polygon fill="black" stroke="black" points="1928.81,-127.3 1918.81,-130.8 1928.81,-134.3 1928.81,-127.3"/>
</g>
<!-- HighlightModule -->
<g id="node9" class="node">
<title>HighlightModule</title>
<polygon fill="#8dd3c7" stroke="black" points="2708.72,-84.8 2705.72,-88.8 2684.72,-88.8 2681.72,-84.8 2595.28,-84.8 2595.28,-48.8 2708.72,-48.8 2708.72,-84.8"/>
<text text-anchor="middle" x="2652" y="-62.6" font-family="Times,serif" font-size="14.00">HighlightModule</text>
</g>
<!-- HighlightModule&#45;&gt;AppModule -->
<g id="edge9" class="edge">
<title>HighlightModule&#45;&gt;AppModule</title>
<path fill="none" stroke="black" d="M2652,-85.07C2652,-103.36 2652,-128.8 2652,-128.8 2652,-128.8 1928.67,-128.8 1928.67,-128.8"/>
<polygon fill="black" stroke="black" points="1928.67,-125.3 1918.67,-128.8 1928.67,-132.3 1928.67,-125.3"/>
</g>
<!-- HistogramModule -->
<g id="node10" class="node">
<title>HistogramModule</title>
<polygon fill="#8dd3c7" stroke="black" points="2577.16,-84.8 2574.16,-88.8 2553.16,-88.8 2550.16,-84.8 2458.84,-84.8 2458.84,-48.8 2577.16,-48.8 2577.16,-84.8"/>
<text text-anchor="middle" x="2518" y="-62.6" font-family="Times,serif" font-size="14.00">HistogramModule</text>
</g>
<!-- HistogramModule&#45;&gt;AppModule -->
<g id="edge10" class="edge">
<title>HistogramModule&#45;&gt;AppModule</title>
<path fill="none" stroke="black" d="M2518,-84.82C2518,-102.17 2518,-125.8 2518,-125.8 2518,-125.8 1929.06,-125.8 1929.06,-125.8"/>
<polygon fill="black" stroke="black" points="1929.06,-122.3 1919.06,-125.8 1929.06,-129.3 1929.06,-122.3"/>
</g>
<!-- InsightsModule -->
<g id="node11" class="node">
<title>InsightsModule</title>
<polygon fill="#8dd3c7" stroke="black" points="2440.89,-84.8 2437.89,-88.8 2416.89,-88.8 2413.89,-84.8 2337.11,-84.8 2337.11,-48.8 2440.89,-48.8 2440.89,-84.8"/>
<text text-anchor="middle" x="2389" y="-62.6" font-family="Times,serif" font-size="14.00">InsightsModule</text>
</g>
<!-- InsightsModule&#45;&gt;AppModule -->
<g id="edge11" class="edge">
<title>InsightsModule&#45;&gt;AppModule</title>
<path fill="none" stroke="black" d="M2389,-84.84C2389,-101.53 2389,-123.8 2389,-123.8 2389,-123.8 1928.9,-123.8 1928.9,-123.8"/>
<polygon fill="black" stroke="black" points="1928.9,-120.3 1918.9,-123.8 1928.9,-127.3 1928.9,-120.3"/>
</g>
<!-- IssueSummaryModule -->
<g id="node12" class="node">
<title>IssueSummaryModule</title>
<polygon fill="#8dd3c7" stroke="black" points="2319.27,-84.8 2316.27,-88.8 2295.27,-88.8 2292.27,-84.8 2176.73,-84.8 2176.73,-48.8 2319.27,-48.8 2319.27,-84.8"/>
<text text-anchor="middle" x="2248" y="-62.6" font-family="Times,serif" font-size="14.00">IssueSummaryModule</text>
</g>
<!-- IssueSummaryModule&#45;&gt;AppModule -->
<g id="edge12" class="edge">
<title>IssueSummaryModule&#45;&gt;AppModule</title>
<path fill="none" stroke="black" d="M2248,-84.81C2248,-100.85 2248,-121.8 2248,-121.8 2248,-121.8 1928.84,-121.8 1928.84,-121.8"/>
<polygon fill="black" stroke="black" points="1928.84,-118.3 1918.84,-121.8 1928.84,-125.3 1928.84,-118.3"/>
</g>
<!-- LogModule -->
<g id="node13" class="node">
<title>LogModule</title>
<polygon fill="#8dd3c7" stroke="black" points="2159.1,-84.8 2156.1,-88.8 2135.1,-88.8 2132.1,-84.8 2076.9,-84.8 2076.9,-48.8 2159.1,-48.8 2159.1,-84.8"/>
<text text-anchor="middle" x="2118" y="-62.6" font-family="Times,serif" font-size="14.00">LogModule</text>
</g>
<!-- LogModule&#45;&gt;AppModule -->
<g id="edge13" class="edge">
<title>LogModule&#45;&gt;AppModule</title>
<path fill="none" stroke="black" d="M2118,-84.99C2118,-99.98 2118,-118.8 2118,-118.8 2118,-118.8 1928.7,-118.8 1928.7,-118.8"/>
<polygon fill="black" stroke="black" points="1928.7,-115.3 1918.7,-118.8 1928.7,-122.3 1928.7,-115.3"/>
</g>
<!-- OpenAiModule -->
<g id="node14" class="node">
<title>OpenAiModule</title>
<polygon fill="#8dd3c7" stroke="black" points="2058.88,-84.8 2055.88,-88.8 2034.88,-88.8 2031.88,-84.8 1955.12,-84.8 1955.12,-48.8 2058.88,-48.8 2058.88,-84.8"/>
<text text-anchor="middle" x="2007" y="-62.6" font-family="Times,serif" font-size="14.00">OpenAiModule</text>
</g>
<!-- OpenAiModule&#45;&gt;AppModule -->
<g id="edge14" class="edge">
<title>OpenAiModule&#45;&gt;AppModule</title>
<path fill="none" stroke="black" d="M2007,-84.85C2007,-99.17 2007,-116.8 2007,-116.8 2007,-116.8 1928.85,-116.8 1928.85,-116.8"/>
<polygon fill="black" stroke="black" points="1928.85,-113.3 1918.85,-116.8 1928.85,-120.3 1928.85,-113.3"/>
</g>
<!-- PizzaOvenModule -->
<g id="node15" class="node">
<title>PizzaOvenModule</title>
<polygon fill="#8dd3c7" stroke="black" points="1937.19,-84.8 1934.19,-88.8 1913.19,-88.8 1910.19,-84.8 1816.81,-84.8 1816.81,-48.8 1937.19,-48.8 1937.19,-84.8"/>
<text text-anchor="middle" x="1877" y="-62.6" font-family="Times,serif" font-size="14.00">PizzaOvenModule</text>
</g>
<!-- PizzaOvenModule&#45;&gt;AppModule -->
<g id="edge15" class="edge">
<title>PizzaOvenModule&#45;&gt;AppModule</title>
<path fill="none" stroke="black" d="M1877,-84.91C1877,-84.91 1877,-103.79 1877,-103.79"/>
<polygon fill="black" stroke="black" points="1873.5,-103.79 1877,-113.79 1880.5,-103.79 1873.5,-103.79"/>
</g>
<!-- PullRequestModule -->
<g id="node16" class="node">
<title>PullRequestModule</title>
<polygon fill="#8dd3c7" stroke="black" points="1798.72,-84.8 1795.72,-88.8 1774.72,-88.8 1771.72,-84.8 1671.28,-84.8 1671.28,-48.8 1798.72,-48.8 1798.72,-84.8"/>
<text text-anchor="middle" x="1735" y="-62.6" font-family="Times,serif" font-size="14.00">PullRequestModule</text>
</g>
<!-- PullRequestModule&#45;&gt;AppModule -->
<g id="edge16" class="edge">
<title>PullRequestModule&#45;&gt;AppModule</title>
<path fill="none" stroke="black" d="M1735,-84.85C1735,-99.17 1735,-116.8 1735,-116.8 1735,-116.8 1825.16,-116.8 1825.16,-116.8"/>
<polygon fill="black" stroke="black" points="1825.16,-120.3 1835.16,-116.8 1825.16,-113.3 1825.16,-120.3"/>
</g>
<!-- RepoModule -->
<g id="node17" class="node">
<title>RepoModule</title>
<polygon fill="#8dd3c7" stroke="black" points="1653.6,-84.8 1650.6,-88.8 1629.6,-88.8 1626.6,-84.8 1564.4,-84.8 1564.4,-48.8 1653.6,-48.8 1653.6,-84.8"/>
<text text-anchor="middle" x="1609" y="-62.6" font-family="Times,serif" font-size="14.00">RepoModule</text>
</g>
<!-- RepoModule&#45;&gt;AppModule -->
<g id="edge17" class="edge">
<title>RepoModule&#45;&gt;AppModule</title>
<path fill="none" stroke="black" d="M1609,-84.99C1609,-99.98 1609,-118.8 1609,-118.8 1609,-118.8 1825.12,-118.8 1825.12,-118.8"/>
<polygon fill="black" stroke="black" points="1825.13,-122.3 1835.12,-118.8 1825.12,-115.3 1825.13,-122.3"/>
</g>
<!-- StarModule -->
<g id="node18" class="node">
<title>StarModule</title>
<polygon fill="#8dd3c7" stroke="black" points="1546.1,-84.8 1543.1,-88.8 1522.1,-88.8 1519.1,-84.8 1463.9,-84.8 1463.9,-48.8 1546.1,-48.8 1546.1,-84.8"/>
<text text-anchor="middle" x="1505" y="-62.6" font-family="Times,serif" font-size="14.00">StarModule</text>
</g>
<!-- StarModule&#45;&gt;AppModule -->
<g id="edge18" class="edge">
<title>StarModule&#45;&gt;AppModule</title>
<path fill="none" stroke="black" d="M1505,-84.81C1505,-100.85 1505,-121.8 1505,-121.8 1505,-121.8 1825.05,-121.8 1825.05,-121.8"/>
<polygon fill="black" stroke="black" points="1825.05,-125.3 1835.05,-121.8 1825.05,-118.3 1825.05,-125.3"/>
</g>
<!-- StargazeModule -->
<g id="node19" class="node">
<title>StargazeModule</title>
<polygon fill="#8dd3c7" stroke="black" points="1445.75,-84.8 1442.75,-88.8 1421.75,-88.8 1418.75,-84.8 1338.25,-84.8 1338.25,-48.8 1445.75,-48.8 1445.75,-84.8"/>
<text text-anchor="middle" x="1392" y="-62.6" font-family="Times,serif" font-size="14.00">StargazeModule</text>
</g>
<!-- StargazeModule&#45;&gt;AppModule -->
<g id="edge19" class="edge">
<title>StargazeModule&#45;&gt;AppModule</title>
<path fill="none" stroke="black" d="M1392,-84.84C1392,-101.53 1392,-123.8 1392,-123.8 1392,-123.8 1825.23,-123.8 1825.23,-123.8"/>
<polygon fill="black" stroke="black" points="1825.23,-127.3 1835.23,-123.8 1825.23,-120.3 1825.23,-127.3"/>
</g>
<!-- StripeSubscriptionModule -->
<g id="node20" class="node">
<title>StripeSubscriptionModule</title>
<polygon fill="#8dd3c7" stroke="black" points="1319.77,-84.8 1316.77,-88.8 1295.77,-88.8 1292.77,-84.8 1156.23,-84.8 1156.23,-48.8 1319.77,-48.8 1319.77,-84.8"/>
<text text-anchor="middle" x="1238" y="-62.6" font-family="Times,serif" font-size="14.00">StripeSubscriptionModule</text>
</g>
<!-- StripeSubscriptionModule&#45;&gt;AppModule -->
<g id="edge20" class="edge">
<title>StripeSubscriptionModule&#45;&gt;AppModule</title>
<path fill="none" stroke="black" d="M1238,-84.82C1238,-102.17 1238,-125.8 1238,-125.8 1238,-125.8 1825.07,-125.8 1825.07,-125.8"/>
<polygon fill="black" stroke="black" points="1825.07,-129.3 1835.07,-125.8 1825.07,-122.3 1825.07,-129.3"/>
</g>
<!-- StripeWebHookModule -->
<g id="node21" class="node">
<title>StripeWebHookModule</title>
<polygon fill="#8dd3c7" stroke="black" points="1138.03,-84.8 1135.03,-88.8 1114.03,-88.8 1111.03,-84.8 987.97,-84.8 987.97,-48.8 1138.03,-48.8 1138.03,-84.8"/>
<text text-anchor="middle" x="1063" y="-62.6" font-family="Times,serif" font-size="14.00">StripeWebHookModule</text>
</g>
<!-- StripeWebHookModule&#45;&gt;AppModule -->
<g id="edge21" class="edge">
<title>StripeWebHookModule&#45;&gt;AppModule</title>
<path fill="none" stroke="black" d="M1063,-85.07C1063,-103.36 1063,-128.8 1063,-128.8 1063,-128.8 1825.23,-128.8 1825.23,-128.8"/>
<polygon fill="black" stroke="black" points="1825.23,-132.3 1835.23,-128.8 1825.23,-125.3 1825.23,-132.3"/>
</g>
<!-- SubmitModule -->
<g id="node22" class="node">
<title>SubmitModule</title>
<polygon fill="#8dd3c7" stroke="black" points="970.01,-84.8 967.01,-88.8 946.01,-88.8 943.01,-84.8 869.99,-84.8 869.99,-48.8 970.01,-48.8 970.01,-84.8"/>
<text text-anchor="middle" x="920" y="-62.6" font-family="Times,serif" font-size="14.00">SubmitModule</text>
</g>
<!-- SubmitModule&#45;&gt;AppModule -->
<g id="edge22" class="edge">
<title>SubmitModule&#45;&gt;AppModule</title>
<path fill="none" stroke="black" d="M920,-84.97C920,-103.89 920,-130.8 920,-130.8 920,-130.8 1825.26,-130.8 1825.26,-130.8"/>
<polygon fill="black" stroke="black" points="1825.26,-134.3 1835.26,-130.8 1825.26,-127.3 1825.26,-134.3"/>
</g>
<!-- TimescaleModule -->
<g id="node23" class="node">
<title>TimescaleModule</title>
<polygon fill="#8dd3c7" stroke="black" points="851.58,-84.8 848.58,-88.8 827.58,-88.8 824.58,-84.8 734.42,-84.8 734.42,-48.8 851.58,-48.8 851.58,-84.8"/>
<text text-anchor="middle" x="793" y="-62.6" font-family="Times,serif" font-size="14.00">TimescaleModule</text>
</g>
<!-- TimescaleModule&#45;&gt;AppModule -->
<g id="edge23" class="edge">
<title>TimescaleModule&#45;&gt;AppModule</title>
<path fill="none" stroke="black" d="M793,-85.11C793,-104.95 793,-133.8 793,-133.8 793,-133.8 1825.17,-133.8 1825.17,-133.8"/>
<polygon fill="black" stroke="black" points="1825.17,-137.3 1835.17,-133.8 1825.17,-130.3 1825.17,-137.3"/>
</g>
<!-- UrlModule -->
<g id="node24" class="node">
<title>UrlModule</title>
<polygon fill="#8dd3c7" stroke="black" points="716.21,-84.8 713.21,-88.8 692.21,-88.8 689.21,-84.8 637.79,-84.8 637.79,-48.8 716.21,-48.8 716.21,-84.8"/>
<text text-anchor="middle" x="677" y="-62.6" font-family="Times,serif" font-size="14.00">UrlModule</text>
</g>
<!-- UrlModule&#45;&gt;AppModule -->
<g id="edge24" class="edge">
<title>UrlModule&#45;&gt;AppModule</title>
<path fill="none" stroke="black" d="M677,-84.93C677,-105.37 677,-135.8 677,-135.8 677,-135.8 1824.99,-135.8 1824.99,-135.8"/>
<polygon fill="black" stroke="black" points="1825,-139.3 1834.99,-135.8 1824.99,-132.3 1825,-139.3"/>
</g>
<!-- UserListModule -->
<g id="node25" class="node">
<title>UserListModule</title>
<polygon fill="#8dd3c7" stroke="black" points="619.77,-84.8 616.77,-88.8 595.77,-88.8 592.77,-84.8 512.23,-84.8 512.23,-48.8 619.77,-48.8 619.77,-84.8"/>
<text text-anchor="middle" x="566" y="-62.6" font-family="Times,serif" font-size="14.00">UserListModule</text>
</g>
<!-- UserListModule&#45;&gt;AppModule -->
<g id="edge25" class="edge">
<title>UserListModule&#45;&gt;AppModule</title>
<path fill="none" stroke="black" d="M566,-85.08C566,-106.12 566,-137.8 566,-137.8 566,-137.8 1825.23,-137.8 1825.23,-137.8"/>
<polygon fill="black" stroke="black" points="1825.23,-141.3 1835.23,-137.8 1825.23,-134.3 1825.23,-141.3"/>
</g>
<!-- UserModule -->
<g id="node26" class="node">
<title>UserModule</title>
<polygon fill="#8dd3c7" stroke="black" points="493.99,-84.8 490.99,-88.8 469.99,-88.8 466.99,-84.8 408.01,-84.8 408.01,-48.8 493.99,-48.8 493.99,-84.8"/>
<text text-anchor="middle" x="451" y="-62.6" font-family="Times,serif" font-size="14.00">UserModule</text>
</g>
<!-- UserModule&#45;&gt;AppModule -->
<g id="edge26" class="edge">
<title>UserModule&#45;&gt;AppModule</title>
<path fill="none" stroke="black" d="M451,-85.09C451,-107.01 451,-140.8 451,-140.8 451,-140.8 1825.09,-140.8 1825.09,-140.8"/>
<polygon fill="black" stroke="black" points="1825.09,-144.3 1835.09,-140.8 1825.09,-137.3 1825.09,-144.3"/>
</g>
<!-- UserReposModule -->
<g id="node27" class="node">
<title>UserReposModule</title>
<polygon fill="#8dd3c7" stroke="black" points="390.49,-84.8 387.49,-88.8 366.49,-88.8 363.49,-84.8 269.51,-84.8 269.51,-48.8 390.49,-48.8 390.49,-84.8"/>
<text text-anchor="middle" x="330" y="-62.6" font-family="Times,serif" font-size="14.00">UserReposModule</text>
</g>
<!-- UserReposModule&#45;&gt;AppModule -->
<g id="edge27" class="edge">
<title>UserReposModule&#45;&gt;AppModule</title>
<path fill="none" stroke="black" d="M330,-84.81C330,-107.29 330,-142.8 330,-142.8 330,-142.8 1825.22,-142.8 1825.22,-142.8"/>
<polygon fill="black" stroke="black" points="1825.22,-146.3 1835.22,-142.8 1825.22,-139.3 1825.22,-146.3"/>
</g>
<!-- VoteModule -->
<g id="node28" class="node">
<title>VoteModule</title>
<polygon fill="#8dd3c7" stroke="black" points="251.27,-84.8 248.27,-88.8 227.27,-88.8 224.27,-84.8 164.73,-84.8 164.73,-48.8 251.27,-48.8 251.27,-84.8"/>
<text text-anchor="middle" x="208" y="-62.6" font-family="Times,serif" font-size="14.00">VoteModule</text>
</g>
<!-- VoteModule&#45;&gt;AppModule -->
<g id="edge28" class="edge">
<title>VoteModule&#45;&gt;AppModule</title>
<path fill="none" stroke="black" d="M208,-85.12C208,-108.46 208,-145.8 208,-145.8 208,-145.8 1825.33,-145.8 1825.33,-145.8"/>
<polygon fill="black" stroke="black" points="1825.33,-149.3 1835.33,-145.8 1825.33,-142.3 1825.33,-149.3"/>
</g>
<!-- WorkspaceModule -->
<g id="node29" class="node">
<title>WorkspaceModule</title>
<polygon fill="#8dd3c7" stroke="black" points="146.02,-84.8 143.02,-88.8 122.02,-88.8 119.02,-84.8 23.98,-84.8 23.98,-48.8 146.02,-48.8 146.02,-84.8"/>
<text text-anchor="middle" x="85" y="-62.6" font-family="Times,serif" font-size="14.00">WorkspaceModule</text>
</g>
<!-- WorkspaceModule&#45;&gt;AppModule -->
<g id="edge29" class="edge">
<title>WorkspaceModule&#45;&gt;AppModule</title>
<path fill="none" stroke="black" d="M85,-85.18C85,-109.08 85,-147.8 85,-147.8 85,-147.8 1824.91,-147.8 1824.91,-147.8"/>
<polygon fill="black" stroke="black" points="1824.91,-151.3 1834.91,-147.8 1824.91,-144.3 1824.91,-151.3"/>
</g>
</g>
</svg>
