<?xml version="1.0" encoding="UTF-8" standalone="no"?>
<!DOCTYPE svg PUBLIC "-//W3C//DTD SVG 1.1//EN"
 "http://www.w3.org/Graphics/SVG/1.1/DTD/svg11.dtd">
<!-- Generated by graphviz version 3.0.0 (20220226.1711)
 -->
<!-- Title: dependencies Pages: 1 -->
<svg width="2351pt" height="174pt"
 viewBox="0.00 0.00 2351.00 173.80" xmlns="http://www.w3.org/2000/svg" xmlns:xlink="http://www.w3.org/1999/xlink">
<g id="graph0" class="graph" transform="scale(1 1) rotate(0) translate(4 169.8)">
<title>dependencies</title>
<polygon fill="white" stroke="transparent" points="-4,4 -4,-169.8 2347,-169.8 2347,4 -4,4"/>
<text text-anchor="middle" x="1171.5" y="-8.2" font-family="sans-serif" font-size="14.00">dependencies</text>
<g id="clust1" class="cluster">
<title>cluster_AppModule</title>
<polygon fill="none" stroke="black" stroke-dasharray="1,5" points="8,-32.8 8,-157.8 2335,-157.8 2335,-32.8 8,-32.8"/>
</g>
<g id="clust3" class="cluster">
<title>cluster_AppModule_imports</title>
<polygon fill="none" stroke="black" points="16,-40.8 16,-92.8 2327,-92.8 2327,-40.8 16,-40.8"/>
</g>
<!-- AuthModule -->
<g id="node1" class="node">
<title>AuthModule</title>
<polygon fill="#8dd3c7" stroke="black" points="2318.55,-84.8 2315.55,-88.8 2294.55,-88.8 2291.55,-84.8 2231.45,-84.8 2231.45,-48.8 2318.55,-48.8 2318.55,-84.8"/>
<text text-anchor="middle" x="2275" y="-62.6" font-family="Times,serif" font-size="14.00">AuthModule</text>
</g>
<!-- AppModule -->
<g id="node19" class="node">
<title>AppModule</title>
<polygon fill="#8dd3c7" stroke="black" points="1214.66,-149.8 1211.66,-153.8 1190.66,-153.8 1187.66,-149.8 1131.34,-149.8 1131.34,-113.8 1214.66,-113.8 1214.66,-149.8"/>
<text text-anchor="middle" x="1173" y="-127.6" font-family="Times,serif" font-size="14.00">AppModule</text>
</g>
<!-- AuthModule&#45;&gt;AppModule -->
<g id="edge1" class="edge">
<title>AuthModule&#45;&gt;AppModule</title>
<path fill="none" stroke="black" d="M2275,-85.12C2275,-108.46 2275,-145.8 2275,-145.8 2275,-145.8 1224.85,-145.8 1224.85,-145.8"/>
<polygon fill="black" stroke="black" points="1224.85,-142.3 1214.85,-145.8 1224.85,-149.3 1224.85,-142.3"/>
</g>
<!-- ContributionModule -->
<g id="node2" class="node">
<title>ContributionModule</title>
<polygon fill="#8dd3c7" stroke="black" points="2213.61,-84.8 2210.61,-88.8 2189.61,-88.8 2186.61,-84.8 2082.39,-84.8 2082.39,-48.8 2213.61,-48.8 2213.61,-84.8"/>
<text text-anchor="middle" x="2148" y="-62.6" font-family="Times,serif" font-size="14.00">ContributionModule</text>
</g>
<!-- ContributionModule&#45;&gt;AppModule -->
<g id="edge2" class="edge">
<title>ContributionModule&#45;&gt;AppModule</title>
<path fill="none" stroke="black" d="M2148,-84.96C2148,-107.15 2148,-141.8 2148,-141.8 2148,-141.8 1224.89,-141.8 1224.89,-141.8"/>
<polygon fill="black" stroke="black" points="1224.89,-138.3 1214.89,-141.8 1224.89,-145.3 1224.89,-138.3"/>
</g>
<!-- CustomerModule -->
<g id="node3" class="node">
<title>CustomerModule</title>
<polygon fill="#8dd3c7" stroke="black" points="2063.99,-84.8 2060.99,-88.8 2039.99,-88.8 2036.99,-84.8 1950.01,-84.8 1950.01,-48.8 2063.99,-48.8 2063.99,-84.8"/>
<text text-anchor="middle" x="2007" y="-62.6" font-family="Times,serif" font-size="14.00">CustomerModule</text>
</g>
<!-- CustomerModule&#45;&gt;AppModule -->
<g id="edge3" class="edge">
<title>CustomerModule&#45;&gt;AppModule</title>
<path fill="none" stroke="black" d="M2007,-85.08C2007,-106.12 2007,-137.8 2007,-137.8 2007,-137.8 1224.93,-137.8 1224.93,-137.8"/>
<polygon fill="black" stroke="black" points="1224.93,-134.3 1214.93,-137.8 1224.93,-141.3 1224.93,-134.3"/>
</g>
<!-- EmojiModule -->
<g id="node4" class="node">
<title>EmojiModule</title>
<polygon fill="#8dd3c7" stroke="black" points="1931.77,-84.8 1928.77,-88.8 1907.77,-88.8 1904.77,-84.8 1838.23,-84.8 1838.23,-48.8 1931.77,-48.8 1931.77,-84.8"/>
<text text-anchor="middle" x="1885" y="-62.6" font-family="Times,serif" font-size="14.00">EmojiModule</text>
</g>
<!-- EmojiModule&#45;&gt;AppModule -->
<g id="edge4" class="edge">
<title>EmojiModule&#45;&gt;AppModule</title>
<path fill="none" stroke="black" d="M1885,-85.11C1885,-104.95 1885,-133.8 1885,-133.8 1885,-133.8 1224.88,-133.8 1224.88,-133.8"/>
<polygon fill="black" stroke="black" points="1224.88,-130.3 1214.88,-133.8 1224.88,-137.3 1224.88,-130.3"/>
</g>
<!-- EndorsementModule -->
<g id="node5" class="node">
<title>EndorsementModule</title>
<polygon fill="#8dd3c7" stroke="black" points="1819.92,-84.8 1816.92,-88.8 1795.92,-88.8 1792.92,-84.8 1686.08,-84.8 1686.08,-48.8 1819.92,-48.8 1819.92,-84.8"/>
<text text-anchor="middle" x="1753" y="-62.6" font-family="Times,serif" font-size="14.00">EndorsementModule</text>
</g>
<!-- EndorsementModule&#45;&gt;AppModule -->
<g id="edge5" class="edge">
<title>EndorsementModule&#45;&gt;AppModule</title>
<path fill="none" stroke="black" d="M1753,-85.02C1753,-103.63 1753,-129.8 1753,-129.8 1753,-129.8 1224.71,-129.8 1224.71,-129.8"/>
<polygon fill="black" stroke="black" points="1224.71,-126.3 1214.71,-129.8 1224.71,-133.3 1224.71,-126.3"/>
</g>
<!-- HealthModule -->
<g id="node6" class="node">
<title>HealthModule</title>
<polygon fill="#8dd3c7" stroke="black" points="1668.37,-84.8 1665.37,-88.8 1644.37,-88.8 1641.37,-84.8 1571.63,-84.8 1571.63,-48.8 1668.37,-48.8 1668.37,-84.8"/>
<text text-anchor="middle" x="1620" y="-62.6" font-family="Times,serif" font-size="14.00">HealthModule</text>
</g>
<!-- HealthModule&#45;&gt;AppModule -->
<g id="edge6" class="edge">
<title>HealthModule&#45;&gt;AppModule</title>
<path fill="none" stroke="black" d="M1620,-84.82C1620,-102.17 1620,-125.8 1620,-125.8 1620,-125.8 1225.05,-125.8 1225.05,-125.8"/>
<polygon fill="black" stroke="black" points="1225.05,-122.3 1215.05,-125.8 1225.05,-129.3 1225.05,-122.3"/>
</g>
<!-- HighlightModule -->
<g id="node7" class="node">
<title>HighlightModule</title>
<polygon fill="#8dd3c7" stroke="black" points="1553.72,-84.8 1550.72,-88.8 1529.72,-88.8 1526.72,-84.8 1440.28,-84.8 1440.28,-48.8 1553.72,-48.8 1553.72,-84.8"/>
<text text-anchor="middle" x="1497" y="-62.6" font-family="Times,serif" font-size="14.00">HighlightModule</text>
</g>
<!-- HighlightModule&#45;&gt;AppModule -->
<g id="edge7" class="edge">
<title>HighlightModule&#45;&gt;AppModule</title>
<path fill="none" stroke="black" d="M1497,-84.81C1497,-100.85 1497,-121.8 1497,-121.8 1497,-121.8 1224.69,-121.8 1224.69,-121.8"/>
<polygon fill="black" stroke="black" points="1224.69,-118.3 1214.69,-121.8 1224.69,-125.3 1224.69,-118.3"/>
</g>
<!-- InsightsModule -->
<g id="node8" class="node">
<title>InsightsModule</title>
<polygon fill="#8dd3c7" stroke="black" points="1421.89,-84.8 1418.89,-88.8 1397.89,-88.8 1394.89,-84.8 1318.11,-84.8 1318.11,-48.8 1421.89,-48.8 1421.89,-84.8"/>
<text text-anchor="middle" x="1370" y="-62.6" font-family="Times,serif" font-size="14.00">InsightsModule</text>
</g>
<!-- InsightsModule&#45;&gt;AppModule -->
<g id="edge8" class="edge">
<title>InsightsModule&#45;&gt;AppModule</title>
<path fill="none" stroke="black" d="M1370,-84.92C1370,-99.58 1370,-117.8 1370,-117.8 1370,-117.8 1224.78,-117.8 1224.78,-117.8"/>
<polygon fill="black" stroke="black" points="1224.78,-114.3 1214.78,-117.8 1224.78,-121.3 1224.78,-114.3"/>
</g>
<!-- PullRequestModule -->
<g id="node9" class="node">
<title>PullRequestModule</title>
<polygon fill="#8dd3c7" stroke="black" points="1299.72,-84.8 1296.72,-88.8 1275.72,-88.8 1272.72,-84.8 1172.28,-84.8 1172.28,-48.8 1299.72,-48.8 1299.72,-84.8"/>
<text text-anchor="middle" x="1236" y="-62.6" font-family="Times,serif" font-size="14.00">PullRequestModule</text>
</g>
<!-- PullRequestModule&#45;&gt;AppModule -->
<g id="edge9" class="edge">
<title>PullRequestModule&#45;&gt;AppModule</title>
<path fill="none" stroke="black" d="M1193.61,-84.91C1193.61,-84.91 1193.61,-103.79 1193.61,-103.79"/>
<polygon fill="black" stroke="black" points="1190.11,-103.79 1193.61,-113.79 1197.11,-103.79 1190.11,-103.79"/>
</g>
<!-- RepoModule -->
<g id="node10" class="node">
<title>RepoModule</title>
<polygon fill="#8dd3c7" stroke="black" points="1154.6,-84.8 1151.6,-88.8 1130.6,-88.8 1127.6,-84.8 1065.4,-84.8 1065.4,-48.8 1154.6,-48.8 1154.6,-84.8"/>
<text text-anchor="middle" x="1110" y="-62.6" font-family="Times,serif" font-size="14.00">RepoModule</text>
</g>
<!-- RepoModule&#45;&gt;AppModule -->
<g id="edge10" class="edge">
<title>RepoModule&#45;&gt;AppModule</title>
<path fill="none" stroke="black" d="M1142.86,-84.91C1142.86,-84.91 1142.86,-103.79 1142.86,-103.79"/>
<polygon fill="black" stroke="black" points="1139.36,-103.79 1142.86,-113.79 1146.36,-103.79 1139.36,-103.79"/>
</g>
<!-- StarModule -->
<g id="node11" class="node">
<title>StarModule</title>
<polygon fill="#8dd3c7" stroke="black" points="1047.1,-84.8 1044.1,-88.8 1023.1,-88.8 1020.1,-84.8 964.9,-84.8 964.9,-48.8 1047.1,-48.8 1047.1,-84.8"/>
<text text-anchor="middle" x="1006" y="-62.6" font-family="Times,serif" font-size="14.00">StarModule</text>
</g>
<!-- StarModule&#45;&gt;AppModule -->
<g id="edge11" class="edge">
<title>StarModule&#45;&gt;AppModule</title>
<path fill="none" stroke="black" d="M1006,-84.92C1006,-99.58 1006,-117.8 1006,-117.8 1006,-117.8 1121.29,-117.8 1121.29,-117.8"/>
<polygon fill="black" stroke="black" points="1121.29,-121.3 1131.29,-117.8 1121.29,-114.3 1121.29,-121.3"/>
</g>
<!-- StargazeModule -->
<g id="node12" class="node">
<title>StargazeModule</title>
<polygon fill="#8dd3c7" stroke="black" points="946.75,-84.8 943.75,-88.8 922.75,-88.8 919.75,-84.8 839.25,-84.8 839.25,-48.8 946.75,-48.8 946.75,-84.8"/>
<text text-anchor="middle" x="893" y="-62.6" font-family="Times,serif" font-size="14.00">StargazeModule</text>
</g>
<!-- StargazeModule&#45;&gt;AppModule -->
<g id="edge12" class="edge">
<title>StargazeModule&#45;&gt;AppModule</title>
<path fill="none" stroke="black" d="M893,-84.81C893,-100.85 893,-121.8 893,-121.8 893,-121.8 1121.08,-121.8 1121.08,-121.8"/>
<polygon fill="black" stroke="black" points="1121.08,-125.3 1131.08,-121.8 1121.08,-118.3 1121.08,-125.3"/>
</g>
<!-- StripeSubscriptionModule -->
<g id="node13" class="node">
<title>StripeSubscriptionModule</title>
<polygon fill="#8dd3c7" stroke="black" points="820.77,-84.8 817.77,-88.8 796.77,-88.8 793.77,-84.8 657.23,-84.8 657.23,-48.8 820.77,-48.8 820.77,-84.8"/>
<text text-anchor="middle" x="739" y="-62.6" font-family="Times,serif" font-size="14.00">StripeSubscriptionModule</text>
</g>
<!-- StripeSubscriptionModule&#45;&gt;AppModule -->
<g id="edge13" class="edge">
<title>StripeSubscriptionModule&#45;&gt;AppModule</title>
<path fill="none" stroke="black" d="M739,-84.82C739,-102.17 739,-125.8 739,-125.8 739,-125.8 1120.99,-125.8 1120.99,-125.8"/>
<polygon fill="black" stroke="black" points="1120.99,-129.3 1130.99,-125.8 1120.99,-122.3 1120.99,-129.3"/>
</g>
<!-- StripeWebHookModule -->
<g id="node14" class="node">
<title>StripeWebHookModule</title>
<polygon fill="#8dd3c7" stroke="black" points="639.03,-84.8 636.03,-88.8 615.03,-88.8 612.03,-84.8 488.97,-84.8 488.97,-48.8 639.03,-48.8 639.03,-84.8"/>
<text text-anchor="middle" x="564" y="-62.6" font-family="Times,serif" font-size="14.00">StripeWebHookModule</text>
</g>
<!-- StripeWebHookModule&#45;&gt;AppModule -->
<g id="edge14" class="edge">
<title>StripeWebHookModule&#45;&gt;AppModule</title>
<path fill="none" stroke="black" d="M564,-85.02C564,-103.63 564,-129.8 564,-129.8 564,-129.8 1121.14,-129.8 1121.14,-129.8"/>
<polygon fill="black" stroke="black" points="1121.14,-133.3 1131.14,-129.8 1121.14,-126.3 1121.14,-133.3"/>
</g>
<!-- SubmitModule -->
<g id="node15" class="node">
<title>SubmitModule</title>
<polygon fill="#8dd3c7" stroke="black" points="471.01,-84.8 468.01,-88.8 447.01,-88.8 444.01,-84.8 370.99,-84.8 370.99,-48.8 471.01,-48.8 471.01,-84.8"/>
<text text-anchor="middle" x="421" y="-62.6" font-family="Times,serif" font-size="14.00">SubmitModule</text>
</g>
<!-- SubmitModule&#45;&gt;AppModule -->
<g id="edge15" class="edge">
<title>SubmitModule&#45;&gt;AppModule</title>
<path fill="none" stroke="black" d="M421,-85.11C421,-104.95 421,-133.8 421,-133.8 421,-133.8 1121.23,-133.8 1121.23,-133.8"/>
<polygon fill="black" stroke="black" points="1121.23,-137.3 1131.23,-133.8 1121.23,-130.3 1121.23,-137.3"/>
</g>
<!-- UserModule -->
<g id="node16" class="node">
<title>UserModule</title>
<polygon fill="#8dd3c7" stroke="black" points="352.99,-84.8 349.99,-88.8 328.99,-88.8 325.99,-84.8 267.01,-84.8 267.01,-48.8 352.99,-48.8 352.99,-84.8"/>
<text text-anchor="middle" x="310" y="-62.6" font-family="Times,serif" font-size="14.00">UserModule</text>
</g>
<!-- UserModule&#45;&gt;AppModule -->
<g id="edge16" class="edge">
<title>UserModule&#45;&gt;AppModule</title>
<path fill="none" stroke="black" d="M310,-85.08C310,-106.12 310,-137.8 310,-137.8 310,-137.8 1121.08,-137.8 1121.08,-137.8"/>
<polygon fill="black" stroke="black" points="1121.08,-141.3 1131.08,-137.8 1121.08,-134.3 1121.08,-141.3"/>
</g>
<!-- UserReposModule -->
<g id="node17" class="node">
<title>UserReposModule</title>
<polygon fill="#8dd3c7" stroke="black" points="249.49,-84.8 246.49,-88.8 225.49,-88.8 222.49,-84.8 128.51,-84.8 128.51,-48.8 249.49,-48.8 249.49,-84.8"/>
<text text-anchor="middle" x="189" y="-62.6" font-family="Times,serif" font-size="14.00">UserReposModule</text>
</g>
<!-- UserReposModule&#45;&gt;AppModule -->
<g id="edge17" class="edge">
<title>UserReposModule&#45;&gt;AppModule</title>
<path fill="none" stroke="black" d="M189,-84.96C189,-107.15 189,-141.8 189,-141.8 189,-141.8 1121.03,-141.8 1121.03,-141.8"/>
<polygon fill="black" stroke="black" points="1121.03,-145.3 1131.03,-141.8 1121.03,-138.3 1121.03,-145.3"/>
</g>
<!-- VoteModule -->
<g id="node18" class="node">
<title>VoteModule</title>
<polygon fill="#8dd3c7" stroke="black" points="110.27,-84.8 107.27,-88.8 86.27,-88.8 83.27,-84.8 23.73,-84.8 23.73,-48.8 110.27,-48.8 110.27,-84.8"/>
<text text-anchor="middle" x="67" y="-62.6" font-family="Times,serif" font-size="14.00">VoteModule</text>
</g>
<!-- VoteModule&#45;&gt;AppModule -->
<g id="edge18" class="edge">
<title>VoteModule&#45;&gt;AppModule</title>
<path fill="none" stroke="black" d="M67,-85.12C67,-108.46 67,-145.8 67,-145.8 67,-145.8 1121.33,-145.8 1121.33,-145.8"/>
<polygon fill="black" stroke="black" points="1121.33,-149.3 1131.33,-145.8 1121.33,-142.3 1121.33,-149.3"/>
</g>
</g>
</svg>
