<?xml version="1.0" encoding="UTF-8" standalone="no"?>
<!DOCTYPE svg PUBLIC "-//W3C//DTD SVG 1.1//EN"
 "http://www.w3.org/Graphics/SVG/1.1/DTD/svg11.dtd">
<!-- Generated by graphviz version 3.0.0 (20220226.1711)
 -->
<!-- Title: dependencies Pages: 1 -->
<svg width="316pt" height="247pt"
 viewBox="0.00 0.00 316.00 246.80" xmlns="http://www.w3.org/2000/svg" xmlns:xlink="http://www.w3.org/1999/xlink">
<g id="graph0" class="graph" transform="scale(1 1) rotate(0) translate(4 242.8)">
<title>dependencies</title>
<polygon fill="white" stroke="transparent" points="-4,4 -4,-242.8 312,-242.8 312,4 -4,4"/>
<text text-anchor="middle" x="154" y="-8.2" font-family="sans-serif" font-size="14.00">dependencies</text>
<g id="clust1" class="cluster">
<title>cluster_StargazeModule</title>
<polygon fill="none" stroke="black" stroke-dasharray="1,5" points="8,-32.8 8,-230.8 300,-230.8 300,-32.8 8,-32.8"/>
</g>
<g id="clust6" class="cluster">
<title>cluster_StargazeModule_providers</title>
<polygon fill="none" stroke="black" points="130,-40.8 130,-92.8 292,-92.8 292,-40.8 130,-40.8"/>
</g>
<g id="clust4" class="cluster">
<title>cluster_StargazeModule_exports</title>
<polygon fill="none" stroke="black" points="82,-170.8 82,-222.8 208,-222.8 208,-170.8 82,-170.8"/>
</g>
<g id="clust3" class="cluster">
<title>cluster_StargazeModule_imports</title>
<polygon fill="none" stroke="black" points="16,-40.8 16,-92.8 122,-92.8 122,-40.8 16,-40.8"/>
</g>
<!-- RepoModule -->
<g id="node1" class="node">
<title>RepoModule</title>
<polygon fill="#8dd3c7" stroke="black" points="113.6,-84.8 110.6,-88.8 89.6,-88.8 86.6,-84.8 24.4,-84.8 24.4,-48.8 113.6,-48.8 113.6,-84.8"/>
<text text-anchor="middle" x="69" y="-62.6" font-family="Times,serif" font-size="14.00">RepoModule</text>
</g>
<!-- StargazeModule -->
<g id="node2" class="node">
<title>StargazeModule</title>
<polygon fill="#8dd3c7" stroke="black" points="198.75,-149.8 195.75,-153.8 174.75,-153.8 171.75,-149.8 91.25,-149.8 91.25,-113.8 198.75,-113.8 198.75,-149.8"/>
<text text-anchor="middle" x="145" y="-127.6" font-family="Times,serif" font-size="14.00">StargazeModule</text>
</g>
<!-- RepoModule&#45;&gt;StargazeModule -->
<g id="edge1" class="edge">
<title>RepoModule&#45;&gt;StargazeModule</title>
<path fill="none" stroke="black" d="M102.34,-84.91C102.34,-84.91 102.34,-103.79 102.34,-103.79"/>
<polygon fill="black" stroke="black" points="98.84,-103.79 102.34,-113.79 105.84,-103.79 98.84,-103.79"/>
</g>
<!-- StargazeService  -->
<g id="node3" class="node">
<title>StargazeService </title>
<polygon fill="#fb8072" stroke="black" points="199.67,-214.8 90.33,-214.8 90.33,-178.8 199.67,-178.8 199.67,-214.8"/>
<text text-anchor="middle" x="145" y="-192.6" font-family="Times,serif" font-size="14.00">StargazeService </text>
</g>
<!-- StargazeModule&#45;&gt;StargazeService  -->
<g id="edge2" class="edge">
<title>StargazeModule&#45;&gt;StargazeService </title>
<path fill="none" stroke="black" stroke-dasharray="5,2" d="M145,-149.91C145,-149.91 145,-168.79 145,-168.79"/>
<polygon fill="black" stroke="black" points="141.5,-168.79 145,-178.79 148.5,-168.79 141.5,-168.79"/>
</g>
<!-- StargazeService -->
<g id="node4" class="node">
<title>StargazeService</title>
<ellipse fill="#fdb462" stroke="black" cx="211" cy="-66.8" rx="73.47" ry="18"/>
<text text-anchor="middle" x="211" y="-62.6" font-family="Times,serif" font-size="14.00">StargazeService</text>
</g>
<!-- StargazeService&#45;&gt;StargazeModule -->
<g id="edge3" class="edge">
<title>StargazeService&#45;&gt;StargazeModule</title>
<path fill="none" stroke="black" d="M168.32,-81.55C168.32,-81.55 168.32,-103.39 168.32,-103.39"/>
<polygon fill="black" stroke="black" points="164.82,-103.39 168.32,-113.39 171.82,-103.39 164.82,-103.39"/>
</g>
</g>
</svg>
