<?xml version="1.0" encoding="UTF-8" standalone="no"?>
<!DOCTYPE svg PUBLIC "-//W3C//DTD SVG 1.1//EN"
 "http://www.w3.org/Graphics/SVG/1.1/DTD/svg11.dtd">
<!-- Generated by graphviz version 3.0.0 (20220226.1711)
 -->
<!-- Title: dependencies Pages: 1 -->
<svg width="316pt" height="247pt"
 viewBox="0.00 0.00 316.00 246.80" xmlns="http://www.w3.org/2000/svg" xmlns:xlink="http://www.w3.org/1999/xlink">
<g id="graph0" class="graph" transform="scale(1 1) rotate(0) translate(4 242.8)">
<title>dependencies</title>
<polygon fill="white" stroke="transparent" points="-4,4 -4,-242.8 312,-242.8 312,4 -4,4"/>
<text text-anchor="middle" x="154" y="-8.2" font-family="sans-serif" font-size="14.00">dependencies</text>
<g id="clust1" class="cluster">
<title>cluster_StargazeModule</title>
<polygon fill="none" stroke="black" stroke-dasharray="1,5" points="8,-32.8 8,-230.8 300,-230.8 300,-32.8 8,-32.8"/>
</g>
<g id="clust3" class="cluster">
<title>cluster_StargazeModule_imports</title>
<polygon fill="none" stroke="black" points="186,-40.8 186,-92.8 292,-92.8 292,-40.8 186,-40.8"/>
</g>
<g id="clust4" class="cluster">
<title>cluster_StargazeModule_exports</title>
<polygon fill="none" stroke="black" points="100,-170.8 100,-222.8 226,-222.8 226,-170.8 100,-170.8"/>
</g>
<g id="clust6" class="cluster">
<title>cluster_StargazeModule_providers</title>
<polygon fill="none" stroke="black" points="16,-40.8 16,-92.8 178,-92.8 178,-40.8 16,-40.8"/>
</g>
<!-- RepoModule -->
<g id="node1" class="node">
<title>RepoModule</title>
<polygon fill="#8dd3c7" stroke="black" points="283.6,-84.8 280.6,-88.8 259.6,-88.8 256.6,-84.8 194.4,-84.8 194.4,-48.8 283.6,-48.8 283.6,-84.8"/>
<text text-anchor="middle" x="239" y="-62.6" font-family="Times,serif" font-size="14.00">RepoModule</text>
</g>
<!-- StargazeModule -->
<g id="node2" class="node">
<title>StargazeModule</title>
<polygon fill="#8dd3c7" stroke="black" points="216.75,-149.8 213.75,-153.8 192.75,-153.8 189.75,-149.8 109.25,-149.8 109.25,-113.8 216.75,-113.8 216.75,-149.8"/>
<text text-anchor="middle" x="163" y="-127.6" font-family="Times,serif" font-size="14.00">StargazeModule</text>
</g>
<!-- RepoModule&#45;&gt;StargazeModule -->
<g id="edge1" class="edge">
<title>RepoModule&#45;&gt;StargazeModule</title>
<path fill="none" stroke="black" d="M205.66,-84.91C205.66,-84.91 205.66,-103.79 205.66,-103.79"/>
<polygon fill="black" stroke="black" points="202.16,-103.79 205.66,-113.79 209.16,-103.79 202.16,-103.79"/>
</g>
<!-- StargazeService  -->
<g id="node3" class="node">
<title>StargazeService </title>
<polygon fill="#fb8072" stroke="black" points="217.67,-214.8 108.33,-214.8 108.33,-178.8 217.67,-178.8 217.67,-214.8"/>
<text text-anchor="middle" x="163" y="-192.6" font-family="Times,serif" font-size="14.00">StargazeService </text>
</g>
<!-- StargazeModule&#45;&gt;StargazeService  -->
<g id="edge2" class="edge">
<title>StargazeModule&#45;&gt;StargazeService </title>
<path fill="none" stroke="black" stroke-dasharray="5,2" d="M163,-149.91C163,-149.91 163,-168.79 163,-168.79"/>
<polygon fill="black" stroke="black" points="159.5,-168.79 163,-178.79 166.5,-168.79 159.5,-168.79"/>
</g>
<!-- StargazeService -->
<g id="node4" class="node">
<title>StargazeService</title>
<ellipse fill="#fdb462" stroke="black" cx="97" cy="-66.8" rx="73.47" ry="18"/>
<text text-anchor="middle" x="97" y="-62.6" font-family="Times,serif" font-size="14.00">StargazeService</text>
</g>
<!-- StargazeService&#45;&gt;StargazeModule -->
<g id="edge3" class="edge">
<title>StargazeService&#45;&gt;StargazeModule</title>
<path fill="none" stroke="black" d="M139.68,-81.55C139.68,-81.55 139.68,-103.39 139.68,-103.39"/>
<polygon fill="black" stroke="black" points="136.18,-103.39 139.68,-113.39 143.18,-103.39 136.18,-103.39"/>
</g>
</g>
</svg>
