<?xml version="1.0" encoding="UTF-8" standalone="no"?>
<!DOCTYPE svg PUBLIC "-//W3C//DTD SVG 1.1//EN"
 "http://www.w3.org/Graphics/SVG/1.1/DTD/svg11.dtd">
<!-- Generated by graphviz version 3.0.0 (20220226.1711)
 -->
<!-- Title: dependencies Pages: 1 -->
<svg width="341pt" height="247pt"
 viewBox="0.00 0.00 341.00 246.80" xmlns="http://www.w3.org/2000/svg" xmlns:xlink="http://www.w3.org/1999/xlink">
<g id="graph0" class="graph" transform="scale(1 1) rotate(0) translate(4 242.8)">
<title>dependencies</title>
<polygon fill="white" stroke="transparent" points="-4,4 -4,-242.8 337,-242.8 337,4 -4,4"/>
<text text-anchor="middle" x="166.5" y="-8.2" font-family="sans-serif" font-size="14.00">dependencies</text>
<g id="clust1" class="cluster">
<title>cluster_StargazeModule</title>
<polygon fill="none" stroke="black" stroke-dasharray="1,5" points="8,-32.8 8,-230.8 325,-230.8 325,-32.8 8,-32.8"/>
</g>
<g id="clust4" class="cluster">
<title>cluster_StargazeModule_exports</title>
<polygon fill="none" stroke="black" points="110,-170.8 110,-222.8 236,-222.8 236,-170.8 110,-170.8"/>
</g>
<g id="clust6" class="cluster">
<title>cluster_StargazeModule_providers</title>
<polygon fill="none" stroke="black" points="16,-40.8 16,-92.8 317,-92.8 317,-40.8 16,-40.8"/>
</g>
<!-- StargazeService  -->
<g id="node1" class="node">
<title>StargazeService </title>
<polygon fill="#fb8072" stroke="black" points="227.67,-214.8 118.33,-214.8 118.33,-178.8 227.67,-178.8 227.67,-214.8"/>
<text text-anchor="middle" x="173" y="-192.6" font-family="Times,serif" font-size="14.00">StargazeService </text>
</g>
<!-- StargazeModule -->
<g id="node2" class="node">
<title>StargazeModule</title>
<polygon fill="#8dd3c7" stroke="black" points="226.75,-149.8 223.75,-153.8 202.75,-153.8 199.75,-149.8 119.25,-149.8 119.25,-113.8 226.75,-113.8 226.75,-149.8"/>
<text text-anchor="middle" x="173" y="-127.6" font-family="Times,serif" font-size="14.00">StargazeModule</text>
</g>
<!-- StargazeModule&#45;&gt;StargazeService  -->
<g id="edge1" class="edge">
<title>StargazeModule&#45;&gt;StargazeService </title>
<path fill="none" stroke="black" stroke-dasharray="5,2" d="M173,-149.91C173,-149.91 173,-168.79 173,-168.79"/>
<polygon fill="black" stroke="black" points="169.5,-168.79 173,-178.79 176.5,-168.79 169.5,-168.79"/>
</g>
<!-- RepoService -->
<g id="node3" class="node">
<title>RepoService</title>
<ellipse fill="#fdb462" stroke="black" cx="249" cy="-66.8" rx="60.26" ry="18"/>
<text text-anchor="middle" x="249" y="-62.6" font-family="Times,serif" font-size="14.00">RepoService</text>
</g>
<!-- RepoService&#45;&gt;StargazeModule -->
<g id="edge2" class="edge">
<title>RepoService&#45;&gt;StargazeModule</title>
<path fill="none" stroke="black" d="M207.75,-79.95C207.75,-79.95 207.75,-103.49 207.75,-103.49"/>
<polygon fill="black" stroke="black" points="204.25,-103.49 207.75,-113.49 211.25,-103.49 204.25,-103.49"/>
</g>
<!-- StargazeService -->
<g id="node4" class="node">
<title>StargazeService</title>
<ellipse fill="#fdb462" stroke="black" cx="97" cy="-66.8" rx="73.47" ry="18"/>
<text text-anchor="middle" x="97" y="-62.6" font-family="Times,serif" font-size="14.00">StargazeService</text>
</g>
<!-- StargazeService&#45;&gt;StargazeModule -->
<g id="edge3" class="edge">
<title>StargazeService&#45;&gt;StargazeModule</title>
<path fill="none" stroke="black" d="M144.68,-80.58C144.68,-80.58 144.68,-103.35 144.68,-103.35"/>
<polygon fill="black" stroke="black" points="141.18,-103.35 144.68,-113.35 148.18,-103.35 141.18,-103.35"/>
</g>
</g>
</svg>
