<?xml version="1.0" encoding="UTF-8" standalone="no"?>
<!DOCTYPE svg PUBLIC "-//W3C//DTD SVG 1.1//EN"
 "http://www.w3.org/Graphics/SVG/1.1/DTD/svg11.dtd">
<!-- Generated by graphviz version 3.0.0 (20220226.1711)
 -->
<!-- Title: dependencies Pages: 1 -->
<svg width="320pt" height="247pt"
 viewBox="0.00 0.00 320.00 246.80" xmlns="http://www.w3.org/2000/svg" xmlns:xlink="http://www.w3.org/1999/xlink">
<g id="graph0" class="graph" transform="scale(1 1) rotate(0) translate(4 242.8)">
<title>dependencies</title>
<polygon fill="white" stroke="transparent" points="-4,4 -4,-242.8 316,-242.8 316,4 -4,4"/>
<text text-anchor="middle" x="156" y="-8.2" font-family="sans-serif" font-size="14.00">dependencies</text>
<g id="clust1" class="cluster">
<title>cluster_RepoModule</title>
<polygon fill="none" stroke="black" stroke-dasharray="1,5" points="8,-32.8 8,-230.8 304,-230.8 304,-32.8 8,-32.8"/>
</g>
<g id="clust6" class="cluster">
<title>cluster_RepoModule_providers</title>
<polygon fill="none" stroke="black" points="160,-40.8 160,-92.8 296,-92.8 296,-40.8 160,-40.8"/>
</g>
<g id="clust3" class="cluster">
<title>cluster_RepoModule_imports</title>
<polygon fill="none" stroke="black" points="16,-40.8 16,-92.8 152,-92.8 152,-40.8 16,-40.8"/>
</g>
<g id="clust4" class="cluster">
<title>cluster_RepoModule_exports</title>
<polygon fill="none" stroke="black" points="102,-170.8 102,-222.8 210,-222.8 210,-170.8 102,-170.8"/>
</g>
<!-- RepoFilterModule -->
<g id="node1" class="node">
<title>RepoFilterModule</title>
<polygon fill="#8dd3c7" stroke="black" points="143.94,-84.8 140.94,-88.8 119.94,-88.8 116.94,-84.8 24.06,-84.8 24.06,-48.8 143.94,-48.8 143.94,-84.8"/>
<text text-anchor="middle" x="84" y="-62.6" font-family="Times,serif" font-size="14.00">RepoFilterModule</text>
</g>
<!-- RepoModule -->
<g id="node2" class="node">
<title>RepoModule</title>
<polygon fill="#8dd3c7" stroke="black" points="200.6,-149.8 197.6,-153.8 176.6,-153.8 173.6,-149.8 111.4,-149.8 111.4,-113.8 200.6,-113.8 200.6,-149.8"/>
<text text-anchor="middle" x="156" y="-127.6" font-family="Times,serif" font-size="14.00">RepoModule</text>
</g>
<!-- RepoFilterModule&#45;&gt;RepoModule -->
<g id="edge1" class="edge">
<title>RepoFilterModule&#45;&gt;RepoModule</title>
<path fill="none" stroke="black" d="M127.58,-84.91C127.58,-84.91 127.58,-103.79 127.58,-103.79"/>
<polygon fill="black" stroke="black" points="124.08,-103.79 127.58,-113.79 131.08,-103.79 124.08,-103.79"/>
</g>
<!-- RepoService  -->
<g id="node3" class="node">
<title>RepoService </title>
<polygon fill="#fb8072" stroke="black" points="201.53,-214.8 110.47,-214.8 110.47,-178.8 201.53,-178.8 201.53,-214.8"/>
<text text-anchor="middle" x="156" y="-192.6" font-family="Times,serif" font-size="14.00">RepoService </text>
</g>
<!-- RepoModule&#45;&gt;RepoService  -->
<g id="edge2" class="edge">
<title>RepoModule&#45;&gt;RepoService </title>
<path fill="none" stroke="black" stroke-dasharray="5,2" d="M156,-149.91C156,-149.91 156,-168.79 156,-168.79"/>
<polygon fill="black" stroke="black" points="152.5,-168.79 156,-178.79 159.5,-168.79 152.5,-168.79"/>
</g>
<!-- RepoService -->
<g id="node4" class="node">
<title>RepoService</title>
<ellipse fill="#fdb462" stroke="black" cx="228" cy="-66.8" rx="60.26" ry="18"/>
<text text-anchor="middle" x="228" y="-62.6" font-family="Times,serif" font-size="14.00">RepoService</text>
</g>
<!-- RepoService&#45;&gt;RepoModule -->
<g id="edge3" class="edge">
<title>RepoService&#45;&gt;RepoModule</title>
<path fill="none" stroke="black" d="M184.09,-79.33C184.09,-79.33 184.09,-103.65 184.09,-103.65"/>
<polygon fill="black" stroke="black" points="180.59,-103.65 184.09,-113.65 187.59,-103.65 180.59,-103.65"/>
</g>
</g>
</svg>
