<?xml version="1.0" encoding="UTF-8" standalone="no"?>
<!DOCTYPE svg PUBLIC "-//W3C//DTD SVG 1.1//EN"
 "http://www.w3.org/Graphics/SVG/1.1/DTD/svg11.dtd">
<!-- Generated by graphviz version 3.0.0 (20220226.1711)
 -->
<!-- Title: dependencies Pages: 1 -->
<svg width="1002pt" height="247pt"
 viewBox="0.00 0.00 1002.00 246.80" xmlns="http://www.w3.org/2000/svg" xmlns:xlink="http://www.w3.org/1999/xlink">
<g id="graph0" class="graph" transform="scale(1 1) rotate(0) translate(4 242.8)">
<title>dependencies</title>
<polygon fill="white" stroke="transparent" points="-4,4 -4,-242.8 998,-242.8 998,4 -4,4"/>
<text text-anchor="middle" x="497" y="-8.2" font-family="sans-serif" font-size="14.00">dependencies</text>
<g id="clust1" class="cluster">
<title>cluster_InsightsModule</title>
<polygon fill="none" stroke="black" stroke-dasharray="1,5" points="8,-32.8 8,-230.8 986,-230.8 986,-32.8 8,-32.8"/>
</g>
<g id="clust4" class="cluster">
<title>cluster_InsightsModule_exports</title>
<polygon fill="none" stroke="black" points="280,-170.8 280,-222.8 550,-222.8 550,-170.8 280,-170.8"/>
</g>
<g id="clust6" class="cluster">
<title>cluster_InsightsModule_providers</title>
<polygon fill="none" stroke="black" points="410,-40.8 410,-92.8 978,-92.8 978,-40.8 410,-40.8"/>
</g>
<g id="clust3" class="cluster">
<title>cluster_InsightsModule_imports</title>
<polygon fill="none" stroke="black" points="16,-40.8 16,-92.8 402,-92.8 402,-40.8 16,-40.8"/>
</g>
<!-- ApiServicesModule -->
<g id="node1" class="node">
<title>ApiServicesModule</title>
<polygon fill="#8dd3c7" stroke="black" points="393.98,-84.8 390.98,-88.8 369.98,-88.8 366.98,-84.8 266.02,-84.8 266.02,-48.8 393.98,-48.8 393.98,-84.8"/>
<text text-anchor="middle" x="330" y="-62.6" font-family="Times,serif" font-size="14.00">ApiServicesModule</text>
</g>
<!-- InsightsModule -->
<g id="node4" class="node">
<title>InsightsModule</title>
<polygon fill="#8dd3c7" stroke="black" points="460.89,-149.8 457.89,-153.8 436.89,-153.8 433.89,-149.8 357.11,-149.8 357.11,-113.8 460.89,-113.8 460.89,-149.8"/>
<text text-anchor="middle" x="409" y="-127.6" font-family="Times,serif" font-size="14.00">InsightsModule</text>
</g>
<!-- ApiServicesModule&#45;&gt;InsightsModule -->
<g id="edge1" class="edge">
<title>ApiServicesModule&#45;&gt;InsightsModule</title>
<path fill="none" stroke="black" d="M375.52,-84.91C375.52,-84.91 375.52,-103.79 375.52,-103.79"/>
<polygon fill="black" stroke="black" points="372.02,-103.79 375.52,-113.79 379.02,-103.79 372.02,-103.79"/>
</g>
<!-- PizzaOvenModule -->
<g id="node2" class="node">
<title>PizzaOvenModule</title>
<polygon fill="#8dd3c7" stroke="black" points="248.19,-84.8 245.19,-88.8 224.19,-88.8 221.19,-84.8 127.81,-84.8 127.81,-48.8 248.19,-48.8 248.19,-84.8"/>
<text text-anchor="middle" x="188" y="-62.6" font-family="Times,serif" font-size="14.00">PizzaOvenModule</text>
</g>
<!-- PizzaOvenModule&#45;&gt;InsightsModule -->
<g id="edge2" class="edge">
<title>PizzaOvenModule&#45;&gt;InsightsModule</title>
<path fill="none" stroke="black" d="M188,-84.82C188,-102.17 188,-125.8 188,-125.8 188,-125.8 346.91,-125.8 346.91,-125.8"/>
<polygon fill="black" stroke="black" points="346.91,-129.3 356.91,-125.8 346.91,-122.3 346.91,-129.3"/>
</g>
<!-- UserModule -->
<g id="node3" class="node">
<title>UserModule</title>
<polygon fill="#8dd3c7" stroke="black" points="109.99,-84.8 106.99,-88.8 85.99,-88.8 82.99,-84.8 24.01,-84.8 24.01,-48.8 109.99,-48.8 109.99,-84.8"/>
<text text-anchor="middle" x="67" y="-62.6" font-family="Times,serif" font-size="14.00">UserModule</text>
</g>
<!-- UserModule&#45;&gt;InsightsModule -->
<g id="edge3" class="edge">
<title>UserModule&#45;&gt;InsightsModule</title>
<path fill="none" stroke="black" d="M67,-85.08C67,-106.12 67,-137.8 67,-137.8 67,-137.8 347.06,-137.8 347.06,-137.8"/>
<polygon fill="black" stroke="black" points="347.06,-141.3 357.06,-137.8 347.06,-134.3 347.06,-141.3"/>
</g>
<!-- InsightRepoService  -->
<g id="node5" class="node">
<title>InsightRepoService </title>
<polygon fill="#fb8072" stroke="black" points="541.92,-214.8 412.08,-214.8 412.08,-178.8 541.92,-178.8 541.92,-214.8"/>
<text text-anchor="middle" x="477" y="-192.6" font-family="Times,serif" font-size="14.00">InsightRepoService </text>
</g>
<!-- InsightsModule&#45;&gt;InsightRepoService  -->
<g id="edge4" class="edge">
<title>InsightsModule&#45;&gt;InsightRepoService </title>
<path fill="none" stroke="black" stroke-dasharray="5,2" d="M436.49,-149.91C436.49,-149.91 436.49,-168.79 436.49,-168.79"/>
<polygon fill="black" stroke="black" points="432.99,-168.79 436.49,-178.79 439.99,-168.79 432.99,-168.79"/>
</g>
<!-- InsightsService  -->
<g id="node6" class="node">
<title>InsightsService </title>
<polygon fill="#fb8072" stroke="black" points="393.82,-214.8 288.18,-214.8 288.18,-178.8 393.82,-178.8 393.82,-214.8"/>
<text text-anchor="middle" x="341" y="-192.6" font-family="Times,serif" font-size="14.00">InsightsService </text>
</g>
<!-- InsightsModule&#45;&gt;InsightsService  -->
<g id="edge5" class="edge">
<title>InsightsModule&#45;&gt;InsightsService </title>
<path fill="none" stroke="black" stroke-dasharray="5,2" d="M375.48,-149.91C375.48,-149.91 375.48,-168.79 375.48,-168.79"/>
<polygon fill="black" stroke="black" points="371.98,-168.79 375.48,-178.79 378.98,-168.79 371.98,-168.79"/>
</g>
<!-- InsightMemberService -->
<g id="node7" class="node">
<title>InsightMemberService</title>
<ellipse fill="#fdb462" stroke="black" cx="870" cy="-66.8" rx="99.57" ry="18"/>
<text text-anchor="middle" x="870" y="-62.6" font-family="Times,serif" font-size="14.00">InsightMemberService</text>
</g>
<!-- InsightMemberService&#45;&gt;InsightsModule -->
<g id="edge6" class="edge">
<title>InsightMemberService&#45;&gt;InsightsModule</title>
<path fill="none" stroke="black" d="M870,-85.08C870,-106.12 870,-137.8 870,-137.8 870,-137.8 470.99,-137.8 470.99,-137.8"/>
<polygon fill="black" stroke="black" points="470.99,-134.3 460.99,-137.8 470.99,-141.3 470.99,-134.3"/>
</g>
<!-- InsightRepoService -->
<g id="node8" class="node">
<title>InsightRepoService</title>
<ellipse fill="#fdb462" stroke="black" cx="665" cy="-66.8" rx="87.41" ry="18"/>
<text text-anchor="middle" x="665" y="-62.6" font-family="Times,serif" font-size="14.00">InsightRepoService</text>
</g>
<!-- InsightRepoService&#45;&gt;InsightsModule -->
<g id="edge7" class="edge">
<title>InsightRepoService&#45;&gt;InsightsModule</title>
<path fill="none" stroke="black" d="M665,-84.82C665,-102.17 665,-125.8 665,-125.8 665,-125.8 471.11,-125.8 471.11,-125.8"/>
<polygon fill="black" stroke="black" points="471.11,-122.3 461.11,-125.8 471.11,-129.3 471.11,-122.3"/>
</g>
<!-- InsightsService -->
<g id="node9" class="node">
<title>InsightsService</title>
<ellipse fill="#fdb462" stroke="black" cx="489" cy="-66.8" rx="70.65" ry="18"/>
<text text-anchor="middle" x="489" y="-62.6" font-family="Times,serif" font-size="14.00">InsightsService</text>
</g>
<!-- InsightsService&#45;&gt;InsightsModule -->
<g id="edge8" class="edge">
<title>InsightsService&#45;&gt;InsightsModule</title>
<path fill="none" stroke="black" d="M439.68,-79.95C439.68,-79.95 439.68,-103.49 439.68,-103.49"/>
<polygon fill="black" stroke="black" points="436.18,-103.49 439.68,-113.49 443.18,-103.49 436.18,-103.49"/>
</g>
</g>
</svg>
