<?xml version="1.0" encoding="UTF-8" standalone="no"?>
<!DOCTYPE svg PUBLIC "-//W3C//DTD SVG 1.1//EN"
 "http://www.w3.org/Graphics/SVG/1.1/DTD/svg11.dtd">
<!-- Generated by graphviz version 3.0.0 (20220226.1711)
 -->
<!-- Title: dependencies Pages: 1 -->
<svg width="898pt" height="247pt"
 viewBox="0.00 0.00 898.00 246.80" xmlns="http://www.w3.org/2000/svg" xmlns:xlink="http://www.w3.org/1999/xlink">
<g id="graph0" class="graph" transform="scale(1 1) rotate(0) translate(4 242.8)">
<title>dependencies</title>
<polygon fill="white" stroke="transparent" points="-4,4 -4,-242.8 894,-242.8 894,4 -4,4"/>
<text text-anchor="middle" x="445" y="-8.2" font-family="sans-serif" font-size="14.00">dependencies</text>
<g id="clust1" class="cluster">
<title>cluster_InsightsModule</title>
<polygon fill="none" stroke="black" stroke-dasharray="1,5" points="8,-32.8 8,-230.8 882,-230.8 882,-32.8 8,-32.8"/>
</g>
<g id="clust3" class="cluster">
<title>cluster_InsightsModule_imports</title>
<polygon fill="none" stroke="black" points="592,-40.8 592,-92.8 874,-92.8 874,-40.8 592,-40.8"/>
</g>
<g id="clust4" class="cluster">
<title>cluster_InsightsModule_exports</title>
<polygon fill="none" stroke="black" points="347,-170.8 347,-222.8 617,-222.8 617,-170.8 347,-170.8"/>
</g>
<g id="clust6" class="cluster">
<title>cluster_InsightsModule_providers</title>
<polygon fill="none" stroke="black" points="16,-40.8 16,-92.8 584,-92.8 584,-40.8 16,-40.8"/>
</g>
<!-- ApiServicesModule -->
<g id="node1" class="node">
<title>ApiServicesModule</title>
<polygon fill="#8dd3c7" stroke="black" points="865.98,-84.8 862.98,-88.8 841.98,-88.8 838.98,-84.8 738.02,-84.8 738.02,-48.8 865.98,-48.8 865.98,-84.8"/>
<text text-anchor="middle" x="802" y="-62.6" font-family="Times,serif" font-size="14.00">ApiServicesModule</text>
</g>
<!-- InsightsModule -->
<g id="node3" class="node">
<title>InsightsModule</title>
<polygon fill="#8dd3c7" stroke="black" points="527.89,-149.8 524.89,-153.8 503.89,-153.8 500.89,-149.8 424.11,-149.8 424.11,-113.8 527.89,-113.8 527.89,-149.8"/>
<text text-anchor="middle" x="476" y="-127.6" font-family="Times,serif" font-size="14.00">InsightsModule</text>
</g>
<!-- ApiServicesModule&#45;&gt;InsightsModule -->
<g id="edge1" class="edge">
<title>ApiServicesModule&#45;&gt;InsightsModule</title>
<path fill="none" stroke="black" d="M802,-85.08C802,-106.12 802,-137.8 802,-137.8 802,-137.8 538.02,-137.8 538.02,-137.8"/>
<polygon fill="black" stroke="black" points="538.02,-134.3 528.02,-137.8 538.02,-141.3 538.02,-134.3"/>
</g>
<!-- PizzaOvenModule -->
<g id="node2" class="node">
<title>PizzaOvenModule</title>
<polygon fill="#8dd3c7" stroke="black" points="720.19,-84.8 717.19,-88.8 696.19,-88.8 693.19,-84.8 599.81,-84.8 599.81,-48.8 720.19,-48.8 720.19,-84.8"/>
<text text-anchor="middle" x="660" y="-62.6" font-family="Times,serif" font-size="14.00">PizzaOvenModule</text>
</g>
<!-- PizzaOvenModule&#45;&gt;InsightsModule -->
<g id="edge2" class="edge">
<title>PizzaOvenModule&#45;&gt;InsightsModule</title>
<path fill="none" stroke="black" d="M604.43,-84.82C604.43,-102.17 604.43,-125.8 604.43,-125.8 604.43,-125.8 538.24,-125.8 538.24,-125.8"/>
<polygon fill="black" stroke="black" points="538.24,-122.3 528.24,-125.8 538.24,-129.3 538.24,-122.3"/>
</g>
<!-- InsightRepoService  -->
<g id="node4" class="node">
<title>InsightRepoService </title>
<polygon fill="#fb8072" stroke="black" points="608.92,-214.8 479.08,-214.8 479.08,-178.8 608.92,-178.8 608.92,-214.8"/>
<text text-anchor="middle" x="544" y="-192.6" font-family="Times,serif" font-size="14.00">InsightRepoService </text>
</g>
<!-- InsightsModule&#45;&gt;InsightRepoService  -->
<g id="edge3" class="edge">
<title>InsightsModule&#45;&gt;InsightRepoService </title>
<path fill="none" stroke="black" stroke-dasharray="5,2" d="M503.49,-149.91C503.49,-149.91 503.49,-168.79 503.49,-168.79"/>
<polygon fill="black" stroke="black" points="499.99,-168.79 503.49,-178.79 506.99,-168.79 499.99,-168.79"/>
</g>
<!-- InsightsService  -->
<g id="node5" class="node">
<title>InsightsService </title>
<polygon fill="#fb8072" stroke="black" points="460.82,-214.8 355.18,-214.8 355.18,-178.8 460.82,-178.8 460.82,-214.8"/>
<text text-anchor="middle" x="408" y="-192.6" font-family="Times,serif" font-size="14.00">InsightsService </text>
</g>
<!-- InsightsModule&#45;&gt;InsightsService  -->
<g id="edge4" class="edge">
<title>InsightsModule&#45;&gt;InsightsService </title>
<path fill="none" stroke="black" stroke-dasharray="5,2" d="M442.48,-149.91C442.48,-149.91 442.48,-168.79 442.48,-168.79"/>
<polygon fill="black" stroke="black" points="438.98,-168.79 442.48,-178.79 445.98,-168.79 438.98,-168.79"/>
</g>
<!-- InsightMemberService -->
<g id="node6" class="node">
<title>InsightMemberService</title>
<ellipse fill="#fdb462" stroke="black" cx="476" cy="-66.8" rx="99.57" ry="18"/>
<text text-anchor="middle" x="476" y="-62.6" font-family="Times,serif" font-size="14.00">InsightMemberService</text>
</g>
<!-- InsightMemberService&#45;&gt;InsightsModule -->
<g id="edge5" class="edge">
<title>InsightMemberService&#45;&gt;InsightsModule</title>
<path fill="none" stroke="black" d="M476,-84.91C476,-84.91 476,-103.79 476,-103.79"/>
<polygon fill="black" stroke="black" points="472.5,-103.79 476,-113.79 479.5,-103.79 472.5,-103.79"/>
</g>
<!-- InsightRepoService -->
<g id="node7" class="node">
<title>InsightRepoService</title>
<ellipse fill="#fdb462" stroke="black" cx="271" cy="-66.8" rx="87.41" ry="18"/>
<text text-anchor="middle" x="271" y="-62.6" font-family="Times,serif" font-size="14.00">InsightRepoService</text>
</g>
<!-- InsightRepoService&#45;&gt;InsightsModule -->
<g id="edge6" class="edge">
<title>InsightRepoService&#45;&gt;InsightsModule</title>
<path fill="none" stroke="black" d="M269.44,-84.82C269.44,-102.17 269.44,-125.8 269.44,-125.8 269.44,-125.8 413.88,-125.8 413.88,-125.8"/>
<polygon fill="black" stroke="black" points="413.88,-129.3 423.88,-125.8 413.88,-122.3 413.88,-129.3"/>
</g>
<!-- InsightsService -->
<g id="node8" class="node">
<title>InsightsService</title>
<ellipse fill="#fdb462" stroke="black" cx="95" cy="-66.8" rx="70.65" ry="18"/>
<text text-anchor="middle" x="95" y="-62.6" font-family="Times,serif" font-size="14.00">InsightsService</text>
</g>
<!-- InsightsService&#45;&gt;InsightsModule -->
<g id="edge7" class="edge">
<title>InsightsService&#45;&gt;InsightsModule</title>
<path fill="none" stroke="black" d="M95,-85.08C95,-106.12 95,-137.8 95,-137.8 95,-137.8 413.82,-137.8 413.82,-137.8"/>
<polygon fill="black" stroke="black" points="413.82,-141.3 423.82,-137.8 413.82,-134.3 413.82,-141.3"/>
</g>
</g>
</svg>
