<?xml version="1.0" encoding="UTF-8" standalone="no"?>
<!DOCTYPE svg PUBLIC "-//W3C//DTD SVG 1.1//EN"
 "http://www.w3.org/Graphics/SVG/1.1/DTD/svg11.dtd">
<!-- Generated by graphviz version 3.0.0 (20220226.1711)
 -->
<!-- Title: dependencies Pages: 1 -->
<svg width="718pt" height="247pt"
 viewBox="0.00 0.00 718.00 246.80" xmlns="http://www.w3.org/2000/svg" xmlns:xlink="http://www.w3.org/1999/xlink">
<g id="graph0" class="graph" transform="scale(1 1) rotate(0) translate(4 242.8)">
<title>dependencies</title>
<polygon fill="white" stroke="transparent" points="-4,4 -4,-242.8 714,-242.8 714,4 -4,4"/>
<text text-anchor="middle" x="355" y="-8.2" font-family="sans-serif" font-size="14.00">dependencies</text>
<g id="clust1" class="cluster">
<title>cluster_InsightsModule</title>
<polygon fill="none" stroke="black" stroke-dasharray="1,5" points="8,-32.8 8,-230.8 702,-230.8 702,-32.8 8,-32.8"/>
</g>
<g id="clust4" class="cluster">
<title>cluster_InsightsModule_exports</title>
<polygon fill="none" stroke="black" points="244,-170.8 244,-222.8 514,-222.8 514,-170.8 244,-170.8"/>
</g>
<g id="clust3" class="cluster">
<title>cluster_InsightsModule_imports</title>
<polygon fill="none" stroke="black" points="592,-40.8 592,-92.8 694,-92.8 694,-40.8 592,-40.8"/>
</g>
<g id="clust6" class="cluster">
<title>cluster_InsightsModule_providers</title>
<polygon fill="none" stroke="black" points="16,-40.8 16,-92.8 584,-92.8 584,-40.8 16,-40.8"/>
</g>
<!-- UserModule -->
<g id="node1" class="node">
<title>UserModule</title>
<polygon fill="#8dd3c7" stroke="black" points="685.99,-84.8 682.99,-88.8 661.99,-88.8 658.99,-84.8 600.01,-84.8 600.01,-48.8 685.99,-48.8 685.99,-84.8"/>
<text text-anchor="middle" x="643" y="-62.6" font-family="Times,serif" font-size="14.00">UserModule</text>
</g>
<!-- InsightsModule -->
<g id="node2" class="node">
<title>InsightsModule</title>
<polygon fill="#8dd3c7" stroke="black" points="424.89,-149.8 421.89,-153.8 400.89,-153.8 397.89,-149.8 321.11,-149.8 321.11,-113.8 424.89,-113.8 424.89,-149.8"/>
<text text-anchor="middle" x="373" y="-127.6" font-family="Times,serif" font-size="14.00">InsightsModule</text>
</g>
<!-- UserModule&#45;&gt;InsightsModule -->
<g id="edge1" class="edge">
<title>UserModule&#45;&gt;InsightsModule</title>
<path fill="none" stroke="black" d="M643,-84.91C643,-104.14 643,-131.8 643,-131.8 643,-131.8 435.06,-131.8 435.06,-131.8"/>
<polygon fill="black" stroke="black" points="435.06,-128.3 425.06,-131.8 435.06,-135.3 435.06,-128.3"/>
</g>
<!-- InsightRepoService  -->
<g id="node3" class="node">
<title>InsightRepoService </title>
<polygon fill="#fb8072" stroke="black" points="505.92,-214.8 376.08,-214.8 376.08,-178.8 505.92,-178.8 505.92,-214.8"/>
<text text-anchor="middle" x="441" y="-192.6" font-family="Times,serif" font-size="14.00">InsightRepoService </text>
</g>
<!-- InsightsModule&#45;&gt;InsightRepoService  -->
<g id="edge2" class="edge">
<title>InsightsModule&#45;&gt;InsightRepoService </title>
<path fill="none" stroke="black" stroke-dasharray="5,2" d="M400.49,-149.91C400.49,-149.91 400.49,-168.79 400.49,-168.79"/>
<polygon fill="black" stroke="black" points="396.99,-168.79 400.49,-178.79 403.99,-168.79 396.99,-168.79"/>
</g>
<!-- InsightsService  -->
<g id="node4" class="node">
<title>InsightsService </title>
<polygon fill="#fb8072" stroke="black" points="357.82,-214.8 252.18,-214.8 252.18,-178.8 357.82,-178.8 357.82,-214.8"/>
<text text-anchor="middle" x="305" y="-192.6" font-family="Times,serif" font-size="14.00">InsightsService </text>
</g>
<!-- InsightsModule&#45;&gt;InsightsService  -->
<g id="edge3" class="edge">
<title>InsightsModule&#45;&gt;InsightsService </title>
<path fill="none" stroke="black" stroke-dasharray="5,2" d="M339.48,-149.91C339.48,-149.91 339.48,-168.79 339.48,-168.79"/>
<polygon fill="black" stroke="black" points="335.98,-168.79 339.48,-178.79 342.98,-168.79 335.98,-168.79"/>
</g>
<!-- InsightMemberService -->
<g id="node5" class="node">
<title>InsightMemberService</title>
<ellipse fill="#fdb462" stroke="black" cx="476" cy="-66.8" rx="99.57" ry="18"/>
<text text-anchor="middle" x="476" y="-62.6" font-family="Times,serif" font-size="14.00">InsightMemberService</text>
</g>
<!-- InsightMemberService&#45;&gt;InsightsModule -->
<g id="edge4" class="edge">
<title>InsightMemberService&#45;&gt;InsightsModule</title>
<path fill="none" stroke="black" d="M400.71,-78.72C400.71,-78.72 400.71,-103.57 400.71,-103.57"/>
<polygon fill="black" stroke="black" points="397.21,-103.57 400.71,-113.57 404.21,-103.57 397.21,-103.57"/>
</g>
<!-- InsightRepoService -->
<g id="node6" class="node">
<title>InsightRepoService</title>
<ellipse fill="#fdb462" stroke="black" cx="271" cy="-66.8" rx="87.41" ry="18"/>
<text text-anchor="middle" x="271" y="-62.6" font-family="Times,serif" font-size="14.00">InsightRepoService</text>
</g>
<!-- InsightRepoService&#45;&gt;InsightsModule -->
<g id="edge5" class="edge">
<title>InsightRepoService&#45;&gt;InsightsModule</title>
<path fill="none" stroke="black" d="M339.63,-78.12C339.63,-78.12 339.63,-103.74 339.63,-103.74"/>
<polygon fill="black" stroke="black" points="336.13,-103.74 339.63,-113.74 343.13,-103.74 336.13,-103.74"/>
</g>
<!-- InsightsService -->
<g id="node7" class="node">
<title>InsightsService</title>
<ellipse fill="#fdb462" stroke="black" cx="95" cy="-66.8" rx="70.65" ry="18"/>
<text text-anchor="middle" x="95" y="-62.6" font-family="Times,serif" font-size="14.00">InsightsService</text>
</g>
<!-- InsightsService&#45;&gt;InsightsModule -->
<g id="edge6" class="edge">
<title>InsightsService&#45;&gt;InsightsModule</title>
<path fill="none" stroke="black" d="M95,-84.91C95,-104.14 95,-131.8 95,-131.8 95,-131.8 311.04,-131.8 311.04,-131.8"/>
<polygon fill="black" stroke="black" points="311.04,-135.3 321.04,-131.8 311.04,-128.3 311.04,-135.3"/>
</g>
</g>
</svg>
