<?xml version="1.0" encoding="UTF-8" standalone="no"?>
<!DOCTYPE svg PUBLIC "-//W3C//DTD SVG 1.1//EN"
 "http://www.w3.org/Graphics/SVG/1.1/DTD/svg11.dtd">
<!-- Generated by graphviz version 3.0.0 (20220226.1711)
 -->
<!-- Title: dependencies Pages: 1 -->
<svg width="718pt" height="247pt"
 viewBox="0.00 0.00 718.00 246.80" xmlns="http://www.w3.org/2000/svg" xmlns:xlink="http://www.w3.org/1999/xlink">
<g id="graph0" class="graph" transform="scale(1 1) rotate(0) translate(4 242.8)">
<title>dependencies</title>
<polygon fill="white" stroke="transparent" points="-4,4 -4,-242.8 714,-242.8 714,4 -4,4"/>
<text text-anchor="middle" x="355" y="-8.2" font-family="sans-serif" font-size="14.00">dependencies</text>
<g id="clust1" class="cluster">
<title>cluster_InsightsModule</title>
<polygon fill="none" stroke="black" stroke-dasharray="1,5" points="8,-32.8 8,-230.8 702,-230.8 702,-32.8 8,-32.8"/>
</g>
<g id="clust6" class="cluster">
<title>cluster_InsightsModule_providers</title>
<polygon fill="none" stroke="black" points="126,-40.8 126,-92.8 694,-92.8 694,-40.8 126,-40.8"/>
</g>
<g id="clust4" class="cluster">
<title>cluster_InsightsModule_exports</title>
<polygon fill="none" stroke="black" points="164,-170.8 164,-222.8 434,-222.8 434,-170.8 164,-170.8"/>
</g>
<g id="clust3" class="cluster">
<title>cluster_InsightsModule_imports</title>
<polygon fill="none" stroke="black" points="16,-40.8 16,-92.8 118,-92.8 118,-40.8 16,-40.8"/>
</g>
<!-- UserModule -->
<g id="node1" class="node">
<title>UserModule</title>
<polygon fill="#8dd3c7" stroke="black" points="109.99,-84.8 106.99,-88.8 85.99,-88.8 82.99,-84.8 24.01,-84.8 24.01,-48.8 109.99,-48.8 109.99,-84.8"/>
<text text-anchor="middle" x="67" y="-62.6" font-family="Times,serif" font-size="14.00">UserModule</text>
</g>
<!-- InsightsModule -->
<g id="node2" class="node">
<title>InsightsModule</title>
<polygon fill="#8dd3c7" stroke="black" points="344.89,-149.8 341.89,-153.8 320.89,-153.8 317.89,-149.8 241.11,-149.8 241.11,-113.8 344.89,-113.8 344.89,-149.8"/>
<text text-anchor="middle" x="293" y="-127.6" font-family="Times,serif" font-size="14.00">InsightsModule</text>
</g>
<!-- UserModule&#45;&gt;InsightsModule -->
<g id="edge1" class="edge">
<title>UserModule&#45;&gt;InsightsModule</title>
<path fill="none" stroke="black" d="M67,-84.91C67,-104.14 67,-131.8 67,-131.8 67,-131.8 230.87,-131.8 230.87,-131.8"/>
<polygon fill="black" stroke="black" points="230.87,-135.3 240.87,-131.8 230.87,-128.3 230.87,-135.3"/>
</g>
<!-- InsightRepoService  -->
<g id="node3" class="node">
<title>InsightRepoService </title>
<polygon fill="#fb8072" stroke="black" points="425.92,-214.8 296.08,-214.8 296.08,-178.8 425.92,-178.8 425.92,-214.8"/>
<text text-anchor="middle" x="361" y="-192.6" font-family="Times,serif" font-size="14.00">InsightRepoService </text>
</g>
<!-- InsightsModule&#45;&gt;InsightRepoService  -->
<g id="edge2" class="edge">
<title>InsightsModule&#45;&gt;InsightRepoService </title>
<path fill="none" stroke="black" stroke-dasharray="5,2" d="M320.49,-149.91C320.49,-149.91 320.49,-168.79 320.49,-168.79"/>
<polygon fill="black" stroke="black" points="316.99,-168.79 320.49,-178.79 323.99,-168.79 316.99,-168.79"/>
</g>
<!-- InsightsService  -->
<g id="node4" class="node">
<title>InsightsService </title>
<polygon fill="#fb8072" stroke="black" points="277.82,-214.8 172.18,-214.8 172.18,-178.8 277.82,-178.8 277.82,-214.8"/>
<text text-anchor="middle" x="225" y="-192.6" font-family="Times,serif" font-size="14.00">InsightsService </text>
</g>
<!-- InsightsModule&#45;&gt;InsightsService  -->
<g id="edge3" class="edge">
<title>InsightsModule&#45;&gt;InsightsService </title>
<path fill="none" stroke="black" stroke-dasharray="5,2" d="M259.48,-149.91C259.48,-149.91 259.48,-168.79 259.48,-168.79"/>
<polygon fill="black" stroke="black" points="255.98,-168.79 259.48,-178.79 262.98,-168.79 255.98,-168.79"/>
</g>
<!-- InsightMemberService -->
<g id="node5" class="node">
<title>InsightMemberService</title>
<ellipse fill="#fdb462" stroke="black" cx="586" cy="-66.8" rx="99.57" ry="18"/>
<text text-anchor="middle" x="586" y="-62.6" font-family="Times,serif" font-size="14.00">InsightMemberService</text>
</g>
<!-- InsightMemberService&#45;&gt;InsightsModule -->
<g id="edge4" class="edge">
<title>InsightMemberService&#45;&gt;InsightsModule</title>
<path fill="none" stroke="black" d="M586,-84.91C586,-104.14 586,-131.8 586,-131.8 586,-131.8 355.04,-131.8 355.04,-131.8"/>
<polygon fill="black" stroke="black" points="355.04,-128.3 345.04,-131.8 355.04,-135.3 355.04,-128.3"/>
</g>
<!-- InsightRepoService -->
<g id="node6" class="node">
<title>InsightRepoService</title>
<ellipse fill="#fdb462" stroke="black" cx="381" cy="-66.8" rx="87.41" ry="18"/>
<text text-anchor="middle" x="381" y="-62.6" font-family="Times,serif" font-size="14.00">InsightRepoService</text>
</g>
<!-- InsightRepoService&#45;&gt;InsightsModule -->
<g id="edge5" class="edge">
<title>InsightRepoService&#45;&gt;InsightsModule</title>
<path fill="none" stroke="black" d="M319.37,-79.64C319.37,-79.64 319.37,-103.32 319.37,-103.32"/>
<polygon fill="black" stroke="black" points="315.87,-103.32 319.37,-113.32 322.87,-103.32 315.87,-103.32"/>
</g>
<!-- InsightsService -->
<g id="node7" class="node">
<title>InsightsService</title>
<ellipse fill="#fdb462" stroke="black" cx="205" cy="-66.8" rx="70.65" ry="18"/>
<text text-anchor="middle" x="205" y="-62.6" font-family="Times,serif" font-size="14.00">InsightsService</text>
</g>
<!-- InsightsService&#45;&gt;InsightsModule -->
<g id="edge6" class="edge">
<title>InsightsService&#45;&gt;InsightsModule</title>
<path fill="none" stroke="black" d="M258.32,-78.72C258.32,-78.72 258.32,-103.57 258.32,-103.57"/>
<polygon fill="black" stroke="black" points="254.82,-103.57 258.32,-113.57 261.82,-103.57 254.82,-103.57"/>
</g>
</g>
</svg>
