<?xml version="1.0" encoding="UTF-8" standalone="no"?>
<!DOCTYPE svg PUBLIC "-//W3C//DTD SVG 1.1//EN"
 "http://www.w3.org/Graphics/SVG/1.1/DTD/svg11.dtd">
<!-- Generated by graphviz version 3.0.0 (20220226.1711)
 -->
<!-- Title: dependencies Pages: 1 -->
<svg width="608pt" height="247pt"
 viewBox="0.00 0.00 608.00 246.80" xmlns="http://www.w3.org/2000/svg" xmlns:xlink="http://www.w3.org/1999/xlink">
<g id="graph0" class="graph" transform="scale(1 1) rotate(0) translate(4 242.8)">
<title>dependencies</title>
<polygon fill="white" stroke="transparent" points="-4,4 -4,-242.8 604,-242.8 604,4 -4,4"/>
<text text-anchor="middle" x="300" y="-8.2" font-family="sans-serif" font-size="14.00">dependencies</text>
<g id="clust1" class="cluster">
<title>cluster_InsightsModule</title>
<polygon fill="none" stroke="black" stroke-dasharray="1,5" points="8,-32.8 8,-230.8 592,-230.8 592,-32.8 8,-32.8"/>
</g>
<g id="clust6" class="cluster">
<title>cluster_InsightsModule_providers</title>
<polygon fill="none" stroke="black" points="16,-40.8 16,-92.8 584,-92.8 584,-40.8 16,-40.8"/>
</g>
<g id="clust4" class="cluster">
<title>cluster_InsightsModule_exports</title>
<polygon fill="none" stroke="black" points="142,-170.8 142,-222.8 412,-222.8 412,-170.8 142,-170.8"/>
</g>
<!-- InsightRepoService  -->
<g id="node1" class="node">
<title>InsightRepoService </title>
<polygon fill="#fb8072" stroke="black" points="403.92,-214.8 274.08,-214.8 274.08,-178.8 403.92,-178.8 403.92,-214.8"/>
<text text-anchor="middle" x="339" y="-192.6" font-family="Times,serif" font-size="14.00">InsightRepoService </text>
</g>
<!-- InsightsService  -->
<g id="node2" class="node">
<title>InsightsService </title>
<polygon fill="#fb8072" stroke="black" points="255.82,-214.8 150.18,-214.8 150.18,-178.8 255.82,-178.8 255.82,-214.8"/>
<text text-anchor="middle" x="203" y="-192.6" font-family="Times,serif" font-size="14.00">InsightsService </text>
</g>
<!-- InsightsModule -->
<g id="node3" class="node">
<title>InsightsModule</title>
<polygon fill="#8dd3c7" stroke="black" points="322.89,-149.8 319.89,-153.8 298.89,-153.8 295.89,-149.8 219.11,-149.8 219.11,-113.8 322.89,-113.8 322.89,-149.8"/>
<text text-anchor="middle" x="271" y="-127.6" font-family="Times,serif" font-size="14.00">InsightsModule</text>
</g>
<!-- InsightsModule&#45;&gt;InsightRepoService  -->
<g id="edge1" class="edge">
<title>InsightsModule&#45;&gt;InsightRepoService </title>
<path fill="none" stroke="black" stroke-dasharray="5,2" d="M298.49,-149.91C298.49,-149.91 298.49,-168.79 298.49,-168.79"/>
<polygon fill="black" stroke="black" points="294.99,-168.79 298.49,-178.79 301.99,-168.79 294.99,-168.79"/>
</g>
<!-- InsightsModule&#45;&gt;InsightsService  -->
<g id="edge2" class="edge">
<title>InsightsModule&#45;&gt;InsightsService </title>
<path fill="none" stroke="black" stroke-dasharray="5,2" d="M237.48,-149.91C237.48,-149.91 237.48,-168.79 237.48,-168.79"/>
<polygon fill="black" stroke="black" points="233.98,-168.79 237.48,-178.79 240.98,-168.79 233.98,-168.79"/>
</g>
<!-- InsightMemberService -->
<g id="node4" class="node">
<title>InsightMemberService</title>
<ellipse fill="#fdb462" stroke="black" cx="476" cy="-66.8" rx="99.57" ry="18"/>
<text text-anchor="middle" x="476" y="-62.6" font-family="Times,serif" font-size="14.00">InsightMemberService</text>
</g>
<!-- InsightMemberService&#45;&gt;InsightsModule -->
<g id="edge3" class="edge">
<title>InsightMemberService&#45;&gt;InsightsModule</title>
<path fill="none" stroke="black" d="M390.21,-76.11C390.21,-94.09 390.21,-131.8 390.21,-131.8 390.21,-131.8 332.94,-131.8 332.94,-131.8"/>
<polygon fill="black" stroke="black" points="332.94,-128.3 322.94,-131.8 332.94,-135.3 332.94,-128.3"/>
</g>
<!-- InsightRepoService -->
<g id="node5" class="node">
<title>InsightRepoService</title>
<ellipse fill="#fdb462" stroke="black" cx="271" cy="-66.8" rx="87.41" ry="18"/>
<text text-anchor="middle" x="271" y="-62.6" font-family="Times,serif" font-size="14.00">InsightRepoService</text>
</g>
<!-- InsightRepoService&#45;&gt;InsightsModule -->
<g id="edge4" class="edge">
<title>InsightRepoService&#45;&gt;InsightsModule</title>
<path fill="none" stroke="black" d="M271,-84.91C271,-84.91 271,-103.79 271,-103.79"/>
<polygon fill="black" stroke="black" points="267.5,-103.79 271,-113.79 274.5,-103.79 267.5,-103.79"/>
</g>
<!-- InsightsService -->
<g id="node6" class="node">
<title>InsightsService</title>
<ellipse fill="#fdb462" stroke="black" cx="95" cy="-66.8" rx="70.65" ry="18"/>
<text text-anchor="middle" x="95" y="-62.6" font-family="Times,serif" font-size="14.00">InsightsService</text>
</g>
<!-- InsightsService&#45;&gt;InsightsModule -->
<g id="edge5" class="edge">
<title>InsightsService&#45;&gt;InsightsModule</title>
<path fill="none" stroke="black" d="M157.83,-75.03C157.83,-92.52 157.83,-131.8 157.83,-131.8 157.83,-131.8 209.05,-131.8 209.05,-131.8"/>
<polygon fill="black" stroke="black" points="209.05,-135.3 219.05,-131.8 209.05,-128.3 209.05,-135.3"/>
</g>
</g>
</svg>
