<?xml version="1.0" encoding="UTF-8" standalone="no"?>
<!DOCTYPE svg PUBLIC "-//W3C//DTD SVG 1.1//EN"
 "http://www.w3.org/Graphics/SVG/1.1/DTD/svg11.dtd">
<!-- Generated by graphviz version 3.0.0 (20220226.1711)
 -->
<!-- Title: dependencies Pages: 1 -->
<svg width="390pt" height="247pt"
 viewBox="0.00 0.00 390.00 246.80" xmlns="http://www.w3.org/2000/svg" xmlns:xlink="http://www.w3.org/1999/xlink">
<g id="graph0" class="graph" transform="scale(1 1) rotate(0) translate(4 242.8)">
<title>dependencies</title>
<polygon fill="white" stroke="transparent" points="-4,4 -4,-242.8 386,-242.8 386,4 -4,4"/>
<text text-anchor="middle" x="191" y="-8.2" font-family="sans-serif" font-size="14.00">dependencies</text>
<g id="clust1" class="cluster">
<title>cluster_InsightsModule</title>
<polygon fill="none" stroke="black" stroke-dasharray="1,5" points="8,-32.8 8,-230.8 374,-230.8 374,-32.8 8,-32.8"/>
</g>
<g id="clust6" class="cluster">
<title>cluster_InsightsModule_providers</title>
<polygon fill="none" stroke="black" points="16,-40.8 16,-92.8 366,-92.8 366,-40.8 16,-40.8"/>
</g>
<g id="clust4" class="cluster">
<title>cluster_InsightsModule_exports</title>
<polygon fill="none" stroke="black" points="41,-170.8 41,-222.8 311,-222.8 311,-170.8 41,-170.8"/>
</g>
<!-- InsightRepoService  -->
<g id="node1" class="node">
<title>InsightRepoService </title>
<polygon fill="#fb8072" stroke="black" points="302.92,-214.8 173.08,-214.8 173.08,-178.8 302.92,-178.8 302.92,-214.8"/>
<text text-anchor="middle" x="238" y="-192.6" font-family="Times,serif" font-size="14.00">InsightRepoService </text>
</g>
<!-- InsightsService  -->
<g id="node2" class="node">
<title>InsightsService </title>
<polygon fill="#fb8072" stroke="black" points="154.82,-214.8 49.18,-214.8 49.18,-178.8 154.82,-178.8 154.82,-214.8"/>
<text text-anchor="middle" x="102" y="-192.6" font-family="Times,serif" font-size="14.00">InsightsService </text>
</g>
<!-- InsightsModule -->
<g id="node3" class="node">
<title>InsightsModule</title>
<polygon fill="#8dd3c7" stroke="black" points="177.89,-149.8 174.89,-153.8 153.89,-153.8 150.89,-149.8 74.11,-149.8 74.11,-113.8 177.89,-113.8 177.89,-149.8"/>
<text text-anchor="middle" x="126" y="-127.6" font-family="Times,serif" font-size="14.00">InsightsModule</text>
</g>
<!-- InsightsModule&#45;&gt;InsightRepoService  -->
<g id="edge1" class="edge">
<title>InsightsModule&#45;&gt;InsightRepoService </title>
<path fill="none" stroke="black" stroke-dasharray="5,2" d="M163.97,-149.91C163.97,-169.14 163.97,-196.8 163.97,-196.8 163.97,-196.8 164.88,-196.8 164.88,-196.8"/>
<polygon fill="black" stroke="black" points="163.05,-200.3 173.05,-196.8 163.05,-193.3 163.05,-200.3"/>
</g>
<!-- InsightsModule&#45;&gt;InsightsService  -->
<g id="edge2" class="edge">
<title>InsightsModule&#45;&gt;InsightsService </title>
<path fill="none" stroke="black" stroke-dasharray="5,2" d="M114.48,-149.91C114.48,-149.91 114.48,-168.79 114.48,-168.79"/>
<polygon fill="black" stroke="black" points="110.98,-168.79 114.48,-178.79 117.98,-168.79 110.98,-168.79"/>
</g>
<!-- InsightRepoService -->
<g id="node4" class="node">
<title>InsightRepoService</title>
<ellipse fill="#fdb462" stroke="black" cx="271" cy="-66.8" rx="87.41" ry="18"/>
<text text-anchor="middle" x="271" y="-62.6" font-family="Times,serif" font-size="14.00">InsightRepoService</text>
</g>
<!-- InsightRepoService&#45;&gt;InsightsModule -->
<g id="edge3" class="edge">
<title>InsightRepoService&#45;&gt;InsightsModule</title>
<path fill="none" stroke="black" d="M183.53,-66.8C176.34,-66.8 171.76,-66.8 171.76,-66.8 171.76,-66.8 171.76,-103.69 171.76,-103.69"/>
<polygon fill="black" stroke="black" points="168.26,-103.69 171.76,-113.69 175.26,-103.69 168.26,-103.69"/>
</g>
<!-- InsightsService -->
<g id="node5" class="node">
<title>InsightsService</title>
<ellipse fill="#fdb462" stroke="black" cx="95" cy="-66.8" rx="70.65" ry="18"/>
<text text-anchor="middle" x="95" y="-62.6" font-family="Times,serif" font-size="14.00">InsightsService</text>
</g>
<!-- InsightsService&#45;&gt;InsightsModule -->
<g id="edge4" class="edge">
<title>InsightsService&#45;&gt;InsightsModule</title>
<path fill="none" stroke="black" d="M119.82,-83.88C119.82,-83.88 119.82,-103.7 119.82,-103.7"/>
<polygon fill="black" stroke="black" points="116.32,-103.7 119.82,-113.7 123.32,-103.7 116.32,-103.7"/>
</g>
</g>
</svg>
