<?xml version="1.0" encoding="UTF-8" standalone="no"?>
<!DOCTYPE svg PUBLIC "-//W3C//DTD SVG 1.1//EN"
 "http://www.w3.org/Graphics/SVG/1.1/DTD/svg11.dtd">
<!-- Generated by graphviz version 3.0.0 (20220226.1711)
 -->
<!-- Title: dependencies Pages: 1 -->
<svg width="1002pt" height="247pt"
 viewBox="0.00 0.00 1002.00 246.80" xmlns="http://www.w3.org/2000/svg" xmlns:xlink="http://www.w3.org/1999/xlink">
<g id="graph0" class="graph" transform="scale(1 1) rotate(0) translate(4 242.8)">
<title>dependencies</title>
<polygon fill="white" stroke="transparent" points="-4,4 -4,-242.8 998,-242.8 998,4 -4,4"/>
<text text-anchor="middle" x="497" y="-8.2" font-family="sans-serif" font-size="14.00">dependencies</text>
<g id="clust1" class="cluster">
<title>cluster_InsightsModule</title>
<polygon fill="none" stroke="black" stroke-dasharray="1,5" points="8,-32.8 8,-230.8 986,-230.8 986,-32.8 8,-32.8"/>
</g>
<g id="clust3" class="cluster">
<title>cluster_InsightsModule_imports</title>
<polygon fill="none" stroke="black" points="592,-40.8 592,-92.8 978,-92.8 978,-40.8 592,-40.8"/>
</g>
<g id="clust4" class="cluster">
<title>cluster_InsightsModule_exports</title>
<polygon fill="none" stroke="black" points="430,-170.8 430,-222.8 700,-222.8 700,-170.8 430,-170.8"/>
</g>
<g id="clust6" class="cluster">
<title>cluster_InsightsModule_providers</title>
<polygon fill="none" stroke="black" points="16,-40.8 16,-92.8 584,-92.8 584,-40.8 16,-40.8"/>
</g>
<!-- ApiServicesModule -->
<g id="node1" class="node">
<title>ApiServicesModule</title>
<polygon fill="#8dd3c7" stroke="black" points="969.98,-84.8 966.98,-88.8 945.98,-88.8 942.98,-84.8 842.02,-84.8 842.02,-48.8 969.98,-48.8 969.98,-84.8"/>
<text text-anchor="middle" x="906" y="-62.6" font-family="Times,serif" font-size="14.00">ApiServicesModule</text>
</g>
<!-- InsightsModule -->
<g id="node4" class="node">
<title>InsightsModule</title>
<polygon fill="#8dd3c7" stroke="black" points="610.89,-149.8 607.89,-153.8 586.89,-153.8 583.89,-149.8 507.11,-149.8 507.11,-113.8 610.89,-113.8 610.89,-149.8"/>
<text text-anchor="middle" x="559" y="-127.6" font-family="Times,serif" font-size="14.00">InsightsModule</text>
</g>
<!-- ApiServicesModule&#45;&gt;InsightsModule -->
<g id="edge1" class="edge">
<title>ApiServicesModule&#45;&gt;InsightsModule</title>
<path fill="none" stroke="black" d="M906,-85.08C906,-106.12 906,-137.8 906,-137.8 906,-137.8 620.95,-137.8 620.95,-137.8"/>
<polygon fill="black" stroke="black" points="620.95,-134.3 610.95,-137.8 620.95,-141.3 620.95,-134.3"/>
</g>
<!-- PizzaOvenModule -->
<g id="node2" class="node">
<title>PizzaOvenModule</title>
<polygon fill="#8dd3c7" stroke="black" points="824.19,-84.8 821.19,-88.8 800.19,-88.8 797.19,-84.8 703.81,-84.8 703.81,-48.8 824.19,-48.8 824.19,-84.8"/>
<text text-anchor="middle" x="764" y="-62.6" font-family="Times,serif" font-size="14.00">PizzaOvenModule</text>
</g>
<!-- PizzaOvenModule&#45;&gt;InsightsModule -->
<g id="edge2" class="edge">
<title>PizzaOvenModule&#45;&gt;InsightsModule</title>
<path fill="none" stroke="black" d="M764,-84.82C764,-102.17 764,-125.8 764,-125.8 764,-125.8 621,-125.8 621,-125.8"/>
<polygon fill="black" stroke="black" points="621,-122.3 611,-125.8 621,-129.3 621,-122.3"/>
</g>
<!-- UserModule -->
<g id="node3" class="node">
<title>UserModule</title>
<polygon fill="#8dd3c7" stroke="black" points="685.99,-84.8 682.99,-88.8 661.99,-88.8 658.99,-84.8 600.01,-84.8 600.01,-48.8 685.99,-48.8 685.99,-84.8"/>
<text text-anchor="middle" x="643" y="-62.6" font-family="Times,serif" font-size="14.00">UserModule</text>
</g>
<!-- UserModule&#45;&gt;InsightsModule -->
<g id="edge3" class="edge">
<title>UserModule&#45;&gt;InsightsModule</title>
<path fill="none" stroke="black" d="M605.48,-84.91C605.48,-84.91 605.48,-103.79 605.48,-103.79"/>
<polygon fill="black" stroke="black" points="601.98,-103.79 605.48,-113.79 608.98,-103.79 601.98,-103.79"/>
</g>
<!-- InsightRepoService  -->
<g id="node5" class="node">
<title>InsightRepoService </title>
<polygon fill="#fb8072" stroke="black" points="691.92,-214.8 562.08,-214.8 562.08,-178.8 691.92,-178.8 691.92,-214.8"/>
<text text-anchor="middle" x="627" y="-192.6" font-family="Times,serif" font-size="14.00">InsightRepoService </text>
</g>
<!-- InsightsModule&#45;&gt;InsightRepoService  -->
<g id="edge4" class="edge">
<title>InsightsModule&#45;&gt;InsightRepoService </title>
<path fill="none" stroke="black" stroke-dasharray="5,2" d="M586.49,-149.91C586.49,-149.91 586.49,-168.79 586.49,-168.79"/>
<polygon fill="black" stroke="black" points="582.99,-168.79 586.49,-178.79 589.99,-168.79 582.99,-168.79"/>
</g>
<!-- InsightsService  -->
<g id="node6" class="node">
<title>InsightsService </title>
<polygon fill="#fb8072" stroke="black" points="543.82,-214.8 438.18,-214.8 438.18,-178.8 543.82,-178.8 543.82,-214.8"/>
<text text-anchor="middle" x="491" y="-192.6" font-family="Times,serif" font-size="14.00">InsightsService </text>
</g>
<!-- InsightsModule&#45;&gt;InsightsService  -->
<g id="edge5" class="edge">
<title>InsightsModule&#45;&gt;InsightsService </title>
<path fill="none" stroke="black" stroke-dasharray="5,2" d="M525.48,-149.91C525.48,-149.91 525.48,-168.79 525.48,-168.79"/>
<polygon fill="black" stroke="black" points="521.98,-168.79 525.48,-178.79 528.98,-168.79 521.98,-168.79"/>
</g>
<!-- InsightMemberService -->
<g id="node7" class="node">
<title>InsightMemberService</title>
<ellipse fill="#fdb462" stroke="black" cx="476" cy="-66.8" rx="99.57" ry="18"/>
<text text-anchor="middle" x="476" y="-62.6" font-family="Times,serif" font-size="14.00">InsightMemberService</text>
</g>
<!-- InsightMemberService&#45;&gt;InsightsModule -->
<g id="edge6" class="edge">
<title>InsightMemberService&#45;&gt;InsightsModule</title>
<path fill="none" stroke="black" d="M541.29,-80.58C541.29,-80.58 541.29,-103.35 541.29,-103.35"/>
<polygon fill="black" stroke="black" points="537.79,-103.35 541.29,-113.35 544.79,-103.35 537.79,-103.35"/>
</g>
<!-- InsightRepoService -->
<g id="node8" class="node">
<title>InsightRepoService</title>
<ellipse fill="#fdb462" stroke="black" cx="271" cy="-66.8" rx="87.41" ry="18"/>
<text text-anchor="middle" x="271" y="-62.6" font-family="Times,serif" font-size="14.00">InsightRepoService</text>
</g>
<!-- InsightRepoService&#45;&gt;InsightsModule -->
<g id="edge7" class="edge">
<title>InsightRepoService&#45;&gt;InsightsModule</title>
<path fill="none" stroke="black" d="M271,-84.82C271,-102.17 271,-125.8 271,-125.8 271,-125.8 496.85,-125.8 496.85,-125.8"/>
<polygon fill="black" stroke="black" points="496.85,-129.3 506.85,-125.8 496.85,-122.3 496.85,-129.3"/>
</g>
<!-- InsightsService -->
<g id="node9" class="node">
<title>InsightsService</title>
<ellipse fill="#fdb462" stroke="black" cx="95" cy="-66.8" rx="70.65" ry="18"/>
<text text-anchor="middle" x="95" y="-62.6" font-family="Times,serif" font-size="14.00">InsightsService</text>
</g>
<!-- InsightsService&#45;&gt;InsightsModule -->
<g id="edge8" class="edge">
<title>InsightsService&#45;&gt;InsightsModule</title>
<path fill="none" stroke="black" d="M95,-85.08C95,-106.12 95,-137.8 95,-137.8 95,-137.8 496.68,-137.8 496.68,-137.8"/>
<polygon fill="black" stroke="black" points="496.68,-141.3 506.68,-137.8 496.68,-134.3 496.68,-141.3"/>
</g>
</g>
</svg>
