<?xml version="1.0" encoding="UTF-8" standalone="no"?>
<!DOCTYPE svg PUBLIC "-//W3C//DTD SVG 1.1//EN"
 "http://www.w3.org/Graphics/SVG/1.1/DTD/svg11.dtd">
<!-- Generated by graphviz version 3.0.0 (20220226.1711)
 -->
<!-- Title: dependencies Pages: 1 -->
<svg width="898pt" height="247pt"
 viewBox="0.00 0.00 898.00 246.80" xmlns="http://www.w3.org/2000/svg" xmlns:xlink="http://www.w3.org/1999/xlink">
<g id="graph0" class="graph" transform="scale(1 1) rotate(0) translate(4 242.8)">
<title>dependencies</title>
<polygon fill="white" stroke="transparent" points="-4,4 -4,-242.8 894,-242.8 894,4 -4,4"/>
<text text-anchor="middle" x="445" y="-8.2" font-family="sans-serif" font-size="14.00">dependencies</text>
<g id="clust1" class="cluster">
<title>cluster_InsightsModule</title>
<polygon fill="none" stroke="black" stroke-dasharray="1,5" points="8,-32.8 8,-230.8 882,-230.8 882,-32.8 8,-32.8"/>
</g>
<g id="clust4" class="cluster">
<title>cluster_InsightsModule_exports</title>
<polygon fill="none" stroke="black" points="256,-170.8 256,-222.8 526,-222.8 526,-170.8 256,-170.8"/>
</g>
<g id="clust6" class="cluster">
<title>cluster_InsightsModule_providers</title>
<polygon fill="none" stroke="black" points="306,-40.8 306,-92.8 874,-92.8 874,-40.8 306,-40.8"/>
</g>
<g id="clust3" class="cluster">
<title>cluster_InsightsModule_imports</title>
<polygon fill="none" stroke="black" points="16,-40.8 16,-92.8 298,-92.8 298,-40.8 16,-40.8"/>
</g>
<!-- ApiServicesModule -->
<g id="node1" class="node">
<title>ApiServicesModule</title>
<polygon fill="#8dd3c7" stroke="black" points="289.98,-84.8 286.98,-88.8 265.98,-88.8 262.98,-84.8 162.02,-84.8 162.02,-48.8 289.98,-48.8 289.98,-84.8"/>
<text text-anchor="middle" x="226" y="-62.6" font-family="Times,serif" font-size="14.00">ApiServicesModule</text>
</g>
<!-- InsightsModule -->
<g id="node3" class="node">
<title>InsightsModule</title>
<polygon fill="#8dd3c7" stroke="black" points="436.89,-149.8 433.89,-153.8 412.89,-153.8 409.89,-149.8 333.11,-149.8 333.11,-113.8 436.89,-113.8 436.89,-149.8"/>
<text text-anchor="middle" x="385" y="-127.6" font-family="Times,serif" font-size="14.00">InsightsModule</text>
</g>
<!-- ApiServicesModule&#45;&gt;InsightsModule -->
<g id="edge1" class="edge">
<title>ApiServicesModule&#45;&gt;InsightsModule</title>
<path fill="none" stroke="black" d="M277.04,-84.82C277.04,-102.17 277.04,-125.8 277.04,-125.8 277.04,-125.8 322.92,-125.8 322.92,-125.8"/>
<polygon fill="black" stroke="black" points="322.92,-129.3 332.92,-125.8 322.92,-122.3 322.92,-129.3"/>
</g>
<!-- PizzaOvenModule -->
<g id="node2" class="node">
<title>PizzaOvenModule</title>
<polygon fill="#8dd3c7" stroke="black" points="144.19,-84.8 141.19,-88.8 120.19,-88.8 117.19,-84.8 23.81,-84.8 23.81,-48.8 144.19,-48.8 144.19,-84.8"/>
<text text-anchor="middle" x="84" y="-62.6" font-family="Times,serif" font-size="14.00">PizzaOvenModule</text>
</g>
<!-- PizzaOvenModule&#45;&gt;InsightsModule -->
<g id="edge2" class="edge">
<title>PizzaOvenModule&#45;&gt;InsightsModule</title>
<path fill="none" stroke="black" d="M84,-85.08C84,-106.12 84,-137.8 84,-137.8 84,-137.8 322.91,-137.8 322.91,-137.8"/>
<polygon fill="black" stroke="black" points="322.91,-141.3 332.91,-137.8 322.91,-134.3 322.91,-141.3"/>
</g>
<!-- InsightRepoService  -->
<g id="node4" class="node">
<title>InsightRepoService </title>
<polygon fill="#fb8072" stroke="black" points="517.92,-214.8 388.08,-214.8 388.08,-178.8 517.92,-178.8 517.92,-214.8"/>
<text text-anchor="middle" x="453" y="-192.6" font-family="Times,serif" font-size="14.00">InsightRepoService </text>
</g>
<!-- InsightsModule&#45;&gt;InsightRepoService  -->
<g id="edge3" class="edge">
<title>InsightsModule&#45;&gt;InsightRepoService </title>
<path fill="none" stroke="black" stroke-dasharray="5,2" d="M412.49,-149.91C412.49,-149.91 412.49,-168.79 412.49,-168.79"/>
<polygon fill="black" stroke="black" points="408.99,-168.79 412.49,-178.79 415.99,-168.79 408.99,-168.79"/>
</g>
<!-- InsightsService  -->
<g id="node5" class="node">
<title>InsightsService </title>
<polygon fill="#fb8072" stroke="black" points="369.82,-214.8 264.18,-214.8 264.18,-178.8 369.82,-178.8 369.82,-214.8"/>
<text text-anchor="middle" x="317" y="-192.6" font-family="Times,serif" font-size="14.00">InsightsService </text>
</g>
<!-- InsightsModule&#45;&gt;InsightsService  -->
<g id="edge4" class="edge">
<title>InsightsModule&#45;&gt;InsightsService </title>
<path fill="none" stroke="black" stroke-dasharray="5,2" d="M351.48,-149.91C351.48,-149.91 351.48,-168.79 351.48,-168.79"/>
<polygon fill="black" stroke="black" points="347.98,-168.79 351.48,-178.79 354.98,-168.79 347.98,-168.79"/>
</g>
<!-- InsightMemberService -->
<g id="node6" class="node">
<title>InsightMemberService</title>
<ellipse fill="#fdb462" stroke="black" cx="766" cy="-66.8" rx="99.57" ry="18"/>
<text text-anchor="middle" x="766" y="-62.6" font-family="Times,serif" font-size="14.00">InsightMemberService</text>
</g>
<!-- InsightMemberService&#45;&gt;InsightsModule -->
<g id="edge5" class="edge">
<title>InsightMemberService&#45;&gt;InsightsModule</title>
<path fill="none" stroke="black" d="M766,-85.08C766,-106.12 766,-137.8 766,-137.8 766,-137.8 447.18,-137.8 447.18,-137.8"/>
<polygon fill="black" stroke="black" points="447.18,-134.3 437.18,-137.8 447.18,-141.3 447.18,-134.3"/>
</g>
<!-- InsightRepoService -->
<g id="node7" class="node">
<title>InsightRepoService</title>
<ellipse fill="#fdb462" stroke="black" cx="561" cy="-66.8" rx="87.41" ry="18"/>
<text text-anchor="middle" x="561" y="-62.6" font-family="Times,serif" font-size="14.00">InsightRepoService</text>
</g>
<!-- InsightRepoService&#45;&gt;InsightsModule -->
<g id="edge6" class="edge">
<title>InsightRepoService&#45;&gt;InsightsModule</title>
<path fill="none" stroke="black" d="M495.88,-79.02C495.88,-96.31 495.88,-125.8 495.88,-125.8 495.88,-125.8 447.19,-125.8 447.19,-125.8"/>
<polygon fill="black" stroke="black" points="447.19,-122.3 437.19,-125.8 447.19,-129.3 447.19,-122.3"/>
</g>
<!-- InsightsService -->
<g id="node8" class="node">
<title>InsightsService</title>
<ellipse fill="#fdb462" stroke="black" cx="385" cy="-66.8" rx="70.65" ry="18"/>
<text text-anchor="middle" x="385" y="-62.6" font-family="Times,serif" font-size="14.00">InsightsService</text>
</g>
<!-- InsightsService&#45;&gt;InsightsModule -->
<g id="edge7" class="edge">
<title>InsightsService&#45;&gt;InsightsModule</title>
<path fill="none" stroke="black" d="M385,-84.91C385,-84.91 385,-103.79 385,-103.79"/>
<polygon fill="black" stroke="black" points="381.5,-103.79 385,-113.79 388.5,-103.79 381.5,-103.79"/>
</g>
</g>
</svg>
