<?xml version="1.0" encoding="UTF-8" standalone="no"?>
<!DOCTYPE svg PUBLIC "-//W3C//DTD SVG 1.1//EN"
 "http://www.w3.org/Graphics/SVG/1.1/DTD/svg11.dtd">
<!-- Generated by graphviz version 3.0.0 (20220226.1711)
 -->
<!-- Title: dependencies Pages: 1 -->
<svg width="319pt" height="174pt"
 viewBox="0.00 0.00 319.00 173.80" xmlns="http://www.w3.org/2000/svg" xmlns:xlink="http://www.w3.org/1999/xlink">
<g id="graph0" class="graph" transform="scale(1 1) rotate(0) translate(4 169.8)">
<title>dependencies</title>
<polygon fill="white" stroke="transparent" points="-4,4 -4,-169.8 315,-169.8 315,4 -4,4"/>
<text text-anchor="middle" x="155.5" y="-8.2" font-family="sans-serif" font-size="14.00">dependencies</text>
<g id="clust1" class="cluster">
<title>cluster_ContributorModule</title>
<polygon fill="none" stroke="black" stroke-dasharray="1,5" points="8,-32.8 8,-157.8 303,-157.8 303,-32.8 8,-32.8"/>
</g>
<g id="clust3" class="cluster">
<title>cluster_ContributorModule_imports</title>
<polygon fill="none" stroke="black" points="16,-40.8 16,-92.8 295,-92.8 295,-40.8 16,-40.8"/>
</g>
<!-- PullRequestModule -->
<g id="node1" class="node">
<title>PullRequestModule</title>
<polygon fill="#8dd3c7" stroke="black" points="286.72,-84.8 283.72,-88.8 262.72,-88.8 259.72,-84.8 159.28,-84.8 159.28,-48.8 286.72,-48.8 286.72,-84.8"/>
<text text-anchor="middle" x="223" y="-62.6" font-family="Times,serif" font-size="14.00">PullRequestModule</text>
</g>
<!-- ContributorModule -->
<g id="node3" class="node">
<title>ContributorModule</title>
<polygon fill="#8dd3c7" stroke="black" points="215.38,-149.8 212.38,-153.8 191.38,-153.8 188.38,-149.8 90.62,-149.8 90.62,-113.8 215.38,-113.8 215.38,-149.8"/>
<text text-anchor="middle" x="153" y="-127.6" font-family="Times,serif" font-size="14.00">ContributorModule</text>
</g>
<!-- PullRequestModule&#45;&gt;ContributorModule -->
<g id="edge1" class="edge">
<title>PullRequestModule&#45;&gt;ContributorModule</title>
<path fill="none" stroke="black" d="M187.42,-84.91C187.42,-84.91 187.42,-103.79 187.42,-103.79"/>
<polygon fill="black" stroke="black" points="183.92,-103.79 187.42,-113.79 190.92,-103.79 183.92,-103.79"/>
</g>
<!-- TimescaleModule -->
<g id="node2" class="node">
<title>TimescaleModule</title>
<polygon fill="#8dd3c7" stroke="black" points="141.58,-84.8 138.58,-88.8 117.58,-88.8 114.58,-84.8 24.42,-84.8 24.42,-48.8 141.58,-48.8 141.58,-84.8"/>
<text text-anchor="middle" x="83" y="-62.6" font-family="Times,serif" font-size="14.00">TimescaleModule</text>
</g>
<!-- TimescaleModule&#45;&gt;ContributorModule -->
<g id="edge2" class="edge">
<title>TimescaleModule&#45;&gt;ContributorModule</title>
<path fill="none" stroke="black" d="M116.05,-84.91C116.05,-84.91 116.05,-103.79 116.05,-103.79"/>
<polygon fill="black" stroke="black" points="112.55,-103.79 116.05,-113.79 119.55,-103.79 112.55,-103.79"/>
</g>
</g>
</svg>
