<?xml version="1.0" encoding="UTF-8" standalone="no"?>
<!DOCTYPE svg PUBLIC "-//W3C//DTD SVG 1.1//EN"
 "http://www.w3.org/Graphics/SVG/1.1/DTD/svg11.dtd">
<!-- Generated by graphviz version 3.0.0 (20220226.1711)
 -->
<!-- Title: dependencies Pages: 1 -->
<svg width="376pt" height="247pt"
 viewBox="0.00 0.00 376.00 246.80" xmlns="http://www.w3.org/2000/svg" xmlns:xlink="http://www.w3.org/1999/xlink">
<g id="graph0" class="graph" transform="scale(1 1) rotate(0) translate(4 242.8)">
<title>dependencies</title>
<polygon fill="white" stroke="transparent" points="-4,4 -4,-242.8 372,-242.8 372,4 -4,4"/>
<text text-anchor="middle" x="184" y="-8.2" font-family="sans-serif" font-size="14.00">dependencies</text>
<g id="clust1" class="cluster">
<title>cluster_BlogSummaryModule</title>
<polygon fill="none" stroke="black" stroke-dasharray="1,5" points="8,-32.8 8,-230.8 360,-230.8 360,-32.8 8,-32.8"/>
</g>
<g id="clust3" class="cluster">
<title>cluster_BlogSummaryModule_imports</title>
<polygon fill="none" stroke="black" points="232,-40.8 232,-92.8 352,-92.8 352,-40.8 232,-40.8"/>
</g>
<g id="clust6" class="cluster">
<title>cluster_BlogSummaryModule_providers</title>
<polygon fill="none" stroke="black" points="16,-40.8 16,-92.8 224,-92.8 224,-40.8 16,-40.8"/>
</g>
<g id="clust4" class="cluster">
<title>cluster_BlogSummaryModule_exports</title>
<polygon fill="none" stroke="black" points="116,-170.8 116,-222.8 276,-222.8 276,-170.8 116,-170.8"/>
</g>
<!-- OpenAiModule -->
<g id="node1" class="node">
<title>OpenAiModule</title>
<polygon fill="#8dd3c7" stroke="black" points="343.88,-84.8 340.88,-88.8 319.88,-88.8 316.88,-84.8 240.12,-84.8 240.12,-48.8 343.88,-48.8 343.88,-84.8"/>
<text text-anchor="middle" x="292" y="-62.6" font-family="Times,serif" font-size="14.00">OpenAiModule</text>
</g>
<!-- BlogSummaryModule -->
<g id="node2" class="node">
<title>BlogSummaryModule</title>
<polygon fill="#8dd3c7" stroke="black" points="266.72,-149.8 263.72,-153.8 242.72,-153.8 239.72,-149.8 125.28,-149.8 125.28,-113.8 266.72,-113.8 266.72,-149.8"/>
<text text-anchor="middle" x="196" y="-127.6" font-family="Times,serif" font-size="14.00">BlogSummaryModule</text>
</g>
<!-- OpenAiModule&#45;&gt;BlogSummaryModule -->
<g id="edge1" class="edge">
<title>OpenAiModule&#45;&gt;BlogSummaryModule</title>
<path fill="none" stroke="black" d="M253.34,-84.91C253.34,-84.91 253.34,-103.79 253.34,-103.79"/>
<polygon fill="black" stroke="black" points="249.84,-103.79 253.34,-113.79 256.84,-103.79 249.84,-103.79"/>
</g>
<!-- BlogSummaryService  -->
<g id="node3" class="node">
<title>BlogSummaryService </title>
<polygon fill="#fb8072" stroke="black" points="267.65,-214.8 124.35,-214.8 124.35,-178.8 267.65,-178.8 267.65,-214.8"/>
<text text-anchor="middle" x="196" y="-192.6" font-family="Times,serif" font-size="14.00">BlogSummaryService </text>
</g>
<!-- BlogSummaryModule&#45;&gt;BlogSummaryService  -->
<g id="edge2" class="edge">
<title>BlogSummaryModule&#45;&gt;BlogSummaryService </title>
<path fill="none" stroke="black" stroke-dasharray="5,2" d="M196,-149.91C196,-149.91 196,-168.79 196,-168.79"/>
<polygon fill="black" stroke="black" points="192.5,-168.79 196,-178.79 199.5,-168.79 192.5,-168.79"/>
</g>
<!-- BlogSummaryService -->
<g id="node4" class="node">
<title>BlogSummaryService</title>
<ellipse fill="#fdb462" stroke="black" cx="120" cy="-66.8" rx="96.15" ry="18"/>
<text text-anchor="middle" x="120" y="-62.6" font-family="Times,serif" font-size="14.00">BlogSummaryService</text>
</g>
<!-- BlogSummaryService&#45;&gt;BlogSummaryModule -->
<g id="edge3" class="edge">
<title>BlogSummaryService&#45;&gt;BlogSummaryModule</title>
<path fill="none" stroke="black" d="M170.86,-82.2C170.86,-82.2 170.86,-103.74 170.86,-103.74"/>
<polygon fill="black" stroke="black" points="167.36,-103.74 170.86,-113.74 174.36,-103.74 167.36,-103.74"/>
</g>
</g>
</svg>
