<?xml version="1.0" encoding="UTF-8" standalone="no"?>
<!DOCTYPE svg PUBLIC "-//W3C//DTD SVG 1.1//EN"
 "http://www.w3.org/Graphics/SVG/1.1/DTD/svg11.dtd">
<!-- Generated by graphviz version 3.0.0 (20220226.1711)
 -->
<!-- Title: dependencies Pages: 1 -->
<svg width="376pt" height="247pt"
 viewBox="0.00 0.00 376.00 246.80" xmlns="http://www.w3.org/2000/svg" xmlns:xlink="http://www.w3.org/1999/xlink">
<g id="graph0" class="graph" transform="scale(1 1) rotate(0) translate(4 242.8)">
<title>dependencies</title>
<polygon fill="white" stroke="transparent" points="-4,4 -4,-242.8 372,-242.8 372,4 -4,4"/>
<text text-anchor="middle" x="184" y="-8.2" font-family="sans-serif" font-size="14.00">dependencies</text>
<g id="clust1" class="cluster">
<title>cluster_BlogSummaryModule</title>
<polygon fill="none" stroke="black" stroke-dasharray="1,5" points="8,-32.8 8,-230.8 360,-230.8 360,-32.8 8,-32.8"/>
</g>
<g id="clust6" class="cluster">
<title>cluster_BlogSummaryModule_providers</title>
<polygon fill="none" stroke="black" points="144,-40.8 144,-92.8 352,-92.8 352,-40.8 144,-40.8"/>
</g>
<g id="clust4" class="cluster">
<title>cluster_BlogSummaryModule_exports</title>
<polygon fill="none" stroke="black" points="92,-170.8 92,-222.8 252,-222.8 252,-170.8 92,-170.8"/>
</g>
<g id="clust3" class="cluster">
<title>cluster_BlogSummaryModule_imports</title>
<polygon fill="none" stroke="black" points="16,-40.8 16,-92.8 136,-92.8 136,-40.8 16,-40.8"/>
</g>
<!-- OpenAiModule -->
<g id="node1" class="node">
<title>OpenAiModule</title>
<polygon fill="#8dd3c7" stroke="black" points="127.88,-84.8 124.88,-88.8 103.88,-88.8 100.88,-84.8 24.12,-84.8 24.12,-48.8 127.88,-48.8 127.88,-84.8"/>
<text text-anchor="middle" x="76" y="-62.6" font-family="Times,serif" font-size="14.00">OpenAiModule</text>
</g>
<!-- BlogSummaryModule -->
<g id="node2" class="node">
<title>BlogSummaryModule</title>
<polygon fill="#8dd3c7" stroke="black" points="242.72,-149.8 239.72,-153.8 218.72,-153.8 215.72,-149.8 101.28,-149.8 101.28,-113.8 242.72,-113.8 242.72,-149.8"/>
<text text-anchor="middle" x="172" y="-127.6" font-family="Times,serif" font-size="14.00">BlogSummaryModule</text>
</g>
<!-- OpenAiModule&#45;&gt;BlogSummaryModule -->
<g id="edge1" class="edge">
<title>OpenAiModule&#45;&gt;BlogSummaryModule</title>
<path fill="none" stroke="black" d="M114.66,-84.91C114.66,-84.91 114.66,-103.79 114.66,-103.79"/>
<polygon fill="black" stroke="black" points="111.16,-103.79 114.66,-113.79 118.16,-103.79 111.16,-103.79"/>
</g>
<!-- BlogSummaryService  -->
<g id="node3" class="node">
<title>BlogSummaryService </title>
<polygon fill="#fb8072" stroke="black" points="243.65,-214.8 100.35,-214.8 100.35,-178.8 243.65,-178.8 243.65,-214.8"/>
<text text-anchor="middle" x="172" y="-192.6" font-family="Times,serif" font-size="14.00">BlogSummaryService </text>
</g>
<!-- BlogSummaryModule&#45;&gt;BlogSummaryService  -->
<g id="edge2" class="edge">
<title>BlogSummaryModule&#45;&gt;BlogSummaryService </title>
<path fill="none" stroke="black" stroke-dasharray="5,2" d="M172,-149.91C172,-149.91 172,-168.79 172,-168.79"/>
<polygon fill="black" stroke="black" points="168.5,-168.79 172,-178.79 175.5,-168.79 168.5,-168.79"/>
</g>
<!-- BlogSummaryService -->
<g id="node4" class="node">
<title>BlogSummaryService</title>
<ellipse fill="#fdb462" stroke="black" cx="248" cy="-66.8" rx="96.15" ry="18"/>
<text text-anchor="middle" x="248" y="-62.6" font-family="Times,serif" font-size="14.00">BlogSummaryService</text>
</g>
<!-- BlogSummaryService&#45;&gt;BlogSummaryModule -->
<g id="edge3" class="edge">
<title>BlogSummaryService&#45;&gt;BlogSummaryModule</title>
<path fill="none" stroke="black" d="M197.14,-82.2C197.14,-82.2 197.14,-103.74 197.14,-103.74"/>
<polygon fill="black" stroke="black" points="193.64,-103.74 197.14,-113.74 200.64,-103.74 193.64,-103.74"/>
</g>
</g>
</svg>
