<?xml version="1.0" encoding="UTF-8" standalone="no"?>
<!DOCTYPE svg PUBLIC "-//W3C//DTD SVG 1.1//EN"
 "http://www.w3.org/Graphics/SVG/1.1/DTD/svg11.dtd">
<!-- Generated by graphviz version 2.40.1 (20161225.0304)
 -->
<!-- Title: public.users_to_repos_votes Pages: 1 -->
<svg width="2270pt" height="1186pt"
 viewBox="0.00 0.00 2269.50 1186.00" xmlns="http://www.w3.org/2000/svg" xmlns:xlink="http://www.w3.org/1999/xlink">
<g id="graph0" class="graph" transform="scale(1 1) rotate(0) translate(4 1182)">
<title>public.users_to_repos_votes</title>
<polygon fill="#ffffff" stroke="transparent" points="-4,4 -4,-1182 2265.5,-1182 2265.5,4 -4,4"/>
<!-- public.users_to_repos_votes -->
<g id="node1" class="node">
<title>public.users_to_repos_votes</title>
<polygon fill="#efefef" stroke="transparent" points="1472,-1054.5 1472,-1089.5 1812,-1089.5 1812,-1054.5 1472,-1054.5"/>
<polygon fill="none" stroke="#000000" points="1472,-1054.5 1472,-1089.5 1812,-1089.5 1812,-1054.5 1472,-1054.5"/>
<text text-anchor="start" x="1478.84" y="-1067.3" font-family="Arial Bold" font-size="18.00" fill="#000000">public.users_to_repos_votes</text>
<text text-anchor="start" x="1707.9062" y="-1067.3" font-family="Arial" font-size="14.00" fill="#000000"> </text>
<text text-anchor="start" x="1711.7968" y="-1067.3" font-family="Arial" font-size="14.00" fill="#666666">[BASE TABLE]</text>
<polygon fill="none" stroke="#000000" points="1472,-1024.5 1472,-1054.5 1812,-1054.5 1812,-1024.5 1472,-1024.5"/>
<text text-anchor="start" x="1479" y="-1035.9" font-family="Arial" font-size="14.00" fill="#000000">id </text>
<text text-anchor="start" x="1493.7798" y="-1035.9" font-family="Arial" font-size="14.00" fill="#666666">[bigint]</text>
<polygon fill="none" stroke="#000000" points="1472,-994.5 1472,-1024.5 1812,-1024.5 1812,-994.5 1472,-994.5"/>
<text text-anchor="start" x="1479" y="-1005.9" font-family="Arial" font-size="14.00" fill="#000000">user_id </text>
<text text-anchor="start" x="1528.7882" y="-1005.9" font-family="Arial" font-size="14.00" fill="#666666">[bigint]</text>
<polygon fill="none" stroke="#000000" points="1472,-964.5 1472,-994.5 1812,-994.5 1812,-964.5 1472,-964.5"/>
<text text-anchor="start" x="1479" y="-975.9" font-family="Arial" font-size="14.00" fill="#000000">repo_id </text>
<text text-anchor="start" x="1529.5708" y="-975.9" font-family="Arial" font-size="14.00" fill="#666666">[bigint]</text>
<polygon fill="none" stroke="#000000" points="1472,-934.5 1472,-964.5 1812,-964.5 1812,-934.5 1472,-934.5"/>
<text text-anchor="start" x="1479" y="-945.9" font-family="Arial" font-size="14.00" fill="#000000">created_at </text>
<text text-anchor="start" x="1549.028" y="-945.9" font-family="Arial" font-size="14.00" fill="#666666">[timestamp with time zone]</text>
<polygon fill="none" stroke="#000000" points="1472,-904.5 1472,-934.5 1812,-934.5 1812,-904.5 1472,-904.5"/>
<text text-anchor="start" x="1479" y="-915.9" font-family="Arial" font-size="14.00" fill="#000000">updated_at </text>
<text text-anchor="start" x="1552.9326" y="-915.9" font-family="Arial" font-size="14.00" fill="#666666">[timestamp with time zone]</text>
<polygon fill="none" stroke="#000000" points="1472,-874.5 1472,-904.5 1812,-904.5 1812,-874.5 1472,-874.5"/>
<text text-anchor="start" x="1479" y="-885.9" font-family="Arial" font-size="14.00" fill="#000000">deleted_at </text>
<text text-anchor="start" x="1548.2566" y="-885.9" font-family="Arial" font-size="14.00" fill="#666666">[timestamp with time zone]</text>
<polygon fill="none" stroke="#000000" stroke-width="3" points="1470.5,-873.5 1470.5,-1091.5 1813.5,-1091.5 1813.5,-873.5 1470.5,-873.5"/>
</g>
<!-- public.users -->
<g id="node2" class="node">
<title>public.users</title>
<polygon fill="#efefef" stroke="transparent" points="592,-537.5 592,-572.5 845,-572.5 845,-537.5 592,-537.5"/>
<polygon fill="none" stroke="#000000" points="592,-537.5 592,-572.5 845,-572.5 845,-537.5 592,-537.5"/>
<text text-anchor="start" x="621.8662" y="-550.3" font-family="Arial Bold" font-size="18.00" fill="#000000">public.users</text>
<text text-anchor="start" x="717.88" y="-550.3" font-family="Arial" font-size="14.00" fill="#000000"> </text>
<text text-anchor="start" x="721.7706" y="-550.3" font-family="Arial" font-size="14.00" fill="#666666">[BASE TABLE]</text>
<polygon fill="none" stroke="#000000" points="592,-507.5 592,-537.5 845,-537.5 845,-507.5 592,-507.5"/>
<text text-anchor="start" x="599" y="-518.9" font-family="Arial" font-size="14.00" fill="#000000">id </text>
<text text-anchor="start" x="613.7798" y="-518.9" font-family="Arial" font-size="14.00" fill="#666666">[bigint]</text>
<polygon fill="none" stroke="#000000" points="592,-477.5 592,-507.5 845,-507.5 845,-477.5 592,-477.5"/>
<text text-anchor="start" x="599" y="-488.9" font-family="Arial" font-size="14.00" fill="#000000">open_issues </text>
<text text-anchor="start" x="681.4754" y="-488.9" font-family="Arial" font-size="14.00" fill="#666666">[bigint]</text>
<polygon fill="none" stroke="#000000" points="592,-447.5 592,-477.5 845,-477.5 845,-447.5 592,-447.5"/>
<text text-anchor="start" x="599" y="-458.9" font-family="Arial" font-size="14.00" fill="#000000">has_stars_data </text>
<text text-anchor="start" x="698.5932" y="-458.9" font-family="Arial" font-size="14.00" fill="#666666">[boolean]</text>
<polygon fill="none" stroke="#000000" points="592,-417.5 592,-447.5 845,-447.5 845,-417.5 592,-417.5"/>
<text text-anchor="start" x="599" y="-428.9" font-family="Arial" font-size="14.00" fill="#000000">is_private </text>
<text text-anchor="start" x="662.7854" y="-428.9" font-family="Arial" font-size="14.00" fill="#666666">[boolean]</text>
<polygon fill="none" stroke="#000000" points="592,-387.5 592,-417.5 845,-417.5 845,-387.5 592,-387.5"/>
<text text-anchor="start" x="599" y="-398.9" font-family="Arial" font-size="14.00" fill="#000000">is_open_sauced_member </text>
<text text-anchor="start" x="763.9354" y="-398.9" font-family="Arial" font-size="14.00" fill="#666666">[boolean]</text>
<polygon fill="none" stroke="#000000" points="592,-357.5 592,-387.5 845,-387.5 845,-357.5 592,-357.5"/>
<text text-anchor="start" x="599" y="-368.9" font-family="Arial" font-size="14.00" fill="#000000">created_at </text>
<text text-anchor="start" x="669.028" y="-368.9" font-family="Arial" font-size="14.00" fill="#666666">[timestamp with time zone]</text>
<polygon fill="none" stroke="#000000" points="592,-327.5 592,-357.5 845,-357.5 845,-327.5 592,-327.5"/>
<text text-anchor="start" x="599" y="-338.9" font-family="Arial" font-size="14.00" fill="#000000">login </text>
<text text-anchor="start" x="632.4516" y="-338.9" font-family="Arial" font-size="14.00" fill="#666666">[varchar(255)]</text>
<polygon fill="none" stroke="#000000" points="592,-297.5 592,-327.5 845,-327.5 845,-297.5 592,-297.5"/>
<text text-anchor="start" x="599" y="-308.9" font-family="Arial" font-size="14.00" fill="#000000">deleted_at </text>
<text text-anchor="start" x="668.2566" y="-308.9" font-family="Arial" font-size="14.00" fill="#666666">[timestamp with time zone]</text>
<polygon fill="none" stroke="#000000" points="592,-267.5 592,-297.5 845,-297.5 845,-267.5 592,-267.5"/>
<text text-anchor="start" x="598.6915" y="-278.9" font-family="Arial" font-size="14.00" fill="#000000">updated_at </text>
<text text-anchor="start" x="672.6241" y="-278.9" font-family="Arial" font-size="14.00" fill="#666666">[timestamp with time zone]</text>
<polygon fill="none" stroke="#000000" points="592,-237.5 592,-267.5 845,-267.5 845,-237.5 592,-237.5"/>
<text text-anchor="start" x="599" y="-248.9" font-family="Arial" font-size="14.00" fill="#000000">is_onboarded </text>
<text text-anchor="start" x="687.7012" y="-248.9" font-family="Arial" font-size="14.00" fill="#666666">[boolean]</text>
<polygon fill="none" stroke="#000000" points="592,-207.5 592,-237.5 845,-237.5 845,-207.5 592,-207.5"/>
<text text-anchor="start" x="599" y="-218.9" font-family="Arial" font-size="14.00" fill="#000000">role </text>
<text text-anchor="start" x="626.223" y="-218.9" font-family="Arial" font-size="14.00" fill="#666666">[bigint]</text>
<polygon fill="none" stroke="#000000" points="592,-177.5 592,-207.5 845,-207.5 845,-177.5 592,-177.5"/>
<text text-anchor="start" x="599" y="-188.9" font-family="Arial" font-size="14.00" fill="#000000">is_waitlisted </text>
<text text-anchor="start" x="678.3352" y="-188.9" font-family="Arial" font-size="14.00" fill="#666666">[boolean]</text>
</g>
<!-- public.users_to_repos_votes&#45;&gt;public.users -->
<g id="edge1" class="edge">
<title>public.users_to_repos_votes:user_id&#45;&gt;public.users:id</title>
<path fill="none" stroke="#000000" d="M1461.825,-1008.8977C1378.8805,-998.2901 1492.0052,-850.3596 1417,-787 1334.7785,-717.5445 1020.5301,-815.0077 934,-751 846.3798,-686.1859 953.987,-522.5 845,-522.5"/>
<polygon fill="#000000" stroke="#000000" points="1462.0175,-1008.909 1471.734,-1013.9921 1467.0087,-1009.2045 1472,-1009.5 1472,-1009.5 1472,-1009.5 1467.0087,-1009.2045 1472.266,-1005.0079 1462.0175,-1008.909 1462.0175,-1008.909"/>
<text text-anchor="start" x="1420.0845" y="-993.5" font-family="Arial" font-size="10.00" fill="#000000">FOREIGN KEY (user_id) REFERENCES users(id)</text>
</g>
<!-- public.repos -->
<g id="node6" class="node">
<title>public.repos</title>
<polygon fill="#efefef" stroke="transparent" points="986,-672.5 986,-707.5 1364,-707.5 1364,-672.5 986,-672.5"/>
<polygon fill="none" stroke="#000000" points="986,-672.5 986,-707.5 1364,-707.5 1364,-672.5 986,-672.5"/>
<text text-anchor="start" x="1077.8631" y="-685.3" font-family="Arial Bold" font-size="18.00" fill="#000000">public.repos</text>
<text text-anchor="start" x="1174.8831" y="-685.3" font-family="Arial" font-size="14.00" fill="#000000"> </text>
<text text-anchor="start" x="1178.7737" y="-685.3" font-family="Arial" font-size="14.00" fill="#666666">[BASE TABLE]</text>
<polygon fill="none" stroke="#000000" points="986,-642.5 986,-672.5 1364,-672.5 1364,-642.5 986,-642.5"/>
<text text-anchor="start" x="993" y="-653.9" font-family="Arial" font-size="14.00" fill="#000000">id </text>
<text text-anchor="start" x="1007.7798" y="-653.9" font-family="Arial" font-size="14.00" fill="#666666">[bigint]</text>
<polygon fill="none" stroke="#000000" points="986,-612.5 986,-642.5 1364,-642.5 1364,-612.5 986,-612.5"/>
<text text-anchor="start" x="993" y="-623.9" font-family="Arial" font-size="14.00" fill="#000000">user_id </text>
<text text-anchor="start" x="1042.7882" y="-623.9" font-family="Arial" font-size="14.00" fill="#666666">[bigint]</text>
<polygon fill="none" stroke="#000000" points="986,-582.5 986,-612.5 1364,-612.5 1364,-582.5 986,-582.5"/>
<text text-anchor="start" x="993" y="-593.9" font-family="Arial" font-size="14.00" fill="#000000">issues </text>
<text text-anchor="start" x="1036.5624" y="-593.9" font-family="Arial" font-size="14.00" fill="#666666">[bigint]</text>
<polygon fill="none" stroke="#000000" points="986,-552.5 986,-582.5 1364,-582.5 1364,-552.5 986,-552.5"/>
<text text-anchor="start" x="993" y="-563.9" font-family="Arial" font-size="14.00" fill="#000000">stars </text>
<text text-anchor="start" x="1027.2244" y="-563.9" font-family="Arial" font-size="14.00" fill="#666666">[bigint]</text>
<polygon fill="none" stroke="#000000" points="986,-522.5 986,-552.5 1364,-552.5 1364,-522.5 986,-522.5"/>
<text text-anchor="start" x="993" y="-533.9" font-family="Arial" font-size="14.00" fill="#000000">watchers </text>
<text text-anchor="start" x="1052.8962" y="-533.9" font-family="Arial" font-size="14.00" fill="#666666">[bigint]</text>
<polygon fill="none" stroke="#000000" points="986,-492.5 986,-522.5 1364,-522.5 1364,-492.5 986,-492.5"/>
<text text-anchor="start" x="993" y="-503.9" font-family="Arial" font-size="14.00" fill="#000000">subscribers </text>
<text text-anchor="start" x="1068.4488" y="-503.9" font-family="Arial" font-size="14.00" fill="#666666">[bigint]</text>
<polygon fill="none" stroke="#000000" points="986,-462.5 986,-492.5 1364,-492.5 1364,-462.5 986,-462.5"/>
<text text-anchor="start" x="993" y="-473.9" font-family="Arial" font-size="14.00" fill="#000000">is_fork </text>
<text text-anchor="start" x="1038.1136" y="-473.9" font-family="Arial" font-size="14.00" fill="#666666">[boolean]</text>
<polygon fill="none" stroke="#000000" points="986,-432.5 986,-462.5 1364,-462.5 1364,-432.5 986,-432.5"/>
<text text-anchor="start" x="993" y="-443.9" font-family="Arial" font-size="14.00" fill="#000000">created_at </text>
<text text-anchor="start" x="1063.028" y="-443.9" font-family="Arial" font-size="14.00" fill="#666666">[timestamp without time zone]</text>
<polygon fill="none" stroke="#000000" points="986,-402.5 986,-432.5 1364,-432.5 1364,-402.5 986,-402.5"/>
<text text-anchor="start" x="993" y="-413.9" font-family="Arial" font-size="14.00" fill="#000000">updated_at </text>
<text text-anchor="start" x="1066.9326" y="-413.9" font-family="Arial" font-size="14.00" fill="#666666">[timestamp without time zone]</text>
<polygon fill="none" stroke="#000000" points="986,-372.5 986,-402.5 1364,-402.5 1364,-372.5 986,-372.5"/>
<text text-anchor="start" x="993" y="-383.9" font-family="Arial" font-size="14.00" fill="#000000">pushed_at </text>
<text text-anchor="start" x="1062.2594" y="-383.9" font-family="Arial" font-size="14.00" fill="#666666">[timestamp without time zone]</text>
<polygon fill="none" stroke="#000000" points="986,-342.5 986,-372.5 1364,-372.5 1364,-342.5 986,-342.5"/>
<text text-anchor="start" x="992.5674" y="-353.9" font-family="Arial" font-size="14.00" fill="#000000">last_fetched_contributors_at </text>
<text text-anchor="start" x="1172.2924" y="-353.9" font-family="Arial" font-size="14.00" fill="#666666">[timestamp without time zone]</text>
<polygon fill="none" stroke="#000000" points="986,-312.5 986,-342.5 1364,-342.5 1364,-312.5 986,-312.5"/>
<text text-anchor="start" x="993" y="-323.9" font-family="Arial" font-size="14.00" fill="#000000">name </text>
<text text-anchor="start" x="1031.899" y="-323.9" font-family="Arial" font-size="14.00" fill="#666666">[varchar(255)]</text>
<polygon fill="none" stroke="#000000" points="986,-282.5 986,-312.5 1364,-312.5 1364,-282.5 986,-282.5"/>
<text text-anchor="start" x="993" y="-293.9" font-family="Arial" font-size="14.00" fill="#000000">full_name </text>
<text text-anchor="start" x="1057.568" y="-293.9" font-family="Arial" font-size="14.00" fill="#666666">[varchar(255)]</text>
<polygon fill="none" stroke="#000000" points="986,-252.5 986,-282.5 1364,-282.5 1364,-252.5 986,-252.5"/>
<text text-anchor="start" x="993" y="-263.9" font-family="Arial" font-size="14.00" fill="#000000">description </text>
<text text-anchor="start" x="1064.568" y="-263.9" font-family="Arial" font-size="14.00" fill="#666666">[text]</text>
<polygon fill="none" stroke="#000000" points="986,-222.5 986,-252.5 1364,-252.5 1364,-222.5 986,-222.5"/>
<text text-anchor="start" x="993" y="-233.9" font-family="Arial" font-size="14.00" fill="#000000">language </text>
<text text-anchor="start" x="1054.4754" y="-233.9" font-family="Arial" font-size="14.00" fill="#666666">[varchar(64)]</text>
<polygon fill="none" stroke="#000000" points="986,-192.5 986,-222.5 1364,-222.5 1364,-192.5 986,-192.5"/>
<text text-anchor="start" x="993" y="-203.9" font-family="Arial" font-size="14.00" fill="#000000">license </text>
<text text-anchor="start" x="1040.4516" y="-203.9" font-family="Arial" font-size="14.00" fill="#666666">[varchar(64)]</text>
<polygon fill="none" stroke="#000000" points="986,-162.5 986,-192.5 1364,-192.5 1364,-162.5 986,-162.5"/>
<text text-anchor="start" x="993" y="-173.9" font-family="Arial" font-size="14.00" fill="#000000">url </text>
<text text-anchor="start" x="1012.4404" y="-173.9" font-family="Arial" font-size="14.00" fill="#666666">[varchar(255)]</text>
<polygon fill="none" stroke="#000000" points="986,-132.5 986,-162.5 1364,-162.5 1364,-132.5 986,-132.5"/>
<text text-anchor="start" x="993" y="-143.9" font-family="Arial" font-size="14.00" fill="#000000">deleted_at </text>
<text text-anchor="start" x="1062.2566" y="-143.9" font-family="Arial" font-size="14.00" fill="#666666">[timestamp with time zone]</text>
<polygon fill="none" stroke="#000000" points="986,-102.5 986,-132.5 1364,-132.5 1364,-102.5 986,-102.5"/>
<text text-anchor="start" x="993" y="-113.9" font-family="Arial" font-size="14.00" fill="#000000">last_fetched_repos_at </text>
<text text-anchor="start" x="1134.6114" y="-113.9" font-family="Arial" font-size="14.00" fill="#666666">[timestamp without time zone]</text>
<polygon fill="none" stroke="#000000" points="986,-72.5 986,-102.5 1364,-102.5 1364,-72.5 986,-72.5"/>
<text text-anchor="start" x="993" y="-83.9" font-family="Arial" font-size="14.00" fill="#000000">last_fetched_prs_at </text>
<text text-anchor="start" x="1119.0462" y="-83.9" font-family="Arial" font-size="14.00" fill="#666666">[timestamp without time zone]</text>
<polygon fill="none" stroke="#000000" points="986,-42.5 986,-72.5 1364,-72.5 1364,-42.5 986,-42.5"/>
<text text-anchor="start" x="993" y="-53.9" font-family="Arial" font-size="14.00" fill="#000000">last_fetched_commits_at </text>
<text text-anchor="start" x="1151.704" y="-53.9" font-family="Arial" font-size="14.00" fill="#666666">[timestamp without time zone]</text>
</g>
<!-- public.users_to_repos_votes&#45;&gt;public.repos -->
<g id="edge5" class="edge">
<title>public.users_to_repos_votes:repo_id&#45;&gt;public.repos:id</title>
<path fill="none" stroke="#000000" d="M1461.802,-978.962C1388.0417,-970.6471 1444.9235,-867.6314 1417,-787 1396.649,-728.2348 1426.1893,-657.5 1364,-657.5"/>
<polygon fill="#000000" stroke="#000000" points="1462.0139,-978.9731 1471.7629,-983.9938 1467.0069,-979.2365 1472,-979.5 1472,-979.5 1472,-979.5 1467.0069,-979.2365 1472.2371,-975.0062 1462.0139,-978.9731 1462.0139,-978.9731"/>
<text text-anchor="start" x="1419.2755" y="-963.5" font-family="Arial" font-size="10.00" fill="#000000">FOREIGN KEY (repo_id) REFERENCES repos(id)</text>
</g>
<!-- public.users_to_repos_stars -->
<g id="node3" class="node">
<title>public.users_to_repos_stars</title>
<polygon fill="#efefef" stroke="transparent" points="43,-1054.5 43,-1089.5 379,-1089.5 379,-1054.5 43,-1054.5"/>
<polygon fill="none" stroke="#000000" points="43,-1054.5 43,-1089.5 379,-1089.5 379,-1054.5 43,-1054.5"/>
<text text-anchor="start" x="49.847" y="-1067.3" font-family="Arial Bold" font-size="18.00" fill="#000000">public.users_to_repos_stars</text>
<text text-anchor="start" x="274.8992" y="-1067.3" font-family="Arial" font-size="14.00" fill="#000000"> </text>
<text text-anchor="start" x="278.7898" y="-1067.3" font-family="Arial" font-size="14.00" fill="#666666">[BASE TABLE]</text>
<polygon fill="none" stroke="#000000" points="43,-1024.5 43,-1054.5 379,-1054.5 379,-1024.5 43,-1024.5"/>
<text text-anchor="start" x="50" y="-1035.9" font-family="Arial" font-size="14.00" fill="#000000">id </text>
<text text-anchor="start" x="64.7798" y="-1035.9" font-family="Arial" font-size="14.00" fill="#666666">[bigint]</text>
<polygon fill="none" stroke="#000000" points="43,-994.5 43,-1024.5 379,-1024.5 379,-994.5 43,-994.5"/>
<text text-anchor="start" x="50" y="-1005.9" font-family="Arial" font-size="14.00" fill="#000000">user_id </text>
<text text-anchor="start" x="99.7882" y="-1005.9" font-family="Arial" font-size="14.00" fill="#666666">[bigint]</text>
<polygon fill="none" stroke="#000000" points="43,-964.5 43,-994.5 379,-994.5 379,-964.5 43,-964.5"/>
<text text-anchor="start" x="50" y="-975.9" font-family="Arial" font-size="14.00" fill="#000000">repo_id </text>
<text text-anchor="start" x="100.5708" y="-975.9" font-family="Arial" font-size="14.00" fill="#666666">[bigint]</text>
<polygon fill="none" stroke="#000000" points="43,-934.5 43,-964.5 379,-964.5 379,-934.5 43,-934.5"/>
<text text-anchor="start" x="50" y="-945.9" font-family="Arial" font-size="14.00" fill="#000000">created_at </text>
<text text-anchor="start" x="120.028" y="-945.9" font-family="Arial" font-size="14.00" fill="#666666">[timestamp with time zone]</text>
<polygon fill="none" stroke="#000000" points="43,-904.5 43,-934.5 379,-934.5 379,-904.5 43,-904.5"/>
<text text-anchor="start" x="50" y="-915.9" font-family="Arial" font-size="14.00" fill="#000000">updated_at </text>
<text text-anchor="start" x="123.9326" y="-915.9" font-family="Arial" font-size="14.00" fill="#666666">[timestamp with time zone]</text>
<polygon fill="none" stroke="#000000" points="43,-874.5 43,-904.5 379,-904.5 379,-874.5 43,-874.5"/>
<text text-anchor="start" x="50" y="-885.9" font-family="Arial" font-size="14.00" fill="#000000">deleted_at </text>
<text text-anchor="start" x="119.2566" y="-885.9" font-family="Arial" font-size="14.00" fill="#666666">[timestamp with time zone]</text>
</g>
<!-- public.users_to_repos_stars&#45;&gt;public.users -->
<g id="edge2" class="edge">
<title>public.users_to_repos_stars:user_id&#45;&gt;public.users:id</title>
<path fill="none" stroke="#000000" d="M389.0216,-1009.0306C474.5229,-1000.5073 393.9121,-877.6931 431,-787 483.0911,-659.6186 454.3791,-522.5 592,-522.5"/>
<polygon fill="#000000" stroke="#000000" points="388.989,-1009.032 378.7894,-1005.0049 383.9945,-1009.266 379,-1009.5 379,-1009.5 379,-1009.5 383.9945,-1009.266 379.2106,-1013.9951 388.989,-1009.032 388.989,-1009.032"/>
<text text-anchor="start" x="386.3345" y="-1019.5" font-family="Arial" font-size="10.00" fill="#000000">FOREIGN KEY (user_id) REFERENCES users(id)</text>
</g>
<!-- public.users_to_repos_stars&#45;&gt;public.repos -->
<g id="edge7" class="edge">
<title>public.users_to_repos_stars:repo_id&#45;&gt;public.repos:id</title>
<path fill="none" stroke="#000000" d="M389.3814,-978.7641C458.9309,-967.9639 365.7017,-841.1255 431,-787 510.7942,-720.8588 802.2676,-795.2268 896,-751 948.1638,-726.387 928.321,-657.5 986,-657.5"/>
<polygon fill="#000000" stroke="#000000" points="388.975,-978.7928 378.6818,-975.0113 383.9875,-979.1464 379,-979.5 379,-979.5 379,-979.5 383.9875,-979.1464 379.3182,-983.9887 388.975,-978.7928 388.975,-978.7928"/>
<text text-anchor="start" x="385.7755" y="-989.5" font-family="Arial" font-size="10.00" fill="#000000">FOREIGN KEY (repo_id) REFERENCES repos(id)</text>
</g>
<!-- public.users_to_repos_submissions -->
<g id="node4" class="node">
<title>public.users_to_repos_submissions</title>
<polygon fill="#efefef" stroke="transparent" points="483,-1069.5 483,-1104.5 879,-1104.5 879,-1069.5 483,-1069.5"/>
<polygon fill="none" stroke="#000000" points="483,-1069.5 483,-1104.5 879,-1104.5 879,-1069.5 483,-1069.5"/>
<text text-anchor="start" x="489.8446" y="-1082.3" font-family="Arial Bold" font-size="18.00" fill="#000000">public.users_to_repos_submissions</text>
<text text-anchor="start" x="774.9016" y="-1082.3" font-family="Arial" font-size="14.00" fill="#000000"> </text>
<text text-anchor="start" x="778.7922" y="-1082.3" font-family="Arial" font-size="14.00" fill="#666666">[BASE TABLE]</text>
<polygon fill="none" stroke="#000000" points="483,-1039.5 483,-1069.5 879,-1069.5 879,-1039.5 483,-1039.5"/>
<text text-anchor="start" x="490" y="-1050.9" font-family="Arial" font-size="14.00" fill="#000000">id </text>
<text text-anchor="start" x="504.7798" y="-1050.9" font-family="Arial" font-size="14.00" fill="#666666">[bigint]</text>
<polygon fill="none" stroke="#000000" points="483,-1009.5 483,-1039.5 879,-1039.5 879,-1009.5 483,-1009.5"/>
<text text-anchor="start" x="490" y="-1020.9" font-family="Arial" font-size="14.00" fill="#000000">user_id </text>
<text text-anchor="start" x="539.7882" y="-1020.9" font-family="Arial" font-size="14.00" fill="#666666">[bigint]</text>
<polygon fill="none" stroke="#000000" points="483,-979.5 483,-1009.5 879,-1009.5 879,-979.5 483,-979.5"/>
<text text-anchor="start" x="490" y="-990.9" font-family="Arial" font-size="14.00" fill="#000000">repo_id </text>
<text text-anchor="start" x="540.5708" y="-990.9" font-family="Arial" font-size="14.00" fill="#666666">[bigint]</text>
<polygon fill="none" stroke="#000000" points="483,-949.5 483,-979.5 879,-979.5 879,-949.5 483,-949.5"/>
<text text-anchor="start" x="490" y="-960.9" font-family="Arial" font-size="14.00" fill="#000000">created_at </text>
<text text-anchor="start" x="560.028" y="-960.9" font-family="Arial" font-size="14.00" fill="#666666">[timestamp with time zone]</text>
<polygon fill="none" stroke="#000000" points="483,-919.5 483,-949.5 879,-949.5 879,-919.5 483,-919.5"/>
<text text-anchor="start" x="490" y="-930.9" font-family="Arial" font-size="14.00" fill="#000000">updated_at </text>
<text text-anchor="start" x="563.9326" y="-930.9" font-family="Arial" font-size="14.00" fill="#666666">[timestamp with time zone]</text>
<polygon fill="none" stroke="#000000" points="483,-889.5 483,-919.5 879,-919.5 879,-889.5 483,-889.5"/>
<text text-anchor="start" x="490" y="-900.9" font-family="Arial" font-size="14.00" fill="#000000">deleted_at </text>
<text text-anchor="start" x="559.2566" y="-900.9" font-family="Arial" font-size="14.00" fill="#666666">[timestamp with time zone]</text>
<polygon fill="none" stroke="#000000" points="483,-859.5 483,-889.5 879,-889.5 879,-859.5 483,-859.5"/>
<text text-anchor="start" x="490" y="-870.9" font-family="Arial" font-size="14.00" fill="#000000">is_accepted </text>
<text text-anchor="start" x="568.5834" y="-870.9" font-family="Arial" font-size="14.00" fill="#666666">[boolean]</text>
</g>
<!-- public.users_to_repos_submissions&#45;&gt;public.users -->
<g id="edge3" class="edge">
<title>public.users_to_repos_submissions:user_id&#45;&gt;public.users:id</title>
<path fill="none" stroke="#000000" d="M888.9568,-1021.2982C921.0626,-998.0133 898.5434,-854.5468 879,-817 807.0999,-678.8652 663.9001,-754.1348 592,-616 572.8135,-579.1389 550.4444,-522.5 592,-522.5"/>
<polygon fill="#000000" stroke="#000000" points="888.5199,-1021.4386 877.6224,-1020.216 883.7599,-1022.9693 879,-1024.5 879,-1024.5 879,-1024.5 883.7599,-1022.9693 880.3776,-1028.784 888.5199,-1021.4386 888.5199,-1021.4386"/>
<text text-anchor="start" x="886.3345" y="-1034.5" font-family="Arial" font-size="10.00" fill="#000000">FOREIGN KEY (user_id) REFERENCES users(id)</text>
</g>
<!-- public.users_to_repos_submissions&#45;&gt;public.repos -->
<g id="edge8" class="edge">
<title>public.users_to_repos_submissions:repo_id&#45;&gt;public.repos:id</title>
<path fill="none" stroke="#000000" d="M889.3869,-993.9714C968.5051,-985.3728 901.9504,-873.6187 931,-787 950.883,-727.7139 923.4686,-657.5 986,-657.5"/>
<polygon fill="#000000" stroke="#000000" points="888.9871,-993.9916 878.7712,-990.0058 883.9935,-994.2458 879,-994.5 879,-994.5 879,-994.5 883.9935,-994.2458 879.2288,-998.9942 888.9871,-993.9916 888.9871,-993.9916"/>
<text text-anchor="start" x="885.7755" y="-1004.5" font-family="Arial" font-size="10.00" fill="#000000">FOREIGN KEY (repo_id) REFERENCES repos(id)</text>
</g>
<!-- public.users_to_repos_stargazers -->
<g id="node5" class="node">
<title>public.users_to_repos_stargazers</title>
<polygon fill="#efefef" stroke="transparent" points="984,-1054.5 984,-1089.5 1365,-1089.5 1365,-1054.5 984,-1054.5"/>
<polygon fill="none" stroke="#000000" points="984,-1054.5 984,-1089.5 1365,-1089.5 1365,-1054.5 984,-1054.5"/>
<text text-anchor="start" x="990.8416" y="-1067.3" font-family="Arial Bold" font-size="18.00" fill="#000000">public.users_to_repos_stargazers</text>
<text text-anchor="start" x="1260.9046" y="-1067.3" font-family="Arial" font-size="14.00" fill="#000000"> </text>
<text text-anchor="start" x="1264.7952" y="-1067.3" font-family="Arial" font-size="14.00" fill="#666666">[BASE TABLE]</text>
<polygon fill="none" stroke="#000000" points="984,-1024.5 984,-1054.5 1365,-1054.5 1365,-1024.5 984,-1024.5"/>
<text text-anchor="start" x="991" y="-1035.9" font-family="Arial" font-size="14.00" fill="#000000">id </text>
<text text-anchor="start" x="1005.7798" y="-1035.9" font-family="Arial" font-size="14.00" fill="#666666">[bigint]</text>
<polygon fill="none" stroke="#000000" points="984,-994.5 984,-1024.5 1365,-1024.5 1365,-994.5 984,-994.5"/>
<text text-anchor="start" x="991" y="-1005.9" font-family="Arial" font-size="14.00" fill="#000000">user_id </text>
<text text-anchor="start" x="1040.7882" y="-1005.9" font-family="Arial" font-size="14.00" fill="#666666">[bigint]</text>
<polygon fill="none" stroke="#000000" points="984,-964.5 984,-994.5 1365,-994.5 1365,-964.5 984,-964.5"/>
<text text-anchor="start" x="991" y="-975.9" font-family="Arial" font-size="14.00" fill="#000000">repo_id </text>
<text text-anchor="start" x="1041.5708" y="-975.9" font-family="Arial" font-size="14.00" fill="#666666">[bigint]</text>
<polygon fill="none" stroke="#000000" points="984,-934.5 984,-964.5 1365,-964.5 1365,-934.5 984,-934.5"/>
<text text-anchor="start" x="991" y="-945.9" font-family="Arial" font-size="14.00" fill="#000000">created_at </text>
<text text-anchor="start" x="1061.028" y="-945.9" font-family="Arial" font-size="14.00" fill="#666666">[timestamp without time zone]</text>
<polygon fill="none" stroke="#000000" points="984,-904.5 984,-934.5 1365,-934.5 1365,-904.5 984,-904.5"/>
<text text-anchor="start" x="991" y="-915.9" font-family="Arial" font-size="14.00" fill="#000000">updated_at </text>
<text text-anchor="start" x="1064.9326" y="-915.9" font-family="Arial" font-size="14.00" fill="#666666">[timestamp without time zone]</text>
<polygon fill="none" stroke="#000000" points="984,-874.5 984,-904.5 1365,-904.5 1365,-874.5 984,-874.5"/>
<text text-anchor="start" x="991" y="-885.9" font-family="Arial" font-size="14.00" fill="#000000">deleted_at </text>
<text text-anchor="start" x="1060.2566" y="-885.9" font-family="Arial" font-size="14.00" fill="#666666">[timestamp without time zone]</text>
</g>
<!-- public.users_to_repos_stargazers&#45;&gt;public.users -->
<g id="edge4" class="edge">
<title>public.users_to_repos_stargazers:user_id&#45;&gt;public.users:id</title>
<path fill="none" stroke="#000000" d="M974.1737,-1007.0294C934.6762,-985.708 943.7908,-832.4899 931,-787 897.54,-668.0014 968.6133,-522.5 845,-522.5"/>
<polygon fill="#000000" stroke="#000000" points="974.3018,-1007.0615 982.9027,-1013.8642 979.1509,-1008.2808 984,-1009.5 984,-1009.5 984,-1009.5 979.1509,-1008.2808 985.0973,-1005.1358 974.3018,-1007.0615 974.3018,-1007.0615"/>
<text text-anchor="start" x="813.5845" y="-993.5" font-family="Arial" font-size="10.00" fill="#000000">FOREIGN KEY (user_id) REFERENCES users(id)</text>
</g>
<!-- public.users_to_repos_stargazers&#45;&gt;public.repos -->
<g id="edge9" class="edge">
<title>public.users_to_repos_stargazers:repo_id&#45;&gt;public.repos:id</title>
<path fill="none" stroke="#000000" d="M1375.2875,-978.5968C1427.7454,-968.711 1403.892,-880.0823 1365,-832 1256.6751,-698.0775 1094.3249,-884.9225 986,-751 959.8662,-718.6907 944.4444,-657.5 986,-657.5"/>
<polygon fill="#000000" stroke="#000000" points="1374.9617,-978.6253 1364.6064,-975.0172 1369.9808,-979.0626 1365,-979.5 1365,-979.5 1365,-979.5 1369.9808,-979.0626 1365.3936,-983.9828 1374.9617,-978.6253 1374.9617,-978.6253"/>
<text text-anchor="start" x="1133.7755" y="-989.5" font-family="Arial" font-size="10.00" fill="#000000">FOREIGN KEY (repo_id) REFERENCES repos(id)</text>
</g>
<!-- public.contributions -->
<g id="node7" class="node">
<title>public.contributions</title>
<polygon fill="#efefef" stroke="transparent" points="1920,-1099.5 1920,-1134.5 2219,-1134.5 2219,-1099.5 1920,-1099.5"/>
<polygon fill="none" stroke="#000000" points="1920,-1099.5 1920,-1134.5 2219,-1134.5 2219,-1099.5 1920,-1099.5"/>
<text text-anchor="start" x="1943.8574" y="-1112.3" font-family="Arial Bold" font-size="18.00" fill="#000000">public.contributions</text>
<text text-anchor="start" x="2097.8888" y="-1112.3" font-family="Arial" font-size="14.00" fill="#000000"> </text>
<text text-anchor="start" x="2101.7794" y="-1112.3" font-family="Arial" font-size="14.00" fill="#666666">[BASE TABLE]</text>
<polygon fill="none" stroke="#000000" points="1920,-1069.5 1920,-1099.5 2219,-1099.5 2219,-1069.5 1920,-1069.5"/>
<text text-anchor="start" x="1927" y="-1080.9" font-family="Arial" font-size="14.00" fill="#000000">id </text>
<text text-anchor="start" x="1941.7798" y="-1080.9" font-family="Arial" font-size="14.00" fill="#666666">[bigint]</text>
<polygon fill="none" stroke="#000000" points="1920,-1039.5 1920,-1069.5 2219,-1069.5 2219,-1039.5 1920,-1039.5"/>
<text text-anchor="start" x="1927" y="-1050.9" font-family="Arial" font-size="14.00" fill="#000000">repo_id </text>
<text text-anchor="start" x="1977.5708" y="-1050.9" font-family="Arial" font-size="14.00" fill="#666666">[bigint]</text>
<polygon fill="none" stroke="#000000" points="1920,-1009.5 1920,-1039.5 2219,-1039.5 2219,-1009.5 1920,-1009.5"/>
<text text-anchor="start" x="1927" y="-1020.9" font-family="Arial" font-size="14.00" fill="#000000">count </text>
<text text-anchor="start" x="1965.129" y="-1020.9" font-family="Arial" font-size="14.00" fill="#666666">[bigint]</text>
<polygon fill="none" stroke="#000000" points="1920,-979.5 1920,-1009.5 2219,-1009.5 2219,-979.5 1920,-979.5"/>
<text text-anchor="start" x="1926.7497" y="-990.9" font-family="Arial" font-size="14.00" fill="#000000">last_merged_at </text>
<text text-anchor="start" x="2027.1101" y="-990.9" font-family="Arial" font-size="14.00" fill="#666666">[timestamp without time zone]</text>
<polygon fill="none" stroke="#000000" points="1920,-949.5 1920,-979.5 2219,-979.5 2219,-949.5 1920,-949.5"/>
<text text-anchor="start" x="1927" y="-960.9" font-family="Arial" font-size="14.00" fill="#000000">contributor </text>
<text text-anchor="start" x="1997.0126" y="-960.9" font-family="Arial" font-size="14.00" fill="#666666">[varchar(255)]</text>
<polygon fill="none" stroke="#000000" points="1920,-919.5 1920,-949.5 2219,-949.5 2219,-919.5 1920,-919.5"/>
<text text-anchor="start" x="1927" y="-930.9" font-family="Arial" font-size="14.00" fill="#000000">url </text>
<text text-anchor="start" x="1946.4404" y="-930.9" font-family="Arial" font-size="14.00" fill="#666666">[varchar(255)]</text>
<polygon fill="none" stroke="#000000" points="1920,-889.5 1920,-919.5 2219,-919.5 2219,-889.5 1920,-889.5"/>
<text text-anchor="start" x="1927" y="-900.9" font-family="Arial" font-size="14.00" fill="#000000">deleted_at </text>
<text text-anchor="start" x="1996.2566" y="-900.9" font-family="Arial" font-size="14.00" fill="#666666">[timestamp with time zone]</text>
<polygon fill="none" stroke="#000000" points="1920,-859.5 1920,-889.5 2219,-889.5 2219,-859.5 1920,-859.5"/>
<text text-anchor="start" x="1927" y="-870.9" font-family="Arial" font-size="14.00" fill="#000000">updated_at </text>
<text text-anchor="start" x="2000.9326" y="-870.9" font-family="Arial" font-size="14.00" fill="#666666">[timestamp with time zone]</text>
<polygon fill="none" stroke="#000000" points="1920,-829.5 1920,-859.5 2219,-859.5 2219,-829.5 1920,-829.5"/>
<text text-anchor="start" x="1927" y="-840.9" font-family="Arial" font-size="14.00" fill="#000000">created_at </text>
<text text-anchor="start" x="1997.028" y="-840.9" font-family="Arial" font-size="14.00" fill="#666666">[timestamp with time zone]</text>
</g>
<!-- public.contributions&#45;&gt;public.repos -->
<g id="edge6" class="edge">
<title>public.contributions:repo_id&#45;&gt;public.repos:id</title>
<path fill="none" stroke="#000000" d="M1909.7281,-1054.0142C1807.7548,-1043.7206 1947.7311,-872.4165 1867,-787 1787.7168,-703.1155 1479.4228,-657.5 1364,-657.5"/>
<polygon fill="#000000" stroke="#000000" points="1910.0112,-1054.0275 1919.7874,-1058.995 1915.0056,-1054.2638 1920,-1054.5 1920,-1054.5 1920,-1054.5 1915.0056,-1054.2638 1920.2126,-1050.005 1910.0112,-1054.0275 1910.0112,-1054.0275"/>
<text text-anchor="start" x="1867.2755" y="-1038.5" font-family="Arial" font-size="10.00" fill="#000000">FOREIGN KEY (repo_id) REFERENCES repos(id)</text>
</g>
</g>
</svg>
