<?xml version="1.0" encoding="UTF-8" standalone="no"?>
<!DOCTYPE svg PUBLIC "-//W3C//DTD SVG 1.1//EN"
 "http://www.w3.org/Graphics/SVG/1.1/DTD/svg11.dtd">
<!-- Generated by graphviz version 2.40.1 (20161225.0304)
 -->
<!-- Title: public.subscriptions Pages: 1 -->
<svg width="428pt" height="585pt"
 viewBox="0.00 0.00 428.00 585.00" xmlns="http://www.w3.org/2000/svg" xmlns:xlink="http://www.w3.org/1999/xlink">
<g id="graph0" class="graph" transform="scale(1 1) rotate(0) translate(4 581)">
<title>public.subscriptions</title>
<polygon fill="#ffffff" stroke="transparent" points="-4,4 -4,-581 424,-581 424,4 -4,4"/>
<!-- public.subscriptions -->
<g id="node1" class="node">
<title>public.subscriptions</title>
<polygon fill="#efefef" stroke="transparent" points="46,-495.5 46,-530.5 374,-530.5 374,-495.5 46,-495.5"/>
<polygon fill="none" stroke="#000000" points="46,-495.5 46,-530.5 374,-530.5 374,-495.5 46,-495.5"/>
<text text-anchor="start" x="82.8616" y="-508.3" font-family="Arial Bold" font-size="18.00" fill="#000000">public.subscriptions</text>
<text text-anchor="start" x="239.8846" y="-508.3" font-family="Arial" font-size="14.00" fill="#000000"> </text>
<text text-anchor="start" x="243.7752" y="-508.3" font-family="Arial" font-size="14.00" fill="#666666">[BASE TABLE]</text>
<polygon fill="none" stroke="#000000" points="46,-465.5 46,-495.5 374,-495.5 374,-465.5 46,-465.5"/>
<text text-anchor="start" x="53" y="-476.9" font-family="Arial" font-size="14.00" fill="#000000">id </text>
<text text-anchor="start" x="67.7798" y="-476.9" font-family="Arial" font-size="14.00" fill="#666666">[text]</text>
<polygon fill="none" stroke="#000000" points="46,-435.5 46,-465.5 374,-465.5 374,-435.5 46,-435.5"/>
<text text-anchor="start" x="53" y="-446.9" font-family="Arial" font-size="14.00" fill="#000000">user_id </text>
<text text-anchor="start" x="102.7882" y="-446.9" font-family="Arial" font-size="14.00" fill="#666666">[bigint]</text>
<polygon fill="none" stroke="#000000" points="46,-405.5 46,-435.5 374,-435.5 374,-405.5 46,-405.5"/>
<text text-anchor="start" x="53" y="-416.9" font-family="Arial" font-size="14.00" fill="#000000">metadata </text>
<text text-anchor="start" x="115.2454" y="-416.9" font-family="Arial" font-size="14.00" fill="#666666">[jsonb]</text>
<polygon fill="none" stroke="#000000" points="46,-375.5 46,-405.5 374,-405.5 374,-375.5 46,-375.5"/>
<text text-anchor="start" x="53" y="-386.9" font-family="Arial" font-size="14.00" fill="#000000">price_id </text>
<text text-anchor="start" x="105.8948" y="-386.9" font-family="Arial" font-size="14.00" fill="#666666">[text]</text>
<polygon fill="none" stroke="#000000" points="46,-345.5 46,-375.5 374,-375.5 374,-345.5 46,-345.5"/>
<text text-anchor="start" x="53" y="-356.9" font-family="Arial" font-size="14.00" fill="#000000">quantity </text>
<text text-anchor="start" x="105.9088" y="-356.9" font-family="Arial" font-size="14.00" fill="#666666">[integer]</text>
<polygon fill="none" stroke="#000000" points="46,-315.5 46,-345.5 374,-345.5 374,-315.5 46,-315.5"/>
<text text-anchor="start" x="53" y="-326.9" font-family="Arial" font-size="14.00" fill="#000000">cancel_at_period_end </text>
<text text-anchor="start" x="194.6114" y="-326.9" font-family="Arial" font-size="14.00" fill="#666666">[boolean]</text>
<polygon fill="none" stroke="#000000" points="46,-285.5 46,-315.5 374,-315.5 374,-285.5 46,-285.5"/>
<text text-anchor="start" x="53" y="-296.9" font-family="Arial" font-size="14.00" fill="#000000">created_at </text>
<text text-anchor="start" x="123.028" y="-296.9" font-family="Arial" font-size="14.00" fill="#666666">[timestamp with time zone]</text>
<polygon fill="none" stroke="#000000" points="46,-255.5 46,-285.5 374,-285.5 374,-255.5 46,-255.5"/>
<text text-anchor="start" x="52.8612" y="-266.9" font-family="Arial" font-size="14.00" fill="#000000">current_period_start_at </text>
<text text-anchor="start" x="201.4544" y="-266.9" font-family="Arial" font-size="14.00" fill="#666666">[timestamp with time zone]</text>
<polygon fill="none" stroke="#000000" points="46,-225.5 46,-255.5 374,-255.5 374,-225.5 46,-225.5"/>
<text text-anchor="start" x="53" y="-236.9" font-family="Arial" font-size="14.00" fill="#000000">current_period_end_at </text>
<text text-anchor="start" x="197.7166" y="-236.9" font-family="Arial" font-size="14.00" fill="#666666">[timestamp with time zone]</text>
<polygon fill="none" stroke="#000000" points="46,-195.5 46,-225.5 374,-225.5 374,-195.5 46,-195.5"/>
<text text-anchor="start" x="53" y="-206.9" font-family="Arial" font-size="14.00" fill="#000000">ended_at </text>
<text text-anchor="start" x="115.2594" y="-206.9" font-family="Arial" font-size="14.00" fill="#666666">[timestamp with time zone]</text>
<polygon fill="none" stroke="#000000" points="46,-165.5 46,-195.5 374,-195.5 374,-165.5 46,-165.5"/>
<text text-anchor="start" x="53" y="-176.9" font-family="Arial" font-size="14.00" fill="#000000">cancel_at </text>
<text text-anchor="start" x="116.8008" y="-176.9" font-family="Arial" font-size="14.00" fill="#666666">[timestamp with time zone]</text>
<polygon fill="none" stroke="#000000" points="46,-135.5 46,-165.5 374,-165.5 374,-135.5 46,-135.5"/>
<text text-anchor="start" x="53" y="-146.9" font-family="Arial" font-size="14.00" fill="#000000">canceled_at </text>
<text text-anchor="start" x="132.366" y="-146.9" font-family="Arial" font-size="14.00" fill="#666666">[timestamp with time zone]</text>
<polygon fill="none" stroke="#000000" points="46,-105.5 46,-135.5 374,-135.5 374,-105.5 46,-105.5"/>
<text text-anchor="start" x="53" y="-116.9" font-family="Arial" font-size="14.00" fill="#000000">trial_start_at </text>
<text text-anchor="start" x="133.9004" y="-116.9" font-family="Arial" font-size="14.00" fill="#666666">[timestamp with time zone]</text>
<polygon fill="none" stroke="#000000" points="46,-75.5 46,-105.5 374,-105.5 374,-75.5 46,-75.5"/>
<text text-anchor="start" x="53" y="-86.9" font-family="Arial" font-size="14.00" fill="#000000">trial_end_at </text>
<text text-anchor="start" x="130.0238" y="-86.9" font-family="Arial" font-size="14.00" fill="#666666">[timestamp with time zone]</text>
<polygon fill="none" stroke="#000000" points="46,-45.5 46,-75.5 374,-75.5 374,-45.5 46,-45.5"/>
<text text-anchor="start" x="53" y="-56.9" font-family="Arial" font-size="14.00" fill="#000000">status </text>
<text text-anchor="start" x="94.237" y="-56.9" font-family="Arial" font-size="14.00" fill="#666666">[varchar(255)]</text>
<polygon fill="none" stroke="#000000" stroke-width="3" points="44.5,-44.5 44.5,-532.5 375.5,-532.5 375.5,-44.5 44.5,-44.5"/>
</g>
</g>
</svg>
