<?xml version="1.0" encoding="UTF-8" standalone="no"?>
<!DOCTYPE svg PUBLIC "-//W3C//DTD SVG 1.1//EN"
 "http://www.w3.org/Graphics/SVG/1.1/DTD/svg11.dtd">
<!-- Generated by graphviz version 2.40.1 (20161225.0304)
 -->
<!-- Title: public.users_to_repos_submissions Pages: 1 -->
<svg width="2270pt" height="1816pt"
 viewBox="0.00 0.00 2269.50 1816.00" xmlns="http://www.w3.org/2000/svg" xmlns:xlink="http://www.w3.org/1999/xlink">
<g id="graph0" class="graph" transform="scale(1 1) rotate(0) translate(4 1812)">
<title>public.users_to_repos_submissions</title>
<polygon fill="#ffffff" stroke="transparent" points="-4,4 -4,-1812 2265.5,-1812 2265.5,4 -4,4"/>
<!-- public.users_to_repos_submissions -->
<g id="node1" class="node">
<title>public.users_to_repos_submissions</title>
<polygon fill="#efefef" stroke="transparent" points="1416,-1699.5 1416,-1734.5 1812,-1734.5 1812,-1699.5 1416,-1699.5"/>
<polygon fill="none" stroke="#000000" points="1416,-1699.5 1416,-1734.5 1812,-1734.5 1812,-1699.5 1416,-1699.5"/>
<text text-anchor="start" x="1422.8446" y="-1712.3" font-family="Arial Bold" font-size="18.00" fill="#000000">public.users_to_repos_submissions</text>
<text text-anchor="start" x="1707.9016" y="-1712.3" font-family="Arial" font-size="14.00" fill="#000000"> </text>
<text text-anchor="start" x="1711.7922" y="-1712.3" font-family="Arial" font-size="14.00" fill="#666666">[BASE TABLE]</text>
<polygon fill="none" stroke="#000000" points="1416,-1669.5 1416,-1699.5 1812,-1699.5 1812,-1669.5 1416,-1669.5"/>
<text text-anchor="start" x="1423" y="-1680.9" font-family="Arial" font-size="14.00" fill="#000000">id </text>
<text text-anchor="start" x="1437.7798" y="-1680.9" font-family="Arial" font-size="14.00" fill="#666666">[bigint]</text>
<polygon fill="none" stroke="#000000" points="1416,-1639.5 1416,-1669.5 1812,-1669.5 1812,-1639.5 1416,-1639.5"/>
<text text-anchor="start" x="1423" y="-1650.9" font-family="Arial" font-size="14.00" fill="#000000">user_id </text>
<text text-anchor="start" x="1472.7882" y="-1650.9" font-family="Arial" font-size="14.00" fill="#666666">[bigint]</text>
<polygon fill="none" stroke="#000000" points="1416,-1609.5 1416,-1639.5 1812,-1639.5 1812,-1609.5 1416,-1609.5"/>
<text text-anchor="start" x="1423" y="-1620.9" font-family="Arial" font-size="14.00" fill="#000000">repo_id </text>
<text text-anchor="start" x="1473.5708" y="-1620.9" font-family="Arial" font-size="14.00" fill="#666666">[bigint]</text>
<polygon fill="none" stroke="#000000" points="1416,-1579.5 1416,-1609.5 1812,-1609.5 1812,-1579.5 1416,-1579.5"/>
<text text-anchor="start" x="1423" y="-1590.9" font-family="Arial" font-size="14.00" fill="#000000">created_at </text>
<text text-anchor="start" x="1493.028" y="-1590.9" font-family="Arial" font-size="14.00" fill="#666666">[timestamp with time zone]</text>
<polygon fill="none" stroke="#000000" points="1416,-1549.5 1416,-1579.5 1812,-1579.5 1812,-1549.5 1416,-1549.5"/>
<text text-anchor="start" x="1423" y="-1560.9" font-family="Arial" font-size="14.00" fill="#000000">updated_at </text>
<text text-anchor="start" x="1496.9326" y="-1560.9" font-family="Arial" font-size="14.00" fill="#666666">[timestamp with time zone]</text>
<polygon fill="none" stroke="#000000" points="1416,-1519.5 1416,-1549.5 1812,-1549.5 1812,-1519.5 1416,-1519.5"/>
<text text-anchor="start" x="1423" y="-1530.9" font-family="Arial" font-size="14.00" fill="#000000">deleted_at </text>
<text text-anchor="start" x="1492.2566" y="-1530.9" font-family="Arial" font-size="14.00" fill="#666666">[timestamp with time zone]</text>
<polygon fill="none" stroke="#000000" points="1416,-1489.5 1416,-1519.5 1812,-1519.5 1812,-1489.5 1416,-1489.5"/>
<text text-anchor="start" x="1423" y="-1500.9" font-family="Arial" font-size="14.00" fill="#000000">is_accepted </text>
<text text-anchor="start" x="1501.5834" y="-1500.9" font-family="Arial" font-size="14.00" fill="#666666">[boolean]</text>
<polygon fill="none" stroke="#000000" stroke-width="3" points="1414.5,-1488.5 1414.5,-1736.5 1813.5,-1736.5 1813.5,-1488.5 1414.5,-1488.5"/>
</g>
<!-- public.users -->
<g id="node2" class="node">
<title>public.users</title>
<polygon fill="#efefef" stroke="transparent" points="550,-972.5 550,-1007.5 803,-1007.5 803,-972.5 550,-972.5"/>
<polygon fill="none" stroke="#000000" points="550,-972.5 550,-1007.5 803,-1007.5 803,-972.5 550,-972.5"/>
<text text-anchor="start" x="579.8662" y="-985.3" font-family="Arial Bold" font-size="18.00" fill="#000000">public.users</text>
<text text-anchor="start" x="675.88" y="-985.3" font-family="Arial" font-size="14.00" fill="#000000"> </text>
<text text-anchor="start" x="679.7706" y="-985.3" font-family="Arial" font-size="14.00" fill="#666666">[BASE TABLE]</text>
<polygon fill="none" stroke="#000000" points="550,-942.5 550,-972.5 803,-972.5 803,-942.5 550,-942.5"/>
<text text-anchor="start" x="557" y="-953.9" font-family="Arial" font-size="14.00" fill="#000000">id </text>
<text text-anchor="start" x="571.7798" y="-953.9" font-family="Arial" font-size="14.00" fill="#666666">[bigint]</text>
<polygon fill="none" stroke="#000000" points="550,-912.5 550,-942.5 803,-942.5 803,-912.5 550,-912.5"/>
<text text-anchor="start" x="557" y="-923.9" font-family="Arial" font-size="14.00" fill="#000000">open_issues </text>
<text text-anchor="start" x="639.4754" y="-923.9" font-family="Arial" font-size="14.00" fill="#666666">[bigint]</text>
<polygon fill="none" stroke="#000000" points="550,-882.5 550,-912.5 803,-912.5 803,-882.5 550,-882.5"/>
<text text-anchor="start" x="557" y="-893.9" font-family="Arial" font-size="14.00" fill="#000000">has_stars_data </text>
<text text-anchor="start" x="656.5932" y="-893.9" font-family="Arial" font-size="14.00" fill="#666666">[boolean]</text>
<polygon fill="none" stroke="#000000" points="550,-852.5 550,-882.5 803,-882.5 803,-852.5 550,-852.5"/>
<text text-anchor="start" x="557" y="-863.9" font-family="Arial" font-size="14.00" fill="#000000">is_private </text>
<text text-anchor="start" x="620.7854" y="-863.9" font-family="Arial" font-size="14.00" fill="#666666">[boolean]</text>
<polygon fill="none" stroke="#000000" points="550,-822.5 550,-852.5 803,-852.5 803,-822.5 550,-822.5"/>
<text text-anchor="start" x="557" y="-833.9" font-family="Arial" font-size="14.00" fill="#000000">is_open_sauced_member </text>
<text text-anchor="start" x="721.9354" y="-833.9" font-family="Arial" font-size="14.00" fill="#666666">[boolean]</text>
<polygon fill="none" stroke="#000000" points="550,-792.5 550,-822.5 803,-822.5 803,-792.5 550,-792.5"/>
<text text-anchor="start" x="557" y="-803.9" font-family="Arial" font-size="14.00" fill="#000000">created_at </text>
<text text-anchor="start" x="627.028" y="-803.9" font-family="Arial" font-size="14.00" fill="#666666">[timestamp with time zone]</text>
<polygon fill="none" stroke="#000000" points="550,-762.5 550,-792.5 803,-792.5 803,-762.5 550,-762.5"/>
<text text-anchor="start" x="557" y="-773.9" font-family="Arial" font-size="14.00" fill="#000000">login </text>
<text text-anchor="start" x="590.4516" y="-773.9" font-family="Arial" font-size="14.00" fill="#666666">[varchar(255)]</text>
<polygon fill="none" stroke="#000000" points="550,-732.5 550,-762.5 803,-762.5 803,-732.5 550,-732.5"/>
<text text-anchor="start" x="557" y="-743.9" font-family="Arial" font-size="14.00" fill="#000000">deleted_at </text>
<text text-anchor="start" x="626.2566" y="-743.9" font-family="Arial" font-size="14.00" fill="#666666">[timestamp with time zone]</text>
<polygon fill="none" stroke="#000000" points="550,-702.5 550,-732.5 803,-732.5 803,-702.5 550,-702.5"/>
<text text-anchor="start" x="556.6915" y="-713.9" font-family="Arial" font-size="14.00" fill="#000000">updated_at </text>
<text text-anchor="start" x="630.6241" y="-713.9" font-family="Arial" font-size="14.00" fill="#666666">[timestamp with time zone]</text>
<polygon fill="none" stroke="#000000" points="550,-672.5 550,-702.5 803,-702.5 803,-672.5 550,-672.5"/>
<text text-anchor="start" x="557" y="-683.9" font-family="Arial" font-size="14.00" fill="#000000">is_onboarded </text>
<text text-anchor="start" x="645.7012" y="-683.9" font-family="Arial" font-size="14.00" fill="#666666">[boolean]</text>
<polygon fill="none" stroke="#000000" points="550,-642.5 550,-672.5 803,-672.5 803,-642.5 550,-642.5"/>
<text text-anchor="start" x="557" y="-653.9" font-family="Arial" font-size="14.00" fill="#000000">role </text>
<text text-anchor="start" x="584.223" y="-653.9" font-family="Arial" font-size="14.00" fill="#666666">[bigint]</text>
<polygon fill="none" stroke="#000000" points="550,-612.5 550,-642.5 803,-642.5 803,-612.5 550,-612.5"/>
<text text-anchor="start" x="557" y="-623.9" font-family="Arial" font-size="14.00" fill="#000000">is_waitlisted </text>
<text text-anchor="start" x="636.3352" y="-623.9" font-family="Arial" font-size="14.00" fill="#666666">[boolean]</text>
<polygon fill="none" stroke="#000000" points="550,-582.5 550,-612.5 803,-612.5 803,-582.5 550,-582.5"/>
<text text-anchor="start" x="557" y="-593.9" font-family="Arial" font-size="14.00" fill="#000000">email </text>
<text text-anchor="start" x="594.3296" y="-593.9" font-family="Arial" font-size="14.00" fill="#666666">[varchar(255)]</text>
<polygon fill="none" stroke="#000000" points="550,-552.5 550,-582.5 803,-582.5 803,-552.5 550,-552.5"/>
<text text-anchor="start" x="557" y="-563.9" font-family="Arial" font-size="14.00" fill="#000000">bio </text>
<text text-anchor="start" x="579.5624" y="-563.9" font-family="Arial" font-size="14.00" fill="#666666">[varchar(255)]</text>
<polygon fill="none" stroke="#000000" points="550,-522.5 550,-552.5 803,-552.5 803,-522.5 550,-522.5"/>
<text text-anchor="start" x="557" y="-533.9" font-family="Arial" font-size="14.00" fill="#000000">name </text>
<text text-anchor="start" x="595.899" y="-533.9" font-family="Arial" font-size="14.00" fill="#666666">[varchar(100)]</text>
<polygon fill="none" stroke="#000000" points="550,-492.5 550,-522.5 803,-522.5 803,-492.5 550,-492.5"/>
<text text-anchor="start" x="557" y="-503.9" font-family="Arial" font-size="14.00" fill="#000000">twitter_username </text>
<text text-anchor="start" x="668.2356" y="-503.9" font-family="Arial" font-size="14.00" fill="#666666">[varchar(15)]</text>
<polygon fill="none" stroke="#000000" points="550,-462.5 550,-492.5 803,-492.5 803,-462.5 550,-462.5"/>
<text text-anchor="start" x="557" y="-473.9" font-family="Arial" font-size="14.00" fill="#000000">company </text>
<text text-anchor="start" x="617.6816" y="-473.9" font-family="Arial" font-size="14.00" fill="#666666">[varchar(50)]</text>
<polygon fill="none" stroke="#000000" points="550,-432.5 550,-462.5 803,-462.5 803,-432.5 550,-432.5"/>
<text text-anchor="start" x="557" y="-443.9" font-family="Arial" font-size="14.00" fill="#000000">location </text>
<text text-anchor="start" x="609.1248" y="-443.9" font-family="Arial" font-size="14.00" fill="#666666">[varchar(50)]</text>
<polygon fill="none" stroke="#000000" points="550,-402.5 550,-432.5 803,-432.5 803,-402.5 550,-402.5"/>
<text text-anchor="start" x="557" y="-413.9" font-family="Arial" font-size="14.00" fill="#000000">display_local_time </text>
<text text-anchor="start" x="675.2356" y="-413.9" font-family="Arial" font-size="14.00" fill="#666666">[boolean]</text>
<polygon fill="none" stroke="#000000" points="550,-372.5 550,-402.5 803,-402.5 803,-372.5 550,-372.5"/>
<text text-anchor="start" x="557" y="-383.9" font-family="Arial" font-size="14.00" fill="#000000">timezone </text>
<text text-anchor="start" x="617.6788" y="-383.9" font-family="Arial" font-size="14.00" fill="#666666">[varchar(30)]</text>
</g>
<!-- public.users_to_repos_submissions&#45;&gt;public.users -->
<g id="edge1" class="edge">
<title>public.users_to_repos_submissions:user_id&#45;&gt;public.users:id</title>
<path fill="none" stroke="#000000" d="M1405.9973,-1653.9574C1316.4156,-1643.5183 1440.5205,-1485.1862 1361,-1417 1279.2935,-1346.9394 957.8471,-1453.1726 878,-1381 736.1928,-1252.8226 994.151,-957.5 803,-957.5"/>
<polygon fill="#000000" stroke="#000000" points="1406.0147,-1653.9583 1415.7562,-1658.9934 1411.0073,-1654.2291 1416,-1654.5 1416,-1654.5 1416,-1654.5 1411.0073,-1654.2291 1416.2438,-1650.0066 1406.0147,-1653.9583 1406.0147,-1653.9583"/>
<text text-anchor="start" x="1186.3345" y="-1664.5" font-family="Arial" font-size="10.00" fill="#000000">FOREIGN KEY (user_id) REFERENCES users(id)</text>
</g>
<!-- public.repos -->
<g id="node6" class="node">
<title>public.repos</title>
<polygon fill="#efefef" stroke="transparent" points="930,-1302.5 930,-1337.5 1308,-1337.5 1308,-1302.5 930,-1302.5"/>
<polygon fill="none" stroke="#000000" points="930,-1302.5 930,-1337.5 1308,-1337.5 1308,-1302.5 930,-1302.5"/>
<text text-anchor="start" x="1021.8631" y="-1315.3" font-family="Arial Bold" font-size="18.00" fill="#000000">public.repos</text>
<text text-anchor="start" x="1118.8831" y="-1315.3" font-family="Arial" font-size="14.00" fill="#000000"> </text>
<text text-anchor="start" x="1122.7737" y="-1315.3" font-family="Arial" font-size="14.00" fill="#666666">[BASE TABLE]</text>
<polygon fill="none" stroke="#000000" points="930,-1272.5 930,-1302.5 1308,-1302.5 1308,-1272.5 930,-1272.5"/>
<text text-anchor="start" x="937" y="-1283.9" font-family="Arial" font-size="14.00" fill="#000000">id </text>
<text text-anchor="start" x="951.7798" y="-1283.9" font-family="Arial" font-size="14.00" fill="#666666">[bigint]</text>
<polygon fill="none" stroke="#000000" points="930,-1242.5 930,-1272.5 1308,-1272.5 1308,-1242.5 930,-1242.5"/>
<text text-anchor="start" x="937" y="-1253.9" font-family="Arial" font-size="14.00" fill="#000000">user_id </text>
<text text-anchor="start" x="986.7882" y="-1253.9" font-family="Arial" font-size="14.00" fill="#666666">[bigint]</text>
<polygon fill="none" stroke="#000000" points="930,-1212.5 930,-1242.5 1308,-1242.5 1308,-1212.5 930,-1212.5"/>
<text text-anchor="start" x="937" y="-1223.9" font-family="Arial" font-size="14.00" fill="#000000">issues </text>
<text text-anchor="start" x="980.5624" y="-1223.9" font-family="Arial" font-size="14.00" fill="#666666">[bigint]</text>
<polygon fill="none" stroke="#000000" points="930,-1182.5 930,-1212.5 1308,-1212.5 1308,-1182.5 930,-1182.5"/>
<text text-anchor="start" x="937" y="-1193.9" font-family="Arial" font-size="14.00" fill="#000000">stars </text>
<text text-anchor="start" x="971.2244" y="-1193.9" font-family="Arial" font-size="14.00" fill="#666666">[bigint]</text>
<polygon fill="none" stroke="#000000" points="930,-1152.5 930,-1182.5 1308,-1182.5 1308,-1152.5 930,-1152.5"/>
<text text-anchor="start" x="937" y="-1163.9" font-family="Arial" font-size="14.00" fill="#000000">watchers </text>
<text text-anchor="start" x="996.8962" y="-1163.9" font-family="Arial" font-size="14.00" fill="#666666">[bigint]</text>
<polygon fill="none" stroke="#000000" points="930,-1122.5 930,-1152.5 1308,-1152.5 1308,-1122.5 930,-1122.5"/>
<text text-anchor="start" x="937" y="-1133.9" font-family="Arial" font-size="14.00" fill="#000000">subscribers </text>
<text text-anchor="start" x="1012.4488" y="-1133.9" font-family="Arial" font-size="14.00" fill="#666666">[bigint]</text>
<polygon fill="none" stroke="#000000" points="930,-1092.5 930,-1122.5 1308,-1122.5 1308,-1092.5 930,-1092.5"/>
<text text-anchor="start" x="937" y="-1103.9" font-family="Arial" font-size="14.00" fill="#000000">is_fork </text>
<text text-anchor="start" x="982.1136" y="-1103.9" font-family="Arial" font-size="14.00" fill="#666666">[boolean]</text>
<polygon fill="none" stroke="#000000" points="930,-1062.5 930,-1092.5 1308,-1092.5 1308,-1062.5 930,-1062.5"/>
<text text-anchor="start" x="937" y="-1073.9" font-family="Arial" font-size="14.00" fill="#000000">created_at </text>
<text text-anchor="start" x="1007.028" y="-1073.9" font-family="Arial" font-size="14.00" fill="#666666">[timestamp without time zone]</text>
<polygon fill="none" stroke="#000000" points="930,-1032.5 930,-1062.5 1308,-1062.5 1308,-1032.5 930,-1032.5"/>
<text text-anchor="start" x="937" y="-1043.9" font-family="Arial" font-size="14.00" fill="#000000">updated_at </text>
<text text-anchor="start" x="1010.9326" y="-1043.9" font-family="Arial" font-size="14.00" fill="#666666">[timestamp without time zone]</text>
<polygon fill="none" stroke="#000000" points="930,-1002.5 930,-1032.5 1308,-1032.5 1308,-1002.5 930,-1002.5"/>
<text text-anchor="start" x="937" y="-1013.9" font-family="Arial" font-size="14.00" fill="#000000">pushed_at </text>
<text text-anchor="start" x="1006.2594" y="-1013.9" font-family="Arial" font-size="14.00" fill="#666666">[timestamp without time zone]</text>
<polygon fill="none" stroke="#000000" points="930,-972.5 930,-1002.5 1308,-1002.5 1308,-972.5 930,-972.5"/>
<text text-anchor="start" x="936.5674" y="-983.9" font-family="Arial" font-size="14.00" fill="#000000">last_fetched_contributors_at </text>
<text text-anchor="start" x="1116.2924" y="-983.9" font-family="Arial" font-size="14.00" fill="#666666">[timestamp without time zone]</text>
<polygon fill="none" stroke="#000000" points="930,-942.5 930,-972.5 1308,-972.5 1308,-942.5 930,-942.5"/>
<text text-anchor="start" x="937" y="-953.9" font-family="Arial" font-size="14.00" fill="#000000">name </text>
<text text-anchor="start" x="975.899" y="-953.9" font-family="Arial" font-size="14.00" fill="#666666">[varchar(255)]</text>
<polygon fill="none" stroke="#000000" points="930,-912.5 930,-942.5 1308,-942.5 1308,-912.5 930,-912.5"/>
<text text-anchor="start" x="937" y="-923.9" font-family="Arial" font-size="14.00" fill="#000000">full_name </text>
<text text-anchor="start" x="1001.568" y="-923.9" font-family="Arial" font-size="14.00" fill="#666666">[varchar(255)]</text>
<polygon fill="none" stroke="#000000" points="930,-882.5 930,-912.5 1308,-912.5 1308,-882.5 930,-882.5"/>
<text text-anchor="start" x="937" y="-893.9" font-family="Arial" font-size="14.00" fill="#000000">description </text>
<text text-anchor="start" x="1008.568" y="-893.9" font-family="Arial" font-size="14.00" fill="#666666">[text]</text>
<polygon fill="none" stroke="#000000" points="930,-852.5 930,-882.5 1308,-882.5 1308,-852.5 930,-852.5"/>
<text text-anchor="start" x="937" y="-863.9" font-family="Arial" font-size="14.00" fill="#000000">language </text>
<text text-anchor="start" x="998.4754" y="-863.9" font-family="Arial" font-size="14.00" fill="#666666">[varchar(64)]</text>
<polygon fill="none" stroke="#000000" points="930,-822.5 930,-852.5 1308,-852.5 1308,-822.5 930,-822.5"/>
<text text-anchor="start" x="937" y="-833.9" font-family="Arial" font-size="14.00" fill="#000000">license </text>
<text text-anchor="start" x="984.4516" y="-833.9" font-family="Arial" font-size="14.00" fill="#666666">[varchar(64)]</text>
<polygon fill="none" stroke="#000000" points="930,-792.5 930,-822.5 1308,-822.5 1308,-792.5 930,-792.5"/>
<text text-anchor="start" x="937" y="-803.9" font-family="Arial" font-size="14.00" fill="#000000">url </text>
<text text-anchor="start" x="956.4404" y="-803.9" font-family="Arial" font-size="14.00" fill="#666666">[varchar(255)]</text>
<polygon fill="none" stroke="#000000" points="930,-762.5 930,-792.5 1308,-792.5 1308,-762.5 930,-762.5"/>
<text text-anchor="start" x="937" y="-773.9" font-family="Arial" font-size="14.00" fill="#000000">deleted_at </text>
<text text-anchor="start" x="1006.2566" y="-773.9" font-family="Arial" font-size="14.00" fill="#666666">[timestamp with time zone]</text>
<polygon fill="none" stroke="#000000" points="930,-732.5 930,-762.5 1308,-762.5 1308,-732.5 930,-732.5"/>
<text text-anchor="start" x="937" y="-743.9" font-family="Arial" font-size="14.00" fill="#000000">last_fetched_repos_at </text>
<text text-anchor="start" x="1078.6114" y="-743.9" font-family="Arial" font-size="14.00" fill="#666666">[timestamp without time zone]</text>
<polygon fill="none" stroke="#000000" points="930,-702.5 930,-732.5 1308,-732.5 1308,-702.5 930,-702.5"/>
<text text-anchor="start" x="937" y="-713.9" font-family="Arial" font-size="14.00" fill="#000000">last_fetched_prs_at </text>
<text text-anchor="start" x="1063.0462" y="-713.9" font-family="Arial" font-size="14.00" fill="#666666">[timestamp without time zone]</text>
<polygon fill="none" stroke="#000000" points="930,-672.5 930,-702.5 1308,-702.5 1308,-672.5 930,-672.5"/>
<text text-anchor="start" x="937" y="-683.9" font-family="Arial" font-size="14.00" fill="#000000">last_fetched_commits_at </text>
<text text-anchor="start" x="1095.704" y="-683.9" font-family="Arial" font-size="14.00" fill="#666666">[timestamp without time zone]</text>
<polygon fill="none" stroke="#000000" points="930,-642.5 930,-672.5 1308,-672.5 1308,-642.5 930,-642.5"/>
<text text-anchor="start" x="937" y="-653.9" font-family="Arial" font-size="14.00" fill="#000000">size </text>
<text text-anchor="start" x="965.7798" y="-653.9" font-family="Arial" font-size="14.00" fill="#666666">[bigint]</text>
<polygon fill="none" stroke="#000000" points="930,-612.5 930,-642.5 1308,-642.5 1308,-612.5 930,-612.5"/>
<text text-anchor="start" x="937" y="-623.9" font-family="Arial" font-size="14.00" fill="#000000">forks </text>
<text text-anchor="start" x="971.2244" y="-623.9" font-family="Arial" font-size="14.00" fill="#666666">[bigint]</text>
<polygon fill="none" stroke="#000000" points="930,-582.5 930,-612.5 1308,-612.5 1308,-582.5 930,-582.5"/>
<text text-anchor="start" x="937" y="-593.9" font-family="Arial" font-size="14.00" fill="#000000">network </text>
<text text-anchor="start" x="989.8962" y="-593.9" font-family="Arial" font-size="14.00" fill="#666666">[bigint]</text>
<polygon fill="none" stroke="#000000" points="930,-552.5 930,-582.5 1308,-582.5 1308,-552.5 930,-552.5"/>
<text text-anchor="start" x="937" y="-563.9" font-family="Arial" font-size="14.00" fill="#000000">is_private </text>
<text text-anchor="start" x="1000.7854" y="-563.9" font-family="Arial" font-size="14.00" fill="#666666">[boolean]</text>
<polygon fill="none" stroke="#000000" points="930,-522.5 930,-552.5 1308,-552.5 1308,-522.5 930,-522.5"/>
<text text-anchor="start" x="937" y="-533.9" font-family="Arial" font-size="14.00" fill="#000000">is_template </text>
<text text-anchor="start" x="1012.4586" y="-533.9" font-family="Arial" font-size="14.00" fill="#666666">[boolean]</text>
<polygon fill="none" stroke="#000000" points="930,-492.5 930,-522.5 1308,-522.5 1308,-492.5 930,-492.5"/>
<text text-anchor="start" x="937" y="-503.9" font-family="Arial" font-size="14.00" fill="#000000">is_archived </text>
<text text-anchor="start" x="1011.6774" y="-503.9" font-family="Arial" font-size="14.00" fill="#666666">[boolean]</text>
<polygon fill="none" stroke="#000000" points="930,-462.5 930,-492.5 1308,-492.5 1308,-462.5 930,-462.5"/>
<text text-anchor="start" x="937" y="-473.9" font-family="Arial" font-size="14.00" fill="#000000">is_disabled </text>
<text text-anchor="start" x="1010.906" y="-473.9" font-family="Arial" font-size="14.00" fill="#666666">[boolean]</text>
<polygon fill="none" stroke="#000000" points="930,-432.5 930,-462.5 1308,-462.5 1308,-432.5 930,-432.5"/>
<text text-anchor="start" x="937" y="-443.9" font-family="Arial" font-size="14.00" fill="#000000">has_issues </text>
<text text-anchor="start" x="1010.9102" y="-443.9" font-family="Arial" font-size="14.00" fill="#666666">[boolean]</text>
<polygon fill="none" stroke="#000000" points="930,-402.5 930,-432.5 1308,-432.5 1308,-402.5 930,-402.5"/>
<text text-anchor="start" x="937" y="-413.9" font-family="Arial" font-size="14.00" fill="#000000">has_projects </text>
<text text-anchor="start" x="1020.244" y="-413.9" font-family="Arial" font-size="14.00" fill="#666666">[boolean]</text>
<polygon fill="none" stroke="#000000" points="930,-372.5 930,-402.5 1308,-402.5 1308,-372.5 930,-372.5"/>
<text text-anchor="start" x="937" y="-383.9" font-family="Arial" font-size="14.00" fill="#000000">has_downloads </text>
<text text-anchor="start" x="1038.1472" y="-383.9" font-family="Arial" font-size="14.00" fill="#666666">[boolean]</text>
<polygon fill="none" stroke="#000000" points="930,-342.5 930,-372.5 1308,-372.5 1308,-342.5 930,-342.5"/>
<text text-anchor="start" x="937" y="-353.9" font-family="Arial" font-size="14.00" fill="#000000">has_wiki </text>
<text text-anchor="start" x="994.5582" y="-353.9" font-family="Arial" font-size="14.00" fill="#666666">[boolean]</text>
<polygon fill="none" stroke="#000000" points="930,-312.5 930,-342.5 1308,-342.5 1308,-312.5 930,-312.5"/>
<text text-anchor="start" x="937" y="-323.9" font-family="Arial" font-size="14.00" fill="#000000">has_pages </text>
<text text-anchor="start" x="1009.3688" y="-323.9" font-family="Arial" font-size="14.00" fill="#666666">[boolean]</text>
<polygon fill="none" stroke="#000000" points="930,-282.5 930,-312.5 1308,-312.5 1308,-282.5 930,-282.5"/>
<text text-anchor="start" x="937" y="-293.9" font-family="Arial" font-size="14.00" fill="#000000">has_discussions </text>
<text text-anchor="start" x="1043.582" y="-293.9" font-family="Arial" font-size="14.00" fill="#666666">[boolean]</text>
<polygon fill="none" stroke="#000000" points="930,-252.5 930,-282.5 1308,-282.5 1308,-252.5 930,-252.5"/>
<text text-anchor="start" x="937" y="-263.9" font-family="Arial" font-size="14.00" fill="#000000">default_branch </text>
<text text-anchor="start" x="1033.4824" y="-263.9" font-family="Arial" font-size="14.00" fill="#666666">[varchar(255)]</text>
<polygon fill="none" stroke="#000000" points="930,-222.5 930,-252.5 1308,-252.5 1308,-222.5 930,-222.5"/>
<text text-anchor="start" x="937" y="-233.9" font-family="Arial" font-size="14.00" fill="#000000">node_id </text>
<text text-anchor="start" x="990.6928" y="-233.9" font-family="Arial" font-size="14.00" fill="#666666">[varchar(255)]</text>
<polygon fill="none" stroke="#000000" points="930,-192.5 930,-222.5 1308,-222.5 1308,-192.5 930,-192.5"/>
<text text-anchor="start" x="937" y="-203.9" font-family="Arial" font-size="14.00" fill="#000000">git_url </text>
<text text-anchor="start" x="979.0028" y="-203.9" font-family="Arial" font-size="14.00" fill="#666666">[varchar(255)]</text>
<polygon fill="none" stroke="#000000" points="930,-162.5 930,-192.5 1308,-192.5 1308,-162.5 930,-162.5"/>
<text text-anchor="start" x="937" y="-173.9" font-family="Arial" font-size="14.00" fill="#000000">ssh_url </text>
<text text-anchor="start" x="986.0056" y="-173.9" font-family="Arial" font-size="14.00" fill="#666666">[varchar(255)]</text>
<polygon fill="none" stroke="#000000" points="930,-132.5 930,-162.5 1308,-162.5 1308,-132.5 930,-132.5"/>
<text text-anchor="start" x="937" y="-143.9" font-family="Arial" font-size="14.00" fill="#000000">clone_url </text>
<text text-anchor="start" x="997.6774" y="-143.9" font-family="Arial" font-size="14.00" fill="#666666">[varchar(255)]</text>
<polygon fill="none" stroke="#000000" points="930,-102.5 930,-132.5 1308,-132.5 1308,-102.5 930,-102.5"/>
<text text-anchor="start" x="937" y="-113.9" font-family="Arial" font-size="14.00" fill="#000000">svn_url </text>
<text text-anchor="start" x="986.0056" y="-113.9" font-family="Arial" font-size="14.00" fill="#666666">[varchar(255)]</text>
<polygon fill="none" stroke="#000000" points="930,-72.5 930,-102.5 1308,-102.5 1308,-72.5 930,-72.5"/>
<text text-anchor="start" x="937" y="-83.9" font-family="Arial" font-size="14.00" fill="#000000">mirror_url </text>
<text text-anchor="start" x="1000.7546" y="-83.9" font-family="Arial" font-size="14.00" fill="#666666">[varchar(255)]</text>
<polygon fill="none" stroke="#000000" points="930,-42.5 930,-72.5 1308,-72.5 1308,-42.5 930,-42.5"/>
<text text-anchor="start" x="937" y="-53.9" font-family="Arial" font-size="14.00" fill="#000000">homepage </text>
<text text-anchor="start" x="1007.0294" y="-53.9" font-family="Arial" font-size="14.00" fill="#666666">[varchar(255)]</text>
</g>
<!-- public.users_to_repos_submissions&#45;&gt;public.repos -->
<g id="edge5" class="edge">
<title>public.users_to_repos_submissions:repo_id&#45;&gt;public.repos:id</title>
<path fill="none" stroke="#000000" d="M1405.5642,-1623.9727C1325.9671,-1615.396 1390.1687,-1503.9161 1361,-1417 1341.214,-1358.0422 1370.1893,-1287.5 1308,-1287.5"/>
<polygon fill="#000000" stroke="#000000" points="1406.0127,-1623.9953 1415.7729,-1628.9943 1411.0064,-1624.2477 1416,-1624.5 1416,-1624.5 1416,-1624.5 1411.0064,-1624.2477 1416.2271,-1620.0057 1406.0127,-1623.9953 1406.0127,-1623.9953"/>
<text text-anchor="start" x="1184.7755" y="-1634.5" font-family="Arial" font-size="10.00" fill="#000000">FOREIGN KEY (repo_id) REFERENCES repos(id)</text>
</g>
<!-- public.users_to_repos_stars -->
<g id="node3" class="node">
<title>public.users_to_repos_stars</title>
<polygon fill="#efefef" stroke="transparent" points="43,-1684.5 43,-1719.5 379,-1719.5 379,-1684.5 43,-1684.5"/>
<polygon fill="none" stroke="#000000" points="43,-1684.5 43,-1719.5 379,-1719.5 379,-1684.5 43,-1684.5"/>
<text text-anchor="start" x="49.847" y="-1697.3" font-family="Arial Bold" font-size="18.00" fill="#000000">public.users_to_repos_stars</text>
<text text-anchor="start" x="274.8992" y="-1697.3" font-family="Arial" font-size="14.00" fill="#000000"> </text>
<text text-anchor="start" x="278.7898" y="-1697.3" font-family="Arial" font-size="14.00" fill="#666666">[BASE TABLE]</text>
<polygon fill="none" stroke="#000000" points="43,-1654.5 43,-1684.5 379,-1684.5 379,-1654.5 43,-1654.5"/>
<text text-anchor="start" x="50" y="-1665.9" font-family="Arial" font-size="14.00" fill="#000000">id </text>
<text text-anchor="start" x="64.7798" y="-1665.9" font-family="Arial" font-size="14.00" fill="#666666">[bigint]</text>
<polygon fill="none" stroke="#000000" points="43,-1624.5 43,-1654.5 379,-1654.5 379,-1624.5 43,-1624.5"/>
<text text-anchor="start" x="50" y="-1635.9" font-family="Arial" font-size="14.00" fill="#000000">user_id </text>
<text text-anchor="start" x="99.7882" y="-1635.9" font-family="Arial" font-size="14.00" fill="#666666">[bigint]</text>
<polygon fill="none" stroke="#000000" points="43,-1594.5 43,-1624.5 379,-1624.5 379,-1594.5 43,-1594.5"/>
<text text-anchor="start" x="50" y="-1605.9" font-family="Arial" font-size="14.00" fill="#000000">repo_id </text>
<text text-anchor="start" x="100.5708" y="-1605.9" font-family="Arial" font-size="14.00" fill="#666666">[bigint]</text>
<polygon fill="none" stroke="#000000" points="43,-1564.5 43,-1594.5 379,-1594.5 379,-1564.5 43,-1564.5"/>
<text text-anchor="start" x="50" y="-1575.9" font-family="Arial" font-size="14.00" fill="#000000">created_at </text>
<text text-anchor="start" x="120.028" y="-1575.9" font-family="Arial" font-size="14.00" fill="#666666">[timestamp with time zone]</text>
<polygon fill="none" stroke="#000000" points="43,-1534.5 43,-1564.5 379,-1564.5 379,-1534.5 43,-1534.5"/>
<text text-anchor="start" x="50" y="-1545.9" font-family="Arial" font-size="14.00" fill="#000000">updated_at </text>
<text text-anchor="start" x="123.9326" y="-1545.9" font-family="Arial" font-size="14.00" fill="#666666">[timestamp with time zone]</text>
<polygon fill="none" stroke="#000000" points="43,-1504.5 43,-1534.5 379,-1534.5 379,-1504.5 43,-1504.5"/>
<text text-anchor="start" x="50" y="-1515.9" font-family="Arial" font-size="14.00" fill="#000000">deleted_at </text>
<text text-anchor="start" x="119.2566" y="-1515.9" font-family="Arial" font-size="14.00" fill="#666666">[timestamp with time zone]</text>
</g>
<!-- public.users_to_repos_stars&#45;&gt;public.users -->
<g id="edge2" class="edge">
<title>public.users_to_repos_stars:user_id&#45;&gt;public.users:id</title>
<path fill="none" stroke="#000000" d="M388.8251,-1637.0345C428.3551,-1615.7567 419.7102,-1462.8367 431,-1417 481.4526,-1212.1623 339.0404,-957.5 550,-957.5"/>
<polygon fill="#000000" stroke="#000000" points="388.6993,-1637.066 377.9047,-1635.1353 383.8496,-1638.283 379,-1639.5 379,-1639.5 379,-1639.5 383.8496,-1638.283 380.0953,-1643.8647 388.6993,-1637.066 388.6993,-1637.066"/>
<text text-anchor="start" x="267.8345" y="-1623.5" font-family="Arial" font-size="10.00" fill="#000000">FOREIGN KEY (user_id) REFERENCES users(id)</text>
</g>
<!-- public.users_to_repos_stars&#45;&gt;public.repos -->
<g id="edge7" class="edge">
<title>public.users_to_repos_stars:repo_id&#45;&gt;public.repos:id</title>
<path fill="none" stroke="#000000" d="M389.3825,-1608.7655C458.9487,-1597.9853 365.9089,-1471.3745 431,-1417 503.4017,-1356.5186 770.61,-1425.1147 854,-1381 901.3362,-1355.9584 876.4481,-1287.5 930,-1287.5"/>
<polygon fill="#000000" stroke="#000000" points="388.9751,-1608.7942 378.6824,-1605.0112 383.9875,-1609.1471 379,-1609.5 379,-1609.5 379,-1609.5 383.9875,-1609.1471 379.3176,-1613.9888 388.9751,-1608.7942 388.9751,-1608.7942"/>
<text text-anchor="start" x="266.7755" y="-1593.5" font-family="Arial" font-size="10.00" fill="#000000">FOREIGN KEY (repo_id) REFERENCES repos(id)</text>
</g>
<!-- public.users_to_repos_votes -->
<g id="node4" class="node">
<title>public.users_to_repos_votes</title>
<polygon fill="#efefef" stroke="transparent" points="483,-1684.5 483,-1719.5 823,-1719.5 823,-1684.5 483,-1684.5"/>
<polygon fill="none" stroke="#000000" points="483,-1684.5 483,-1719.5 823,-1719.5 823,-1684.5 483,-1684.5"/>
<text text-anchor="start" x="489.84" y="-1697.3" font-family="Arial Bold" font-size="18.00" fill="#000000">public.users_to_repos_votes</text>
<text text-anchor="start" x="718.9062" y="-1697.3" font-family="Arial" font-size="14.00" fill="#000000"> </text>
<text text-anchor="start" x="722.7968" y="-1697.3" font-family="Arial" font-size="14.00" fill="#666666">[BASE TABLE]</text>
<polygon fill="none" stroke="#000000" points="483,-1654.5 483,-1684.5 823,-1684.5 823,-1654.5 483,-1654.5"/>
<text text-anchor="start" x="490" y="-1665.9" font-family="Arial" font-size="14.00" fill="#000000">id </text>
<text text-anchor="start" x="504.7798" y="-1665.9" font-family="Arial" font-size="14.00" fill="#666666">[bigint]</text>
<polygon fill="none" stroke="#000000" points="483,-1624.5 483,-1654.5 823,-1654.5 823,-1624.5 483,-1624.5"/>
<text text-anchor="start" x="490" y="-1635.9" font-family="Arial" font-size="14.00" fill="#000000">user_id </text>
<text text-anchor="start" x="539.7882" y="-1635.9" font-family="Arial" font-size="14.00" fill="#666666">[bigint]</text>
<polygon fill="none" stroke="#000000" points="483,-1594.5 483,-1624.5 823,-1624.5 823,-1594.5 483,-1594.5"/>
<text text-anchor="start" x="490" y="-1605.9" font-family="Arial" font-size="14.00" fill="#000000">repo_id </text>
<text text-anchor="start" x="540.5708" y="-1605.9" font-family="Arial" font-size="14.00" fill="#666666">[bigint]</text>
<polygon fill="none" stroke="#000000" points="483,-1564.5 483,-1594.5 823,-1594.5 823,-1564.5 483,-1564.5"/>
<text text-anchor="start" x="490" y="-1575.9" font-family="Arial" font-size="14.00" fill="#000000">created_at </text>
<text text-anchor="start" x="560.028" y="-1575.9" font-family="Arial" font-size="14.00" fill="#666666">[timestamp with time zone]</text>
<polygon fill="none" stroke="#000000" points="483,-1534.5 483,-1564.5 823,-1564.5 823,-1534.5 483,-1534.5"/>
<text text-anchor="start" x="490" y="-1545.9" font-family="Arial" font-size="14.00" fill="#000000">updated_at </text>
<text text-anchor="start" x="563.9326" y="-1545.9" font-family="Arial" font-size="14.00" fill="#666666">[timestamp with time zone]</text>
<polygon fill="none" stroke="#000000" points="483,-1504.5 483,-1534.5 823,-1534.5 823,-1504.5 483,-1504.5"/>
<text text-anchor="start" x="490" y="-1515.9" font-family="Arial" font-size="14.00" fill="#000000">deleted_at </text>
<text text-anchor="start" x="559.2566" y="-1515.9" font-family="Arial" font-size="14.00" fill="#666666">[timestamp with time zone]</text>
</g>
<!-- public.users_to_repos_votes&#45;&gt;public.users -->
<g id="edge3" class="edge">
<title>public.users_to_repos_votes:user_id&#45;&gt;public.users:id</title>
<path fill="none" stroke="#000000" d="M833.2213,-1638.841C896.7034,-1629.9978 844.7285,-1533.983 823,-1462 749.3265,-1217.9312 295.0542,-957.5 550,-957.5"/>
<polygon fill="#000000" stroke="#000000" points="832.9793,-1638.8565 822.7104,-1635.0093 827.9896,-1639.1783 823,-1639.5 823,-1639.5 823,-1639.5 827.9896,-1639.1783 823.2896,-1643.9907 832.9793,-1638.8565 832.9793,-1638.8565"/>
<text text-anchor="start" x="830.3345" y="-1649.5" font-family="Arial" font-size="10.00" fill="#000000">FOREIGN KEY (user_id) REFERENCES users(id)</text>
</g>
<!-- public.users_to_repos_votes&#45;&gt;public.repos -->
<g id="edge8" class="edge">
<title>public.users_to_repos_votes:repo_id&#45;&gt;public.repos:id</title>
<path fill="none" stroke="#000000" d="M833.1437,-1608.9604C906.4025,-1600.6221 847.2412,-1497.326 875,-1417 895.4242,-1357.8982 867.4686,-1287.5 930,-1287.5"/>
<polygon fill="#000000" stroke="#000000" points="832.9859,-1608.9687 822.7609,-1605.0064 827.9929,-1609.2344 823,-1609.5 823,-1609.5 823,-1609.5 827.9929,-1609.2344 823.2391,-1613.9936 832.9859,-1608.9687 832.9859,-1608.9687"/>
<text text-anchor="start" x="829.7755" y="-1619.5" font-family="Arial" font-size="10.00" fill="#000000">FOREIGN KEY (repo_id) REFERENCES repos(id)</text>
</g>
<!-- public.users_to_repos_stargazers -->
<g id="node5" class="node">
<title>public.users_to_repos_stargazers</title>
<polygon fill="#efefef" stroke="transparent" points="928,-1684.5 928,-1719.5 1309,-1719.5 1309,-1684.5 928,-1684.5"/>
<polygon fill="none" stroke="#000000" points="928,-1684.5 928,-1719.5 1309,-1719.5 1309,-1684.5 928,-1684.5"/>
<text text-anchor="start" x="934.8416" y="-1697.3" font-family="Arial Bold" font-size="18.00" fill="#000000">public.users_to_repos_stargazers</text>
<text text-anchor="start" x="1204.9046" y="-1697.3" font-family="Arial" font-size="14.00" fill="#000000"> </text>
<text text-anchor="start" x="1208.7952" y="-1697.3" font-family="Arial" font-size="14.00" fill="#666666">[BASE TABLE]</text>
<polygon fill="none" stroke="#000000" points="928,-1654.5 928,-1684.5 1309,-1684.5 1309,-1654.5 928,-1654.5"/>
<text text-anchor="start" x="935" y="-1665.9" font-family="Arial" font-size="14.00" fill="#000000">id </text>
<text text-anchor="start" x="949.7798" y="-1665.9" font-family="Arial" font-size="14.00" fill="#666666">[bigint]</text>
<polygon fill="none" stroke="#000000" points="928,-1624.5 928,-1654.5 1309,-1654.5 1309,-1624.5 928,-1624.5"/>
<text text-anchor="start" x="935" y="-1635.9" font-family="Arial" font-size="14.00" fill="#000000">user_id </text>
<text text-anchor="start" x="984.7882" y="-1635.9" font-family="Arial" font-size="14.00" fill="#666666">[bigint]</text>
<polygon fill="none" stroke="#000000" points="928,-1594.5 928,-1624.5 1309,-1624.5 1309,-1594.5 928,-1594.5"/>
<text text-anchor="start" x="935" y="-1605.9" font-family="Arial" font-size="14.00" fill="#000000">repo_id </text>
<text text-anchor="start" x="985.5708" y="-1605.9" font-family="Arial" font-size="14.00" fill="#666666">[bigint]</text>
<polygon fill="none" stroke="#000000" points="928,-1564.5 928,-1594.5 1309,-1594.5 1309,-1564.5 928,-1564.5"/>
<text text-anchor="start" x="935" y="-1575.9" font-family="Arial" font-size="14.00" fill="#000000">created_at </text>
<text text-anchor="start" x="1005.028" y="-1575.9" font-family="Arial" font-size="14.00" fill="#666666">[timestamp without time zone]</text>
<polygon fill="none" stroke="#000000" points="928,-1534.5 928,-1564.5 1309,-1564.5 1309,-1534.5 928,-1534.5"/>
<text text-anchor="start" x="935" y="-1545.9" font-family="Arial" font-size="14.00" fill="#000000">updated_at </text>
<text text-anchor="start" x="1008.9326" y="-1545.9" font-family="Arial" font-size="14.00" fill="#666666">[timestamp without time zone]</text>
<polygon fill="none" stroke="#000000" points="928,-1504.5 928,-1534.5 1309,-1534.5 1309,-1504.5 928,-1504.5"/>
<text text-anchor="start" x="935" y="-1515.9" font-family="Arial" font-size="14.00" fill="#000000">deleted_at </text>
<text text-anchor="start" x="1004.2566" y="-1515.9" font-family="Arial" font-size="14.00" fill="#666666">[timestamp without time zone]</text>
</g>
<!-- public.users_to_repos_stargazers&#45;&gt;public.users -->
<g id="edge4" class="edge">
<title>public.users_to_repos_stargazers:user_id&#45;&gt;public.users:id</title>
<path fill="none" stroke="#000000" d="M920.9036,-1632.3023C883.7069,-1559.4142 839.1878,-957.5 803,-957.5"/>
<polygon fill="#000000" stroke="#000000" points="920.9792,-1632.379 924.7955,-1642.6594 924.4896,-1635.9395 928,-1639.5 928,-1639.5 928,-1639.5 924.4896,-1635.9395 931.2045,-1636.3406 920.9792,-1632.379 920.9792,-1632.379"/>
<text text-anchor="start" x="935.3345" y="-1649.5" font-family="Arial" font-size="10.00" fill="#000000">FOREIGN KEY (user_id) REFERENCES users(id)</text>
</g>
<!-- public.users_to_repos_stargazers&#45;&gt;public.repos -->
<g id="edge9" class="edge">
<title>public.users_to_repos_stargazers:repo_id&#45;&gt;public.repos:id</title>
<path fill="none" stroke="#000000" d="M1319.2875,-1608.5968C1371.7454,-1598.711 1347.892,-1510.0823 1309,-1462 1200.6751,-1328.0775 1038.3249,-1514.9225 930,-1381 903.8662,-1348.6907 888.4444,-1287.5 930,-1287.5"/>
<polygon fill="#000000" stroke="#000000" points="1318.9617,-1608.6253 1308.6064,-1605.0172 1313.9808,-1609.0626 1309,-1609.5 1309,-1609.5 1309,-1609.5 1313.9808,-1609.0626 1309.3936,-1613.9828 1318.9617,-1608.6253 1318.9617,-1608.6253"/>
<text text-anchor="start" x="1196.7755" y="-1593.5" font-family="Arial" font-size="10.00" fill="#000000">FOREIGN KEY (repo_id) REFERENCES repos(id)</text>
</g>
<!-- public.contributions -->
<g id="node7" class="node">
<title>public.contributions</title>
<polygon fill="#efefef" stroke="transparent" points="1920,-1729.5 1920,-1764.5 2219,-1764.5 2219,-1729.5 1920,-1729.5"/>
<polygon fill="none" stroke="#000000" points="1920,-1729.5 1920,-1764.5 2219,-1764.5 2219,-1729.5 1920,-1729.5"/>
<text text-anchor="start" x="1943.8574" y="-1742.3" font-family="Arial Bold" font-size="18.00" fill="#000000">public.contributions</text>
<text text-anchor="start" x="2097.8888" y="-1742.3" font-family="Arial" font-size="14.00" fill="#000000"> </text>
<text text-anchor="start" x="2101.7794" y="-1742.3" font-family="Arial" font-size="14.00" fill="#666666">[BASE TABLE]</text>
<polygon fill="none" stroke="#000000" points="1920,-1699.5 1920,-1729.5 2219,-1729.5 2219,-1699.5 1920,-1699.5"/>
<text text-anchor="start" x="1927" y="-1710.9" font-family="Arial" font-size="14.00" fill="#000000">id </text>
<text text-anchor="start" x="1941.7798" y="-1710.9" font-family="Arial" font-size="14.00" fill="#666666">[bigint]</text>
<polygon fill="none" stroke="#000000" points="1920,-1669.5 1920,-1699.5 2219,-1699.5 2219,-1669.5 1920,-1669.5"/>
<text text-anchor="start" x="1927" y="-1680.9" font-family="Arial" font-size="14.00" fill="#000000">repo_id </text>
<text text-anchor="start" x="1977.5708" y="-1680.9" font-family="Arial" font-size="14.00" fill="#666666">[bigint]</text>
<polygon fill="none" stroke="#000000" points="1920,-1639.5 1920,-1669.5 2219,-1669.5 2219,-1639.5 1920,-1639.5"/>
<text text-anchor="start" x="1927" y="-1650.9" font-family="Arial" font-size="14.00" fill="#000000">count </text>
<text text-anchor="start" x="1965.129" y="-1650.9" font-family="Arial" font-size="14.00" fill="#666666">[bigint]</text>
<polygon fill="none" stroke="#000000" points="1920,-1609.5 1920,-1639.5 2219,-1639.5 2219,-1609.5 1920,-1609.5"/>
<text text-anchor="start" x="1926.7497" y="-1620.9" font-family="Arial" font-size="14.00" fill="#000000">last_merged_at </text>
<text text-anchor="start" x="2027.1101" y="-1620.9" font-family="Arial" font-size="14.00" fill="#666666">[timestamp without time zone]</text>
<polygon fill="none" stroke="#000000" points="1920,-1579.5 1920,-1609.5 2219,-1609.5 2219,-1579.5 1920,-1579.5"/>
<text text-anchor="start" x="1927" y="-1590.9" font-family="Arial" font-size="14.00" fill="#000000">contributor </text>
<text text-anchor="start" x="1997.0126" y="-1590.9" font-family="Arial" font-size="14.00" fill="#666666">[varchar(255)]</text>
<polygon fill="none" stroke="#000000" points="1920,-1549.5 1920,-1579.5 2219,-1579.5 2219,-1549.5 1920,-1549.5"/>
<text text-anchor="start" x="1927" y="-1560.9" font-family="Arial" font-size="14.00" fill="#000000">url </text>
<text text-anchor="start" x="1946.4404" y="-1560.9" font-family="Arial" font-size="14.00" fill="#666666">[varchar(255)]</text>
<polygon fill="none" stroke="#000000" points="1920,-1519.5 1920,-1549.5 2219,-1549.5 2219,-1519.5 1920,-1519.5"/>
<text text-anchor="start" x="1927" y="-1530.9" font-family="Arial" font-size="14.00" fill="#000000">deleted_at </text>
<text text-anchor="start" x="1996.2566" y="-1530.9" font-family="Arial" font-size="14.00" fill="#666666">[timestamp with time zone]</text>
<polygon fill="none" stroke="#000000" points="1920,-1489.5 1920,-1519.5 2219,-1519.5 2219,-1489.5 1920,-1489.5"/>
<text text-anchor="start" x="1927" y="-1500.9" font-family="Arial" font-size="14.00" fill="#000000">updated_at </text>
<text text-anchor="start" x="2000.9326" y="-1500.9" font-family="Arial" font-size="14.00" fill="#666666">[timestamp with time zone]</text>
<polygon fill="none" stroke="#000000" points="1920,-1459.5 1920,-1489.5 2219,-1489.5 2219,-1459.5 1920,-1459.5"/>
<text text-anchor="start" x="1927" y="-1470.9" font-family="Arial" font-size="14.00" fill="#000000">created_at </text>
<text text-anchor="start" x="1997.028" y="-1470.9" font-family="Arial" font-size="14.00" fill="#666666">[timestamp with time zone]</text>
</g>
<!-- public.contributions&#45;&gt;public.repos -->
<g id="edge6" class="edge">
<title>public.contributions:repo_id&#45;&gt;public.repos:id</title>
<path fill="none" stroke="#000000" d="M1909.731,-1684.0115C1807.8174,-1673.6607 1948.7644,-1501.4279 1867,-1417 1778.2918,-1325.4021 1435.512,-1287.5 1308,-1287.5"/>
<polygon fill="#000000" stroke="#000000" points="1910.0113,-1684.0247 1919.7861,-1688.9949 1915.0056,-1684.2624 1920,-1684.5 1920,-1684.5 1920,-1684.5 1915.0056,-1684.2624 1920.2139,-1680.0051 1910.0113,-1684.0247 1910.0113,-1684.0247"/>
<text text-anchor="start" x="1688.7755" y="-1694.5" font-family="Arial" font-size="10.00" fill="#000000">FOREIGN KEY (repo_id) REFERENCES repos(id)</text>
</g>
</g>
</svg>
