<?xml version="1.0" encoding="UTF-8" standalone="no"?>
<!DOCTYPE svg PUBLIC "-//W3C//DTD SVG 1.1//EN"
 "http://www.w3.org/Graphics/SVG/1.1/DTD/svg11.dtd">
<!-- Generated by graphviz version 2.40.1 (20161225.0304)
 -->
<!-- Title: public.users Pages: 1 -->
<svg width="1860pt" height="1126pt"
 viewBox="0.00 0.00 1860.00 1126.00" xmlns="http://www.w3.org/2000/svg" xmlns:xlink="http://www.w3.org/1999/xlink">
<g id="graph0" class="graph" transform="scale(1 1) rotate(0) translate(4 1122)">
<title>public.users</title>
<polygon fill="#ffffff" stroke="transparent" points="-4,4 -4,-1122 1856,-1122 1856,4 -4,4"/>
<!-- public.users -->
<g id="node1" class="node">
<title>public.users</title>
<polygon fill="#efefef" stroke="transparent" points="628,-537.5 628,-572.5 881,-572.5 881,-537.5 628,-537.5"/>
<polygon fill="none" stroke="#000000" points="628,-537.5 628,-572.5 881,-572.5 881,-537.5 628,-537.5"/>
<text text-anchor="start" x="657.8662" y="-550.3" font-family="Arial Bold" font-size="18.00" fill="#000000">public.users</text>
<text text-anchor="start" x="753.88" y="-550.3" font-family="Arial" font-size="14.00" fill="#000000"> </text>
<text text-anchor="start" x="757.7706" y="-550.3" font-family="Arial" font-size="14.00" fill="#666666">[BASE TABLE]</text>
<polygon fill="none" stroke="#000000" points="628,-507.5 628,-537.5 881,-537.5 881,-507.5 628,-507.5"/>
<text text-anchor="start" x="635" y="-518.9" font-family="Arial" font-size="14.00" fill="#000000">id </text>
<text text-anchor="start" x="649.7798" y="-518.9" font-family="Arial" font-size="14.00" fill="#666666">[bigint]</text>
<polygon fill="none" stroke="#000000" points="628,-477.5 628,-507.5 881,-507.5 881,-477.5 628,-477.5"/>
<text text-anchor="start" x="635" y="-488.9" font-family="Arial" font-size="14.00" fill="#000000">open_issues </text>
<text text-anchor="start" x="717.4754" y="-488.9" font-family="Arial" font-size="14.00" fill="#666666">[bigint]</text>
<polygon fill="none" stroke="#000000" points="628,-447.5 628,-477.5 881,-477.5 881,-447.5 628,-447.5"/>
<text text-anchor="start" x="635" y="-458.9" font-family="Arial" font-size="14.00" fill="#000000">has_stars_data </text>
<text text-anchor="start" x="734.5932" y="-458.9" font-family="Arial" font-size="14.00" fill="#666666">[boolean]</text>
<polygon fill="none" stroke="#000000" points="628,-417.5 628,-447.5 881,-447.5 881,-417.5 628,-417.5"/>
<text text-anchor="start" x="635" y="-428.9" font-family="Arial" font-size="14.00" fill="#000000">is_private </text>
<text text-anchor="start" x="698.7854" y="-428.9" font-family="Arial" font-size="14.00" fill="#666666">[boolean]</text>
<polygon fill="none" stroke="#000000" points="628,-387.5 628,-417.5 881,-417.5 881,-387.5 628,-387.5"/>
<text text-anchor="start" x="635" y="-398.9" font-family="Arial" font-size="14.00" fill="#000000">is_open_sauced_member </text>
<text text-anchor="start" x="799.9354" y="-398.9" font-family="Arial" font-size="14.00" fill="#666666">[boolean]</text>
<polygon fill="none" stroke="#000000" points="628,-357.5 628,-387.5 881,-387.5 881,-357.5 628,-357.5"/>
<text text-anchor="start" x="635" y="-368.9" font-family="Arial" font-size="14.00" fill="#000000">created_at </text>
<text text-anchor="start" x="705.028" y="-368.9" font-family="Arial" font-size="14.00" fill="#666666">[timestamp with time zone]</text>
<polygon fill="none" stroke="#000000" points="628,-327.5 628,-357.5 881,-357.5 881,-327.5 628,-327.5"/>
<text text-anchor="start" x="635" y="-338.9" font-family="Arial" font-size="14.00" fill="#000000">login </text>
<text text-anchor="start" x="668.4516" y="-338.9" font-family="Arial" font-size="14.00" fill="#666666">[varchar(255)]</text>
<polygon fill="none" stroke="#000000" points="628,-297.5 628,-327.5 881,-327.5 881,-297.5 628,-297.5"/>
<text text-anchor="start" x="635" y="-308.9" font-family="Arial" font-size="14.00" fill="#000000">deleted_at </text>
<text text-anchor="start" x="704.2566" y="-308.9" font-family="Arial" font-size="14.00" fill="#666666">[timestamp with time zone]</text>
<polygon fill="none" stroke="#000000" points="628,-267.5 628,-297.5 881,-297.5 881,-267.5 628,-267.5"/>
<text text-anchor="start" x="634.6915" y="-278.9" font-family="Arial" font-size="14.00" fill="#000000">updated_at </text>
<text text-anchor="start" x="708.6241" y="-278.9" font-family="Arial" font-size="14.00" fill="#666666">[timestamp with time zone]</text>
<polygon fill="none" stroke="#000000" points="628,-237.5 628,-267.5 881,-267.5 881,-237.5 628,-237.5"/>
<text text-anchor="start" x="635" y="-248.9" font-family="Arial" font-size="14.00" fill="#000000">is_onboarded </text>
<text text-anchor="start" x="723.7012" y="-248.9" font-family="Arial" font-size="14.00" fill="#666666">[boolean]</text>
<polygon fill="none" stroke="#000000" points="628,-207.5 628,-237.5 881,-237.5 881,-207.5 628,-207.5"/>
<text text-anchor="start" x="635" y="-218.9" font-family="Arial" font-size="14.00" fill="#000000">role </text>
<text text-anchor="start" x="662.223" y="-218.9" font-family="Arial" font-size="14.00" fill="#666666">[bigint]</text>
<polygon fill="none" stroke="#000000" points="628,-177.5 628,-207.5 881,-207.5 881,-177.5 628,-177.5"/>
<text text-anchor="start" x="635" y="-188.9" font-family="Arial" font-size="14.00" fill="#000000">is_waitlisted </text>
<text text-anchor="start" x="714.3352" y="-188.9" font-family="Arial" font-size="14.00" fill="#666666">[boolean]</text>
<polygon fill="none" stroke="#000000" stroke-width="3" points="626,-176.5 626,-574.5 882,-574.5 882,-176.5 626,-176.5"/>
</g>
<!-- public.users_to_repos_stars -->
<g id="node2" class="node">
<title>public.users_to_repos_stars</title>
<polygon fill="#efefef" stroke="transparent" points="1029,-1024.5 1029,-1059.5 1365,-1059.5 1365,-1024.5 1029,-1024.5"/>
<polygon fill="none" stroke="#000000" points="1029,-1024.5 1029,-1059.5 1365,-1059.5 1365,-1024.5 1029,-1024.5"/>
<text text-anchor="start" x="1035.847" y="-1037.3" font-family="Arial Bold" font-size="18.00" fill="#000000">public.users_to_repos_stars</text>
<text text-anchor="start" x="1260.8992" y="-1037.3" font-family="Arial" font-size="14.00" fill="#000000"> </text>
<text text-anchor="start" x="1264.7898" y="-1037.3" font-family="Arial" font-size="14.00" fill="#666666">[BASE TABLE]</text>
<polygon fill="none" stroke="#000000" points="1029,-994.5 1029,-1024.5 1365,-1024.5 1365,-994.5 1029,-994.5"/>
<text text-anchor="start" x="1036" y="-1005.9" font-family="Arial" font-size="14.00" fill="#000000">id </text>
<text text-anchor="start" x="1050.7798" y="-1005.9" font-family="Arial" font-size="14.00" fill="#666666">[bigint]</text>
<polygon fill="none" stroke="#000000" points="1029,-964.5 1029,-994.5 1365,-994.5 1365,-964.5 1029,-964.5"/>
<text text-anchor="start" x="1036" y="-975.9" font-family="Arial" font-size="14.00" fill="#000000">user_id </text>
<text text-anchor="start" x="1085.7882" y="-975.9" font-family="Arial" font-size="14.00" fill="#666666">[bigint]</text>
<polygon fill="none" stroke="#000000" points="1029,-934.5 1029,-964.5 1365,-964.5 1365,-934.5 1029,-934.5"/>
<text text-anchor="start" x="1036" y="-945.9" font-family="Arial" font-size="14.00" fill="#000000">repo_id </text>
<text text-anchor="start" x="1086.5708" y="-945.9" font-family="Arial" font-size="14.00" fill="#666666">[bigint]</text>
<polygon fill="none" stroke="#000000" points="1029,-904.5 1029,-934.5 1365,-934.5 1365,-904.5 1029,-904.5"/>
<text text-anchor="start" x="1036" y="-915.9" font-family="Arial" font-size="14.00" fill="#000000">created_at </text>
<text text-anchor="start" x="1106.028" y="-915.9" font-family="Arial" font-size="14.00" fill="#666666">[timestamp with time zone]</text>
<polygon fill="none" stroke="#000000" points="1029,-874.5 1029,-904.5 1365,-904.5 1365,-874.5 1029,-874.5"/>
<text text-anchor="start" x="1036" y="-885.9" font-family="Arial" font-size="14.00" fill="#000000">updated_at </text>
<text text-anchor="start" x="1109.9326" y="-885.9" font-family="Arial" font-size="14.00" fill="#666666">[timestamp with time zone]</text>
<polygon fill="none" stroke="#000000" points="1029,-844.5 1029,-874.5 1365,-874.5 1365,-844.5 1029,-844.5"/>
<text text-anchor="start" x="1036" y="-855.9" font-family="Arial" font-size="14.00" fill="#000000">deleted_at </text>
<text text-anchor="start" x="1105.2566" y="-855.9" font-family="Arial" font-size="14.00" fill="#666666">[timestamp with time zone]</text>
</g>
<!-- public.users_to_repos_stars&#45;&gt;public.users -->
<g id="edge1" class="edge">
<title>public.users_to_repos_stars:user_id&#45;&gt;public.users:id</title>
<path fill="none" stroke="#000000" d="M1018.9171,-978.934C946.5853,-970.1927 1016.7999,-862.0919 977,-787 967.1119,-768.3438 956.012,-769.59 946,-751 895.9345,-658.0401 986.5846,-522.5 881,-522.5"/>
<polygon fill="#000000" stroke="#000000" points="1019.0157,-978.9395 1028.7478,-983.9929 1024.0079,-979.2197 1029,-979.5 1029,-979.5 1029,-979.5 1024.0079,-979.2197 1029.2522,-975.0071 1019.0157,-978.9395 1019.0157,-978.9395"/>
<text text-anchor="start" x="977.0845" y="-963.5" font-family="Arial" font-size="10.00" fill="#000000">FOREIGN KEY (user_id) REFERENCES users(id)</text>
</g>
<!-- public.repos -->
<g id="node3" class="node">
<title>public.repos</title>
<polygon fill="#efefef" stroke="transparent" points="998,-672.5 998,-707.5 1376,-707.5 1376,-672.5 998,-672.5"/>
<polygon fill="none" stroke="#000000" points="998,-672.5 998,-707.5 1376,-707.5 1376,-672.5 998,-672.5"/>
<text text-anchor="start" x="1089.8631" y="-685.3" font-family="Arial Bold" font-size="18.00" fill="#000000">public.repos</text>
<text text-anchor="start" x="1186.8831" y="-685.3" font-family="Arial" font-size="14.00" fill="#000000"> </text>
<text text-anchor="start" x="1190.7737" y="-685.3" font-family="Arial" font-size="14.00" fill="#666666">[BASE TABLE]</text>
<polygon fill="none" stroke="#000000" points="998,-642.5 998,-672.5 1376,-672.5 1376,-642.5 998,-642.5"/>
<text text-anchor="start" x="1005" y="-653.9" font-family="Arial" font-size="14.00" fill="#000000">id </text>
<text text-anchor="start" x="1019.7798" y="-653.9" font-family="Arial" font-size="14.00" fill="#666666">[bigint]</text>
<polygon fill="none" stroke="#000000" points="998,-612.5 998,-642.5 1376,-642.5 1376,-612.5 998,-612.5"/>
<text text-anchor="start" x="1005" y="-623.9" font-family="Arial" font-size="14.00" fill="#000000">user_id </text>
<text text-anchor="start" x="1054.7882" y="-623.9" font-family="Arial" font-size="14.00" fill="#666666">[bigint]</text>
<polygon fill="none" stroke="#000000" points="998,-582.5 998,-612.5 1376,-612.5 1376,-582.5 998,-582.5"/>
<text text-anchor="start" x="1005" y="-593.9" font-family="Arial" font-size="14.00" fill="#000000">issues </text>
<text text-anchor="start" x="1048.5624" y="-593.9" font-family="Arial" font-size="14.00" fill="#666666">[bigint]</text>
<polygon fill="none" stroke="#000000" points="998,-552.5 998,-582.5 1376,-582.5 1376,-552.5 998,-552.5"/>
<text text-anchor="start" x="1005" y="-563.9" font-family="Arial" font-size="14.00" fill="#000000">stars </text>
<text text-anchor="start" x="1039.2244" y="-563.9" font-family="Arial" font-size="14.00" fill="#666666">[bigint]</text>
<polygon fill="none" stroke="#000000" points="998,-522.5 998,-552.5 1376,-552.5 1376,-522.5 998,-522.5"/>
<text text-anchor="start" x="1005" y="-533.9" font-family="Arial" font-size="14.00" fill="#000000">watchers </text>
<text text-anchor="start" x="1064.8962" y="-533.9" font-family="Arial" font-size="14.00" fill="#666666">[bigint]</text>
<polygon fill="none" stroke="#000000" points="998,-492.5 998,-522.5 1376,-522.5 1376,-492.5 998,-492.5"/>
<text text-anchor="start" x="1005" y="-503.9" font-family="Arial" font-size="14.00" fill="#000000">subscribers </text>
<text text-anchor="start" x="1080.4488" y="-503.9" font-family="Arial" font-size="14.00" fill="#666666">[bigint]</text>
<polygon fill="none" stroke="#000000" points="998,-462.5 998,-492.5 1376,-492.5 1376,-462.5 998,-462.5"/>
<text text-anchor="start" x="1005" y="-473.9" font-family="Arial" font-size="14.00" fill="#000000">is_fork </text>
<text text-anchor="start" x="1050.1136" y="-473.9" font-family="Arial" font-size="14.00" fill="#666666">[boolean]</text>
<polygon fill="none" stroke="#000000" points="998,-432.5 998,-462.5 1376,-462.5 1376,-432.5 998,-432.5"/>
<text text-anchor="start" x="1005" y="-443.9" font-family="Arial" font-size="14.00" fill="#000000">created_at </text>
<text text-anchor="start" x="1075.028" y="-443.9" font-family="Arial" font-size="14.00" fill="#666666">[timestamp without time zone]</text>
<polygon fill="none" stroke="#000000" points="998,-402.5 998,-432.5 1376,-432.5 1376,-402.5 998,-402.5"/>
<text text-anchor="start" x="1005" y="-413.9" font-family="Arial" font-size="14.00" fill="#000000">updated_at </text>
<text text-anchor="start" x="1078.9326" y="-413.9" font-family="Arial" font-size="14.00" fill="#666666">[timestamp without time zone]</text>
<polygon fill="none" stroke="#000000" points="998,-372.5 998,-402.5 1376,-402.5 1376,-372.5 998,-372.5"/>
<text text-anchor="start" x="1005" y="-383.9" font-family="Arial" font-size="14.00" fill="#000000">pushed_at </text>
<text text-anchor="start" x="1074.2594" y="-383.9" font-family="Arial" font-size="14.00" fill="#666666">[timestamp without time zone]</text>
<polygon fill="none" stroke="#000000" points="998,-342.5 998,-372.5 1376,-372.5 1376,-342.5 998,-342.5"/>
<text text-anchor="start" x="1004.5674" y="-353.9" font-family="Arial" font-size="14.00" fill="#000000">last_fetched_contributors_at </text>
<text text-anchor="start" x="1184.2924" y="-353.9" font-family="Arial" font-size="14.00" fill="#666666">[timestamp without time zone]</text>
<polygon fill="none" stroke="#000000" points="998,-312.5 998,-342.5 1376,-342.5 1376,-312.5 998,-312.5"/>
<text text-anchor="start" x="1005" y="-323.9" font-family="Arial" font-size="14.00" fill="#000000">name </text>
<text text-anchor="start" x="1043.899" y="-323.9" font-family="Arial" font-size="14.00" fill="#666666">[varchar(255)]</text>
<polygon fill="none" stroke="#000000" points="998,-282.5 998,-312.5 1376,-312.5 1376,-282.5 998,-282.5"/>
<text text-anchor="start" x="1005" y="-293.9" font-family="Arial" font-size="14.00" fill="#000000">full_name </text>
<text text-anchor="start" x="1069.568" y="-293.9" font-family="Arial" font-size="14.00" fill="#666666">[varchar(255)]</text>
<polygon fill="none" stroke="#000000" points="998,-252.5 998,-282.5 1376,-282.5 1376,-252.5 998,-252.5"/>
<text text-anchor="start" x="1005" y="-263.9" font-family="Arial" font-size="14.00" fill="#000000">description </text>
<text text-anchor="start" x="1076.568" y="-263.9" font-family="Arial" font-size="14.00" fill="#666666">[text]</text>
<polygon fill="none" stroke="#000000" points="998,-222.5 998,-252.5 1376,-252.5 1376,-222.5 998,-222.5"/>
<text text-anchor="start" x="1005" y="-233.9" font-family="Arial" font-size="14.00" fill="#000000">language </text>
<text text-anchor="start" x="1066.4754" y="-233.9" font-family="Arial" font-size="14.00" fill="#666666">[varchar(64)]</text>
<polygon fill="none" stroke="#000000" points="998,-192.5 998,-222.5 1376,-222.5 1376,-192.5 998,-192.5"/>
<text text-anchor="start" x="1005" y="-203.9" font-family="Arial" font-size="14.00" fill="#000000">license </text>
<text text-anchor="start" x="1052.4516" y="-203.9" font-family="Arial" font-size="14.00" fill="#666666">[varchar(64)]</text>
<polygon fill="none" stroke="#000000" points="998,-162.5 998,-192.5 1376,-192.5 1376,-162.5 998,-162.5"/>
<text text-anchor="start" x="1005" y="-173.9" font-family="Arial" font-size="14.00" fill="#000000">url </text>
<text text-anchor="start" x="1024.4404" y="-173.9" font-family="Arial" font-size="14.00" fill="#666666">[varchar(255)]</text>
<polygon fill="none" stroke="#000000" points="998,-132.5 998,-162.5 1376,-162.5 1376,-132.5 998,-132.5"/>
<text text-anchor="start" x="1005" y="-143.9" font-family="Arial" font-size="14.00" fill="#000000">deleted_at </text>
<text text-anchor="start" x="1074.2566" y="-143.9" font-family="Arial" font-size="14.00" fill="#666666">[timestamp with time zone]</text>
<polygon fill="none" stroke="#000000" points="998,-102.5 998,-132.5 1376,-132.5 1376,-102.5 998,-102.5"/>
<text text-anchor="start" x="1005" y="-113.9" font-family="Arial" font-size="14.00" fill="#000000">last_fetched_repos_at </text>
<text text-anchor="start" x="1146.6114" y="-113.9" font-family="Arial" font-size="14.00" fill="#666666">[timestamp without time zone]</text>
<polygon fill="none" stroke="#000000" points="998,-72.5 998,-102.5 1376,-102.5 1376,-72.5 998,-72.5"/>
<text text-anchor="start" x="1005" y="-83.9" font-family="Arial" font-size="14.00" fill="#000000">last_fetched_prs_at </text>
<text text-anchor="start" x="1131.0462" y="-83.9" font-family="Arial" font-size="14.00" fill="#666666">[timestamp without time zone]</text>
<polygon fill="none" stroke="#000000" points="998,-42.5 998,-72.5 1376,-72.5 1376,-42.5 998,-42.5"/>
<text text-anchor="start" x="1005" y="-53.9" font-family="Arial" font-size="14.00" fill="#000000">last_fetched_commits_at </text>
<text text-anchor="start" x="1163.704" y="-53.9" font-family="Arial" font-size="14.00" fill="#666666">[timestamp without time zone]</text>
</g>
<!-- public.users_to_repos_stars&#45;&gt;public.repos -->
<g id="edge2" class="edge">
<title>public.users_to_repos_stars:repo_id&#45;&gt;public.repos:id</title>
<path fill="none" stroke="#000000" d="M1019.0255,-948.6456C965.9879,-938.9377 988.4913,-848.8976 1029,-802 1130.8946,-684.0349 1274.1054,-868.9651 1376,-751 1403.1639,-719.5519 1417.5556,-657.5 1376,-657.5"/>
<polygon fill="#000000" stroke="#000000" points="1019.0365,-948.6465 1028.6159,-953.9836 1024.0182,-949.0732 1029,-949.5 1029,-949.5 1029,-949.5 1024.0182,-949.0732 1029.3841,-945.0164 1019.0365,-948.6465 1019.0365,-948.6465"/>
<text text-anchor="start" x="976.2755" y="-933.5" font-family="Arial" font-size="10.00" fill="#000000">FOREIGN KEY (repo_id) REFERENCES repos(id)</text>
</g>
<!-- public.users_to_repos_votes -->
<g id="node4" class="node">
<title>public.users_to_repos_votes</title>
<polygon fill="#efefef" stroke="transparent" points="1469,-1024.5 1469,-1059.5 1809,-1059.5 1809,-1024.5 1469,-1024.5"/>
<polygon fill="none" stroke="#000000" points="1469,-1024.5 1469,-1059.5 1809,-1059.5 1809,-1024.5 1469,-1024.5"/>
<text text-anchor="start" x="1475.84" y="-1037.3" font-family="Arial Bold" font-size="18.00" fill="#000000">public.users_to_repos_votes</text>
<text text-anchor="start" x="1704.9062" y="-1037.3" font-family="Arial" font-size="14.00" fill="#000000"> </text>
<text text-anchor="start" x="1708.7968" y="-1037.3" font-family="Arial" font-size="14.00" fill="#666666">[BASE TABLE]</text>
<polygon fill="none" stroke="#000000" points="1469,-994.5 1469,-1024.5 1809,-1024.5 1809,-994.5 1469,-994.5"/>
<text text-anchor="start" x="1476" y="-1005.9" font-family="Arial" font-size="14.00" fill="#000000">id </text>
<text text-anchor="start" x="1490.7798" y="-1005.9" font-family="Arial" font-size="14.00" fill="#666666">[bigint]</text>
<polygon fill="none" stroke="#000000" points="1469,-964.5 1469,-994.5 1809,-994.5 1809,-964.5 1469,-964.5"/>
<text text-anchor="start" x="1476" y="-975.9" font-family="Arial" font-size="14.00" fill="#000000">user_id </text>
<text text-anchor="start" x="1525.7882" y="-975.9" font-family="Arial" font-size="14.00" fill="#666666">[bigint]</text>
<polygon fill="none" stroke="#000000" points="1469,-934.5 1469,-964.5 1809,-964.5 1809,-934.5 1469,-934.5"/>
<text text-anchor="start" x="1476" y="-945.9" font-family="Arial" font-size="14.00" fill="#000000">repo_id </text>
<text text-anchor="start" x="1526.5708" y="-945.9" font-family="Arial" font-size="14.00" fill="#666666">[bigint]</text>
<polygon fill="none" stroke="#000000" points="1469,-904.5 1469,-934.5 1809,-934.5 1809,-904.5 1469,-904.5"/>
<text text-anchor="start" x="1476" y="-915.9" font-family="Arial" font-size="14.00" fill="#000000">created_at </text>
<text text-anchor="start" x="1546.028" y="-915.9" font-family="Arial" font-size="14.00" fill="#666666">[timestamp with time zone]</text>
<polygon fill="none" stroke="#000000" points="1469,-874.5 1469,-904.5 1809,-904.5 1809,-874.5 1469,-874.5"/>
<text text-anchor="start" x="1476" y="-885.9" font-family="Arial" font-size="14.00" fill="#000000">updated_at </text>
<text text-anchor="start" x="1549.9326" y="-885.9" font-family="Arial" font-size="14.00" fill="#666666">[timestamp with time zone]</text>
<polygon fill="none" stroke="#000000" points="1469,-844.5 1469,-874.5 1809,-874.5 1809,-844.5 1469,-844.5"/>
<text text-anchor="start" x="1476" y="-855.9" font-family="Arial" font-size="14.00" fill="#000000">deleted_at </text>
<text text-anchor="start" x="1545.2566" y="-855.9" font-family="Arial" font-size="14.00" fill="#666666">[timestamp with time zone]</text>
</g>
<!-- public.users_to_repos_votes&#45;&gt;public.users -->
<g id="edge3" class="edge">
<title>public.users_to_repos_votes:user_id&#45;&gt;public.users:id</title>
<path fill="none" stroke="#000000" d="M1458.6188,-978.7639C1389.0713,-967.9611 1482.3248,-841.0935 1417,-787 1336.1494,-720.05 1027.2943,-817.4104 946,-751 864.2312,-684.202 986.5846,-522.5 881,-522.5"/>
<polygon fill="#000000" stroke="#000000" points="1459.025,-978.7926 1468.6817,-983.9887 1464.0125,-979.1463 1469,-979.5 1469,-979.5 1469,-979.5 1464.0125,-979.1463 1469.3183,-975.0113 1459.025,-978.7926 1459.025,-978.7926"/>
<text text-anchor="start" x="1239.3345" y="-989.5" font-family="Arial" font-size="10.00" fill="#000000">FOREIGN KEY (user_id) REFERENCES users(id)</text>
</g>
<!-- public.users_to_repos_votes&#45;&gt;public.repos -->
<g id="edge4" class="edge">
<title>public.users_to_repos_votes:repo_id&#45;&gt;public.repos:id</title>
<path fill="none" stroke="#000000" d="M1459.1222,-947.1496C1405.1463,-919.5152 1440.5093,-657.5 1376,-657.5"/>
<polygon fill="#000000" stroke="#000000" points="1459.2716,-947.185 1467.9583,-953.8778 1464.1358,-948.3425 1469,-949.5 1469,-949.5 1469,-949.5 1464.1358,-948.3425 1470.0417,-945.1222 1459.2716,-947.185 1459.2716,-947.185"/>
<text text-anchor="start" x="1237.7755" y="-959.5" font-family="Arial" font-size="10.00" fill="#000000">FOREIGN KEY (repo_id) REFERENCES repos(id)</text>
</g>
<!-- public.users_to_repos_submissions -->
<g id="node5" class="node">
<title>public.users_to_repos_submissions</title>
<polygon fill="#efefef" stroke="transparent" points="43,-1039.5 43,-1074.5 439,-1074.5 439,-1039.5 43,-1039.5"/>
<polygon fill="none" stroke="#000000" points="43,-1039.5 43,-1074.5 439,-1074.5 439,-1039.5 43,-1039.5"/>
<text text-anchor="start" x="49.8446" y="-1052.3" font-family="Arial Bold" font-size="18.00" fill="#000000">public.users_to_repos_submissions</text>
<text text-anchor="start" x="334.9016" y="-1052.3" font-family="Arial" font-size="14.00" fill="#000000"> </text>
<text text-anchor="start" x="338.7922" y="-1052.3" font-family="Arial" font-size="14.00" fill="#666666">[BASE TABLE]</text>
<polygon fill="none" stroke="#000000" points="43,-1009.5 43,-1039.5 439,-1039.5 439,-1009.5 43,-1009.5"/>
<text text-anchor="start" x="50" y="-1020.9" font-family="Arial" font-size="14.00" fill="#000000">id </text>
<text text-anchor="start" x="64.7798" y="-1020.9" font-family="Arial" font-size="14.00" fill="#666666">[bigint]</text>
<polygon fill="none" stroke="#000000" points="43,-979.5 43,-1009.5 439,-1009.5 439,-979.5 43,-979.5"/>
<text text-anchor="start" x="50" y="-990.9" font-family="Arial" font-size="14.00" fill="#000000">user_id </text>
<text text-anchor="start" x="99.7882" y="-990.9" font-family="Arial" font-size="14.00" fill="#666666">[bigint]</text>
<polygon fill="none" stroke="#000000" points="43,-949.5 43,-979.5 439,-979.5 439,-949.5 43,-949.5"/>
<text text-anchor="start" x="50" y="-960.9" font-family="Arial" font-size="14.00" fill="#000000">repo_id </text>
<text text-anchor="start" x="100.5708" y="-960.9" font-family="Arial" font-size="14.00" fill="#666666">[bigint]</text>
<polygon fill="none" stroke="#000000" points="43,-919.5 43,-949.5 439,-949.5 439,-919.5 43,-919.5"/>
<text text-anchor="start" x="50" y="-930.9" font-family="Arial" font-size="14.00" fill="#000000">created_at </text>
<text text-anchor="start" x="120.028" y="-930.9" font-family="Arial" font-size="14.00" fill="#666666">[timestamp with time zone]</text>
<polygon fill="none" stroke="#000000" points="43,-889.5 43,-919.5 439,-919.5 439,-889.5 43,-889.5"/>
<text text-anchor="start" x="50" y="-900.9" font-family="Arial" font-size="14.00" fill="#000000">updated_at </text>
<text text-anchor="start" x="123.9326" y="-900.9" font-family="Arial" font-size="14.00" fill="#666666">[timestamp with time zone]</text>
<polygon fill="none" stroke="#000000" points="43,-859.5 43,-889.5 439,-889.5 439,-859.5 43,-859.5"/>
<text text-anchor="start" x="50" y="-870.9" font-family="Arial" font-size="14.00" fill="#000000">deleted_at </text>
<text text-anchor="start" x="119.2566" y="-870.9" font-family="Arial" font-size="14.00" fill="#666666">[timestamp with time zone]</text>
<polygon fill="none" stroke="#000000" points="43,-829.5 43,-859.5 439,-859.5 439,-829.5 43,-829.5"/>
<text text-anchor="start" x="50" y="-840.9" font-family="Arial" font-size="14.00" fill="#000000">is_accepted </text>
<text text-anchor="start" x="128.5834" y="-840.9" font-family="Arial" font-size="14.00" fill="#666666">[boolean]</text>
</g>
<!-- public.users_to_repos_submissions&#45;&gt;public.users -->
<g id="edge5" class="edge">
<title>public.users_to_repos_submissions:user_id&#45;&gt;public.users:id</title>
<path fill="none" stroke="#000000" d="M449.3877,-993.9664C528.4179,-985.287 459.5654,-872.5209 492,-787 538.8745,-663.4054 495.8151,-522.5 628,-522.5"/>
<polygon fill="#000000" stroke="#000000" points="448.9868,-993.9869 438.7691,-990.0059 443.9934,-994.2434 439,-994.5 439,-994.5 439,-994.5 443.9934,-994.2434 439.2309,-998.9941 448.9868,-993.9869 448.9868,-993.9869"/>
<text text-anchor="start" x="446.3345" y="-1004.5" font-family="Arial" font-size="10.00" fill="#000000">FOREIGN KEY (user_id) REFERENCES users(id)</text>
</g>
<!-- public.users_to_repos_submissions&#45;&gt;public.repos -->
<g id="edge6" class="edge">
<title>public.users_to_repos_submissions:repo_id&#45;&gt;public.repos:id</title>
<path fill="none" stroke="#000000" d="M449.0622,-963.7572C513.2648,-953.3573 430.8958,-836.4903 492,-787 568.9244,-724.6964 850.7451,-801.3062 936,-751 978.9429,-725.6607 948.1385,-657.5 998,-657.5"/>
<polygon fill="#000000" stroke="#000000" points="448.9729,-963.7637 438.6687,-960.0122 443.9864,-964.1319 439,-964.5 439,-964.5 439,-964.5 443.9864,-964.1319 439.3313,-968.9878 448.9729,-963.7637 448.9729,-963.7637"/>
<text text-anchor="start" x="445.7755" y="-974.5" font-family="Arial" font-size="10.00" fill="#000000">FOREIGN KEY (repo_id) REFERENCES repos(id)</text>
</g>
<!-- public.users_to_repos_stargazers -->
<g id="node6" class="node">
<title>public.users_to_repos_stargazers</title>
<polygon fill="#efefef" stroke="transparent" points="544,-1024.5 544,-1059.5 925,-1059.5 925,-1024.5 544,-1024.5"/>
<polygon fill="none" stroke="#000000" points="544,-1024.5 544,-1059.5 925,-1059.5 925,-1024.5 544,-1024.5"/>
<text text-anchor="start" x="550.8416" y="-1037.3" font-family="Arial Bold" font-size="18.00" fill="#000000">public.users_to_repos_stargazers</text>
<text text-anchor="start" x="820.9046" y="-1037.3" font-family="Arial" font-size="14.00" fill="#000000"> </text>
<text text-anchor="start" x="824.7952" y="-1037.3" font-family="Arial" font-size="14.00" fill="#666666">[BASE TABLE]</text>
<polygon fill="none" stroke="#000000" points="544,-994.5 544,-1024.5 925,-1024.5 925,-994.5 544,-994.5"/>
<text text-anchor="start" x="551" y="-1005.9" font-family="Arial" font-size="14.00" fill="#000000">id </text>
<text text-anchor="start" x="565.7798" y="-1005.9" font-family="Arial" font-size="14.00" fill="#666666">[bigint]</text>
<polygon fill="none" stroke="#000000" points="544,-964.5 544,-994.5 925,-994.5 925,-964.5 544,-964.5"/>
<text text-anchor="start" x="551" y="-975.9" font-family="Arial" font-size="14.00" fill="#000000">user_id </text>
<text text-anchor="start" x="600.7882" y="-975.9" font-family="Arial" font-size="14.00" fill="#666666">[bigint]</text>
<polygon fill="none" stroke="#000000" points="544,-934.5 544,-964.5 925,-964.5 925,-934.5 544,-934.5"/>
<text text-anchor="start" x="551" y="-945.9" font-family="Arial" font-size="14.00" fill="#000000">repo_id </text>
<text text-anchor="start" x="601.5708" y="-945.9" font-family="Arial" font-size="14.00" fill="#666666">[bigint]</text>
<polygon fill="none" stroke="#000000" points="544,-904.5 544,-934.5 925,-934.5 925,-904.5 544,-904.5"/>
<text text-anchor="start" x="551" y="-915.9" font-family="Arial" font-size="14.00" fill="#000000">created_at </text>
<text text-anchor="start" x="621.028" y="-915.9" font-family="Arial" font-size="14.00" fill="#666666">[timestamp without time zone]</text>
<polygon fill="none" stroke="#000000" points="544,-874.5 544,-904.5 925,-904.5 925,-874.5 544,-874.5"/>
<text text-anchor="start" x="551" y="-885.9" font-family="Arial" font-size="14.00" fill="#000000">updated_at </text>
<text text-anchor="start" x="624.9326" y="-885.9" font-family="Arial" font-size="14.00" fill="#666666">[timestamp without time zone]</text>
<polygon fill="none" stroke="#000000" points="544,-844.5 544,-874.5 925,-874.5 925,-844.5 544,-844.5"/>
<text text-anchor="start" x="551" y="-855.9" font-family="Arial" font-size="14.00" fill="#000000">deleted_at </text>
<text text-anchor="start" x="620.2566" y="-855.9" font-family="Arial" font-size="14.00" fill="#666666">[timestamp without time zone]</text>
</g>
<!-- public.users_to_repos_stargazers&#45;&gt;public.users -->
<g id="edge7" class="edge">
<title>public.users_to_repos_stargazers:user_id&#45;&gt;public.users:id</title>
<path fill="none" stroke="#000000" d="M935.3197,-978.7993C1000.1033,-969.4039 961.6599,-867.6486 925,-802 849.4065,-666.6311 703.5935,-754.3689 628,-619 607.0892,-581.5541 585.1111,-522.5 628,-522.5"/>
<polygon fill="#000000" stroke="#000000" points="934.977,-978.8224 924.6951,-975.0103 929.9885,-979.1612 925,-979.5 925,-979.5 925,-979.5 929.9885,-979.1612 925.3049,-983.9897 934.977,-978.8224 934.977,-978.8224"/>
<text text-anchor="start" x="932.3345" y="-989.5" font-family="Arial" font-size="10.00" fill="#000000">FOREIGN KEY (user_id) REFERENCES users(id)</text>
</g>
<!-- public.users_to_repos_stargazers&#45;&gt;public.repos -->
<g id="edge8" class="edge">
<title>public.users_to_repos_stargazers:repo_id&#45;&gt;public.repos:id</title>
<path fill="none" stroke="#000000" d="M935.2505,-948.857C1048.3782,-933.7496 867.886,-657.5 998,-657.5"/>
<polygon fill="#000000" stroke="#000000" points="934.9804,-948.8738 924.7182,-945.0088 929.9902,-949.1869 925,-949.5 925,-949.5 925,-949.5 929.9902,-949.1869 925.2818,-953.9912 934.9804,-948.8738 934.9804,-948.8738"/>
<text text-anchor="start" x="693.7755" y="-959.5" font-family="Arial" font-size="10.00" fill="#000000">FOREIGN KEY (repo_id) REFERENCES repos(id)</text>
</g>
</g>
</svg>
