<?xml version="1.0" encoding="UTF-8" standalone="no"?>
<!DOCTYPE svg PUBLIC "-//W3C//DTD SVG 1.1//EN"
 "http://www.w3.org/Graphics/SVG/1.1/DTD/svg11.dtd">
<!-- Generated by graphviz version 2.40.1 (20161225.0304)
 -->
<!-- Title: public.users_to_repos_stars Pages: 1 -->
<svg width="2270pt" height="1816pt"
 viewBox="0.00 0.00 2269.50 1816.00" xmlns="http://www.w3.org/2000/svg" xmlns:xlink="http://www.w3.org/1999/xlink">
<g id="graph0" class="graph" transform="scale(1 1) rotate(0) translate(4 1812)">
<title>public.users_to_repos_stars</title>
<polygon fill="#ffffff" stroke="transparent" points="-4,4 -4,-1812 2265.5,-1812 2265.5,4 -4,4"/>
<!-- public.users_to_repos_stars -->
<g id="node1" class="node">
<title>public.users_to_repos_stars</title>
<polygon fill="#efefef" stroke="transparent" points="1476,-1684.5 1476,-1719.5 1812,-1719.5 1812,-1684.5 1476,-1684.5"/>
<polygon fill="none" stroke="#000000" points="1476,-1684.5 1476,-1719.5 1812,-1719.5 1812,-1684.5 1476,-1684.5"/>
<text text-anchor="start" x="1482.847" y="-1697.3" font-family="Arial Bold" font-size="18.00" fill="#000000">public.users_to_repos_stars</text>
<text text-anchor="start" x="1707.8992" y="-1697.3" font-family="Arial" font-size="14.00" fill="#000000"> </text>
<text text-anchor="start" x="1711.7898" y="-1697.3" font-family="Arial" font-size="14.00" fill="#666666">[BASE TABLE]</text>
<polygon fill="none" stroke="#000000" points="1476,-1654.5 1476,-1684.5 1812,-1684.5 1812,-1654.5 1476,-1654.5"/>
<text text-anchor="start" x="1483" y="-1665.9" font-family="Arial" font-size="14.00" fill="#000000">id </text>
<text text-anchor="start" x="1497.7798" y="-1665.9" font-family="Arial" font-size="14.00" fill="#666666">[bigint]</text>
<polygon fill="none" stroke="#000000" points="1476,-1624.5 1476,-1654.5 1812,-1654.5 1812,-1624.5 1476,-1624.5"/>
<text text-anchor="start" x="1483" y="-1635.9" font-family="Arial" font-size="14.00" fill="#000000">user_id </text>
<text text-anchor="start" x="1532.7882" y="-1635.9" font-family="Arial" font-size="14.00" fill="#666666">[bigint]</text>
<polygon fill="none" stroke="#000000" points="1476,-1594.5 1476,-1624.5 1812,-1624.5 1812,-1594.5 1476,-1594.5"/>
<text text-anchor="start" x="1483" y="-1605.9" font-family="Arial" font-size="14.00" fill="#000000">repo_id </text>
<text text-anchor="start" x="1533.5708" y="-1605.9" font-family="Arial" font-size="14.00" fill="#666666">[bigint]</text>
<polygon fill="none" stroke="#000000" points="1476,-1564.5 1476,-1594.5 1812,-1594.5 1812,-1564.5 1476,-1564.5"/>
<text text-anchor="start" x="1483" y="-1575.9" font-family="Arial" font-size="14.00" fill="#000000">created_at </text>
<text text-anchor="start" x="1553.028" y="-1575.9" font-family="Arial" font-size="14.00" fill="#666666">[timestamp with time zone]</text>
<polygon fill="none" stroke="#000000" points="1476,-1534.5 1476,-1564.5 1812,-1564.5 1812,-1534.5 1476,-1534.5"/>
<text text-anchor="start" x="1483" y="-1545.9" font-family="Arial" font-size="14.00" fill="#000000">updated_at </text>
<text text-anchor="start" x="1556.9326" y="-1545.9" font-family="Arial" font-size="14.00" fill="#666666">[timestamp with time zone]</text>
<polygon fill="none" stroke="#000000" points="1476,-1504.5 1476,-1534.5 1812,-1534.5 1812,-1504.5 1476,-1504.5"/>
<text text-anchor="start" x="1483" y="-1515.9" font-family="Arial" font-size="14.00" fill="#000000">deleted_at </text>
<text text-anchor="start" x="1552.2566" y="-1515.9" font-family="Arial" font-size="14.00" fill="#666666">[timestamp with time zone]</text>
<polygon fill="none" stroke="#000000" stroke-width="3" points="1474.5,-1503.5 1474.5,-1721.5 1813.5,-1721.5 1813.5,-1503.5 1474.5,-1503.5"/>
</g>
<!-- public.users -->
<g id="node2" class="node">
<title>public.users</title>
<polygon fill="#efefef" stroke="transparent" points="596,-987.5 596,-1022.5 849,-1022.5 849,-987.5 596,-987.5"/>
<polygon fill="none" stroke="#000000" points="596,-987.5 596,-1022.5 849,-1022.5 849,-987.5 596,-987.5"/>
<text text-anchor="start" x="625.8662" y="-1000.3" font-family="Arial Bold" font-size="18.00" fill="#000000">public.users</text>
<text text-anchor="start" x="721.88" y="-1000.3" font-family="Arial" font-size="14.00" fill="#000000"> </text>
<text text-anchor="start" x="725.7706" y="-1000.3" font-family="Arial" font-size="14.00" fill="#666666">[BASE TABLE]</text>
<polygon fill="none" stroke="#000000" points="596,-957.5 596,-987.5 849,-987.5 849,-957.5 596,-957.5"/>
<text text-anchor="start" x="603" y="-968.9" font-family="Arial" font-size="14.00" fill="#000000">id </text>
<text text-anchor="start" x="617.7798" y="-968.9" font-family="Arial" font-size="14.00" fill="#666666">[bigint]</text>
<polygon fill="none" stroke="#000000" points="596,-927.5 596,-957.5 849,-957.5 849,-927.5 596,-927.5"/>
<text text-anchor="start" x="603" y="-938.9" font-family="Arial" font-size="14.00" fill="#000000">open_issues </text>
<text text-anchor="start" x="685.4754" y="-938.9" font-family="Arial" font-size="14.00" fill="#666666">[bigint]</text>
<polygon fill="none" stroke="#000000" points="596,-897.5 596,-927.5 849,-927.5 849,-897.5 596,-897.5"/>
<text text-anchor="start" x="603" y="-908.9" font-family="Arial" font-size="14.00" fill="#000000">has_stars_data </text>
<text text-anchor="start" x="702.5932" y="-908.9" font-family="Arial" font-size="14.00" fill="#666666">[boolean]</text>
<polygon fill="none" stroke="#000000" points="596,-867.5 596,-897.5 849,-897.5 849,-867.5 596,-867.5"/>
<text text-anchor="start" x="603" y="-878.9" font-family="Arial" font-size="14.00" fill="#000000">is_private </text>
<text text-anchor="start" x="666.7854" y="-878.9" font-family="Arial" font-size="14.00" fill="#666666">[boolean]</text>
<polygon fill="none" stroke="#000000" points="596,-837.5 596,-867.5 849,-867.5 849,-837.5 596,-837.5"/>
<text text-anchor="start" x="603" y="-848.9" font-family="Arial" font-size="14.00" fill="#000000">is_open_sauced_member </text>
<text text-anchor="start" x="767.9354" y="-848.9" font-family="Arial" font-size="14.00" fill="#666666">[boolean]</text>
<polygon fill="none" stroke="#000000" points="596,-807.5 596,-837.5 849,-837.5 849,-807.5 596,-807.5"/>
<text text-anchor="start" x="603" y="-818.9" font-family="Arial" font-size="14.00" fill="#000000">created_at </text>
<text text-anchor="start" x="673.028" y="-818.9" font-family="Arial" font-size="14.00" fill="#666666">[timestamp with time zone]</text>
<polygon fill="none" stroke="#000000" points="596,-777.5 596,-807.5 849,-807.5 849,-777.5 596,-777.5"/>
<text text-anchor="start" x="603" y="-788.9" font-family="Arial" font-size="14.00" fill="#000000">login </text>
<text text-anchor="start" x="636.4516" y="-788.9" font-family="Arial" font-size="14.00" fill="#666666">[varchar(255)]</text>
<polygon fill="none" stroke="#000000" points="596,-747.5 596,-777.5 849,-777.5 849,-747.5 596,-747.5"/>
<text text-anchor="start" x="603" y="-758.9" font-family="Arial" font-size="14.00" fill="#000000">deleted_at </text>
<text text-anchor="start" x="672.2566" y="-758.9" font-family="Arial" font-size="14.00" fill="#666666">[timestamp with time zone]</text>
<polygon fill="none" stroke="#000000" points="596,-717.5 596,-747.5 849,-747.5 849,-717.5 596,-717.5"/>
<text text-anchor="start" x="602.6915" y="-728.9" font-family="Arial" font-size="14.00" fill="#000000">updated_at </text>
<text text-anchor="start" x="676.6241" y="-728.9" font-family="Arial" font-size="14.00" fill="#666666">[timestamp with time zone]</text>
<polygon fill="none" stroke="#000000" points="596,-687.5 596,-717.5 849,-717.5 849,-687.5 596,-687.5"/>
<text text-anchor="start" x="603" y="-698.9" font-family="Arial" font-size="14.00" fill="#000000">is_onboarded </text>
<text text-anchor="start" x="691.7012" y="-698.9" font-family="Arial" font-size="14.00" fill="#666666">[boolean]</text>
<polygon fill="none" stroke="#000000" points="596,-657.5 596,-687.5 849,-687.5 849,-657.5 596,-657.5"/>
<text text-anchor="start" x="603" y="-668.9" font-family="Arial" font-size="14.00" fill="#000000">role </text>
<text text-anchor="start" x="630.223" y="-668.9" font-family="Arial" font-size="14.00" fill="#666666">[bigint]</text>
<polygon fill="none" stroke="#000000" points="596,-627.5 596,-657.5 849,-657.5 849,-627.5 596,-627.5"/>
<text text-anchor="start" x="603" y="-638.9" font-family="Arial" font-size="14.00" fill="#000000">is_waitlisted </text>
<text text-anchor="start" x="682.3352" y="-638.9" font-family="Arial" font-size="14.00" fill="#666666">[boolean]</text>
<polygon fill="none" stroke="#000000" points="596,-597.5 596,-627.5 849,-627.5 849,-597.5 596,-597.5"/>
<text text-anchor="start" x="603" y="-608.9" font-family="Arial" font-size="14.00" fill="#000000">email </text>
<text text-anchor="start" x="640.3296" y="-608.9" font-family="Arial" font-size="14.00" fill="#666666">[varchar(255)]</text>
<polygon fill="none" stroke="#000000" points="596,-567.5 596,-597.5 849,-597.5 849,-567.5 596,-567.5"/>
<text text-anchor="start" x="603" y="-578.9" font-family="Arial" font-size="14.00" fill="#000000">bio </text>
<text text-anchor="start" x="625.5624" y="-578.9" font-family="Arial" font-size="14.00" fill="#666666">[varchar(255)]</text>
<polygon fill="none" stroke="#000000" points="596,-537.5 596,-567.5 849,-567.5 849,-537.5 596,-537.5"/>
<text text-anchor="start" x="603" y="-548.9" font-family="Arial" font-size="14.00" fill="#000000">name </text>
<text text-anchor="start" x="641.899" y="-548.9" font-family="Arial" font-size="14.00" fill="#666666">[varchar(100)]</text>
<polygon fill="none" stroke="#000000" points="596,-507.5 596,-537.5 849,-537.5 849,-507.5 596,-507.5"/>
<text text-anchor="start" x="603" y="-518.9" font-family="Arial" font-size="14.00" fill="#000000">twitter_username </text>
<text text-anchor="start" x="714.2356" y="-518.9" font-family="Arial" font-size="14.00" fill="#666666">[varchar(15)]</text>
<polygon fill="none" stroke="#000000" points="596,-477.5 596,-507.5 849,-507.5 849,-477.5 596,-477.5"/>
<text text-anchor="start" x="603" y="-488.9" font-family="Arial" font-size="14.00" fill="#000000">company </text>
<text text-anchor="start" x="663.6816" y="-488.9" font-family="Arial" font-size="14.00" fill="#666666">[varchar(50)]</text>
<polygon fill="none" stroke="#000000" points="596,-447.5 596,-477.5 849,-477.5 849,-447.5 596,-447.5"/>
<text text-anchor="start" x="603" y="-458.9" font-family="Arial" font-size="14.00" fill="#000000">location </text>
<text text-anchor="start" x="655.1248" y="-458.9" font-family="Arial" font-size="14.00" fill="#666666">[varchar(50)]</text>
<polygon fill="none" stroke="#000000" points="596,-417.5 596,-447.5 849,-447.5 849,-417.5 596,-417.5"/>
<text text-anchor="start" x="603" y="-428.9" font-family="Arial" font-size="14.00" fill="#000000">display_local_time </text>
<text text-anchor="start" x="721.2356" y="-428.9" font-family="Arial" font-size="14.00" fill="#666666">[boolean]</text>
<polygon fill="none" stroke="#000000" points="596,-387.5 596,-417.5 849,-417.5 849,-387.5 596,-387.5"/>
<text text-anchor="start" x="603" y="-398.9" font-family="Arial" font-size="14.00" fill="#000000">timezone </text>
<text text-anchor="start" x="663.6788" y="-398.9" font-family="Arial" font-size="14.00" fill="#666666">[varchar(30)]</text>
<polygon fill="none" stroke="#000000" points="596,-357.5 596,-387.5 849,-387.5 849,-357.5 596,-357.5"/>
<text text-anchor="start" x="603" y="-368.9" font-family="Arial" font-size="14.00" fill="#000000">interests </text>
<text text-anchor="start" x="659.7868" y="-368.9" font-family="Arial" font-size="14.00" fill="#666666">[varchar(200)]</text>
</g>
<!-- public.users_to_repos_stars&#45;&gt;public.users -->
<g id="edge1" class="edge">
<title>public.users_to_repos_stars:user_id&#45;&gt;public.users:id</title>
<path fill="none" stroke="#000000" d="M1465.825,-1638.8977C1382.8805,-1628.2901 1496.0052,-1480.3596 1421,-1417 1338.7785,-1347.5445 1019.2477,-1451.5922 938,-1381 797.7338,-1259.1294 1034.8146,-972.5 849,-972.5"/>
<polygon fill="#000000" stroke="#000000" points="1466.0175,-1638.909 1475.734,-1643.9921 1471.0087,-1639.2045 1476,-1639.5 1476,-1639.5 1476,-1639.5 1471.0087,-1639.2045 1476.266,-1635.0079 1466.0175,-1638.909 1466.0175,-1638.909"/>
<text text-anchor="start" x="1246.3345" y="-1649.5" font-family="Arial" font-size="10.00" fill="#000000">FOREIGN KEY (user_id) REFERENCES users(id)</text>
</g>
<!-- public.repos -->
<g id="node6" class="node">
<title>public.repos</title>
<polygon fill="#efefef" stroke="transparent" points="990,-1302.5 990,-1337.5 1368,-1337.5 1368,-1302.5 990,-1302.5"/>
<polygon fill="none" stroke="#000000" points="990,-1302.5 990,-1337.5 1368,-1337.5 1368,-1302.5 990,-1302.5"/>
<text text-anchor="start" x="1081.8631" y="-1315.3" font-family="Arial Bold" font-size="18.00" fill="#000000">public.repos</text>
<text text-anchor="start" x="1178.8831" y="-1315.3" font-family="Arial" font-size="14.00" fill="#000000"> </text>
<text text-anchor="start" x="1182.7737" y="-1315.3" font-family="Arial" font-size="14.00" fill="#666666">[BASE TABLE]</text>
<polygon fill="none" stroke="#000000" points="990,-1272.5 990,-1302.5 1368,-1302.5 1368,-1272.5 990,-1272.5"/>
<text text-anchor="start" x="997" y="-1283.9" font-family="Arial" font-size="14.00" fill="#000000">id </text>
<text text-anchor="start" x="1011.7798" y="-1283.9" font-family="Arial" font-size="14.00" fill="#666666">[bigint]</text>
<polygon fill="none" stroke="#000000" points="990,-1242.5 990,-1272.5 1368,-1272.5 1368,-1242.5 990,-1242.5"/>
<text text-anchor="start" x="997" y="-1253.9" font-family="Arial" font-size="14.00" fill="#000000">user_id </text>
<text text-anchor="start" x="1046.7882" y="-1253.9" font-family="Arial" font-size="14.00" fill="#666666">[bigint]</text>
<polygon fill="none" stroke="#000000" points="990,-1212.5 990,-1242.5 1368,-1242.5 1368,-1212.5 990,-1212.5"/>
<text text-anchor="start" x="997" y="-1223.9" font-family="Arial" font-size="14.00" fill="#000000">issues </text>
<text text-anchor="start" x="1040.5624" y="-1223.9" font-family="Arial" font-size="14.00" fill="#666666">[bigint]</text>
<polygon fill="none" stroke="#000000" points="990,-1182.5 990,-1212.5 1368,-1212.5 1368,-1182.5 990,-1182.5"/>
<text text-anchor="start" x="997" y="-1193.9" font-family="Arial" font-size="14.00" fill="#000000">stars </text>
<text text-anchor="start" x="1031.2244" y="-1193.9" font-family="Arial" font-size="14.00" fill="#666666">[bigint]</text>
<polygon fill="none" stroke="#000000" points="990,-1152.5 990,-1182.5 1368,-1182.5 1368,-1152.5 990,-1152.5"/>
<text text-anchor="start" x="997" y="-1163.9" font-family="Arial" font-size="14.00" fill="#000000">watchers </text>
<text text-anchor="start" x="1056.8962" y="-1163.9" font-family="Arial" font-size="14.00" fill="#666666">[bigint]</text>
<polygon fill="none" stroke="#000000" points="990,-1122.5 990,-1152.5 1368,-1152.5 1368,-1122.5 990,-1122.5"/>
<text text-anchor="start" x="997" y="-1133.9" font-family="Arial" font-size="14.00" fill="#000000">subscribers </text>
<text text-anchor="start" x="1072.4488" y="-1133.9" font-family="Arial" font-size="14.00" fill="#666666">[bigint]</text>
<polygon fill="none" stroke="#000000" points="990,-1092.5 990,-1122.5 1368,-1122.5 1368,-1092.5 990,-1092.5"/>
<text text-anchor="start" x="997" y="-1103.9" font-family="Arial" font-size="14.00" fill="#000000">is_fork </text>
<text text-anchor="start" x="1042.1136" y="-1103.9" font-family="Arial" font-size="14.00" fill="#666666">[boolean]</text>
<polygon fill="none" stroke="#000000" points="990,-1062.5 990,-1092.5 1368,-1092.5 1368,-1062.5 990,-1062.5"/>
<text text-anchor="start" x="997" y="-1073.9" font-family="Arial" font-size="14.00" fill="#000000">created_at </text>
<text text-anchor="start" x="1067.028" y="-1073.9" font-family="Arial" font-size="14.00" fill="#666666">[timestamp without time zone]</text>
<polygon fill="none" stroke="#000000" points="990,-1032.5 990,-1062.5 1368,-1062.5 1368,-1032.5 990,-1032.5"/>
<text text-anchor="start" x="997" y="-1043.9" font-family="Arial" font-size="14.00" fill="#000000">updated_at </text>
<text text-anchor="start" x="1070.9326" y="-1043.9" font-family="Arial" font-size="14.00" fill="#666666">[timestamp without time zone]</text>
<polygon fill="none" stroke="#000000" points="990,-1002.5 990,-1032.5 1368,-1032.5 1368,-1002.5 990,-1002.5"/>
<text text-anchor="start" x="997" y="-1013.9" font-family="Arial" font-size="14.00" fill="#000000">pushed_at </text>
<text text-anchor="start" x="1066.2594" y="-1013.9" font-family="Arial" font-size="14.00" fill="#666666">[timestamp without time zone]</text>
<polygon fill="none" stroke="#000000" points="990,-972.5 990,-1002.5 1368,-1002.5 1368,-972.5 990,-972.5"/>
<text text-anchor="start" x="996.5674" y="-983.9" font-family="Arial" font-size="14.00" fill="#000000">last_fetched_contributors_at </text>
<text text-anchor="start" x="1176.2924" y="-983.9" font-family="Arial" font-size="14.00" fill="#666666">[timestamp without time zone]</text>
<polygon fill="none" stroke="#000000" points="990,-942.5 990,-972.5 1368,-972.5 1368,-942.5 990,-942.5"/>
<text text-anchor="start" x="997" y="-953.9" font-family="Arial" font-size="14.00" fill="#000000">name </text>
<text text-anchor="start" x="1035.899" y="-953.9" font-family="Arial" font-size="14.00" fill="#666666">[varchar(255)]</text>
<polygon fill="none" stroke="#000000" points="990,-912.5 990,-942.5 1368,-942.5 1368,-912.5 990,-912.5"/>
<text text-anchor="start" x="997" y="-923.9" font-family="Arial" font-size="14.00" fill="#000000">full_name </text>
<text text-anchor="start" x="1061.568" y="-923.9" font-family="Arial" font-size="14.00" fill="#666666">[varchar(255)]</text>
<polygon fill="none" stroke="#000000" points="990,-882.5 990,-912.5 1368,-912.5 1368,-882.5 990,-882.5"/>
<text text-anchor="start" x="997" y="-893.9" font-family="Arial" font-size="14.00" fill="#000000">description </text>
<text text-anchor="start" x="1068.568" y="-893.9" font-family="Arial" font-size="14.00" fill="#666666">[text]</text>
<polygon fill="none" stroke="#000000" points="990,-852.5 990,-882.5 1368,-882.5 1368,-852.5 990,-852.5"/>
<text text-anchor="start" x="997" y="-863.9" font-family="Arial" font-size="14.00" fill="#000000">language </text>
<text text-anchor="start" x="1058.4754" y="-863.9" font-family="Arial" font-size="14.00" fill="#666666">[varchar(64)]</text>
<polygon fill="none" stroke="#000000" points="990,-822.5 990,-852.5 1368,-852.5 1368,-822.5 990,-822.5"/>
<text text-anchor="start" x="997" y="-833.9" font-family="Arial" font-size="14.00" fill="#000000">license </text>
<text text-anchor="start" x="1044.4516" y="-833.9" font-family="Arial" font-size="14.00" fill="#666666">[varchar(64)]</text>
<polygon fill="none" stroke="#000000" points="990,-792.5 990,-822.5 1368,-822.5 1368,-792.5 990,-792.5"/>
<text text-anchor="start" x="997" y="-803.9" font-family="Arial" font-size="14.00" fill="#000000">url </text>
<text text-anchor="start" x="1016.4404" y="-803.9" font-family="Arial" font-size="14.00" fill="#666666">[varchar(255)]</text>
<polygon fill="none" stroke="#000000" points="990,-762.5 990,-792.5 1368,-792.5 1368,-762.5 990,-762.5"/>
<text text-anchor="start" x="997" y="-773.9" font-family="Arial" font-size="14.00" fill="#000000">deleted_at </text>
<text text-anchor="start" x="1066.2566" y="-773.9" font-family="Arial" font-size="14.00" fill="#666666">[timestamp with time zone]</text>
<polygon fill="none" stroke="#000000" points="990,-732.5 990,-762.5 1368,-762.5 1368,-732.5 990,-732.5"/>
<text text-anchor="start" x="997" y="-743.9" font-family="Arial" font-size="14.00" fill="#000000">last_fetched_repos_at </text>
<text text-anchor="start" x="1138.6114" y="-743.9" font-family="Arial" font-size="14.00" fill="#666666">[timestamp without time zone]</text>
<polygon fill="none" stroke="#000000" points="990,-702.5 990,-732.5 1368,-732.5 1368,-702.5 990,-702.5"/>
<text text-anchor="start" x="997" y="-713.9" font-family="Arial" font-size="14.00" fill="#000000">last_fetched_prs_at </text>
<text text-anchor="start" x="1123.0462" y="-713.9" font-family="Arial" font-size="14.00" fill="#666666">[timestamp without time zone]</text>
<polygon fill="none" stroke="#000000" points="990,-672.5 990,-702.5 1368,-702.5 1368,-672.5 990,-672.5"/>
<text text-anchor="start" x="997" y="-683.9" font-family="Arial" font-size="14.00" fill="#000000">last_fetched_commits_at </text>
<text text-anchor="start" x="1155.704" y="-683.9" font-family="Arial" font-size="14.00" fill="#666666">[timestamp without time zone]</text>
<polygon fill="none" stroke="#000000" points="990,-642.5 990,-672.5 1368,-672.5 1368,-642.5 990,-642.5"/>
<text text-anchor="start" x="997" y="-653.9" font-family="Arial" font-size="14.00" fill="#000000">size </text>
<text text-anchor="start" x="1025.7798" y="-653.9" font-family="Arial" font-size="14.00" fill="#666666">[bigint]</text>
<polygon fill="none" stroke="#000000" points="990,-612.5 990,-642.5 1368,-642.5 1368,-612.5 990,-612.5"/>
<text text-anchor="start" x="997" y="-623.9" font-family="Arial" font-size="14.00" fill="#000000">forks </text>
<text text-anchor="start" x="1031.2244" y="-623.9" font-family="Arial" font-size="14.00" fill="#666666">[bigint]</text>
<polygon fill="none" stroke="#000000" points="990,-582.5 990,-612.5 1368,-612.5 1368,-582.5 990,-582.5"/>
<text text-anchor="start" x="997" y="-593.9" font-family="Arial" font-size="14.00" fill="#000000">network </text>
<text text-anchor="start" x="1049.8962" y="-593.9" font-family="Arial" font-size="14.00" fill="#666666">[bigint]</text>
<polygon fill="none" stroke="#000000" points="990,-552.5 990,-582.5 1368,-582.5 1368,-552.5 990,-552.5"/>
<text text-anchor="start" x="997" y="-563.9" font-family="Arial" font-size="14.00" fill="#000000">is_private </text>
<text text-anchor="start" x="1060.7854" y="-563.9" font-family="Arial" font-size="14.00" fill="#666666">[boolean]</text>
<polygon fill="none" stroke="#000000" points="990,-522.5 990,-552.5 1368,-552.5 1368,-522.5 990,-522.5"/>
<text text-anchor="start" x="997" y="-533.9" font-family="Arial" font-size="14.00" fill="#000000">is_template </text>
<text text-anchor="start" x="1072.4586" y="-533.9" font-family="Arial" font-size="14.00" fill="#666666">[boolean]</text>
<polygon fill="none" stroke="#000000" points="990,-492.5 990,-522.5 1368,-522.5 1368,-492.5 990,-492.5"/>
<text text-anchor="start" x="997" y="-503.9" font-family="Arial" font-size="14.00" fill="#000000">is_archived </text>
<text text-anchor="start" x="1071.6774" y="-503.9" font-family="Arial" font-size="14.00" fill="#666666">[boolean]</text>
<polygon fill="none" stroke="#000000" points="990,-462.5 990,-492.5 1368,-492.5 1368,-462.5 990,-462.5"/>
<text text-anchor="start" x="997" y="-473.9" font-family="Arial" font-size="14.00" fill="#000000">is_disabled </text>
<text text-anchor="start" x="1070.906" y="-473.9" font-family="Arial" font-size="14.00" fill="#666666">[boolean]</text>
<polygon fill="none" stroke="#000000" points="990,-432.5 990,-462.5 1368,-462.5 1368,-432.5 990,-432.5"/>
<text text-anchor="start" x="997" y="-443.9" font-family="Arial" font-size="14.00" fill="#000000">has_issues </text>
<text text-anchor="start" x="1070.9102" y="-443.9" font-family="Arial" font-size="14.00" fill="#666666">[boolean]</text>
<polygon fill="none" stroke="#000000" points="990,-402.5 990,-432.5 1368,-432.5 1368,-402.5 990,-402.5"/>
<text text-anchor="start" x="997" y="-413.9" font-family="Arial" font-size="14.00" fill="#000000">has_projects </text>
<text text-anchor="start" x="1080.244" y="-413.9" font-family="Arial" font-size="14.00" fill="#666666">[boolean]</text>
<polygon fill="none" stroke="#000000" points="990,-372.5 990,-402.5 1368,-402.5 1368,-372.5 990,-372.5"/>
<text text-anchor="start" x="997" y="-383.9" font-family="Arial" font-size="14.00" fill="#000000">has_downloads </text>
<text text-anchor="start" x="1098.1472" y="-383.9" font-family="Arial" font-size="14.00" fill="#666666">[boolean]</text>
<polygon fill="none" stroke="#000000" points="990,-342.5 990,-372.5 1368,-372.5 1368,-342.5 990,-342.5"/>
<text text-anchor="start" x="997" y="-353.9" font-family="Arial" font-size="14.00" fill="#000000">has_wiki </text>
<text text-anchor="start" x="1054.5582" y="-353.9" font-family="Arial" font-size="14.00" fill="#666666">[boolean]</text>
<polygon fill="none" stroke="#000000" points="990,-312.5 990,-342.5 1368,-342.5 1368,-312.5 990,-312.5"/>
<text text-anchor="start" x="997" y="-323.9" font-family="Arial" font-size="14.00" fill="#000000">has_pages </text>
<text text-anchor="start" x="1069.3688" y="-323.9" font-family="Arial" font-size="14.00" fill="#666666">[boolean]</text>
<polygon fill="none" stroke="#000000" points="990,-282.5 990,-312.5 1368,-312.5 1368,-282.5 990,-282.5"/>
<text text-anchor="start" x="997" y="-293.9" font-family="Arial" font-size="14.00" fill="#000000">has_discussions </text>
<text text-anchor="start" x="1103.582" y="-293.9" font-family="Arial" font-size="14.00" fill="#666666">[boolean]</text>
<polygon fill="none" stroke="#000000" points="990,-252.5 990,-282.5 1368,-282.5 1368,-252.5 990,-252.5"/>
<text text-anchor="start" x="997" y="-263.9" font-family="Arial" font-size="14.00" fill="#000000">default_branch </text>
<text text-anchor="start" x="1093.4824" y="-263.9" font-family="Arial" font-size="14.00" fill="#666666">[varchar(255)]</text>
<polygon fill="none" stroke="#000000" points="990,-222.5 990,-252.5 1368,-252.5 1368,-222.5 990,-222.5"/>
<text text-anchor="start" x="997" y="-233.9" font-family="Arial" font-size="14.00" fill="#000000">node_id </text>
<text text-anchor="start" x="1050.6928" y="-233.9" font-family="Arial" font-size="14.00" fill="#666666">[varchar(255)]</text>
<polygon fill="none" stroke="#000000" points="990,-192.5 990,-222.5 1368,-222.5 1368,-192.5 990,-192.5"/>
<text text-anchor="start" x="997" y="-203.9" font-family="Arial" font-size="14.00" fill="#000000">git_url </text>
<text text-anchor="start" x="1039.0028" y="-203.9" font-family="Arial" font-size="14.00" fill="#666666">[varchar(255)]</text>
<polygon fill="none" stroke="#000000" points="990,-162.5 990,-192.5 1368,-192.5 1368,-162.5 990,-162.5"/>
<text text-anchor="start" x="997" y="-173.9" font-family="Arial" font-size="14.00" fill="#000000">ssh_url </text>
<text text-anchor="start" x="1046.0056" y="-173.9" font-family="Arial" font-size="14.00" fill="#666666">[varchar(255)]</text>
<polygon fill="none" stroke="#000000" points="990,-132.5 990,-162.5 1368,-162.5 1368,-132.5 990,-132.5"/>
<text text-anchor="start" x="997" y="-143.9" font-family="Arial" font-size="14.00" fill="#000000">clone_url </text>
<text text-anchor="start" x="1057.6774" y="-143.9" font-family="Arial" font-size="14.00" fill="#666666">[varchar(255)]</text>
<polygon fill="none" stroke="#000000" points="990,-102.5 990,-132.5 1368,-132.5 1368,-102.5 990,-102.5"/>
<text text-anchor="start" x="997" y="-113.9" font-family="Arial" font-size="14.00" fill="#000000">svn_url </text>
<text text-anchor="start" x="1046.0056" y="-113.9" font-family="Arial" font-size="14.00" fill="#666666">[varchar(255)]</text>
<polygon fill="none" stroke="#000000" points="990,-72.5 990,-102.5 1368,-102.5 1368,-72.5 990,-72.5"/>
<text text-anchor="start" x="997" y="-83.9" font-family="Arial" font-size="14.00" fill="#000000">mirror_url </text>
<text text-anchor="start" x="1060.7546" y="-83.9" font-family="Arial" font-size="14.00" fill="#666666">[varchar(255)]</text>
<polygon fill="none" stroke="#000000" points="990,-42.5 990,-72.5 1368,-72.5 1368,-42.5 990,-42.5"/>
<text text-anchor="start" x="997" y="-53.9" font-family="Arial" font-size="14.00" fill="#000000">homepage </text>
<text text-anchor="start" x="1067.0294" y="-53.9" font-family="Arial" font-size="14.00" fill="#666666">[varchar(255)]</text>
</g>
<!-- public.users_to_repos_stars&#45;&gt;public.repos -->
<g id="edge5" class="edge">
<title>public.users_to_repos_stars:repo_id&#45;&gt;public.repos:id</title>
<path fill="none" stroke="#000000" d="M1465.802,-1608.962C1392.0417,-1600.6471 1448.9235,-1497.6314 1421,-1417 1400.649,-1358.2348 1430.1893,-1287.5 1368,-1287.5"/>
<polygon fill="#000000" stroke="#000000" points="1466.0139,-1608.9731 1475.7629,-1613.9938 1471.0069,-1609.2365 1476,-1609.5 1476,-1609.5 1476,-1609.5 1471.0069,-1609.2365 1476.2371,-1605.0062 1466.0139,-1608.9731 1466.0139,-1608.9731"/>
<text text-anchor="start" x="1244.7755" y="-1619.5" font-family="Arial" font-size="10.00" fill="#000000">FOREIGN KEY (repo_id) REFERENCES repos(id)</text>
</g>
<!-- public.users_to_repos_votes -->
<g id="node3" class="node">
<title>public.users_to_repos_votes</title>
<polygon fill="#efefef" stroke="transparent" points="43,-1684.5 43,-1719.5 383,-1719.5 383,-1684.5 43,-1684.5"/>
<polygon fill="none" stroke="#000000" points="43,-1684.5 43,-1719.5 383,-1719.5 383,-1684.5 43,-1684.5"/>
<text text-anchor="start" x="49.84" y="-1697.3" font-family="Arial Bold" font-size="18.00" fill="#000000">public.users_to_repos_votes</text>
<text text-anchor="start" x="278.9062" y="-1697.3" font-family="Arial" font-size="14.00" fill="#000000"> </text>
<text text-anchor="start" x="282.7968" y="-1697.3" font-family="Arial" font-size="14.00" fill="#666666">[BASE TABLE]</text>
<polygon fill="none" stroke="#000000" points="43,-1654.5 43,-1684.5 383,-1684.5 383,-1654.5 43,-1654.5"/>
<text text-anchor="start" x="50" y="-1665.9" font-family="Arial" font-size="14.00" fill="#000000">id </text>
<text text-anchor="start" x="64.7798" y="-1665.9" font-family="Arial" font-size="14.00" fill="#666666">[bigint]</text>
<polygon fill="none" stroke="#000000" points="43,-1624.5 43,-1654.5 383,-1654.5 383,-1624.5 43,-1624.5"/>
<text text-anchor="start" x="50" y="-1635.9" font-family="Arial" font-size="14.00" fill="#000000">user_id </text>
<text text-anchor="start" x="99.7882" y="-1635.9" font-family="Arial" font-size="14.00" fill="#666666">[bigint]</text>
<polygon fill="none" stroke="#000000" points="43,-1594.5 43,-1624.5 383,-1624.5 383,-1594.5 43,-1594.5"/>
<text text-anchor="start" x="50" y="-1605.9" font-family="Arial" font-size="14.00" fill="#000000">repo_id </text>
<text text-anchor="start" x="100.5708" y="-1605.9" font-family="Arial" font-size="14.00" fill="#666666">[bigint]</text>
<polygon fill="none" stroke="#000000" points="43,-1564.5 43,-1594.5 383,-1594.5 383,-1564.5 43,-1564.5"/>
<text text-anchor="start" x="50" y="-1575.9" font-family="Arial" font-size="14.00" fill="#000000">created_at </text>
<text text-anchor="start" x="120.028" y="-1575.9" font-family="Arial" font-size="14.00" fill="#666666">[timestamp with time zone]</text>
<polygon fill="none" stroke="#000000" points="43,-1534.5 43,-1564.5 383,-1564.5 383,-1534.5 43,-1534.5"/>
<text text-anchor="start" x="50" y="-1545.9" font-family="Arial" font-size="14.00" fill="#000000">updated_at </text>
<text text-anchor="start" x="123.9326" y="-1545.9" font-family="Arial" font-size="14.00" fill="#666666">[timestamp with time zone]</text>
<polygon fill="none" stroke="#000000" points="43,-1504.5 43,-1534.5 383,-1534.5 383,-1504.5 43,-1504.5"/>
<text text-anchor="start" x="50" y="-1515.9" font-family="Arial" font-size="14.00" fill="#000000">deleted_at </text>
<text text-anchor="start" x="119.2566" y="-1515.9" font-family="Arial" font-size="14.00" fill="#666666">[timestamp with time zone]</text>
</g>
<!-- public.users_to_repos_votes&#45;&gt;public.users -->
<g id="edge2" class="edge">
<title>public.users_to_repos_votes:user_id&#45;&gt;public.users:id</title>
<path fill="none" stroke="#000000" d="M392.7933,-1637.0259C432.0537,-1615.6749 421.5669,-1462.255 435,-1417 494.7902,-1215.5713 385.8848,-972.5 596,-972.5"/>
<polygon fill="#000000" stroke="#000000" points="392.6954,-1637.0505 381.8977,-1635.1371 387.8477,-1638.2753 383,-1639.5 383,-1639.5 383,-1639.5 387.8477,-1638.2753 384.1023,-1643.8629 392.6954,-1637.0505 392.6954,-1637.0505"/>
<text text-anchor="start" x="271.8345" y="-1623.5" font-family="Arial" font-size="10.00" fill="#000000">FOREIGN KEY (user_id) REFERENCES users(id)</text>
</g>
<!-- public.users_to_repos_votes&#45;&gt;public.repos -->
<g id="edge7" class="edge">
<title>public.users_to_repos_votes:repo_id&#45;&gt;public.repos:id</title>
<path fill="none" stroke="#000000" d="M393.3814,-1608.7641C462.9309,-1597.9639 369.7017,-1471.1255 435,-1417 514.7942,-1350.8588 806.2676,-1425.2268 900,-1381 952.1638,-1356.387 932.321,-1287.5 990,-1287.5"/>
<polygon fill="#000000" stroke="#000000" points="392.975,-1608.7928 382.6818,-1605.0113 387.9875,-1609.1464 383,-1609.5 383,-1609.5 383,-1609.5 387.9875,-1609.1464 383.3182,-1613.9887 392.975,-1608.7928 392.975,-1608.7928"/>
<text text-anchor="start" x="270.7755" y="-1593.5" font-family="Arial" font-size="10.00" fill="#000000">FOREIGN KEY (repo_id) REFERENCES repos(id)</text>
</g>
<!-- public.users_to_repos_submissions -->
<g id="node4" class="node">
<title>public.users_to_repos_submissions</title>
<polygon fill="#efefef" stroke="transparent" points="487,-1699.5 487,-1734.5 883,-1734.5 883,-1699.5 487,-1699.5"/>
<polygon fill="none" stroke="#000000" points="487,-1699.5 487,-1734.5 883,-1734.5 883,-1699.5 487,-1699.5"/>
<text text-anchor="start" x="493.8446" y="-1712.3" font-family="Arial Bold" font-size="18.00" fill="#000000">public.users_to_repos_submissions</text>
<text text-anchor="start" x="778.9016" y="-1712.3" font-family="Arial" font-size="14.00" fill="#000000"> </text>
<text text-anchor="start" x="782.7922" y="-1712.3" font-family="Arial" font-size="14.00" fill="#666666">[BASE TABLE]</text>
<polygon fill="none" stroke="#000000" points="487,-1669.5 487,-1699.5 883,-1699.5 883,-1669.5 487,-1669.5"/>
<text text-anchor="start" x="494" y="-1680.9" font-family="Arial" font-size="14.00" fill="#000000">id </text>
<text text-anchor="start" x="508.7798" y="-1680.9" font-family="Arial" font-size="14.00" fill="#666666">[bigint]</text>
<polygon fill="none" stroke="#000000" points="487,-1639.5 487,-1669.5 883,-1669.5 883,-1639.5 487,-1639.5"/>
<text text-anchor="start" x="494" y="-1650.9" font-family="Arial" font-size="14.00" fill="#000000">user_id </text>
<text text-anchor="start" x="543.7882" y="-1650.9" font-family="Arial" font-size="14.00" fill="#666666">[bigint]</text>
<polygon fill="none" stroke="#000000" points="487,-1609.5 487,-1639.5 883,-1639.5 883,-1609.5 487,-1609.5"/>
<text text-anchor="start" x="494" y="-1620.9" font-family="Arial" font-size="14.00" fill="#000000">repo_id </text>
<text text-anchor="start" x="544.5708" y="-1620.9" font-family="Arial" font-size="14.00" fill="#666666">[bigint]</text>
<polygon fill="none" stroke="#000000" points="487,-1579.5 487,-1609.5 883,-1609.5 883,-1579.5 487,-1579.5"/>
<text text-anchor="start" x="494" y="-1590.9" font-family="Arial" font-size="14.00" fill="#000000">created_at </text>
<text text-anchor="start" x="564.028" y="-1590.9" font-family="Arial" font-size="14.00" fill="#666666">[timestamp with time zone]</text>
<polygon fill="none" stroke="#000000" points="487,-1549.5 487,-1579.5 883,-1579.5 883,-1549.5 487,-1549.5"/>
<text text-anchor="start" x="494" y="-1560.9" font-family="Arial" font-size="14.00" fill="#000000">updated_at </text>
<text text-anchor="start" x="567.9326" y="-1560.9" font-family="Arial" font-size="14.00" fill="#666666">[timestamp with time zone]</text>
<polygon fill="none" stroke="#000000" points="487,-1519.5 487,-1549.5 883,-1549.5 883,-1519.5 487,-1519.5"/>
<text text-anchor="start" x="494" y="-1530.9" font-family="Arial" font-size="14.00" fill="#000000">deleted_at </text>
<text text-anchor="start" x="563.2566" y="-1530.9" font-family="Arial" font-size="14.00" fill="#666666">[timestamp with time zone]</text>
<polygon fill="none" stroke="#000000" points="487,-1489.5 487,-1519.5 883,-1519.5 883,-1489.5 487,-1489.5"/>
<text text-anchor="start" x="494" y="-1500.9" font-family="Arial" font-size="14.00" fill="#000000">is_accepted </text>
<text text-anchor="start" x="572.5834" y="-1500.9" font-family="Arial" font-size="14.00" fill="#666666">[boolean]</text>
</g>
<!-- public.users_to_repos_submissions&#45;&gt;public.users -->
<g id="edge3" class="edge">
<title>public.users_to_repos_submissions:user_id&#45;&gt;public.users:id</title>
<path fill="none" stroke="#000000" d="M893.1081,-1653.9596C970.3543,-1645.1715 911.1121,-1531.0427 883,-1447 804.8162,-1213.2655 349.5359,-972.5 596,-972.5"/>
<polygon fill="#000000" stroke="#000000" points="892.9857,-1653.966 882.7597,-1650.0064 887.9929,-1654.233 883,-1654.5 883,-1654.5 883,-1654.5 887.9929,-1654.233 883.2403,-1658.9936 892.9857,-1653.966 892.9857,-1653.966"/>
<text text-anchor="start" x="890.3345" y="-1664.5" font-family="Arial" font-size="10.00" fill="#000000">FOREIGN KEY (user_id) REFERENCES users(id)</text>
</g>
<!-- public.users_to_repos_submissions&#45;&gt;public.repos -->
<g id="edge8" class="edge">
<title>public.users_to_repos_submissions:repo_id&#45;&gt;public.repos:id</title>
<path fill="none" stroke="#000000" d="M893.3869,-1623.9714C972.5051,-1615.3728 905.9504,-1503.6187 935,-1417 954.883,-1357.7139 927.4686,-1287.5 990,-1287.5"/>
<polygon fill="#000000" stroke="#000000" points="892.9871,-1623.9916 882.7712,-1620.0058 887.9935,-1624.2458 883,-1624.5 883,-1624.5 883,-1624.5 887.9935,-1624.2458 883.2288,-1628.9942 892.9871,-1623.9916 892.9871,-1623.9916"/>
<text text-anchor="start" x="889.7755" y="-1634.5" font-family="Arial" font-size="10.00" fill="#000000">FOREIGN KEY (repo_id) REFERENCES repos(id)</text>
</g>
<!-- public.users_to_repos_stargazers -->
<g id="node5" class="node">
<title>public.users_to_repos_stargazers</title>
<polygon fill="#efefef" stroke="transparent" points="988,-1684.5 988,-1719.5 1369,-1719.5 1369,-1684.5 988,-1684.5"/>
<polygon fill="none" stroke="#000000" points="988,-1684.5 988,-1719.5 1369,-1719.5 1369,-1684.5 988,-1684.5"/>
<text text-anchor="start" x="994.8416" y="-1697.3" font-family="Arial Bold" font-size="18.00" fill="#000000">public.users_to_repos_stargazers</text>
<text text-anchor="start" x="1264.9046" y="-1697.3" font-family="Arial" font-size="14.00" fill="#000000"> </text>
<text text-anchor="start" x="1268.7952" y="-1697.3" font-family="Arial" font-size="14.00" fill="#666666">[BASE TABLE]</text>
<polygon fill="none" stroke="#000000" points="988,-1654.5 988,-1684.5 1369,-1684.5 1369,-1654.5 988,-1654.5"/>
<text text-anchor="start" x="995" y="-1665.9" font-family="Arial" font-size="14.00" fill="#000000">id </text>
<text text-anchor="start" x="1009.7798" y="-1665.9" font-family="Arial" font-size="14.00" fill="#666666">[bigint]</text>
<polygon fill="none" stroke="#000000" points="988,-1624.5 988,-1654.5 1369,-1654.5 1369,-1624.5 988,-1624.5"/>
<text text-anchor="start" x="995" y="-1635.9" font-family="Arial" font-size="14.00" fill="#000000">user_id </text>
<text text-anchor="start" x="1044.7882" y="-1635.9" font-family="Arial" font-size="14.00" fill="#666666">[bigint]</text>
<polygon fill="none" stroke="#000000" points="988,-1594.5 988,-1624.5 1369,-1624.5 1369,-1594.5 988,-1594.5"/>
<text text-anchor="start" x="995" y="-1605.9" font-family="Arial" font-size="14.00" fill="#000000">repo_id </text>
<text text-anchor="start" x="1045.5708" y="-1605.9" font-family="Arial" font-size="14.00" fill="#666666">[bigint]</text>
<polygon fill="none" stroke="#000000" points="988,-1564.5 988,-1594.5 1369,-1594.5 1369,-1564.5 988,-1564.5"/>
<text text-anchor="start" x="995" y="-1575.9" font-family="Arial" font-size="14.00" fill="#000000">created_at </text>
<text text-anchor="start" x="1065.028" y="-1575.9" font-family="Arial" font-size="14.00" fill="#666666">[timestamp without time zone]</text>
<polygon fill="none" stroke="#000000" points="988,-1534.5 988,-1564.5 1369,-1564.5 1369,-1534.5 988,-1534.5"/>
<text text-anchor="start" x="995" y="-1545.9" font-family="Arial" font-size="14.00" fill="#000000">updated_at </text>
<text text-anchor="start" x="1068.9326" y="-1545.9" font-family="Arial" font-size="14.00" fill="#666666">[timestamp without time zone]</text>
<polygon fill="none" stroke="#000000" points="988,-1504.5 988,-1534.5 1369,-1534.5 1369,-1504.5 988,-1504.5"/>
<text text-anchor="start" x="995" y="-1515.9" font-family="Arial" font-size="14.00" fill="#000000">deleted_at </text>
<text text-anchor="start" x="1064.2566" y="-1515.9" font-family="Arial" font-size="14.00" fill="#666666">[timestamp without time zone]</text>
</g>
<!-- public.users_to_repos_stargazers&#45;&gt;public.users -->
<g id="edge4" class="edge">
<title>public.users_to_repos_stargazers:user_id&#45;&gt;public.users:id</title>
<path fill="none" stroke="#000000" d="M980.8561,-1632.4606C942.5768,-1561.1756 884.5598,-972.5 849,-972.5"/>
<polygon fill="#000000" stroke="#000000" points="980.877,-1632.4812 984.8415,-1642.7054 984.4385,-1635.9906 988,-1639.5 988,-1639.5 988,-1639.5 984.4385,-1635.9906 991.1585,-1636.2946 980.877,-1632.4812 980.877,-1632.4812"/>
<text text-anchor="start" x="817.5845" y="-1623.5" font-family="Arial" font-size="10.00" fill="#000000">FOREIGN KEY (user_id) REFERENCES users(id)</text>
</g>
<!-- public.users_to_repos_stargazers&#45;&gt;public.repos -->
<g id="edge9" class="edge">
<title>public.users_to_repos_stargazers:repo_id&#45;&gt;public.repos:id</title>
<path fill="none" stroke="#000000" d="M1379.2875,-1608.5968C1431.7454,-1598.711 1407.892,-1510.0823 1369,-1462 1260.6751,-1328.0775 1098.3249,-1514.9225 990,-1381 963.8662,-1348.6907 948.4444,-1287.5 990,-1287.5"/>
<polygon fill="#000000" stroke="#000000" points="1378.9617,-1608.6253 1368.6064,-1605.0172 1373.9808,-1609.0626 1369,-1609.5 1369,-1609.5 1369,-1609.5 1373.9808,-1609.0626 1369.3936,-1613.9828 1378.9617,-1608.6253 1378.9617,-1608.6253"/>
<text text-anchor="start" x="1256.7755" y="-1593.5" font-family="Arial" font-size="10.00" fill="#000000">FOREIGN KEY (repo_id) REFERENCES repos(id)</text>
</g>
<!-- public.contributions -->
<g id="node7" class="node">
<title>public.contributions</title>
<polygon fill="#efefef" stroke="transparent" points="1920,-1729.5 1920,-1764.5 2219,-1764.5 2219,-1729.5 1920,-1729.5"/>
<polygon fill="none" stroke="#000000" points="1920,-1729.5 1920,-1764.5 2219,-1764.5 2219,-1729.5 1920,-1729.5"/>
<text text-anchor="start" x="1943.8574" y="-1742.3" font-family="Arial Bold" font-size="18.00" fill="#000000">public.contributions</text>
<text text-anchor="start" x="2097.8888" y="-1742.3" font-family="Arial" font-size="14.00" fill="#000000"> </text>
<text text-anchor="start" x="2101.7794" y="-1742.3" font-family="Arial" font-size="14.00" fill="#666666">[BASE TABLE]</text>
<polygon fill="none" stroke="#000000" points="1920,-1699.5 1920,-1729.5 2219,-1729.5 2219,-1699.5 1920,-1699.5"/>
<text text-anchor="start" x="1927" y="-1710.9" font-family="Arial" font-size="14.00" fill="#000000">id </text>
<text text-anchor="start" x="1941.7798" y="-1710.9" font-family="Arial" font-size="14.00" fill="#666666">[bigint]</text>
<polygon fill="none" stroke="#000000" points="1920,-1669.5 1920,-1699.5 2219,-1699.5 2219,-1669.5 1920,-1669.5"/>
<text text-anchor="start" x="1927" y="-1680.9" font-family="Arial" font-size="14.00" fill="#000000">repo_id </text>
<text text-anchor="start" x="1977.5708" y="-1680.9" font-family="Arial" font-size="14.00" fill="#666666">[bigint]</text>
<polygon fill="none" stroke="#000000" points="1920,-1639.5 1920,-1669.5 2219,-1669.5 2219,-1639.5 1920,-1639.5"/>
<text text-anchor="start" x="1927" y="-1650.9" font-family="Arial" font-size="14.00" fill="#000000">count </text>
<text text-anchor="start" x="1965.129" y="-1650.9" font-family="Arial" font-size="14.00" fill="#666666">[bigint]</text>
<polygon fill="none" stroke="#000000" points="1920,-1609.5 1920,-1639.5 2219,-1639.5 2219,-1609.5 1920,-1609.5"/>
<text text-anchor="start" x="1926.7497" y="-1620.9" font-family="Arial" font-size="14.00" fill="#000000">last_merged_at </text>
<text text-anchor="start" x="2027.1101" y="-1620.9" font-family="Arial" font-size="14.00" fill="#666666">[timestamp without time zone]</text>
<polygon fill="none" stroke="#000000" points="1920,-1579.5 1920,-1609.5 2219,-1609.5 2219,-1579.5 1920,-1579.5"/>
<text text-anchor="start" x="1927" y="-1590.9" font-family="Arial" font-size="14.00" fill="#000000">contributor </text>
<text text-anchor="start" x="1997.0126" y="-1590.9" font-family="Arial" font-size="14.00" fill="#666666">[varchar(255)]</text>
<polygon fill="none" stroke="#000000" points="1920,-1549.5 1920,-1579.5 2219,-1579.5 2219,-1549.5 1920,-1549.5"/>
<text text-anchor="start" x="1927" y="-1560.9" font-family="Arial" font-size="14.00" fill="#000000">url </text>
<text text-anchor="start" x="1946.4404" y="-1560.9" font-family="Arial" font-size="14.00" fill="#666666">[varchar(255)]</text>
<polygon fill="none" stroke="#000000" points="1920,-1519.5 1920,-1549.5 2219,-1549.5 2219,-1519.5 1920,-1519.5"/>
<text text-anchor="start" x="1927" y="-1530.9" font-family="Arial" font-size="14.00" fill="#000000">deleted_at </text>
<text text-anchor="start" x="1996.2566" y="-1530.9" font-family="Arial" font-size="14.00" fill="#666666">[timestamp with time zone]</text>
<polygon fill="none" stroke="#000000" points="1920,-1489.5 1920,-1519.5 2219,-1519.5 2219,-1489.5 1920,-1489.5"/>
<text text-anchor="start" x="1927" y="-1500.9" font-family="Arial" font-size="14.00" fill="#000000">updated_at </text>
<text text-anchor="start" x="2000.9326" y="-1500.9" font-family="Arial" font-size="14.00" fill="#666666">[timestamp with time zone]</text>
<polygon fill="none" stroke="#000000" points="1920,-1459.5 1920,-1489.5 2219,-1489.5 2219,-1459.5 1920,-1459.5"/>
<text text-anchor="start" x="1927" y="-1470.9" font-family="Arial" font-size="14.00" fill="#000000">created_at </text>
<text text-anchor="start" x="1997.028" y="-1470.9" font-family="Arial" font-size="14.00" fill="#666666">[timestamp with time zone]</text>
</g>
<!-- public.contributions&#45;&gt;public.repos -->
<g id="edge6" class="edge">
<title>public.contributions:repo_id&#45;&gt;public.repos:id</title>
<path fill="none" stroke="#000000" d="M1909.7279,-1684.0144C1807.7498,-1673.7253 1947.6485,-1502.4946 1867,-1417 1788.3885,-1333.6649 1482.5622,-1287.5 1368,-1287.5"/>
<polygon fill="#000000" stroke="#000000" points="1910.0112,-1684.0277 1919.7875,-1688.995 1915.0056,-1684.2639 1920,-1684.5 1920,-1684.5 1920,-1684.5 1915.0056,-1684.2639 1920.2125,-1680.005 1910.0112,-1684.0277 1910.0112,-1684.0277"/>
<text text-anchor="start" x="1688.7755" y="-1694.5" font-family="Arial" font-size="10.00" fill="#000000">FOREIGN KEY (repo_id) REFERENCES repos(id)</text>
</g>
</g>
</svg>
