<?xml version="1.0" encoding="UTF-8" standalone="no"?>
<!DOCTYPE svg PUBLIC "-//W3C//DTD SVG 1.1//EN"
 "http://www.w3.org/Graphics/SVG/1.1/DTD/svg11.dtd">
<!-- Generated by graphviz version 2.40.1 (20161225.0304)
 -->
<!-- Title: public.users_to_repos_stargazers Pages: 1 -->
<svg width="2269pt" height="1816pt"
 viewBox="0.00 0.00 2268.50 1816.00" xmlns="http://www.w3.org/2000/svg" xmlns:xlink="http://www.w3.org/1999/xlink">
<g id="graph0" class="graph" transform="scale(1 1) rotate(0) translate(4 1812)">
<title>public.users_to_repos_stargazers</title>
<polygon fill="#ffffff" stroke="transparent" points="-4,4 -4,-1812 2264.5,-1812 2264.5,4 -4,4"/>
<!-- public.users_to_repos_stargazers -->
<g id="node1" class="node">
<title>public.users_to_repos_stargazers</title>
<polygon fill="#efefef" stroke="transparent" points="1431,-1684.5 1431,-1719.5 1812,-1719.5 1812,-1684.5 1431,-1684.5"/>
<polygon fill="none" stroke="#000000" points="1431,-1684.5 1431,-1719.5 1812,-1719.5 1812,-1684.5 1431,-1684.5"/>
<text text-anchor="start" x="1437.8416" y="-1697.3" font-family="Arial Bold" font-size="18.00" fill="#000000">public.users_to_repos_stargazers</text>
<text text-anchor="start" x="1707.9046" y="-1697.3" font-family="Arial" font-size="14.00" fill="#000000"> </text>
<text text-anchor="start" x="1711.7952" y="-1697.3" font-family="Arial" font-size="14.00" fill="#666666">[BASE TABLE]</text>
<polygon fill="none" stroke="#000000" points="1431,-1654.5 1431,-1684.5 1812,-1684.5 1812,-1654.5 1431,-1654.5"/>
<text text-anchor="start" x="1438" y="-1665.9" font-family="Arial" font-size="14.00" fill="#000000">id </text>
<text text-anchor="start" x="1452.7798" y="-1665.9" font-family="Arial" font-size="14.00" fill="#666666">[bigint]</text>
<polygon fill="none" stroke="#000000" points="1431,-1624.5 1431,-1654.5 1812,-1654.5 1812,-1624.5 1431,-1624.5"/>
<text text-anchor="start" x="1438" y="-1635.9" font-family="Arial" font-size="14.00" fill="#000000">user_id </text>
<text text-anchor="start" x="1487.7882" y="-1635.9" font-family="Arial" font-size="14.00" fill="#666666">[bigint]</text>
<polygon fill="none" stroke="#000000" points="1431,-1594.5 1431,-1624.5 1812,-1624.5 1812,-1594.5 1431,-1594.5"/>
<text text-anchor="start" x="1438" y="-1605.9" font-family="Arial" font-size="14.00" fill="#000000">repo_id </text>
<text text-anchor="start" x="1488.5708" y="-1605.9" font-family="Arial" font-size="14.00" fill="#666666">[bigint]</text>
<polygon fill="none" stroke="#000000" points="1431,-1564.5 1431,-1594.5 1812,-1594.5 1812,-1564.5 1431,-1564.5"/>
<text text-anchor="start" x="1438" y="-1575.9" font-family="Arial" font-size="14.00" fill="#000000">created_at </text>
<text text-anchor="start" x="1508.028" y="-1575.9" font-family="Arial" font-size="14.00" fill="#666666">[timestamp without time zone]</text>
<polygon fill="none" stroke="#000000" points="1431,-1534.5 1431,-1564.5 1812,-1564.5 1812,-1534.5 1431,-1534.5"/>
<text text-anchor="start" x="1438" y="-1545.9" font-family="Arial" font-size="14.00" fill="#000000">updated_at </text>
<text text-anchor="start" x="1511.9326" y="-1545.9" font-family="Arial" font-size="14.00" fill="#666666">[timestamp without time zone]</text>
<polygon fill="none" stroke="#000000" points="1431,-1504.5 1431,-1534.5 1812,-1534.5 1812,-1504.5 1431,-1504.5"/>
<text text-anchor="start" x="1438" y="-1515.9" font-family="Arial" font-size="14.00" fill="#000000">deleted_at </text>
<text text-anchor="start" x="1507.2566" y="-1515.9" font-family="Arial" font-size="14.00" fill="#666666">[timestamp without time zone]</text>
<polygon fill="none" stroke="#000000" stroke-width="3" points="1429,-1503.5 1429,-1721.5 1813,-1721.5 1813,-1503.5 1429,-1503.5"/>
</g>
<!-- public.users -->
<g id="node2" class="node">
<title>public.users</title>
<polygon fill="#efefef" stroke="transparent" points="553,-987.5 553,-1022.5 806,-1022.5 806,-987.5 553,-987.5"/>
<polygon fill="none" stroke="#000000" points="553,-987.5 553,-1022.5 806,-1022.5 806,-987.5 553,-987.5"/>
<text text-anchor="start" x="582.8662" y="-1000.3" font-family="Arial Bold" font-size="18.00" fill="#000000">public.users</text>
<text text-anchor="start" x="678.88" y="-1000.3" font-family="Arial" font-size="14.00" fill="#000000"> </text>
<text text-anchor="start" x="682.7706" y="-1000.3" font-family="Arial" font-size="14.00" fill="#666666">[BASE TABLE]</text>
<polygon fill="none" stroke="#000000" points="553,-957.5 553,-987.5 806,-987.5 806,-957.5 553,-957.5"/>
<text text-anchor="start" x="560" y="-968.9" font-family="Arial" font-size="14.00" fill="#000000">id </text>
<text text-anchor="start" x="574.7798" y="-968.9" font-family="Arial" font-size="14.00" fill="#666666">[bigint]</text>
<polygon fill="none" stroke="#000000" points="553,-927.5 553,-957.5 806,-957.5 806,-927.5 553,-927.5"/>
<text text-anchor="start" x="560" y="-938.9" font-family="Arial" font-size="14.00" fill="#000000">open_issues </text>
<text text-anchor="start" x="642.4754" y="-938.9" font-family="Arial" font-size="14.00" fill="#666666">[bigint]</text>
<polygon fill="none" stroke="#000000" points="553,-897.5 553,-927.5 806,-927.5 806,-897.5 553,-897.5"/>
<text text-anchor="start" x="560" y="-908.9" font-family="Arial" font-size="14.00" fill="#000000">has_stars_data </text>
<text text-anchor="start" x="659.5932" y="-908.9" font-family="Arial" font-size="14.00" fill="#666666">[boolean]</text>
<polygon fill="none" stroke="#000000" points="553,-867.5 553,-897.5 806,-897.5 806,-867.5 553,-867.5"/>
<text text-anchor="start" x="560" y="-878.9" font-family="Arial" font-size="14.00" fill="#000000">is_private </text>
<text text-anchor="start" x="623.7854" y="-878.9" font-family="Arial" font-size="14.00" fill="#666666">[boolean]</text>
<polygon fill="none" stroke="#000000" points="553,-837.5 553,-867.5 806,-867.5 806,-837.5 553,-837.5"/>
<text text-anchor="start" x="560" y="-848.9" font-family="Arial" font-size="14.00" fill="#000000">is_open_sauced_member </text>
<text text-anchor="start" x="724.9354" y="-848.9" font-family="Arial" font-size="14.00" fill="#666666">[boolean]</text>
<polygon fill="none" stroke="#000000" points="553,-807.5 553,-837.5 806,-837.5 806,-807.5 553,-807.5"/>
<text text-anchor="start" x="560" y="-818.9" font-family="Arial" font-size="14.00" fill="#000000">created_at </text>
<text text-anchor="start" x="630.028" y="-818.9" font-family="Arial" font-size="14.00" fill="#666666">[timestamp with time zone]</text>
<polygon fill="none" stroke="#000000" points="553,-777.5 553,-807.5 806,-807.5 806,-777.5 553,-777.5"/>
<text text-anchor="start" x="560" y="-788.9" font-family="Arial" font-size="14.00" fill="#000000">login </text>
<text text-anchor="start" x="593.4516" y="-788.9" font-family="Arial" font-size="14.00" fill="#666666">[varchar(255)]</text>
<polygon fill="none" stroke="#000000" points="553,-747.5 553,-777.5 806,-777.5 806,-747.5 553,-747.5"/>
<text text-anchor="start" x="560" y="-758.9" font-family="Arial" font-size="14.00" fill="#000000">deleted_at </text>
<text text-anchor="start" x="629.2566" y="-758.9" font-family="Arial" font-size="14.00" fill="#666666">[timestamp with time zone]</text>
<polygon fill="none" stroke="#000000" points="553,-717.5 553,-747.5 806,-747.5 806,-717.5 553,-717.5"/>
<text text-anchor="start" x="559.6915" y="-728.9" font-family="Arial" font-size="14.00" fill="#000000">updated_at </text>
<text text-anchor="start" x="633.6241" y="-728.9" font-family="Arial" font-size="14.00" fill="#666666">[timestamp with time zone]</text>
<polygon fill="none" stroke="#000000" points="553,-687.5 553,-717.5 806,-717.5 806,-687.5 553,-687.5"/>
<text text-anchor="start" x="560" y="-698.9" font-family="Arial" font-size="14.00" fill="#000000">is_onboarded </text>
<text text-anchor="start" x="648.7012" y="-698.9" font-family="Arial" font-size="14.00" fill="#666666">[boolean]</text>
<polygon fill="none" stroke="#000000" points="553,-657.5 553,-687.5 806,-687.5 806,-657.5 553,-657.5"/>
<text text-anchor="start" x="560" y="-668.9" font-family="Arial" font-size="14.00" fill="#000000">role </text>
<text text-anchor="start" x="587.223" y="-668.9" font-family="Arial" font-size="14.00" fill="#666666">[bigint]</text>
<polygon fill="none" stroke="#000000" points="553,-627.5 553,-657.5 806,-657.5 806,-627.5 553,-627.5"/>
<text text-anchor="start" x="560" y="-638.9" font-family="Arial" font-size="14.00" fill="#000000">is_waitlisted </text>
<text text-anchor="start" x="639.3352" y="-638.9" font-family="Arial" font-size="14.00" fill="#666666">[boolean]</text>
<polygon fill="none" stroke="#000000" points="553,-597.5 553,-627.5 806,-627.5 806,-597.5 553,-597.5"/>
<text text-anchor="start" x="560" y="-608.9" font-family="Arial" font-size="14.00" fill="#000000">email </text>
<text text-anchor="start" x="597.3296" y="-608.9" font-family="Arial" font-size="14.00" fill="#666666">[varchar(255)]</text>
<polygon fill="none" stroke="#000000" points="553,-567.5 553,-597.5 806,-597.5 806,-567.5 553,-567.5"/>
<text text-anchor="start" x="560" y="-578.9" font-family="Arial" font-size="14.00" fill="#000000">bio </text>
<text text-anchor="start" x="582.5624" y="-578.9" font-family="Arial" font-size="14.00" fill="#666666">[varchar(255)]</text>
<polygon fill="none" stroke="#000000" points="553,-537.5 553,-567.5 806,-567.5 806,-537.5 553,-537.5"/>
<text text-anchor="start" x="560" y="-548.9" font-family="Arial" font-size="14.00" fill="#000000">name </text>
<text text-anchor="start" x="598.899" y="-548.9" font-family="Arial" font-size="14.00" fill="#666666">[varchar(100)]</text>
<polygon fill="none" stroke="#000000" points="553,-507.5 553,-537.5 806,-537.5 806,-507.5 553,-507.5"/>
<text text-anchor="start" x="560" y="-518.9" font-family="Arial" font-size="14.00" fill="#000000">twitter_username </text>
<text text-anchor="start" x="671.2356" y="-518.9" font-family="Arial" font-size="14.00" fill="#666666">[varchar(15)]</text>
<polygon fill="none" stroke="#000000" points="553,-477.5 553,-507.5 806,-507.5 806,-477.5 553,-477.5"/>
<text text-anchor="start" x="560" y="-488.9" font-family="Arial" font-size="14.00" fill="#000000">company </text>
<text text-anchor="start" x="620.6816" y="-488.9" font-family="Arial" font-size="14.00" fill="#666666">[varchar(50)]</text>
<polygon fill="none" stroke="#000000" points="553,-447.5 553,-477.5 806,-477.5 806,-447.5 553,-447.5"/>
<text text-anchor="start" x="560" y="-458.9" font-family="Arial" font-size="14.00" fill="#000000">location </text>
<text text-anchor="start" x="612.1248" y="-458.9" font-family="Arial" font-size="14.00" fill="#666666">[varchar(50)]</text>
<polygon fill="none" stroke="#000000" points="553,-417.5 553,-447.5 806,-447.5 806,-417.5 553,-417.5"/>
<text text-anchor="start" x="560" y="-428.9" font-family="Arial" font-size="14.00" fill="#000000">display_local_time </text>
<text text-anchor="start" x="678.2356" y="-428.9" font-family="Arial" font-size="14.00" fill="#666666">[boolean]</text>
<polygon fill="none" stroke="#000000" points="553,-387.5 553,-417.5 806,-417.5 806,-387.5 553,-387.5"/>
<text text-anchor="start" x="560" y="-398.9" font-family="Arial" font-size="14.00" fill="#000000">timezone </text>
<text text-anchor="start" x="620.6788" y="-398.9" font-family="Arial" font-size="14.00" fill="#666666">[varchar(30)]</text>
<polygon fill="none" stroke="#000000" points="553,-357.5 553,-387.5 806,-387.5 806,-357.5 553,-357.5"/>
<text text-anchor="start" x="560" y="-368.9" font-family="Arial" font-size="14.00" fill="#000000">interests </text>
<text text-anchor="start" x="616.7868" y="-368.9" font-family="Arial" font-size="14.00" fill="#666666">[varchar(200)]</text>
</g>
<!-- public.users_to_repos_stargazers&#45;&gt;public.users -->
<g id="edge1" class="edge">
<title>public.users_to_repos_stargazers:user_id&#45;&gt;public.users:id</title>
<path fill="none" stroke="#000000" d="M1420.8114,-1638.8971C1337.7278,-1628.2802 1450.2566,-1480.2221 1375,-1417 1291.2324,-1346.628 965.6958,-1453.767 884,-1381 745.9768,-1258.0618 990.8356,-972.5 806,-972.5"/>
<polygon fill="#000000" stroke="#000000" points="1421.0175,-1638.9092 1430.7342,-1643.9921 1426.0087,-1639.2046 1431,-1639.5 1431,-1639.5 1431,-1639.5 1426.0087,-1639.2046 1431.2658,-1635.0079 1421.0175,-1638.9092 1421.0175,-1638.9092"/>
<text text-anchor="start" x="1201.3345" y="-1649.5" font-family="Arial" font-size="10.00" fill="#000000">FOREIGN KEY (user_id) REFERENCES users(id)</text>
</g>
<!-- public.repos -->
<g id="node6" class="node">
<title>public.repos</title>
<polygon fill="#efefef" stroke="transparent" points="936,-1302.5 936,-1337.5 1314,-1337.5 1314,-1302.5 936,-1302.5"/>
<polygon fill="none" stroke="#000000" points="936,-1302.5 936,-1337.5 1314,-1337.5 1314,-1302.5 936,-1302.5"/>
<text text-anchor="start" x="1027.8631" y="-1315.3" font-family="Arial Bold" font-size="18.00" fill="#000000">public.repos</text>
<text text-anchor="start" x="1124.8831" y="-1315.3" font-family="Arial" font-size="14.00" fill="#000000"> </text>
<text text-anchor="start" x="1128.7737" y="-1315.3" font-family="Arial" font-size="14.00" fill="#666666">[BASE TABLE]</text>
<polygon fill="none" stroke="#000000" points="936,-1272.5 936,-1302.5 1314,-1302.5 1314,-1272.5 936,-1272.5"/>
<text text-anchor="start" x="943" y="-1283.9" font-family="Arial" font-size="14.00" fill="#000000">id </text>
<text text-anchor="start" x="957.7798" y="-1283.9" font-family="Arial" font-size="14.00" fill="#666666">[bigint]</text>
<polygon fill="none" stroke="#000000" points="936,-1242.5 936,-1272.5 1314,-1272.5 1314,-1242.5 936,-1242.5"/>
<text text-anchor="start" x="943" y="-1253.9" font-family="Arial" font-size="14.00" fill="#000000">user_id </text>
<text text-anchor="start" x="992.7882" y="-1253.9" font-family="Arial" font-size="14.00" fill="#666666">[bigint]</text>
<polygon fill="none" stroke="#000000" points="936,-1212.5 936,-1242.5 1314,-1242.5 1314,-1212.5 936,-1212.5"/>
<text text-anchor="start" x="943" y="-1223.9" font-family="Arial" font-size="14.00" fill="#000000">issues </text>
<text text-anchor="start" x="986.5624" y="-1223.9" font-family="Arial" font-size="14.00" fill="#666666">[bigint]</text>
<polygon fill="none" stroke="#000000" points="936,-1182.5 936,-1212.5 1314,-1212.5 1314,-1182.5 936,-1182.5"/>
<text text-anchor="start" x="943" y="-1193.9" font-family="Arial" font-size="14.00" fill="#000000">stars </text>
<text text-anchor="start" x="977.2244" y="-1193.9" font-family="Arial" font-size="14.00" fill="#666666">[bigint]</text>
<polygon fill="none" stroke="#000000" points="936,-1152.5 936,-1182.5 1314,-1182.5 1314,-1152.5 936,-1152.5"/>
<text text-anchor="start" x="943" y="-1163.9" font-family="Arial" font-size="14.00" fill="#000000">watchers </text>
<text text-anchor="start" x="1002.8962" y="-1163.9" font-family="Arial" font-size="14.00" fill="#666666">[bigint]</text>
<polygon fill="none" stroke="#000000" points="936,-1122.5 936,-1152.5 1314,-1152.5 1314,-1122.5 936,-1122.5"/>
<text text-anchor="start" x="943" y="-1133.9" font-family="Arial" font-size="14.00" fill="#000000">subscribers </text>
<text text-anchor="start" x="1018.4488" y="-1133.9" font-family="Arial" font-size="14.00" fill="#666666">[bigint]</text>
<polygon fill="none" stroke="#000000" points="936,-1092.5 936,-1122.5 1314,-1122.5 1314,-1092.5 936,-1092.5"/>
<text text-anchor="start" x="943" y="-1103.9" font-family="Arial" font-size="14.00" fill="#000000">is_fork </text>
<text text-anchor="start" x="988.1136" y="-1103.9" font-family="Arial" font-size="14.00" fill="#666666">[boolean]</text>
<polygon fill="none" stroke="#000000" points="936,-1062.5 936,-1092.5 1314,-1092.5 1314,-1062.5 936,-1062.5"/>
<text text-anchor="start" x="943" y="-1073.9" font-family="Arial" font-size="14.00" fill="#000000">created_at </text>
<text text-anchor="start" x="1013.028" y="-1073.9" font-family="Arial" font-size="14.00" fill="#666666">[timestamp without time zone]</text>
<polygon fill="none" stroke="#000000" points="936,-1032.5 936,-1062.5 1314,-1062.5 1314,-1032.5 936,-1032.5"/>
<text text-anchor="start" x="943" y="-1043.9" font-family="Arial" font-size="14.00" fill="#000000">updated_at </text>
<text text-anchor="start" x="1016.9326" y="-1043.9" font-family="Arial" font-size="14.00" fill="#666666">[timestamp without time zone]</text>
<polygon fill="none" stroke="#000000" points="936,-1002.5 936,-1032.5 1314,-1032.5 1314,-1002.5 936,-1002.5"/>
<text text-anchor="start" x="943" y="-1013.9" font-family="Arial" font-size="14.00" fill="#000000">pushed_at </text>
<text text-anchor="start" x="1012.2594" y="-1013.9" font-family="Arial" font-size="14.00" fill="#666666">[timestamp without time zone]</text>
<polygon fill="none" stroke="#000000" points="936,-972.5 936,-1002.5 1314,-1002.5 1314,-972.5 936,-972.5"/>
<text text-anchor="start" x="942.5674" y="-983.9" font-family="Arial" font-size="14.00" fill="#000000">last_fetched_contributors_at </text>
<text text-anchor="start" x="1122.2924" y="-983.9" font-family="Arial" font-size="14.00" fill="#666666">[timestamp without time zone]</text>
<polygon fill="none" stroke="#000000" points="936,-942.5 936,-972.5 1314,-972.5 1314,-942.5 936,-942.5"/>
<text text-anchor="start" x="943" y="-953.9" font-family="Arial" font-size="14.00" fill="#000000">name </text>
<text text-anchor="start" x="981.899" y="-953.9" font-family="Arial" font-size="14.00" fill="#666666">[varchar(255)]</text>
<polygon fill="none" stroke="#000000" points="936,-912.5 936,-942.5 1314,-942.5 1314,-912.5 936,-912.5"/>
<text text-anchor="start" x="943" y="-923.9" font-family="Arial" font-size="14.00" fill="#000000">full_name </text>
<text text-anchor="start" x="1007.568" y="-923.9" font-family="Arial" font-size="14.00" fill="#666666">[varchar(255)]</text>
<polygon fill="none" stroke="#000000" points="936,-882.5 936,-912.5 1314,-912.5 1314,-882.5 936,-882.5"/>
<text text-anchor="start" x="943" y="-893.9" font-family="Arial" font-size="14.00" fill="#000000">description </text>
<text text-anchor="start" x="1014.568" y="-893.9" font-family="Arial" font-size="14.00" fill="#666666">[text]</text>
<polygon fill="none" stroke="#000000" points="936,-852.5 936,-882.5 1314,-882.5 1314,-852.5 936,-852.5"/>
<text text-anchor="start" x="943" y="-863.9" font-family="Arial" font-size="14.00" fill="#000000">language </text>
<text text-anchor="start" x="1004.4754" y="-863.9" font-family="Arial" font-size="14.00" fill="#666666">[varchar(64)]</text>
<polygon fill="none" stroke="#000000" points="936,-822.5 936,-852.5 1314,-852.5 1314,-822.5 936,-822.5"/>
<text text-anchor="start" x="943" y="-833.9" font-family="Arial" font-size="14.00" fill="#000000">license </text>
<text text-anchor="start" x="990.4516" y="-833.9" font-family="Arial" font-size="14.00" fill="#666666">[varchar(64)]</text>
<polygon fill="none" stroke="#000000" points="936,-792.5 936,-822.5 1314,-822.5 1314,-792.5 936,-792.5"/>
<text text-anchor="start" x="943" y="-803.9" font-family="Arial" font-size="14.00" fill="#000000">url </text>
<text text-anchor="start" x="962.4404" y="-803.9" font-family="Arial" font-size="14.00" fill="#666666">[varchar(255)]</text>
<polygon fill="none" stroke="#000000" points="936,-762.5 936,-792.5 1314,-792.5 1314,-762.5 936,-762.5"/>
<text text-anchor="start" x="943" y="-773.9" font-family="Arial" font-size="14.00" fill="#000000">deleted_at </text>
<text text-anchor="start" x="1012.2566" y="-773.9" font-family="Arial" font-size="14.00" fill="#666666">[timestamp with time zone]</text>
<polygon fill="none" stroke="#000000" points="936,-732.5 936,-762.5 1314,-762.5 1314,-732.5 936,-732.5"/>
<text text-anchor="start" x="943" y="-743.9" font-family="Arial" font-size="14.00" fill="#000000">last_fetched_repos_at </text>
<text text-anchor="start" x="1084.6114" y="-743.9" font-family="Arial" font-size="14.00" fill="#666666">[timestamp without time zone]</text>
<polygon fill="none" stroke="#000000" points="936,-702.5 936,-732.5 1314,-732.5 1314,-702.5 936,-702.5"/>
<text text-anchor="start" x="943" y="-713.9" font-family="Arial" font-size="14.00" fill="#000000">last_fetched_prs_at </text>
<text text-anchor="start" x="1069.0462" y="-713.9" font-family="Arial" font-size="14.00" fill="#666666">[timestamp without time zone]</text>
<polygon fill="none" stroke="#000000" points="936,-672.5 936,-702.5 1314,-702.5 1314,-672.5 936,-672.5"/>
<text text-anchor="start" x="943" y="-683.9" font-family="Arial" font-size="14.00" fill="#000000">last_fetched_commits_at </text>
<text text-anchor="start" x="1101.704" y="-683.9" font-family="Arial" font-size="14.00" fill="#666666">[timestamp without time zone]</text>
<polygon fill="none" stroke="#000000" points="936,-642.5 936,-672.5 1314,-672.5 1314,-642.5 936,-642.5"/>
<text text-anchor="start" x="943" y="-653.9" font-family="Arial" font-size="14.00" fill="#000000">size </text>
<text text-anchor="start" x="971.7798" y="-653.9" font-family="Arial" font-size="14.00" fill="#666666">[bigint]</text>
<polygon fill="none" stroke="#000000" points="936,-612.5 936,-642.5 1314,-642.5 1314,-612.5 936,-612.5"/>
<text text-anchor="start" x="943" y="-623.9" font-family="Arial" font-size="14.00" fill="#000000">forks </text>
<text text-anchor="start" x="977.2244" y="-623.9" font-family="Arial" font-size="14.00" fill="#666666">[bigint]</text>
<polygon fill="none" stroke="#000000" points="936,-582.5 936,-612.5 1314,-612.5 1314,-582.5 936,-582.5"/>
<text text-anchor="start" x="943" y="-593.9" font-family="Arial" font-size="14.00" fill="#000000">network </text>
<text text-anchor="start" x="995.8962" y="-593.9" font-family="Arial" font-size="14.00" fill="#666666">[bigint]</text>
<polygon fill="none" stroke="#000000" points="936,-552.5 936,-582.5 1314,-582.5 1314,-552.5 936,-552.5"/>
<text text-anchor="start" x="943" y="-563.9" font-family="Arial" font-size="14.00" fill="#000000">is_private </text>
<text text-anchor="start" x="1006.7854" y="-563.9" font-family="Arial" font-size="14.00" fill="#666666">[boolean]</text>
<polygon fill="none" stroke="#000000" points="936,-522.5 936,-552.5 1314,-552.5 1314,-522.5 936,-522.5"/>
<text text-anchor="start" x="943" y="-533.9" font-family="Arial" font-size="14.00" fill="#000000">is_template </text>
<text text-anchor="start" x="1018.4586" y="-533.9" font-family="Arial" font-size="14.00" fill="#666666">[boolean]</text>
<polygon fill="none" stroke="#000000" points="936,-492.5 936,-522.5 1314,-522.5 1314,-492.5 936,-492.5"/>
<text text-anchor="start" x="943" y="-503.9" font-family="Arial" font-size="14.00" fill="#000000">is_archived </text>
<text text-anchor="start" x="1017.6774" y="-503.9" font-family="Arial" font-size="14.00" fill="#666666">[boolean]</text>
<polygon fill="none" stroke="#000000" points="936,-462.5 936,-492.5 1314,-492.5 1314,-462.5 936,-462.5"/>
<text text-anchor="start" x="943" y="-473.9" font-family="Arial" font-size="14.00" fill="#000000">is_disabled </text>
<text text-anchor="start" x="1016.906" y="-473.9" font-family="Arial" font-size="14.00" fill="#666666">[boolean]</text>
<polygon fill="none" stroke="#000000" points="936,-432.5 936,-462.5 1314,-462.5 1314,-432.5 936,-432.5"/>
<text text-anchor="start" x="943" y="-443.9" font-family="Arial" font-size="14.00" fill="#000000">has_issues </text>
<text text-anchor="start" x="1016.9102" y="-443.9" font-family="Arial" font-size="14.00" fill="#666666">[boolean]</text>
<polygon fill="none" stroke="#000000" points="936,-402.5 936,-432.5 1314,-432.5 1314,-402.5 936,-402.5"/>
<text text-anchor="start" x="943" y="-413.9" font-family="Arial" font-size="14.00" fill="#000000">has_projects </text>
<text text-anchor="start" x="1026.244" y="-413.9" font-family="Arial" font-size="14.00" fill="#666666">[boolean]</text>
<polygon fill="none" stroke="#000000" points="936,-372.5 936,-402.5 1314,-402.5 1314,-372.5 936,-372.5"/>
<text text-anchor="start" x="943" y="-383.9" font-family="Arial" font-size="14.00" fill="#000000">has_downloads </text>
<text text-anchor="start" x="1044.1472" y="-383.9" font-family="Arial" font-size="14.00" fill="#666666">[boolean]</text>
<polygon fill="none" stroke="#000000" points="936,-342.5 936,-372.5 1314,-372.5 1314,-342.5 936,-342.5"/>
<text text-anchor="start" x="943" y="-353.9" font-family="Arial" font-size="14.00" fill="#000000">has_wiki </text>
<text text-anchor="start" x="1000.5582" y="-353.9" font-family="Arial" font-size="14.00" fill="#666666">[boolean]</text>
<polygon fill="none" stroke="#000000" points="936,-312.5 936,-342.5 1314,-342.5 1314,-312.5 936,-312.5"/>
<text text-anchor="start" x="943" y="-323.9" font-family="Arial" font-size="14.00" fill="#000000">has_pages </text>
<text text-anchor="start" x="1015.3688" y="-323.9" font-family="Arial" font-size="14.00" fill="#666666">[boolean]</text>
<polygon fill="none" stroke="#000000" points="936,-282.5 936,-312.5 1314,-312.5 1314,-282.5 936,-282.5"/>
<text text-anchor="start" x="943" y="-293.9" font-family="Arial" font-size="14.00" fill="#000000">has_discussions </text>
<text text-anchor="start" x="1049.582" y="-293.9" font-family="Arial" font-size="14.00" fill="#666666">[boolean]</text>
<polygon fill="none" stroke="#000000" points="936,-252.5 936,-282.5 1314,-282.5 1314,-252.5 936,-252.5"/>
<text text-anchor="start" x="943" y="-263.9" font-family="Arial" font-size="14.00" fill="#000000">default_branch </text>
<text text-anchor="start" x="1039.4824" y="-263.9" font-family="Arial" font-size="14.00" fill="#666666">[varchar(255)]</text>
<polygon fill="none" stroke="#000000" points="936,-222.5 936,-252.5 1314,-252.5 1314,-222.5 936,-222.5"/>
<text text-anchor="start" x="943" y="-233.9" font-family="Arial" font-size="14.00" fill="#000000">node_id </text>
<text text-anchor="start" x="996.6928" y="-233.9" font-family="Arial" font-size="14.00" fill="#666666">[varchar(255)]</text>
<polygon fill="none" stroke="#000000" points="936,-192.5 936,-222.5 1314,-222.5 1314,-192.5 936,-192.5"/>
<text text-anchor="start" x="943" y="-203.9" font-family="Arial" font-size="14.00" fill="#000000">git_url </text>
<text text-anchor="start" x="985.0028" y="-203.9" font-family="Arial" font-size="14.00" fill="#666666">[varchar(255)]</text>
<polygon fill="none" stroke="#000000" points="936,-162.5 936,-192.5 1314,-192.5 1314,-162.5 936,-162.5"/>
<text text-anchor="start" x="943" y="-173.9" font-family="Arial" font-size="14.00" fill="#000000">ssh_url </text>
<text text-anchor="start" x="992.0056" y="-173.9" font-family="Arial" font-size="14.00" fill="#666666">[varchar(255)]</text>
<polygon fill="none" stroke="#000000" points="936,-132.5 936,-162.5 1314,-162.5 1314,-132.5 936,-132.5"/>
<text text-anchor="start" x="943" y="-143.9" font-family="Arial" font-size="14.00" fill="#000000">clone_url </text>
<text text-anchor="start" x="1003.6774" y="-143.9" font-family="Arial" font-size="14.00" fill="#666666">[varchar(255)]</text>
<polygon fill="none" stroke="#000000" points="936,-102.5 936,-132.5 1314,-132.5 1314,-102.5 936,-102.5"/>
<text text-anchor="start" x="943" y="-113.9" font-family="Arial" font-size="14.00" fill="#000000">svn_url </text>
<text text-anchor="start" x="992.0056" y="-113.9" font-family="Arial" font-size="14.00" fill="#666666">[varchar(255)]</text>
<polygon fill="none" stroke="#000000" points="936,-72.5 936,-102.5 1314,-102.5 1314,-72.5 936,-72.5"/>
<text text-anchor="start" x="943" y="-83.9" font-family="Arial" font-size="14.00" fill="#000000">mirror_url </text>
<text text-anchor="start" x="1006.7546" y="-83.9" font-family="Arial" font-size="14.00" fill="#666666">[varchar(255)]</text>
<polygon fill="none" stroke="#000000" points="936,-42.5 936,-72.5 1314,-72.5 1314,-42.5 936,-42.5"/>
<text text-anchor="start" x="943" y="-53.9" font-family="Arial" font-size="14.00" fill="#000000">homepage </text>
<text text-anchor="start" x="1013.0294" y="-53.9" font-family="Arial" font-size="14.00" fill="#666666">[varchar(255)]</text>
</g>
<!-- public.users_to_repos_stargazers&#45;&gt;public.repos -->
<g id="edge5" class="edge">
<title>public.users_to_repos_stargazers:repo_id&#45;&gt;public.repos:id</title>
<path fill="none" stroke="#000000" d="M1420.7949,-1608.9584C1347.0376,-1600.5888 1405.2333,-1496.9203 1375,-1417 1352.4894,-1357.4943 1377.6212,-1287.5 1314,-1287.5"/>
<polygon fill="#000000" stroke="#000000" points="1421.0141,-1608.9699 1430.7615,-1613.9937 1426.007,-1609.235 1431,-1609.5 1431,-1609.5 1431,-1609.5 1426.007,-1609.235 1431.2385,-1605.0063 1421.0141,-1608.9699 1421.0141,-1608.9699"/>
<text text-anchor="start" x="1199.7755" y="-1619.5" font-family="Arial" font-size="10.00" fill="#000000">FOREIGN KEY (repo_id) REFERENCES repos(id)</text>
</g>
<!-- public.users_to_repos_stars -->
<g id="node3" class="node">
<title>public.users_to_repos_stars</title>
<polygon fill="#efefef" stroke="transparent" points="43,-1684.5 43,-1719.5 379,-1719.5 379,-1684.5 43,-1684.5"/>
<polygon fill="none" stroke="#000000" points="43,-1684.5 43,-1719.5 379,-1719.5 379,-1684.5 43,-1684.5"/>
<text text-anchor="start" x="49.847" y="-1697.3" font-family="Arial Bold" font-size="18.00" fill="#000000">public.users_to_repos_stars</text>
<text text-anchor="start" x="274.8992" y="-1697.3" font-family="Arial" font-size="14.00" fill="#000000"> </text>
<text text-anchor="start" x="278.7898" y="-1697.3" font-family="Arial" font-size="14.00" fill="#666666">[BASE TABLE]</text>
<polygon fill="none" stroke="#000000" points="43,-1654.5 43,-1684.5 379,-1684.5 379,-1654.5 43,-1654.5"/>
<text text-anchor="start" x="50" y="-1665.9" font-family="Arial" font-size="14.00" fill="#000000">id </text>
<text text-anchor="start" x="64.7798" y="-1665.9" font-family="Arial" font-size="14.00" fill="#666666">[bigint]</text>
<polygon fill="none" stroke="#000000" points="43,-1624.5 43,-1654.5 379,-1654.5 379,-1624.5 43,-1624.5"/>
<text text-anchor="start" x="50" y="-1635.9" font-family="Arial" font-size="14.00" fill="#000000">user_id </text>
<text text-anchor="start" x="99.7882" y="-1635.9" font-family="Arial" font-size="14.00" fill="#666666">[bigint]</text>
<polygon fill="none" stroke="#000000" points="43,-1594.5 43,-1624.5 379,-1624.5 379,-1594.5 43,-1594.5"/>
<text text-anchor="start" x="50" y="-1605.9" font-family="Arial" font-size="14.00" fill="#000000">repo_id </text>
<text text-anchor="start" x="100.5708" y="-1605.9" font-family="Arial" font-size="14.00" fill="#666666">[bigint]</text>
<polygon fill="none" stroke="#000000" points="43,-1564.5 43,-1594.5 379,-1594.5 379,-1564.5 43,-1564.5"/>
<text text-anchor="start" x="50" y="-1575.9" font-family="Arial" font-size="14.00" fill="#000000">created_at </text>
<text text-anchor="start" x="120.028" y="-1575.9" font-family="Arial" font-size="14.00" fill="#666666">[timestamp with time zone]</text>
<polygon fill="none" stroke="#000000" points="43,-1534.5 43,-1564.5 379,-1564.5 379,-1534.5 43,-1534.5"/>
<text text-anchor="start" x="50" y="-1545.9" font-family="Arial" font-size="14.00" fill="#000000">updated_at </text>
<text text-anchor="start" x="123.9326" y="-1545.9" font-family="Arial" font-size="14.00" fill="#666666">[timestamp with time zone]</text>
<polygon fill="none" stroke="#000000" points="43,-1504.5 43,-1534.5 379,-1534.5 379,-1504.5 43,-1504.5"/>
<text text-anchor="start" x="50" y="-1515.9" font-family="Arial" font-size="14.00" fill="#000000">deleted_at </text>
<text text-anchor="start" x="119.2566" y="-1515.9" font-family="Arial" font-size="14.00" fill="#666666">[timestamp with time zone]</text>
</g>
<!-- public.users_to_repos_stars&#45;&gt;public.users -->
<g id="edge2" class="edge">
<title>public.users_to_repos_stars:user_id&#45;&gt;public.users:id</title>
<path fill="none" stroke="#000000" d="M388.8202,-1637.0333C428.3086,-1615.7451 419.3791,-1462.7538 431,-1417 481.4311,-1218.4428 348.1385,-972.5 553,-972.5"/>
<polygon fill="#000000" stroke="#000000" points="388.6987,-1637.0637 377.9037,-1635.1356 383.8494,-1638.2819 379,-1639.5 379,-1639.5 379,-1639.5 383.8494,-1638.2819 380.0963,-1643.8644 388.6987,-1637.0637 388.6987,-1637.0637"/>
<text text-anchor="start" x="267.8345" y="-1623.5" font-family="Arial" font-size="10.00" fill="#000000">FOREIGN KEY (user_id) REFERENCES users(id)</text>
</g>
<!-- public.users_to_repos_stars&#45;&gt;public.repos -->
<g id="edge7" class="edge">
<title>public.users_to_repos_stars:repo_id&#45;&gt;public.repos:id</title>
<path fill="none" stroke="#000000" d="M389.3824,-1608.7654C458.9473,-1597.9836 365.8927,-1471.3551 431,-1417 503.9296,-1356.1144 772.5911,-1424.5996 857,-1381 905.3355,-1356.0333 881.5973,-1287.5 936,-1287.5"/>
<polygon fill="#000000" stroke="#000000" points="388.9751,-1608.7941 378.6823,-1605.0112 383.9875,-1609.1471 379,-1609.5 379,-1609.5 379,-1609.5 383.9875,-1609.1471 379.3177,-1613.9888 388.9751,-1608.7941 388.9751,-1608.7941"/>
<text text-anchor="start" x="266.7755" y="-1593.5" font-family="Arial" font-size="10.00" fill="#000000">FOREIGN KEY (repo_id) REFERENCES repos(id)</text>
</g>
<!-- public.users_to_repos_votes -->
<g id="node4" class="node">
<title>public.users_to_repos_votes</title>
<polygon fill="#efefef" stroke="transparent" points="483,-1684.5 483,-1719.5 823,-1719.5 823,-1684.5 483,-1684.5"/>
<polygon fill="none" stroke="#000000" points="483,-1684.5 483,-1719.5 823,-1719.5 823,-1684.5 483,-1684.5"/>
<text text-anchor="start" x="489.84" y="-1697.3" font-family="Arial Bold" font-size="18.00" fill="#000000">public.users_to_repos_votes</text>
<text text-anchor="start" x="718.9062" y="-1697.3" font-family="Arial" font-size="14.00" fill="#000000"> </text>
<text text-anchor="start" x="722.7968" y="-1697.3" font-family="Arial" font-size="14.00" fill="#666666">[BASE TABLE]</text>
<polygon fill="none" stroke="#000000" points="483,-1654.5 483,-1684.5 823,-1684.5 823,-1654.5 483,-1654.5"/>
<text text-anchor="start" x="490" y="-1665.9" font-family="Arial" font-size="14.00" fill="#000000">id </text>
<text text-anchor="start" x="504.7798" y="-1665.9" font-family="Arial" font-size="14.00" fill="#666666">[bigint]</text>
<polygon fill="none" stroke="#000000" points="483,-1624.5 483,-1654.5 823,-1654.5 823,-1624.5 483,-1624.5"/>
<text text-anchor="start" x="490" y="-1635.9" font-family="Arial" font-size="14.00" fill="#000000">user_id </text>
<text text-anchor="start" x="539.7882" y="-1635.9" font-family="Arial" font-size="14.00" fill="#666666">[bigint]</text>
<polygon fill="none" stroke="#000000" points="483,-1594.5 483,-1624.5 823,-1624.5 823,-1594.5 483,-1594.5"/>
<text text-anchor="start" x="490" y="-1605.9" font-family="Arial" font-size="14.00" fill="#000000">repo_id </text>
<text text-anchor="start" x="540.5708" y="-1605.9" font-family="Arial" font-size="14.00" fill="#666666">[bigint]</text>
<polygon fill="none" stroke="#000000" points="483,-1564.5 483,-1594.5 823,-1594.5 823,-1564.5 483,-1564.5"/>
<text text-anchor="start" x="490" y="-1575.9" font-family="Arial" font-size="14.00" fill="#000000">created_at </text>
<text text-anchor="start" x="560.028" y="-1575.9" font-family="Arial" font-size="14.00" fill="#666666">[timestamp with time zone]</text>
<polygon fill="none" stroke="#000000" points="483,-1534.5 483,-1564.5 823,-1564.5 823,-1534.5 483,-1534.5"/>
<text text-anchor="start" x="490" y="-1545.9" font-family="Arial" font-size="14.00" fill="#000000">updated_at </text>
<text text-anchor="start" x="563.9326" y="-1545.9" font-family="Arial" font-size="14.00" fill="#666666">[timestamp with time zone]</text>
<polygon fill="none" stroke="#000000" points="483,-1504.5 483,-1534.5 823,-1534.5 823,-1504.5 483,-1504.5"/>
<text text-anchor="start" x="490" y="-1515.9" font-family="Arial" font-size="14.00" fill="#000000">deleted_at </text>
<text text-anchor="start" x="559.2566" y="-1515.9" font-family="Arial" font-size="14.00" fill="#666666">[timestamp with time zone]</text>
</g>
<!-- public.users_to_repos_votes&#45;&gt;public.users -->
<g id="edge3" class="edge">
<title>public.users_to_repos_votes:user_id&#45;&gt;public.users:id</title>
<path fill="none" stroke="#000000" d="M833.2242,-1638.8401C896.7442,-1629.9853 845.1637,-1533.8502 823,-1462 749.7639,-1224.5829 304.5439,-972.5 553,-972.5"/>
<polygon fill="#000000" stroke="#000000" points="832.9792,-1638.8559 822.7101,-1635.0093 827.9896,-1639.1779 823,-1639.5 823,-1639.5 823,-1639.5 827.9896,-1639.1779 823.2899,-1643.9907 832.9792,-1638.8559 832.9792,-1638.8559"/>
<text text-anchor="start" x="830.3345" y="-1649.5" font-family="Arial" font-size="10.00" fill="#000000">FOREIGN KEY (user_id) REFERENCES users(id)</text>
</g>
<!-- public.users_to_repos_votes&#45;&gt;public.repos -->
<g id="edge8" class="edge">
<title>public.users_to_repos_votes:repo_id&#45;&gt;public.repos:id</title>
<path fill="none" stroke="#000000" d="M833.1359,-1608.9577C906.2758,-1600.5769 845.6966,-1496.7755 875,-1417 896.9365,-1357.2803 872.3788,-1287.5 936,-1287.5"/>
<polygon fill="#000000" stroke="#000000" points="832.9857,-1608.9656 822.7595,-1605.0064 827.9929,-1609.2328 823,-1609.5 823,-1609.5 823,-1609.5 827.9929,-1609.2328 823.2405,-1613.9936 832.9857,-1608.9656 832.9857,-1608.9656"/>
<text text-anchor="start" x="829.7755" y="-1619.5" font-family="Arial" font-size="10.00" fill="#000000">FOREIGN KEY (repo_id) REFERENCES repos(id)</text>
</g>
<!-- public.users_to_repos_submissions -->
<g id="node5" class="node">
<title>public.users_to_repos_submissions</title>
<polygon fill="#efefef" stroke="transparent" points="927,-1699.5 927,-1734.5 1323,-1734.5 1323,-1699.5 927,-1699.5"/>
<polygon fill="none" stroke="#000000" points="927,-1699.5 927,-1734.5 1323,-1734.5 1323,-1699.5 927,-1699.5"/>
<text text-anchor="start" x="933.8446" y="-1712.3" font-family="Arial Bold" font-size="18.00" fill="#000000">public.users_to_repos_submissions</text>
<text text-anchor="start" x="1218.9016" y="-1712.3" font-family="Arial" font-size="14.00" fill="#000000"> </text>
<text text-anchor="start" x="1222.7922" y="-1712.3" font-family="Arial" font-size="14.00" fill="#666666">[BASE TABLE]</text>
<polygon fill="none" stroke="#000000" points="927,-1669.5 927,-1699.5 1323,-1699.5 1323,-1669.5 927,-1669.5"/>
<text text-anchor="start" x="934" y="-1680.9" font-family="Arial" font-size="14.00" fill="#000000">id </text>
<text text-anchor="start" x="948.7798" y="-1680.9" font-family="Arial" font-size="14.00" fill="#666666">[bigint]</text>
<polygon fill="none" stroke="#000000" points="927,-1639.5 927,-1669.5 1323,-1669.5 1323,-1639.5 927,-1639.5"/>
<text text-anchor="start" x="934" y="-1650.9" font-family="Arial" font-size="14.00" fill="#000000">user_id </text>
<text text-anchor="start" x="983.7882" y="-1650.9" font-family="Arial" font-size="14.00" fill="#666666">[bigint]</text>
<polygon fill="none" stroke="#000000" points="927,-1609.5 927,-1639.5 1323,-1639.5 1323,-1609.5 927,-1609.5"/>
<text text-anchor="start" x="934" y="-1620.9" font-family="Arial" font-size="14.00" fill="#000000">repo_id </text>
<text text-anchor="start" x="984.5708" y="-1620.9" font-family="Arial" font-size="14.00" fill="#666666">[bigint]</text>
<polygon fill="none" stroke="#000000" points="927,-1579.5 927,-1609.5 1323,-1609.5 1323,-1579.5 927,-1579.5"/>
<text text-anchor="start" x="934" y="-1590.9" font-family="Arial" font-size="14.00" fill="#000000">created_at </text>
<text text-anchor="start" x="1004.028" y="-1590.9" font-family="Arial" font-size="14.00" fill="#666666">[timestamp with time zone]</text>
<polygon fill="none" stroke="#000000" points="927,-1549.5 927,-1579.5 1323,-1579.5 1323,-1549.5 927,-1549.5"/>
<text text-anchor="start" x="934" y="-1560.9" font-family="Arial" font-size="14.00" fill="#000000">updated_at </text>
<text text-anchor="start" x="1007.9326" y="-1560.9" font-family="Arial" font-size="14.00" fill="#666666">[timestamp with time zone]</text>
<polygon fill="none" stroke="#000000" points="927,-1519.5 927,-1549.5 1323,-1549.5 1323,-1519.5 927,-1519.5"/>
<text text-anchor="start" x="934" y="-1530.9" font-family="Arial" font-size="14.00" fill="#000000">deleted_at </text>
<text text-anchor="start" x="1003.2566" y="-1530.9" font-family="Arial" font-size="14.00" fill="#666666">[timestamp with time zone]</text>
<polygon fill="none" stroke="#000000" points="927,-1489.5 927,-1519.5 1323,-1519.5 1323,-1489.5 927,-1489.5"/>
<text text-anchor="start" x="934" y="-1500.9" font-family="Arial" font-size="14.00" fill="#000000">is_accepted </text>
<text text-anchor="start" x="1012.5834" y="-1500.9" font-family="Arial" font-size="14.00" fill="#666666">[boolean]</text>
</g>
<!-- public.users_to_repos_submissions&#45;&gt;public.users -->
<g id="edge4" class="edge">
<title>public.users_to_repos_submissions:user_id&#45;&gt;public.users:id</title>
<path fill="none" stroke="#000000" d="M919.9517,-1647.3023C883.207,-1574.4142 842.1507,-972.5 806,-972.5"/>
<polygon fill="#000000" stroke="#000000" points="920.0035,-1647.3551 923.7848,-1657.6484 923.5017,-1650.9276 927,-1654.5 927,-1654.5 927,-1654.5 923.5017,-1650.9276 930.2152,-1651.3516 920.0035,-1647.3551 920.0035,-1647.3551"/>
<text text-anchor="start" x="934.3345" y="-1664.5" font-family="Arial" font-size="10.00" fill="#000000">FOREIGN KEY (user_id) REFERENCES users(id)</text>
</g>
<!-- public.users_to_repos_submissions&#45;&gt;public.repos -->
<g id="edge9" class="edge">
<title>public.users_to_repos_submissions:repo_id&#45;&gt;public.repos:id</title>
<path fill="none" stroke="#000000" d="M1332.9837,-1622.348C1396.927,-1593.6467 1385.4039,-1287.5 1314,-1287.5"/>
<polygon fill="#000000" stroke="#000000" points="1332.7755,-1622.3928 1322.0518,-1620.101 1327.8877,-1623.4464 1323,-1624.5 1323,-1624.5 1323,-1624.5 1327.8877,-1623.4464 1323.9482,-1628.899 1332.7755,-1622.3928 1332.7755,-1622.3928"/>
<text text-anchor="start" x="1091.7755" y="-1634.5" font-family="Arial" font-size="10.00" fill="#000000">FOREIGN KEY (repo_id) REFERENCES repos(id)</text>
</g>
<!-- public.contributions -->
<g id="node7" class="node">
<title>public.contributions</title>
<polygon fill="#efefef" stroke="transparent" points="1919,-1729.5 1919,-1764.5 2218,-1764.5 2218,-1729.5 1919,-1729.5"/>
<polygon fill="none" stroke="#000000" points="1919,-1729.5 1919,-1764.5 2218,-1764.5 2218,-1729.5 1919,-1729.5"/>
<text text-anchor="start" x="1942.8574" y="-1742.3" font-family="Arial Bold" font-size="18.00" fill="#000000">public.contributions</text>
<text text-anchor="start" x="2096.8888" y="-1742.3" font-family="Arial" font-size="14.00" fill="#000000"> </text>
<text text-anchor="start" x="2100.7794" y="-1742.3" font-family="Arial" font-size="14.00" fill="#666666">[BASE TABLE]</text>
<polygon fill="none" stroke="#000000" points="1919,-1699.5 1919,-1729.5 2218,-1729.5 2218,-1699.5 1919,-1699.5"/>
<text text-anchor="start" x="1926" y="-1710.9" font-family="Arial" font-size="14.00" fill="#000000">id </text>
<text text-anchor="start" x="1940.7798" y="-1710.9" font-family="Arial" font-size="14.00" fill="#666666">[bigint]</text>
<polygon fill="none" stroke="#000000" points="1919,-1669.5 1919,-1699.5 2218,-1699.5 2218,-1669.5 1919,-1669.5"/>
<text text-anchor="start" x="1926" y="-1680.9" font-family="Arial" font-size="14.00" fill="#000000">repo_id </text>
<text text-anchor="start" x="1976.5708" y="-1680.9" font-family="Arial" font-size="14.00" fill="#666666">[bigint]</text>
<polygon fill="none" stroke="#000000" points="1919,-1639.5 1919,-1669.5 2218,-1669.5 2218,-1639.5 1919,-1639.5"/>
<text text-anchor="start" x="1926" y="-1650.9" font-family="Arial" font-size="14.00" fill="#000000">count </text>
<text text-anchor="start" x="1964.129" y="-1650.9" font-family="Arial" font-size="14.00" fill="#666666">[bigint]</text>
<polygon fill="none" stroke="#000000" points="1919,-1609.5 1919,-1639.5 2218,-1639.5 2218,-1609.5 1919,-1609.5"/>
<text text-anchor="start" x="1925.7497" y="-1620.9" font-family="Arial" font-size="14.00" fill="#000000">last_merged_at </text>
<text text-anchor="start" x="2026.1101" y="-1620.9" font-family="Arial" font-size="14.00" fill="#666666">[timestamp without time zone]</text>
<polygon fill="none" stroke="#000000" points="1919,-1579.5 1919,-1609.5 2218,-1609.5 2218,-1579.5 1919,-1579.5"/>
<text text-anchor="start" x="1926" y="-1590.9" font-family="Arial" font-size="14.00" fill="#000000">contributor </text>
<text text-anchor="start" x="1996.0126" y="-1590.9" font-family="Arial" font-size="14.00" fill="#666666">[varchar(255)]</text>
<polygon fill="none" stroke="#000000" points="1919,-1549.5 1919,-1579.5 2218,-1579.5 2218,-1549.5 1919,-1549.5"/>
<text text-anchor="start" x="1926" y="-1560.9" font-family="Arial" font-size="14.00" fill="#000000">url </text>
<text text-anchor="start" x="1945.4404" y="-1560.9" font-family="Arial" font-size="14.00" fill="#666666">[varchar(255)]</text>
<polygon fill="none" stroke="#000000" points="1919,-1519.5 1919,-1549.5 2218,-1549.5 2218,-1519.5 1919,-1519.5"/>
<text text-anchor="start" x="1926" y="-1530.9" font-family="Arial" font-size="14.00" fill="#000000">deleted_at </text>
<text text-anchor="start" x="1995.2566" y="-1530.9" font-family="Arial" font-size="14.00" fill="#666666">[timestamp with time zone]</text>
<polygon fill="none" stroke="#000000" points="1919,-1489.5 1919,-1519.5 2218,-1519.5 2218,-1489.5 1919,-1489.5"/>
<text text-anchor="start" x="1926" y="-1500.9" font-family="Arial" font-size="14.00" fill="#000000">updated_at </text>
<text text-anchor="start" x="1999.9326" y="-1500.9" font-family="Arial" font-size="14.00" fill="#666666">[timestamp with time zone]</text>
<polygon fill="none" stroke="#000000" points="1919,-1459.5 1919,-1489.5 2218,-1489.5 2218,-1459.5 1919,-1459.5"/>
<text text-anchor="start" x="1926" y="-1470.9" font-family="Arial" font-size="14.00" fill="#000000">created_at </text>
<text text-anchor="start" x="1996.028" y="-1470.9" font-family="Arial" font-size="14.00" fill="#666666">[timestamp with time zone]</text>
</g>
<!-- public.contributions&#45;&gt;public.repos -->
<g id="edge6" class="edge">
<title>public.contributions:repo_id&#45;&gt;public.repos:id</title>
<path fill="none" stroke="#000000" d="M1908.7401,-1684.012C1806.9387,-1673.6719 1948.4539,-1501.6124 1867,-1417 1779.4668,-1326.0726 1440.2135,-1287.5 1314,-1287.5"/>
<polygon fill="#000000" stroke="#000000" points="1909.0113,-1684.0248 1918.7862,-1688.9949 1914.0056,-1684.2624 1919,-1684.5 1919,-1684.5 1919,-1684.5 1914.0056,-1684.2624 1919.2138,-1680.0051 1909.0113,-1684.0248 1909.0113,-1684.0248"/>
<text text-anchor="start" x="1687.7755" y="-1694.5" font-family="Arial" font-size="10.00" fill="#000000">FOREIGN KEY (repo_id) REFERENCES repos(id)</text>
</g>
</g>
</svg>
