<?xml version="1.0" encoding="UTF-8" standalone="no"?>
<!DOCTYPE svg PUBLIC "-//W3C//DTD SVG 1.1//EN"
 "http://www.w3.org/Graphics/SVG/1.1/DTD/svg11.dtd">
<!-- Generated by graphviz version 2.40.1 (20161225.0304)
 -->
<!-- Title: public.users_to_repos_stars Pages: 1 -->
<svg width="2270pt" height="1186pt"
 viewBox="0.00 0.00 2269.50 1186.00" xmlns="http://www.w3.org/2000/svg" xmlns:xlink="http://www.w3.org/1999/xlink">
<g id="graph0" class="graph" transform="scale(1 1) rotate(0) translate(4 1182)">
<title>public.users_to_repos_stars</title>
<polygon fill="#ffffff" stroke="transparent" points="-4,4 -4,-1182 2265.5,-1182 2265.5,4 -4,4"/>
<!-- public.users_to_repos_stars -->
<g id="node1" class="node">
<title>public.users_to_repos_stars</title>
<polygon fill="#efefef" stroke="transparent" points="1476,-1054.5 1476,-1089.5 1812,-1089.5 1812,-1054.5 1476,-1054.5"/>
<polygon fill="none" stroke="#000000" points="1476,-1054.5 1476,-1089.5 1812,-1089.5 1812,-1054.5 1476,-1054.5"/>
<text text-anchor="start" x="1482.847" y="-1067.3" font-family="Arial Bold" font-size="18.00" fill="#000000">public.users_to_repos_stars</text>
<text text-anchor="start" x="1707.8992" y="-1067.3" font-family="Arial" font-size="14.00" fill="#000000"> </text>
<text text-anchor="start" x="1711.7898" y="-1067.3" font-family="Arial" font-size="14.00" fill="#666666">[BASE TABLE]</text>
<polygon fill="none" stroke="#000000" points="1476,-1024.5 1476,-1054.5 1812,-1054.5 1812,-1024.5 1476,-1024.5"/>
<text text-anchor="start" x="1483" y="-1035.9" font-family="Arial" font-size="14.00" fill="#000000">id </text>
<text text-anchor="start" x="1497.7798" y="-1035.9" font-family="Arial" font-size="14.00" fill="#666666">[bigint]</text>
<polygon fill="none" stroke="#000000" points="1476,-994.5 1476,-1024.5 1812,-1024.5 1812,-994.5 1476,-994.5"/>
<text text-anchor="start" x="1483" y="-1005.9" font-family="Arial" font-size="14.00" fill="#000000">user_id </text>
<text text-anchor="start" x="1532.7882" y="-1005.9" font-family="Arial" font-size="14.00" fill="#666666">[bigint]</text>
<polygon fill="none" stroke="#000000" points="1476,-964.5 1476,-994.5 1812,-994.5 1812,-964.5 1476,-964.5"/>
<text text-anchor="start" x="1483" y="-975.9" font-family="Arial" font-size="14.00" fill="#000000">repo_id </text>
<text text-anchor="start" x="1533.5708" y="-975.9" font-family="Arial" font-size="14.00" fill="#666666">[bigint]</text>
<polygon fill="none" stroke="#000000" points="1476,-934.5 1476,-964.5 1812,-964.5 1812,-934.5 1476,-934.5"/>
<text text-anchor="start" x="1483" y="-945.9" font-family="Arial" font-size="14.00" fill="#000000">created_at </text>
<text text-anchor="start" x="1553.028" y="-945.9" font-family="Arial" font-size="14.00" fill="#666666">[timestamp with time zone]</text>
<polygon fill="none" stroke="#000000" points="1476,-904.5 1476,-934.5 1812,-934.5 1812,-904.5 1476,-904.5"/>
<text text-anchor="start" x="1483" y="-915.9" font-family="Arial" font-size="14.00" fill="#000000">updated_at </text>
<text text-anchor="start" x="1556.9326" y="-915.9" font-family="Arial" font-size="14.00" fill="#666666">[timestamp with time zone]</text>
<polygon fill="none" stroke="#000000" points="1476,-874.5 1476,-904.5 1812,-904.5 1812,-874.5 1476,-874.5"/>
<text text-anchor="start" x="1483" y="-885.9" font-family="Arial" font-size="14.00" fill="#000000">deleted_at </text>
<text text-anchor="start" x="1552.2566" y="-885.9" font-family="Arial" font-size="14.00" fill="#666666">[timestamp with time zone]</text>
<polygon fill="none" stroke="#000000" stroke-width="3" points="1474.5,-873.5 1474.5,-1091.5 1813.5,-1091.5 1813.5,-873.5 1474.5,-873.5"/>
</g>
<!-- public.users -->
<g id="node2" class="node">
<title>public.users</title>
<polygon fill="#efefef" stroke="transparent" points="596,-537.5 596,-572.5 849,-572.5 849,-537.5 596,-537.5"/>
<polygon fill="none" stroke="#000000" points="596,-537.5 596,-572.5 849,-572.5 849,-537.5 596,-537.5"/>
<text text-anchor="start" x="625.8662" y="-550.3" font-family="Arial Bold" font-size="18.00" fill="#000000">public.users</text>
<text text-anchor="start" x="721.88" y="-550.3" font-family="Arial" font-size="14.00" fill="#000000"> </text>
<text text-anchor="start" x="725.7706" y="-550.3" font-family="Arial" font-size="14.00" fill="#666666">[BASE TABLE]</text>
<polygon fill="none" stroke="#000000" points="596,-507.5 596,-537.5 849,-537.5 849,-507.5 596,-507.5"/>
<text text-anchor="start" x="603" y="-518.9" font-family="Arial" font-size="14.00" fill="#000000">id </text>
<text text-anchor="start" x="617.7798" y="-518.9" font-family="Arial" font-size="14.00" fill="#666666">[bigint]</text>
<polygon fill="none" stroke="#000000" points="596,-477.5 596,-507.5 849,-507.5 849,-477.5 596,-477.5"/>
<text text-anchor="start" x="603" y="-488.9" font-family="Arial" font-size="14.00" fill="#000000">open_issues </text>
<text text-anchor="start" x="685.4754" y="-488.9" font-family="Arial" font-size="14.00" fill="#666666">[bigint]</text>
<polygon fill="none" stroke="#000000" points="596,-447.5 596,-477.5 849,-477.5 849,-447.5 596,-447.5"/>
<text text-anchor="start" x="603" y="-458.9" font-family="Arial" font-size="14.00" fill="#000000">has_stars_data </text>
<text text-anchor="start" x="702.5932" y="-458.9" font-family="Arial" font-size="14.00" fill="#666666">[boolean]</text>
<polygon fill="none" stroke="#000000" points="596,-417.5 596,-447.5 849,-447.5 849,-417.5 596,-417.5"/>
<text text-anchor="start" x="603" y="-428.9" font-family="Arial" font-size="14.00" fill="#000000">is_private </text>
<text text-anchor="start" x="666.7854" y="-428.9" font-family="Arial" font-size="14.00" fill="#666666">[boolean]</text>
<polygon fill="none" stroke="#000000" points="596,-387.5 596,-417.5 849,-417.5 849,-387.5 596,-387.5"/>
<text text-anchor="start" x="603" y="-398.9" font-family="Arial" font-size="14.00" fill="#000000">is_open_sauced_member </text>
<text text-anchor="start" x="767.9354" y="-398.9" font-family="Arial" font-size="14.00" fill="#666666">[boolean]</text>
<polygon fill="none" stroke="#000000" points="596,-357.5 596,-387.5 849,-387.5 849,-357.5 596,-357.5"/>
<text text-anchor="start" x="603" y="-368.9" font-family="Arial" font-size="14.00" fill="#000000">created_at </text>
<text text-anchor="start" x="673.028" y="-368.9" font-family="Arial" font-size="14.00" fill="#666666">[timestamp with time zone]</text>
<polygon fill="none" stroke="#000000" points="596,-327.5 596,-357.5 849,-357.5 849,-327.5 596,-327.5"/>
<text text-anchor="start" x="603" y="-338.9" font-family="Arial" font-size="14.00" fill="#000000">login </text>
<text text-anchor="start" x="636.4516" y="-338.9" font-family="Arial" font-size="14.00" fill="#666666">[varchar(255)]</text>
<polygon fill="none" stroke="#000000" points="596,-297.5 596,-327.5 849,-327.5 849,-297.5 596,-297.5"/>
<text text-anchor="start" x="603" y="-308.9" font-family="Arial" font-size="14.00" fill="#000000">deleted_at </text>
<text text-anchor="start" x="672.2566" y="-308.9" font-family="Arial" font-size="14.00" fill="#666666">[timestamp with time zone]</text>
<polygon fill="none" stroke="#000000" points="596,-267.5 596,-297.5 849,-297.5 849,-267.5 596,-267.5"/>
<text text-anchor="start" x="602.6915" y="-278.9" font-family="Arial" font-size="14.00" fill="#000000">updated_at </text>
<text text-anchor="start" x="676.6241" y="-278.9" font-family="Arial" font-size="14.00" fill="#666666">[timestamp with time zone]</text>
<polygon fill="none" stroke="#000000" points="596,-237.5 596,-267.5 849,-267.5 849,-237.5 596,-237.5"/>
<text text-anchor="start" x="603" y="-248.9" font-family="Arial" font-size="14.00" fill="#000000">is_onboarded </text>
<text text-anchor="start" x="691.7012" y="-248.9" font-family="Arial" font-size="14.00" fill="#666666">[boolean]</text>
<polygon fill="none" stroke="#000000" points="596,-207.5 596,-237.5 849,-237.5 849,-207.5 596,-207.5"/>
<text text-anchor="start" x="603" y="-218.9" font-family="Arial" font-size="14.00" fill="#000000">role </text>
<text text-anchor="start" x="630.223" y="-218.9" font-family="Arial" font-size="14.00" fill="#666666">[bigint]</text>
<polygon fill="none" stroke="#000000" points="596,-177.5 596,-207.5 849,-207.5 849,-177.5 596,-177.5"/>
<text text-anchor="start" x="603" y="-188.9" font-family="Arial" font-size="14.00" fill="#000000">is_waitlisted </text>
<text text-anchor="start" x="682.3352" y="-188.9" font-family="Arial" font-size="14.00" fill="#666666">[boolean]</text>
</g>
<!-- public.users_to_repos_stars&#45;&gt;public.users -->
<g id="edge1" class="edge">
<title>public.users_to_repos_stars:user_id&#45;&gt;public.users:id</title>
<path fill="none" stroke="#000000" d="M1465.825,-1008.8977C1382.8805,-998.2901 1496.0052,-850.3596 1421,-787 1338.7785,-717.5445 1024.5301,-815.0077 938,-751 850.3798,-686.1859 957.987,-522.5 849,-522.5"/>
<polygon fill="#000000" stroke="#000000" points="1466.0175,-1008.909 1475.734,-1013.9921 1471.0087,-1009.2045 1476,-1009.5 1476,-1009.5 1476,-1009.5 1471.0087,-1009.2045 1476.266,-1005.0079 1466.0175,-1008.909 1466.0175,-1008.909"/>
<text text-anchor="start" x="1424.0845" y="-993.5" font-family="Arial" font-size="10.00" fill="#000000">FOREIGN KEY (user_id) REFERENCES users(id)</text>
</g>
<!-- public.repos -->
<g id="node6" class="node">
<title>public.repos</title>
<polygon fill="#efefef" stroke="transparent" points="990,-672.5 990,-707.5 1368,-707.5 1368,-672.5 990,-672.5"/>
<polygon fill="none" stroke="#000000" points="990,-672.5 990,-707.5 1368,-707.5 1368,-672.5 990,-672.5"/>
<text text-anchor="start" x="1081.8631" y="-685.3" font-family="Arial Bold" font-size="18.00" fill="#000000">public.repos</text>
<text text-anchor="start" x="1178.8831" y="-685.3" font-family="Arial" font-size="14.00" fill="#000000"> </text>
<text text-anchor="start" x="1182.7737" y="-685.3" font-family="Arial" font-size="14.00" fill="#666666">[BASE TABLE]</text>
<polygon fill="none" stroke="#000000" points="990,-642.5 990,-672.5 1368,-672.5 1368,-642.5 990,-642.5"/>
<text text-anchor="start" x="997" y="-653.9" font-family="Arial" font-size="14.00" fill="#000000">id </text>
<text text-anchor="start" x="1011.7798" y="-653.9" font-family="Arial" font-size="14.00" fill="#666666">[bigint]</text>
<polygon fill="none" stroke="#000000" points="990,-612.5 990,-642.5 1368,-642.5 1368,-612.5 990,-612.5"/>
<text text-anchor="start" x="997" y="-623.9" font-family="Arial" font-size="14.00" fill="#000000">user_id </text>
<text text-anchor="start" x="1046.7882" y="-623.9" font-family="Arial" font-size="14.00" fill="#666666">[bigint]</text>
<polygon fill="none" stroke="#000000" points="990,-582.5 990,-612.5 1368,-612.5 1368,-582.5 990,-582.5"/>
<text text-anchor="start" x="997" y="-593.9" font-family="Arial" font-size="14.00" fill="#000000">issues </text>
<text text-anchor="start" x="1040.5624" y="-593.9" font-family="Arial" font-size="14.00" fill="#666666">[bigint]</text>
<polygon fill="none" stroke="#000000" points="990,-552.5 990,-582.5 1368,-582.5 1368,-552.5 990,-552.5"/>
<text text-anchor="start" x="997" y="-563.9" font-family="Arial" font-size="14.00" fill="#000000">stars </text>
<text text-anchor="start" x="1031.2244" y="-563.9" font-family="Arial" font-size="14.00" fill="#666666">[bigint]</text>
<polygon fill="none" stroke="#000000" points="990,-522.5 990,-552.5 1368,-552.5 1368,-522.5 990,-522.5"/>
<text text-anchor="start" x="997" y="-533.9" font-family="Arial" font-size="14.00" fill="#000000">watchers </text>
<text text-anchor="start" x="1056.8962" y="-533.9" font-family="Arial" font-size="14.00" fill="#666666">[bigint]</text>
<polygon fill="none" stroke="#000000" points="990,-492.5 990,-522.5 1368,-522.5 1368,-492.5 990,-492.5"/>
<text text-anchor="start" x="997" y="-503.9" font-family="Arial" font-size="14.00" fill="#000000">subscribers </text>
<text text-anchor="start" x="1072.4488" y="-503.9" font-family="Arial" font-size="14.00" fill="#666666">[bigint]</text>
<polygon fill="none" stroke="#000000" points="990,-462.5 990,-492.5 1368,-492.5 1368,-462.5 990,-462.5"/>
<text text-anchor="start" x="997" y="-473.9" font-family="Arial" font-size="14.00" fill="#000000">is_fork </text>
<text text-anchor="start" x="1042.1136" y="-473.9" font-family="Arial" font-size="14.00" fill="#666666">[boolean]</text>
<polygon fill="none" stroke="#000000" points="990,-432.5 990,-462.5 1368,-462.5 1368,-432.5 990,-432.5"/>
<text text-anchor="start" x="997" y="-443.9" font-family="Arial" font-size="14.00" fill="#000000">created_at </text>
<text text-anchor="start" x="1067.028" y="-443.9" font-family="Arial" font-size="14.00" fill="#666666">[timestamp without time zone]</text>
<polygon fill="none" stroke="#000000" points="990,-402.5 990,-432.5 1368,-432.5 1368,-402.5 990,-402.5"/>
<text text-anchor="start" x="997" y="-413.9" font-family="Arial" font-size="14.00" fill="#000000">updated_at </text>
<text text-anchor="start" x="1070.9326" y="-413.9" font-family="Arial" font-size="14.00" fill="#666666">[timestamp without time zone]</text>
<polygon fill="none" stroke="#000000" points="990,-372.5 990,-402.5 1368,-402.5 1368,-372.5 990,-372.5"/>
<text text-anchor="start" x="997" y="-383.9" font-family="Arial" font-size="14.00" fill="#000000">pushed_at </text>
<text text-anchor="start" x="1066.2594" y="-383.9" font-family="Arial" font-size="14.00" fill="#666666">[timestamp without time zone]</text>
<polygon fill="none" stroke="#000000" points="990,-342.5 990,-372.5 1368,-372.5 1368,-342.5 990,-342.5"/>
<text text-anchor="start" x="996.5674" y="-353.9" font-family="Arial" font-size="14.00" fill="#000000">last_fetched_contributors_at </text>
<text text-anchor="start" x="1176.2924" y="-353.9" font-family="Arial" font-size="14.00" fill="#666666">[timestamp without time zone]</text>
<polygon fill="none" stroke="#000000" points="990,-312.5 990,-342.5 1368,-342.5 1368,-312.5 990,-312.5"/>
<text text-anchor="start" x="997" y="-323.9" font-family="Arial" font-size="14.00" fill="#000000">name </text>
<text text-anchor="start" x="1035.899" y="-323.9" font-family="Arial" font-size="14.00" fill="#666666">[varchar(255)]</text>
<polygon fill="none" stroke="#000000" points="990,-282.5 990,-312.5 1368,-312.5 1368,-282.5 990,-282.5"/>
<text text-anchor="start" x="997" y="-293.9" font-family="Arial" font-size="14.00" fill="#000000">full_name </text>
<text text-anchor="start" x="1061.568" y="-293.9" font-family="Arial" font-size="14.00" fill="#666666">[varchar(255)]</text>
<polygon fill="none" stroke="#000000" points="990,-252.5 990,-282.5 1368,-282.5 1368,-252.5 990,-252.5"/>
<text text-anchor="start" x="997" y="-263.9" font-family="Arial" font-size="14.00" fill="#000000">description </text>
<text text-anchor="start" x="1068.568" y="-263.9" font-family="Arial" font-size="14.00" fill="#666666">[text]</text>
<polygon fill="none" stroke="#000000" points="990,-222.5 990,-252.5 1368,-252.5 1368,-222.5 990,-222.5"/>
<text text-anchor="start" x="997" y="-233.9" font-family="Arial" font-size="14.00" fill="#000000">language </text>
<text text-anchor="start" x="1058.4754" y="-233.9" font-family="Arial" font-size="14.00" fill="#666666">[varchar(64)]</text>
<polygon fill="none" stroke="#000000" points="990,-192.5 990,-222.5 1368,-222.5 1368,-192.5 990,-192.5"/>
<text text-anchor="start" x="997" y="-203.9" font-family="Arial" font-size="14.00" fill="#000000">license </text>
<text text-anchor="start" x="1044.4516" y="-203.9" font-family="Arial" font-size="14.00" fill="#666666">[varchar(64)]</text>
<polygon fill="none" stroke="#000000" points="990,-162.5 990,-192.5 1368,-192.5 1368,-162.5 990,-162.5"/>
<text text-anchor="start" x="997" y="-173.9" font-family="Arial" font-size="14.00" fill="#000000">url </text>
<text text-anchor="start" x="1016.4404" y="-173.9" font-family="Arial" font-size="14.00" fill="#666666">[varchar(255)]</text>
<polygon fill="none" stroke="#000000" points="990,-132.5 990,-162.5 1368,-162.5 1368,-132.5 990,-132.5"/>
<text text-anchor="start" x="997" y="-143.9" font-family="Arial" font-size="14.00" fill="#000000">deleted_at </text>
<text text-anchor="start" x="1066.2566" y="-143.9" font-family="Arial" font-size="14.00" fill="#666666">[timestamp with time zone]</text>
<polygon fill="none" stroke="#000000" points="990,-102.5 990,-132.5 1368,-132.5 1368,-102.5 990,-102.5"/>
<text text-anchor="start" x="997" y="-113.9" font-family="Arial" font-size="14.00" fill="#000000">last_fetched_repos_at </text>
<text text-anchor="start" x="1138.6114" y="-113.9" font-family="Arial" font-size="14.00" fill="#666666">[timestamp without time zone]</text>
<polygon fill="none" stroke="#000000" points="990,-72.5 990,-102.5 1368,-102.5 1368,-72.5 990,-72.5"/>
<text text-anchor="start" x="997" y="-83.9" font-family="Arial" font-size="14.00" fill="#000000">last_fetched_prs_at </text>
<text text-anchor="start" x="1123.0462" y="-83.9" font-family="Arial" font-size="14.00" fill="#666666">[timestamp without time zone]</text>
<polygon fill="none" stroke="#000000" points="990,-42.5 990,-72.5 1368,-72.5 1368,-42.5 990,-42.5"/>
<text text-anchor="start" x="997" y="-53.9" font-family="Arial" font-size="14.00" fill="#000000">last_fetched_commits_at </text>
<text text-anchor="start" x="1155.704" y="-53.9" font-family="Arial" font-size="14.00" fill="#666666">[timestamp without time zone]</text>
</g>
<!-- public.users_to_repos_stars&#45;&gt;public.repos -->
<g id="edge5" class="edge">
<title>public.users_to_repos_stars:repo_id&#45;&gt;public.repos:id</title>
<path fill="none" stroke="#000000" d="M1465.802,-978.962C1392.0417,-970.6471 1448.9235,-867.6314 1421,-787 1400.649,-728.2348 1430.1893,-657.5 1368,-657.5"/>
<polygon fill="#000000" stroke="#000000" points="1466.0139,-978.9731 1475.7629,-983.9938 1471.0069,-979.2365 1476,-979.5 1476,-979.5 1476,-979.5 1471.0069,-979.2365 1476.2371,-975.0062 1466.0139,-978.9731 1466.0139,-978.9731"/>
<text text-anchor="start" x="1423.2755" y="-963.5" font-family="Arial" font-size="10.00" fill="#000000">FOREIGN KEY (repo_id) REFERENCES repos(id)</text>
</g>
<!-- public.users_to_repos_votes -->
<g id="node3" class="node">
<title>public.users_to_repos_votes</title>
<polygon fill="#efefef" stroke="transparent" points="43,-1054.5 43,-1089.5 383,-1089.5 383,-1054.5 43,-1054.5"/>
<polygon fill="none" stroke="#000000" points="43,-1054.5 43,-1089.5 383,-1089.5 383,-1054.5 43,-1054.5"/>
<text text-anchor="start" x="49.84" y="-1067.3" font-family="Arial Bold" font-size="18.00" fill="#000000">public.users_to_repos_votes</text>
<text text-anchor="start" x="278.9062" y="-1067.3" font-family="Arial" font-size="14.00" fill="#000000"> </text>
<text text-anchor="start" x="282.7968" y="-1067.3" font-family="Arial" font-size="14.00" fill="#666666">[BASE TABLE]</text>
<polygon fill="none" stroke="#000000" points="43,-1024.5 43,-1054.5 383,-1054.5 383,-1024.5 43,-1024.5"/>
<text text-anchor="start" x="50" y="-1035.9" font-family="Arial" font-size="14.00" fill="#000000">id </text>
<text text-anchor="start" x="64.7798" y="-1035.9" font-family="Arial" font-size="14.00" fill="#666666">[bigint]</text>
<polygon fill="none" stroke="#000000" points="43,-994.5 43,-1024.5 383,-1024.5 383,-994.5 43,-994.5"/>
<text text-anchor="start" x="50" y="-1005.9" font-family="Arial" font-size="14.00" fill="#000000">user_id </text>
<text text-anchor="start" x="99.7882" y="-1005.9" font-family="Arial" font-size="14.00" fill="#666666">[bigint]</text>
<polygon fill="none" stroke="#000000" points="43,-964.5 43,-994.5 383,-994.5 383,-964.5 43,-964.5"/>
<text text-anchor="start" x="50" y="-975.9" font-family="Arial" font-size="14.00" fill="#000000">repo_id </text>
<text text-anchor="start" x="100.5708" y="-975.9" font-family="Arial" font-size="14.00" fill="#666666">[bigint]</text>
<polygon fill="none" stroke="#000000" points="43,-934.5 43,-964.5 383,-964.5 383,-934.5 43,-934.5"/>
<text text-anchor="start" x="50" y="-945.9" font-family="Arial" font-size="14.00" fill="#000000">created_at </text>
<text text-anchor="start" x="120.028" y="-945.9" font-family="Arial" font-size="14.00" fill="#666666">[timestamp with time zone]</text>
<polygon fill="none" stroke="#000000" points="43,-904.5 43,-934.5 383,-934.5 383,-904.5 43,-904.5"/>
<text text-anchor="start" x="50" y="-915.9" font-family="Arial" font-size="14.00" fill="#000000">updated_at </text>
<text text-anchor="start" x="123.9326" y="-915.9" font-family="Arial" font-size="14.00" fill="#666666">[timestamp with time zone]</text>
<polygon fill="none" stroke="#000000" points="43,-874.5 43,-904.5 383,-904.5 383,-874.5 43,-874.5"/>
<text text-anchor="start" x="50" y="-885.9" font-family="Arial" font-size="14.00" fill="#000000">deleted_at </text>
<text text-anchor="start" x="119.2566" y="-885.9" font-family="Arial" font-size="14.00" fill="#666666">[timestamp with time zone]</text>
</g>
<!-- public.users_to_repos_votes&#45;&gt;public.users -->
<g id="edge2" class="edge">
<title>public.users_to_repos_votes:user_id&#45;&gt;public.users:id</title>
<path fill="none" stroke="#000000" d="M393.0216,-1009.0306C478.5229,-1000.5073 397.9121,-877.6931 435,-787 487.0911,-659.6186 458.3791,-522.5 596,-522.5"/>
<polygon fill="#000000" stroke="#000000" points="392.989,-1009.032 382.7894,-1005.0049 387.9945,-1009.266 383,-1009.5 383,-1009.5 383,-1009.5 387.9945,-1009.266 383.2106,-1013.9951 392.989,-1009.032 392.989,-1009.032"/>
<text text-anchor="start" x="390.3345" y="-1019.5" font-family="Arial" font-size="10.00" fill="#000000">FOREIGN KEY (user_id) REFERENCES users(id)</text>
</g>
<!-- public.users_to_repos_votes&#45;&gt;public.repos -->
<g id="edge7" class="edge">
<title>public.users_to_repos_votes:repo_id&#45;&gt;public.repos:id</title>
<path fill="none" stroke="#000000" d="M393.3814,-978.7641C462.9309,-967.9639 369.7017,-841.1255 435,-787 514.7942,-720.8588 806.2676,-795.2268 900,-751 952.1638,-726.387 932.321,-657.5 990,-657.5"/>
<polygon fill="#000000" stroke="#000000" points="392.975,-978.7928 382.6818,-975.0113 387.9875,-979.1464 383,-979.5 383,-979.5 383,-979.5 387.9875,-979.1464 383.3182,-983.9887 392.975,-978.7928 392.975,-978.7928"/>
<text text-anchor="start" x="389.7755" y="-989.5" font-family="Arial" font-size="10.00" fill="#000000">FOREIGN KEY (repo_id) REFERENCES repos(id)</text>
</g>
<!-- public.users_to_repos_submissions -->
<g id="node4" class="node">
<title>public.users_to_repos_submissions</title>
<polygon fill="#efefef" stroke="transparent" points="487,-1069.5 487,-1104.5 883,-1104.5 883,-1069.5 487,-1069.5"/>
<polygon fill="none" stroke="#000000" points="487,-1069.5 487,-1104.5 883,-1104.5 883,-1069.5 487,-1069.5"/>
<text text-anchor="start" x="493.8446" y="-1082.3" font-family="Arial Bold" font-size="18.00" fill="#000000">public.users_to_repos_submissions</text>
<text text-anchor="start" x="778.9016" y="-1082.3" font-family="Arial" font-size="14.00" fill="#000000"> </text>
<text text-anchor="start" x="782.7922" y="-1082.3" font-family="Arial" font-size="14.00" fill="#666666">[BASE TABLE]</text>
<polygon fill="none" stroke="#000000" points="487,-1039.5 487,-1069.5 883,-1069.5 883,-1039.5 487,-1039.5"/>
<text text-anchor="start" x="494" y="-1050.9" font-family="Arial" font-size="14.00" fill="#000000">id </text>
<text text-anchor="start" x="508.7798" y="-1050.9" font-family="Arial" font-size="14.00" fill="#666666">[bigint]</text>
<polygon fill="none" stroke="#000000" points="487,-1009.5 487,-1039.5 883,-1039.5 883,-1009.5 487,-1009.5"/>
<text text-anchor="start" x="494" y="-1020.9" font-family="Arial" font-size="14.00" fill="#000000">user_id </text>
<text text-anchor="start" x="543.7882" y="-1020.9" font-family="Arial" font-size="14.00" fill="#666666">[bigint]</text>
<polygon fill="none" stroke="#000000" points="487,-979.5 487,-1009.5 883,-1009.5 883,-979.5 487,-979.5"/>
<text text-anchor="start" x="494" y="-990.9" font-family="Arial" font-size="14.00" fill="#000000">repo_id </text>
<text text-anchor="start" x="544.5708" y="-990.9" font-family="Arial" font-size="14.00" fill="#666666">[bigint]</text>
<polygon fill="none" stroke="#000000" points="487,-949.5 487,-979.5 883,-979.5 883,-949.5 487,-949.5"/>
<text text-anchor="start" x="494" y="-960.9" font-family="Arial" font-size="14.00" fill="#000000">created_at </text>
<text text-anchor="start" x="564.028" y="-960.9" font-family="Arial" font-size="14.00" fill="#666666">[timestamp with time zone]</text>
<polygon fill="none" stroke="#000000" points="487,-919.5 487,-949.5 883,-949.5 883,-919.5 487,-919.5"/>
<text text-anchor="start" x="494" y="-930.9" font-family="Arial" font-size="14.00" fill="#000000">updated_at </text>
<text text-anchor="start" x="567.9326" y="-930.9" font-family="Arial" font-size="14.00" fill="#666666">[timestamp with time zone]</text>
<polygon fill="none" stroke="#000000" points="487,-889.5 487,-919.5 883,-919.5 883,-889.5 487,-889.5"/>
<text text-anchor="start" x="494" y="-900.9" font-family="Arial" font-size="14.00" fill="#000000">deleted_at </text>
<text text-anchor="start" x="563.2566" y="-900.9" font-family="Arial" font-size="14.00" fill="#666666">[timestamp with time zone]</text>
<polygon fill="none" stroke="#000000" points="487,-859.5 487,-889.5 883,-889.5 883,-859.5 487,-859.5"/>
<text text-anchor="start" x="494" y="-870.9" font-family="Arial" font-size="14.00" fill="#000000">is_accepted </text>
<text text-anchor="start" x="572.5834" y="-870.9" font-family="Arial" font-size="14.00" fill="#666666">[boolean]</text>
</g>
<!-- public.users_to_repos_submissions&#45;&gt;public.users -->
<g id="edge3" class="edge">
<title>public.users_to_repos_submissions:user_id&#45;&gt;public.users:id</title>
<path fill="none" stroke="#000000" d="M892.9568,-1021.2982C925.0626,-998.0133 902.5434,-854.5468 883,-817 811.0999,-678.8652 667.9001,-754.1348 596,-616 576.8135,-579.1389 554.4444,-522.5 596,-522.5"/>
<polygon fill="#000000" stroke="#000000" points="892.5199,-1021.4386 881.6224,-1020.216 887.7599,-1022.9693 883,-1024.5 883,-1024.5 883,-1024.5 887.7599,-1022.9693 884.3776,-1028.784 892.5199,-1021.4386 892.5199,-1021.4386"/>
<text text-anchor="start" x="890.3345" y="-1034.5" font-family="Arial" font-size="10.00" fill="#000000">FOREIGN KEY (user_id) REFERENCES users(id)</text>
</g>
<!-- public.users_to_repos_submissions&#45;&gt;public.repos -->
<g id="edge8" class="edge">
<title>public.users_to_repos_submissions:repo_id&#45;&gt;public.repos:id</title>
<path fill="none" stroke="#000000" d="M893.3869,-993.9714C972.5051,-985.3728 905.9504,-873.6187 935,-787 954.883,-727.7139 927.4686,-657.5 990,-657.5"/>
<polygon fill="#000000" stroke="#000000" points="892.9871,-993.9916 882.7712,-990.0058 887.9935,-994.2458 883,-994.5 883,-994.5 883,-994.5 887.9935,-994.2458 883.2288,-998.9942 892.9871,-993.9916 892.9871,-993.9916"/>
<text text-anchor="start" x="889.7755" y="-1004.5" font-family="Arial" font-size="10.00" fill="#000000">FOREIGN KEY (repo_id) REFERENCES repos(id)</text>
</g>
<!-- public.users_to_repos_stargazers -->
<g id="node5" class="node">
<title>public.users_to_repos_stargazers</title>
<polygon fill="#efefef" stroke="transparent" points="988,-1054.5 988,-1089.5 1369,-1089.5 1369,-1054.5 988,-1054.5"/>
<polygon fill="none" stroke="#000000" points="988,-1054.5 988,-1089.5 1369,-1089.5 1369,-1054.5 988,-1054.5"/>
<text text-anchor="start" x="994.8416" y="-1067.3" font-family="Arial Bold" font-size="18.00" fill="#000000">public.users_to_repos_stargazers</text>
<text text-anchor="start" x="1264.9046" y="-1067.3" font-family="Arial" font-size="14.00" fill="#000000"> </text>
<text text-anchor="start" x="1268.7952" y="-1067.3" font-family="Arial" font-size="14.00" fill="#666666">[BASE TABLE]</text>
<polygon fill="none" stroke="#000000" points="988,-1024.5 988,-1054.5 1369,-1054.5 1369,-1024.5 988,-1024.5"/>
<text text-anchor="start" x="995" y="-1035.9" font-family="Arial" font-size="14.00" fill="#000000">id </text>
<text text-anchor="start" x="1009.7798" y="-1035.9" font-family="Arial" font-size="14.00" fill="#666666">[bigint]</text>
<polygon fill="none" stroke="#000000" points="988,-994.5 988,-1024.5 1369,-1024.5 1369,-994.5 988,-994.5"/>
<text text-anchor="start" x="995" y="-1005.9" font-family="Arial" font-size="14.00" fill="#000000">user_id </text>
<text text-anchor="start" x="1044.7882" y="-1005.9" font-family="Arial" font-size="14.00" fill="#666666">[bigint]</text>
<polygon fill="none" stroke="#000000" points="988,-964.5 988,-994.5 1369,-994.5 1369,-964.5 988,-964.5"/>
<text text-anchor="start" x="995" y="-975.9" font-family="Arial" font-size="14.00" fill="#000000">repo_id </text>
<text text-anchor="start" x="1045.5708" y="-975.9" font-family="Arial" font-size="14.00" fill="#666666">[bigint]</text>
<polygon fill="none" stroke="#000000" points="988,-934.5 988,-964.5 1369,-964.5 1369,-934.5 988,-934.5"/>
<text text-anchor="start" x="995" y="-945.9" font-family="Arial" font-size="14.00" fill="#000000">created_at </text>
<text text-anchor="start" x="1065.028" y="-945.9" font-family="Arial" font-size="14.00" fill="#666666">[timestamp without time zone]</text>
<polygon fill="none" stroke="#000000" points="988,-904.5 988,-934.5 1369,-934.5 1369,-904.5 988,-904.5"/>
<text text-anchor="start" x="995" y="-915.9" font-family="Arial" font-size="14.00" fill="#000000">updated_at </text>
<text text-anchor="start" x="1068.9326" y="-915.9" font-family="Arial" font-size="14.00" fill="#666666">[timestamp without time zone]</text>
<polygon fill="none" stroke="#000000" points="988,-874.5 988,-904.5 1369,-904.5 1369,-874.5 988,-874.5"/>
<text text-anchor="start" x="995" y="-885.9" font-family="Arial" font-size="14.00" fill="#000000">deleted_at </text>
<text text-anchor="start" x="1064.2566" y="-885.9" font-family="Arial" font-size="14.00" fill="#666666">[timestamp without time zone]</text>
</g>
<!-- public.users_to_repos_stargazers&#45;&gt;public.users -->
<g id="edge4" class="edge">
<title>public.users_to_repos_stargazers:user_id&#45;&gt;public.users:id</title>
<path fill="none" stroke="#000000" d="M978.1737,-1007.0294C938.6762,-985.708 947.7908,-832.4899 935,-787 901.54,-668.0014 972.6133,-522.5 849,-522.5"/>
<polygon fill="#000000" stroke="#000000" points="978.3018,-1007.0615 986.9027,-1013.8642 983.1509,-1008.2808 988,-1009.5 988,-1009.5 988,-1009.5 983.1509,-1008.2808 989.0973,-1005.1358 978.3018,-1007.0615 978.3018,-1007.0615"/>
<text text-anchor="start" x="817.5845" y="-993.5" font-family="Arial" font-size="10.00" fill="#000000">FOREIGN KEY (user_id) REFERENCES users(id)</text>
</g>
<!-- public.users_to_repos_stargazers&#45;&gt;public.repos -->
<g id="edge9" class="edge">
<title>public.users_to_repos_stargazers:repo_id&#45;&gt;public.repos:id</title>
<path fill="none" stroke="#000000" d="M1379.2875,-978.5968C1431.7454,-968.711 1407.892,-880.0823 1369,-832 1260.6751,-698.0775 1098.3249,-884.9225 990,-751 963.8662,-718.6907 948.4444,-657.5 990,-657.5"/>
<polygon fill="#000000" stroke="#000000" points="1378.9617,-978.6253 1368.6064,-975.0172 1373.9808,-979.0626 1369,-979.5 1369,-979.5 1369,-979.5 1373.9808,-979.0626 1369.3936,-983.9828 1378.9617,-978.6253 1378.9617,-978.6253"/>
<text text-anchor="start" x="1137.7755" y="-989.5" font-family="Arial" font-size="10.00" fill="#000000">FOREIGN KEY (repo_id) REFERENCES repos(id)</text>
</g>
<!-- public.contributions -->
<g id="node7" class="node">
<title>public.contributions</title>
<polygon fill="#efefef" stroke="transparent" points="1920,-1099.5 1920,-1134.5 2219,-1134.5 2219,-1099.5 1920,-1099.5"/>
<polygon fill="none" stroke="#000000" points="1920,-1099.5 1920,-1134.5 2219,-1134.5 2219,-1099.5 1920,-1099.5"/>
<text text-anchor="start" x="1943.8574" y="-1112.3" font-family="Arial Bold" font-size="18.00" fill="#000000">public.contributions</text>
<text text-anchor="start" x="2097.8888" y="-1112.3" font-family="Arial" font-size="14.00" fill="#000000"> </text>
<text text-anchor="start" x="2101.7794" y="-1112.3" font-family="Arial" font-size="14.00" fill="#666666">[BASE TABLE]</text>
<polygon fill="none" stroke="#000000" points="1920,-1069.5 1920,-1099.5 2219,-1099.5 2219,-1069.5 1920,-1069.5"/>
<text text-anchor="start" x="1927" y="-1080.9" font-family="Arial" font-size="14.00" fill="#000000">id </text>
<text text-anchor="start" x="1941.7798" y="-1080.9" font-family="Arial" font-size="14.00" fill="#666666">[bigint]</text>
<polygon fill="none" stroke="#000000" points="1920,-1039.5 1920,-1069.5 2219,-1069.5 2219,-1039.5 1920,-1039.5"/>
<text text-anchor="start" x="1927" y="-1050.9" font-family="Arial" font-size="14.00" fill="#000000">repo_id </text>
<text text-anchor="start" x="1977.5708" y="-1050.9" font-family="Arial" font-size="14.00" fill="#666666">[bigint]</text>
<polygon fill="none" stroke="#000000" points="1920,-1009.5 1920,-1039.5 2219,-1039.5 2219,-1009.5 1920,-1009.5"/>
<text text-anchor="start" x="1927" y="-1020.9" font-family="Arial" font-size="14.00" fill="#000000">count </text>
<text text-anchor="start" x="1965.129" y="-1020.9" font-family="Arial" font-size="14.00" fill="#666666">[bigint]</text>
<polygon fill="none" stroke="#000000" points="1920,-979.5 1920,-1009.5 2219,-1009.5 2219,-979.5 1920,-979.5"/>
<text text-anchor="start" x="1926.7497" y="-990.9" font-family="Arial" font-size="14.00" fill="#000000">last_merged_at </text>
<text text-anchor="start" x="2027.1101" y="-990.9" font-family="Arial" font-size="14.00" fill="#666666">[timestamp without time zone]</text>
<polygon fill="none" stroke="#000000" points="1920,-949.5 1920,-979.5 2219,-979.5 2219,-949.5 1920,-949.5"/>
<text text-anchor="start" x="1927" y="-960.9" font-family="Arial" font-size="14.00" fill="#000000">contributor </text>
<text text-anchor="start" x="1997.0126" y="-960.9" font-family="Arial" font-size="14.00" fill="#666666">[varchar(255)]</text>
<polygon fill="none" stroke="#000000" points="1920,-919.5 1920,-949.5 2219,-949.5 2219,-919.5 1920,-919.5"/>
<text text-anchor="start" x="1927" y="-930.9" font-family="Arial" font-size="14.00" fill="#000000">url </text>
<text text-anchor="start" x="1946.4404" y="-930.9" font-family="Arial" font-size="14.00" fill="#666666">[varchar(255)]</text>
<polygon fill="none" stroke="#000000" points="1920,-889.5 1920,-919.5 2219,-919.5 2219,-889.5 1920,-889.5"/>
<text text-anchor="start" x="1927" y="-900.9" font-family="Arial" font-size="14.00" fill="#000000">deleted_at </text>
<text text-anchor="start" x="1996.2566" y="-900.9" font-family="Arial" font-size="14.00" fill="#666666">[timestamp with time zone]</text>
<polygon fill="none" stroke="#000000" points="1920,-859.5 1920,-889.5 2219,-889.5 2219,-859.5 1920,-859.5"/>
<text text-anchor="start" x="1927" y="-870.9" font-family="Arial" font-size="14.00" fill="#000000">updated_at </text>
<text text-anchor="start" x="2000.9326" y="-870.9" font-family="Arial" font-size="14.00" fill="#666666">[timestamp with time zone]</text>
<polygon fill="none" stroke="#000000" points="1920,-829.5 1920,-859.5 2219,-859.5 2219,-829.5 1920,-829.5"/>
<text text-anchor="start" x="1927" y="-840.9" font-family="Arial" font-size="14.00" fill="#000000">created_at </text>
<text text-anchor="start" x="1997.028" y="-840.9" font-family="Arial" font-size="14.00" fill="#666666">[timestamp with time zone]</text>
</g>
<!-- public.contributions&#45;&gt;public.repos -->
<g id="edge6" class="edge">
<title>public.contributions:repo_id&#45;&gt;public.repos:id</title>
<path fill="none" stroke="#000000" d="M1909.7279,-1054.0144C1807.7498,-1043.7253 1947.6485,-872.4946 1867,-787 1788.3885,-703.6649 1482.5622,-657.5 1368,-657.5"/>
<polygon fill="#000000" stroke="#000000" points="1910.0112,-1054.0277 1919.7875,-1058.995 1915.0056,-1054.2639 1920,-1054.5 1920,-1054.5 1920,-1054.5 1915.0056,-1054.2639 1920.2125,-1050.005 1910.0112,-1054.0277 1910.0112,-1054.0277"/>
<text text-anchor="start" x="1867.2755" y="-1038.5" font-family="Arial" font-size="10.00" fill="#000000">FOREIGN KEY (repo_id) REFERENCES repos(id)</text>
</g>
</g>
</svg>
