<?xml version="1.0" encoding="UTF-8" standalone="no"?>
<!DOCTYPE svg PUBLIC "-//W3C//DTD SVG 1.1//EN"
 "http://www.w3.org/Graphics/SVG/1.1/DTD/svg11.dtd">
<!-- Generated by graphviz version 2.40.1 (20161225.0304)
 -->
<!-- Title: public.users_to_repos_votes Pages: 1 -->
<svg width="2270pt" height="1816pt"
 viewBox="0.00 0.00 2269.50 1816.00" xmlns="http://www.w3.org/2000/svg" xmlns:xlink="http://www.w3.org/1999/xlink">
<g id="graph0" class="graph" transform="scale(1 1) rotate(0) translate(4 1812)">
<title>public.users_to_repos_votes</title>
<polygon fill="#ffffff" stroke="transparent" points="-4,4 -4,-1812 2265.5,-1812 2265.5,4 -4,4"/>
<!-- public.users_to_repos_votes -->
<g id="node1" class="node">
<title>public.users_to_repos_votes</title>
<polygon fill="#efefef" stroke="transparent" points="1472,-1684.5 1472,-1719.5 1812,-1719.5 1812,-1684.5 1472,-1684.5"/>
<polygon fill="none" stroke="#000000" points="1472,-1684.5 1472,-1719.5 1812,-1719.5 1812,-1684.5 1472,-1684.5"/>
<text text-anchor="start" x="1478.84" y="-1697.3" font-family="Arial Bold" font-size="18.00" fill="#000000">public.users_to_repos_votes</text>
<text text-anchor="start" x="1707.9062" y="-1697.3" font-family="Arial" font-size="14.00" fill="#000000"> </text>
<text text-anchor="start" x="1711.7968" y="-1697.3" font-family="Arial" font-size="14.00" fill="#666666">[BASE TABLE]</text>
<polygon fill="none" stroke="#000000" points="1472,-1654.5 1472,-1684.5 1812,-1684.5 1812,-1654.5 1472,-1654.5"/>
<text text-anchor="start" x="1479" y="-1665.9" font-family="Arial" font-size="14.00" fill="#000000">id </text>
<text text-anchor="start" x="1493.7798" y="-1665.9" font-family="Arial" font-size="14.00" fill="#666666">[bigint]</text>
<polygon fill="none" stroke="#000000" points="1472,-1624.5 1472,-1654.5 1812,-1654.5 1812,-1624.5 1472,-1624.5"/>
<text text-anchor="start" x="1479" y="-1635.9" font-family="Arial" font-size="14.00" fill="#000000">user_id </text>
<text text-anchor="start" x="1528.7882" y="-1635.9" font-family="Arial" font-size="14.00" fill="#666666">[bigint]</text>
<polygon fill="none" stroke="#000000" points="1472,-1594.5 1472,-1624.5 1812,-1624.5 1812,-1594.5 1472,-1594.5"/>
<text text-anchor="start" x="1479" y="-1605.9" font-family="Arial" font-size="14.00" fill="#000000">repo_id </text>
<text text-anchor="start" x="1529.5708" y="-1605.9" font-family="Arial" font-size="14.00" fill="#666666">[bigint]</text>
<polygon fill="none" stroke="#000000" points="1472,-1564.5 1472,-1594.5 1812,-1594.5 1812,-1564.5 1472,-1564.5"/>
<text text-anchor="start" x="1479" y="-1575.9" font-family="Arial" font-size="14.00" fill="#000000">created_at </text>
<text text-anchor="start" x="1549.028" y="-1575.9" font-family="Arial" font-size="14.00" fill="#666666">[timestamp with time zone]</text>
<polygon fill="none" stroke="#000000" points="1472,-1534.5 1472,-1564.5 1812,-1564.5 1812,-1534.5 1472,-1534.5"/>
<text text-anchor="start" x="1479" y="-1545.9" font-family="Arial" font-size="14.00" fill="#000000">updated_at </text>
<text text-anchor="start" x="1552.9326" y="-1545.9" font-family="Arial" font-size="14.00" fill="#666666">[timestamp with time zone]</text>
<polygon fill="none" stroke="#000000" points="1472,-1504.5 1472,-1534.5 1812,-1534.5 1812,-1504.5 1472,-1504.5"/>
<text text-anchor="start" x="1479" y="-1515.9" font-family="Arial" font-size="14.00" fill="#000000">deleted_at </text>
<text text-anchor="start" x="1548.2566" y="-1515.9" font-family="Arial" font-size="14.00" fill="#666666">[timestamp with time zone]</text>
<polygon fill="none" stroke="#000000" stroke-width="3" points="1470.5,-1503.5 1470.5,-1721.5 1813.5,-1721.5 1813.5,-1503.5 1470.5,-1503.5"/>
</g>
<!-- public.users -->
<g id="node2" class="node">
<title>public.users</title>
<polygon fill="#efefef" stroke="transparent" points="592,-972.5 592,-1007.5 845,-1007.5 845,-972.5 592,-972.5"/>
<polygon fill="none" stroke="#000000" points="592,-972.5 592,-1007.5 845,-1007.5 845,-972.5 592,-972.5"/>
<text text-anchor="start" x="621.8662" y="-985.3" font-family="Arial Bold" font-size="18.00" fill="#000000">public.users</text>
<text text-anchor="start" x="717.88" y="-985.3" font-family="Arial" font-size="14.00" fill="#000000"> </text>
<text text-anchor="start" x="721.7706" y="-985.3" font-family="Arial" font-size="14.00" fill="#666666">[BASE TABLE]</text>
<polygon fill="none" stroke="#000000" points="592,-942.5 592,-972.5 845,-972.5 845,-942.5 592,-942.5"/>
<text text-anchor="start" x="599" y="-953.9" font-family="Arial" font-size="14.00" fill="#000000">id </text>
<text text-anchor="start" x="613.7798" y="-953.9" font-family="Arial" font-size="14.00" fill="#666666">[bigint]</text>
<polygon fill="none" stroke="#000000" points="592,-912.5 592,-942.5 845,-942.5 845,-912.5 592,-912.5"/>
<text text-anchor="start" x="599" y="-923.9" font-family="Arial" font-size="14.00" fill="#000000">open_issues </text>
<text text-anchor="start" x="681.4754" y="-923.9" font-family="Arial" font-size="14.00" fill="#666666">[bigint]</text>
<polygon fill="none" stroke="#000000" points="592,-882.5 592,-912.5 845,-912.5 845,-882.5 592,-882.5"/>
<text text-anchor="start" x="599" y="-893.9" font-family="Arial" font-size="14.00" fill="#000000">has_stars_data </text>
<text text-anchor="start" x="698.5932" y="-893.9" font-family="Arial" font-size="14.00" fill="#666666">[boolean]</text>
<polygon fill="none" stroke="#000000" points="592,-852.5 592,-882.5 845,-882.5 845,-852.5 592,-852.5"/>
<text text-anchor="start" x="599" y="-863.9" font-family="Arial" font-size="14.00" fill="#000000">is_private </text>
<text text-anchor="start" x="662.7854" y="-863.9" font-family="Arial" font-size="14.00" fill="#666666">[boolean]</text>
<polygon fill="none" stroke="#000000" points="592,-822.5 592,-852.5 845,-852.5 845,-822.5 592,-822.5"/>
<text text-anchor="start" x="599" y="-833.9" font-family="Arial" font-size="14.00" fill="#000000">is_open_sauced_member </text>
<text text-anchor="start" x="763.9354" y="-833.9" font-family="Arial" font-size="14.00" fill="#666666">[boolean]</text>
<polygon fill="none" stroke="#000000" points="592,-792.5 592,-822.5 845,-822.5 845,-792.5 592,-792.5"/>
<text text-anchor="start" x="599" y="-803.9" font-family="Arial" font-size="14.00" fill="#000000">created_at </text>
<text text-anchor="start" x="669.028" y="-803.9" font-family="Arial" font-size="14.00" fill="#666666">[timestamp with time zone]</text>
<polygon fill="none" stroke="#000000" points="592,-762.5 592,-792.5 845,-792.5 845,-762.5 592,-762.5"/>
<text text-anchor="start" x="599" y="-773.9" font-family="Arial" font-size="14.00" fill="#000000">login </text>
<text text-anchor="start" x="632.4516" y="-773.9" font-family="Arial" font-size="14.00" fill="#666666">[varchar(255)]</text>
<polygon fill="none" stroke="#000000" points="592,-732.5 592,-762.5 845,-762.5 845,-732.5 592,-732.5"/>
<text text-anchor="start" x="599" y="-743.9" font-family="Arial" font-size="14.00" fill="#000000">deleted_at </text>
<text text-anchor="start" x="668.2566" y="-743.9" font-family="Arial" font-size="14.00" fill="#666666">[timestamp with time zone]</text>
<polygon fill="none" stroke="#000000" points="592,-702.5 592,-732.5 845,-732.5 845,-702.5 592,-702.5"/>
<text text-anchor="start" x="598.6915" y="-713.9" font-family="Arial" font-size="14.00" fill="#000000">updated_at </text>
<text text-anchor="start" x="672.6241" y="-713.9" font-family="Arial" font-size="14.00" fill="#666666">[timestamp with time zone]</text>
<polygon fill="none" stroke="#000000" points="592,-672.5 592,-702.5 845,-702.5 845,-672.5 592,-672.5"/>
<text text-anchor="start" x="599" y="-683.9" font-family="Arial" font-size="14.00" fill="#000000">is_onboarded </text>
<text text-anchor="start" x="687.7012" y="-683.9" font-family="Arial" font-size="14.00" fill="#666666">[boolean]</text>
<polygon fill="none" stroke="#000000" points="592,-642.5 592,-672.5 845,-672.5 845,-642.5 592,-642.5"/>
<text text-anchor="start" x="599" y="-653.9" font-family="Arial" font-size="14.00" fill="#000000">role </text>
<text text-anchor="start" x="626.223" y="-653.9" font-family="Arial" font-size="14.00" fill="#666666">[bigint]</text>
<polygon fill="none" stroke="#000000" points="592,-612.5 592,-642.5 845,-642.5 845,-612.5 592,-612.5"/>
<text text-anchor="start" x="599" y="-623.9" font-family="Arial" font-size="14.00" fill="#000000">is_waitlisted </text>
<text text-anchor="start" x="678.3352" y="-623.9" font-family="Arial" font-size="14.00" fill="#666666">[boolean]</text>
<polygon fill="none" stroke="#000000" points="592,-582.5 592,-612.5 845,-612.5 845,-582.5 592,-582.5"/>
<text text-anchor="start" x="599" y="-593.9" font-family="Arial" font-size="14.00" fill="#000000">email </text>
<text text-anchor="start" x="636.3296" y="-593.9" font-family="Arial" font-size="14.00" fill="#666666">[varchar(255)]</text>
<polygon fill="none" stroke="#000000" points="592,-552.5 592,-582.5 845,-582.5 845,-552.5 592,-552.5"/>
<text text-anchor="start" x="599" y="-563.9" font-family="Arial" font-size="14.00" fill="#000000">bio </text>
<text text-anchor="start" x="621.5624" y="-563.9" font-family="Arial" font-size="14.00" fill="#666666">[varchar(255)]</text>
<polygon fill="none" stroke="#000000" points="592,-522.5 592,-552.5 845,-552.5 845,-522.5 592,-522.5"/>
<text text-anchor="start" x="599" y="-533.9" font-family="Arial" font-size="14.00" fill="#000000">name </text>
<text text-anchor="start" x="637.899" y="-533.9" font-family="Arial" font-size="14.00" fill="#666666">[varchar(100)]</text>
<polygon fill="none" stroke="#000000" points="592,-492.5 592,-522.5 845,-522.5 845,-492.5 592,-492.5"/>
<text text-anchor="start" x="599" y="-503.9" font-family="Arial" font-size="14.00" fill="#000000">twitter_username </text>
<text text-anchor="start" x="710.2356" y="-503.9" font-family="Arial" font-size="14.00" fill="#666666">[varchar(15)]</text>
<polygon fill="none" stroke="#000000" points="592,-462.5 592,-492.5 845,-492.5 845,-462.5 592,-462.5"/>
<text text-anchor="start" x="599" y="-473.9" font-family="Arial" font-size="14.00" fill="#000000">company </text>
<text text-anchor="start" x="659.6816" y="-473.9" font-family="Arial" font-size="14.00" fill="#666666">[varchar(50)]</text>
<polygon fill="none" stroke="#000000" points="592,-432.5 592,-462.5 845,-462.5 845,-432.5 592,-432.5"/>
<text text-anchor="start" x="599" y="-443.9" font-family="Arial" font-size="14.00" fill="#000000">location </text>
<text text-anchor="start" x="651.1248" y="-443.9" font-family="Arial" font-size="14.00" fill="#666666">[varchar(50)]</text>
<polygon fill="none" stroke="#000000" points="592,-402.5 592,-432.5 845,-432.5 845,-402.5 592,-402.5"/>
<text text-anchor="start" x="599" y="-413.9" font-family="Arial" font-size="14.00" fill="#000000">display_local_time </text>
<text text-anchor="start" x="717.2356" y="-413.9" font-family="Arial" font-size="14.00" fill="#666666">[boolean]</text>
<polygon fill="none" stroke="#000000" points="592,-372.5 592,-402.5 845,-402.5 845,-372.5 592,-372.5"/>
<text text-anchor="start" x="599" y="-383.9" font-family="Arial" font-size="14.00" fill="#000000">timezone </text>
<text text-anchor="start" x="659.6788" y="-383.9" font-family="Arial" font-size="14.00" fill="#666666">[varchar(30)]</text>
</g>
<!-- public.users_to_repos_votes&#45;&gt;public.users -->
<g id="edge1" class="edge">
<title>public.users_to_repos_votes:user_id&#45;&gt;public.users:id</title>
<path fill="none" stroke="#000000" d="M1461.825,-1638.8977C1378.8805,-1628.2901 1492.0052,-1480.3596 1417,-1417 1334.7785,-1347.5445 1014.9867,-1451.8915 934,-1381 789.2791,-1254.3189 1037.3337,-957.5 845,-957.5"/>
<polygon fill="#000000" stroke="#000000" points="1462.0175,-1638.909 1471.734,-1643.9921 1467.0087,-1639.2045 1472,-1639.5 1472,-1639.5 1472,-1639.5 1467.0087,-1639.2045 1472.266,-1635.0079 1462.0175,-1638.909 1462.0175,-1638.909"/>
<text text-anchor="start" x="1242.3345" y="-1649.5" font-family="Arial" font-size="10.00" fill="#000000">FOREIGN KEY (user_id) REFERENCES users(id)</text>
</g>
<!-- public.repos -->
<g id="node6" class="node">
<title>public.repos</title>
<polygon fill="#efefef" stroke="transparent" points="986,-1302.5 986,-1337.5 1364,-1337.5 1364,-1302.5 986,-1302.5"/>
<polygon fill="none" stroke="#000000" points="986,-1302.5 986,-1337.5 1364,-1337.5 1364,-1302.5 986,-1302.5"/>
<text text-anchor="start" x="1077.8631" y="-1315.3" font-family="Arial Bold" font-size="18.00" fill="#000000">public.repos</text>
<text text-anchor="start" x="1174.8831" y="-1315.3" font-family="Arial" font-size="14.00" fill="#000000"> </text>
<text text-anchor="start" x="1178.7737" y="-1315.3" font-family="Arial" font-size="14.00" fill="#666666">[BASE TABLE]</text>
<polygon fill="none" stroke="#000000" points="986,-1272.5 986,-1302.5 1364,-1302.5 1364,-1272.5 986,-1272.5"/>
<text text-anchor="start" x="993" y="-1283.9" font-family="Arial" font-size="14.00" fill="#000000">id </text>
<text text-anchor="start" x="1007.7798" y="-1283.9" font-family="Arial" font-size="14.00" fill="#666666">[bigint]</text>
<polygon fill="none" stroke="#000000" points="986,-1242.5 986,-1272.5 1364,-1272.5 1364,-1242.5 986,-1242.5"/>
<text text-anchor="start" x="993" y="-1253.9" font-family="Arial" font-size="14.00" fill="#000000">user_id </text>
<text text-anchor="start" x="1042.7882" y="-1253.9" font-family="Arial" font-size="14.00" fill="#666666">[bigint]</text>
<polygon fill="none" stroke="#000000" points="986,-1212.5 986,-1242.5 1364,-1242.5 1364,-1212.5 986,-1212.5"/>
<text text-anchor="start" x="993" y="-1223.9" font-family="Arial" font-size="14.00" fill="#000000">issues </text>
<text text-anchor="start" x="1036.5624" y="-1223.9" font-family="Arial" font-size="14.00" fill="#666666">[bigint]</text>
<polygon fill="none" stroke="#000000" points="986,-1182.5 986,-1212.5 1364,-1212.5 1364,-1182.5 986,-1182.5"/>
<text text-anchor="start" x="993" y="-1193.9" font-family="Arial" font-size="14.00" fill="#000000">stars </text>
<text text-anchor="start" x="1027.2244" y="-1193.9" font-family="Arial" font-size="14.00" fill="#666666">[bigint]</text>
<polygon fill="none" stroke="#000000" points="986,-1152.5 986,-1182.5 1364,-1182.5 1364,-1152.5 986,-1152.5"/>
<text text-anchor="start" x="993" y="-1163.9" font-family="Arial" font-size="14.00" fill="#000000">watchers </text>
<text text-anchor="start" x="1052.8962" y="-1163.9" font-family="Arial" font-size="14.00" fill="#666666">[bigint]</text>
<polygon fill="none" stroke="#000000" points="986,-1122.5 986,-1152.5 1364,-1152.5 1364,-1122.5 986,-1122.5"/>
<text text-anchor="start" x="993" y="-1133.9" font-family="Arial" font-size="14.00" fill="#000000">subscribers </text>
<text text-anchor="start" x="1068.4488" y="-1133.9" font-family="Arial" font-size="14.00" fill="#666666">[bigint]</text>
<polygon fill="none" stroke="#000000" points="986,-1092.5 986,-1122.5 1364,-1122.5 1364,-1092.5 986,-1092.5"/>
<text text-anchor="start" x="993" y="-1103.9" font-family="Arial" font-size="14.00" fill="#000000">is_fork </text>
<text text-anchor="start" x="1038.1136" y="-1103.9" font-family="Arial" font-size="14.00" fill="#666666">[boolean]</text>
<polygon fill="none" stroke="#000000" points="986,-1062.5 986,-1092.5 1364,-1092.5 1364,-1062.5 986,-1062.5"/>
<text text-anchor="start" x="993" y="-1073.9" font-family="Arial" font-size="14.00" fill="#000000">created_at </text>
<text text-anchor="start" x="1063.028" y="-1073.9" font-family="Arial" font-size="14.00" fill="#666666">[timestamp without time zone]</text>
<polygon fill="none" stroke="#000000" points="986,-1032.5 986,-1062.5 1364,-1062.5 1364,-1032.5 986,-1032.5"/>
<text text-anchor="start" x="993" y="-1043.9" font-family="Arial" font-size="14.00" fill="#000000">updated_at </text>
<text text-anchor="start" x="1066.9326" y="-1043.9" font-family="Arial" font-size="14.00" fill="#666666">[timestamp without time zone]</text>
<polygon fill="none" stroke="#000000" points="986,-1002.5 986,-1032.5 1364,-1032.5 1364,-1002.5 986,-1002.5"/>
<text text-anchor="start" x="993" y="-1013.9" font-family="Arial" font-size="14.00" fill="#000000">pushed_at </text>
<text text-anchor="start" x="1062.2594" y="-1013.9" font-family="Arial" font-size="14.00" fill="#666666">[timestamp without time zone]</text>
<polygon fill="none" stroke="#000000" points="986,-972.5 986,-1002.5 1364,-1002.5 1364,-972.5 986,-972.5"/>
<text text-anchor="start" x="992.5674" y="-983.9" font-family="Arial" font-size="14.00" fill="#000000">last_fetched_contributors_at </text>
<text text-anchor="start" x="1172.2924" y="-983.9" font-family="Arial" font-size="14.00" fill="#666666">[timestamp without time zone]</text>
<polygon fill="none" stroke="#000000" points="986,-942.5 986,-972.5 1364,-972.5 1364,-942.5 986,-942.5"/>
<text text-anchor="start" x="993" y="-953.9" font-family="Arial" font-size="14.00" fill="#000000">name </text>
<text text-anchor="start" x="1031.899" y="-953.9" font-family="Arial" font-size="14.00" fill="#666666">[varchar(255)]</text>
<polygon fill="none" stroke="#000000" points="986,-912.5 986,-942.5 1364,-942.5 1364,-912.5 986,-912.5"/>
<text text-anchor="start" x="993" y="-923.9" font-family="Arial" font-size="14.00" fill="#000000">full_name </text>
<text text-anchor="start" x="1057.568" y="-923.9" font-family="Arial" font-size="14.00" fill="#666666">[varchar(255)]</text>
<polygon fill="none" stroke="#000000" points="986,-882.5 986,-912.5 1364,-912.5 1364,-882.5 986,-882.5"/>
<text text-anchor="start" x="993" y="-893.9" font-family="Arial" font-size="14.00" fill="#000000">description </text>
<text text-anchor="start" x="1064.568" y="-893.9" font-family="Arial" font-size="14.00" fill="#666666">[text]</text>
<polygon fill="none" stroke="#000000" points="986,-852.5 986,-882.5 1364,-882.5 1364,-852.5 986,-852.5"/>
<text text-anchor="start" x="993" y="-863.9" font-family="Arial" font-size="14.00" fill="#000000">language </text>
<text text-anchor="start" x="1054.4754" y="-863.9" font-family="Arial" font-size="14.00" fill="#666666">[varchar(64)]</text>
<polygon fill="none" stroke="#000000" points="986,-822.5 986,-852.5 1364,-852.5 1364,-822.5 986,-822.5"/>
<text text-anchor="start" x="993" y="-833.9" font-family="Arial" font-size="14.00" fill="#000000">license </text>
<text text-anchor="start" x="1040.4516" y="-833.9" font-family="Arial" font-size="14.00" fill="#666666">[varchar(64)]</text>
<polygon fill="none" stroke="#000000" points="986,-792.5 986,-822.5 1364,-822.5 1364,-792.5 986,-792.5"/>
<text text-anchor="start" x="993" y="-803.9" font-family="Arial" font-size="14.00" fill="#000000">url </text>
<text text-anchor="start" x="1012.4404" y="-803.9" font-family="Arial" font-size="14.00" fill="#666666">[varchar(255)]</text>
<polygon fill="none" stroke="#000000" points="986,-762.5 986,-792.5 1364,-792.5 1364,-762.5 986,-762.5"/>
<text text-anchor="start" x="993" y="-773.9" font-family="Arial" font-size="14.00" fill="#000000">deleted_at </text>
<text text-anchor="start" x="1062.2566" y="-773.9" font-family="Arial" font-size="14.00" fill="#666666">[timestamp with time zone]</text>
<polygon fill="none" stroke="#000000" points="986,-732.5 986,-762.5 1364,-762.5 1364,-732.5 986,-732.5"/>
<text text-anchor="start" x="993" y="-743.9" font-family="Arial" font-size="14.00" fill="#000000">last_fetched_repos_at </text>
<text text-anchor="start" x="1134.6114" y="-743.9" font-family="Arial" font-size="14.00" fill="#666666">[timestamp without time zone]</text>
<polygon fill="none" stroke="#000000" points="986,-702.5 986,-732.5 1364,-732.5 1364,-702.5 986,-702.5"/>
<text text-anchor="start" x="993" y="-713.9" font-family="Arial" font-size="14.00" fill="#000000">last_fetched_prs_at </text>
<text text-anchor="start" x="1119.0462" y="-713.9" font-family="Arial" font-size="14.00" fill="#666666">[timestamp without time zone]</text>
<polygon fill="none" stroke="#000000" points="986,-672.5 986,-702.5 1364,-702.5 1364,-672.5 986,-672.5"/>
<text text-anchor="start" x="993" y="-683.9" font-family="Arial" font-size="14.00" fill="#000000">last_fetched_commits_at </text>
<text text-anchor="start" x="1151.704" y="-683.9" font-family="Arial" font-size="14.00" fill="#666666">[timestamp without time zone]</text>
<polygon fill="none" stroke="#000000" points="986,-642.5 986,-672.5 1364,-672.5 1364,-642.5 986,-642.5"/>
<text text-anchor="start" x="993" y="-653.9" font-family="Arial" font-size="14.00" fill="#000000">size </text>
<text text-anchor="start" x="1021.7798" y="-653.9" font-family="Arial" font-size="14.00" fill="#666666">[bigint]</text>
<polygon fill="none" stroke="#000000" points="986,-612.5 986,-642.5 1364,-642.5 1364,-612.5 986,-612.5"/>
<text text-anchor="start" x="993" y="-623.9" font-family="Arial" font-size="14.00" fill="#000000">forks </text>
<text text-anchor="start" x="1027.2244" y="-623.9" font-family="Arial" font-size="14.00" fill="#666666">[bigint]</text>
<polygon fill="none" stroke="#000000" points="986,-582.5 986,-612.5 1364,-612.5 1364,-582.5 986,-582.5"/>
<text text-anchor="start" x="993" y="-593.9" font-family="Arial" font-size="14.00" fill="#000000">network </text>
<text text-anchor="start" x="1045.8962" y="-593.9" font-family="Arial" font-size="14.00" fill="#666666">[bigint]</text>
<polygon fill="none" stroke="#000000" points="986,-552.5 986,-582.5 1364,-582.5 1364,-552.5 986,-552.5"/>
<text text-anchor="start" x="993" y="-563.9" font-family="Arial" font-size="14.00" fill="#000000">is_private </text>
<text text-anchor="start" x="1056.7854" y="-563.9" font-family="Arial" font-size="14.00" fill="#666666">[boolean]</text>
<polygon fill="none" stroke="#000000" points="986,-522.5 986,-552.5 1364,-552.5 1364,-522.5 986,-522.5"/>
<text text-anchor="start" x="993" y="-533.9" font-family="Arial" font-size="14.00" fill="#000000">is_template </text>
<text text-anchor="start" x="1068.4586" y="-533.9" font-family="Arial" font-size="14.00" fill="#666666">[boolean]</text>
<polygon fill="none" stroke="#000000" points="986,-492.5 986,-522.5 1364,-522.5 1364,-492.5 986,-492.5"/>
<text text-anchor="start" x="993" y="-503.9" font-family="Arial" font-size="14.00" fill="#000000">is_archived </text>
<text text-anchor="start" x="1067.6774" y="-503.9" font-family="Arial" font-size="14.00" fill="#666666">[boolean]</text>
<polygon fill="none" stroke="#000000" points="986,-462.5 986,-492.5 1364,-492.5 1364,-462.5 986,-462.5"/>
<text text-anchor="start" x="993" y="-473.9" font-family="Arial" font-size="14.00" fill="#000000">is_disabled </text>
<text text-anchor="start" x="1066.906" y="-473.9" font-family="Arial" font-size="14.00" fill="#666666">[boolean]</text>
<polygon fill="none" stroke="#000000" points="986,-432.5 986,-462.5 1364,-462.5 1364,-432.5 986,-432.5"/>
<text text-anchor="start" x="993" y="-443.9" font-family="Arial" font-size="14.00" fill="#000000">has_issues </text>
<text text-anchor="start" x="1066.9102" y="-443.9" font-family="Arial" font-size="14.00" fill="#666666">[boolean]</text>
<polygon fill="none" stroke="#000000" points="986,-402.5 986,-432.5 1364,-432.5 1364,-402.5 986,-402.5"/>
<text text-anchor="start" x="993" y="-413.9" font-family="Arial" font-size="14.00" fill="#000000">has_projects </text>
<text text-anchor="start" x="1076.244" y="-413.9" font-family="Arial" font-size="14.00" fill="#666666">[boolean]</text>
<polygon fill="none" stroke="#000000" points="986,-372.5 986,-402.5 1364,-402.5 1364,-372.5 986,-372.5"/>
<text text-anchor="start" x="993" y="-383.9" font-family="Arial" font-size="14.00" fill="#000000">has_downloads </text>
<text text-anchor="start" x="1094.1472" y="-383.9" font-family="Arial" font-size="14.00" fill="#666666">[boolean]</text>
<polygon fill="none" stroke="#000000" points="986,-342.5 986,-372.5 1364,-372.5 1364,-342.5 986,-342.5"/>
<text text-anchor="start" x="993" y="-353.9" font-family="Arial" font-size="14.00" fill="#000000">has_wiki </text>
<text text-anchor="start" x="1050.5582" y="-353.9" font-family="Arial" font-size="14.00" fill="#666666">[boolean]</text>
<polygon fill="none" stroke="#000000" points="986,-312.5 986,-342.5 1364,-342.5 1364,-312.5 986,-312.5"/>
<text text-anchor="start" x="993" y="-323.9" font-family="Arial" font-size="14.00" fill="#000000">has_pages </text>
<text text-anchor="start" x="1065.3688" y="-323.9" font-family="Arial" font-size="14.00" fill="#666666">[boolean]</text>
<polygon fill="none" stroke="#000000" points="986,-282.5 986,-312.5 1364,-312.5 1364,-282.5 986,-282.5"/>
<text text-anchor="start" x="993" y="-293.9" font-family="Arial" font-size="14.00" fill="#000000">has_discussions </text>
<text text-anchor="start" x="1099.582" y="-293.9" font-family="Arial" font-size="14.00" fill="#666666">[boolean]</text>
<polygon fill="none" stroke="#000000" points="986,-252.5 986,-282.5 1364,-282.5 1364,-252.5 986,-252.5"/>
<text text-anchor="start" x="993" y="-263.9" font-family="Arial" font-size="14.00" fill="#000000">default_branch </text>
<text text-anchor="start" x="1089.4824" y="-263.9" font-family="Arial" font-size="14.00" fill="#666666">[varchar(255)]</text>
<polygon fill="none" stroke="#000000" points="986,-222.5 986,-252.5 1364,-252.5 1364,-222.5 986,-222.5"/>
<text text-anchor="start" x="993" y="-233.9" font-family="Arial" font-size="14.00" fill="#000000">node_id </text>
<text text-anchor="start" x="1046.6928" y="-233.9" font-family="Arial" font-size="14.00" fill="#666666">[varchar(255)]</text>
<polygon fill="none" stroke="#000000" points="986,-192.5 986,-222.5 1364,-222.5 1364,-192.5 986,-192.5"/>
<text text-anchor="start" x="993" y="-203.9" font-family="Arial" font-size="14.00" fill="#000000">git_url </text>
<text text-anchor="start" x="1035.0028" y="-203.9" font-family="Arial" font-size="14.00" fill="#666666">[varchar(255)]</text>
<polygon fill="none" stroke="#000000" points="986,-162.5 986,-192.5 1364,-192.5 1364,-162.5 986,-162.5"/>
<text text-anchor="start" x="993" y="-173.9" font-family="Arial" font-size="14.00" fill="#000000">ssh_url </text>
<text text-anchor="start" x="1042.0056" y="-173.9" font-family="Arial" font-size="14.00" fill="#666666">[varchar(255)]</text>
<polygon fill="none" stroke="#000000" points="986,-132.5 986,-162.5 1364,-162.5 1364,-132.5 986,-132.5"/>
<text text-anchor="start" x="993" y="-143.9" font-family="Arial" font-size="14.00" fill="#000000">clone_url </text>
<text text-anchor="start" x="1053.6774" y="-143.9" font-family="Arial" font-size="14.00" fill="#666666">[varchar(255)]</text>
<polygon fill="none" stroke="#000000" points="986,-102.5 986,-132.5 1364,-132.5 1364,-102.5 986,-102.5"/>
<text text-anchor="start" x="993" y="-113.9" font-family="Arial" font-size="14.00" fill="#000000">svn_url </text>
<text text-anchor="start" x="1042.0056" y="-113.9" font-family="Arial" font-size="14.00" fill="#666666">[varchar(255)]</text>
<polygon fill="none" stroke="#000000" points="986,-72.5 986,-102.5 1364,-102.5 1364,-72.5 986,-72.5"/>
<text text-anchor="start" x="993" y="-83.9" font-family="Arial" font-size="14.00" fill="#000000">mirror_url </text>
<text text-anchor="start" x="1056.7546" y="-83.9" font-family="Arial" font-size="14.00" fill="#666666">[varchar(255)]</text>
<polygon fill="none" stroke="#000000" points="986,-42.5 986,-72.5 1364,-72.5 1364,-42.5 986,-42.5"/>
<text text-anchor="start" x="993" y="-53.9" font-family="Arial" font-size="14.00" fill="#000000">homepage </text>
<text text-anchor="start" x="1063.0294" y="-53.9" font-family="Arial" font-size="14.00" fill="#666666">[varchar(255)]</text>
</g>
<!-- public.users_to_repos_votes&#45;&gt;public.repos -->
<g id="edge5" class="edge">
<title>public.users_to_repos_votes:repo_id&#45;&gt;public.repos:id</title>
<path fill="none" stroke="#000000" d="M1461.802,-1608.962C1388.0417,-1600.6471 1444.9235,-1497.6314 1417,-1417 1396.649,-1358.2348 1426.1893,-1287.5 1364,-1287.5"/>
<polygon fill="#000000" stroke="#000000" points="1462.0139,-1608.9731 1471.7629,-1613.9938 1467.0069,-1609.2365 1472,-1609.5 1472,-1609.5 1472,-1609.5 1467.0069,-1609.2365 1472.2371,-1605.0062 1462.0139,-1608.9731 1462.0139,-1608.9731"/>
<text text-anchor="start" x="1240.7755" y="-1619.5" font-family="Arial" font-size="10.00" fill="#000000">FOREIGN KEY (repo_id) REFERENCES repos(id)</text>
</g>
<!-- public.users_to_repos_stars -->
<g id="node3" class="node">
<title>public.users_to_repos_stars</title>
<polygon fill="#efefef" stroke="transparent" points="43,-1684.5 43,-1719.5 379,-1719.5 379,-1684.5 43,-1684.5"/>
<polygon fill="none" stroke="#000000" points="43,-1684.5 43,-1719.5 379,-1719.5 379,-1684.5 43,-1684.5"/>
<text text-anchor="start" x="49.847" y="-1697.3" font-family="Arial Bold" font-size="18.00" fill="#000000">public.users_to_repos_stars</text>
<text text-anchor="start" x="274.8992" y="-1697.3" font-family="Arial" font-size="14.00" fill="#000000"> </text>
<text text-anchor="start" x="278.7898" y="-1697.3" font-family="Arial" font-size="14.00" fill="#666666">[BASE TABLE]</text>
<polygon fill="none" stroke="#000000" points="43,-1654.5 43,-1684.5 379,-1684.5 379,-1654.5 43,-1654.5"/>
<text text-anchor="start" x="50" y="-1665.9" font-family="Arial" font-size="14.00" fill="#000000">id </text>
<text text-anchor="start" x="64.7798" y="-1665.9" font-family="Arial" font-size="14.00" fill="#666666">[bigint]</text>
<polygon fill="none" stroke="#000000" points="43,-1624.5 43,-1654.5 379,-1654.5 379,-1624.5 43,-1624.5"/>
<text text-anchor="start" x="50" y="-1635.9" font-family="Arial" font-size="14.00" fill="#000000">user_id </text>
<text text-anchor="start" x="99.7882" y="-1635.9" font-family="Arial" font-size="14.00" fill="#666666">[bigint]</text>
<polygon fill="none" stroke="#000000" points="43,-1594.5 43,-1624.5 379,-1624.5 379,-1594.5 43,-1594.5"/>
<text text-anchor="start" x="50" y="-1605.9" font-family="Arial" font-size="14.00" fill="#000000">repo_id </text>
<text text-anchor="start" x="100.5708" y="-1605.9" font-family="Arial" font-size="14.00" fill="#666666">[bigint]</text>
<polygon fill="none" stroke="#000000" points="43,-1564.5 43,-1594.5 379,-1594.5 379,-1564.5 43,-1564.5"/>
<text text-anchor="start" x="50" y="-1575.9" font-family="Arial" font-size="14.00" fill="#000000">created_at </text>
<text text-anchor="start" x="120.028" y="-1575.9" font-family="Arial" font-size="14.00" fill="#666666">[timestamp with time zone]</text>
<polygon fill="none" stroke="#000000" points="43,-1534.5 43,-1564.5 379,-1564.5 379,-1534.5 43,-1534.5"/>
<text text-anchor="start" x="50" y="-1545.9" font-family="Arial" font-size="14.00" fill="#000000">updated_at </text>
<text text-anchor="start" x="123.9326" y="-1545.9" font-family="Arial" font-size="14.00" fill="#666666">[timestamp with time zone]</text>
<polygon fill="none" stroke="#000000" points="43,-1504.5 43,-1534.5 379,-1534.5 379,-1504.5 43,-1504.5"/>
<text text-anchor="start" x="50" y="-1515.9" font-family="Arial" font-size="14.00" fill="#000000">deleted_at </text>
<text text-anchor="start" x="119.2566" y="-1515.9" font-family="Arial" font-size="14.00" fill="#666666">[timestamp with time zone]</text>
</g>
<!-- public.users_to_repos_stars&#45;&gt;public.users -->
<g id="edge2" class="edge">
<title>public.users_to_repos_stars:user_id&#45;&gt;public.users:id</title>
<path fill="none" stroke="#000000" d="M388.7969,-1637.0269C428.0872,-1615.6847 417.8045,-1462.3248 431,-1417 491.4881,-1209.2307 375.6047,-957.5 592,-957.5"/>
<polygon fill="#000000" stroke="#000000" points="388.6958,-1637.0523 377.8986,-1635.1369 383.8479,-1638.2762 379,-1639.5 379,-1639.5 379,-1639.5 383.8479,-1638.2762 380.1014,-1643.8631 388.6958,-1637.0523 388.6958,-1637.0523"/>
<text text-anchor="start" x="267.8345" y="-1623.5" font-family="Arial" font-size="10.00" fill="#000000">FOREIGN KEY (user_id) REFERENCES users(id)</text>
</g>
<!-- public.users_to_repos_stars&#45;&gt;public.repos -->
<g id="edge7" class="edge">
<title>public.users_to_repos_stars:repo_id&#45;&gt;public.repos:id</title>
<path fill="none" stroke="#000000" d="M389.3814,-1608.7641C458.9309,-1597.9639 365.7017,-1471.1255 431,-1417 510.7942,-1350.8588 802.2676,-1425.2268 896,-1381 948.1638,-1356.387 928.321,-1287.5 986,-1287.5"/>
<polygon fill="#000000" stroke="#000000" points="388.975,-1608.7928 378.6818,-1605.0113 383.9875,-1609.1464 379,-1609.5 379,-1609.5 379,-1609.5 383.9875,-1609.1464 379.3182,-1613.9887 388.975,-1608.7928 388.975,-1608.7928"/>
<text text-anchor="start" x="266.7755" y="-1593.5" font-family="Arial" font-size="10.00" fill="#000000">FOREIGN KEY (repo_id) REFERENCES repos(id)</text>
</g>
<!-- public.users_to_repos_submissions -->
<g id="node4" class="node">
<title>public.users_to_repos_submissions</title>
<polygon fill="#efefef" stroke="transparent" points="483,-1699.5 483,-1734.5 879,-1734.5 879,-1699.5 483,-1699.5"/>
<polygon fill="none" stroke="#000000" points="483,-1699.5 483,-1734.5 879,-1734.5 879,-1699.5 483,-1699.5"/>
<text text-anchor="start" x="489.8446" y="-1712.3" font-family="Arial Bold" font-size="18.00" fill="#000000">public.users_to_repos_submissions</text>
<text text-anchor="start" x="774.9016" y="-1712.3" font-family="Arial" font-size="14.00" fill="#000000"> </text>
<text text-anchor="start" x="778.7922" y="-1712.3" font-family="Arial" font-size="14.00" fill="#666666">[BASE TABLE]</text>
<polygon fill="none" stroke="#000000" points="483,-1669.5 483,-1699.5 879,-1699.5 879,-1669.5 483,-1669.5"/>
<text text-anchor="start" x="490" y="-1680.9" font-family="Arial" font-size="14.00" fill="#000000">id </text>
<text text-anchor="start" x="504.7798" y="-1680.9" font-family="Arial" font-size="14.00" fill="#666666">[bigint]</text>
<polygon fill="none" stroke="#000000" points="483,-1639.5 483,-1669.5 879,-1669.5 879,-1639.5 483,-1639.5"/>
<text text-anchor="start" x="490" y="-1650.9" font-family="Arial" font-size="14.00" fill="#000000">user_id </text>
<text text-anchor="start" x="539.7882" y="-1650.9" font-family="Arial" font-size="14.00" fill="#666666">[bigint]</text>
<polygon fill="none" stroke="#000000" points="483,-1609.5 483,-1639.5 879,-1639.5 879,-1609.5 483,-1609.5"/>
<text text-anchor="start" x="490" y="-1620.9" font-family="Arial" font-size="14.00" fill="#000000">repo_id </text>
<text text-anchor="start" x="540.5708" y="-1620.9" font-family="Arial" font-size="14.00" fill="#666666">[bigint]</text>
<polygon fill="none" stroke="#000000" points="483,-1579.5 483,-1609.5 879,-1609.5 879,-1579.5 483,-1579.5"/>
<text text-anchor="start" x="490" y="-1590.9" font-family="Arial" font-size="14.00" fill="#000000">created_at </text>
<text text-anchor="start" x="560.028" y="-1590.9" font-family="Arial" font-size="14.00" fill="#666666">[timestamp with time zone]</text>
<polygon fill="none" stroke="#000000" points="483,-1549.5 483,-1579.5 879,-1579.5 879,-1549.5 483,-1549.5"/>
<text text-anchor="start" x="490" y="-1560.9" font-family="Arial" font-size="14.00" fill="#000000">updated_at </text>
<text text-anchor="start" x="563.9326" y="-1560.9" font-family="Arial" font-size="14.00" fill="#666666">[timestamp with time zone]</text>
<polygon fill="none" stroke="#000000" points="483,-1519.5 483,-1549.5 879,-1549.5 879,-1519.5 483,-1519.5"/>
<text text-anchor="start" x="490" y="-1530.9" font-family="Arial" font-size="14.00" fill="#000000">deleted_at </text>
<text text-anchor="start" x="559.2566" y="-1530.9" font-family="Arial" font-size="14.00" fill="#666666">[timestamp with time zone]</text>
<polygon fill="none" stroke="#000000" points="483,-1489.5 483,-1519.5 879,-1519.5 879,-1489.5 483,-1489.5"/>
<text text-anchor="start" x="490" y="-1500.9" font-family="Arial" font-size="14.00" fill="#000000">is_accepted </text>
<text text-anchor="start" x="568.5834" y="-1500.9" font-family="Arial" font-size="14.00" fill="#666666">[boolean]</text>
</g>
<!-- public.users_to_repos_submissions&#45;&gt;public.users -->
<g id="edge3" class="edge">
<title>public.users_to_repos_submissions:user_id&#45;&gt;public.users:id</title>
<path fill="none" stroke="#000000" d="M889.1046,-1653.9608C966.2937,-1645.1915 906.3355,-1531.2985 879,-1447 801.2094,-1207.1053 339.8079,-957.5 592,-957.5"/>
<polygon fill="#000000" stroke="#000000" points="888.9858,-1653.967 878.7602,-1650.0064 883.9929,-1654.2335 879,-1654.5 879,-1654.5 879,-1654.5 883.9929,-1654.2335 879.2398,-1658.9936 888.9858,-1653.967 888.9858,-1653.967"/>
<text text-anchor="start" x="886.3345" y="-1664.5" font-family="Arial" font-size="10.00" fill="#000000">FOREIGN KEY (user_id) REFERENCES users(id)</text>
</g>
<!-- public.users_to_repos_submissions&#45;&gt;public.repos -->
<g id="edge8" class="edge">
<title>public.users_to_repos_submissions:repo_id&#45;&gt;public.repos:id</title>
<path fill="none" stroke="#000000" d="M889.3869,-1623.9714C968.5051,-1615.3728 901.9504,-1503.6187 931,-1417 950.883,-1357.7139 923.4686,-1287.5 986,-1287.5"/>
<polygon fill="#000000" stroke="#000000" points="888.9871,-1623.9916 878.7712,-1620.0058 883.9935,-1624.2458 879,-1624.5 879,-1624.5 879,-1624.5 883.9935,-1624.2458 879.2288,-1628.9942 888.9871,-1623.9916 888.9871,-1623.9916"/>
<text text-anchor="start" x="885.7755" y="-1634.5" font-family="Arial" font-size="10.00" fill="#000000">FOREIGN KEY (repo_id) REFERENCES repos(id)</text>
</g>
<!-- public.users_to_repos_stargazers -->
<g id="node5" class="node">
<title>public.users_to_repos_stargazers</title>
<polygon fill="#efefef" stroke="transparent" points="984,-1684.5 984,-1719.5 1365,-1719.5 1365,-1684.5 984,-1684.5"/>
<polygon fill="none" stroke="#000000" points="984,-1684.5 984,-1719.5 1365,-1719.5 1365,-1684.5 984,-1684.5"/>
<text text-anchor="start" x="990.8416" y="-1697.3" font-family="Arial Bold" font-size="18.00" fill="#000000">public.users_to_repos_stargazers</text>
<text text-anchor="start" x="1260.9046" y="-1697.3" font-family="Arial" font-size="14.00" fill="#000000"> </text>
<text text-anchor="start" x="1264.7952" y="-1697.3" font-family="Arial" font-size="14.00" fill="#666666">[BASE TABLE]</text>
<polygon fill="none" stroke="#000000" points="984,-1654.5 984,-1684.5 1365,-1684.5 1365,-1654.5 984,-1654.5"/>
<text text-anchor="start" x="991" y="-1665.9" font-family="Arial" font-size="14.00" fill="#000000">id </text>
<text text-anchor="start" x="1005.7798" y="-1665.9" font-family="Arial" font-size="14.00" fill="#666666">[bigint]</text>
<polygon fill="none" stroke="#000000" points="984,-1624.5 984,-1654.5 1365,-1654.5 1365,-1624.5 984,-1624.5"/>
<text text-anchor="start" x="991" y="-1635.9" font-family="Arial" font-size="14.00" fill="#000000">user_id </text>
<text text-anchor="start" x="1040.7882" y="-1635.9" font-family="Arial" font-size="14.00" fill="#666666">[bigint]</text>
<polygon fill="none" stroke="#000000" points="984,-1594.5 984,-1624.5 1365,-1624.5 1365,-1594.5 984,-1594.5"/>
<text text-anchor="start" x="991" y="-1605.9" font-family="Arial" font-size="14.00" fill="#000000">repo_id </text>
<text text-anchor="start" x="1041.5708" y="-1605.9" font-family="Arial" font-size="14.00" fill="#666666">[bigint]</text>
<polygon fill="none" stroke="#000000" points="984,-1564.5 984,-1594.5 1365,-1594.5 1365,-1564.5 984,-1564.5"/>
<text text-anchor="start" x="991" y="-1575.9" font-family="Arial" font-size="14.00" fill="#000000">created_at </text>
<text text-anchor="start" x="1061.028" y="-1575.9" font-family="Arial" font-size="14.00" fill="#666666">[timestamp without time zone]</text>
<polygon fill="none" stroke="#000000" points="984,-1534.5 984,-1564.5 1365,-1564.5 1365,-1534.5 984,-1534.5"/>
<text text-anchor="start" x="991" y="-1545.9" font-family="Arial" font-size="14.00" fill="#000000">updated_at </text>
<text text-anchor="start" x="1064.9326" y="-1545.9" font-family="Arial" font-size="14.00" fill="#666666">[timestamp without time zone]</text>
<polygon fill="none" stroke="#000000" points="984,-1504.5 984,-1534.5 1365,-1534.5 1365,-1504.5 984,-1504.5"/>
<text text-anchor="start" x="991" y="-1515.9" font-family="Arial" font-size="14.00" fill="#000000">deleted_at </text>
<text text-anchor="start" x="1060.2566" y="-1515.9" font-family="Arial" font-size="14.00" fill="#666666">[timestamp without time zone]</text>
</g>
<!-- public.users_to_repos_stargazers&#45;&gt;public.users -->
<g id="edge4" class="edge">
<title>public.users_to_repos_stargazers:user_id&#45;&gt;public.users:id</title>
<path fill="none" stroke="#000000" d="M976.7337,-1632.3023C937.9493,-1559.4142 881.3266,-957.5 845,-957.5"/>
<polygon fill="#000000" stroke="#000000" points="976.8954,-1632.4625 980.8331,-1642.6971 980.4477,-1635.9813 984,-1639.5 984,-1639.5 984,-1639.5 980.4477,-1635.9813 987.1669,-1636.3029 976.8954,-1632.4625 976.8954,-1632.4625"/>
<text text-anchor="start" x="813.5845" y="-1623.5" font-family="Arial" font-size="10.00" fill="#000000">FOREIGN KEY (user_id) REFERENCES users(id)</text>
</g>
<!-- public.users_to_repos_stargazers&#45;&gt;public.repos -->
<g id="edge9" class="edge">
<title>public.users_to_repos_stargazers:repo_id&#45;&gt;public.repos:id</title>
<path fill="none" stroke="#000000" d="M1375.2875,-1608.5968C1427.7454,-1598.711 1403.892,-1510.0823 1365,-1462 1256.6751,-1328.0775 1094.3249,-1514.9225 986,-1381 959.8662,-1348.6907 944.4444,-1287.5 986,-1287.5"/>
<polygon fill="#000000" stroke="#000000" points="1374.9617,-1608.6253 1364.6064,-1605.0172 1369.9808,-1609.0626 1365,-1609.5 1365,-1609.5 1365,-1609.5 1369.9808,-1609.0626 1365.3936,-1613.9828 1374.9617,-1608.6253 1374.9617,-1608.6253"/>
<text text-anchor="start" x="1252.7755" y="-1593.5" font-family="Arial" font-size="10.00" fill="#000000">FOREIGN KEY (repo_id) REFERENCES repos(id)</text>
</g>
<!-- public.contributions -->
<g id="node7" class="node">
<title>public.contributions</title>
<polygon fill="#efefef" stroke="transparent" points="1920,-1729.5 1920,-1764.5 2219,-1764.5 2219,-1729.5 1920,-1729.5"/>
<polygon fill="none" stroke="#000000" points="1920,-1729.5 1920,-1764.5 2219,-1764.5 2219,-1729.5 1920,-1729.5"/>
<text text-anchor="start" x="1943.8574" y="-1742.3" font-family="Arial Bold" font-size="18.00" fill="#000000">public.contributions</text>
<text text-anchor="start" x="2097.8888" y="-1742.3" font-family="Arial" font-size="14.00" fill="#000000"> </text>
<text text-anchor="start" x="2101.7794" y="-1742.3" font-family="Arial" font-size="14.00" fill="#666666">[BASE TABLE]</text>
<polygon fill="none" stroke="#000000" points="1920,-1699.5 1920,-1729.5 2219,-1729.5 2219,-1699.5 1920,-1699.5"/>
<text text-anchor="start" x="1927" y="-1710.9" font-family="Arial" font-size="14.00" fill="#000000">id </text>
<text text-anchor="start" x="1941.7798" y="-1710.9" font-family="Arial" font-size="14.00" fill="#666666">[bigint]</text>
<polygon fill="none" stroke="#000000" points="1920,-1669.5 1920,-1699.5 2219,-1699.5 2219,-1669.5 1920,-1669.5"/>
<text text-anchor="start" x="1927" y="-1680.9" font-family="Arial" font-size="14.00" fill="#000000">repo_id </text>
<text text-anchor="start" x="1977.5708" y="-1680.9" font-family="Arial" font-size="14.00" fill="#666666">[bigint]</text>
<polygon fill="none" stroke="#000000" points="1920,-1639.5 1920,-1669.5 2219,-1669.5 2219,-1639.5 1920,-1639.5"/>
<text text-anchor="start" x="1927" y="-1650.9" font-family="Arial" font-size="14.00" fill="#000000">count </text>
<text text-anchor="start" x="1965.129" y="-1650.9" font-family="Arial" font-size="14.00" fill="#666666">[bigint]</text>
<polygon fill="none" stroke="#000000" points="1920,-1609.5 1920,-1639.5 2219,-1639.5 2219,-1609.5 1920,-1609.5"/>
<text text-anchor="start" x="1926.7497" y="-1620.9" font-family="Arial" font-size="14.00" fill="#000000">last_merged_at </text>
<text text-anchor="start" x="2027.1101" y="-1620.9" font-family="Arial" font-size="14.00" fill="#666666">[timestamp without time zone]</text>
<polygon fill="none" stroke="#000000" points="1920,-1579.5 1920,-1609.5 2219,-1609.5 2219,-1579.5 1920,-1579.5"/>
<text text-anchor="start" x="1927" y="-1590.9" font-family="Arial" font-size="14.00" fill="#000000">contributor </text>
<text text-anchor="start" x="1997.0126" y="-1590.9" font-family="Arial" font-size="14.00" fill="#666666">[varchar(255)]</text>
<polygon fill="none" stroke="#000000" points="1920,-1549.5 1920,-1579.5 2219,-1579.5 2219,-1549.5 1920,-1549.5"/>
<text text-anchor="start" x="1927" y="-1560.9" font-family="Arial" font-size="14.00" fill="#000000">url </text>
<text text-anchor="start" x="1946.4404" y="-1560.9" font-family="Arial" font-size="14.00" fill="#666666">[varchar(255)]</text>
<polygon fill="none" stroke="#000000" points="1920,-1519.5 1920,-1549.5 2219,-1549.5 2219,-1519.5 1920,-1519.5"/>
<text text-anchor="start" x="1927" y="-1530.9" font-family="Arial" font-size="14.00" fill="#000000">deleted_at </text>
<text text-anchor="start" x="1996.2566" y="-1530.9" font-family="Arial" font-size="14.00" fill="#666666">[timestamp with time zone]</text>
<polygon fill="none" stroke="#000000" points="1920,-1489.5 1920,-1519.5 2219,-1519.5 2219,-1489.5 1920,-1489.5"/>
<text text-anchor="start" x="1927" y="-1500.9" font-family="Arial" font-size="14.00" fill="#000000">updated_at </text>
<text text-anchor="start" x="2000.9326" y="-1500.9" font-family="Arial" font-size="14.00" fill="#666666">[timestamp with time zone]</text>
<polygon fill="none" stroke="#000000" points="1920,-1459.5 1920,-1489.5 2219,-1489.5 2219,-1459.5 1920,-1459.5"/>
<text text-anchor="start" x="1927" y="-1470.9" font-family="Arial" font-size="14.00" fill="#000000">created_at </text>
<text text-anchor="start" x="1997.028" y="-1470.9" font-family="Arial" font-size="14.00" fill="#666666">[timestamp with time zone]</text>
</g>
<!-- public.contributions&#45;&gt;public.repos -->
<g id="edge6" class="edge">
<title>public.contributions:repo_id&#45;&gt;public.repos:id</title>
<path fill="none" stroke="#000000" d="M1909.7281,-1684.0142C1807.7548,-1673.7206 1947.7311,-1502.4165 1867,-1417 1787.7168,-1333.1155 1479.4228,-1287.5 1364,-1287.5"/>
<polygon fill="#000000" stroke="#000000" points="1910.0112,-1684.0275 1919.7874,-1688.995 1915.0056,-1684.2638 1920,-1684.5 1920,-1684.5 1920,-1684.5 1915.0056,-1684.2638 1920.2126,-1680.005 1910.0112,-1684.0275 1910.0112,-1684.0275"/>
<text text-anchor="start" x="1688.7755" y="-1694.5" font-family="Arial" font-size="10.00" fill="#000000">FOREIGN KEY (repo_id) REFERENCES repos(id)</text>
</g>
</g>
</svg>
