<?xml version="1.0" encoding="UTF-8" standalone="no"?>
<!DOCTYPE svg PUBLIC "-//W3C//DTD SVG 1.1//EN"
 "http://www.w3.org/Graphics/SVG/1.1/DTD/svg11.dtd">
<!-- Generated by graphviz version 2.40.1 (20161225.0304)
 -->
<!-- Title: hot.opensauced.pizza supabase Pages: 1 -->
<svg width="3176pt" height="1096pt"
 viewBox="0.00 0.00 3176.00 1096.00" xmlns="http://www.w3.org/2000/svg" xmlns:xlink="http://www.w3.org/1999/xlink">
<g id="graph0" class="graph" transform="scale(1 1) rotate(0) translate(4 1092)">
<title>hot.opensauced.pizza supabase</title>
<polygon fill="#ffffff" stroke="transparent" points="-4,4 -4,-1092 3172,-1092 3172,4 -4,4"/>
<!-- public.repos -->
<g id="node1" class="node">
<title>public.repos</title>
<polygon fill="#efefef" stroke="transparent" points="990,-582.5 990,-617.5 1368,-617.5 1368,-582.5 990,-582.5"/>
<polygon fill="none" stroke="#000000" points="990,-582.5 990,-617.5 1368,-617.5 1368,-582.5 990,-582.5"/>
<text text-anchor="start" x="1081.8631" y="-595.3" font-family="Arial Bold" font-size="18.00" fill="#000000">public.repos</text>
<text text-anchor="start" x="1178.8831" y="-595.3" font-family="Arial" font-size="14.00" fill="#000000"> </text>
<text text-anchor="start" x="1182.7737" y="-595.3" font-family="Arial" font-size="14.00" fill="#666666">[BASE TABLE]</text>
<polygon fill="none" stroke="#000000" points="990,-552.5 990,-582.5 1368,-582.5 1368,-552.5 990,-552.5"/>
<text text-anchor="start" x="997" y="-563.9" font-family="Arial" font-size="14.00" fill="#000000">id </text>
<text text-anchor="start" x="1011.7798" y="-563.9" font-family="Arial" font-size="14.00" fill="#666666">[bigint]</text>
<polygon fill="none" stroke="#000000" points="990,-522.5 990,-552.5 1368,-552.5 1368,-522.5 990,-522.5"/>
<text text-anchor="start" x="997" y="-533.9" font-family="Arial" font-size="14.00" fill="#000000">user_id </text>
<text text-anchor="start" x="1046.7882" y="-533.9" font-family="Arial" font-size="14.00" fill="#666666">[bigint]</text>
<polygon fill="none" stroke="#000000" points="990,-492.5 990,-522.5 1368,-522.5 1368,-492.5 990,-492.5"/>
<text text-anchor="start" x="997" y="-503.9" font-family="Arial" font-size="14.00" fill="#000000">issues </text>
<text text-anchor="start" x="1040.5624" y="-503.9" font-family="Arial" font-size="14.00" fill="#666666">[bigint]</text>
<polygon fill="none" stroke="#000000" points="990,-462.5 990,-492.5 1368,-492.5 1368,-462.5 990,-462.5"/>
<text text-anchor="start" x="997" y="-473.9" font-family="Arial" font-size="14.00" fill="#000000">stars </text>
<text text-anchor="start" x="1031.2244" y="-473.9" font-family="Arial" font-size="14.00" fill="#666666">[bigint]</text>
<polygon fill="none" stroke="#000000" points="990,-432.5 990,-462.5 1368,-462.5 1368,-432.5 990,-432.5"/>
<text text-anchor="start" x="997" y="-443.9" font-family="Arial" font-size="14.00" fill="#000000">watchers </text>
<text text-anchor="start" x="1056.8962" y="-443.9" font-family="Arial" font-size="14.00" fill="#666666">[bigint]</text>
<polygon fill="none" stroke="#000000" points="990,-402.5 990,-432.5 1368,-432.5 1368,-402.5 990,-402.5"/>
<text text-anchor="start" x="997" y="-413.9" font-family="Arial" font-size="14.00" fill="#000000">subscribers </text>
<text text-anchor="start" x="1072.4488" y="-413.9" font-family="Arial" font-size="14.00" fill="#666666">[bigint]</text>
<polygon fill="none" stroke="#000000" points="990,-372.5 990,-402.5 1368,-402.5 1368,-372.5 990,-372.5"/>
<text text-anchor="start" x="997" y="-383.9" font-family="Arial" font-size="14.00" fill="#000000">is_fork </text>
<text text-anchor="start" x="1042.1136" y="-383.9" font-family="Arial" font-size="14.00" fill="#666666">[boolean]</text>
<polygon fill="none" stroke="#000000" points="990,-342.5 990,-372.5 1368,-372.5 1368,-342.5 990,-342.5"/>
<text text-anchor="start" x="997" y="-353.9" font-family="Arial" font-size="14.00" fill="#000000">created_at </text>
<text text-anchor="start" x="1067.028" y="-353.9" font-family="Arial" font-size="14.00" fill="#666666">[timestamp without time zone]</text>
<polygon fill="none" stroke="#000000" points="990,-312.5 990,-342.5 1368,-342.5 1368,-312.5 990,-312.5"/>
<text text-anchor="start" x="997" y="-323.9" font-family="Arial" font-size="14.00" fill="#000000">updated_at </text>
<text text-anchor="start" x="1070.9326" y="-323.9" font-family="Arial" font-size="14.00" fill="#666666">[timestamp without time zone]</text>
<polygon fill="none" stroke="#000000" points="990,-282.5 990,-312.5 1368,-312.5 1368,-282.5 990,-282.5"/>
<text text-anchor="start" x="997" y="-293.9" font-family="Arial" font-size="14.00" fill="#000000">pushed_at </text>
<text text-anchor="start" x="1066.2594" y="-293.9" font-family="Arial" font-size="14.00" fill="#666666">[timestamp without time zone]</text>
<polygon fill="none" stroke="#000000" points="990,-252.5 990,-282.5 1368,-282.5 1368,-252.5 990,-252.5"/>
<text text-anchor="start" x="996.5674" y="-263.9" font-family="Arial" font-size="14.00" fill="#000000">last_fetched_contributors_at </text>
<text text-anchor="start" x="1176.2924" y="-263.9" font-family="Arial" font-size="14.00" fill="#666666">[timestamp without time zone]</text>
<polygon fill="none" stroke="#000000" points="990,-222.5 990,-252.5 1368,-252.5 1368,-222.5 990,-222.5"/>
<text text-anchor="start" x="997" y="-233.9" font-family="Arial" font-size="14.00" fill="#000000">name </text>
<text text-anchor="start" x="1035.899" y="-233.9" font-family="Arial" font-size="14.00" fill="#666666">[varchar(255)]</text>
<polygon fill="none" stroke="#000000" points="990,-192.5 990,-222.5 1368,-222.5 1368,-192.5 990,-192.5"/>
<text text-anchor="start" x="997" y="-203.9" font-family="Arial" font-size="14.00" fill="#000000">full_name </text>
<text text-anchor="start" x="1061.568" y="-203.9" font-family="Arial" font-size="14.00" fill="#666666">[varchar(255)]</text>
<polygon fill="none" stroke="#000000" points="990,-162.5 990,-192.5 1368,-192.5 1368,-162.5 990,-162.5"/>
<text text-anchor="start" x="997" y="-173.9" font-family="Arial" font-size="14.00" fill="#000000">description </text>
<text text-anchor="start" x="1068.568" y="-173.9" font-family="Arial" font-size="14.00" fill="#666666">[text]</text>
<polygon fill="none" stroke="#000000" points="990,-132.5 990,-162.5 1368,-162.5 1368,-132.5 990,-132.5"/>
<text text-anchor="start" x="997" y="-143.9" font-family="Arial" font-size="14.00" fill="#000000">language </text>
<text text-anchor="start" x="1058.4754" y="-143.9" font-family="Arial" font-size="14.00" fill="#666666">[varchar(64)]</text>
<polygon fill="none" stroke="#000000" points="990,-102.5 990,-132.5 1368,-132.5 1368,-102.5 990,-102.5"/>
<text text-anchor="start" x="997" y="-113.9" font-family="Arial" font-size="14.00" fill="#000000">license </text>
<text text-anchor="start" x="1044.4516" y="-113.9" font-family="Arial" font-size="14.00" fill="#666666">[varchar(64)]</text>
<polygon fill="none" stroke="#000000" points="990,-72.5 990,-102.5 1368,-102.5 1368,-72.5 990,-72.5"/>
<text text-anchor="start" x="997" y="-83.9" font-family="Arial" font-size="14.00" fill="#000000">url </text>
<text text-anchor="start" x="1016.4404" y="-83.9" font-family="Arial" font-size="14.00" fill="#666666">[varchar(255)]</text>
<polygon fill="none" stroke="#000000" points="990,-42.5 990,-72.5 1368,-72.5 1368,-42.5 990,-42.5"/>
<text text-anchor="start" x="997" y="-53.9" font-family="Arial" font-size="14.00" fill="#000000">deleted_at </text>
<text text-anchor="start" x="1066.2566" y="-53.9" font-family="Arial" font-size="14.00" fill="#666666">[timestamp with time zone]</text>
</g>
<!-- public.contributions -->
<g id="node2" class="node">
<title>public.contributions</title>
<polygon fill="#efefef" stroke="transparent" points="1914,-1009.5 1914,-1044.5 2213,-1044.5 2213,-1009.5 1914,-1009.5"/>
<polygon fill="none" stroke="#000000" points="1914,-1009.5 1914,-1044.5 2213,-1044.5 2213,-1009.5 1914,-1009.5"/>
<text text-anchor="start" x="1937.8574" y="-1022.3" font-family="Arial Bold" font-size="18.00" fill="#000000">public.contributions</text>
<text text-anchor="start" x="2091.8888" y="-1022.3" font-family="Arial" font-size="14.00" fill="#000000"> </text>
<text text-anchor="start" x="2095.7794" y="-1022.3" font-family="Arial" font-size="14.00" fill="#666666">[BASE TABLE]</text>
<polygon fill="none" stroke="#000000" points="1914,-979.5 1914,-1009.5 2213,-1009.5 2213,-979.5 1914,-979.5"/>
<text text-anchor="start" x="1921" y="-990.9" font-family="Arial" font-size="14.00" fill="#000000">id </text>
<text text-anchor="start" x="1935.7798" y="-990.9" font-family="Arial" font-size="14.00" fill="#666666">[bigint]</text>
<polygon fill="none" stroke="#000000" points="1914,-949.5 1914,-979.5 2213,-979.5 2213,-949.5 1914,-949.5"/>
<text text-anchor="start" x="1921" y="-960.9" font-family="Arial" font-size="14.00" fill="#000000">repo_id </text>
<text text-anchor="start" x="1971.5708" y="-960.9" font-family="Arial" font-size="14.00" fill="#666666">[bigint]</text>
<polygon fill="none" stroke="#000000" points="1914,-919.5 1914,-949.5 2213,-949.5 2213,-919.5 1914,-919.5"/>
<text text-anchor="start" x="1921" y="-930.9" font-family="Arial" font-size="14.00" fill="#000000">count </text>
<text text-anchor="start" x="1959.129" y="-930.9" font-family="Arial" font-size="14.00" fill="#666666">[bigint]</text>
<polygon fill="none" stroke="#000000" points="1914,-889.5 1914,-919.5 2213,-919.5 2213,-889.5 1914,-889.5"/>
<text text-anchor="start" x="1920.7497" y="-900.9" font-family="Arial" font-size="14.00" fill="#000000">last_merged_at </text>
<text text-anchor="start" x="2021.1101" y="-900.9" font-family="Arial" font-size="14.00" fill="#666666">[timestamp without time zone]</text>
<polygon fill="none" stroke="#000000" points="1914,-859.5 1914,-889.5 2213,-889.5 2213,-859.5 1914,-859.5"/>
<text text-anchor="start" x="1921" y="-870.9" font-family="Arial" font-size="14.00" fill="#000000">contributor </text>
<text text-anchor="start" x="1991.0126" y="-870.9" font-family="Arial" font-size="14.00" fill="#666666">[varchar(255)]</text>
<polygon fill="none" stroke="#000000" points="1914,-829.5 1914,-859.5 2213,-859.5 2213,-829.5 1914,-829.5"/>
<text text-anchor="start" x="1921" y="-840.9" font-family="Arial" font-size="14.00" fill="#000000">url </text>
<text text-anchor="start" x="1940.4404" y="-840.9" font-family="Arial" font-size="14.00" fill="#666666">[varchar(255)]</text>
<polygon fill="none" stroke="#000000" points="1914,-799.5 1914,-829.5 2213,-829.5 2213,-799.5 1914,-799.5"/>
<text text-anchor="start" x="1921" y="-810.9" font-family="Arial" font-size="14.00" fill="#000000">deleted_at </text>
<text text-anchor="start" x="1990.2566" y="-810.9" font-family="Arial" font-size="14.00" fill="#666666">[timestamp with time zone]</text>
<polygon fill="none" stroke="#000000" points="1914,-769.5 1914,-799.5 2213,-799.5 2213,-769.5 1914,-769.5"/>
<text text-anchor="start" x="1921" y="-780.9" font-family="Arial" font-size="14.00" fill="#000000">updated_at </text>
<text text-anchor="start" x="1994.9326" y="-780.9" font-family="Arial" font-size="14.00" fill="#666666">[timestamp with time zone]</text>
<polygon fill="none" stroke="#000000" points="1914,-739.5 1914,-769.5 2213,-769.5 2213,-739.5 1914,-739.5"/>
<text text-anchor="start" x="1921" y="-750.9" font-family="Arial" font-size="14.00" fill="#000000">created_at </text>
<text text-anchor="start" x="1991.028" y="-750.9" font-family="Arial" font-size="14.00" fill="#666666">[timestamp with time zone]</text>
</g>
<!-- public.contributions&#45;&gt;public.repos -->
<g id="edge1" class="edge">
<title>public.contributions:repo_id&#45;&gt;public.repos:id</title>
<path fill="none" stroke="#000000" d="M1903.7276,-964.0148C1801.7422,-953.7325 1941.522,-782.6137 1861,-697 1783.3957,-614.4885 1481.2722,-567.5 1368,-567.5"/>
<polygon fill="#000000" stroke="#000000" points="1904.0111,-964.0281 1913.7876,-968.995 1909.0056,-964.264 1914,-964.5 1914,-964.5 1914,-964.5 1909.0056,-964.264 1914.2124,-960.005 1904.0111,-964.0281 1904.0111,-964.0281"/>
<text text-anchor="start" x="1861.2755" y="-948.5" font-family="Arial" font-size="10.00" fill="#000000">FOREIGN KEY (repo_id) REFERENCES repos(id)</text>
</g>
<!-- public.users -->
<g id="node3" class="node">
<title>public.users</title>
<polygon fill="#efefef" stroke="transparent" points="596,-492.5 596,-527.5 849,-527.5 849,-492.5 596,-492.5"/>
<polygon fill="none" stroke="#000000" points="596,-492.5 596,-527.5 849,-527.5 849,-492.5 596,-492.5"/>
<text text-anchor="start" x="625.8662" y="-505.3" font-family="Arial Bold" font-size="18.00" fill="#000000">public.users</text>
<text text-anchor="start" x="721.88" y="-505.3" font-family="Arial" font-size="14.00" fill="#000000"> </text>
<text text-anchor="start" x="725.7706" y="-505.3" font-family="Arial" font-size="14.00" fill="#666666">[BASE TABLE]</text>
<polygon fill="none" stroke="#000000" points="596,-462.5 596,-492.5 849,-492.5 849,-462.5 596,-462.5"/>
<text text-anchor="start" x="603" y="-473.9" font-family="Arial" font-size="14.00" fill="#000000">id </text>
<text text-anchor="start" x="617.7798" y="-473.9" font-family="Arial" font-size="14.00" fill="#666666">[bigint]</text>
<polygon fill="none" stroke="#000000" points="596,-432.5 596,-462.5 849,-462.5 849,-432.5 596,-432.5"/>
<text text-anchor="start" x="603" y="-443.9" font-family="Arial" font-size="14.00" fill="#000000">open_issues </text>
<text text-anchor="start" x="685.4754" y="-443.9" font-family="Arial" font-size="14.00" fill="#666666">[bigint]</text>
<polygon fill="none" stroke="#000000" points="596,-402.5 596,-432.5 849,-432.5 849,-402.5 596,-402.5"/>
<text text-anchor="start" x="603" y="-413.9" font-family="Arial" font-size="14.00" fill="#000000">has_stars_data </text>
<text text-anchor="start" x="702.5932" y="-413.9" font-family="Arial" font-size="14.00" fill="#666666">[boolean]</text>
<polygon fill="none" stroke="#000000" points="596,-372.5 596,-402.5 849,-402.5 849,-372.5 596,-372.5"/>
<text text-anchor="start" x="603" y="-383.9" font-family="Arial" font-size="14.00" fill="#000000">is_private </text>
<text text-anchor="start" x="666.7854" y="-383.9" font-family="Arial" font-size="14.00" fill="#666666">[boolean]</text>
<polygon fill="none" stroke="#000000" points="596,-342.5 596,-372.5 849,-372.5 849,-342.5 596,-342.5"/>
<text text-anchor="start" x="603" y="-353.9" font-family="Arial" font-size="14.00" fill="#000000">is_open_sauced_member </text>
<text text-anchor="start" x="767.9354" y="-353.9" font-family="Arial" font-size="14.00" fill="#666666">[boolean]</text>
<polygon fill="none" stroke="#000000" points="596,-312.5 596,-342.5 849,-342.5 849,-312.5 596,-312.5"/>
<text text-anchor="start" x="603" y="-323.9" font-family="Arial" font-size="14.00" fill="#000000">created_at </text>
<text text-anchor="start" x="673.028" y="-323.9" font-family="Arial" font-size="14.00" fill="#666666">[timestamp with time zone]</text>
<polygon fill="none" stroke="#000000" points="596,-282.5 596,-312.5 849,-312.5 849,-282.5 596,-282.5"/>
<text text-anchor="start" x="603" y="-293.9" font-family="Arial" font-size="14.00" fill="#000000">login </text>
<text text-anchor="start" x="636.4516" y="-293.9" font-family="Arial" font-size="14.00" fill="#666666">[varchar(255)]</text>
<polygon fill="none" stroke="#000000" points="596,-252.5 596,-282.5 849,-282.5 849,-252.5 596,-252.5"/>
<text text-anchor="start" x="603" y="-263.9" font-family="Arial" font-size="14.00" fill="#000000">deleted_at </text>
<text text-anchor="start" x="672.2566" y="-263.9" font-family="Arial" font-size="14.00" fill="#666666">[timestamp with time zone]</text>
<polygon fill="none" stroke="#000000" points="596,-222.5 596,-252.5 849,-252.5 849,-222.5 596,-222.5"/>
<text text-anchor="start" x="602.6915" y="-233.9" font-family="Arial" font-size="14.00" fill="#000000">updated_at </text>
<text text-anchor="start" x="676.6241" y="-233.9" font-family="Arial" font-size="14.00" fill="#666666">[timestamp with time zone]</text>
<polygon fill="none" stroke="#000000" points="596,-192.5 596,-222.5 849,-222.5 849,-192.5 596,-192.5"/>
<text text-anchor="start" x="603" y="-203.9" font-family="Arial" font-size="14.00" fill="#000000">is_onboarded </text>
<text text-anchor="start" x="691.7012" y="-203.9" font-family="Arial" font-size="14.00" fill="#666666">[boolean]</text>
<polygon fill="none" stroke="#000000" points="596,-162.5 596,-192.5 849,-192.5 849,-162.5 596,-162.5"/>
<text text-anchor="start" x="603" y="-173.9" font-family="Arial" font-size="14.00" fill="#000000">role </text>
<text text-anchor="start" x="630.223" y="-173.9" font-family="Arial" font-size="14.00" fill="#666666">[bigint]</text>
<polygon fill="none" stroke="#000000" points="596,-132.5 596,-162.5 849,-162.5 849,-132.5 596,-132.5"/>
<text text-anchor="start" x="603" y="-143.9" font-family="Arial" font-size="14.00" fill="#000000">is_waitlisted </text>
<text text-anchor="start" x="682.3352" y="-143.9" font-family="Arial" font-size="14.00" fill="#666666">[boolean]</text>
</g>
<!-- public.users_to_repos_stars -->
<g id="node4" class="node">
<title>public.users_to_repos_stars</title>
<polygon fill="#efefef" stroke="transparent" points="1473,-964.5 1473,-999.5 1809,-999.5 1809,-964.5 1473,-964.5"/>
<polygon fill="none" stroke="#000000" points="1473,-964.5 1473,-999.5 1809,-999.5 1809,-964.5 1473,-964.5"/>
<text text-anchor="start" x="1479.847" y="-977.3" font-family="Arial Bold" font-size="18.00" fill="#000000">public.users_to_repos_stars</text>
<text text-anchor="start" x="1704.8992" y="-977.3" font-family="Arial" font-size="14.00" fill="#000000"> </text>
<text text-anchor="start" x="1708.7898" y="-977.3" font-family="Arial" font-size="14.00" fill="#666666">[BASE TABLE]</text>
<polygon fill="none" stroke="#000000" points="1473,-934.5 1473,-964.5 1809,-964.5 1809,-934.5 1473,-934.5"/>
<text text-anchor="start" x="1480" y="-945.9" font-family="Arial" font-size="14.00" fill="#000000">id </text>
<text text-anchor="start" x="1494.7798" y="-945.9" font-family="Arial" font-size="14.00" fill="#666666">[bigint]</text>
<polygon fill="none" stroke="#000000" points="1473,-904.5 1473,-934.5 1809,-934.5 1809,-904.5 1473,-904.5"/>
<text text-anchor="start" x="1480" y="-915.9" font-family="Arial" font-size="14.00" fill="#000000">user_id </text>
<text text-anchor="start" x="1529.7882" y="-915.9" font-family="Arial" font-size="14.00" fill="#666666">[bigint]</text>
<polygon fill="none" stroke="#000000" points="1473,-874.5 1473,-904.5 1809,-904.5 1809,-874.5 1473,-874.5"/>
<text text-anchor="start" x="1480" y="-885.9" font-family="Arial" font-size="14.00" fill="#000000">repo_id </text>
<text text-anchor="start" x="1530.5708" y="-885.9" font-family="Arial" font-size="14.00" fill="#666666">[bigint]</text>
<polygon fill="none" stroke="#000000" points="1473,-844.5 1473,-874.5 1809,-874.5 1809,-844.5 1473,-844.5"/>
<text text-anchor="start" x="1480" y="-855.9" font-family="Arial" font-size="14.00" fill="#000000">created_at </text>
<text text-anchor="start" x="1550.028" y="-855.9" font-family="Arial" font-size="14.00" fill="#666666">[timestamp with time zone]</text>
<polygon fill="none" stroke="#000000" points="1473,-814.5 1473,-844.5 1809,-844.5 1809,-814.5 1473,-814.5"/>
<text text-anchor="start" x="1480" y="-825.9" font-family="Arial" font-size="14.00" fill="#000000">updated_at </text>
<text text-anchor="start" x="1553.9326" y="-825.9" font-family="Arial" font-size="14.00" fill="#666666">[timestamp with time zone]</text>
<polygon fill="none" stroke="#000000" points="1473,-784.5 1473,-814.5 1809,-814.5 1809,-784.5 1473,-784.5"/>
<text text-anchor="start" x="1480" y="-795.9" font-family="Arial" font-size="14.00" fill="#000000">deleted_at </text>
<text text-anchor="start" x="1549.2566" y="-795.9" font-family="Arial" font-size="14.00" fill="#666666">[timestamp with time zone]</text>
</g>
<!-- public.users_to_repos_stars&#45;&gt;public.repos -->
<g id="edge2" class="edge">
<title>public.users_to_repos_stars:repo_id&#45;&gt;public.repos:id</title>
<path fill="none" stroke="#000000" d="M1462.8537,-888.9614C1389.5541,-880.6369 1448.2298,-777.5069 1421,-697 1401.0746,-638.0892 1430.1893,-567.5 1368,-567.5"/>
<polygon fill="#000000" stroke="#000000" points="1463.0141,-888.9698 1472.7614,-893.9937 1468.007,-889.2349 1473,-889.5 1473,-889.5 1473,-889.5 1468.007,-889.2349 1473.2386,-885.0063 1463.0141,-888.9698 1463.0141,-888.9698"/>
<text text-anchor="start" x="1420.2755" y="-873.5" font-family="Arial" font-size="10.00" fill="#000000">FOREIGN KEY (repo_id) REFERENCES repos(id)</text>
</g>
<!-- public.users_to_repos_stars&#45;&gt;public.users -->
<g id="edge3" class="edge">
<title>public.users_to_repos_stars:user_id&#45;&gt;public.users:id</title>
<path fill="none" stroke="#000000" d="M1462.8654,-918.8988C1380.3372,-908.3104 1495.3716,-760.641 1421,-697 1339.2228,-627.0219 1027.0256,-721.4888 938,-661 863.0268,-610.0592 939.6419,-477.5 849,-477.5"/>
<polygon fill="#000000" stroke="#000000" points="1463.0175,-918.9077 1472.7335,-923.9921 1468.0088,-919.2039 1473,-919.5 1473,-919.5 1473,-919.5 1468.0088,-919.2039 1473.2665,-915.0079 1463.0175,-918.9077 1463.0175,-918.9077"/>
<text text-anchor="start" x="1421.0845" y="-903.5" font-family="Arial" font-size="10.00" fill="#000000">FOREIGN KEY (user_id) REFERENCES users(id)</text>
</g>
<!-- public.users_to_repos_votes -->
<g id="node5" class="node">
<title>public.users_to_repos_votes</title>
<polygon fill="#efefef" stroke="transparent" points="43,-964.5 43,-999.5 383,-999.5 383,-964.5 43,-964.5"/>
<polygon fill="none" stroke="#000000" points="43,-964.5 43,-999.5 383,-999.5 383,-964.5 43,-964.5"/>
<text text-anchor="start" x="49.84" y="-977.3" font-family="Arial Bold" font-size="18.00" fill="#000000">public.users_to_repos_votes</text>
<text text-anchor="start" x="278.9062" y="-977.3" font-family="Arial" font-size="14.00" fill="#000000"> </text>
<text text-anchor="start" x="282.7968" y="-977.3" font-family="Arial" font-size="14.00" fill="#666666">[BASE TABLE]</text>
<polygon fill="none" stroke="#000000" points="43,-934.5 43,-964.5 383,-964.5 383,-934.5 43,-934.5"/>
<text text-anchor="start" x="50" y="-945.9" font-family="Arial" font-size="14.00" fill="#000000">id </text>
<text text-anchor="start" x="64.7798" y="-945.9" font-family="Arial" font-size="14.00" fill="#666666">[bigint]</text>
<polygon fill="none" stroke="#000000" points="43,-904.5 43,-934.5 383,-934.5 383,-904.5 43,-904.5"/>
<text text-anchor="start" x="50" y="-915.9" font-family="Arial" font-size="14.00" fill="#000000">user_id </text>
<text text-anchor="start" x="99.7882" y="-915.9" font-family="Arial" font-size="14.00" fill="#666666">[bigint]</text>
<polygon fill="none" stroke="#000000" points="43,-874.5 43,-904.5 383,-904.5 383,-874.5 43,-874.5"/>
<text text-anchor="start" x="50" y="-885.9" font-family="Arial" font-size="14.00" fill="#000000">repo_id </text>
<text text-anchor="start" x="100.5708" y="-885.9" font-family="Arial" font-size="14.00" fill="#666666">[bigint]</text>
<polygon fill="none" stroke="#000000" points="43,-844.5 43,-874.5 383,-874.5 383,-844.5 43,-844.5"/>
<text text-anchor="start" x="50" y="-855.9" font-family="Arial" font-size="14.00" fill="#000000">created_at </text>
<text text-anchor="start" x="120.028" y="-855.9" font-family="Arial" font-size="14.00" fill="#666666">[timestamp with time zone]</text>
<polygon fill="none" stroke="#000000" points="43,-814.5 43,-844.5 383,-844.5 383,-814.5 43,-814.5"/>
<text text-anchor="start" x="50" y="-825.9" font-family="Arial" font-size="14.00" fill="#000000">updated_at </text>
<text text-anchor="start" x="123.9326" y="-825.9" font-family="Arial" font-size="14.00" fill="#666666">[timestamp with time zone]</text>
<polygon fill="none" stroke="#000000" points="43,-784.5 43,-814.5 383,-814.5 383,-784.5 43,-784.5"/>
<text text-anchor="start" x="50" y="-795.9" font-family="Arial" font-size="14.00" fill="#000000">deleted_at </text>
<text text-anchor="start" x="119.2566" y="-795.9" font-family="Arial" font-size="14.00" fill="#666666">[timestamp with time zone]</text>
</g>
<!-- public.users_to_repos_votes&#45;&gt;public.repos -->
<g id="edge4" class="edge">
<title>public.users_to_repos_votes:repo_id&#45;&gt;public.repos:id</title>
<path fill="none" stroke="#000000" d="M393.3814,-888.7641C462.9309,-877.9639 369.7017,-751.1255 435,-697 514.7942,-630.8588 806.2676,-705.2268 900,-661 952.1638,-636.387 932.321,-567.5 990,-567.5"/>
<polygon fill="#000000" stroke="#000000" points="392.975,-888.7928 382.6818,-885.0113 387.9875,-889.1464 383,-889.5 383,-889.5 383,-889.5 387.9875,-889.1464 383.3182,-893.9887 392.975,-888.7928 392.975,-888.7928"/>
<text text-anchor="start" x="389.7755" y="-899.5" font-family="Arial" font-size="10.00" fill="#000000">FOREIGN KEY (repo_id) REFERENCES repos(id)</text>
</g>
<!-- public.users_to_repos_votes&#45;&gt;public.users -->
<g id="edge5" class="edge">
<title>public.users_to_repos_votes:user_id&#45;&gt;public.users:id</title>
<path fill="none" stroke="#000000" d="M393.0073,-919.0244C478.251,-910.3892 394.0452,-786.0137 435,-697 485.5688,-587.0906 475.0154,-477.5 596,-477.5"/>
<polygon fill="#000000" stroke="#000000" points="392.9887,-919.0252 382.7863,-915.0051 387.9944,-919.2626 383,-919.5 383,-919.5 383,-919.5 387.9944,-919.2626 383.2137,-923.9949 392.9887,-919.0252 392.9887,-919.0252"/>
<text text-anchor="start" x="390.3345" y="-929.5" font-family="Arial" font-size="10.00" fill="#000000">FOREIGN KEY (user_id) REFERENCES users(id)</text>
</g>
<!-- public.private_access_tokens -->
<g id="node6" class="node">
<title>public.private_access_tokens</title>
<polygon fill="#efefef" stroke="transparent" points="2317,-964.5 2317,-999.5 2663,-999.5 2663,-964.5 2317,-964.5"/>
<polygon fill="none" stroke="#000000" points="2317,-964.5 2317,-999.5 2663,-999.5 2663,-964.5 2317,-964.5"/>
<text text-anchor="start" x="2323.8421" y="-977.3" font-family="Arial Bold" font-size="18.00" fill="#000000">public.private_access_tokens</text>
<text text-anchor="start" x="2558.9041" y="-977.3" font-family="Arial" font-size="14.00" fill="#000000"> </text>
<text text-anchor="start" x="2562.7947" y="-977.3" font-family="Arial" font-size="14.00" fill="#666666">[BASE TABLE]</text>
<polygon fill="none" stroke="#000000" points="2317,-934.5 2317,-964.5 2663,-964.5 2663,-934.5 2317,-934.5"/>
<text text-anchor="start" x="2324" y="-945.9" font-family="Arial" font-size="14.00" fill="#000000">id </text>
<text text-anchor="start" x="2338.7798" y="-945.9" font-family="Arial" font-size="14.00" fill="#666666">[bigint]</text>
<polygon fill="none" stroke="#000000" points="2317,-904.5 2317,-934.5 2663,-934.5 2663,-904.5 2317,-904.5"/>
<text text-anchor="start" x="2324" y="-915.9" font-family="Arial" font-size="14.00" fill="#000000">user_id </text>
<text text-anchor="start" x="2373.7882" y="-915.9" font-family="Arial" font-size="14.00" fill="#666666">[bigint]</text>
<polygon fill="none" stroke="#000000" points="2317,-874.5 2317,-904.5 2663,-904.5 2663,-874.5 2317,-874.5"/>
<text text-anchor="start" x="2324" y="-885.9" font-family="Arial" font-size="14.00" fill="#000000">is_deleted </text>
<text text-anchor="start" x="2391.69" y="-885.9" font-family="Arial" font-size="14.00" fill="#666666">[boolean]</text>
<polygon fill="none" stroke="#000000" points="2317,-844.5 2317,-874.5 2663,-874.5 2663,-844.5 2317,-844.5"/>
<text text-anchor="start" x="2324" y="-855.9" font-family="Arial" font-size="14.00" fill="#000000">created_at </text>
<text text-anchor="start" x="2394.028" y="-855.9" font-family="Arial" font-size="14.00" fill="#666666">[timestamp with time zone]</text>
<polygon fill="none" stroke="#000000" points="2317,-814.5 2317,-844.5 2663,-844.5 2663,-814.5 2317,-814.5"/>
<text text-anchor="start" x="2324" y="-825.9" font-family="Arial" font-size="14.00" fill="#000000">expired_at </text>
<text text-anchor="start" x="2393.244" y="-825.9" font-family="Arial" font-size="14.00" fill="#666666">[timestamp with time zone]</text>
<polygon fill="none" stroke="#000000" points="2317,-784.5 2317,-814.5 2663,-814.5 2663,-784.5 2317,-784.5"/>
<text text-anchor="start" x="2324" y="-795.9" font-family="Arial" font-size="14.00" fill="#000000">token </text>
<text text-anchor="start" x="2362.129" y="-795.9" font-family="Arial" font-size="14.00" fill="#666666">[varchar]</text>
</g>
<!-- public.users_to_repos_submissions -->
<g id="node7" class="node">
<title>public.users_to_repos_submissions</title>
<polygon fill="#efefef" stroke="transparent" points="487,-979.5 487,-1014.5 883,-1014.5 883,-979.5 487,-979.5"/>
<polygon fill="none" stroke="#000000" points="487,-979.5 487,-1014.5 883,-1014.5 883,-979.5 487,-979.5"/>
<text text-anchor="start" x="493.8446" y="-992.3" font-family="Arial Bold" font-size="18.00" fill="#000000">public.users_to_repos_submissions</text>
<text text-anchor="start" x="778.9016" y="-992.3" font-family="Arial" font-size="14.00" fill="#000000"> </text>
<text text-anchor="start" x="782.7922" y="-992.3" font-family="Arial" font-size="14.00" fill="#666666">[BASE TABLE]</text>
<polygon fill="none" stroke="#000000" points="487,-949.5 487,-979.5 883,-979.5 883,-949.5 487,-949.5"/>
<text text-anchor="start" x="494" y="-960.9" font-family="Arial" font-size="14.00" fill="#000000">id </text>
<text text-anchor="start" x="508.7798" y="-960.9" font-family="Arial" font-size="14.00" fill="#666666">[bigint]</text>
<polygon fill="none" stroke="#000000" points="487,-919.5 487,-949.5 883,-949.5 883,-919.5 487,-919.5"/>
<text text-anchor="start" x="494" y="-930.9" font-family="Arial" font-size="14.00" fill="#000000">user_id </text>
<text text-anchor="start" x="543.7882" y="-930.9" font-family="Arial" font-size="14.00" fill="#666666">[bigint]</text>
<polygon fill="none" stroke="#000000" points="487,-889.5 487,-919.5 883,-919.5 883,-889.5 487,-889.5"/>
<text text-anchor="start" x="494" y="-900.9" font-family="Arial" font-size="14.00" fill="#000000">repo_id </text>
<text text-anchor="start" x="544.5708" y="-900.9" font-family="Arial" font-size="14.00" fill="#666666">[bigint]</text>
<polygon fill="none" stroke="#000000" points="487,-859.5 487,-889.5 883,-889.5 883,-859.5 487,-859.5"/>
<text text-anchor="start" x="494" y="-870.9" font-family="Arial" font-size="14.00" fill="#000000">created_at </text>
<text text-anchor="start" x="564.028" y="-870.9" font-family="Arial" font-size="14.00" fill="#666666">[timestamp with time zone]</text>
<polygon fill="none" stroke="#000000" points="487,-829.5 487,-859.5 883,-859.5 883,-829.5 487,-829.5"/>
<text text-anchor="start" x="494" y="-840.9" font-family="Arial" font-size="14.00" fill="#000000">updated_at </text>
<text text-anchor="start" x="567.9326" y="-840.9" font-family="Arial" font-size="14.00" fill="#666666">[timestamp with time zone]</text>
<polygon fill="none" stroke="#000000" points="487,-799.5 487,-829.5 883,-829.5 883,-799.5 487,-799.5"/>
<text text-anchor="start" x="494" y="-810.9" font-family="Arial" font-size="14.00" fill="#000000">deleted_at </text>
<text text-anchor="start" x="563.2566" y="-810.9" font-family="Arial" font-size="14.00" fill="#666666">[timestamp with time zone]</text>
<polygon fill="none" stroke="#000000" points="487,-769.5 487,-799.5 883,-799.5 883,-769.5 487,-769.5"/>
<text text-anchor="start" x="494" y="-780.9" font-family="Arial" font-size="14.00" fill="#000000">is_accepted </text>
<text text-anchor="start" x="572.5834" y="-780.9" font-family="Arial" font-size="14.00" fill="#666666">[boolean]</text>
</g>
<!-- public.users_to_repos_submissions&#45;&gt;public.repos -->
<g id="edge6" class="edge">
<title>public.users_to_repos_submissions:repo_id&#45;&gt;public.repos:id</title>
<path fill="none" stroke="#000000" d="M893.3869,-903.9714C972.5051,-895.3728 905.9504,-783.6187 935,-697 954.883,-637.7139 927.4686,-567.5 990,-567.5"/>
<polygon fill="#000000" stroke="#000000" points="892.9871,-903.9916 882.7712,-900.0058 887.9935,-904.2458 883,-904.5 883,-904.5 883,-904.5 887.9935,-904.2458 883.2288,-908.9942 892.9871,-903.9916 892.9871,-903.9916"/>
<text text-anchor="start" x="889.7755" y="-914.5" font-family="Arial" font-size="10.00" fill="#000000">FOREIGN KEY (repo_id) REFERENCES repos(id)</text>
</g>
<!-- public.users_to_repos_submissions&#45;&gt;public.users -->
<g id="edge7" class="edge">
<title>public.users_to_repos_submissions:user_id&#45;&gt;public.users:id</title>
<path fill="none" stroke="#000000" d="M892.5824,-931.5675C925.5824,-909.0536 904.726,-763.5373 883,-727 808.7988,-602.2134 670.2012,-695.7866 596,-571 574.7612,-535.282 554.4444,-477.5 596,-477.5"/>
<polygon fill="#000000" stroke="#000000" points="892.5622,-931.5736 881.6831,-930.197 887.7811,-933.0368 883,-934.5 883,-934.5 883,-934.5 887.7811,-933.0368 884.3169,-938.803 892.5622,-931.5736 892.5622,-931.5736"/>
<text text-anchor="start" x="890.3345" y="-944.5" font-family="Arial" font-size="10.00" fill="#000000">FOREIGN KEY (user_id) REFERENCES users(id)</text>
</g>
<!-- public.users_to_repos_stargazers -->
<g id="node8" class="node">
<title>public.users_to_repos_stargazers</title>
<polygon fill="#efefef" stroke="transparent" points="988,-964.5 988,-999.5 1369,-999.5 1369,-964.5 988,-964.5"/>
<polygon fill="none" stroke="#000000" points="988,-964.5 988,-999.5 1369,-999.5 1369,-964.5 988,-964.5"/>
<text text-anchor="start" x="994.8416" y="-977.3" font-family="Arial Bold" font-size="18.00" fill="#000000">public.users_to_repos_stargazers</text>
<text text-anchor="start" x="1264.9046" y="-977.3" font-family="Arial" font-size="14.00" fill="#000000"> </text>
<text text-anchor="start" x="1268.7952" y="-977.3" font-family="Arial" font-size="14.00" fill="#666666">[BASE TABLE]</text>
<polygon fill="none" stroke="#000000" points="988,-934.5 988,-964.5 1369,-964.5 1369,-934.5 988,-934.5"/>
<text text-anchor="start" x="995" y="-945.9" font-family="Arial" font-size="14.00" fill="#000000">id </text>
<text text-anchor="start" x="1009.7798" y="-945.9" font-family="Arial" font-size="14.00" fill="#666666">[bigint]</text>
<polygon fill="none" stroke="#000000" points="988,-904.5 988,-934.5 1369,-934.5 1369,-904.5 988,-904.5"/>
<text text-anchor="start" x="995" y="-915.9" font-family="Arial" font-size="14.00" fill="#000000">user_id </text>
<text text-anchor="start" x="1044.7882" y="-915.9" font-family="Arial" font-size="14.00" fill="#666666">[bigint]</text>
<polygon fill="none" stroke="#000000" points="988,-874.5 988,-904.5 1369,-904.5 1369,-874.5 988,-874.5"/>
<text text-anchor="start" x="995" y="-885.9" font-family="Arial" font-size="14.00" fill="#000000">repo_id </text>
<text text-anchor="start" x="1045.5708" y="-885.9" font-family="Arial" font-size="14.00" fill="#666666">[bigint]</text>
<polygon fill="none" stroke="#000000" points="988,-844.5 988,-874.5 1369,-874.5 1369,-844.5 988,-844.5"/>
<text text-anchor="start" x="995" y="-855.9" font-family="Arial" font-size="14.00" fill="#000000">created_at </text>
<text text-anchor="start" x="1065.028" y="-855.9" font-family="Arial" font-size="14.00" fill="#666666">[timestamp without time zone]</text>
<polygon fill="none" stroke="#000000" points="988,-814.5 988,-844.5 1369,-844.5 1369,-814.5 988,-814.5"/>
<text text-anchor="start" x="995" y="-825.9" font-family="Arial" font-size="14.00" fill="#000000">updated_at </text>
<text text-anchor="start" x="1068.9326" y="-825.9" font-family="Arial" font-size="14.00" fill="#666666">[timestamp without time zone]</text>
<polygon fill="none" stroke="#000000" points="988,-784.5 988,-814.5 1369,-814.5 1369,-784.5 988,-784.5"/>
<text text-anchor="start" x="995" y="-795.9" font-family="Arial" font-size="14.00" fill="#000000">deleted_at </text>
<text text-anchor="start" x="1064.2566" y="-795.9" font-family="Arial" font-size="14.00" fill="#666666">[timestamp without time zone]</text>
</g>
<!-- public.users_to_repos_stargazers&#45;&gt;public.repos -->
<g id="edge8" class="edge">
<title>public.users_to_repos_stargazers:repo_id&#45;&gt;public.repos:id</title>
<path fill="none" stroke="#000000" d="M1379.2875,-888.5968C1431.7454,-878.711 1407.892,-790.0823 1369,-742 1260.6751,-608.0775 1098.3249,-794.9225 990,-661 963.8662,-628.6907 948.4444,-567.5 990,-567.5"/>
<polygon fill="#000000" stroke="#000000" points="1378.9617,-888.6253 1368.6064,-885.0172 1373.9808,-889.0626 1369,-889.5 1369,-889.5 1369,-889.5 1373.9808,-889.0626 1369.3936,-893.9828 1378.9617,-888.6253 1378.9617,-888.6253"/>
<text text-anchor="start" x="1137.7755" y="-899.5" font-family="Arial" font-size="10.00" fill="#000000">FOREIGN KEY (repo_id) REFERENCES repos(id)</text>
</g>
<!-- public.users_to_repos_stargazers&#45;&gt;public.users -->
<g id="edge9" class="edge">
<title>public.users_to_repos_stargazers:user_id&#45;&gt;public.users:id</title>
<path fill="none" stroke="#000000" d="M978.1935,-917.0235C938.8642,-895.6521 949.1283,-742.0925 935,-697 903.6733,-597.0167 953.7761,-477.5 849,-477.5"/>
<polygon fill="#000000" stroke="#000000" points="978.3044,-917.0514 986.8981,-923.863 983.1522,-918.2757 988,-919.5 988,-919.5 988,-919.5 983.1522,-918.2757 989.1019,-915.137 978.3044,-917.0514 978.3044,-917.0514"/>
<text text-anchor="start" x="817.5845" y="-903.5" font-family="Arial" font-size="10.00" fill="#000000">FOREIGN KEY (user_id) REFERENCES users(id)</text>
</g>
<!-- public.users_to_repos_insights -->
<g id="node9" class="node">
<title>public.users_to_repos_insights</title>
<polygon fill="#efefef" stroke="transparent" points="2767,-919.5 2767,-954.5 3125,-954.5 3125,-919.5 2767,-919.5"/>
<polygon fill="none" stroke="#000000" points="2767,-919.5 2767,-954.5 3125,-954.5 3125,-919.5 2767,-919.5"/>
<text text-anchor="start" x="2773.8427" y="-932.3" font-family="Arial Bold" font-size="18.00" fill="#000000">public.users_to_repos_insights</text>
<text text-anchor="start" x="3020.9035" y="-932.3" font-family="Arial" font-size="14.00" fill="#000000"> </text>
<text text-anchor="start" x="3024.7941" y="-932.3" font-family="Arial" font-size="14.00" fill="#666666">[BASE TABLE]</text>
<polygon fill="none" stroke="#000000" points="2767,-889.5 2767,-919.5 3125,-919.5 3125,-889.5 2767,-889.5"/>
<text text-anchor="start" x="2774" y="-900.9" font-family="Arial" font-size="14.00" fill="#000000">id </text>
<text text-anchor="start" x="2788.7798" y="-900.9" font-family="Arial" font-size="14.00" fill="#666666">[bigint]</text>
<polygon fill="none" stroke="#000000" points="2767,-859.5 2767,-889.5 3125,-889.5 3125,-859.5 2767,-859.5"/>
<text text-anchor="start" x="2774" y="-870.9" font-family="Arial" font-size="14.00" fill="#000000">created_at </text>
<text text-anchor="start" x="2844.028" y="-870.9" font-family="Arial" font-size="14.00" fill="#666666">[timestamp with time zone]</text>
<polygon fill="none" stroke="#000000" points="2767,-829.5 2767,-859.5 3125,-859.5 3125,-829.5 2767,-829.5"/>
<text text-anchor="start" x="2774" y="-840.9" font-family="Arial" font-size="14.00" fill="#000000">repo_id </text>
<text text-anchor="start" x="2824.5708" y="-840.9" font-family="Arial" font-size="14.00" fill="#666666">[bigint]</text>
</g>
</g>
</svg>
