<?xml version="1.0" encoding="UTF-8" standalone="no"?>
<!DOCTYPE svg PUBLIC "-//W3C//DTD SVG 1.1//EN"
 "http://www.w3.org/Graphics/SVG/1.1/DTD/svg11.dtd">
<!-- Generated by graphviz version 3.0.0 (20220226.1711)
 -->
<!-- Title: dependencies Pages: 1 -->
<svg width="180pt" height="247pt"
 viewBox="0.00 0.00 180.00 246.80" xmlns="http://www.w3.org/2000/svg" xmlns:xlink="http://www.w3.org/1999/xlink">
<g id="graph0" class="graph" transform="scale(1 1) rotate(0) translate(4 242.8)">
<title>dependencies</title>
<polygon fill="white" stroke="transparent" points="-4,4 -4,-242.8 176,-242.8 176,4 -4,4"/>
<text text-anchor="middle" x="86" y="-8.2" font-family="sans-serif" font-size="14.00">dependencies</text>
<g id="clust1" class="cluster">
<title>cluster_ApiServicesModule</title>
<polygon fill="none" stroke="black" stroke-dasharray="1,5" points="8,-32.8 8,-230.8 164,-230.8 164,-32.8 8,-32.8"/>
</g>
<g id="clust6" class="cluster">
<title>cluster_ApiServicesModule_providers</title>
<polygon fill="none" stroke="black" points="16,-40.8 16,-92.8 156,-92.8 156,-40.8 16,-40.8"/>
</g>
<g id="clust4" class="cluster">
<title>cluster_ApiServicesModule_exports</title>
<polygon fill="none" stroke="black" points="31,-170.8 31,-222.8 141,-222.8 141,-170.8 31,-170.8"/>
</g>
<!-- PagerService  -->
<g id="node1" class="node">
<title>PagerService </title>
<polygon fill="#fb8072" stroke="black" points="132.86,-214.8 39.14,-214.8 39.14,-178.8 132.86,-178.8 132.86,-214.8"/>
<text text-anchor="middle" x="86" y="-192.6" font-family="Times,serif" font-size="14.00">PagerService </text>
</g>
<!-- ApiServicesModule -->
<g id="node2" class="node">
<title>ApiServicesModule</title>
<polygon fill="#8dd3c7" stroke="black" points="149.98,-149.8 146.98,-153.8 125.98,-153.8 122.98,-149.8 22.02,-149.8 22.02,-113.8 149.98,-113.8 149.98,-149.8"/>
<text text-anchor="middle" x="86" y="-127.6" font-family="Times,serif" font-size="14.00">ApiServicesModule</text>
</g>
<!-- ApiServicesModule&#45;&gt;PagerService  -->
<g id="edge1" class="edge">
<title>ApiServicesModule&#45;&gt;PagerService </title>
<path fill="none" stroke="black" stroke-dasharray="5,2" d="M86,-149.91C86,-149.91 86,-168.79 86,-168.79"/>
<polygon fill="black" stroke="black" points="82.5,-168.79 86,-178.79 89.5,-168.79 82.5,-168.79"/>
</g>
<!-- PagerService -->
<g id="node3" class="node">
<title>PagerService</title>
<ellipse fill="#fdb462" stroke="black" cx="86" cy="-66.8" rx="61.96" ry="18"/>
<text text-anchor="middle" x="86" y="-62.6" font-family="Times,serif" font-size="14.00">PagerService</text>
</g>
<!-- PagerService&#45;&gt;ApiServicesModule -->
<g id="edge2" class="edge">
<title>PagerService&#45;&gt;ApiServicesModule</title>
<path fill="none" stroke="black" d="M86,-84.91C86,-84.91 86,-103.79 86,-103.79"/>
<polygon fill="black" stroke="black" points="82.5,-103.79 86,-113.79 89.5,-103.79 82.5,-103.79"/>
</g>
</g>
</svg>
