<?xml version="1.0" encoding="UTF-8" standalone="no"?>
<!DOCTYPE svg PUBLIC "-//W3C//DTD SVG 1.1//EN"
 "http://www.w3.org/Graphics/SVG/1.1/DTD/svg11.dtd">
<!-- Generated by graphviz version 3.0.0 (20220226.1711)
 -->
<!-- Title: dependencies Pages: 1 -->
<svg width="377pt" height="247pt"
 viewBox="0.00 0.00 377.00 246.80" xmlns="http://www.w3.org/2000/svg" xmlns:xlink="http://www.w3.org/1999/xlink">
<g id="graph0" class="graph" transform="scale(1 1) rotate(0) translate(4 242.8)">
<title>dependencies</title>
<polygon fill="white" stroke="transparent" points="-4,4 -4,-242.8 373,-242.8 373,4 -4,4"/>
<text text-anchor="middle" x="184.5" y="-8.2" font-family="sans-serif" font-size="14.00">dependencies</text>
<g id="clust1" class="cluster">
<title>cluster_AuthModule</title>
<polygon fill="none" stroke="black" stroke-dasharray="1,5" points="8,-32.8 8,-230.8 361,-230.8 361,-32.8 8,-32.8"/>
</g>
<g id="clust4" class="cluster">
<title>cluster_AuthModule_exports</title>
<polygon fill="none" stroke="black" points="40,-170.8 40,-222.8 301,-222.8 301,-170.8 40,-170.8"/>
</g>
<g id="clust6" class="cluster">
<title>cluster_AuthModule_providers</title>
<polygon fill="none" stroke="black" points="16,-40.8 16,-92.8 353,-92.8 353,-40.8 16,-40.8"/>
</g>
<!-- SupabaseGuard  -->
<g id="node1" class="node">
<title>SupabaseGuard </title>
<polygon fill="#fb8072" stroke="black" points="292.86,-214.8 185.14,-214.8 185.14,-178.8 292.86,-178.8 292.86,-214.8"/>
<text text-anchor="middle" x="239" y="-192.6" font-family="Times,serif" font-size="14.00">SupabaseGuard </text>
</g>
<!-- SupabaseStrategy  -->
<g id="node2" class="node">
<title>SupabaseStrategy </title>
<polygon fill="#fb8072" stroke="black" points="167.53,-214.8 48.47,-214.8 48.47,-178.8 167.53,-178.8 167.53,-214.8"/>
<text text-anchor="middle" x="108" y="-192.6" font-family="Times,serif" font-size="14.00">SupabaseStrategy </text>
</g>
<!-- AuthModule -->
<g id="node3" class="node">
<title>AuthModule</title>
<polygon fill="#8dd3c7" stroke="black" points="175.55,-149.8 172.55,-153.8 151.55,-153.8 148.55,-149.8 88.45,-149.8 88.45,-113.8 175.55,-113.8 175.55,-149.8"/>
<text text-anchor="middle" x="132" y="-127.6" font-family="Times,serif" font-size="14.00">AuthModule</text>
</g>
<!-- AuthModule&#45;&gt;SupabaseGuard  -->
<g id="edge1" class="edge">
<title>AuthModule&#45;&gt;SupabaseGuard </title>
<path fill="none" stroke="black" stroke-dasharray="5,2" d="M171.65,-149.91C171.65,-169.14 171.65,-196.8 171.65,-196.8 171.65,-196.8 175.28,-196.8 175.28,-196.8"/>
<polygon fill="black" stroke="black" points="175.28,-200.3 185.28,-196.8 175.28,-193.3 175.28,-200.3"/>
</g>
<!-- AuthModule&#45;&gt;SupabaseStrategy  -->
<g id="edge2" class="edge">
<title>AuthModule&#45;&gt;SupabaseStrategy </title>
<path fill="none" stroke="black" stroke-dasharray="5,2" d="M127.87,-149.91C127.87,-149.91 127.87,-168.79 127.87,-168.79"/>
<polygon fill="black" stroke="black" points="124.37,-168.79 127.87,-178.79 131.37,-168.79 124.37,-168.79"/>
</g>
<!-- SupabaseGuard -->
<g id="node4" class="node">
<title>SupabaseGuard</title>
<ellipse fill="#fdb462" stroke="black" cx="273" cy="-66.8" rx="71.78" ry="18"/>
<text text-anchor="middle" x="273" y="-62.6" font-family="Times,serif" font-size="14.00">SupabaseGuard</text>
</g>
<!-- SupabaseGuard&#45;&gt;AuthModule -->
<g id="edge3" class="edge">
<title>SupabaseGuard&#45;&gt;AuthModule</title>
<path fill="none" stroke="black" d="M247.02,-83.88C247.02,-103.14 247.02,-131.8 247.02,-131.8 247.02,-131.8 185.81,-131.8 185.81,-131.8"/>
<polygon fill="black" stroke="black" points="185.81,-128.3 175.81,-131.8 185.81,-135.3 185.81,-128.3"/>
</g>
<!-- SupabaseStrategy -->
<g id="node5" class="node">
<title>SupabaseStrategy</title>
<ellipse fill="#fdb462" stroke="black" cx="104" cy="-66.8" rx="79.88" ry="18"/>
<text text-anchor="middle" x="104" y="-62.6" font-family="Times,serif" font-size="14.00">SupabaseStrategy</text>
</g>
<!-- SupabaseStrategy&#45;&gt;AuthModule -->
<g id="edge4" class="edge">
<title>SupabaseStrategy&#45;&gt;AuthModule</title>
<path fill="none" stroke="black" d="M132,-83.88C132,-83.88 132,-103.7 132,-103.7"/>
<polygon fill="black" stroke="black" points="128.5,-103.7 132,-113.7 135.5,-103.7 128.5,-103.7"/>
</g>
</g>
</svg>
