<?xml version="1.0" encoding="UTF-8" standalone="no"?>
<!DOCTYPE svg PUBLIC "-//W3C//DTD SVG 1.1//EN"
 "http://www.w3.org/Graphics/SVG/1.1/DTD/svg11.dtd">
<!-- Generated by graphviz version 3.0.0 (20220226.1711)
 -->
<!-- Title: dependencies Pages: 1 -->
<svg width="989pt" height="247pt"
 viewBox="0.00 0.00 989.00 246.80" xmlns="http://www.w3.org/2000/svg" xmlns:xlink="http://www.w3.org/1999/xlink">
<g id="graph0" class="graph" transform="scale(1 1) rotate(0) translate(4 242.8)">
<title>dependencies</title>
<polygon fill="white" stroke="transparent" points="-4,4 -4,-242.8 985,-242.8 985,4 -4,4"/>
<text text-anchor="middle" x="490.5" y="-8.2" font-family="sans-serif" font-size="14.00">dependencies</text>
<g id="clust1" class="cluster">
<title>cluster_AuthModule</title>
<polygon fill="none" stroke="black" stroke-dasharray="1,5" points="8,-32.8 8,-230.8 973,-230.8 973,-32.8 8,-32.8"/>
</g>
<g id="clust4" class="cluster">
<title>cluster_AuthModule_exports</title>
<polygon fill="none" stroke="black" points="300,-170.8 300,-222.8 561,-222.8 561,-170.8 300,-170.8"/>
</g>
<g id="clust6" class="cluster">
<title>cluster_AuthModule_providers</title>
<polygon fill="none" stroke="black" points="628,-40.8 628,-92.8 965,-92.8 965,-40.8 628,-40.8"/>
</g>
<g id="clust3" class="cluster">
<title>cluster_AuthModule_imports</title>
<polygon fill="none" stroke="black" points="16,-40.8 16,-92.8 620,-92.8 620,-40.8 16,-40.8"/>
</g>
<!-- CouponModule -->
<g id="node1" class="node">
<title>CouponModule</title>
<polygon fill="#8dd3c7" stroke="black" points="611.89,-84.8 608.89,-88.8 587.89,-88.8 584.89,-84.8 508.11,-84.8 508.11,-48.8 611.89,-48.8 611.89,-84.8"/>
<text text-anchor="middle" x="560" y="-62.6" font-family="Times,serif" font-size="14.00">CouponModule</text>
</g>
<!-- AuthModule -->
<g id="node6" class="node">
<title>AuthModule</title>
<polygon fill="#8dd3c7" stroke="black" points="476.55,-149.8 473.55,-153.8 452.55,-153.8 449.55,-149.8 389.45,-149.8 389.45,-113.8 476.55,-113.8 476.55,-149.8"/>
<text text-anchor="middle" x="433" y="-127.6" font-family="Times,serif" font-size="14.00">AuthModule</text>
</g>
<!-- CouponModule&#45;&gt;AuthModule -->
<g id="edge1" class="edge">
<title>CouponModule&#45;&gt;AuthModule</title>
<path fill="none" stroke="black" d="M530.37,-84.83C530.37,-101.2 530.37,-122.8 530.37,-122.8 530.37,-122.8 486.56,-122.8 486.56,-122.8"/>
<polygon fill="black" stroke="black" points="486.56,-119.3 476.56,-122.8 486.56,-126.3 486.56,-119.3"/>
</g>
<!-- CustomerModule -->
<g id="node2" class="node">
<title>CustomerModule</title>
<polygon fill="#8dd3c7" stroke="black" points="489.99,-84.8 486.99,-88.8 465.99,-88.8 462.99,-84.8 376.01,-84.8 376.01,-48.8 489.99,-48.8 489.99,-84.8"/>
<text text-anchor="middle" x="433" y="-62.6" font-family="Times,serif" font-size="14.00">CustomerModule</text>
</g>
<!-- CustomerModule&#45;&gt;AuthModule -->
<g id="edge2" class="edge">
<title>CustomerModule&#45;&gt;AuthModule</title>
<path fill="none" stroke="black" d="M433,-84.91C433,-84.91 433,-103.79 433,-103.79"/>
<polygon fill="black" stroke="black" points="429.5,-103.79 433,-113.79 436.5,-103.79 429.5,-103.79"/>
</g>
<!-- StripeModule -->
<g id="node3" class="node">
<title>StripeModule</title>
<polygon fill="#8dd3c7" stroke="black" points="358.49,-84.8 355.49,-88.8 334.49,-88.8 331.49,-84.8 265.51,-84.8 265.51,-48.8 358.49,-48.8 358.49,-84.8"/>
<text text-anchor="middle" x="312" y="-62.6" font-family="Times,serif" font-size="14.00">StripeModule</text>
</g>
<!-- StripeModule&#45;&gt;AuthModule -->
<g id="edge3" class="edge">
<title>StripeModule&#45;&gt;AuthModule</title>
<path fill="none" stroke="black" d="M333.49,-84.83C333.49,-101.2 333.49,-122.8 333.49,-122.8 333.49,-122.8 379.35,-122.8 379.35,-122.8"/>
<polygon fill="black" stroke="black" points="379.35,-126.3 389.35,-122.8 379.35,-119.3 379.35,-126.3"/>
</g>
<!-- UserModule -->
<g id="node4" class="node">
<title>UserModule</title>
<polygon fill="#8dd3c7" stroke="black" points="247.99,-84.8 244.99,-88.8 223.99,-88.8 220.99,-84.8 162.01,-84.8 162.01,-48.8 247.99,-48.8 247.99,-84.8"/>
<text text-anchor="middle" x="205" y="-62.6" font-family="Times,serif" font-size="14.00">UserModule</text>
</g>
<!-- UserModule&#45;&gt;AuthModule -->
<g id="edge4" class="edge">
<title>UserModule&#45;&gt;AuthModule</title>
<path fill="none" stroke="black" d="M205,-84.91C205,-104.14 205,-131.8 205,-131.8 205,-131.8 379.31,-131.8 379.31,-131.8"/>
<polygon fill="black" stroke="black" points="379.31,-135.3 389.31,-131.8 379.31,-128.3 379.31,-135.3"/>
</g>
<!-- UserReposModule -->
<g id="node5" class="node">
<title>UserReposModule</title>
<polygon fill="#8dd3c7" stroke="black" points="144.49,-84.8 141.49,-88.8 120.49,-88.8 117.49,-84.8 23.51,-84.8 23.51,-48.8 144.49,-48.8 144.49,-84.8"/>
<text text-anchor="middle" x="84" y="-62.6" font-family="Times,serif" font-size="14.00">UserReposModule</text>
</g>
<!-- UserReposModule&#45;&gt;AuthModule -->
<g id="edge5" class="edge">
<title>UserReposModule&#45;&gt;AuthModule</title>
<path fill="none" stroke="black" d="M84,-85.09C84,-107.01 84,-140.8 84,-140.8 84,-140.8 379.15,-140.8 379.15,-140.8"/>
<polygon fill="black" stroke="black" points="379.15,-144.3 389.15,-140.8 379.15,-137.3 379.15,-144.3"/>
</g>
<!-- SupabaseGuard  -->
<g id="node7" class="node">
<title>SupabaseGuard </title>
<polygon fill="#fb8072" stroke="black" points="552.86,-214.8 445.14,-214.8 445.14,-178.8 552.86,-178.8 552.86,-214.8"/>
<text text-anchor="middle" x="499" y="-192.6" font-family="Times,serif" font-size="14.00">SupabaseGuard </text>
</g>
<!-- AuthModule&#45;&gt;SupabaseGuard  -->
<g id="edge6" class="edge">
<title>AuthModule&#45;&gt;SupabaseGuard </title>
<path fill="none" stroke="black" stroke-dasharray="5,2" d="M461.05,-149.91C461.05,-149.91 461.05,-168.79 461.05,-168.79"/>
<polygon fill="black" stroke="black" points="457.55,-168.79 461.05,-178.79 464.55,-168.79 457.55,-168.79"/>
</g>
<!-- SupabaseStrategy  -->
<g id="node8" class="node">
<title>SupabaseStrategy </title>
<polygon fill="#fb8072" stroke="black" points="427.53,-214.8 308.47,-214.8 308.47,-178.8 427.53,-178.8 427.53,-214.8"/>
<text text-anchor="middle" x="368" y="-192.6" font-family="Times,serif" font-size="14.00">SupabaseStrategy </text>
</g>
<!-- AuthModule&#45;&gt;SupabaseStrategy  -->
<g id="edge7" class="edge">
<title>AuthModule&#45;&gt;SupabaseStrategy </title>
<path fill="none" stroke="black" stroke-dasharray="5,2" d="M408.37,-149.91C408.37,-149.91 408.37,-168.79 408.37,-168.79"/>
<polygon fill="black" stroke="black" points="404.87,-168.79 408.37,-178.79 411.87,-168.79 404.87,-168.79"/>
</g>
<!-- SupabaseGuard -->
<g id="node9" class="node">
<title>SupabaseGuard</title>
<ellipse fill="#fdb462" stroke="black" cx="885" cy="-66.8" rx="71.78" ry="18"/>
<text text-anchor="middle" x="885" y="-62.6" font-family="Times,serif" font-size="14.00">SupabaseGuard</text>
</g>
<!-- SupabaseGuard&#45;&gt;AuthModule -->
<g id="edge8" class="edge">
<title>SupabaseGuard&#45;&gt;AuthModule</title>
<path fill="none" stroke="black" d="M885,-85.09C885,-107.01 885,-140.8 885,-140.8 885,-140.8 486.75,-140.8 486.75,-140.8"/>
<polygon fill="black" stroke="black" points="486.75,-137.3 476.75,-140.8 486.75,-144.3 486.75,-137.3"/>
</g>
<!-- SupabaseStrategy -->
<g id="node10" class="node">
<title>SupabaseStrategy</title>
<ellipse fill="#fdb462" stroke="black" cx="716" cy="-66.8" rx="79.88" ry="18"/>
<text text-anchor="middle" x="716" y="-62.6" font-family="Times,serif" font-size="14.00">SupabaseStrategy</text>
</g>
<!-- SupabaseStrategy&#45;&gt;AuthModule -->
<g id="edge9" class="edge">
<title>SupabaseStrategy&#45;&gt;AuthModule</title>
<path fill="none" stroke="black" d="M716,-84.91C716,-104.14 716,-131.8 716,-131.8 716,-131.8 486.6,-131.8 486.6,-131.8"/>
<polygon fill="black" stroke="black" points="486.6,-128.3 476.6,-131.8 486.6,-135.3 486.6,-128.3"/>
</g>
</g>
</svg>
