<?xml version="1.0" encoding="UTF-8" standalone="no"?>
<!DOCTYPE svg PUBLIC "-//W3C//DTD SVG 1.1//EN"
 "http://www.w3.org/Graphics/SVG/1.1/DTD/svg11.dtd">
<!-- Generated by graphviz version 3.0.0 (20220226.1711)
 -->
<!-- Title: dependencies Pages: 1 -->
<svg width="989pt" height="247pt"
 viewBox="0.00 0.00 989.00 246.80" xmlns="http://www.w3.org/2000/svg" xmlns:xlink="http://www.w3.org/1999/xlink">
<g id="graph0" class="graph" transform="scale(1 1) rotate(0) translate(4 242.8)">
<title>dependencies</title>
<polygon fill="white" stroke="transparent" points="-4,4 -4,-242.8 985,-242.8 985,4 -4,4"/>
<text text-anchor="middle" x="490.5" y="-8.2" font-family="sans-serif" font-size="14.00">dependencies</text>
<g id="clust1" class="cluster">
<title>cluster_AuthModule</title>
<polygon fill="none" stroke="black" stroke-dasharray="1,5" points="8,-32.8 8,-230.8 973,-230.8 973,-32.8 8,-32.8"/>
</g>
<g id="clust3" class="cluster">
<title>cluster_AuthModule_imports</title>
<polygon fill="none" stroke="black" points="361,-40.8 361,-92.8 965,-92.8 965,-40.8 361,-40.8"/>
</g>
<g id="clust6" class="cluster">
<title>cluster_AuthModule_providers</title>
<polygon fill="none" stroke="black" points="16,-40.8 16,-92.8 353,-92.8 353,-40.8 16,-40.8"/>
</g>
<g id="clust4" class="cluster">
<title>cluster_AuthModule_exports</title>
<polygon fill="none" stroke="black" points="417,-170.8 417,-222.8 678,-222.8 678,-170.8 417,-170.8"/>
</g>
<!-- CouponModule -->
<g id="node1" class="node">
<title>CouponModule</title>
<polygon fill="#8dd3c7" stroke="black" points="956.89,-84.8 953.89,-88.8 932.89,-88.8 929.89,-84.8 853.11,-84.8 853.11,-48.8 956.89,-48.8 956.89,-84.8"/>
<text text-anchor="middle" x="905" y="-62.6" font-family="Times,serif" font-size="14.00">CouponModule</text>
</g>
<!-- AuthModule -->
<g id="node6" class="node">
<title>AuthModule</title>
<polygon fill="#8dd3c7" stroke="black" points="593.55,-149.8 590.55,-153.8 569.55,-153.8 566.55,-149.8 506.45,-149.8 506.45,-113.8 593.55,-113.8 593.55,-149.8"/>
<text text-anchor="middle" x="550" y="-127.6" font-family="Times,serif" font-size="14.00">AuthModule</text>
</g>
<!-- CouponModule&#45;&gt;AuthModule -->
<g id="edge1" class="edge">
<title>CouponModule&#45;&gt;AuthModule</title>
<path fill="none" stroke="black" d="M905,-85.09C905,-107.01 905,-140.8 905,-140.8 905,-140.8 603.89,-140.8 603.89,-140.8"/>
<polygon fill="black" stroke="black" points="603.89,-137.3 593.89,-140.8 603.89,-144.3 603.89,-137.3"/>
</g>
<!-- CustomerModule -->
<g id="node2" class="node">
<title>CustomerModule</title>
<polygon fill="#8dd3c7" stroke="black" points="834.99,-84.8 831.99,-88.8 810.99,-88.8 807.99,-84.8 721.01,-84.8 721.01,-48.8 834.99,-48.8 834.99,-84.8"/>
<text text-anchor="middle" x="778" y="-62.6" font-family="Times,serif" font-size="14.00">CustomerModule</text>
</g>
<!-- CustomerModule&#45;&gt;AuthModule -->
<g id="edge2" class="edge">
<title>CustomerModule&#45;&gt;AuthModule</title>
<path fill="none" stroke="black" d="M778,-84.91C778,-104.14 778,-131.8 778,-131.8 778,-131.8 603.69,-131.8 603.69,-131.8"/>
<polygon fill="black" stroke="black" points="603.69,-128.3 593.69,-131.8 603.69,-135.3 603.69,-128.3"/>
</g>
<!-- StripeModule -->
<g id="node3" class="node">
<title>StripeModule</title>
<polygon fill="#8dd3c7" stroke="black" points="703.49,-84.8 700.49,-88.8 679.49,-88.8 676.49,-84.8 610.51,-84.8 610.51,-48.8 703.49,-48.8 703.49,-84.8"/>
<text text-anchor="middle" x="657" y="-62.6" font-family="Times,serif" font-size="14.00">StripeModule</text>
</g>
<!-- StripeModule&#45;&gt;AuthModule -->
<g id="edge3" class="edge">
<title>StripeModule&#45;&gt;AuthModule</title>
<path fill="none" stroke="black" d="M640.09,-84.83C640.09,-101.2 640.09,-122.8 640.09,-122.8 640.09,-122.8 603.73,-122.8 603.73,-122.8"/>
<polygon fill="black" stroke="black" points="603.73,-119.3 593.73,-122.8 603.73,-126.3 603.73,-119.3"/>
</g>
<!-- UserModule -->
<g id="node4" class="node">
<title>UserModule</title>
<polygon fill="#8dd3c7" stroke="black" points="592.99,-84.8 589.99,-88.8 568.99,-88.8 565.99,-84.8 507.01,-84.8 507.01,-48.8 592.99,-48.8 592.99,-84.8"/>
<text text-anchor="middle" x="550" y="-62.6" font-family="Times,serif" font-size="14.00">UserModule</text>
</g>
<!-- UserModule&#45;&gt;AuthModule -->
<g id="edge4" class="edge">
<title>UserModule&#45;&gt;AuthModule</title>
<path fill="none" stroke="black" d="M550,-84.91C550,-84.91 550,-103.79 550,-103.79"/>
<polygon fill="black" stroke="black" points="546.5,-103.79 550,-113.79 553.5,-103.79 546.5,-103.79"/>
</g>
<!-- UserReposModule -->
<g id="node5" class="node">
<title>UserReposModule</title>
<polygon fill="#8dd3c7" stroke="black" points="489.49,-84.8 486.49,-88.8 465.49,-88.8 462.49,-84.8 368.51,-84.8 368.51,-48.8 489.49,-48.8 489.49,-84.8"/>
<text text-anchor="middle" x="429" y="-62.6" font-family="Times,serif" font-size="14.00">UserReposModule</text>
</g>
<!-- UserReposModule&#45;&gt;AuthModule -->
<g id="edge5" class="edge">
<title>UserReposModule&#45;&gt;AuthModule</title>
<path fill="none" stroke="black" d="M457.49,-84.83C457.49,-101.2 457.49,-122.8 457.49,-122.8 457.49,-122.8 496.18,-122.8 496.18,-122.8"/>
<polygon fill="black" stroke="black" points="496.18,-126.3 506.18,-122.8 496.18,-119.3 496.18,-126.3"/>
</g>
<!-- SupabaseGuard  -->
<g id="node7" class="node">
<title>SupabaseGuard </title>
<polygon fill="#fb8072" stroke="black" points="669.86,-214.8 562.14,-214.8 562.14,-178.8 669.86,-178.8 669.86,-214.8"/>
<text text-anchor="middle" x="616" y="-192.6" font-family="Times,serif" font-size="14.00">SupabaseGuard </text>
</g>
<!-- AuthModule&#45;&gt;SupabaseGuard  -->
<g id="edge6" class="edge">
<title>AuthModule&#45;&gt;SupabaseGuard </title>
<path fill="none" stroke="black" stroke-dasharray="5,2" d="M578.05,-149.91C578.05,-149.91 578.05,-168.79 578.05,-168.79"/>
<polygon fill="black" stroke="black" points="574.55,-168.79 578.05,-178.79 581.55,-168.79 574.55,-168.79"/>
</g>
<!-- SupabaseStrategy  -->
<g id="node8" class="node">
<title>SupabaseStrategy </title>
<polygon fill="#fb8072" stroke="black" points="544.53,-214.8 425.47,-214.8 425.47,-178.8 544.53,-178.8 544.53,-214.8"/>
<text text-anchor="middle" x="485" y="-192.6" font-family="Times,serif" font-size="14.00">SupabaseStrategy </text>
</g>
<!-- AuthModule&#45;&gt;SupabaseStrategy  -->
<g id="edge7" class="edge">
<title>AuthModule&#45;&gt;SupabaseStrategy </title>
<path fill="none" stroke="black" stroke-dasharray="5,2" d="M525.37,-149.91C525.37,-149.91 525.37,-168.79 525.37,-168.79"/>
<polygon fill="black" stroke="black" points="521.87,-168.79 525.37,-178.79 528.87,-168.79 521.87,-168.79"/>
</g>
<!-- SupabaseGuard -->
<g id="node9" class="node">
<title>SupabaseGuard</title>
<ellipse fill="#fdb462" stroke="black" cx="273" cy="-66.8" rx="71.78" ry="18"/>
<text text-anchor="middle" x="273" y="-62.6" font-family="Times,serif" font-size="14.00">SupabaseGuard</text>
</g>
<!-- SupabaseGuard&#45;&gt;AuthModule -->
<g id="edge8" class="edge">
<title>SupabaseGuard&#45;&gt;AuthModule</title>
<path fill="none" stroke="black" d="M273,-84.91C273,-104.14 273,-131.8 273,-131.8 273,-131.8 496.41,-131.8 496.41,-131.8"/>
<polygon fill="black" stroke="black" points="496.41,-135.3 506.41,-131.8 496.41,-128.3 496.41,-135.3"/>
</g>
<!-- SupabaseStrategy -->
<g id="node10" class="node">
<title>SupabaseStrategy</title>
<ellipse fill="#fdb462" stroke="black" cx="104" cy="-66.8" rx="79.88" ry="18"/>
<text text-anchor="middle" x="104" y="-62.6" font-family="Times,serif" font-size="14.00">SupabaseStrategy</text>
</g>
<!-- SupabaseStrategy&#45;&gt;AuthModule -->
<g id="edge9" class="edge">
<title>SupabaseStrategy&#45;&gt;AuthModule</title>
<path fill="none" stroke="black" d="M104,-85.09C104,-107.01 104,-140.8 104,-140.8 104,-140.8 496.42,-140.8 496.42,-140.8"/>
<polygon fill="black" stroke="black" points="496.42,-144.3 506.42,-140.8 496.42,-137.3 496.42,-144.3"/>
</g>
</g>
</svg>
