<?xml version="1.0" encoding="UTF-8" standalone="no"?>
<!DOCTYPE svg PUBLIC "-//W3C//DTD SVG 1.1//EN"
 "http://www.w3.org/Graphics/SVG/1.1/DTD/svg11.dtd">
<!-- Generated by graphviz version 3.0.0 (20220226.1711)
 -->
<!-- Title: dependencies Pages: 1 -->
<svg width="867pt" height="247pt"
 viewBox="0.00 0.00 867.00 246.80" xmlns="http://www.w3.org/2000/svg" xmlns:xlink="http://www.w3.org/1999/xlink">
<g id="graph0" class="graph" transform="scale(1 1) rotate(0) translate(4 242.8)">
<title>dependencies</title>
<polygon fill="white" stroke="transparent" points="-4,4 -4,-242.8 863,-242.8 863,4 -4,4"/>
<text text-anchor="middle" x="429.5" y="-8.2" font-family="sans-serif" font-size="14.00">dependencies</text>
<g id="clust1" class="cluster">
<title>cluster_AuthModule</title>
<polygon fill="none" stroke="black" stroke-dasharray="1,5" points="8,-32.8 8,-230.8 851,-230.8 851,-32.8 8,-32.8"/>
</g>
<g id="clust3" class="cluster">
<title>cluster_AuthModule_imports</title>
<polygon fill="none" stroke="black" points="361,-40.8 361,-92.8 843,-92.8 843,-40.8 361,-40.8"/>
</g>
<g id="clust4" class="cluster">
<title>cluster_AuthModule_exports</title>
<polygon fill="none" stroke="black" points="356,-170.8 356,-222.8 617,-222.8 617,-170.8 356,-170.8"/>
</g>
<g id="clust6" class="cluster">
<title>cluster_AuthModule_providers</title>
<polygon fill="none" stroke="black" points="16,-40.8 16,-92.8 353,-92.8 353,-40.8 16,-40.8"/>
</g>
<!-- CustomerModule -->
<g id="node1" class="node">
<title>CustomerModule</title>
<polygon fill="#8dd3c7" stroke="black" points="834.99,-84.8 831.99,-88.8 810.99,-88.8 807.99,-84.8 721.01,-84.8 721.01,-48.8 834.99,-48.8 834.99,-84.8"/>
<text text-anchor="middle" x="778" y="-62.6" font-family="Times,serif" font-size="14.00">CustomerModule</text>
</g>
<!-- AuthModule -->
<g id="node5" class="node">
<title>AuthModule</title>
<polygon fill="#8dd3c7" stroke="black" points="532.55,-149.8 529.55,-153.8 508.55,-153.8 505.55,-149.8 445.45,-149.8 445.45,-113.8 532.55,-113.8 532.55,-149.8"/>
<text text-anchor="middle" x="489" y="-127.6" font-family="Times,serif" font-size="14.00">AuthModule</text>
</g>
<!-- CustomerModule&#45;&gt;AuthModule -->
<g id="edge1" class="edge">
<title>CustomerModule&#45;&gt;AuthModule</title>
<path fill="none" stroke="black" d="M778,-85.08C778,-106.12 778,-137.8 778,-137.8 778,-137.8 542.58,-137.8 542.58,-137.8"/>
<polygon fill="black" stroke="black" points="542.58,-134.3 532.58,-137.8 542.58,-141.3 542.58,-134.3"/>
</g>
<!-- StripeModule -->
<g id="node2" class="node">
<title>StripeModule</title>
<polygon fill="#8dd3c7" stroke="black" points="703.49,-84.8 700.49,-88.8 679.49,-88.8 676.49,-84.8 610.51,-84.8 610.51,-48.8 703.49,-48.8 703.49,-84.8"/>
<text text-anchor="middle" x="657" y="-62.6" font-family="Times,serif" font-size="14.00">StripeModule</text>
</g>
<!-- StripeModule&#45;&gt;AuthModule -->
<g id="edge2" class="edge">
<title>StripeModule&#45;&gt;AuthModule</title>
<path fill="none" stroke="black" d="M657,-84.82C657,-102.17 657,-125.8 657,-125.8 657,-125.8 542.7,-125.8 542.7,-125.8"/>
<polygon fill="black" stroke="black" points="542.7,-122.3 532.7,-125.8 542.7,-129.3 542.7,-122.3"/>
</g>
<!-- UserModule -->
<g id="node3" class="node">
<title>UserModule</title>
<polygon fill="#8dd3c7" stroke="black" points="592.99,-84.8 589.99,-88.8 568.99,-88.8 565.99,-84.8 507.01,-84.8 507.01,-48.8 592.99,-48.8 592.99,-84.8"/>
<text text-anchor="middle" x="550" y="-62.6" font-family="Times,serif" font-size="14.00">UserModule</text>
</g>
<!-- UserModule&#45;&gt;AuthModule -->
<g id="edge3" class="edge">
<title>UserModule&#45;&gt;AuthModule</title>
<path fill="none" stroke="black" d="M519.89,-84.91C519.89,-84.91 519.89,-103.79 519.89,-103.79"/>
<polygon fill="black" stroke="black" points="516.39,-103.79 519.89,-113.79 523.39,-103.79 516.39,-103.79"/>
</g>
<!-- UserReposModule -->
<g id="node4" class="node">
<title>UserReposModule</title>
<polygon fill="#8dd3c7" stroke="black" points="489.49,-84.8 486.49,-88.8 465.49,-88.8 462.49,-84.8 368.51,-84.8 368.51,-48.8 489.49,-48.8 489.49,-84.8"/>
<text text-anchor="middle" x="429" y="-62.6" font-family="Times,serif" font-size="14.00">UserReposModule</text>
</g>
<!-- UserReposModule&#45;&gt;AuthModule -->
<g id="edge4" class="edge">
<title>UserReposModule&#45;&gt;AuthModule</title>
<path fill="none" stroke="black" d="M467.36,-84.91C467.36,-84.91 467.36,-103.79 467.36,-103.79"/>
<polygon fill="black" stroke="black" points="463.86,-103.79 467.36,-113.79 470.86,-103.79 463.86,-103.79"/>
</g>
<!-- SupabaseGuard  -->
<g id="node6" class="node">
<title>SupabaseGuard </title>
<polygon fill="#fb8072" stroke="black" points="608.86,-214.8 501.14,-214.8 501.14,-178.8 608.86,-178.8 608.86,-214.8"/>
<text text-anchor="middle" x="555" y="-192.6" font-family="Times,serif" font-size="14.00">SupabaseGuard </text>
</g>
<!-- AuthModule&#45;&gt;SupabaseGuard  -->
<g id="edge5" class="edge">
<title>AuthModule&#45;&gt;SupabaseGuard </title>
<path fill="none" stroke="black" stroke-dasharray="5,2" d="M517.05,-149.91C517.05,-149.91 517.05,-168.79 517.05,-168.79"/>
<polygon fill="black" stroke="black" points="513.55,-168.79 517.05,-178.79 520.55,-168.79 513.55,-168.79"/>
</g>
<!-- SupabaseStrategy  -->
<g id="node7" class="node">
<title>SupabaseStrategy </title>
<polygon fill="#fb8072" stroke="black" points="483.53,-214.8 364.47,-214.8 364.47,-178.8 483.53,-178.8 483.53,-214.8"/>
<text text-anchor="middle" x="424" y="-192.6" font-family="Times,serif" font-size="14.00">SupabaseStrategy </text>
</g>
<!-- AuthModule&#45;&gt;SupabaseStrategy  -->
<g id="edge6" class="edge">
<title>AuthModule&#45;&gt;SupabaseStrategy </title>
<path fill="none" stroke="black" stroke-dasharray="5,2" d="M464.37,-149.91C464.37,-149.91 464.37,-168.79 464.37,-168.79"/>
<polygon fill="black" stroke="black" points="460.87,-168.79 464.37,-178.79 467.87,-168.79 460.87,-168.79"/>
</g>
<!-- SupabaseGuard -->
<g id="node8" class="node">
<title>SupabaseGuard</title>
<ellipse fill="#fdb462" stroke="black" cx="273" cy="-66.8" rx="71.78" ry="18"/>
<text text-anchor="middle" x="273" y="-62.6" font-family="Times,serif" font-size="14.00">SupabaseGuard</text>
</g>
<!-- SupabaseGuard&#45;&gt;AuthModule -->
<g id="edge7" class="edge">
<title>SupabaseGuard&#45;&gt;AuthModule</title>
<path fill="none" stroke="black" d="M273,-84.82C273,-102.17 273,-125.8 273,-125.8 273,-125.8 435.29,-125.8 435.29,-125.8"/>
<polygon fill="black" stroke="black" points="435.29,-129.3 445.29,-125.8 435.29,-122.3 435.29,-129.3"/>
</g>
<!-- SupabaseStrategy -->
<g id="node9" class="node">
<title>SupabaseStrategy</title>
<ellipse fill="#fdb462" stroke="black" cx="104" cy="-66.8" rx="79.88" ry="18"/>
<text text-anchor="middle" x="104" y="-62.6" font-family="Times,serif" font-size="14.00">SupabaseStrategy</text>
</g>
<!-- SupabaseStrategy&#45;&gt;AuthModule -->
<g id="edge8" class="edge">
<title>SupabaseStrategy&#45;&gt;AuthModule</title>
<path fill="none" stroke="black" d="M104,-85.08C104,-106.12 104,-137.8 104,-137.8 104,-137.8 435.21,-137.8 435.21,-137.8"/>
<polygon fill="black" stroke="black" points="435.21,-141.3 445.21,-137.8 435.21,-134.3 435.21,-141.3"/>
</g>
</g>
</svg>
