<?xml version="1.0" encoding="UTF-8" standalone="no"?>
<!DOCTYPE svg PUBLIC "-//W3C//DTD SVG 1.1//EN"
 "http://www.w3.org/Graphics/SVG/1.1/DTD/svg11.dtd">
<!-- Generated by graphviz version 3.0.0 (20220226.1711)
 -->
<!-- Title: dependencies Pages: 1 -->
<svg width="625pt" height="247pt"
 viewBox="0.00 0.00 625.00 246.80" xmlns="http://www.w3.org/2000/svg" xmlns:xlink="http://www.w3.org/1999/xlink">
<g id="graph0" class="graph" transform="scale(1 1) rotate(0) translate(4 242.8)">
<title>dependencies</title>
<polygon fill="white" stroke="transparent" points="-4,4 -4,-242.8 621,-242.8 621,4 -4,4"/>
<text text-anchor="middle" x="308.5" y="-8.2" font-family="sans-serif" font-size="14.00">dependencies</text>
<g id="clust1" class="cluster">
<title>cluster_AuthModule</title>
<polygon fill="none" stroke="black" stroke-dasharray="1,5" points="8,-32.8 8,-230.8 609,-230.8 609,-32.8 8,-32.8"/>
</g>
<g id="clust6" class="cluster">
<title>cluster_AuthModule_providers</title>
<polygon fill="none" stroke="black" points="264,-40.8 264,-92.8 601,-92.8 601,-40.8 264,-40.8"/>
</g>
<g id="clust4" class="cluster">
<title>cluster_AuthModule_exports</title>
<polygon fill="none" stroke="black" points="145,-170.8 145,-222.8 406,-222.8 406,-170.8 145,-170.8"/>
</g>
<g id="clust3" class="cluster">
<title>cluster_AuthModule_imports</title>
<polygon fill="none" stroke="black" points="16,-40.8 16,-92.8 256,-92.8 256,-40.8 16,-40.8"/>
</g>
<!-- UserModule -->
<g id="node1" class="node">
<title>UserModule</title>
<polygon fill="#8dd3c7" stroke="black" points="247.99,-84.8 244.99,-88.8 223.99,-88.8 220.99,-84.8 162.01,-84.8 162.01,-48.8 247.99,-48.8 247.99,-84.8"/>
<text text-anchor="middle" x="205" y="-62.6" font-family="Times,serif" font-size="14.00">UserModule</text>
</g>
<!-- AuthModule -->
<g id="node3" class="node">
<title>AuthModule</title>
<polygon fill="#8dd3c7" stroke="black" points="321.55,-149.8 318.55,-153.8 297.55,-153.8 294.55,-149.8 234.45,-149.8 234.45,-113.8 321.55,-113.8 321.55,-149.8"/>
<text text-anchor="middle" x="278" y="-127.6" font-family="Times,serif" font-size="14.00">AuthModule</text>
</g>
<!-- UserModule&#45;&gt;AuthModule -->
<g id="edge1" class="edge">
<title>UserModule&#45;&gt;AuthModule</title>
<path fill="none" stroke="black" d="M241.11,-84.91C241.11,-84.91 241.11,-103.79 241.11,-103.79"/>
<polygon fill="black" stroke="black" points="237.61,-103.79 241.11,-113.79 244.61,-103.79 237.61,-103.79"/>
</g>
<!-- UserReposModule -->
<g id="node2" class="node">
<title>UserReposModule</title>
<polygon fill="#8dd3c7" stroke="black" points="144.49,-84.8 141.49,-88.8 120.49,-88.8 117.49,-84.8 23.51,-84.8 23.51,-48.8 144.49,-48.8 144.49,-84.8"/>
<text text-anchor="middle" x="84" y="-62.6" font-family="Times,serif" font-size="14.00">UserReposModule</text>
</g>
<!-- UserReposModule&#45;&gt;AuthModule -->
<g id="edge2" class="edge">
<title>UserReposModule&#45;&gt;AuthModule</title>
<path fill="none" stroke="black" d="M84,-84.91C84,-104.14 84,-131.8 84,-131.8 84,-131.8 223.98,-131.8 223.98,-131.8"/>
<polygon fill="black" stroke="black" points="223.98,-135.3 233.98,-131.8 223.98,-128.3 223.98,-135.3"/>
</g>
<!-- SupabaseGuard  -->
<g id="node4" class="node">
<title>SupabaseGuard </title>
<polygon fill="#fb8072" stroke="black" points="397.86,-214.8 290.14,-214.8 290.14,-178.8 397.86,-178.8 397.86,-214.8"/>
<text text-anchor="middle" x="344" y="-192.6" font-family="Times,serif" font-size="14.00">SupabaseGuard </text>
</g>
<!-- AuthModule&#45;&gt;SupabaseGuard  -->
<g id="edge3" class="edge">
<title>AuthModule&#45;&gt;SupabaseGuard </title>
<path fill="none" stroke="black" stroke-dasharray="5,2" d="M306.05,-149.91C306.05,-149.91 306.05,-168.79 306.05,-168.79"/>
<polygon fill="black" stroke="black" points="302.55,-168.79 306.05,-178.79 309.55,-168.79 302.55,-168.79"/>
</g>
<!-- SupabaseStrategy  -->
<g id="node5" class="node">
<title>SupabaseStrategy </title>
<polygon fill="#fb8072" stroke="black" points="272.53,-214.8 153.47,-214.8 153.47,-178.8 272.53,-178.8 272.53,-214.8"/>
<text text-anchor="middle" x="213" y="-192.6" font-family="Times,serif" font-size="14.00">SupabaseStrategy </text>
</g>
<!-- AuthModule&#45;&gt;SupabaseStrategy  -->
<g id="edge4" class="edge">
<title>AuthModule&#45;&gt;SupabaseStrategy </title>
<path fill="none" stroke="black" stroke-dasharray="5,2" d="M253.37,-149.91C253.37,-149.91 253.37,-168.79 253.37,-168.79"/>
<polygon fill="black" stroke="black" points="249.87,-168.79 253.37,-178.79 256.87,-168.79 249.87,-168.79"/>
</g>
<!-- SupabaseGuard -->
<g id="node6" class="node">
<title>SupabaseGuard</title>
<ellipse fill="#fdb462" stroke="black" cx="521" cy="-66.8" rx="71.78" ry="18"/>
<text text-anchor="middle" x="521" y="-62.6" font-family="Times,serif" font-size="14.00">SupabaseGuard</text>
</g>
<!-- SupabaseGuard&#45;&gt;AuthModule -->
<g id="edge5" class="edge">
<title>SupabaseGuard&#45;&gt;AuthModule</title>
<path fill="none" stroke="black" d="M521,-84.91C521,-104.14 521,-131.8 521,-131.8 521,-131.8 331.72,-131.8 331.72,-131.8"/>
<polygon fill="black" stroke="black" points="331.72,-128.3 321.72,-131.8 331.72,-135.3 331.72,-128.3"/>
</g>
<!-- SupabaseStrategy -->
<g id="node7" class="node">
<title>SupabaseStrategy</title>
<ellipse fill="#fdb462" stroke="black" cx="352" cy="-66.8" rx="79.88" ry="18"/>
<text text-anchor="middle" x="352" y="-62.6" font-family="Times,serif" font-size="14.00">SupabaseStrategy</text>
</g>
<!-- SupabaseStrategy&#45;&gt;AuthModule -->
<g id="edge6" class="edge">
<title>SupabaseStrategy&#45;&gt;AuthModule</title>
<path fill="none" stroke="black" d="M297.04,-79.95C297.04,-79.95 297.04,-103.49 297.04,-103.49"/>
<polygon fill="black" stroke="black" points="293.54,-103.49 297.04,-113.49 300.54,-103.49 293.54,-103.49"/>
</g>
</g>
</svg>
