<?xml version="1.0" encoding="UTF-8" standalone="no"?>
<!DOCTYPE svg PUBLIC "-//W3C//DTD SVG 1.1//EN"
 "http://www.w3.org/Graphics/SVG/1.1/DTD/svg11.dtd">
<!-- Generated by graphviz version 3.0.0 (20220226.1711)
 -->
<!-- Title: dependencies Pages: 1 -->
<svg width="867pt" height="247pt"
 viewBox="0.00 0.00 867.00 246.80" xmlns="http://www.w3.org/2000/svg" xmlns:xlink="http://www.w3.org/1999/xlink">
<g id="graph0" class="graph" transform="scale(1 1) rotate(0) translate(4 242.8)">
<title>dependencies</title>
<polygon fill="white" stroke="transparent" points="-4,4 -4,-242.8 863,-242.8 863,4 -4,4"/>
<text text-anchor="middle" x="429.5" y="-8.2" font-family="sans-serif" font-size="14.00">dependencies</text>
<g id="clust1" class="cluster">
<title>cluster_AuthModule</title>
<polygon fill="none" stroke="black" stroke-dasharray="1,5" points="8,-32.8 8,-230.8 851,-230.8 851,-32.8 8,-32.8"/>
</g>
<g id="clust6" class="cluster">
<title>cluster_AuthModule_providers</title>
<polygon fill="none" stroke="black" points="506,-40.8 506,-92.8 843,-92.8 843,-40.8 506,-40.8"/>
</g>
<g id="clust3" class="cluster">
<title>cluster_AuthModule_imports</title>
<polygon fill="none" stroke="black" points="16,-40.8 16,-92.8 498,-92.8 498,-40.8 16,-40.8"/>
</g>
<g id="clust4" class="cluster">
<title>cluster_AuthModule_exports</title>
<polygon fill="none" stroke="black" points="239,-170.8 239,-222.8 500,-222.8 500,-170.8 239,-170.8"/>
</g>
<!-- CustomerModule -->
<g id="node1" class="node">
<title>CustomerModule</title>
<polygon fill="#8dd3c7" stroke="black" points="489.99,-84.8 486.99,-88.8 465.99,-88.8 462.99,-84.8 376.01,-84.8 376.01,-48.8 489.99,-48.8 489.99,-84.8"/>
<text text-anchor="middle" x="433" y="-62.6" font-family="Times,serif" font-size="14.00">CustomerModule</text>
</g>
<!-- AuthModule -->
<g id="node5" class="node">
<title>AuthModule</title>
<polygon fill="#8dd3c7" stroke="black" points="415.55,-149.8 412.55,-153.8 391.55,-153.8 388.55,-149.8 328.45,-149.8 328.45,-113.8 415.55,-113.8 415.55,-149.8"/>
<text text-anchor="middle" x="372" y="-127.6" font-family="Times,serif" font-size="14.00">AuthModule</text>
</g>
<!-- CustomerModule&#45;&gt;AuthModule -->
<g id="edge1" class="edge">
<title>CustomerModule&#45;&gt;AuthModule</title>
<path fill="none" stroke="black" d="M395.89,-84.91C395.89,-84.91 395.89,-103.79 395.89,-103.79"/>
<polygon fill="black" stroke="black" points="392.39,-103.79 395.89,-113.79 399.39,-103.79 392.39,-103.79"/>
</g>
<!-- StripeModule -->
<g id="node2" class="node">
<title>StripeModule</title>
<polygon fill="#8dd3c7" stroke="black" points="358.49,-84.8 355.49,-88.8 334.49,-88.8 331.49,-84.8 265.51,-84.8 265.51,-48.8 358.49,-48.8 358.49,-84.8"/>
<text text-anchor="middle" x="312" y="-62.6" font-family="Times,serif" font-size="14.00">StripeModule</text>
</g>
<!-- StripeModule&#45;&gt;AuthModule -->
<g id="edge2" class="edge">
<title>StripeModule&#45;&gt;AuthModule</title>
<path fill="none" stroke="black" d="M343.36,-84.91C343.36,-84.91 343.36,-103.79 343.36,-103.79"/>
<polygon fill="black" stroke="black" points="339.86,-103.79 343.36,-113.79 346.86,-103.79 339.86,-103.79"/>
</g>
<!-- UserModule -->
<g id="node3" class="node">
<title>UserModule</title>
<polygon fill="#8dd3c7" stroke="black" points="247.99,-84.8 244.99,-88.8 223.99,-88.8 220.99,-84.8 162.01,-84.8 162.01,-48.8 247.99,-48.8 247.99,-84.8"/>
<text text-anchor="middle" x="205" y="-62.6" font-family="Times,serif" font-size="14.00">UserModule</text>
</g>
<!-- UserModule&#45;&gt;AuthModule -->
<g id="edge3" class="edge">
<title>UserModule&#45;&gt;AuthModule</title>
<path fill="none" stroke="black" d="M204.75,-84.82C204.75,-102.17 204.75,-125.8 204.75,-125.8 204.75,-125.8 318.06,-125.8 318.06,-125.8"/>
<polygon fill="black" stroke="black" points="318.06,-129.3 328.06,-125.8 318.06,-122.3 318.06,-129.3"/>
</g>
<!-- UserReposModule -->
<g id="node4" class="node">
<title>UserReposModule</title>
<polygon fill="#8dd3c7" stroke="black" points="144.49,-84.8 141.49,-88.8 120.49,-88.8 117.49,-84.8 23.51,-84.8 23.51,-48.8 144.49,-48.8 144.49,-84.8"/>
<text text-anchor="middle" x="84" y="-62.6" font-family="Times,serif" font-size="14.00">UserReposModule</text>
</g>
<!-- UserReposModule&#45;&gt;AuthModule -->
<g id="edge4" class="edge">
<title>UserReposModule&#45;&gt;AuthModule</title>
<path fill="none" stroke="black" d="M84,-85.08C84,-106.12 84,-137.8 84,-137.8 84,-137.8 318.26,-137.8 318.26,-137.8"/>
<polygon fill="black" stroke="black" points="318.26,-141.3 328.26,-137.8 318.26,-134.3 318.26,-141.3"/>
</g>
<!-- SupabaseGuard  -->
<g id="node6" class="node">
<title>SupabaseGuard </title>
<polygon fill="#fb8072" stroke="black" points="491.86,-214.8 384.14,-214.8 384.14,-178.8 491.86,-178.8 491.86,-214.8"/>
<text text-anchor="middle" x="438" y="-192.6" font-family="Times,serif" font-size="14.00">SupabaseGuard </text>
</g>
<!-- AuthModule&#45;&gt;SupabaseGuard  -->
<g id="edge5" class="edge">
<title>AuthModule&#45;&gt;SupabaseGuard </title>
<path fill="none" stroke="black" stroke-dasharray="5,2" d="M400.05,-149.91C400.05,-149.91 400.05,-168.79 400.05,-168.79"/>
<polygon fill="black" stroke="black" points="396.55,-168.79 400.05,-178.79 403.55,-168.79 396.55,-168.79"/>
</g>
<!-- SupabaseStrategy  -->
<g id="node7" class="node">
<title>SupabaseStrategy </title>
<polygon fill="#fb8072" stroke="black" points="366.53,-214.8 247.47,-214.8 247.47,-178.8 366.53,-178.8 366.53,-214.8"/>
<text text-anchor="middle" x="307" y="-192.6" font-family="Times,serif" font-size="14.00">SupabaseStrategy </text>
</g>
<!-- AuthModule&#45;&gt;SupabaseStrategy  -->
<g id="edge6" class="edge">
<title>AuthModule&#45;&gt;SupabaseStrategy </title>
<path fill="none" stroke="black" stroke-dasharray="5,2" d="M347.37,-149.91C347.37,-149.91 347.37,-168.79 347.37,-168.79"/>
<polygon fill="black" stroke="black" points="343.87,-168.79 347.37,-178.79 350.87,-168.79 343.87,-168.79"/>
</g>
<!-- SupabaseGuard -->
<g id="node8" class="node">
<title>SupabaseGuard</title>
<ellipse fill="#fdb462" stroke="black" cx="763" cy="-66.8" rx="71.78" ry="18"/>
<text text-anchor="middle" x="763" y="-62.6" font-family="Times,serif" font-size="14.00">SupabaseGuard</text>
</g>
<!-- SupabaseGuard&#45;&gt;AuthModule -->
<g id="edge7" class="edge">
<title>SupabaseGuard&#45;&gt;AuthModule</title>
<path fill="none" stroke="black" d="M763,-85.08C763,-106.12 763,-137.8 763,-137.8 763,-137.8 425.71,-137.8 425.71,-137.8"/>
<polygon fill="black" stroke="black" points="425.71,-134.3 415.71,-137.8 425.71,-141.3 425.71,-134.3"/>
</g>
<!-- SupabaseStrategy -->
<g id="node9" class="node">
<title>SupabaseStrategy</title>
<ellipse fill="#fdb462" stroke="black" cx="594" cy="-66.8" rx="79.88" ry="18"/>
<text text-anchor="middle" x="594" y="-62.6" font-family="Times,serif" font-size="14.00">SupabaseStrategy</text>
</g>
<!-- SupabaseStrategy&#45;&gt;AuthModule -->
<g id="edge8" class="edge">
<title>SupabaseStrategy&#45;&gt;AuthModule</title>
<path fill="none" stroke="black" d="M594,-84.82C594,-102.17 594,-125.8 594,-125.8 594,-125.8 425.6,-125.8 425.6,-125.8"/>
<polygon fill="black" stroke="black" points="425.6,-122.3 415.6,-125.8 425.6,-129.3 425.6,-122.3"/>
</g>
</g>
</svg>
