<?xml version="1.0" encoding="UTF-8" standalone="no"?>
<!DOCTYPE svg PUBLIC "-//W3C//DTD SVG 1.1//EN"
 "http://www.w3.org/Graphics/SVG/1.1/DTD/svg11.dtd">
<!-- Generated by graphviz version 3.0.0 (20220226.1711)
 -->
<!-- Title: dependencies Pages: 1 -->
<svg width="487pt" height="247pt"
 viewBox="0.00 0.00 487.00 246.80" xmlns="http://www.w3.org/2000/svg" xmlns:xlink="http://www.w3.org/1999/xlink">
<g id="graph0" class="graph" transform="scale(1 1) rotate(0) translate(4 242.8)">
<title>dependencies</title>
<polygon fill="white" stroke="transparent" points="-4,4 -4,-242.8 483,-242.8 483,4 -4,4"/>
<text text-anchor="middle" x="239.5" y="-8.2" font-family="sans-serif" font-size="14.00">dependencies</text>
<g id="clust1" class="cluster">
<title>cluster_AuthModule</title>
<polygon fill="none" stroke="black" stroke-dasharray="1,5" points="8,-32.8 8,-230.8 471,-230.8 471,-32.8 8,-32.8"/>
</g>
<g id="clust3" class="cluster">
<title>cluster_AuthModule_imports</title>
<polygon fill="none" stroke="black" points="361,-40.8 361,-92.8 463,-92.8 463,-40.8 361,-40.8"/>
</g>
<g id="clust4" class="cluster">
<title>cluster_AuthModule_exports</title>
<polygon fill="none" stroke="black" points="138,-170.8 138,-222.8 399,-222.8 399,-170.8 138,-170.8"/>
</g>
<g id="clust6" class="cluster">
<title>cluster_AuthModule_providers</title>
<polygon fill="none" stroke="black" points="16,-40.8 16,-92.8 353,-92.8 353,-40.8 16,-40.8"/>
</g>
<!-- UserModule -->
<g id="node1" class="node">
<title>UserModule</title>
<polygon fill="#8dd3c7" stroke="black" points="454.99,-84.8 451.99,-88.8 430.99,-88.8 427.99,-84.8 369.01,-84.8 369.01,-48.8 454.99,-48.8 454.99,-84.8"/>
<text text-anchor="middle" x="412" y="-62.6" font-family="Times,serif" font-size="14.00">UserModule</text>
</g>
<!-- AuthModule -->
<g id="node2" class="node">
<title>AuthModule</title>
<polygon fill="#8dd3c7" stroke="black" points="316.55,-149.8 313.55,-153.8 292.55,-153.8 289.55,-149.8 229.45,-149.8 229.45,-113.8 316.55,-113.8 316.55,-149.8"/>
<text text-anchor="middle" x="273" y="-127.6" font-family="Times,serif" font-size="14.00">AuthModule</text>
</g>
<!-- UserModule&#45;&gt;AuthModule -->
<g id="edge1" class="edge">
<title>UserModule&#45;&gt;AuthModule</title>
<path fill="none" stroke="black" d="M379.84,-84.91C379.84,-104.14 379.84,-131.8 379.84,-131.8 379.84,-131.8 326.77,-131.8 326.77,-131.8"/>
<polygon fill="black" stroke="black" points="326.77,-128.3 316.77,-131.8 326.77,-135.3 326.77,-128.3"/>
</g>
<!-- SupabaseGuard  -->
<g id="node3" class="node">
<title>SupabaseGuard </title>
<polygon fill="#fb8072" stroke="black" points="390.86,-214.8 283.14,-214.8 283.14,-178.8 390.86,-178.8 390.86,-214.8"/>
<text text-anchor="middle" x="337" y="-192.6" font-family="Times,serif" font-size="14.00">SupabaseGuard </text>
</g>
<!-- AuthModule&#45;&gt;SupabaseGuard  -->
<g id="edge2" class="edge">
<title>AuthModule&#45;&gt;SupabaseGuard </title>
<path fill="none" stroke="black" stroke-dasharray="5,2" d="M300.05,-149.91C300.05,-149.91 300.05,-168.79 300.05,-168.79"/>
<polygon fill="black" stroke="black" points="296.55,-168.79 300.05,-178.79 303.55,-168.79 296.55,-168.79"/>
</g>
<!-- SupabaseStrategy  -->
<g id="node4" class="node">
<title>SupabaseStrategy </title>
<polygon fill="#fb8072" stroke="black" points="265.53,-214.8 146.47,-214.8 146.47,-178.8 265.53,-178.8 265.53,-214.8"/>
<text text-anchor="middle" x="206" y="-192.6" font-family="Times,serif" font-size="14.00">SupabaseStrategy </text>
</g>
<!-- AuthModule&#45;&gt;SupabaseStrategy  -->
<g id="edge3" class="edge">
<title>AuthModule&#45;&gt;SupabaseStrategy </title>
<path fill="none" stroke="black" stroke-dasharray="5,2" d="M247.37,-149.91C247.37,-149.91 247.37,-168.79 247.37,-168.79"/>
<polygon fill="black" stroke="black" points="243.87,-168.79 247.37,-178.79 250.87,-168.79 243.87,-168.79"/>
</g>
<!-- SupabaseGuard -->
<g id="node5" class="node">
<title>SupabaseGuard</title>
<ellipse fill="#fdb462" stroke="black" cx="273" cy="-66.8" rx="71.78" ry="18"/>
<text text-anchor="middle" x="273" y="-62.6" font-family="Times,serif" font-size="14.00">SupabaseGuard</text>
</g>
<!-- SupabaseGuard&#45;&gt;AuthModule -->
<g id="edge4" class="edge">
<title>SupabaseGuard&#45;&gt;AuthModule</title>
<path fill="none" stroke="black" d="M273,-84.91C273,-84.91 273,-103.79 273,-103.79"/>
<polygon fill="black" stroke="black" points="269.5,-103.79 273,-113.79 276.5,-103.79 269.5,-103.79"/>
</g>
<!-- SupabaseStrategy -->
<g id="node6" class="node">
<title>SupabaseStrategy</title>
<ellipse fill="#fdb462" stroke="black" cx="104" cy="-66.8" rx="79.88" ry="18"/>
<text text-anchor="middle" x="104" y="-62.6" font-family="Times,serif" font-size="14.00">SupabaseStrategy</text>
</g>
<!-- SupabaseStrategy&#45;&gt;AuthModule -->
<g id="edge5" class="edge">
<title>SupabaseStrategy&#45;&gt;AuthModule</title>
<path fill="none" stroke="black" d="M165.09,-78.42C165.09,-97.12 165.09,-131.8 165.09,-131.8 165.09,-131.8 219.42,-131.8 219.42,-131.8"/>
<polygon fill="black" stroke="black" points="219.42,-135.3 229.42,-131.8 219.42,-128.3 219.42,-135.3"/>
</g>
</g>
</svg>
