<?xml version="1.0" encoding="UTF-8" standalone="no"?>
<!DOCTYPE svg PUBLIC "-//W3C//DTD SVG 1.1//EN"
 "http://www.w3.org/Graphics/SVG/1.1/DTD/svg11.dtd">
<!-- Generated by graphviz version 3.0.0 (20220226.1711)
 -->
<!-- Title: dependencies Pages: 1 -->
<svg width="328pt" height="247pt"
 viewBox="0.00 0.00 328.00 246.80" xmlns="http://www.w3.org/2000/svg" xmlns:xlink="http://www.w3.org/1999/xlink">
<g id="graph0" class="graph" transform="scale(1 1) rotate(0) translate(4 242.8)">
<title>dependencies</title>
<polygon fill="white" stroke="transparent" points="-4,4 -4,-242.8 324,-242.8 324,4 -4,4"/>
<text text-anchor="middle" x="160" y="-8.2" font-family="sans-serif" font-size="14.00">dependencies</text>
<g id="clust1" class="cluster">
<title>cluster_CustomerModule</title>
<polygon fill="none" stroke="black" stroke-dasharray="1,5" points="8,-32.8 8,-230.8 312,-230.8 312,-32.8 8,-32.8"/>
</g>
<g id="clust4" class="cluster">
<title>cluster_CustomerModule_exports</title>
<polygon fill="none" stroke="black" points="84,-170.8 84,-222.8 216,-222.8 216,-170.8 84,-170.8"/>
</g>
<g id="clust6" class="cluster">
<title>cluster_CustomerModule_providers</title>
<polygon fill="none" stroke="black" points="132,-40.8 132,-92.8 304,-92.8 304,-40.8 132,-40.8"/>
</g>
<g id="clust3" class="cluster">
<title>cluster_CustomerModule_imports</title>
<polygon fill="none" stroke="black" points="16,-40.8 16,-92.8 124,-92.8 124,-40.8 16,-40.8"/>
</g>
<!-- StripeModule -->
<g id="node1" class="node">
<title>StripeModule</title>
<polygon fill="#8dd3c7" stroke="black" points="116.49,-84.8 113.49,-88.8 92.49,-88.8 89.49,-84.8 23.51,-84.8 23.51,-48.8 116.49,-48.8 116.49,-84.8"/>
<text text-anchor="middle" x="70" y="-62.6" font-family="Times,serif" font-size="14.00">StripeModule</text>
</g>
<!-- CustomerModule -->
<g id="node2" class="node">
<title>CustomerModule</title>
<polygon fill="#8dd3c7" stroke="black" points="206.99,-149.8 203.99,-153.8 182.99,-153.8 179.99,-149.8 93.01,-149.8 93.01,-113.8 206.99,-113.8 206.99,-149.8"/>
<text text-anchor="middle" x="150" y="-127.6" font-family="Times,serif" font-size="14.00">CustomerModule</text>
</g>
<!-- StripeModule&#45;&gt;CustomerModule -->
<g id="edge1" class="edge">
<title>StripeModule&#45;&gt;CustomerModule</title>
<path fill="none" stroke="black" d="M104.75,-84.91C104.75,-84.91 104.75,-103.79 104.75,-103.79"/>
<polygon fill="black" stroke="black" points="101.25,-103.79 104.75,-113.79 108.25,-103.79 101.25,-103.79"/>
</g>
<!-- CustomerService  -->
<g id="node3" class="node">
<title>CustomerService </title>
<polygon fill="#fb8072" stroke="black" points="207.92,-214.8 92.08,-214.8 92.08,-178.8 207.92,-178.8 207.92,-214.8"/>
<text text-anchor="middle" x="150" y="-192.6" font-family="Times,serif" font-size="14.00">CustomerService </text>
</g>
<!-- CustomerModule&#45;&gt;CustomerService  -->
<g id="edge2" class="edge">
<title>CustomerModule&#45;&gt;CustomerService </title>
<path fill="none" stroke="black" stroke-dasharray="5,2" d="M150,-149.91C150,-149.91 150,-168.79 150,-168.79"/>
<polygon fill="black" stroke="black" points="146.5,-168.79 150,-178.79 153.5,-168.79 146.5,-168.79"/>
</g>
<!-- CustomerService -->
<g id="node4" class="node">
<title>CustomerService</title>
<ellipse fill="#fdb462" stroke="black" cx="218" cy="-66.8" rx="77.59" ry="18"/>
<text text-anchor="middle" x="218" y="-62.6" font-family="Times,serif" font-size="14.00">CustomerService</text>
</g>
<!-- CustomerService&#45;&gt;CustomerModule -->
<g id="edge3" class="edge">
<title>CustomerService&#45;&gt;CustomerModule</title>
<path fill="none" stroke="black" d="M173.73,-81.88C173.73,-81.88 173.73,-103.56 173.73,-103.56"/>
<polygon fill="black" stroke="black" points="170.23,-103.56 173.73,-113.56 177.23,-103.56 170.23,-103.56"/>
</g>
</g>
</svg>
