<?xml version="1.0" encoding="UTF-8" standalone="no"?>
<!DOCTYPE svg PUBLIC "-//W3C//DTD SVG 1.1//EN"
 "http://www.w3.org/Graphics/SVG/1.1/DTD/svg11.dtd">
<!-- Generated by graphviz version 3.0.0 (20220226.1711)
 -->
<!-- Title: dependencies Pages: 1 -->
<svg width="600pt" height="247pt"
 viewBox="0.00 0.00 600.00 246.80" xmlns="http://www.w3.org/2000/svg" xmlns:xlink="http://www.w3.org/1999/xlink">
<g id="graph0" class="graph" transform="scale(1 1) rotate(0) translate(4 242.8)">
<title>dependencies</title>
<polygon fill="white" stroke="transparent" points="-4,4 -4,-242.8 596,-242.8 596,4 -4,4"/>
<text text-anchor="middle" x="296" y="-8.2" font-family="sans-serif" font-size="14.00">dependencies</text>
<g id="clust1" class="cluster">
<title>cluster_EndorsementModule</title>
<polygon fill="none" stroke="black" stroke-dasharray="1,5" points="8,-32.8 8,-230.8 584,-230.8 584,-32.8 8,-32.8"/>
</g>
<g id="clust3" class="cluster">
<title>cluster_EndorsementModule_imports</title>
<polygon fill="none" stroke="black" points="222,-40.8 222,-92.8 576,-92.8 576,-40.8 222,-40.8"/>
</g>
<g id="clust4" class="cluster">
<title>cluster_EndorsementModule_exports</title>
<polygon fill="none" stroke="black" points="249,-170.8 249,-222.8 401,-222.8 401,-170.8 249,-170.8"/>
</g>
<g id="clust6" class="cluster">
<title>cluster_EndorsementModule_providers</title>
<polygon fill="none" stroke="black" points="16,-40.8 16,-92.8 214,-92.8 214,-40.8 16,-40.8"/>
</g>
<!-- ApiServicesModule -->
<g id="node1" class="node">
<title>ApiServicesModule</title>
<polygon fill="#8dd3c7" stroke="black" points="567.98,-84.8 564.98,-88.8 543.98,-88.8 540.98,-84.8 440.02,-84.8 440.02,-48.8 567.98,-48.8 567.98,-84.8"/>
<text text-anchor="middle" x="504" y="-62.6" font-family="Times,serif" font-size="14.00">ApiServicesModule</text>
</g>
<!-- EndorsementModule -->
<g id="node4" class="node">
<title>EndorsementModule</title>
<polygon fill="#8dd3c7" stroke="black" points="391.92,-149.8 388.92,-153.8 367.92,-153.8 364.92,-149.8 258.08,-149.8 258.08,-113.8 391.92,-113.8 391.92,-149.8"/>
<text text-anchor="middle" x="325" y="-127.6" font-family="Times,serif" font-size="14.00">EndorsementModule</text>
</g>
<!-- ApiServicesModule&#45;&gt;EndorsementModule -->
<g id="edge1" class="edge">
<title>ApiServicesModule&#45;&gt;EndorsementModule</title>
<path fill="none" stroke="black" d="M504,-84.91C504,-104.14 504,-131.8 504,-131.8 504,-131.8 401.91,-131.8 401.91,-131.8"/>
<polygon fill="black" stroke="black" points="401.91,-128.3 391.91,-131.8 401.91,-135.3 401.91,-128.3"/>
</g>
<!-- AuthModule -->
<g id="node2" class="node">
<title>AuthModule</title>
<polygon fill="#8dd3c7" stroke="black" points="421.55,-84.8 418.55,-88.8 397.55,-88.8 394.55,-84.8 334.45,-84.8 334.45,-48.8 421.55,-48.8 421.55,-84.8"/>
<text text-anchor="middle" x="378" y="-62.6" font-family="Times,serif" font-size="14.00">AuthModule</text>
</g>
<!-- AuthModule&#45;&gt;EndorsementModule -->
<g id="edge2" class="edge">
<title>AuthModule&#45;&gt;EndorsementModule</title>
<path fill="none" stroke="black" d="M362.97,-84.91C362.97,-84.91 362.97,-103.79 362.97,-103.79"/>
<polygon fill="black" stroke="black" points="359.47,-103.79 362.97,-113.79 366.47,-103.79 359.47,-103.79"/>
</g>
<!-- UserModule -->
<g id="node3" class="node">
<title>UserModule</title>
<polygon fill="#8dd3c7" stroke="black" points="315.99,-84.8 312.99,-88.8 291.99,-88.8 288.99,-84.8 230.01,-84.8 230.01,-48.8 315.99,-48.8 315.99,-84.8"/>
<text text-anchor="middle" x="273" y="-62.6" font-family="Times,serif" font-size="14.00">UserModule</text>
</g>
<!-- UserModule&#45;&gt;EndorsementModule -->
<g id="edge3" class="edge">
<title>UserModule&#45;&gt;EndorsementModule</title>
<path fill="none" stroke="black" d="M287.14,-84.91C287.14,-84.91 287.14,-103.79 287.14,-103.79"/>
<polygon fill="black" stroke="black" points="283.64,-103.79 287.14,-113.79 290.64,-103.79 283.64,-103.79"/>
</g>
<!-- EndorsementService  -->
<g id="node5" class="node">
<title>EndorsementService </title>
<polygon fill="#fb8072" stroke="black" points="392.85,-214.8 257.15,-214.8 257.15,-178.8 392.85,-178.8 392.85,-214.8"/>
<text text-anchor="middle" x="325" y="-192.6" font-family="Times,serif" font-size="14.00">EndorsementService </text>
</g>
<!-- EndorsementModule&#45;&gt;EndorsementService  -->
<g id="edge4" class="edge">
<title>EndorsementModule&#45;&gt;EndorsementService </title>
<path fill="none" stroke="black" stroke-dasharray="5,2" d="M325,-149.91C325,-149.91 325,-168.79 325,-168.79"/>
<polygon fill="black" stroke="black" points="321.5,-168.79 325,-178.79 328.5,-168.79 321.5,-168.79"/>
</g>
<!-- EndorsementService -->
<g id="node6" class="node">
<title>EndorsementService</title>
<ellipse fill="#fdb462" stroke="black" cx="115" cy="-66.8" rx="90.89" ry="18"/>
<text text-anchor="middle" x="115" y="-62.6" font-family="Times,serif" font-size="14.00">EndorsementService</text>
</g>
<!-- EndorsementService&#45;&gt;EndorsementModule -->
<g id="edge5" class="edge">
<title>EndorsementService&#45;&gt;EndorsementModule</title>
<path fill="none" stroke="black" d="M115,-84.91C115,-104.14 115,-131.8 115,-131.8 115,-131.8 248.27,-131.8 248.27,-131.8"/>
<polygon fill="black" stroke="black" points="248.27,-135.3 258.27,-131.8 248.27,-128.3 248.27,-135.3"/>
</g>
</g>
</svg>
