<?xml version="1.0" encoding="UTF-8" standalone="no"?>
<!DOCTYPE svg PUBLIC "-//W3C//DTD SVG 1.1//EN"
 "http://www.w3.org/Graphics/SVG/1.1/DTD/svg11.dtd">
<!-- Generated by graphviz version 3.0.0 (20220226.1711)
 -->
<!-- Title: dependencies Pages: 1 -->
<svg width="600pt" height="247pt"
 viewBox="0.00 0.00 600.00 246.80" xmlns="http://www.w3.org/2000/svg" xmlns:xlink="http://www.w3.org/1999/xlink">
<g id="graph0" class="graph" transform="scale(1 1) rotate(0) translate(4 242.8)">
<title>dependencies</title>
<polygon fill="white" stroke="transparent" points="-4,4 -4,-242.8 596,-242.8 596,4 -4,4"/>
<text text-anchor="middle" x="296" y="-8.2" font-family="sans-serif" font-size="14.00">dependencies</text>
<g id="clust1" class="cluster">
<title>cluster_EndorsementModule</title>
<polygon fill="none" stroke="black" stroke-dasharray="1,5" points="8,-32.8 8,-230.8 584,-230.8 584,-32.8 8,-32.8"/>
</g>
<g id="clust6" class="cluster">
<title>cluster_EndorsementModule_providers</title>
<polygon fill="none" stroke="black" points="378,-40.8 378,-92.8 576,-92.8 576,-40.8 378,-40.8"/>
</g>
<g id="clust3" class="cluster">
<title>cluster_EndorsementModule_imports</title>
<polygon fill="none" stroke="black" points="16,-40.8 16,-92.8 370,-92.8 370,-40.8 16,-40.8"/>
</g>
<g id="clust4" class="cluster">
<title>cluster_EndorsementModule_exports</title>
<polygon fill="none" stroke="black" points="159,-170.8 159,-222.8 311,-222.8 311,-170.8 159,-170.8"/>
</g>
<!-- ApiServicesModule -->
<g id="node1" class="node">
<title>ApiServicesModule</title>
<polygon fill="#8dd3c7" stroke="black" points="361.98,-84.8 358.98,-88.8 337.98,-88.8 334.98,-84.8 234.02,-84.8 234.02,-48.8 361.98,-48.8 361.98,-84.8"/>
<text text-anchor="middle" x="298" y="-62.6" font-family="Times,serif" font-size="14.00">ApiServicesModule</text>
</g>
<!-- EndorsementModule -->
<g id="node4" class="node">
<title>EndorsementModule</title>
<polygon fill="#8dd3c7" stroke="black" points="301.92,-149.8 298.92,-153.8 277.92,-153.8 274.92,-149.8 168.08,-149.8 168.08,-113.8 301.92,-113.8 301.92,-149.8"/>
<text text-anchor="middle" x="235" y="-127.6" font-family="Times,serif" font-size="14.00">EndorsementModule</text>
</g>
<!-- ApiServicesModule&#45;&gt;EndorsementModule -->
<g id="edge1" class="edge">
<title>ApiServicesModule&#45;&gt;EndorsementModule</title>
<path fill="none" stroke="black" d="M267.86,-84.91C267.86,-84.91 267.86,-103.79 267.86,-103.79"/>
<polygon fill="black" stroke="black" points="264.36,-103.79 267.86,-113.79 271.36,-103.79 264.36,-103.79"/>
</g>
<!-- AuthModule -->
<g id="node2" class="node">
<title>AuthModule</title>
<polygon fill="#8dd3c7" stroke="black" points="215.55,-84.8 212.55,-88.8 191.55,-88.8 188.55,-84.8 128.45,-84.8 128.45,-48.8 215.55,-48.8 215.55,-84.8"/>
<text text-anchor="middle" x="172" y="-62.6" font-family="Times,serif" font-size="14.00">AuthModule</text>
</g>
<!-- AuthModule&#45;&gt;EndorsementModule -->
<g id="edge2" class="edge">
<title>AuthModule&#45;&gt;EndorsementModule</title>
<path fill="none" stroke="black" d="M192.03,-84.91C192.03,-84.91 192.03,-103.79 192.03,-103.79"/>
<polygon fill="black" stroke="black" points="188.53,-103.79 192.03,-113.79 195.53,-103.79 188.53,-103.79"/>
</g>
<!-- UserModule -->
<g id="node3" class="node">
<title>UserModule</title>
<polygon fill="#8dd3c7" stroke="black" points="109.99,-84.8 106.99,-88.8 85.99,-88.8 82.99,-84.8 24.01,-84.8 24.01,-48.8 109.99,-48.8 109.99,-84.8"/>
<text text-anchor="middle" x="67" y="-62.6" font-family="Times,serif" font-size="14.00">UserModule</text>
</g>
<!-- UserModule&#45;&gt;EndorsementModule -->
<g id="edge3" class="edge">
<title>UserModule&#45;&gt;EndorsementModule</title>
<path fill="none" stroke="black" d="M67,-84.91C67,-104.14 67,-131.8 67,-131.8 67,-131.8 158.12,-131.8 158.12,-131.8"/>
<polygon fill="black" stroke="black" points="158.12,-135.3 168.12,-131.8 158.12,-128.3 158.12,-135.3"/>
</g>
<!-- EndorsementService  -->
<g id="node5" class="node">
<title>EndorsementService </title>
<polygon fill="#fb8072" stroke="black" points="302.85,-214.8 167.15,-214.8 167.15,-178.8 302.85,-178.8 302.85,-214.8"/>
<text text-anchor="middle" x="235" y="-192.6" font-family="Times,serif" font-size="14.00">EndorsementService </text>
</g>
<!-- EndorsementModule&#45;&gt;EndorsementService  -->
<g id="edge4" class="edge">
<title>EndorsementModule&#45;&gt;EndorsementService </title>
<path fill="none" stroke="black" stroke-dasharray="5,2" d="M235,-149.91C235,-149.91 235,-168.79 235,-168.79"/>
<polygon fill="black" stroke="black" points="231.5,-168.79 235,-178.79 238.5,-168.79 231.5,-168.79"/>
</g>
<!-- EndorsementService -->
<g id="node6" class="node">
<title>EndorsementService</title>
<ellipse fill="#fdb462" stroke="black" cx="477" cy="-66.8" rx="90.89" ry="18"/>
<text text-anchor="middle" x="477" y="-62.6" font-family="Times,serif" font-size="14.00">EndorsementService</text>
</g>
<!-- EndorsementService&#45;&gt;EndorsementModule -->
<g id="edge5" class="edge">
<title>EndorsementService&#45;&gt;EndorsementModule</title>
<path fill="none" stroke="black" d="M477,-84.91C477,-104.14 477,-131.8 477,-131.8 477,-131.8 311.77,-131.8 311.77,-131.8"/>
<polygon fill="black" stroke="black" points="311.77,-128.3 301.77,-131.8 311.77,-135.3 311.77,-128.3"/>
</g>
</g>
</svg>
