<?xml version="1.0" encoding="UTF-8" standalone="no"?>
<!DOCTYPE svg PUBLIC "-//W3C//DTD SVG 1.1//EN"
 "http://www.w3.org/Graphics/SVG/1.1/DTD/svg11.dtd">
<!-- Generated by graphviz version 3.0.0 (20220226.1711)
 -->
<!-- Title: dependencies Pages: 1 -->
<svg width="454pt" height="247pt"
 viewBox="0.00 0.00 454.00 246.80" xmlns="http://www.w3.org/2000/svg" xmlns:xlink="http://www.w3.org/1999/xlink">
<g id="graph0" class="graph" transform="scale(1 1) rotate(0) translate(4 242.8)">
<title>dependencies</title>
<polygon fill="white" stroke="transparent" points="-4,4 -4,-242.8 450,-242.8 450,4 -4,4"/>
<text text-anchor="middle" x="223" y="-8.2" font-family="sans-serif" font-size="14.00">dependencies</text>
<g id="clust1" class="cluster">
<title>cluster_EndorsementModule</title>
<polygon fill="none" stroke="black" stroke-dasharray="1,5" points="8,-32.8 8,-230.8 438,-230.8 438,-32.8 8,-32.8"/>
</g>
<g id="clust6" class="cluster">
<title>cluster_EndorsementModule_providers</title>
<polygon fill="none" stroke="black" points="232,-40.8 232,-92.8 430,-92.8 430,-40.8 232,-40.8"/>
</g>
<g id="clust4" class="cluster">
<title>cluster_EndorsementModule_exports</title>
<polygon fill="none" stroke="black" points="96,-170.8 96,-222.8 248,-222.8 248,-170.8 96,-170.8"/>
</g>
<g id="clust3" class="cluster">
<title>cluster_EndorsementModule_imports</title>
<polygon fill="none" stroke="black" points="16,-40.8 16,-92.8 224,-92.8 224,-40.8 16,-40.8"/>
</g>
<!-- AuthModule -->
<g id="node1" class="node">
<title>AuthModule</title>
<polygon fill="#8dd3c7" stroke="black" points="215.55,-84.8 212.55,-88.8 191.55,-88.8 188.55,-84.8 128.45,-84.8 128.45,-48.8 215.55,-48.8 215.55,-84.8"/>
<text text-anchor="middle" x="172" y="-62.6" font-family="Times,serif" font-size="14.00">AuthModule</text>
</g>
<!-- EndorsementModule -->
<g id="node3" class="node">
<title>EndorsementModule</title>
<polygon fill="#8dd3c7" stroke="black" points="238.92,-149.8 235.92,-153.8 214.92,-153.8 211.92,-149.8 105.08,-149.8 105.08,-113.8 238.92,-113.8 238.92,-149.8"/>
<text text-anchor="middle" x="172" y="-127.6" font-family="Times,serif" font-size="14.00">EndorsementModule</text>
</g>
<!-- AuthModule&#45;&gt;EndorsementModule -->
<g id="edge1" class="edge">
<title>AuthModule&#45;&gt;EndorsementModule</title>
<path fill="none" stroke="black" d="M172,-84.91C172,-84.91 172,-103.79 172,-103.79"/>
<polygon fill="black" stroke="black" points="168.5,-103.79 172,-113.79 175.5,-103.79 168.5,-103.79"/>
</g>
<!-- UserModule -->
<g id="node2" class="node">
<title>UserModule</title>
<polygon fill="#8dd3c7" stroke="black" points="109.99,-84.8 106.99,-88.8 85.99,-88.8 82.99,-84.8 24.01,-84.8 24.01,-48.8 109.99,-48.8 109.99,-84.8"/>
<text text-anchor="middle" x="67" y="-62.6" font-family="Times,serif" font-size="14.00">UserModule</text>
</g>
<!-- UserModule&#45;&gt;EndorsementModule -->
<g id="edge2" class="edge">
<title>UserModule&#45;&gt;EndorsementModule</title>
<path fill="none" stroke="black" d="M110.03,-66.8C115.43,-66.8 119.11,-66.8 119.11,-66.8 119.11,-66.8 119.11,-103.69 119.11,-103.69"/>
<polygon fill="black" stroke="black" points="115.61,-103.69 119.11,-113.69 122.61,-103.69 115.61,-103.69"/>
</g>
<!-- EndorsementService  -->
<g id="node4" class="node">
<title>EndorsementService </title>
<polygon fill="#fb8072" stroke="black" points="239.85,-214.8 104.15,-214.8 104.15,-178.8 239.85,-178.8 239.85,-214.8"/>
<text text-anchor="middle" x="172" y="-192.6" font-family="Times,serif" font-size="14.00">EndorsementService </text>
</g>
<!-- EndorsementModule&#45;&gt;EndorsementService  -->
<g id="edge3" class="edge">
<title>EndorsementModule&#45;&gt;EndorsementService </title>
<path fill="none" stroke="black" stroke-dasharray="5,2" d="M172,-149.91C172,-149.91 172,-168.79 172,-168.79"/>
<polygon fill="black" stroke="black" points="168.5,-168.79 172,-178.79 175.5,-168.79 168.5,-168.79"/>
</g>
<!-- EndorsementService -->
<g id="node5" class="node">
<title>EndorsementService</title>
<ellipse fill="#fdb462" stroke="black" cx="331" cy="-66.8" rx="90.89" ry="18"/>
<text text-anchor="middle" x="331" y="-62.6" font-family="Times,serif" font-size="14.00">EndorsementService</text>
</g>
<!-- EndorsementService&#45;&gt;EndorsementModule -->
<g id="edge4" class="edge">
<title>EndorsementService&#45;&gt;EndorsementModule</title>
<path fill="none" stroke="black" d="M239.97,-66.8C232.21,-66.8 227.24,-66.8 227.24,-66.8 227.24,-66.8 227.24,-103.69 227.24,-103.69"/>
<polygon fill="black" stroke="black" points="223.74,-103.69 227.24,-113.69 230.74,-103.69 223.74,-103.69"/>
</g>
</g>
</svg>
