<?xml version="1.0" encoding="UTF-8" standalone="no"?>
<!DOCTYPE svg PUBLIC "-//W3C//DTD SVG 1.1//EN"
 "http://www.w3.org/Graphics/SVG/1.1/DTD/svg11.dtd">
<!-- Generated by graphviz version 3.0.0 (20220226.1711)
 -->
<!-- Title: dependencies Pages: 1 -->
<svg width="454pt" height="247pt"
 viewBox="0.00 0.00 454.00 246.80" xmlns="http://www.w3.org/2000/svg" xmlns:xlink="http://www.w3.org/1999/xlink">
<g id="graph0" class="graph" transform="scale(1 1) rotate(0) translate(4 242.8)">
<title>dependencies</title>
<polygon fill="white" stroke="transparent" points="-4,4 -4,-242.8 450,-242.8 450,4 -4,4"/>
<text text-anchor="middle" x="223" y="-8.2" font-family="sans-serif" font-size="14.00">dependencies</text>
<g id="clust1" class="cluster">
<title>cluster_EndorsementModule</title>
<polygon fill="none" stroke="black" stroke-dasharray="1,5" points="8,-32.8 8,-230.8 438,-230.8 438,-32.8 8,-32.8"/>
</g>
<g id="clust3" class="cluster">
<title>cluster_EndorsementModule_imports</title>
<polygon fill="none" stroke="black" points="222,-40.8 222,-92.8 430,-92.8 430,-40.8 222,-40.8"/>
</g>
<g id="clust6" class="cluster">
<title>cluster_EndorsementModule_providers</title>
<polygon fill="none" stroke="black" points="16,-40.8 16,-92.8 214,-92.8 214,-40.8 16,-40.8"/>
</g>
<g id="clust4" class="cluster">
<title>cluster_EndorsementModule_exports</title>
<polygon fill="none" stroke="black" points="197,-170.8 197,-222.8 349,-222.8 349,-170.8 197,-170.8"/>
</g>
<!-- AuthModule -->
<g id="node1" class="node">
<title>AuthModule</title>
<polygon fill="#8dd3c7" stroke="black" points="421.55,-84.8 418.55,-88.8 397.55,-88.8 394.55,-84.8 334.45,-84.8 334.45,-48.8 421.55,-48.8 421.55,-84.8"/>
<text text-anchor="middle" x="378" y="-62.6" font-family="Times,serif" font-size="14.00">AuthModule</text>
</g>
<!-- EndorsementModule -->
<g id="node3" class="node">
<title>EndorsementModule</title>
<polygon fill="#8dd3c7" stroke="black" points="339.92,-149.8 336.92,-153.8 315.92,-153.8 312.92,-149.8 206.08,-149.8 206.08,-113.8 339.92,-113.8 339.92,-149.8"/>
<text text-anchor="middle" x="273" y="-127.6" font-family="Times,serif" font-size="14.00">EndorsementModule</text>
</g>
<!-- AuthModule&#45;&gt;EndorsementModule -->
<g id="edge1" class="edge">
<title>AuthModule&#45;&gt;EndorsementModule</title>
<path fill="none" stroke="black" d="M334.32,-66.8C328.84,-66.8 325.11,-66.8 325.11,-66.8 325.11,-66.8 325.11,-103.69 325.11,-103.69"/>
<polygon fill="black" stroke="black" points="321.61,-103.69 325.11,-113.69 328.61,-103.69 321.61,-103.69"/>
</g>
<!-- UserModule -->
<g id="node2" class="node">
<title>UserModule</title>
<polygon fill="#8dd3c7" stroke="black" points="315.99,-84.8 312.99,-88.8 291.99,-88.8 288.99,-84.8 230.01,-84.8 230.01,-48.8 315.99,-48.8 315.99,-84.8"/>
<text text-anchor="middle" x="273" y="-62.6" font-family="Times,serif" font-size="14.00">UserModule</text>
</g>
<!-- UserModule&#45;&gt;EndorsementModule -->
<g id="edge2" class="edge">
<title>UserModule&#45;&gt;EndorsementModule</title>
<path fill="none" stroke="black" d="M273,-84.91C273,-84.91 273,-103.79 273,-103.79"/>
<polygon fill="black" stroke="black" points="269.5,-103.79 273,-113.79 276.5,-103.79 269.5,-103.79"/>
</g>
<!-- EndorsementService  -->
<g id="node4" class="node">
<title>EndorsementService </title>
<polygon fill="#fb8072" stroke="black" points="340.85,-214.8 205.15,-214.8 205.15,-178.8 340.85,-178.8 340.85,-214.8"/>
<text text-anchor="middle" x="273" y="-192.6" font-family="Times,serif" font-size="14.00">EndorsementService </text>
</g>
<!-- EndorsementModule&#45;&gt;EndorsementService  -->
<g id="edge3" class="edge">
<title>EndorsementModule&#45;&gt;EndorsementService </title>
<path fill="none" stroke="black" stroke-dasharray="5,2" d="M273,-149.91C273,-149.91 273,-168.79 273,-168.79"/>
<polygon fill="black" stroke="black" points="269.5,-168.79 273,-178.79 276.5,-168.79 269.5,-168.79"/>
</g>
<!-- EndorsementService -->
<g id="node5" class="node">
<title>EndorsementService</title>
<ellipse fill="#fdb462" stroke="black" cx="115" cy="-66.8" rx="90.89" ry="18"/>
<text text-anchor="middle" x="115" y="-62.6" font-family="Times,serif" font-size="14.00">EndorsementService</text>
</g>
<!-- EndorsementService&#45;&gt;EndorsementModule -->
<g id="edge4" class="edge">
<title>EndorsementService&#45;&gt;EndorsementModule</title>
<path fill="none" stroke="black" d="M206.32,-66.8C213.56,-66.8 218.15,-66.8 218.15,-66.8 218.15,-66.8 218.15,-103.69 218.15,-103.69"/>
<polygon fill="black" stroke="black" points="214.65,-103.69 218.15,-113.69 221.65,-103.69 214.65,-103.69"/>
</g>
</g>
</svg>
