<?xml version="1.0" encoding="UTF-8" standalone="no"?>
<!DOCTYPE svg PUBLIC "-//W3C//DTD SVG 1.1//EN"
 "http://www.w3.org/Graphics/SVG/1.1/DTD/svg11.dtd">
<!-- Generated by graphviz version 3.0.0 (20220226.1711)
 -->
<!-- Title: dependencies Pages: 1 -->
<svg width="330pt" height="247pt"
 viewBox="0.00 0.00 330.00 246.80" xmlns="http://www.w3.org/2000/svg" xmlns:xlink="http://www.w3.org/1999/xlink">
<g id="graph0" class="graph" transform="scale(1 1) rotate(0) translate(4 242.8)">
<title>dependencies</title>
<polygon fill="white" stroke="transparent" points="-4,4 -4,-242.8 326,-242.8 326,4 -4,4"/>
<text text-anchor="middle" x="161" y="-8.2" font-family="sans-serif" font-size="14.00">dependencies</text>
<g id="clust1" class="cluster">
<title>cluster_SubmitModule</title>
<polygon fill="none" stroke="black" stroke-dasharray="1,5" points="8,-32.8 8,-230.8 314,-230.8 314,-32.8 8,-32.8"/>
</g>
<g id="clust6" class="cluster">
<title>cluster_SubmitModule_providers</title>
<polygon fill="none" stroke="black" points="16,-40.8 16,-92.8 306,-92.8 306,-40.8 16,-40.8"/>
</g>
<g id="clust4" class="cluster">
<title>cluster_SubmitModule_exports</title>
<polygon fill="none" stroke="black" points="106,-170.8 106,-222.8 224,-222.8 224,-170.8 106,-170.8"/>
</g>
<!-- SubmitService  -->
<g id="node1" class="node">
<title>SubmitService </title>
<polygon fill="#fb8072" stroke="black" points="215.93,-214.8 114.07,-214.8 114.07,-178.8 215.93,-178.8 215.93,-214.8"/>
<text text-anchor="middle" x="165" y="-192.6" font-family="Times,serif" font-size="14.00">SubmitService </text>
</g>
<!-- SubmitModule -->
<g id="node2" class="node">
<title>SubmitModule</title>
<polygon fill="#8dd3c7" stroke="black" points="215.01,-149.8 212.01,-153.8 191.01,-153.8 188.01,-149.8 114.99,-149.8 114.99,-113.8 215.01,-113.8 215.01,-149.8"/>
<text text-anchor="middle" x="165" y="-127.6" font-family="Times,serif" font-size="14.00">SubmitModule</text>
</g>
<!-- SubmitModule&#45;&gt;SubmitService  -->
<g id="edge1" class="edge">
<title>SubmitModule&#45;&gt;SubmitService </title>
<path fill="none" stroke="black" stroke-dasharray="5,2" d="M165,-149.91C165,-149.91 165,-168.79 165,-168.79"/>
<polygon fill="black" stroke="black" points="161.5,-168.79 165,-178.79 168.5,-168.79 161.5,-168.79"/>
</g>
<!-- RepoService -->
<g id="node3" class="node">
<title>RepoService</title>
<ellipse fill="#fdb462" stroke="black" cx="238" cy="-66.8" rx="60.26" ry="18"/>
<text text-anchor="middle" x="238" y="-62.6" font-family="Times,serif" font-size="14.00">RepoService</text>
</g>
<!-- RepoService&#45;&gt;SubmitModule -->
<g id="edge2" class="edge">
<title>RepoService&#45;&gt;SubmitModule</title>
<path fill="none" stroke="black" d="M196.31,-79.95C196.31,-79.95 196.31,-103.49 196.31,-103.49"/>
<polygon fill="black" stroke="black" points="192.81,-103.49 196.31,-113.49 199.81,-103.49 192.81,-103.49"/>
</g>
<!-- SubmitService -->
<g id="node4" class="node">
<title>SubmitService</title>
<ellipse fill="#fdb462" stroke="black" cx="92" cy="-66.8" rx="67.8" ry="18"/>
<text text-anchor="middle" x="92" y="-62.6" font-family="Times,serif" font-size="14.00">SubmitService</text>
</g>
<!-- SubmitService&#45;&gt;SubmitModule -->
<g id="edge3" class="edge">
<title>SubmitService&#45;&gt;SubmitModule</title>
<path fill="none" stroke="black" d="M137.45,-80.27C137.45,-80.27 137.45,-103.66 137.45,-103.66"/>
<polygon fill="black" stroke="black" points="133.95,-103.66 137.45,-113.66 140.95,-103.66 133.95,-103.66"/>
</g>
</g>
</svg>
