<?xml version="1.0" encoding="UTF-8" standalone="no"?>
<!DOCTYPE svg PUBLIC "-//W3C//DTD SVG 1.1//EN"
 "http://www.w3.org/Graphics/SVG/1.1/DTD/svg11.dtd">
<!-- Generated by graphviz version 3.0.0 (20220226.1711)
 -->
<!-- Title: dependencies Pages: 1 -->
<svg width="306pt" height="247pt"
 viewBox="0.00 0.00 306.00 246.80" xmlns="http://www.w3.org/2000/svg" xmlns:xlink="http://www.w3.org/1999/xlink">
<g id="graph0" class="graph" transform="scale(1 1) rotate(0) translate(4 242.8)">
<title>dependencies</title>
<polygon fill="white" stroke="transparent" points="-4,4 -4,-242.8 302,-242.8 302,4 -4,4"/>
<text text-anchor="middle" x="149" y="-8.2" font-family="sans-serif" font-size="14.00">dependencies</text>
<g id="clust1" class="cluster">
<title>cluster_SubmitModule</title>
<polygon fill="none" stroke="black" stroke-dasharray="1,5" points="8,-32.8 8,-230.8 290,-230.8 290,-32.8 8,-32.8"/>
</g>
<g id="clust6" class="cluster">
<title>cluster_SubmitModule_providers</title>
<polygon fill="none" stroke="black" points="130,-40.8 130,-92.8 282,-92.8 282,-40.8 130,-40.8"/>
</g>
<g id="clust4" class="cluster">
<title>cluster_SubmitModule_exports</title>
<polygon fill="none" stroke="black" points="81,-170.8 81,-222.8 199,-222.8 199,-170.8 81,-170.8"/>
</g>
<g id="clust3" class="cluster">
<title>cluster_SubmitModule_imports</title>
<polygon fill="none" stroke="black" points="16,-40.8 16,-92.8 122,-92.8 122,-40.8 16,-40.8"/>
</g>
<!-- RepoModule -->
<g id="node1" class="node">
<title>RepoModule</title>
<polygon fill="#8dd3c7" stroke="black" points="113.6,-84.8 110.6,-88.8 89.6,-88.8 86.6,-84.8 24.4,-84.8 24.4,-48.8 113.6,-48.8 113.6,-84.8"/>
<text text-anchor="middle" x="69" y="-62.6" font-family="Times,serif" font-size="14.00">RepoModule</text>
</g>
<!-- SubmitModule -->
<g id="node2" class="node">
<title>SubmitModule</title>
<polygon fill="#8dd3c7" stroke="black" points="190.01,-149.8 187.01,-153.8 166.01,-153.8 163.01,-149.8 89.99,-149.8 89.99,-113.8 190.01,-113.8 190.01,-149.8"/>
<text text-anchor="middle" x="140" y="-127.6" font-family="Times,serif" font-size="14.00">SubmitModule</text>
</g>
<!-- RepoModule&#45;&gt;SubmitModule -->
<g id="edge1" class="edge">
<title>RepoModule&#45;&gt;SubmitModule</title>
<path fill="none" stroke="black" d="M101.77,-84.91C101.77,-84.91 101.77,-103.79 101.77,-103.79"/>
<polygon fill="black" stroke="black" points="98.27,-103.79 101.77,-113.79 105.27,-103.79 98.27,-103.79"/>
</g>
<!-- SubmitService  -->
<g id="node3" class="node">
<title>SubmitService </title>
<polygon fill="#fb8072" stroke="black" points="190.93,-214.8 89.07,-214.8 89.07,-178.8 190.93,-178.8 190.93,-214.8"/>
<text text-anchor="middle" x="140" y="-192.6" font-family="Times,serif" font-size="14.00">SubmitService </text>
</g>
<!-- SubmitModule&#45;&gt;SubmitService  -->
<g id="edge2" class="edge">
<title>SubmitModule&#45;&gt;SubmitService </title>
<path fill="none" stroke="black" stroke-dasharray="5,2" d="M140,-149.91C140,-149.91 140,-168.79 140,-168.79"/>
<polygon fill="black" stroke="black" points="136.5,-168.79 140,-178.79 143.5,-168.79 136.5,-168.79"/>
</g>
<!-- SubmitService -->
<g id="node4" class="node">
<title>SubmitService</title>
<ellipse fill="#fdb462" stroke="black" cx="206" cy="-66.8" rx="67.8" ry="18"/>
<text text-anchor="middle" x="206" y="-62.6" font-family="Times,serif" font-size="14.00">SubmitService</text>
</g>
<!-- SubmitService&#45;&gt;SubmitModule -->
<g id="edge3" class="edge">
<title>SubmitService&#45;&gt;SubmitModule</title>
<path fill="none" stroke="black" d="M164.05,-81.23C164.05,-81.23 164.05,-103.69 164.05,-103.69"/>
<polygon fill="black" stroke="black" points="160.55,-103.69 164.05,-113.69 167.55,-103.69 160.55,-103.69"/>
</g>
</g>
</svg>
