<?xml version="1.0" encoding="UTF-8" standalone="no"?>
<!DOCTYPE svg PUBLIC "-//W3C//DTD SVG 1.1//EN"
 "http://www.w3.org/Graphics/SVG/1.1/DTD/svg11.dtd">
<!-- Generated by graphviz version 3.0.0 (20220226.1711)
 -->
<!-- Title: dependencies Pages: 1 -->
<svg width="306pt" height="247pt"
 viewBox="0.00 0.00 306.00 246.80" xmlns="http://www.w3.org/2000/svg" xmlns:xlink="http://www.w3.org/1999/xlink">
<g id="graph0" class="graph" transform="scale(1 1) rotate(0) translate(4 242.8)">
<title>dependencies</title>
<polygon fill="white" stroke="transparent" points="-4,4 -4,-242.8 302,-242.8 302,4 -4,4"/>
<text text-anchor="middle" x="149" y="-8.2" font-family="sans-serif" font-size="14.00">dependencies</text>
<g id="clust1" class="cluster">
<title>cluster_SubmitModule</title>
<polygon fill="none" stroke="black" stroke-dasharray="1,5" points="8,-32.8 8,-230.8 290,-230.8 290,-32.8 8,-32.8"/>
</g>
<g id="clust3" class="cluster">
<title>cluster_SubmitModule_imports</title>
<polygon fill="none" stroke="black" points="176,-40.8 176,-92.8 282,-92.8 282,-40.8 176,-40.8"/>
</g>
<g id="clust6" class="cluster">
<title>cluster_SubmitModule_providers</title>
<polygon fill="none" stroke="black" points="16,-40.8 16,-92.8 168,-92.8 168,-40.8 16,-40.8"/>
</g>
<g id="clust4" class="cluster">
<title>cluster_SubmitModule_exports</title>
<polygon fill="none" stroke="black" points="98,-170.8 98,-222.8 216,-222.8 216,-170.8 98,-170.8"/>
</g>
<!-- RepoModule -->
<g id="node1" class="node">
<title>RepoModule</title>
<polygon fill="#8dd3c7" stroke="black" points="273.6,-84.8 270.6,-88.8 249.6,-88.8 246.6,-84.8 184.4,-84.8 184.4,-48.8 273.6,-48.8 273.6,-84.8"/>
<text text-anchor="middle" x="229" y="-62.6" font-family="Times,serif" font-size="14.00">RepoModule</text>
</g>
<!-- SubmitModule -->
<g id="node2" class="node">
<title>SubmitModule</title>
<polygon fill="#8dd3c7" stroke="black" points="207.01,-149.8 204.01,-153.8 183.01,-153.8 180.01,-149.8 106.99,-149.8 106.99,-113.8 207.01,-113.8 207.01,-149.8"/>
<text text-anchor="middle" x="157" y="-127.6" font-family="Times,serif" font-size="14.00">SubmitModule</text>
</g>
<!-- RepoModule&#45;&gt;SubmitModule -->
<g id="edge1" class="edge">
<title>RepoModule&#45;&gt;SubmitModule</title>
<path fill="none" stroke="black" d="M195.73,-84.91C195.73,-84.91 195.73,-103.79 195.73,-103.79"/>
<polygon fill="black" stroke="black" points="192.23,-103.79 195.73,-113.79 199.23,-103.79 192.23,-103.79"/>
</g>
<!-- SubmitService  -->
<g id="node3" class="node">
<title>SubmitService </title>
<polygon fill="#fb8072" stroke="black" points="207.93,-214.8 106.07,-214.8 106.07,-178.8 207.93,-178.8 207.93,-214.8"/>
<text text-anchor="middle" x="157" y="-192.6" font-family="Times,serif" font-size="14.00">SubmitService </text>
</g>
<!-- SubmitModule&#45;&gt;SubmitService  -->
<g id="edge2" class="edge">
<title>SubmitModule&#45;&gt;SubmitService </title>
<path fill="none" stroke="black" stroke-dasharray="5,2" d="M157,-149.91C157,-149.91 157,-168.79 157,-168.79"/>
<polygon fill="black" stroke="black" points="153.5,-168.79 157,-178.79 160.5,-168.79 153.5,-168.79"/>
</g>
<!-- SubmitService -->
<g id="node4" class="node">
<title>SubmitService</title>
<ellipse fill="#fdb462" stroke="black" cx="92" cy="-66.8" rx="67.8" ry="18"/>
<text text-anchor="middle" x="92" y="-62.6" font-family="Times,serif" font-size="14.00">SubmitService</text>
</g>
<!-- SubmitService&#45;&gt;SubmitModule -->
<g id="edge3" class="edge">
<title>SubmitService&#45;&gt;SubmitModule</title>
<path fill="none" stroke="black" d="M133.45,-81.23C133.45,-81.23 133.45,-103.69 133.45,-103.69"/>
<polygon fill="black" stroke="black" points="129.95,-103.69 133.45,-113.69 136.95,-103.69 129.95,-103.69"/>
</g>
</g>
</svg>
