<?xml version="1.0" encoding="UTF-8" standalone="no"?>
<!DOCTYPE svg PUBLIC "-//W3C//DTD SVG 1.1//EN"
 "http://www.w3.org/Graphics/SVG/1.1/DTD/svg11.dtd">
<!-- Generated by graphviz version 3.0.0 (20220226.1711)
 -->
<!-- Title: dependencies Pages: 1 -->
<svg width="288pt" height="247pt"
 viewBox="0.00 0.00 288.00 246.80" xmlns="http://www.w3.org/2000/svg" xmlns:xlink="http://www.w3.org/1999/xlink">
<g id="graph0" class="graph" transform="scale(1 1) rotate(0) translate(4 242.8)">
<title>dependencies</title>
<polygon fill="white" stroke="transparent" points="-4,4 -4,-242.8 284,-242.8 284,4 -4,4"/>
<text text-anchor="middle" x="140" y="-8.2" font-family="sans-serif" font-size="14.00">dependencies</text>
<g id="clust1" class="cluster">
<title>cluster_VoteModule</title>
<polygon fill="none" stroke="black" stroke-dasharray="1,5" points="8,-32.8 8,-230.8 272,-230.8 272,-32.8 8,-32.8"/>
</g>
<g id="clust3" class="cluster">
<title>cluster_VoteModule_imports</title>
<polygon fill="none" stroke="black" points="158,-40.8 158,-92.8 264,-92.8 264,-40.8 158,-40.8"/>
</g>
<g id="clust4" class="cluster">
<title>cluster_VoteModule_exports</title>
<polygon fill="none" stroke="black" points="95,-170.8 95,-222.8 199,-222.8 199,-170.8 95,-170.8"/>
</g>
<g id="clust6" class="cluster">
<title>cluster_VoteModule_providers</title>
<polygon fill="none" stroke="black" points="16,-40.8 16,-92.8 150,-92.8 150,-40.8 16,-40.8"/>
</g>
<!-- RepoModule -->
<g id="node1" class="node">
<title>RepoModule</title>
<polygon fill="#8dd3c7" stroke="black" points="255.6,-84.8 252.6,-88.8 231.6,-88.8 228.6,-84.8 166.4,-84.8 166.4,-48.8 255.6,-48.8 255.6,-84.8"/>
<text text-anchor="middle" x="211" y="-62.6" font-family="Times,serif" font-size="14.00">RepoModule</text>
</g>
<!-- VoteModule -->
<g id="node2" class="node">
<title>VoteModule</title>
<polygon fill="#8dd3c7" stroke="black" points="190.27,-149.8 187.27,-153.8 166.27,-153.8 163.27,-149.8 103.73,-149.8 103.73,-113.8 190.27,-113.8 190.27,-149.8"/>
<text text-anchor="middle" x="147" y="-127.6" font-family="Times,serif" font-size="14.00">VoteModule</text>
</g>
<!-- RepoModule&#45;&gt;VoteModule -->
<g id="edge1" class="edge">
<title>RepoModule&#45;&gt;VoteModule</title>
<path fill="none" stroke="black" d="M178.42,-84.91C178.42,-84.91 178.42,-103.79 178.42,-103.79"/>
<polygon fill="black" stroke="black" points="174.92,-103.79 178.42,-113.79 181.92,-103.79 174.92,-103.79"/>
</g>
<!-- VoteService  -->
<g id="node3" class="node">
<title>VoteService </title>
<polygon fill="#fb8072" stroke="black" points="191.19,-214.8 102.81,-214.8 102.81,-178.8 191.19,-178.8 191.19,-214.8"/>
<text text-anchor="middle" x="147" y="-192.6" font-family="Times,serif" font-size="14.00">VoteService </text>
</g>
<!-- VoteModule&#45;&gt;VoteService  -->
<g id="edge2" class="edge">
<title>VoteModule&#45;&gt;VoteService </title>
<path fill="none" stroke="black" stroke-dasharray="5,2" d="M147,-149.91C147,-149.91 147,-168.79 147,-168.79"/>
<polygon fill="black" stroke="black" points="143.5,-168.79 147,-178.79 150.5,-168.79 143.5,-168.79"/>
</g>
<!-- VoteService -->
<g id="node4" class="node">
<title>VoteService</title>
<ellipse fill="#fdb462" stroke="black" cx="83" cy="-66.8" rx="58.53" ry="18"/>
<text text-anchor="middle" x="83" y="-62.6" font-family="Times,serif" font-size="14.00">VoteService</text>
</g>
<!-- VoteService&#45;&gt;VoteModule -->
<g id="edge3" class="edge">
<title>VoteService&#45;&gt;VoteModule</title>
<path fill="none" stroke="black" d="M122.69,-80.27C122.69,-80.27 122.69,-103.66 122.69,-103.66"/>
<polygon fill="black" stroke="black" points="119.19,-103.66 122.69,-113.66 126.19,-103.66 119.19,-103.66"/>
</g>
</g>
</svg>
