<?xml version="1.0" encoding="UTF-8" standalone="no"?>
<!DOCTYPE svg PUBLIC "-//W3C//DTD SVG 1.1//EN"
 "http://www.w3.org/Graphics/SVG/1.1/DTD/svg11.dtd">
<!-- Generated by graphviz version 3.0.0 (20220226.1711)
 -->
<!-- Title: dependencies Pages: 1 -->
<svg width="312pt" height="247pt"
 viewBox="0.00 0.00 312.00 246.80" xmlns="http://www.w3.org/2000/svg" xmlns:xlink="http://www.w3.org/1999/xlink">
<g id="graph0" class="graph" transform="scale(1 1) rotate(0) translate(4 242.8)">
<title>dependencies</title>
<polygon fill="white" stroke="transparent" points="-4,4 -4,-242.8 308,-242.8 308,4 -4,4"/>
<text text-anchor="middle" x="152" y="-8.2" font-family="sans-serif" font-size="14.00">dependencies</text>
<g id="clust1" class="cluster">
<title>cluster_VoteModule</title>
<polygon fill="none" stroke="black" stroke-dasharray="1,5" points="8,-32.8 8,-230.8 296,-230.8 296,-32.8 8,-32.8"/>
</g>
<g id="clust4" class="cluster">
<title>cluster_VoteModule_exports</title>
<polygon fill="none" stroke="black" points="99,-170.8 99,-222.8 203,-222.8 203,-170.8 99,-170.8"/>
</g>
<g id="clust6" class="cluster">
<title>cluster_VoteModule_providers</title>
<polygon fill="none" stroke="black" points="16,-40.8 16,-92.8 288,-92.8 288,-40.8 16,-40.8"/>
</g>
<!-- VoteService  -->
<g id="node1" class="node">
<title>VoteService </title>
<polygon fill="#fb8072" stroke="black" points="195.19,-214.8 106.81,-214.8 106.81,-178.8 195.19,-178.8 195.19,-214.8"/>
<text text-anchor="middle" x="151" y="-192.6" font-family="Times,serif" font-size="14.00">VoteService </text>
</g>
<!-- VoteModule -->
<g id="node2" class="node">
<title>VoteModule</title>
<polygon fill="#8dd3c7" stroke="black" points="194.27,-149.8 191.27,-153.8 170.27,-153.8 167.27,-149.8 107.73,-149.8 107.73,-113.8 194.27,-113.8 194.27,-149.8"/>
<text text-anchor="middle" x="151" y="-127.6" font-family="Times,serif" font-size="14.00">VoteModule</text>
</g>
<!-- VoteModule&#45;&gt;VoteService  -->
<g id="edge1" class="edge">
<title>VoteModule&#45;&gt;VoteService </title>
<path fill="none" stroke="black" stroke-dasharray="5,2" d="M151,-149.91C151,-149.91 151,-168.79 151,-168.79"/>
<polygon fill="black" stroke="black" points="147.5,-168.79 151,-178.79 154.5,-168.79 147.5,-168.79"/>
</g>
<!-- RepoService -->
<g id="node3" class="node">
<title>RepoService</title>
<ellipse fill="#fdb462" stroke="black" cx="220" cy="-66.8" rx="60.26" ry="18"/>
<text text-anchor="middle" x="220" y="-62.6" font-family="Times,serif" font-size="14.00">RepoService</text>
</g>
<!-- RepoService&#45;&gt;VoteModule -->
<g id="edge2" class="edge">
<title>RepoService&#45;&gt;VoteModule</title>
<path fill="none" stroke="black" d="M177,-79.64C177,-79.64 177,-103.32 177,-103.32"/>
<polygon fill="black" stroke="black" points="173.5,-103.32 177,-113.32 180.5,-103.32 173.5,-103.32"/>
</g>
<!-- VoteService -->
<g id="node4" class="node">
<title>VoteService</title>
<ellipse fill="#fdb462" stroke="black" cx="83" cy="-66.8" rx="58.53" ry="18"/>
<text text-anchor="middle" x="83" y="-62.6" font-family="Times,serif" font-size="14.00">VoteService</text>
</g>
<!-- VoteService&#45;&gt;VoteModule -->
<g id="edge3" class="edge">
<title>VoteService&#45;&gt;VoteModule</title>
<path fill="none" stroke="black" d="M124.69,-79.64C124.69,-79.64 124.69,-103.32 124.69,-103.32"/>
<polygon fill="black" stroke="black" points="121.19,-103.32 124.69,-113.32 128.19,-103.32 121.19,-103.32"/>
</g>
</g>
</svg>
