<?xml version="1.0" encoding="UTF-8" standalone="no"?>
<!DOCTYPE svg PUBLIC "-//W3C//DTD SVG 1.1//EN"
 "http://www.w3.org/Graphics/SVG/1.1/DTD/svg11.dtd">
<!-- Generated by graphviz version 3.0.0 (20220226.1711)
 -->
<!-- Title: dependencies Pages: 1 -->
<svg width="288pt" height="247pt"
 viewBox="0.00 0.00 288.00 246.80" xmlns="http://www.w3.org/2000/svg" xmlns:xlink="http://www.w3.org/1999/xlink">
<g id="graph0" class="graph" transform="scale(1 1) rotate(0) translate(4 242.8)">
<title>dependencies</title>
<polygon fill="white" stroke="transparent" points="-4,4 -4,-242.8 284,-242.8 284,4 -4,4"/>
<text text-anchor="middle" x="140" y="-8.2" font-family="sans-serif" font-size="14.00">dependencies</text>
<g id="clust1" class="cluster">
<title>cluster_VoteModule</title>
<polygon fill="none" stroke="black" stroke-dasharray="1,5" points="8,-32.8 8,-230.8 272,-230.8 272,-32.8 8,-32.8"/>
</g>
<g id="clust6" class="cluster">
<title>cluster_VoteModule_providers</title>
<polygon fill="none" stroke="black" points="130,-40.8 130,-92.8 264,-92.8 264,-40.8 130,-40.8"/>
</g>
<g id="clust4" class="cluster">
<title>cluster_VoteModule_exports</title>
<polygon fill="none" stroke="black" points="81,-170.8 81,-222.8 185,-222.8 185,-170.8 81,-170.8"/>
</g>
<g id="clust3" class="cluster">
<title>cluster_VoteModule_imports</title>
<polygon fill="none" stroke="black" points="16,-40.8 16,-92.8 122,-92.8 122,-40.8 16,-40.8"/>
</g>
<!-- RepoModule -->
<g id="node1" class="node">
<title>RepoModule</title>
<polygon fill="#8dd3c7" stroke="black" points="113.6,-84.8 110.6,-88.8 89.6,-88.8 86.6,-84.8 24.4,-84.8 24.4,-48.8 113.6,-48.8 113.6,-84.8"/>
<text text-anchor="middle" x="69" y="-62.6" font-family="Times,serif" font-size="14.00">RepoModule</text>
</g>
<!-- VoteModule -->
<g id="node2" class="node">
<title>VoteModule</title>
<polygon fill="#8dd3c7" stroke="black" points="176.27,-149.8 173.27,-153.8 152.27,-153.8 149.27,-149.8 89.73,-149.8 89.73,-113.8 176.27,-113.8 176.27,-149.8"/>
<text text-anchor="middle" x="133" y="-127.6" font-family="Times,serif" font-size="14.00">VoteModule</text>
</g>
<!-- RepoModule&#45;&gt;VoteModule -->
<g id="edge1" class="edge">
<title>RepoModule&#45;&gt;VoteModule</title>
<path fill="none" stroke="black" d="M101.58,-84.91C101.58,-84.91 101.58,-103.79 101.58,-103.79"/>
<polygon fill="black" stroke="black" points="98.08,-103.79 101.58,-113.79 105.08,-103.79 98.08,-103.79"/>
</g>
<!-- VoteService  -->
<g id="node3" class="node">
<title>VoteService </title>
<polygon fill="#fb8072" stroke="black" points="177.19,-214.8 88.81,-214.8 88.81,-178.8 177.19,-178.8 177.19,-214.8"/>
<text text-anchor="middle" x="133" y="-192.6" font-family="Times,serif" font-size="14.00">VoteService </text>
</g>
<!-- VoteModule&#45;&gt;VoteService  -->
<g id="edge2" class="edge">
<title>VoteModule&#45;&gt;VoteService </title>
<path fill="none" stroke="black" stroke-dasharray="5,2" d="M133,-149.91C133,-149.91 133,-168.79 133,-168.79"/>
<polygon fill="black" stroke="black" points="129.5,-168.79 133,-178.79 136.5,-168.79 129.5,-168.79"/>
</g>
<!-- VoteService -->
<g id="node4" class="node">
<title>VoteService</title>
<ellipse fill="#fdb462" stroke="black" cx="197" cy="-66.8" rx="58.53" ry="18"/>
<text text-anchor="middle" x="197" y="-62.6" font-family="Times,serif" font-size="14.00">VoteService</text>
</g>
<!-- VoteService&#45;&gt;VoteModule -->
<g id="edge3" class="edge">
<title>VoteService&#45;&gt;VoteModule</title>
<path fill="none" stroke="black" d="M157.31,-80.27C157.31,-80.27 157.31,-103.66 157.31,-103.66"/>
<polygon fill="black" stroke="black" points="153.81,-103.66 157.31,-113.66 160.81,-103.66 153.81,-103.66"/>
</g>
</g>
</svg>
