<?xml version="1.0" encoding="UTF-8" standalone="no"?>
<!DOCTYPE svg PUBLIC "-//W3C//DTD SVG 1.1//EN"
 "http://www.w3.org/Graphics/SVG/1.1/DTD/svg11.dtd">
<!-- Generated by graphviz version 3.0.0 (20220226.1711)
 -->
<!-- Title: dependencies Pages: 1 -->
<svg width="706pt" height="247pt"
 viewBox="0.00 0.00 706.00 246.80" xmlns="http://www.w3.org/2000/svg" xmlns:xlink="http://www.w3.org/1999/xlink">
<g id="graph0" class="graph" transform="scale(1 1) rotate(0) translate(4 242.8)">
<title>dependencies</title>
<polygon fill="white" stroke="transparent" points="-4,4 -4,-242.8 702,-242.8 702,4 -4,4"/>
<text text-anchor="middle" x="349" y="-8.2" font-family="sans-serif" font-size="14.00">dependencies</text>
<g id="clust1" class="cluster">
<title>cluster_StripeWebHookModule</title>
<polygon fill="none" stroke="black" stroke-dasharray="1,5" points="8,-32.8 8,-230.8 690,-230.8 690,-32.8 8,-32.8"/>
</g>
<g id="clust4" class="cluster">
<title>cluster_StripeWebHookModule_exports</title>
<polygon fill="none" stroke="black" points="260,-170.8 260,-222.8 440,-222.8 440,-170.8 260,-170.8"/>
</g>
<g id="clust3" class="cluster">
<title>cluster_StripeWebHookModule_imports</title>
<polygon fill="none" stroke="black" points="16,-40.8 16,-92.8 682,-92.8 682,-40.8 16,-40.8"/>
</g>
<!-- CustomerModule -->
<g id="node1" class="node">
<title>CustomerModule</title>
<polygon fill="#8dd3c7" stroke="black" points="673.99,-84.8 670.99,-88.8 649.99,-88.8 646.99,-84.8 560.01,-84.8 560.01,-48.8 673.99,-48.8 673.99,-84.8"/>
<text text-anchor="middle" x="617" y="-62.6" font-family="Times,serif" font-size="14.00">CustomerModule</text>
</g>
<!-- StripeWebHookModule -->
<g id="node6" class="node">
<title>StripeWebHookModule</title>
<polygon fill="#8dd3c7" stroke="black" points="425.03,-149.8 422.03,-153.8 401.03,-153.8 398.03,-149.8 274.97,-149.8 274.97,-113.8 425.03,-113.8 425.03,-149.8"/>
<text text-anchor="middle" x="350" y="-127.6" font-family="Times,serif" font-size="14.00">StripeWebHookModule</text>
</g>
<!-- CustomerModule&#45;&gt;StripeWebHookModule -->
<g id="edge1" class="edge">
<title>CustomerModule&#45;&gt;StripeWebHookModule</title>
<path fill="none" stroke="black" d="M617,-85.08C617,-106.12 617,-137.8 617,-137.8 617,-137.8 435.08,-137.8 435.08,-137.8"/>
<polygon fill="black" stroke="black" points="435.08,-134.3 425.08,-137.8 435.08,-141.3 435.08,-134.3"/>
</g>
<!-- StripeModule -->
<g id="node2" class="node">
<title>StripeModule</title>
<polygon fill="#8dd3c7" stroke="black" points="542.49,-84.8 539.49,-88.8 518.49,-88.8 515.49,-84.8 449.51,-84.8 449.51,-48.8 542.49,-48.8 542.49,-84.8"/>
<text text-anchor="middle" x="496" y="-62.6" font-family="Times,serif" font-size="14.00">StripeModule</text>
</g>
<!-- StripeModule&#45;&gt;StripeWebHookModule -->
<g id="edge2" class="edge">
<title>StripeModule&#45;&gt;StripeWebHookModule</title>
<path fill="none" stroke="black" d="M496,-84.82C496,-102.17 496,-125.8 496,-125.8 496,-125.8 435.14,-125.8 435.14,-125.8"/>
<polygon fill="black" stroke="black" points="435.14,-122.3 425.14,-125.8 435.14,-129.3 435.14,-122.3"/>
</g>
<!-- StripeSubscriptionModule -->
<g id="node3" class="node">
<title>StripeSubscriptionModule</title>
<polygon fill="#8dd3c7" stroke="black" points="431.77,-84.8 428.77,-88.8 407.77,-88.8 404.77,-84.8 268.23,-84.8 268.23,-48.8 431.77,-48.8 431.77,-84.8"/>
<text text-anchor="middle" x="350" y="-62.6" font-family="Times,serif" font-size="14.00">StripeSubscriptionModule</text>
</g>
<!-- StripeSubscriptionModule&#45;&gt;StripeWebHookModule -->
<g id="edge3" class="edge">
<title>StripeSubscriptionModule&#45;&gt;StripeWebHookModule</title>
<path fill="none" stroke="black" d="M350,-84.91C350,-84.91 350,-103.79 350,-103.79"/>
<polygon fill="black" stroke="black" points="346.5,-103.79 350,-113.79 353.5,-103.79 346.5,-103.79"/>
</g>
<!-- UserModule -->
<g id="node4" class="node">
<title>UserModule</title>
<polygon fill="#8dd3c7" stroke="black" points="249.99,-84.8 246.99,-88.8 225.99,-88.8 222.99,-84.8 164.01,-84.8 164.01,-48.8 249.99,-48.8 249.99,-84.8"/>
<text text-anchor="middle" x="207" y="-62.6" font-family="Times,serif" font-size="14.00">UserModule</text>
</g>
<!-- UserModule&#45;&gt;StripeWebHookModule -->
<g id="edge4" class="edge">
<title>UserModule&#45;&gt;StripeWebHookModule</title>
<path fill="none" stroke="black" d="M207,-84.82C207,-102.17 207,-125.8 207,-125.8 207,-125.8 264.73,-125.8 264.73,-125.8"/>
<polygon fill="black" stroke="black" points="264.73,-129.3 274.73,-125.8 264.73,-122.3 264.73,-129.3"/>
</g>
<!-- WorkspaceModule -->
<g id="node5" class="node">
<title>WorkspaceModule</title>
<polygon fill="#8dd3c7" stroke="black" points="146.02,-84.8 143.02,-88.8 122.02,-88.8 119.02,-84.8 23.98,-84.8 23.98,-48.8 146.02,-48.8 146.02,-84.8"/>
<text text-anchor="middle" x="85" y="-62.6" font-family="Times,serif" font-size="14.00">WorkspaceModule</text>
</g>
<!-- WorkspaceModule&#45;&gt;StripeWebHookModule -->
<g id="edge5" class="edge">
<title>WorkspaceModule&#45;&gt;StripeWebHookModule</title>
<path fill="none" stroke="black" d="M85,-85.08C85,-106.12 85,-137.8 85,-137.8 85,-137.8 264.77,-137.8 264.77,-137.8"/>
<polygon fill="black" stroke="black" points="264.77,-141.3 274.77,-137.8 264.77,-134.3 264.77,-141.3"/>
</g>
<!-- StripeWebhookController  -->
<g id="node7" class="node">
<title>StripeWebhookController </title>
<polygon fill="#fb8072" stroke="black" points="432.41,-214.8 267.59,-214.8 267.59,-178.8 432.41,-178.8 432.41,-214.8"/>
<text text-anchor="middle" x="350" y="-192.6" font-family="Times,serif" font-size="14.00">StripeWebhookController </text>
</g>
<!-- StripeWebHookModule&#45;&gt;StripeWebhookController  -->
<g id="edge6" class="edge">
<title>StripeWebHookModule&#45;&gt;StripeWebhookController </title>
<path fill="none" stroke="black" stroke-dasharray="5,2" d="M350,-149.91C350,-149.91 350,-168.79 350,-168.79"/>
<polygon fill="black" stroke="black" points="346.5,-168.79 350,-178.79 353.5,-168.79 346.5,-168.79"/>
</g>
</g>
</svg>
