<?xml version="1.0" encoding="UTF-8" standalone="no"?>
<!DOCTYPE svg PUBLIC "-//W3C//DTD SVG 1.1//EN"
 "http://www.w3.org/Graphics/SVG/1.1/DTD/svg11.dtd">
<!-- Generated by graphviz version 3.0.0 (20220226.1711)
 -->
<!-- Title: dependencies Pages: 1 -->
<svg width="566pt" height="247pt"
 viewBox="0.00 0.00 566.00 246.80" xmlns="http://www.w3.org/2000/svg" xmlns:xlink="http://www.w3.org/1999/xlink">
<g id="graph0" class="graph" transform="scale(1 1) rotate(0) translate(4 242.8)">
<title>dependencies</title>
<polygon fill="white" stroke="transparent" points="-4,4 -4,-242.8 562,-242.8 562,4 -4,4"/>
<text text-anchor="middle" x="279" y="-8.2" font-family="sans-serif" font-size="14.00">dependencies</text>
<g id="clust1" class="cluster">
<title>cluster_StripeWebHookModule</title>
<polygon fill="none" stroke="black" stroke-dasharray="1,5" points="8,-32.8 8,-230.8 550,-230.8 550,-32.8 8,-32.8"/>
</g>
<g id="clust3" class="cluster">
<title>cluster_StripeWebHookModule_imports</title>
<polygon fill="none" stroke="black" points="16,-40.8 16,-92.8 542,-92.8 542,-40.8 16,-40.8"/>
</g>
<g id="clust4" class="cluster">
<title>cluster_StripeWebHookModule_exports</title>
<polygon fill="none" stroke="black" points="193,-170.8 193,-222.8 373,-222.8 373,-170.8 193,-170.8"/>
</g>
<!-- CustomerModule -->
<g id="node1" class="node">
<title>CustomerModule</title>
<polygon fill="#8dd3c7" stroke="black" points="533.99,-84.8 530.99,-88.8 509.99,-88.8 506.99,-84.8 420.01,-84.8 420.01,-48.8 533.99,-48.8 533.99,-84.8"/>
<text text-anchor="middle" x="477" y="-62.6" font-family="Times,serif" font-size="14.00">CustomerModule</text>
</g>
<!-- StripeWebHookModule -->
<g id="node5" class="node">
<title>StripeWebHookModule</title>
<polygon fill="#8dd3c7" stroke="black" points="358.03,-149.8 355.03,-153.8 334.03,-153.8 331.03,-149.8 207.97,-149.8 207.97,-113.8 358.03,-113.8 358.03,-149.8"/>
<text text-anchor="middle" x="283" y="-127.6" font-family="Times,serif" font-size="14.00">StripeWebHookModule</text>
</g>
<!-- CustomerModule&#45;&gt;StripeWebHookModule -->
<g id="edge1" class="edge">
<title>CustomerModule&#45;&gt;StripeWebHookModule</title>
<path fill="none" stroke="black" d="M477,-84.91C477,-104.14 477,-131.8 477,-131.8 477,-131.8 368.28,-131.8 368.28,-131.8"/>
<polygon fill="black" stroke="black" points="368.28,-128.3 358.28,-131.8 368.28,-135.3 368.28,-128.3"/>
</g>
<!-- StripeModule -->
<g id="node2" class="node">
<title>StripeModule</title>
<polygon fill="#8dd3c7" stroke="black" points="402.49,-84.8 399.49,-88.8 378.49,-88.8 375.49,-84.8 309.51,-84.8 309.51,-48.8 402.49,-48.8 402.49,-84.8"/>
<text text-anchor="middle" x="356" y="-62.6" font-family="Times,serif" font-size="14.00">StripeModule</text>
</g>
<!-- StripeModule&#45;&gt;StripeWebHookModule -->
<g id="edge2" class="edge">
<title>StripeModule&#45;&gt;StripeWebHookModule</title>
<path fill="none" stroke="black" d="M333.88,-84.91C333.88,-84.91 333.88,-103.79 333.88,-103.79"/>
<polygon fill="black" stroke="black" points="330.38,-103.79 333.88,-113.79 337.38,-103.79 330.38,-103.79"/>
</g>
<!-- StripeSubscriptionModule -->
<g id="node3" class="node">
<title>StripeSubscriptionModule</title>
<polygon fill="#8dd3c7" stroke="black" points="291.77,-84.8 288.77,-88.8 267.77,-88.8 264.77,-84.8 128.23,-84.8 128.23,-48.8 291.77,-48.8 291.77,-84.8"/>
<text text-anchor="middle" x="210" y="-62.6" font-family="Times,serif" font-size="14.00">StripeSubscriptionModule</text>
</g>
<!-- StripeSubscriptionModule&#45;&gt;StripeWebHookModule -->
<g id="edge3" class="edge">
<title>StripeSubscriptionModule&#45;&gt;StripeWebHookModule</title>
<path fill="none" stroke="black" d="M249.81,-84.91C249.81,-84.91 249.81,-103.79 249.81,-103.79"/>
<polygon fill="black" stroke="black" points="246.31,-103.79 249.81,-113.79 253.31,-103.79 246.31,-103.79"/>
</g>
<!-- UserModule -->
<g id="node4" class="node">
<title>UserModule</title>
<polygon fill="#8dd3c7" stroke="black" points="109.99,-84.8 106.99,-88.8 85.99,-88.8 82.99,-84.8 24.01,-84.8 24.01,-48.8 109.99,-48.8 109.99,-84.8"/>
<text text-anchor="middle" x="67" y="-62.6" font-family="Times,serif" font-size="14.00">UserModule</text>
</g>
<!-- UserModule&#45;&gt;StripeWebHookModule -->
<g id="edge4" class="edge">
<title>UserModule&#45;&gt;StripeWebHookModule</title>
<path fill="none" stroke="black" d="M67,-84.91C67,-104.14 67,-131.8 67,-131.8 67,-131.8 197.76,-131.8 197.76,-131.8"/>
<polygon fill="black" stroke="black" points="197.76,-135.3 207.76,-131.8 197.76,-128.3 197.76,-135.3"/>
</g>
<!-- StripeWebhookController  -->
<g id="node6" class="node">
<title>StripeWebhookController </title>
<polygon fill="#fb8072" stroke="black" points="365.41,-214.8 200.59,-214.8 200.59,-178.8 365.41,-178.8 365.41,-214.8"/>
<text text-anchor="middle" x="283" y="-192.6" font-family="Times,serif" font-size="14.00">StripeWebhookController </text>
</g>
<!-- StripeWebHookModule&#45;&gt;StripeWebhookController  -->
<g id="edge5" class="edge">
<title>StripeWebHookModule&#45;&gt;StripeWebhookController </title>
<path fill="none" stroke="black" stroke-dasharray="5,2" d="M283,-149.91C283,-149.91 283,-168.79 283,-168.79"/>
<polygon fill="black" stroke="black" points="279.5,-168.79 283,-178.79 286.5,-168.79 279.5,-168.79"/>
</g>
</g>
</svg>
