<?xml version="1.0" encoding="UTF-8" standalone="no"?>
<!DOCTYPE svg PUBLIC "-//W3C//DTD SVG 1.1//EN"
 "http://www.w3.org/Graphics/SVG/1.1/DTD/svg11.dtd">
<!-- Generated by graphviz version 3.0.0 (20220226.1711)
 -->
<!-- Title: dependencies Pages: 1 -->
<svg width="660pt" height="247pt"
 viewBox="0.00 0.00 660.00 246.80" xmlns="http://www.w3.org/2000/svg" xmlns:xlink="http://www.w3.org/1999/xlink">
<g id="graph0" class="graph" transform="scale(1 1) rotate(0) translate(4 242.8)">
<title>dependencies</title>
<polygon fill="white" stroke="transparent" points="-4,4 -4,-242.8 656,-242.8 656,4 -4,4"/>
<text text-anchor="middle" x="326" y="-8.2" font-family="sans-serif" font-size="14.00">dependencies</text>
<g id="clust1" class="cluster">
<title>cluster_UserListModule</title>
<polygon fill="none" stroke="black" stroke-dasharray="1,5" points="8,-32.8 8,-230.8 644,-230.8 644,-32.8 8,-32.8"/>
</g>
<g id="clust4" class="cluster">
<title>cluster_UserListModule_exports</title>
<polygon fill="none" stroke="black" points="136,-170.8 136,-222.8 416,-222.8 416,-170.8 136,-170.8"/>
</g>
<g id="clust6" class="cluster">
<title>cluster_UserListModule_providers</title>
<polygon fill="none" stroke="black" points="272,-40.8 272,-92.8 636,-92.8 636,-40.8 272,-40.8"/>
</g>
<g id="clust3" class="cluster">
<title>cluster_UserListModule_imports</title>
<polygon fill="none" stroke="black" points="16,-40.8 16,-92.8 264,-92.8 264,-40.8 16,-40.8"/>
</g>
<!-- ApiServicesModule -->
<g id="node1" class="node">
<title>ApiServicesModule</title>
<polygon fill="#8dd3c7" stroke="black" points="255.98,-84.8 252.98,-88.8 231.98,-88.8 228.98,-84.8 128.02,-84.8 128.02,-48.8 255.98,-48.8 255.98,-84.8"/>
<text text-anchor="middle" x="192" y="-62.6" font-family="Times,serif" font-size="14.00">ApiServicesModule</text>
</g>
<!-- UserListModule -->
<g id="node3" class="node">
<title>UserListModule</title>
<polygon fill="#8dd3c7" stroke="black" points="335.77,-149.8 332.77,-153.8 311.77,-153.8 308.77,-149.8 228.23,-149.8 228.23,-113.8 335.77,-113.8 335.77,-149.8"/>
<text text-anchor="middle" x="282" y="-127.6" font-family="Times,serif" font-size="14.00">UserListModule</text>
</g>
<!-- ApiServicesModule&#45;&gt;UserListModule -->
<g id="edge1" class="edge">
<title>ApiServicesModule&#45;&gt;UserListModule</title>
<path fill="none" stroke="black" d="M242.05,-84.91C242.05,-84.91 242.05,-103.79 242.05,-103.79"/>
<polygon fill="black" stroke="black" points="238.55,-103.79 242.05,-113.79 245.55,-103.79 238.55,-103.79"/>
</g>
<!-- UserModule -->
<g id="node2" class="node">
<title>UserModule</title>
<polygon fill="#8dd3c7" stroke="black" points="109.99,-84.8 106.99,-88.8 85.99,-88.8 82.99,-84.8 24.01,-84.8 24.01,-48.8 109.99,-48.8 109.99,-84.8"/>
<text text-anchor="middle" x="67" y="-62.6" font-family="Times,serif" font-size="14.00">UserModule</text>
</g>
<!-- UserModule&#45;&gt;UserListModule -->
<g id="edge2" class="edge">
<title>UserModule&#45;&gt;UserListModule</title>
<path fill="none" stroke="black" d="M67,-84.91C67,-104.14 67,-131.8 67,-131.8 67,-131.8 218.02,-131.8 218.02,-131.8"/>
<polygon fill="black" stroke="black" points="218.02,-135.3 228.02,-131.8 218.02,-128.3 218.02,-135.3"/>
</g>
<!-- UserListService  -->
<g id="node4" class="node">
<title>UserListService </title>
<polygon fill="#fb8072" stroke="black" points="407.69,-214.8 298.31,-214.8 298.31,-178.8 407.69,-178.8 407.69,-214.8"/>
<text text-anchor="middle" x="353" y="-192.6" font-family="Times,serif" font-size="14.00">UserListService </text>
</g>
<!-- UserListModule&#45;&gt;UserListService  -->
<g id="edge3" class="edge">
<title>UserListModule&#45;&gt;UserListService </title>
<path fill="none" stroke="black" stroke-dasharray="5,2" d="M317.02,-149.91C317.02,-149.91 317.02,-168.79 317.02,-168.79"/>
<polygon fill="black" stroke="black" points="313.52,-168.79 317.02,-178.79 320.52,-168.79 313.52,-168.79"/>
</g>
<!-- UserListStatsService  -->
<g id="node5" class="node">
<title>UserListStatsService </title>
<polygon fill="#fb8072" stroke="black" points="280.42,-214.8 143.58,-214.8 143.58,-178.8 280.42,-178.8 280.42,-214.8"/>
<text text-anchor="middle" x="212" y="-192.6" font-family="Times,serif" font-size="14.00">UserListStatsService </text>
</g>
<!-- UserListModule&#45;&gt;UserListStatsService  -->
<g id="edge4" class="edge">
<title>UserListModule&#45;&gt;UserListStatsService </title>
<path fill="none" stroke="black" stroke-dasharray="5,2" d="M254.29,-149.91C254.29,-149.91 254.29,-168.79 254.29,-168.79"/>
<polygon fill="black" stroke="black" points="250.79,-168.79 254.29,-178.79 257.79,-168.79 250.79,-168.79"/>
</g>
<!-- UserListService -->
<g id="node6" class="node">
<title>UserListService</title>
<ellipse fill="#fdb462" stroke="black" cx="555" cy="-66.8" rx="73" ry="18"/>
<text text-anchor="middle" x="555" y="-62.6" font-family="Times,serif" font-size="14.00">UserListService</text>
</g>
<!-- UserListService&#45;&gt;UserListModule -->
<g id="edge5" class="edge">
<title>UserListService&#45;&gt;UserListModule</title>
<path fill="none" stroke="black" d="M555,-84.91C555,-104.14 555,-131.8 555,-131.8 555,-131.8 345.94,-131.8 345.94,-131.8"/>
<polygon fill="black" stroke="black" points="345.94,-128.3 335.94,-131.8 345.94,-135.3 345.94,-128.3"/>
</g>
<!-- UserListStatsService -->
<g id="node7" class="node">
<title>UserListStatsService</title>
<ellipse fill="#fdb462" stroke="black" cx="372" cy="-66.8" rx="92.06" ry="18"/>
<text text-anchor="middle" x="372" y="-62.6" font-family="Times,serif" font-size="14.00">UserListStatsService</text>
</g>
<!-- UserListStatsService&#45;&gt;UserListModule -->
<g id="edge6" class="edge">
<title>UserListStatsService&#45;&gt;UserListModule</title>
<path fill="none" stroke="black" d="M307.93,-79.95C307.93,-79.95 307.93,-103.49 307.93,-103.49"/>
<polygon fill="black" stroke="black" points="304.43,-103.49 307.93,-113.49 311.43,-103.49 304.43,-103.49"/>
</g>
</g>
</svg>
