<?xml version="1.0" encoding="UTF-8" standalone="no"?>
<!DOCTYPE svg PUBLIC "-//W3C//DTD SVG 1.1//EN"
 "http://www.w3.org/Graphics/SVG/1.1/DTD/svg11.dtd">
<!-- Generated by graphviz version 3.0.0 (20220226.1711)
 -->
<!-- Title: dependencies Pages: 1 -->
<svg width="458pt" height="247pt"
 viewBox="0.00 0.00 458.00 246.80" xmlns="http://www.w3.org/2000/svg" xmlns:xlink="http://www.w3.org/1999/xlink">
<g id="graph0" class="graph" transform="scale(1 1) rotate(0) translate(4 242.8)">
<title>dependencies</title>
<polygon fill="white" stroke="transparent" points="-4,4 -4,-242.8 454,-242.8 454,4 -4,4"/>
<text text-anchor="middle" x="225" y="-8.2" font-family="sans-serif" font-size="14.00">dependencies</text>
<g id="clust1" class="cluster">
<title>cluster_UserListModule</title>
<polygon fill="none" stroke="black" stroke-dasharray="1,5" points="8,-32.8 8,-230.8 442,-230.8 442,-32.8 8,-32.8"/>
</g>
<g id="clust3" class="cluster">
<title>cluster_UserListModule_imports</title>
<polygon fill="none" stroke="black" points="186,-40.8 186,-92.8 434,-92.8 434,-40.8 186,-40.8"/>
</g>
<g id="clust4" class="cluster">
<title>cluster_UserListModule_exports</title>
<polygon fill="none" stroke="black" points="174,-170.8 174,-222.8 300,-222.8 300,-170.8 174,-170.8"/>
</g>
<g id="clust6" class="cluster">
<title>cluster_UserListModule_providers</title>
<polygon fill="none" stroke="black" points="16,-40.8 16,-92.8 178,-92.8 178,-40.8 16,-40.8"/>
</g>
<!-- ApiServicesModule -->
<g id="node1" class="node">
<title>ApiServicesModule</title>
<polygon fill="#8dd3c7" stroke="black" points="425.98,-84.8 422.98,-88.8 401.98,-88.8 398.98,-84.8 298.02,-84.8 298.02,-48.8 425.98,-48.8 425.98,-84.8"/>
<text text-anchor="middle" x="362" y="-62.6" font-family="Times,serif" font-size="14.00">ApiServicesModule</text>
</g>
<!-- UserListModule -->
<g id="node3" class="node">
<title>UserListModule</title>
<polygon fill="#8dd3c7" stroke="black" points="290.77,-149.8 287.77,-153.8 266.77,-153.8 263.77,-149.8 183.23,-149.8 183.23,-113.8 290.77,-113.8 290.77,-149.8"/>
<text text-anchor="middle" x="237" y="-127.6" font-family="Times,serif" font-size="14.00">UserListModule</text>
</g>
<!-- ApiServicesModule&#45;&gt;UserListModule -->
<g id="edge1" class="edge">
<title>ApiServicesModule&#45;&gt;UserListModule</title>
<path fill="none" stroke="black" d="M297.74,-66.8C290.37,-66.8 285.44,-66.8 285.44,-66.8 285.44,-66.8 285.44,-103.69 285.44,-103.69"/>
<polygon fill="black" stroke="black" points="281.94,-103.69 285.44,-113.69 288.94,-103.69 281.94,-103.69"/>
</g>
<!-- UserModule -->
<g id="node2" class="node">
<title>UserModule</title>
<polygon fill="#8dd3c7" stroke="black" points="279.99,-84.8 276.99,-88.8 255.99,-88.8 252.99,-84.8 194.01,-84.8 194.01,-48.8 279.99,-48.8 279.99,-84.8"/>
<text text-anchor="middle" x="237" y="-62.6" font-family="Times,serif" font-size="14.00">UserModule</text>
</g>
<!-- UserModule&#45;&gt;UserListModule -->
<g id="edge2" class="edge">
<title>UserModule&#45;&gt;UserListModule</title>
<path fill="none" stroke="black" d="M237,-84.91C237,-84.91 237,-103.79 237,-103.79"/>
<polygon fill="black" stroke="black" points="233.5,-103.79 237,-113.79 240.5,-103.79 233.5,-103.79"/>
</g>
<!-- UserListService  -->
<g id="node4" class="node">
<title>UserListService </title>
<polygon fill="#fb8072" stroke="black" points="291.69,-214.8 182.31,-214.8 182.31,-178.8 291.69,-178.8 291.69,-214.8"/>
<text text-anchor="middle" x="237" y="-192.6" font-family="Times,serif" font-size="14.00">UserListService </text>
</g>
<!-- UserListModule&#45;&gt;UserListService  -->
<g id="edge3" class="edge">
<title>UserListModule&#45;&gt;UserListService </title>
<path fill="none" stroke="black" stroke-dasharray="5,2" d="M237,-149.91C237,-149.91 237,-168.79 237,-168.79"/>
<polygon fill="black" stroke="black" points="233.5,-168.79 237,-178.79 240.5,-168.79 233.5,-168.79"/>
</g>
<!-- UserListService -->
<g id="node5" class="node">
<title>UserListService</title>
<ellipse fill="#fdb462" stroke="black" cx="97" cy="-66.8" rx="73" ry="18"/>
<text text-anchor="middle" x="97" y="-62.6" font-family="Times,serif" font-size="14.00">UserListService</text>
</g>
<!-- UserListService&#45;&gt;UserListModule -->
<g id="edge4" class="edge">
<title>UserListService&#45;&gt;UserListModule</title>
<path fill="none" stroke="black" d="M170.47,-66.8C181.12,-66.8 188.56,-66.8 188.56,-66.8 188.56,-66.8 188.56,-103.69 188.56,-103.69"/>
<polygon fill="black" stroke="black" points="185.06,-103.69 188.56,-113.69 192.06,-103.69 185.06,-103.69"/>
</g>
</g>
</svg>
