<?xml version="1.0" encoding="UTF-8" standalone="no"?>
<!DOCTYPE svg PUBLIC "-//W3C//DTD SVG 1.1//EN"
 "http://www.w3.org/Graphics/SVG/1.1/DTD/svg11.dtd">
<!-- Generated by graphviz version 3.0.0 (20220226.1711)
 -->
<!-- Title: dependencies Pages: 1 -->
<svg width="354pt" height="247pt"
 viewBox="0.00 0.00 354.00 246.80" xmlns="http://www.w3.org/2000/svg" xmlns:xlink="http://www.w3.org/1999/xlink">
<g id="graph0" class="graph" transform="scale(1 1) rotate(0) translate(4 242.8)">
<title>dependencies</title>
<polygon fill="white" stroke="transparent" points="-4,4 -4,-242.8 350,-242.8 350,4 -4,4"/>
<text text-anchor="middle" x="173" y="-8.2" font-family="sans-serif" font-size="14.00">dependencies</text>
<g id="clust1" class="cluster">
<title>cluster_UserListModule</title>
<polygon fill="none" stroke="black" stroke-dasharray="1,5" points="8,-32.8 8,-230.8 338,-230.8 338,-32.8 8,-32.8"/>
</g>
<g id="clust6" class="cluster">
<title>cluster_UserListModule_providers</title>
<polygon fill="none" stroke="black" points="168,-40.8 168,-92.8 330,-92.8 330,-40.8 168,-40.8"/>
</g>
<g id="clust3" class="cluster">
<title>cluster_UserListModule_imports</title>
<polygon fill="none" stroke="black" points="16,-40.8 16,-92.8 160,-92.8 160,-40.8 16,-40.8"/>
</g>
<g id="clust4" class="cluster">
<title>cluster_UserListModule_exports</title>
<polygon fill="none" stroke="black" points="105,-170.8 105,-222.8 231,-222.8 231,-170.8 105,-170.8"/>
</g>
<!-- ApiServicesModule -->
<g id="node1" class="node">
<title>ApiServicesModule</title>
<polygon fill="#8dd3c7" stroke="black" points="151.98,-84.8 148.98,-88.8 127.98,-88.8 124.98,-84.8 24.02,-84.8 24.02,-48.8 151.98,-48.8 151.98,-84.8"/>
<text text-anchor="middle" x="88" y="-62.6" font-family="Times,serif" font-size="14.00">ApiServicesModule</text>
</g>
<!-- UserListModule -->
<g id="node2" class="node">
<title>UserListModule</title>
<polygon fill="#8dd3c7" stroke="black" points="221.77,-149.8 218.77,-153.8 197.77,-153.8 194.77,-149.8 114.23,-149.8 114.23,-113.8 221.77,-113.8 221.77,-149.8"/>
<text text-anchor="middle" x="168" y="-127.6" font-family="Times,serif" font-size="14.00">UserListModule</text>
</g>
<!-- ApiServicesModule&#45;&gt;UserListModule -->
<g id="edge1" class="edge">
<title>ApiServicesModule&#45;&gt;UserListModule</title>
<path fill="none" stroke="black" d="M133.05,-84.91C133.05,-84.91 133.05,-103.79 133.05,-103.79"/>
<polygon fill="black" stroke="black" points="129.55,-103.79 133.05,-113.79 136.55,-103.79 129.55,-103.79"/>
</g>
<!-- UserListService  -->
<g id="node3" class="node">
<title>UserListService </title>
<polygon fill="#fb8072" stroke="black" points="222.69,-214.8 113.31,-214.8 113.31,-178.8 222.69,-178.8 222.69,-214.8"/>
<text text-anchor="middle" x="168" y="-192.6" font-family="Times,serif" font-size="14.00">UserListService </text>
</g>
<!-- UserListModule&#45;&gt;UserListService  -->
<g id="edge2" class="edge">
<title>UserListModule&#45;&gt;UserListService </title>
<path fill="none" stroke="black" stroke-dasharray="5,2" d="M168,-149.91C168,-149.91 168,-168.79 168,-168.79"/>
<polygon fill="black" stroke="black" points="164.5,-168.79 168,-178.79 171.5,-168.79 164.5,-168.79"/>
</g>
<!-- UserListService -->
<g id="node4" class="node">
<title>UserListService</title>
<ellipse fill="#fdb462" stroke="black" cx="249" cy="-66.8" rx="73" ry="18"/>
<text text-anchor="middle" x="249" y="-62.6" font-family="Times,serif" font-size="14.00">UserListService</text>
</g>
<!-- UserListService&#45;&gt;UserListModule -->
<g id="edge3" class="edge">
<title>UserListService&#45;&gt;UserListModule</title>
<path fill="none" stroke="black" d="M198.82,-79.95C198.82,-79.95 198.82,-103.49 198.82,-103.49"/>
<polygon fill="black" stroke="black" points="195.32,-103.49 198.82,-113.49 202.32,-103.49 195.32,-103.49"/>
</g>
</g>
</svg>
