<?xml version="1.0" encoding="UTF-8" standalone="no"?>
<!DOCTYPE svg PUBLIC "-//W3C//DTD SVG 1.1//EN"
 "http://www.w3.org/Graphics/SVG/1.1/DTD/svg11.dtd">
<!-- Generated by graphviz version 3.0.0 (20220226.1711)
 -->
<!-- Title: dependencies Pages: 1 -->
<svg width="354pt" height="247pt"
 viewBox="0.00 0.00 354.00 246.80" xmlns="http://www.w3.org/2000/svg" xmlns:xlink="http://www.w3.org/1999/xlink">
<g id="graph0" class="graph" transform="scale(1 1) rotate(0) translate(4 242.8)">
<title>dependencies</title>
<polygon fill="white" stroke="transparent" points="-4,4 -4,-242.8 350,-242.8 350,4 -4,4"/>
<text text-anchor="middle" x="173" y="-8.2" font-family="sans-serif" font-size="14.00">dependencies</text>
<g id="clust1" class="cluster">
<title>cluster_UserListModule</title>
<polygon fill="none" stroke="black" stroke-dasharray="1,5" points="8,-32.8 8,-230.8 338,-230.8 338,-32.8 8,-32.8"/>
</g>
<g id="clust3" class="cluster">
<title>cluster_UserListModule_imports</title>
<polygon fill="none" stroke="black" points="186,-40.8 186,-92.8 330,-92.8 330,-40.8 186,-40.8"/>
</g>
<g id="clust4" class="cluster">
<title>cluster_UserListModule_exports</title>
<polygon fill="none" stroke="black" points="114,-170.8 114,-222.8 240,-222.8 240,-170.8 114,-170.8"/>
</g>
<g id="clust6" class="cluster">
<title>cluster_UserListModule_providers</title>
<polygon fill="none" stroke="black" points="16,-40.8 16,-92.8 178,-92.8 178,-40.8 16,-40.8"/>
</g>
<!-- ApiServicesModule -->
<g id="node1" class="node">
<title>ApiServicesModule</title>
<polygon fill="#8dd3c7" stroke="black" points="321.98,-84.8 318.98,-88.8 297.98,-88.8 294.98,-84.8 194.02,-84.8 194.02,-48.8 321.98,-48.8 321.98,-84.8"/>
<text text-anchor="middle" x="258" y="-62.6" font-family="Times,serif" font-size="14.00">ApiServicesModule</text>
</g>
<!-- UserListModule -->
<g id="node2" class="node">
<title>UserListModule</title>
<polygon fill="#8dd3c7" stroke="black" points="230.77,-149.8 227.77,-153.8 206.77,-153.8 203.77,-149.8 123.23,-149.8 123.23,-113.8 230.77,-113.8 230.77,-149.8"/>
<text text-anchor="middle" x="177" y="-127.6" font-family="Times,serif" font-size="14.00">UserListModule</text>
</g>
<!-- ApiServicesModule&#45;&gt;UserListModule -->
<g id="edge1" class="edge">
<title>ApiServicesModule&#45;&gt;UserListModule</title>
<path fill="none" stroke="black" d="M212.45,-84.91C212.45,-84.91 212.45,-103.79 212.45,-103.79"/>
<polygon fill="black" stroke="black" points="208.95,-103.79 212.45,-113.79 215.95,-103.79 208.95,-103.79"/>
</g>
<!-- UserListService  -->
<g id="node3" class="node">
<title>UserListService </title>
<polygon fill="#fb8072" stroke="black" points="231.69,-214.8 122.31,-214.8 122.31,-178.8 231.69,-178.8 231.69,-214.8"/>
<text text-anchor="middle" x="177" y="-192.6" font-family="Times,serif" font-size="14.00">UserListService </text>
</g>
<!-- UserListModule&#45;&gt;UserListService  -->
<g id="edge2" class="edge">
<title>UserListModule&#45;&gt;UserListService </title>
<path fill="none" stroke="black" stroke-dasharray="5,2" d="M177,-149.91C177,-149.91 177,-168.79 177,-168.79"/>
<polygon fill="black" stroke="black" points="173.5,-168.79 177,-178.79 180.5,-168.79 173.5,-168.79"/>
</g>
<!-- UserListService -->
<g id="node4" class="node">
<title>UserListService</title>
<ellipse fill="#fdb462" stroke="black" cx="97" cy="-66.8" rx="73" ry="18"/>
<text text-anchor="middle" x="97" y="-62.6" font-family="Times,serif" font-size="14.00">UserListService</text>
</g>
<!-- UserListService&#45;&gt;UserListModule -->
<g id="edge3" class="edge">
<title>UserListService&#45;&gt;UserListModule</title>
<path fill="none" stroke="black" d="M146.68,-80.27C146.68,-80.27 146.68,-103.66 146.68,-103.66"/>
<polygon fill="black" stroke="black" points="143.18,-103.66 146.68,-113.66 150.18,-103.66 143.18,-103.66"/>
</g>
</g>
</svg>
