<?xml version="1.0" encoding="UTF-8" standalone="no"?>
<!DOCTYPE svg PUBLIC "-//W3C//DTD SVG 1.1//EN"
 "http://www.w3.org/Graphics/SVG/1.1/DTD/svg11.dtd">
<!-- Generated by graphviz version 3.0.0 (20220226.1711)
 -->
<!-- Title: dependencies Pages: 1 -->
<svg width="811pt" height="247pt"
 viewBox="0.00 0.00 811.00 246.80" xmlns="http://www.w3.org/2000/svg" xmlns:xlink="http://www.w3.org/1999/xlink">
<g id="graph0" class="graph" transform="scale(1 1) rotate(0) translate(4 242.8)">
<title>dependencies</title>
<polygon fill="white" stroke="transparent" points="-4,4 -4,-242.8 807,-242.8 807,4 -4,4"/>
<text text-anchor="middle" x="401.5" y="-8.2" font-family="sans-serif" font-size="14.00">dependencies</text>
<g id="clust1" class="cluster">
<title>cluster_UserListModule</title>
<polygon fill="none" stroke="black" stroke-dasharray="1,5" points="8,-32.8 8,-230.8 795,-230.8 795,-32.8 8,-32.8"/>
</g>
<g id="clust3" class="cluster">
<title>cluster_UserListModule_imports</title>
<polygon fill="none" stroke="black" points="643,-40.8 643,-92.8 787,-92.8 787,-40.8 643,-40.8"/>
</g>
<g id="clust4" class="cluster">
<title>cluster_UserListModule_exports</title>
<polygon fill="none" stroke="black" points="187,-170.8 187,-222.8 660,-222.8 660,-170.8 187,-170.8"/>
</g>
<g id="clust6" class="cluster">
<title>cluster_UserListModule_providers</title>
<polygon fill="none" stroke="black" points="16,-40.8 16,-92.8 635,-92.8 635,-40.8 16,-40.8"/>
</g>
<!-- ApiServicesModule -->
<g id="node1" class="node">
<title>ApiServicesModule</title>
<polygon fill="#8dd3c7" stroke="black" points="778.98,-84.8 775.98,-88.8 754.98,-88.8 751.98,-84.8 651.02,-84.8 651.02,-48.8 778.98,-48.8 778.98,-84.8"/>
<text text-anchor="middle" x="715" y="-62.6" font-family="Times,serif" font-size="14.00">ApiServicesModule</text>
</g>
<!-- UserListModule -->
<g id="node2" class="node">
<title>UserListModule</title>
<polygon fill="#8dd3c7" stroke="black" points="457.77,-149.8 454.77,-153.8 433.77,-153.8 430.77,-149.8 350.23,-149.8 350.23,-113.8 457.77,-113.8 457.77,-149.8"/>
<text text-anchor="middle" x="404" y="-127.6" font-family="Times,serif" font-size="14.00">UserListModule</text>
</g>
<!-- ApiServicesModule&#45;&gt;UserListModule -->
<g id="edge1" class="edge">
<title>ApiServicesModule&#45;&gt;UserListModule</title>
<path fill="none" stroke="black" d="M715.25,-84.82C715.25,-102.17 715.25,-125.8 715.25,-125.8 715.25,-125.8 467.86,-125.8 467.86,-125.8"/>
<polygon fill="black" stroke="black" points="467.86,-122.3 457.86,-125.8 467.86,-129.3 467.86,-122.3"/>
</g>
<!-- UserListEventsStatsService  -->
<g id="node3" class="node">
<title>UserListEventsStatsService </title>
<polygon fill="#fb8072" stroke="black" points="651.52,-214.8 476.48,-214.8 476.48,-178.8 651.52,-178.8 651.52,-214.8"/>
<text text-anchor="middle" x="564" y="-192.6" font-family="Times,serif" font-size="14.00">UserListEventsStatsService </text>
</g>
<!-- UserListModule&#45;&gt;UserListEventsStatsService  -->
<g id="edge2" class="edge">
<title>UserListModule&#45;&gt;UserListEventsStatsService </title>
<path fill="none" stroke="black" stroke-dasharray="5,2" d="M457.81,-137.8C500.1,-137.8 551.9,-137.8 551.9,-137.8 551.9,-137.8 551.9,-168.78 551.9,-168.78"/>
<polygon fill="black" stroke="black" points="548.4,-168.78 551.9,-178.78 555.4,-168.78 548.4,-168.78"/>
</g>
<!-- UserListService  -->
<g id="node4" class="node">
<title>UserListService </title>
<polygon fill="#fb8072" stroke="black" points="458.69,-214.8 349.31,-214.8 349.31,-178.8 458.69,-178.8 458.69,-214.8"/>
<text text-anchor="middle" x="404" y="-192.6" font-family="Times,serif" font-size="14.00">UserListService </text>
</g>
<!-- UserListModule&#45;&gt;UserListService  -->
<g id="edge3" class="edge">
<title>UserListModule&#45;&gt;UserListService </title>
<path fill="none" stroke="black" stroke-dasharray="5,2" d="M404,-149.91C404,-149.91 404,-168.79 404,-168.79"/>
<polygon fill="black" stroke="black" points="400.5,-168.79 404,-178.79 407.5,-168.79 400.5,-168.79"/>
</g>
<!-- UserListStatsService  -->
<g id="node5" class="node">
<title>UserListStatsService </title>
<polygon fill="#fb8072" stroke="black" points="331.42,-214.8 194.58,-214.8 194.58,-178.8 331.42,-178.8 331.42,-214.8"/>
<text text-anchor="middle" x="263" y="-192.6" font-family="Times,serif" font-size="14.00">UserListStatsService </text>
</g>
<!-- UserListModule&#45;&gt;UserListStatsService  -->
<g id="edge4" class="edge">
<title>UserListModule&#45;&gt;UserListStatsService </title>
<path fill="none" stroke="black" stroke-dasharray="5,2" d="M350.09,-137.8C316.11,-137.8 278.61,-137.8 278.61,-137.8 278.61,-137.8 278.61,-168.78 278.61,-168.78"/>
<polygon fill="black" stroke="black" points="275.11,-168.78 278.61,-178.78 282.11,-168.78 275.11,-168.78"/>
</g>
<!-- UserListEventsStatsService -->
<g id="node6" class="node">
<title>UserListEventsStatsService</title>
<ellipse fill="#fdb462" stroke="black" cx="509" cy="-66.8" rx="118.13" ry="18"/>
<text text-anchor="middle" x="509" y="-62.6" font-family="Times,serif" font-size="14.00">UserListEventsStatsService</text>
</g>
<!-- UserListEventsStatsService&#45;&gt;UserListModule -->
<g id="edge5" class="edge">
<title>UserListEventsStatsService&#45;&gt;UserListModule</title>
<path fill="none" stroke="black" d="M424.28,-79.64C424.28,-79.64 424.28,-103.32 424.28,-103.32"/>
<polygon fill="black" stroke="black" points="420.78,-103.32 424.28,-113.32 427.78,-103.32 420.78,-103.32"/>
</g>
<!-- UserListService -->
<g id="node7" class="node">
<title>UserListService</title>
<ellipse fill="#fdb462" stroke="black" cx="299" cy="-66.8" rx="73" ry="18"/>
<text text-anchor="middle" x="299" y="-62.6" font-family="Times,serif" font-size="14.00">UserListService</text>
</g>
<!-- UserListService&#45;&gt;UserListModule -->
<g id="edge6" class="edge">
<title>UserListService&#45;&gt;UserListModule</title>
<path fill="none" stroke="black" d="M361.18,-76.39C361.18,-76.39 361.18,-103.55 361.18,-103.55"/>
<polygon fill="black" stroke="black" points="357.68,-103.55 361.18,-113.55 364.68,-103.55 357.68,-103.55"/>
</g>
<!-- UserListStatsService -->
<g id="node8" class="node">
<title>UserListStatsService</title>
<ellipse fill="#fdb462" stroke="black" cx="116" cy="-66.8" rx="92.06" ry="18"/>
<text text-anchor="middle" x="116" y="-62.6" font-family="Times,serif" font-size="14.00">UserListStatsService</text>
</g>
<!-- UserListStatsService&#45;&gt;UserListModule -->
<g id="edge7" class="edge">
<title>UserListStatsService&#45;&gt;UserListModule</title>
<path fill="none" stroke="black" d="M201.29,-73.57C201.29,-89.07 201.29,-125.8 201.29,-125.8 201.29,-125.8 340.21,-125.8 340.21,-125.8"/>
<polygon fill="black" stroke="black" points="340.21,-129.3 350.21,-125.8 340.21,-122.3 340.21,-129.3"/>
</g>
</g>
</svg>
