<?xml version="1.0" encoding="UTF-8" standalone="no"?>
<!DOCTYPE svg PUBLIC "-//W3C//DTD SVG 1.1//EN"
 "http://www.w3.org/Graphics/SVG/1.1/DTD/svg11.dtd">
<!-- Generated by graphviz version 3.0.0 (20220226.1711)
 -->
<!-- Title: dependencies Pages: 1 -->
<svg width="556pt" height="247pt"
 viewBox="0.00 0.00 556.00 246.80" xmlns="http://www.w3.org/2000/svg" xmlns:xlink="http://www.w3.org/1999/xlink">
<g id="graph0" class="graph" transform="scale(1 1) rotate(0) translate(4 242.8)">
<title>dependencies</title>
<polygon fill="white" stroke="transparent" points="-4,4 -4,-242.8 552,-242.8 552,4 -4,4"/>
<text text-anchor="middle" x="274" y="-8.2" font-family="sans-serif" font-size="14.00">dependencies</text>
<g id="clust1" class="cluster">
<title>cluster_UserListModule</title>
<polygon fill="none" stroke="black" stroke-dasharray="1,5" points="8,-32.8 8,-230.8 540,-230.8 540,-32.8 8,-32.8"/>
</g>
<g id="clust6" class="cluster">
<title>cluster_UserListModule_providers</title>
<polygon fill="none" stroke="black" points="168,-40.8 168,-92.8 532,-92.8 532,-40.8 168,-40.8"/>
</g>
<g id="clust4" class="cluster">
<title>cluster_UserListModule_exports</title>
<polygon fill="none" stroke="black" points="122,-170.8 122,-222.8 402,-222.8 402,-170.8 122,-170.8"/>
</g>
<g id="clust3" class="cluster">
<title>cluster_UserListModule_imports</title>
<polygon fill="none" stroke="black" points="16,-40.8 16,-92.8 160,-92.8 160,-40.8 16,-40.8"/>
</g>
<!-- ApiServicesModule -->
<g id="node1" class="node">
<title>ApiServicesModule</title>
<polygon fill="#8dd3c7" stroke="black" points="151.98,-84.8 148.98,-88.8 127.98,-88.8 124.98,-84.8 24.02,-84.8 24.02,-48.8 151.98,-48.8 151.98,-84.8"/>
<text text-anchor="middle" x="88" y="-62.6" font-family="Times,serif" font-size="14.00">ApiServicesModule</text>
</g>
<!-- UserListModule -->
<g id="node2" class="node">
<title>UserListModule</title>
<polygon fill="#8dd3c7" stroke="black" points="321.77,-149.8 318.77,-153.8 297.77,-153.8 294.77,-149.8 214.23,-149.8 214.23,-113.8 321.77,-113.8 321.77,-149.8"/>
<text text-anchor="middle" x="268" y="-127.6" font-family="Times,serif" font-size="14.00">UserListModule</text>
</g>
<!-- ApiServicesModule&#45;&gt;UserListModule -->
<g id="edge1" class="edge">
<title>ApiServicesModule&#45;&gt;UserListModule</title>
<path fill="none" stroke="black" d="M140.76,-84.91C140.76,-104.14 140.76,-131.8 140.76,-131.8 140.76,-131.8 204.04,-131.8 204.04,-131.8"/>
<polygon fill="black" stroke="black" points="204.04,-135.3 214.04,-131.8 204.04,-128.3 204.04,-135.3"/>
</g>
<!-- UserListService  -->
<g id="node3" class="node">
<title>UserListService </title>
<polygon fill="#fb8072" stroke="black" points="393.69,-214.8 284.31,-214.8 284.31,-178.8 393.69,-178.8 393.69,-214.8"/>
<text text-anchor="middle" x="339" y="-192.6" font-family="Times,serif" font-size="14.00">UserListService </text>
</g>
<!-- UserListModule&#45;&gt;UserListService  -->
<g id="edge2" class="edge">
<title>UserListModule&#45;&gt;UserListService </title>
<path fill="none" stroke="black" stroke-dasharray="5,2" d="M303.02,-149.91C303.02,-149.91 303.02,-168.79 303.02,-168.79"/>
<polygon fill="black" stroke="black" points="299.52,-168.79 303.02,-178.79 306.52,-168.79 299.52,-168.79"/>
</g>
<!-- UserListStatsService  -->
<g id="node4" class="node">
<title>UserListStatsService </title>
<polygon fill="#fb8072" stroke="black" points="266.42,-214.8 129.58,-214.8 129.58,-178.8 266.42,-178.8 266.42,-214.8"/>
<text text-anchor="middle" x="198" y="-192.6" font-family="Times,serif" font-size="14.00">UserListStatsService </text>
</g>
<!-- UserListModule&#45;&gt;UserListStatsService  -->
<g id="edge3" class="edge">
<title>UserListModule&#45;&gt;UserListStatsService </title>
<path fill="none" stroke="black" stroke-dasharray="5,2" d="M240.29,-149.91C240.29,-149.91 240.29,-168.79 240.29,-168.79"/>
<polygon fill="black" stroke="black" points="236.79,-168.79 240.29,-178.79 243.79,-168.79 236.79,-168.79"/>
</g>
<!-- UserListService -->
<g id="node5" class="node">
<title>UserListService</title>
<ellipse fill="#fdb462" stroke="black" cx="451" cy="-66.8" rx="73" ry="18"/>
<text text-anchor="middle" x="451" y="-62.6" font-family="Times,serif" font-size="14.00">UserListService</text>
</g>
<!-- UserListService&#45;&gt;UserListModule -->
<g id="edge4" class="edge">
<title>UserListService&#45;&gt;UserListModule</title>
<path fill="none" stroke="black" d="M385.8,-75.03C385.8,-92.52 385.8,-131.8 385.8,-131.8 385.8,-131.8 332.07,-131.8 332.07,-131.8"/>
<polygon fill="black" stroke="black" points="332.07,-128.3 322.07,-131.8 332.07,-135.3 332.07,-128.3"/>
</g>
<!-- UserListStatsService -->
<g id="node6" class="node">
<title>UserListStatsService</title>
<ellipse fill="#fdb462" stroke="black" cx="268" cy="-66.8" rx="92.06" ry="18"/>
<text text-anchor="middle" x="268" y="-62.6" font-family="Times,serif" font-size="14.00">UserListStatsService</text>
</g>
<!-- UserListStatsService&#45;&gt;UserListModule -->
<g id="edge5" class="edge">
<title>UserListStatsService&#45;&gt;UserListModule</title>
<path fill="none" stroke="black" d="M268,-84.91C268,-84.91 268,-103.79 268,-103.79"/>
<polygon fill="black" stroke="black" points="264.5,-103.79 268,-113.79 271.5,-103.79 264.5,-103.79"/>
</g>
</g>
</svg>
