<?xml version="1.0" encoding="UTF-8" standalone="no"?>
<!DOCTYPE svg PUBLIC "-//W3C//DTD SVG 1.1//EN"
 "http://www.w3.org/Graphics/SVG/1.1/DTD/svg11.dtd">
<!-- Generated by graphviz version 3.0.0 (20220226.1711)
 -->
<!-- Title: dependencies Pages: 1 -->
<svg width="609pt" height="247pt"
 viewBox="0.00 0.00 609.00 246.80" xmlns="http://www.w3.org/2000/svg" xmlns:xlink="http://www.w3.org/1999/xlink">
<g id="graph0" class="graph" transform="scale(1 1) rotate(0) translate(4 242.8)">
<title>dependencies</title>
<polygon fill="white" stroke="transparent" points="-4,4 -4,-242.8 605,-242.8 605,4 -4,4"/>
<text text-anchor="middle" x="300.5" y="-8.2" font-family="sans-serif" font-size="14.00">dependencies</text>
<g id="clust1" class="cluster">
<title>cluster_UserListModule</title>
<polygon fill="none" stroke="black" stroke-dasharray="1,5" points="8,-32.8 8,-230.8 593,-230.8 593,-32.8 8,-32.8"/>
</g>
<g id="clust4" class="cluster">
<title>cluster_UserListModule_exports</title>
<polygon fill="none" stroke="black" points="164,-170.8 164,-222.8 483,-222.8 483,-170.8 164,-170.8"/>
</g>
<g id="clust3" class="cluster">
<title>cluster_UserListModule_imports</title>
<polygon fill="none" stroke="black" points="441,-40.8 441,-92.8 585,-92.8 585,-40.8 441,-40.8"/>
</g>
<g id="clust6" class="cluster">
<title>cluster_UserListModule_providers</title>
<polygon fill="none" stroke="black" points="16,-40.8 16,-92.8 433,-92.8 433,-40.8 16,-40.8"/>
</g>
<!-- ApiServicesModule -->
<g id="node1" class="node">
<title>ApiServicesModule</title>
<polygon fill="#8dd3c7" stroke="black" points="576.98,-84.8 573.98,-88.8 552.98,-88.8 549.98,-84.8 449.02,-84.8 449.02,-48.8 576.98,-48.8 576.98,-84.8"/>
<text text-anchor="middle" x="513" y="-62.6" font-family="Times,serif" font-size="14.00">ApiServicesModule</text>
</g>
<!-- UserListModule -->
<g id="node2" class="node">
<title>UserListModule</title>
<polygon fill="#8dd3c7" stroke="black" points="360.77,-149.8 357.77,-153.8 336.77,-153.8 333.77,-149.8 253.23,-149.8 253.23,-113.8 360.77,-113.8 360.77,-149.8"/>
<text text-anchor="middle" x="307" y="-127.6" font-family="Times,serif" font-size="14.00">UserListModule</text>
</g>
<!-- ApiServicesModule&#45;&gt;UserListModule -->
<g id="edge1" class="edge">
<title>ApiServicesModule&#45;&gt;UserListModule</title>
<path fill="none" stroke="black" d="M461.76,-84.91C461.76,-104.14 461.76,-131.8 461.76,-131.8 461.76,-131.8 371.13,-131.8 371.13,-131.8"/>
<polygon fill="black" stroke="black" points="371.13,-128.3 361.13,-131.8 371.13,-135.3 371.13,-128.3"/>
</g>
<!-- UserListEventsStatsService  -->
<g id="node3" class="node">
<title>UserListEventsStatsService </title>
<polygon fill="#fb8072" stroke="black" points="474.52,-214.8 299.48,-214.8 299.48,-178.8 474.52,-178.8 474.52,-214.8"/>
<text text-anchor="middle" x="387" y="-192.6" font-family="Times,serif" font-size="14.00">UserListEventsStatsService </text>
</g>
<!-- UserListModule&#45;&gt;UserListEventsStatsService  -->
<g id="edge2" class="edge">
<title>UserListModule&#45;&gt;UserListEventsStatsService </title>
<path fill="none" stroke="black" stroke-dasharray="5,2" d="M330.19,-149.91C330.19,-149.91 330.19,-168.79 330.19,-168.79"/>
<polygon fill="black" stroke="black" points="326.69,-168.79 330.19,-178.79 333.69,-168.79 326.69,-168.79"/>
</g>
<!-- UserListService  -->
<g id="node4" class="node">
<title>UserListService </title>
<polygon fill="#fb8072" stroke="black" points="281.69,-214.8 172.31,-214.8 172.31,-178.8 281.69,-178.8 281.69,-214.8"/>
<text text-anchor="middle" x="227" y="-192.6" font-family="Times,serif" font-size="14.00">UserListService </text>
</g>
<!-- UserListModule&#45;&gt;UserListService  -->
<g id="edge3" class="edge">
<title>UserListModule&#45;&gt;UserListService </title>
<path fill="none" stroke="black" stroke-dasharray="5,2" d="M267.48,-149.91C267.48,-149.91 267.48,-168.79 267.48,-168.79"/>
<polygon fill="black" stroke="black" points="263.98,-168.79 267.48,-178.79 270.98,-168.79 263.98,-168.79"/>
</g>
<!-- UserListEventsStatsService -->
<g id="node5" class="node">
<title>UserListEventsStatsService</title>
<ellipse fill="#fdb462" stroke="black" cx="307" cy="-66.8" rx="118.13" ry="18"/>
<text text-anchor="middle" x="307" y="-62.6" font-family="Times,serif" font-size="14.00">UserListEventsStatsService</text>
</g>
<!-- UserListEventsStatsService&#45;&gt;UserListModule -->
<g id="edge4" class="edge">
<title>UserListEventsStatsService&#45;&gt;UserListModule</title>
<path fill="none" stroke="black" d="M307,-84.91C307,-84.91 307,-103.79 307,-103.79"/>
<polygon fill="black" stroke="black" points="303.5,-103.79 307,-113.79 310.5,-103.79 303.5,-103.79"/>
</g>
<!-- UserListService -->
<g id="node6" class="node">
<title>UserListService</title>
<ellipse fill="#fdb462" stroke="black" cx="97" cy="-66.8" rx="73" ry="18"/>
<text text-anchor="middle" x="97" y="-62.6" font-family="Times,serif" font-size="14.00">UserListService</text>
</g>
<!-- UserListService&#45;&gt;UserListModule -->
<g id="edge5" class="edge">
<title>UserListService&#45;&gt;UserListModule</title>
<path fill="none" stroke="black" d="M97,-84.91C97,-104.14 97,-131.8 97,-131.8 97,-131.8 243.19,-131.8 243.19,-131.8"/>
<polygon fill="black" stroke="black" points="243.19,-135.3 253.19,-131.8 243.19,-128.3 243.19,-135.3"/>
</g>
</g>
</svg>
