<?xml version="1.0" encoding="UTF-8" standalone="no"?>
<!DOCTYPE svg PUBLIC "-//W3C//DTD SVG 1.1//EN"
 "http://www.w3.org/Graphics/SVG/1.1/DTD/svg11.dtd">
<!-- Generated by graphviz version 3.0.0 (20220226.1711)
 -->
<!-- Title: dependencies Pages: 1 -->
<svg width="660pt" height="247pt"
 viewBox="0.00 0.00 660.00 246.80" xmlns="http://www.w3.org/2000/svg" xmlns:xlink="http://www.w3.org/1999/xlink">
<g id="graph0" class="graph" transform="scale(1 1) rotate(0) translate(4 242.8)">
<title>dependencies</title>
<polygon fill="white" stroke="transparent" points="-4,4 -4,-242.8 656,-242.8 656,4 -4,4"/>
<text text-anchor="middle" x="326" y="-8.2" font-family="sans-serif" font-size="14.00">dependencies</text>
<g id="clust1" class="cluster">
<title>cluster_UserListModule</title>
<polygon fill="none" stroke="black" stroke-dasharray="1,5" points="8,-32.8 8,-230.8 644,-230.8 644,-32.8 8,-32.8"/>
</g>
<g id="clust3" class="cluster">
<title>cluster_UserListModule_imports</title>
<polygon fill="none" stroke="black" points="388,-40.8 388,-92.8 636,-92.8 636,-40.8 388,-40.8"/>
</g>
<g id="clust4" class="cluster">
<title>cluster_UserListModule_exports</title>
<polygon fill="none" stroke="black" points="219,-170.8 219,-222.8 499,-222.8 499,-170.8 219,-170.8"/>
</g>
<g id="clust6" class="cluster">
<title>cluster_UserListModule_providers</title>
<polygon fill="none" stroke="black" points="16,-40.8 16,-92.8 380,-92.8 380,-40.8 16,-40.8"/>
</g>
<!-- ApiServicesModule -->
<g id="node1" class="node">
<title>ApiServicesModule</title>
<polygon fill="#8dd3c7" stroke="black" points="627.98,-84.8 624.98,-88.8 603.98,-88.8 600.98,-84.8 500.02,-84.8 500.02,-48.8 627.98,-48.8 627.98,-84.8"/>
<text text-anchor="middle" x="564" y="-62.6" font-family="Times,serif" font-size="14.00">ApiServicesModule</text>
</g>
<!-- UserListModule -->
<g id="node3" class="node">
<title>UserListModule</title>
<polygon fill="#8dd3c7" stroke="black" points="418.77,-149.8 415.77,-153.8 394.77,-153.8 391.77,-149.8 311.23,-149.8 311.23,-113.8 418.77,-113.8 418.77,-149.8"/>
<text text-anchor="middle" x="365" y="-127.6" font-family="Times,serif" font-size="14.00">UserListModule</text>
</g>
<!-- ApiServicesModule&#45;&gt;UserListModule -->
<g id="edge1" class="edge">
<title>ApiServicesModule&#45;&gt;UserListModule</title>
<path fill="none" stroke="black" d="M564,-84.91C564,-104.14 564,-131.8 564,-131.8 564,-131.8 428.85,-131.8 428.85,-131.8"/>
<polygon fill="black" stroke="black" points="428.85,-128.3 418.85,-131.8 428.85,-135.3 428.85,-128.3"/>
</g>
<!-- UserModule -->
<g id="node2" class="node">
<title>UserModule</title>
<polygon fill="#8dd3c7" stroke="black" points="481.99,-84.8 478.99,-88.8 457.99,-88.8 454.99,-84.8 396.01,-84.8 396.01,-48.8 481.99,-48.8 481.99,-84.8"/>
<text text-anchor="middle" x="439" y="-62.6" font-family="Times,serif" font-size="14.00">UserModule</text>
</g>
<!-- UserModule&#45;&gt;UserListModule -->
<g id="edge2" class="edge">
<title>UserModule&#45;&gt;UserListModule</title>
<path fill="none" stroke="black" d="M407.44,-84.91C407.44,-84.91 407.44,-103.79 407.44,-103.79"/>
<polygon fill="black" stroke="black" points="403.94,-103.79 407.44,-113.79 410.94,-103.79 403.94,-103.79"/>
</g>
<!-- UserListService  -->
<g id="node4" class="node">
<title>UserListService </title>
<polygon fill="#fb8072" stroke="black" points="490.69,-214.8 381.31,-214.8 381.31,-178.8 490.69,-178.8 490.69,-214.8"/>
<text text-anchor="middle" x="436" y="-192.6" font-family="Times,serif" font-size="14.00">UserListService </text>
</g>
<!-- UserListModule&#45;&gt;UserListService  -->
<g id="edge3" class="edge">
<title>UserListModule&#45;&gt;UserListService </title>
<path fill="none" stroke="black" stroke-dasharray="5,2" d="M400.02,-149.91C400.02,-149.91 400.02,-168.79 400.02,-168.79"/>
<polygon fill="black" stroke="black" points="396.52,-168.79 400.02,-178.79 403.52,-168.79 396.52,-168.79"/>
</g>
<!-- UserListStatsService  -->
<g id="node5" class="node">
<title>UserListStatsService </title>
<polygon fill="#fb8072" stroke="black" points="363.42,-214.8 226.58,-214.8 226.58,-178.8 363.42,-178.8 363.42,-214.8"/>
<text text-anchor="middle" x="295" y="-192.6" font-family="Times,serif" font-size="14.00">UserListStatsService </text>
</g>
<!-- UserListModule&#45;&gt;UserListStatsService  -->
<g id="edge4" class="edge">
<title>UserListModule&#45;&gt;UserListStatsService </title>
<path fill="none" stroke="black" stroke-dasharray="5,2" d="M337.29,-149.91C337.29,-149.91 337.29,-168.79 337.29,-168.79"/>
<polygon fill="black" stroke="black" points="333.79,-168.79 337.29,-178.79 340.79,-168.79 333.79,-168.79"/>
</g>
<!-- UserListService -->
<g id="node6" class="node">
<title>UserListService</title>
<ellipse fill="#fdb462" stroke="black" cx="299" cy="-66.8" rx="73" ry="18"/>
<text text-anchor="middle" x="299" y="-62.6" font-family="Times,serif" font-size="14.00">UserListService</text>
</g>
<!-- UserListService&#45;&gt;UserListModule -->
<g id="edge5" class="edge">
<title>UserListService&#45;&gt;UserListModule</title>
<path fill="none" stroke="black" d="M341.68,-81.55C341.68,-81.55 341.68,-103.39 341.68,-103.39"/>
<polygon fill="black" stroke="black" points="338.18,-103.39 341.68,-113.39 345.18,-103.39 338.18,-103.39"/>
</g>
<!-- UserListStatsService -->
<g id="node7" class="node">
<title>UserListStatsService</title>
<ellipse fill="#fdb462" stroke="black" cx="116" cy="-66.8" rx="92.06" ry="18"/>
<text text-anchor="middle" x="116" y="-62.6" font-family="Times,serif" font-size="14.00">UserListStatsService</text>
</g>
<!-- UserListStatsService&#45;&gt;UserListModule -->
<g id="edge6" class="edge">
<title>UserListStatsService&#45;&gt;UserListModule</title>
<path fill="none" stroke="black" d="M116,-84.91C116,-104.14 116,-131.8 116,-131.8 116,-131.8 300.97,-131.8 300.97,-131.8"/>
<polygon fill="black" stroke="black" points="300.97,-135.3 310.97,-131.8 300.97,-128.3 300.97,-135.3"/>
</g>
</g>
</svg>
