<?xml version="1.0" encoding="UTF-8" standalone="no"?>
<!DOCTYPE svg PUBLIC "-//W3C//DTD SVG 1.1//EN"
 "http://www.w3.org/Graphics/SVG/1.1/DTD/svg11.dtd">
<!-- Generated by graphviz version 3.0.0 (20220226.1711)
 -->
<!-- Title: dependencies Pages: 1 -->
<svg width="609pt" height="247pt"
 viewBox="0.00 0.00 609.00 246.80" xmlns="http://www.w3.org/2000/svg" xmlns:xlink="http://www.w3.org/1999/xlink">
<g id="graph0" class="graph" transform="scale(1 1) rotate(0) translate(4 242.8)">
<title>dependencies</title>
<polygon fill="white" stroke="transparent" points="-4,4 -4,-242.8 605,-242.8 605,4 -4,4"/>
<text text-anchor="middle" x="300.5" y="-8.2" font-family="sans-serif" font-size="14.00">dependencies</text>
<g id="clust1" class="cluster">
<title>cluster_UserListModule</title>
<polygon fill="none" stroke="black" stroke-dasharray="1,5" points="8,-32.8 8,-230.8 593,-230.8 593,-32.8 8,-32.8"/>
</g>
<g id="clust4" class="cluster">
<title>cluster_UserListModule_exports</title>
<polygon fill="none" stroke="black" points="106,-170.8 106,-222.8 425,-222.8 425,-170.8 106,-170.8"/>
</g>
<g id="clust6" class="cluster">
<title>cluster_UserListModule_providers</title>
<polygon fill="none" stroke="black" points="168,-40.8 168,-92.8 585,-92.8 585,-40.8 168,-40.8"/>
</g>
<g id="clust3" class="cluster">
<title>cluster_UserListModule_imports</title>
<polygon fill="none" stroke="black" points="16,-40.8 16,-92.8 160,-92.8 160,-40.8 16,-40.8"/>
</g>
<!-- ApiServicesModule -->
<g id="node1" class="node">
<title>ApiServicesModule</title>
<polygon fill="#8dd3c7" stroke="black" points="151.98,-84.8 148.98,-88.8 127.98,-88.8 124.98,-84.8 24.02,-84.8 24.02,-48.8 151.98,-48.8 151.98,-84.8"/>
<text text-anchor="middle" x="88" y="-62.6" font-family="Times,serif" font-size="14.00">ApiServicesModule</text>
</g>
<!-- UserListModule -->
<g id="node2" class="node">
<title>UserListModule</title>
<polygon fill="#8dd3c7" stroke="black" points="302.77,-149.8 299.77,-153.8 278.77,-153.8 275.77,-149.8 195.23,-149.8 195.23,-113.8 302.77,-113.8 302.77,-149.8"/>
<text text-anchor="middle" x="249" y="-127.6" font-family="Times,serif" font-size="14.00">UserListModule</text>
</g>
<!-- ApiServicesModule&#45;&gt;UserListModule -->
<g id="edge1" class="edge">
<title>ApiServicesModule&#45;&gt;UserListModule</title>
<path fill="none" stroke="black" d="M133.07,-84.91C133.07,-104.14 133.07,-131.8 133.07,-131.8 133.07,-131.8 185.11,-131.8 185.11,-131.8"/>
<polygon fill="black" stroke="black" points="185.11,-135.3 195.11,-131.8 185.11,-128.3 185.11,-135.3"/>
</g>
<!-- UserListEventsStatsService  -->
<g id="node3" class="node">
<title>UserListEventsStatsService </title>
<polygon fill="#fb8072" stroke="black" points="416.52,-214.8 241.48,-214.8 241.48,-178.8 416.52,-178.8 416.52,-214.8"/>
<text text-anchor="middle" x="329" y="-192.6" font-family="Times,serif" font-size="14.00">UserListEventsStatsService </text>
</g>
<!-- UserListModule&#45;&gt;UserListEventsStatsService  -->
<g id="edge2" class="edge">
<title>UserListModule&#45;&gt;UserListEventsStatsService </title>
<path fill="none" stroke="black" stroke-dasharray="5,2" d="M272.19,-149.91C272.19,-149.91 272.19,-168.79 272.19,-168.79"/>
<polygon fill="black" stroke="black" points="268.69,-168.79 272.19,-178.79 275.69,-168.79 268.69,-168.79"/>
</g>
<!-- UserListService  -->
<g id="node4" class="node">
<title>UserListService </title>
<polygon fill="#fb8072" stroke="black" points="223.69,-214.8 114.31,-214.8 114.31,-178.8 223.69,-178.8 223.69,-214.8"/>
<text text-anchor="middle" x="169" y="-192.6" font-family="Times,serif" font-size="14.00">UserListService </text>
</g>
<!-- UserListModule&#45;&gt;UserListService  -->
<g id="edge3" class="edge">
<title>UserListModule&#45;&gt;UserListService </title>
<path fill="none" stroke="black" stroke-dasharray="5,2" d="M209.48,-149.91C209.48,-149.91 209.48,-168.79 209.48,-168.79"/>
<polygon fill="black" stroke="black" points="205.98,-168.79 209.48,-178.79 212.98,-168.79 205.98,-168.79"/>
</g>
<!-- UserListEventsStatsService -->
<g id="node5" class="node">
<title>UserListEventsStatsService</title>
<ellipse fill="#fdb462" stroke="black" cx="459" cy="-66.8" rx="118.13" ry="18"/>
<text text-anchor="middle" x="459" y="-62.6" font-family="Times,serif" font-size="14.00">UserListEventsStatsService</text>
</g>
<!-- UserListEventsStatsService&#45;&gt;UserListModule -->
<g id="edge4" class="edge">
<title>UserListEventsStatsService&#45;&gt;UserListModule</title>
<path fill="none" stroke="black" d="M378.6,-80.27C378.6,-99.31 378.6,-131.8 378.6,-131.8 378.6,-131.8 312.84,-131.8 312.84,-131.8"/>
<polygon fill="black" stroke="black" points="312.84,-128.3 302.84,-131.8 312.84,-135.3 312.84,-128.3"/>
</g>
<!-- UserListService -->
<g id="node6" class="node">
<title>UserListService</title>
<ellipse fill="#fdb462" stroke="black" cx="249" cy="-66.8" rx="73" ry="18"/>
<text text-anchor="middle" x="249" y="-62.6" font-family="Times,serif" font-size="14.00">UserListService</text>
</g>
<!-- UserListService&#45;&gt;UserListModule -->
<g id="edge5" class="edge">
<title>UserListService&#45;&gt;UserListModule</title>
<path fill="none" stroke="black" d="M249,-84.91C249,-84.91 249,-103.79 249,-103.79"/>
<polygon fill="black" stroke="black" points="245.5,-103.79 249,-113.79 252.5,-103.79 245.5,-103.79"/>
</g>
</g>
</svg>
