<?xml version="1.0" encoding="UTF-8" standalone="no"?>
<!DOCTYPE svg PUBLIC "-//W3C//DTD SVG 1.1//EN"
 "http://www.w3.org/Graphics/SVG/1.1/DTD/svg11.dtd">
<!-- Generated by graphviz version 3.0.0 (20220226.1711)
 -->
<!-- Title: dependencies Pages: 1 -->
<svg width="556pt" height="247pt"
 viewBox="0.00 0.00 556.00 246.80" xmlns="http://www.w3.org/2000/svg" xmlns:xlink="http://www.w3.org/1999/xlink">
<g id="graph0" class="graph" transform="scale(1 1) rotate(0) translate(4 242.8)">
<title>dependencies</title>
<polygon fill="white" stroke="transparent" points="-4,4 -4,-242.8 552,-242.8 552,4 -4,4"/>
<text text-anchor="middle" x="274" y="-8.2" font-family="sans-serif" font-size="14.00">dependencies</text>
<g id="clust1" class="cluster">
<title>cluster_UserListModule</title>
<polygon fill="none" stroke="black" stroke-dasharray="1,5" points="8,-32.8 8,-230.8 540,-230.8 540,-32.8 8,-32.8"/>
</g>
<g id="clust3" class="cluster">
<title>cluster_UserListModule_imports</title>
<polygon fill="none" stroke="black" points="388,-40.8 388,-92.8 532,-92.8 532,-40.8 388,-40.8"/>
</g>
<g id="clust6" class="cluster">
<title>cluster_UserListModule_providers</title>
<polygon fill="none" stroke="black" points="16,-40.8 16,-92.8 380,-92.8 380,-40.8 16,-40.8"/>
</g>
<g id="clust4" class="cluster">
<title>cluster_UserListModule_exports</title>
<polygon fill="none" stroke="black" points="153,-170.8 153,-222.8 433,-222.8 433,-170.8 153,-170.8"/>
</g>
<!-- ApiServicesModule -->
<g id="node1" class="node">
<title>ApiServicesModule</title>
<polygon fill="#8dd3c7" stroke="black" points="523.98,-84.8 520.98,-88.8 499.98,-88.8 496.98,-84.8 396.02,-84.8 396.02,-48.8 523.98,-48.8 523.98,-84.8"/>
<text text-anchor="middle" x="460" y="-62.6" font-family="Times,serif" font-size="14.00">ApiServicesModule</text>
</g>
<!-- UserListModule -->
<g id="node2" class="node">
<title>UserListModule</title>
<polygon fill="#8dd3c7" stroke="black" points="352.77,-149.8 349.77,-153.8 328.77,-153.8 325.77,-149.8 245.23,-149.8 245.23,-113.8 352.77,-113.8 352.77,-149.8"/>
<text text-anchor="middle" x="299" y="-127.6" font-family="Times,serif" font-size="14.00">UserListModule</text>
</g>
<!-- ApiServicesModule&#45;&gt;UserListModule -->
<g id="edge1" class="edge">
<title>ApiServicesModule&#45;&gt;UserListModule</title>
<path fill="none" stroke="black" d="M410.43,-84.91C410.43,-104.14 410.43,-131.8 410.43,-131.8 410.43,-131.8 363.08,-131.8 363.08,-131.8"/>
<polygon fill="black" stroke="black" points="363.08,-128.3 353.08,-131.8 363.08,-135.3 363.08,-128.3"/>
</g>
<!-- UserListService  -->
<g id="node3" class="node">
<title>UserListService </title>
<polygon fill="#fb8072" stroke="black" points="424.69,-214.8 315.31,-214.8 315.31,-178.8 424.69,-178.8 424.69,-214.8"/>
<text text-anchor="middle" x="370" y="-192.6" font-family="Times,serif" font-size="14.00">UserListService </text>
</g>
<!-- UserListModule&#45;&gt;UserListService  -->
<g id="edge2" class="edge">
<title>UserListModule&#45;&gt;UserListService </title>
<path fill="none" stroke="black" stroke-dasharray="5,2" d="M334.02,-149.91C334.02,-149.91 334.02,-168.79 334.02,-168.79"/>
<polygon fill="black" stroke="black" points="330.52,-168.79 334.02,-178.79 337.52,-168.79 330.52,-168.79"/>
</g>
<!-- UserListStatsService  -->
<g id="node4" class="node">
<title>UserListStatsService </title>
<polygon fill="#fb8072" stroke="black" points="297.42,-214.8 160.58,-214.8 160.58,-178.8 297.42,-178.8 297.42,-214.8"/>
<text text-anchor="middle" x="229" y="-192.6" font-family="Times,serif" font-size="14.00">UserListStatsService </text>
</g>
<!-- UserListModule&#45;&gt;UserListStatsService  -->
<g id="edge3" class="edge">
<title>UserListModule&#45;&gt;UserListStatsService </title>
<path fill="none" stroke="black" stroke-dasharray="5,2" d="M271.29,-149.91C271.29,-149.91 271.29,-168.79 271.29,-168.79"/>
<polygon fill="black" stroke="black" points="267.79,-168.79 271.29,-178.79 274.79,-168.79 267.79,-168.79"/>
</g>
<!-- UserListService -->
<g id="node5" class="node">
<title>UserListService</title>
<ellipse fill="#fdb462" stroke="black" cx="299" cy="-66.8" rx="73" ry="18"/>
<text text-anchor="middle" x="299" y="-62.6" font-family="Times,serif" font-size="14.00">UserListService</text>
</g>
<!-- UserListService&#45;&gt;UserListModule -->
<g id="edge4" class="edge">
<title>UserListService&#45;&gt;UserListModule</title>
<path fill="none" stroke="black" d="M299,-84.91C299,-84.91 299,-103.79 299,-103.79"/>
<polygon fill="black" stroke="black" points="295.5,-103.79 299,-113.79 302.5,-103.79 295.5,-103.79"/>
</g>
<!-- UserListStatsService -->
<g id="node6" class="node">
<title>UserListStatsService</title>
<ellipse fill="#fdb462" stroke="black" cx="116" cy="-66.8" rx="92.06" ry="18"/>
<text text-anchor="middle" x="116" y="-62.6" font-family="Times,serif" font-size="14.00">UserListStatsService</text>
</g>
<!-- UserListStatsService&#45;&gt;UserListModule -->
<g id="edge5" class="edge">
<title>UserListStatsService&#45;&gt;UserListModule</title>
<path fill="none" stroke="black" d="M184.29,-79.03C184.29,-97.85 184.29,-131.8 184.29,-131.8 184.29,-131.8 235,-131.8 235,-131.8"/>
<polygon fill="black" stroke="black" points="235,-135.3 245,-131.8 235,-128.3 235,-135.3"/>
</g>
</g>
</svg>
