<?xml version="1.0" encoding="UTF-8" standalone="no"?>
<!DOCTYPE svg PUBLIC "-//W3C//DTD SVG 1.1//EN"
 "http://www.w3.org/Graphics/SVG/1.1/DTD/svg11.dtd">
<!-- Generated by graphviz version 3.0.0 (20220226.1711)
 -->
<!-- Title: dependencies Pages: 1 -->
<svg width="811pt" height="247pt"
 viewBox="0.00 0.00 811.00 246.80" xmlns="http://www.w3.org/2000/svg" xmlns:xlink="http://www.w3.org/1999/xlink">
<g id="graph0" class="graph" transform="scale(1 1) rotate(0) translate(4 242.8)">
<title>dependencies</title>
<polygon fill="white" stroke="transparent" points="-4,4 -4,-242.8 807,-242.8 807,4 -4,4"/>
<text text-anchor="middle" x="401.5" y="-8.2" font-family="sans-serif" font-size="14.00">dependencies</text>
<g id="clust1" class="cluster">
<title>cluster_UserListModule</title>
<polygon fill="none" stroke="black" stroke-dasharray="1,5" points="8,-32.8 8,-230.8 795,-230.8 795,-32.8 8,-32.8"/>
</g>
<g id="clust6" class="cluster">
<title>cluster_UserListModule_providers</title>
<polygon fill="none" stroke="black" points="168,-40.8 168,-92.8 787,-92.8 787,-40.8 168,-40.8"/>
</g>
<g id="clust3" class="cluster">
<title>cluster_UserListModule_imports</title>
<polygon fill="none" stroke="black" points="16,-40.8 16,-92.8 160,-92.8 160,-40.8 16,-40.8"/>
</g>
<g id="clust4" class="cluster">
<title>cluster_UserListModule_exports</title>
<polygon fill="none" stroke="black" points="142,-170.8 142,-222.8 615,-222.8 615,-170.8 142,-170.8"/>
</g>
<!-- ApiServicesModule -->
<g id="node1" class="node">
<title>ApiServicesModule</title>
<polygon fill="#8dd3c7" stroke="black" points="151.98,-84.8 148.98,-88.8 127.98,-88.8 124.98,-84.8 24.02,-84.8 24.02,-48.8 151.98,-48.8 151.98,-84.8"/>
<text text-anchor="middle" x="88" y="-62.6" font-family="Times,serif" font-size="14.00">ApiServicesModule</text>
</g>
<!-- UserListModule -->
<g id="node2" class="node">
<title>UserListModule</title>
<polygon fill="#8dd3c7" stroke="black" points="412.77,-149.8 409.77,-153.8 388.77,-153.8 385.77,-149.8 305.23,-149.8 305.23,-113.8 412.77,-113.8 412.77,-149.8"/>
<text text-anchor="middle" x="359" y="-127.6" font-family="Times,serif" font-size="14.00">UserListModule</text>
</g>
<!-- ApiServicesModule&#45;&gt;UserListModule -->
<g id="edge1" class="edge">
<title>ApiServicesModule&#45;&gt;UserListModule</title>
<path fill="none" stroke="black" d="M86.77,-84.82C86.77,-102.17 86.77,-125.8 86.77,-125.8 86.77,-125.8 295.22,-125.8 295.22,-125.8"/>
<polygon fill="black" stroke="black" points="295.22,-129.3 305.22,-125.8 295.22,-122.3 295.22,-129.3"/>
</g>
<!-- UserListEventsStatsService  -->
<g id="node3" class="node">
<title>UserListEventsStatsService </title>
<polygon fill="#fb8072" stroke="black" points="606.52,-214.8 431.48,-214.8 431.48,-178.8 606.52,-178.8 606.52,-214.8"/>
<text text-anchor="middle" x="519" y="-192.6" font-family="Times,serif" font-size="14.00">UserListEventsStatsService </text>
</g>
<!-- UserListModule&#45;&gt;UserListEventsStatsService  -->
<g id="edge2" class="edge">
<title>UserListModule&#45;&gt;UserListEventsStatsService </title>
<path fill="none" stroke="black" stroke-dasharray="5,2" d="M412.87,-137.8C444.32,-137.8 477.87,-137.8 477.87,-137.8 477.87,-137.8 477.87,-168.78 477.87,-168.78"/>
<polygon fill="black" stroke="black" points="474.37,-168.78 477.87,-178.78 481.37,-168.78 474.37,-168.78"/>
</g>
<!-- UserListService  -->
<g id="node4" class="node">
<title>UserListService </title>
<polygon fill="#fb8072" stroke="black" points="413.69,-214.8 304.31,-214.8 304.31,-178.8 413.69,-178.8 413.69,-214.8"/>
<text text-anchor="middle" x="359" y="-192.6" font-family="Times,serif" font-size="14.00">UserListService </text>
</g>
<!-- UserListModule&#45;&gt;UserListService  -->
<g id="edge3" class="edge">
<title>UserListModule&#45;&gt;UserListService </title>
<path fill="none" stroke="black" stroke-dasharray="5,2" d="M359,-149.91C359,-149.91 359,-168.79 359,-168.79"/>
<polygon fill="black" stroke="black" points="355.5,-168.79 359,-178.79 362.5,-168.79 355.5,-168.79"/>
</g>
<!-- UserListStatsService  -->
<g id="node5" class="node">
<title>UserListStatsService </title>
<polygon fill="#fb8072" stroke="black" points="286.42,-214.8 149.58,-214.8 149.58,-178.8 286.42,-178.8 286.42,-214.8"/>
<text text-anchor="middle" x="218" y="-192.6" font-family="Times,serif" font-size="14.00">UserListStatsService </text>
</g>
<!-- UserListModule&#45;&gt;UserListStatsService  -->
<g id="edge4" class="edge">
<title>UserListModule&#45;&gt;UserListStatsService </title>
<path fill="none" stroke="black" stroke-dasharray="5,2" d="M305.18,-137.8C270.25,-137.8 231.21,-137.8 231.21,-137.8 231.21,-137.8 231.21,-168.78 231.21,-168.78"/>
<polygon fill="black" stroke="black" points="227.71,-168.78 231.21,-178.78 234.71,-168.78 227.71,-168.78"/>
</g>
<!-- UserListEventsStatsService -->
<g id="node6" class="node">
<title>UserListEventsStatsService</title>
<ellipse fill="#fdb462" stroke="black" cx="661" cy="-66.8" rx="118.13" ry="18"/>
<text text-anchor="middle" x="661" y="-62.6" font-family="Times,serif" font-size="14.00">UserListEventsStatsService</text>
</g>
<!-- UserListEventsStatsService&#45;&gt;UserListModule -->
<g id="edge5" class="edge">
<title>UserListEventsStatsService&#45;&gt;UserListModule</title>
<path fill="none" stroke="black" d="M574.6,-79.31C574.6,-96.63 574.6,-125.8 574.6,-125.8 574.6,-125.8 422.85,-125.8 422.85,-125.8"/>
<polygon fill="black" stroke="black" points="422.85,-122.3 412.85,-125.8 422.85,-129.3 422.85,-122.3"/>
</g>
<!-- UserListService -->
<g id="node7" class="node">
<title>UserListService</title>
<ellipse fill="#fdb462" stroke="black" cx="451" cy="-66.8" rx="73" ry="18"/>
<text text-anchor="middle" x="451" y="-62.6" font-family="Times,serif" font-size="14.00">UserListService</text>
</g>
<!-- UserListService&#45;&gt;UserListModule -->
<g id="edge6" class="edge">
<title>UserListService&#45;&gt;UserListModule</title>
<path fill="none" stroke="black" d="M395.32,-78.72C395.32,-78.72 395.32,-103.57 395.32,-103.57"/>
<polygon fill="black" stroke="black" points="391.82,-103.57 395.32,-113.57 398.82,-103.57 391.82,-103.57"/>
</g>
<!-- UserListStatsService -->
<g id="node8" class="node">
<title>UserListStatsService</title>
<ellipse fill="#fdb462" stroke="black" cx="268" cy="-66.8" rx="92.06" ry="18"/>
<text text-anchor="middle" x="268" y="-62.6" font-family="Times,serif" font-size="14.00">UserListStatsService</text>
</g>
<!-- UserListStatsService&#45;&gt;UserListModule -->
<g id="edge7" class="edge">
<title>UserListStatsService&#45;&gt;UserListModule</title>
<path fill="none" stroke="black" d="M332.57,-79.64C332.57,-79.64 332.57,-103.32 332.57,-103.32"/>
<polygon fill="black" stroke="black" points="329.07,-103.32 332.57,-113.32 336.07,-103.32 329.07,-103.32"/>
</g>
</g>
</svg>
